<svg width="70" height="18" viewBox="0 0 70 18" fill="none" xmlns="http://www.w3.org/2000/svg">
<path d="M9.97405 0.899569C11.2302 1.92405 11.4529 3.61222 11.7513 5.35385C12.2888 8.47184 12.6659 11.7027 12.8827 15.0464C12.9896 16.6588 11.4751 17.3759 10.0899 16.7702C9.86858 16.6738 9.67597 16.5219 9.5308 16.3291C9.38562 16.1363 9.29281 15.9092 9.26137 15.6699L8.67343 11.1622C8.65562 11.0316 8.58138 10.9677 8.45072 10.9707L4.9942 10.9885C4.92398 10.9889 4.85634 11.0144 4.80389 11.0603C4.75145 11.1062 4.71777 11.1693 4.70912 11.2379L4.14788 15.4428C4.09851 15.8074 3.93881 16.1481 3.69032 16.4189C3.44183 16.6897 3.11649 16.8776 2.75814 16.9572C1.44859 17.2468 0.392939 16.592 0.490933 15.2022C0.838366 10.1155 1.31645 6.23876 1.9252 3.57213C2.15682 2.5625 2.68095 1.6657 3.49757 0.881748C3.88064 0.804541 4.2414 0.694673 4.57993 0.552136C5.08178 0.34427 5.43217 0.218063 5.63113 0.17352C6.77142 -0.0759196 7.62963 -0.0566155 8.20571 0.231428C8.77586 0.519471 9.3653 0.742185 9.97405 0.899569ZM6.66776 8.05656C6.95133 8.06498 7.23389 8.01401 7.49929 7.90656C7.7647 7.79911 8.00774 7.63728 8.21458 7.43031C8.42141 7.22335 8.58798 6.97529 8.70475 6.70032C8.82153 6.42535 8.88623 6.12885 8.89517 5.82774C8.90411 5.52662 8.85711 5.2268 8.75684 4.94539C8.65658 4.66398 8.50502 4.40649 8.31082 4.18762C8.11662 3.96875 7.88363 3.79278 7.62506 3.66978C7.36649 3.54677 7.08743 3.47913 6.80386 3.47071C6.52028 3.46229 6.23773 3.51326 5.97232 3.62072C5.70691 3.72817 5.46388 3.89 5.25704 4.09696C5.0502 4.30393 4.88364 4.55198 4.76686 4.82695C4.65009 5.10192 4.58533 5.39842 4.57639 5.69954C4.56746 6.00065 4.61451 6.30048 4.71477 6.5819C4.81504 6.86331 4.96655 7.12079 5.16074 7.33966C5.35494 7.55853 5.58799 7.73449 5.84656 7.8575C6.10512 7.98051 6.38419 8.04815 6.66776 8.05656Z" fill="black"/>
<path d="M24.7345 7.79255C24.8889 7.98557 25.0923 8.11919 25.3447 8.19343C25.4843 8.23501 25.603 8.30924 25.701 8.41615C26.6721 9.45251 27.1116 10.7027 27.0195 12.1666C26.8711 14.5304 25.658 16.0122 23.3804 16.612C21.1933 17.1911 16.9751 17.3737 15.7903 14.9639C15.3508 14.0701 15.1281 13.0753 15.1221 11.9796C15.1073 9.3753 15.1162 6.93138 15.1489 4.64782C15.1875 1.94556 16.5624 0.429624 19.2735 0.100008C20.8147 -0.0841023 22.1257 -0.0143181 23.2066 0.309359C24.4271 0.670156 25.9461 1.67682 26.2445 3.00865C26.5741 4.47411 26.4806 5.87275 25.4695 7.04868C25.2557 7.29812 25.0641 7.3293 24.7879 7.49411C24.6513 7.57132 24.6335 7.6708 24.7345 7.79255ZM22.6811 5.01307C22.6811 4.49919 22.4769 4.00636 22.1135 3.64298C21.7502 3.27961 21.2574 3.07546 20.7435 3.07546C20.2296 3.07546 19.7367 3.27961 19.3734 3.64298C19.01 4.00636 18.8058 4.49919 18.8058 5.01307C18.8058 5.52696 19.01 6.0198 19.3734 6.38318C19.7367 6.74655 20.2296 6.95069 20.7435 6.95069C21.2574 6.95069 21.7502 6.74655 22.1135 6.38318C22.4769 6.0198 22.6811 5.52696 22.6811 5.01307ZM23.2494 11.256C23.2449 10.735 23.0336 10.2372 22.662 9.87206C22.2904 9.50691 21.789 9.30432 21.268 9.30886L20.6533 9.31422C20.1324 9.31877 19.6346 9.53007 19.2694 9.90166C18.9043 10.2732 18.7017 10.7747 18.7063 11.2956L18.7096 11.6876C18.7142 12.2085 18.9255 12.7063 19.2971 13.0715C19.6687 13.4366 20.1701 13.6392 20.691 13.6347L21.3057 13.6293C21.8266 13.6248 22.3245 13.4135 22.6896 13.0419C23.0548 12.6703 23.2574 12.1689 23.2528 11.6479L23.2494 11.256Z" fill="black"/>
<path d="M35.8475 0.00173241C41.7227 0.130906 42.4932 6.12637 41.9498 10.5851C41.4539 14.6593 39.3901 16.7691 35.7584 16.9146C29.5581 17.1641 28.7028 10.2288 29.518 5.61412C30.1282 2.17542 32.1994 -0.0739903 35.8475 0.00173241ZM34.6983 13.0928C38.5913 14.879 38.3819 8.59403 38.1191 6.32235C37.9454 4.83017 36.9254 3.16872 35.2773 3.48942C32.6047 4.01503 33.0769 9.03501 33.3665 10.8924C33.5417 12.0298 33.9856 12.7632 34.6983 13.0928Z" fill="black"/>
<path d="M56.2768 1.81777C56.2649 2.05533 56.2605 2.28844 56.2635 2.5171C56.2635 2.52601 56.2605 2.53046 56.2546 2.53046C56.2516 2.53046 56.2486 2.53046 56.2457 2.53046C56.2368 2.53046 56.2323 2.52601 56.2323 2.5171C56.2561 2.4191 56.2457 2.34487 56.2011 2.29438C56.1447 2.23499 56.1105 2.24687 56.0986 2.33001C55.9799 3.25056 56.0289 4.15923 56.2457 5.05603C56.1447 7.0456 56.1165 9.07973 56.161 11.1584C56.2145 13.7686 55.0163 15.9557 52.4061 16.7173C48.6868 17.8042 44.5131 16.1784 44.3929 11.8043C44.3186 9.12279 44.3023 5.83553 44.3439 1.94249C44.3572 0.579484 44.9853 -0.0173922 46.277 0.018242C47.4826 0.0538762 48.0839 0.675991 48.0809 1.88458C48.075 5.14511 48.1107 8.31953 48.1879 11.4078C48.2206 12.753 48.9094 13.4108 50.2546 13.3811C50.2635 13.3811 50.2903 13.3796 50.3348 13.3766C51.68 13.3469 52.3571 12.661 52.366 11.3187C52.3927 7.77313 52.4179 4.46658 52.4417 1.39907C52.4437 1.0532 52.5788 0.721272 52.8192 0.471785C53.0595 0.222298 53.3868 0.0742949 53.7335 0.0583289L55.1009 0.00043472C55.2375 -0.00550431 55.3563 0.0360684 55.4573 0.125154C55.9353 0.552764 56.2085 1.11697 56.2768 1.81777Z" fill="black"/>
<path d="M66.0671 3.93698C66.0226 7.60433 66.0003 11.2999 66.0003 15.0237C66.0003 16.2664 65.3009 16.8855 64.0894 16.9167C62.8659 16.9524 62.2394 16.3585 62.2097 15.135C62.1206 11.3133 62.1028 7.5969 62.1562 3.98597C62.1622 3.77216 62.0597 3.69051 61.8489 3.74099C60.9491 3.9637 59.2877 3.87016 58.7532 2.90358C58.5245 2.49973 58.4533 1.98155 58.5394 1.34905C58.5988 0.933313 58.7888 0.597753 59.1095 0.342375C59.3381 0.164204 59.6782 0.0691864 60.1295 0.0573083C62.5111 0.000887503 65.007 -0.0139628 67.6172 0.0127628C68.4813 0.0216714 69.05 0.253293 69.3232 0.707629C69.6884 1.31638 69.7448 1.97116 69.4924 2.67197C69.0693 3.84344 67.2742 3.73208 66.2987 3.70981C66.1472 3.70684 66.0701 3.78256 66.0671 3.93698Z" fill="black"/>
</svg>
