<svg width="450" height="100" viewBox="0 0 450 100" fill="none" xmlns="http://www.w3.org/2000/svg">
<path d="M56.446 98V94.5253C58.8098 94.0526 60.5589 93.5325 61.6935 92.9652C62.8754 92.3979 63.75 91.6179 64.3173 90.6251C64.8846 89.5851 65.1682 88.2141 65.1682 86.5122C65.1682 84.9049 64.9791 83.1794 64.6009 81.3357C64.2227 79.4447 63.6791 77.3409 62.9699 75.0245L60.3462 65.8768H27.3012L24.8901 72.8262C23.661 76.3245 22.8573 78.9719 22.4791 80.7684C22.1009 82.5648 21.9118 84.1958 21.9118 85.6613C21.9118 88.4978 22.621 90.5779 24.0392 91.9016C25.5047 93.2253 27.7266 94.0998 30.7049 94.5253V98H0.425473V94.5253C3.07286 94.0998 5.36568 92.5634 7.30395 89.916C9.28948 87.2686 11.2041 83.4867 13.0478 78.5701L42.6182 0.0703997H53.8223L77.9324 79.1374C79.067 82.8248 80.0598 85.6377 80.9107 87.5759C81.8089 89.5142 82.8726 91.027 84.1017 92.1143C85.3309 93.2016 87.0091 94.0053 89.1365 94.5253V98H56.446ZM29.2158 59.7075H58.857L45.3837 13.9692L29.2158 59.7075ZM99.0642 98V94.5253C101.995 93.7689 103.957 92.9416 104.95 92.0434C105.943 91.0979 106.581 89.7742 106.865 88.0723C107.195 86.3704 107.361 83.7703 107.361 80.272V18.933C107.361 15.6711 107.243 13.3073 107.006 11.8418C106.77 10.329 106.368 9.17078 105.801 8.36711C105.281 7.51617 104.572 6.85432 103.673 6.38158C102.775 5.86155 101.239 5.29426 99.0642 4.67969V1.20499H137.853C145.37 1.20499 151.397 2.00866 155.936 3.616C160.521 5.22335 163.925 7.61072 166.147 10.7781C168.369 13.8983 169.48 17.9402 169.48 22.9041C169.48 27.017 168.676 30.5862 167.069 33.6118C165.509 36.6374 163.452 39.143 160.9 41.1285C158.347 43.114 155.061 44.9578 151.043 46.6596V47.2979C157.472 49.2361 162.341 52.2381 165.651 56.3037C168.96 60.322 170.614 65.1204 170.614 70.6988C170.614 77.1282 169.173 82.3757 166.289 86.4413C163.452 90.507 159.458 93.4616 154.305 95.3053C149.152 97.1018 142.912 98 135.584 98H99.0642ZM133.031 44.6032C140.217 44.6032 145.701 42.8777 149.483 39.4266C153.312 35.9283 155.227 30.8699 155.227 24.2514C155.227 20.9895 154.683 18.2948 153.596 16.1674C152.556 13.9928 151.09 12.2673 149.199 10.9909C147.355 9.71444 145.157 8.81622 142.604 8.2962C140.051 7.72891 137.286 7.44526 134.308 7.44526C132.511 7.44526 130.147 7.49253 127.216 7.58708C124.285 7.68163 122.087 7.77618 120.621 7.87073V44.6032H133.031ZM120.621 91.2634C124.073 91.5943 127.925 91.7597 132.18 91.7597C138.373 91.7597 143.172 90.9797 146.575 89.4196C150.026 87.8596 152.508 85.5667 154.021 82.5412C155.581 79.4683 156.361 75.6391 156.361 71.0534C156.361 66.4678 155.51 62.6858 153.808 59.7075C152.154 56.7292 149.577 54.5072 146.079 53.0417C142.581 51.5762 137.759 50.8435 131.613 50.8435H120.621V91.2634ZM225.642 99.1346C219.969 99.1346 214.793 98.2127 210.113 96.369C205.48 94.478 201.485 91.5706 198.128 87.6468C194.819 83.6758 192.243 78.6174 190.399 72.4716C188.603 66.3259 187.704 58.9747 187.704 50.418C187.704 39.8757 189.312 30.8226 192.526 23.2587C195.741 15.6947 200.327 9.95082 206.283 6.02702C212.287 2.05594 219.237 0.0703997 227.131 0.0703997C235.546 0.0703997 242.614 1.93775 248.334 5.67246C254.102 9.35988 258.427 14.8201 261.311 22.0531C264.242 29.2389 265.708 38.0084 265.708 48.3615C265.708 59.4238 264.053 68.7606 260.744 76.3718C257.435 83.983 252.754 89.6796 246.703 93.4616C240.699 97.2436 233.679 99.1346 225.642 99.1346ZM202.312 48.4324C202.312 62.9458 204.416 73.9844 208.623 81.5484C212.878 89.1124 219.071 92.8943 227.202 92.8943C232.355 92.8943 236.728 91.2634 240.321 88.0014C243.914 84.6922 246.609 79.8701 248.405 73.5353C250.202 67.2005 251.1 59.802 251.1 51.3398C251.1 41.034 250.036 32.5009 247.909 25.7406C245.829 18.933 242.968 13.9928 239.328 10.9199C235.688 7.84709 231.457 6.31066 226.635 6.31066C222.38 6.31066 218.717 7.30343 215.644 9.28897C212.618 11.2745 210.089 14.111 208.056 17.7984C206.071 21.4386 204.605 25.8588 203.66 31.059C202.761 36.2592 202.312 42.0504 202.312 48.4324ZM353.922 64.5295C353.922 69.6824 353.45 74.1263 352.504 77.861C351.606 81.4066 350.258 84.5503 348.462 87.2923C346.807 89.7506 344.751 91.8543 342.293 93.6035C339.834 95.3053 336.856 96.6527 333.358 97.6454C329.859 98.6382 325.747 99.1346 321.019 99.1346C315.299 99.1346 310.382 98.4964 306.269 97.22C302.204 95.9435 298.824 93.8635 296.129 90.9797C293.482 88.0487 291.567 84.6213 290.385 80.6974C289.203 76.7264 288.612 71.6916 288.612 65.5932V18.933C288.612 15.2456 288.494 12.7637 288.258 11.4872C288.021 10.1636 287.667 9.12351 287.194 8.36711C286.769 7.61072 286.13 6.97251 285.279 6.45249C284.428 5.88519 282.845 5.29426 280.528 4.67969V1.20499H310.311V4.67969C307.664 5.34153 305.82 6.09793 304.78 6.94887C303.74 7.75254 303.031 8.98169 302.653 10.6363C302.275 12.2909 302.086 15.0565 302.086 18.933V69.1388C302.086 73.7244 302.558 77.5773 303.504 80.6974C304.497 83.8176 305.867 86.2522 307.617 88.0014C309.366 89.7033 311.446 90.9561 313.857 91.7597C316.268 92.5161 319.27 92.8943 322.863 92.8943C326.172 92.8943 329.079 92.327 331.585 91.1924C334.091 90.0106 336.171 88.2378 337.825 85.874C339.527 83.5103 340.685 80.6029 341.3 77.1518C341.914 73.7008 342.222 69.0679 342.222 63.2531V18.933C342.222 14.8201 342.009 12.0073 341.584 10.4945C341.205 8.98169 340.544 7.82346 339.598 7.01978C338.7 6.21611 336.809 5.43608 333.925 4.67969V1.20499H362.219V4.67969C359.477 5.38881 357.586 6.16884 356.546 7.01978C355.553 7.87073 354.868 9.09987 354.49 10.7072C354.111 12.3146 353.922 15.0565 353.922 18.933V64.5295ZM372.998 1.20499H449.724V25.8824H442.775C441.735 21.8168 440.695 18.6021 439.655 16.2384C438.662 13.8746 437.599 12.0782 436.464 10.849C435.329 9.61989 434.1 8.74531 432.777 8.22529C431.5 7.70527 429.562 7.44526 426.962 7.44526H417.956V80.0592C417.956 82.8484 418.098 85.0704 418.381 86.725C418.712 88.3796 419.185 89.7033 419.8 90.6961C420.461 91.6415 421.336 92.3979 422.423 92.9652C423.511 93.4853 425.213 94.0053 427.529 94.5253V98H395.122V94.5253C396.54 94.1944 397.793 93.8398 398.881 93.4616C399.968 93.0834 400.842 92.6343 401.504 92.1143C402.213 91.547 402.781 90.8379 403.206 89.9869C403.679 89.136 404.033 87.9778 404.27 86.5122C404.553 85.0467 404.695 82.8957 404.695 80.0592V7.44526H395.76C393.538 7.44526 391.695 7.65799 390.229 8.08347C388.811 8.50894 387.487 9.40716 386.258 10.7781C385.029 12.1018 383.894 14.0164 382.854 16.522C381.862 18.9803 380.916 22.1004 380.018 25.8824H372.998V1.20499Z" fill="black"/>
</svg>
