<svg width="137" height="38" viewBox="0 0 137 38" fill="none" xmlns="http://www.w3.org/2000/svg">
<path d="M20.9511 17.1057C21.2875 17.5261 21.7305 17.8172 22.2803 17.9789C22.5842 18.0694 22.8429 18.2311 23.0563 18.4639C25.1712 20.7212 26.1285 23.444 25.928 26.6326C25.6047 31.7809 22.9626 35.0083 18.0018 36.3148C13.2384 37.576 4.05099 37.9737 1.47038 32.7252C0.513158 30.7784 0.0280809 28.6117 0.0151455 26.2252C-0.017193 20.553 0.00226694 15.2301 0.0734116 10.2564C0.157492 4.37081 3.15204 1.06906 9.05705 0.351142C12.4138 -0.0498546 15.2692 0.102137 17.6235 0.807116C20.2817 1.59294 23.59 3.78549 24.24 6.68625C24.9579 9.87806 24.7542 12.9243 22.5519 15.4856C22.0863 16.0288 21.6691 16.0967 21.0676 16.4557C20.77 16.6239 20.7312 16.8405 20.9511 17.1057ZM16.4788 11.0519C16.4788 9.93268 16.034 8.85928 15.2426 8.06785C14.4512 7.27641 13.3779 6.83177 12.2586 6.83177C11.1393 6.83177 10.0659 7.27641 9.27448 8.06785C8.48305 8.85928 8.03834 9.93268 8.03834 11.0519C8.03834 12.1712 8.48305 13.2446 9.27448 14.0361C10.0659 14.8275 11.1393 15.2721 12.2586 15.2721C13.3779 15.2721 14.4512 14.8275 15.2426 14.0361C16.034 13.2446 16.4788 12.1712 16.4788 11.0519ZM17.7167 24.6491C17.7068 23.5145 17.2465 22.4303 16.4372 21.635C15.6279 20.8397 14.5357 20.3984 13.4011 20.4083L12.0623 20.42C10.9276 20.4299 9.84336 20.8901 9.04805 21.6994C8.25274 22.5087 7.8116 23.6008 7.8215 24.7355L7.82884 25.5892C7.83876 26.7239 8.29901 27.8081 9.10833 28.6034C9.91765 29.3987 11.0097 29.84 12.1443 29.8301L13.4831 29.8184C14.6178 29.8085 15.702 29.3483 16.4973 28.5389C17.2927 27.7296 17.7339 26.6375 17.724 25.5029L17.7167 24.6491Z" fill="black"/>
<path d="M56.324 1.99739C59.0598 4.22875 59.5449 7.90563 60.1949 11.6989C61.3656 18.49 62.187 25.5269 62.6592 32.8095C62.892 36.3215 59.5934 37.8834 56.5763 36.564C56.0943 36.3542 55.6748 36.0232 55.3586 35.6033C55.0424 35.1834 54.8403 34.6889 54.7718 34.1677L53.4912 24.3498C53.4524 24.0652 53.2907 23.9261 53.0062 23.9326L45.4778 23.9714C45.3248 23.9723 45.1775 24.0278 45.0633 24.1278C44.949 24.2277 44.8757 24.3652 44.8568 24.5147L43.6344 33.6729C43.5269 34.4671 43.1791 35.2091 42.6379 35.7989C42.0967 36.3887 41.3881 36.7979 40.6076 36.9714C37.7553 37.602 35.4561 36.1759 35.6695 33.149C36.4262 22.0699 37.4675 13.6263 38.7934 7.81832C39.2979 5.6193 40.4394 3.66605 42.2181 1.95858C43.0524 1.79042 43.8381 1.55113 44.5755 1.24068C45.6685 0.787937 46.4317 0.513054 46.865 0.416039C49.3486 -0.127247 51.2178 -0.0852025 52.4725 0.542164C53.7143 1.16953 54.9981 1.65461 56.324 1.99739ZM49.1228 17.5855C49.7405 17.6039 50.3559 17.4929 50.9339 17.2588C51.512 17.0248 52.0413 16.6723 52.4918 16.2215C52.9423 15.7708 53.3051 15.2305 53.5595 14.6316C53.8138 14.0327 53.9547 13.3869 53.9742 12.7311C53.9936 12.0753 53.8913 11.4222 53.6729 10.8093C53.4545 10.1964 53.1244 9.63556 52.7015 9.15886C52.2785 8.68215 51.771 8.2989 51.2078 8.03099C50.6447 7.76308 50.0369 7.61575 49.4192 7.59742C48.8016 7.57909 48.1862 7.6901 47.6081 7.92413C47.0301 8.15817 46.5007 8.51063 46.0502 8.96141C45.5997 9.41219 45.237 9.95246 44.9826 10.5513C44.7283 11.1502 44.5872 11.796 44.5678 12.4519C44.5483 13.1077 44.6508 13.7607 44.8692 14.3737C45.0875 14.9866 45.4175 15.5474 45.8405 16.0241C46.2635 16.5008 46.7711 16.8841 47.3342 17.152C47.8974 17.4199 48.5052 17.5672 49.1228 17.5855Z" fill="black"/>
<path d="M84.5456 29.0404C86.4406 29.8294 88.0833 29.5416 89.4739 28.1769C91.3463 26.3433 90.5023 22.5209 93.5389 21.609C95.2011 21.1174 96.5399 21.3923 97.5554 22.4336C100.117 25.0627 98.1568 30.7769 96.1874 33.018C92.5202 37.1799 85.4478 38.2471 80.4224 35.8799C71.0798 31.4851 70.7014 14.1291 75.0574 6.35814C77.748 1.55264 82.1492 -0.491154 88.2612 0.22676C90.7383 0.517806 92.7046 1.17106 94.1598 2.18649C97.274 4.35964 99.1561 8.82234 98.2927 12.6059C97.6621 15.3515 95.1688 15.9918 92.8016 15.1768C92.4911 15.0734 92.2518 14.8793 92.0837 14.5947C91.0456 12.8873 90.8127 10.9955 89.7553 9.42383C88.811 8.03328 87.1682 7.55466 84.8269 7.98799C79.918 8.89994 80.7522 20.5418 81.3343 24.0344C81.7029 26.2366 82.353 28.1284 84.5456 29.0404Z" fill="black"/>
<path d="M113.56 0.0221114L114.265 0.0565971C114.878 0.119182 115.45 0.276922 115.982 0.529816C116.158 0.716293 116.339 0.829329 116.524 0.868923C117.566 1.70424 117.932 2.74647 118.104 4.02818C118.161 4.44201 118.189 5.01677 118.191 5.75246C118.197 9.02093 118.198 12.2734 118.193 15.51C118.193 15.6415 118.224 15.6498 118.288 15.5349C118.539 15.0776 118.871 14.5335 119.285 13.9025C121.135 11.0811 122.967 8.24756 124.779 5.40186C125.515 4.24659 126.41 2.97254 127.239 2.0012C127.387 1.82749 127.739 1.4935 128.295 0.999202C130 -0.512415 132.491 -0.165643 134.213 1.08542C135.876 2.29624 136.324 4.58953 135.556 6.43643C135.467 6.65228 135.294 7.00161 135.037 7.4844C134.489 8.51514 133.631 9.69723 133.062 10.4559C131.18 12.967 129.305 15.4825 127.435 18.0025C127.289 18.1979 127.186 18.3608 127.124 18.491C127.097 18.5485 127.108 18.599 127.155 18.6424C127.244 18.7241 127.37 18.8672 127.532 19.0716C130.513 22.8241 132.858 25.8275 134.567 28.0819C134.954 28.5928 135.322 29.1726 135.671 29.8215C136.064 30.5521 136.304 31.1881 136.391 31.7297C136.905 34.9138 134.278 37.3278 131.222 37.1037C129.745 36.9964 128.912 36.186 127.837 35.0154C127.26 34.387 126.718 33.7266 126.212 33.0344C123.533 29.3751 120.887 25.7815 118.277 22.2538C118.238 22.2027 118.219 22.2091 118.219 22.273C118.186 25.5095 118.181 28.7339 118.204 31.9462C118.207 32.4749 118.127 33.1193 117.965 33.8793C117.373 36.6554 114.874 37.3585 112.301 37.0309C110.499 36.8022 109.342 35.8226 108.83 34.0919C108.616 33.3716 108.509 32.625 108.508 31.8523C108.484 18.2905 108.475 9.57333 108.481 5.70073C108.481 5.46061 108.501 5.07488 108.54 4.54355C108.609 4.37112 108.636 4.16677 108.621 3.93048C108.768 2.89463 109.15 2.01397 109.767 1.2885C110.627 0.276921 112.253 -0.0315328 113.56 0.0221114Z" fill="black"/>
</svg>
