<svg width="147" height="147" viewBox="0 0 147 147" fill="none" xmlns="http://www.w3.org/2000/svg">
<rect width="146.083" height="146.083" rx="73.0414" fill="#FDD9D1"/>
<path d="M45.429 72.7549C45.9807 77.1228 46.2248 80.1975 42.5714 83.2812C40.2563 85.2286 37.2539 85.8314 33.5643 85.0899C29.543 84.276 26.9747 81.8554 25.8594 77.8281C22.6671 66.316 31.0954 60.5284 41.4319 61.1885C55.2862 62.0627 64.5013 69.1677 69.0772 82.5035C69.1314 82.6543 69.0862 82.7628 68.9415 82.8291L62.8644 85.7772C62.838 85.7904 62.8091 85.7978 62.7795 85.799C62.75 85.8001 62.7206 85.7949 62.6932 85.7838C62.6658 85.7727 62.6411 85.7559 62.6207 85.7345C62.6004 85.7131 62.5848 85.6875 62.5751 85.6596C60.1695 78.4672 55.5424 74.0632 48.6936 72.4474C47.7471 72.2304 46.8277 72.1339 45.9354 72.158C45.5496 72.1701 45.3808 72.369 45.429 72.7549Z" fill="black"/>
<path d="M100.679 72.4277C100.607 72.4228 100.534 72.435 100.467 72.4634C100.401 72.4918 100.342 72.5355 100.295 72.591C100.248 72.6465 100.215 72.7122 100.199 72.7829C100.182 72.8535 100.183 72.927 100.2 72.9975C101.556 78.4897 100.052 82.3482 95.6872 84.5728C89.9537 87.5029 82.8819 84.8261 80.802 78.4506C78.939 72.7443 80.196 66.6401 85.7396 63.6558C88.4646 62.1908 91.1233 61.4583 93.7157 61.4583C108.655 61.4824 118.657 68.2106 123.721 81.6428C123.981 82.3361 123.782 82.8516 123.124 83.1892L118.386 85.64C117.753 85.9656 117.334 85.7907 117.129 85.1155C114.832 77.6729 108.23 73.0156 100.679 72.4277Z" fill="black"/>
</svg>
