<svg width="57" height="36" viewBox="0 0 57 36" fill="none" xmlns="http://www.w3.org/2000/svg">
<path d="M23.9321 24.8208C23.9529 26.9541 23.966 29.1187 23.9712 31.3146C23.9947 35.8368 20.5052 37.3938 17.0705 34.6163C11.0513 29.7498 6.22658 25.6606 2.59629 22.3484C0.476016 20.4159 -1.27654 17.6228 1.24276 15.1035C5.4129 10.9099 10.1855 6.86495 15.1849 2.67916C16.9453 1.20827 18.8935 -0.434747 21.358 0.105102C23.3374 0.535417 23.9712 2.60092 23.9712 4.37695C23.966 6.72412 23.9581 9.0087 23.9477 11.2307C23.9477 11.4602 24.0625 11.5749 24.292 11.5749C32.6114 11.5906 41.2672 11.5854 50.2595 11.5593C55.345 11.5436 57.0741 13.9221 56.9254 18.812C56.8315 22.1059 54.6722 24.3122 51.3235 24.3279C42.253 24.3853 33.2816 24.3905 24.4093 24.3435C24.0911 24.3435 23.9321 24.5026 23.9321 24.8208Z" fill="#848686"/>
</svg>
