<svg width="332" height="42" viewBox="0 0 332 42" fill="none" xmlns="http://www.w3.org/2000/svg">
<rect width="40.62" height="40.62" rx="20.31" fill="#FDD9D1"/>
<path d="M12.6321 20.2303C12.7854 21.4448 12.8533 22.2998 11.8374 23.1573C11.1937 23.6987 10.3589 23.8664 9.33292 23.6602C8.21477 23.4339 7.50062 22.7608 7.19049 21.641C6.30284 18.4399 8.64643 16.8306 11.5206 17.0141C15.373 17.2572 17.9353 19.2328 19.2077 22.941C19.2228 22.9829 19.2102 23.0131 19.17 23.0315L17.4802 23.8513C17.4728 23.855 17.4648 23.857 17.4566 23.8573C17.4484 23.8577 17.4402 23.8562 17.4326 23.8531C17.4249 23.85 17.4181 23.8454 17.4124 23.8394C17.4067 23.8334 17.4024 23.8264 17.3997 23.8186C16.7308 21.8187 15.4442 20.5941 13.5398 20.1448C13.2766 20.0844 13.021 20.0576 12.7729 20.0643C12.6656 20.0677 12.6186 20.123 12.6321 20.2303Z" fill="black"/>
<path d="M27.995 20.1394C27.9749 20.1381 27.9547 20.1415 27.9361 20.1493C27.9176 20.1572 27.9011 20.1694 27.8881 20.1848C27.8752 20.2003 27.866 20.2185 27.8614 20.2382C27.8568 20.2578 27.8569 20.2783 27.8617 20.2978C28.2389 21.825 27.8206 22.8979 26.6069 23.5165C25.0127 24.3312 23.0463 23.5869 22.4679 21.8141C21.9499 20.2274 22.2995 18.5301 23.8409 17.7003C24.5986 17.2929 25.3379 17.0892 26.0588 17.0892C30.2129 17.0959 32.994 18.9668 34.4022 22.7018C34.4742 22.8946 34.4189 23.0379 34.2362 23.1318L32.9185 23.8132C32.7425 23.9038 32.626 23.8552 32.569 23.6674C31.9303 21.5979 30.0947 20.3029 27.995 20.1394Z" fill="black"/>
<path d="M248.513 15.2885L248.513 15.2886C247.365 20.3123 247.259 25.2688 248.197 30.1562L248.197 30.1562C249.385 36.3429 253.507 40.8815 260.108 41.3776C263.187 41.6104 265.846 41.1786 268.074 40.0691C270.303 38.9588 272.087 37.1773 273.426 34.7364L273.426 34.7364C275.652 30.676 276.26 24.9634 276.063 20.2888L276.062 20.2887C275.917 16.8923 275.262 13.9142 274.093 11.3588L274.093 11.3586C271.591 5.91005 266.138 3.62985 260.228 4.1287L260.228 4.12872C256.298 4.46388 253.244 6.20429 251.087 9.34659L251.087 9.34671C249.872 11.1198 249.014 13.101 248.513 15.2885ZM262.294 12.2493L262.294 12.2493C264.008 12.3748 265.249 13.1866 266.041 14.6987C266.276 15.149 266.533 15.6492 266.628 16.1144L266.628 16.1146C267.44 20.0605 267.438 24.0112 266.622 27.9686L266.622 27.9687C266.319 29.4461 265.74 30.7268 264.887 31.815C263.163 34.0139 259.523 33.7785 257.953 31.5276L257.952 31.527C257.792 31.299 257.609 30.9143 257.404 30.3579L257.404 30.3563C257.34 30.187 257.266 30.0129 257.195 29.8459C257.147 29.7332 257.1 29.6237 257.059 29.5211C256.952 29.2534 256.865 28.9938 256.823 28.7185L256.823 28.7174C256.221 24.8591 256.332 21.0178 257.157 17.1922C257.458 15.8001 257.958 14.5026 258.773 13.5859C259.578 12.6795 260.702 12.1321 262.294 12.2493Z" fill="#FFAB00" stroke="black" stroke-width="0.427709"/>
<path d="M311.231 17.0164C310.918 14.0056 310.599 10.9814 310.274 7.94391C310.196 7.21069 310.106 6.63254 310.004 6.21415C309.693 4.93334 309.2 3.87652 308.014 3.11463L307.971 3.08726L307.921 3.08191C307.789 3.06788 307.637 3.00052 307.464 2.85227L307.434 2.82627L307.396 2.81297C306.818 2.6089 306.21 2.50831 305.571 2.51022L305.571 2.50992L305.56 2.51055L304.857 2.54986L304.857 2.54986L319.592 2.19617C319.093 2.74461 318.778 3.11274 318.649 3.30056L318.473 3.17943C318.473 3.17947 318.473 3.17951 318.473 3.17954C317.743 4.24119 316.983 5.60833 316.372 6.83621C314.87 9.84818 313.349 12.8501 311.807 15.842L311.807 15.842C311.586 16.2712 311.394 16.6627 311.231 17.0164ZM311.231 17.0164C311.245 17.1577 311.26 17.2989 311.274 17.4401C311.463 17.0083 311.704 16.5083 311.997 15.94" fill="#007C91" stroke="black" stroke-width="0.427709"/>
<path d="M307.465 35.7468L305.964 24.9249" stroke="#3496A7" stroke-width="4.27709" stroke-linecap="round"/>
<path d="M304.204 8.11707L304.322 9.60937" stroke="#3496A7" stroke-width="4.27709" stroke-linecap="round"/>
<path d="M319.655 8.17982L320.423 7.04633" stroke="#3496A7" stroke-width="4.27709" stroke-linecap="round"/>
<path d="M326.602 33.5869L318.694 25.8469" stroke="#3496A7" stroke-width="4.27709" stroke-linecap="round"/>
<path d="M244.402 19.1519L244.402 19.152C244.742 19.5082 245.169 19.7397 245.692 19.845L245.693 19.8451C246.041 19.9166 246.348 20.0728 246.61 20.3123C248.961 22.4201 250.178 25.1089 250.258 28.3636C250.322 30.9795 249.758 33.1798 248.55 34.9498C247.342 36.7198 245.504 38.0404 243.055 38.9201C240.713 39.7646 237.242 40.4889 233.969 40.3703C230.704 40.252 227.568 39.2913 225.995 36.6917C224.852 34.8029 224.17 32.6522 223.946 30.2437C223.419 24.587 222.973 19.274 222.61 14.3047C222.393 11.3305 222.965 8.91544 224.355 7.0847C225.745 5.25428 227.929 4.03768 230.876 3.41489L230.877 3.4148C234.209 2.71798 237.101 2.61643 239.549 3.12184C240.935 3.40315 242.514 4.02625 243.864 4.94107C245.213 5.85482 246.352 7.07341 246.823 8.55386C247.829 11.7111 247.904 14.8459 245.877 17.6682L244.402 19.1519ZM244.402 19.1519L244.4 19.1493M244.402 19.1519L244.4 19.1493M244.4 19.1493C244.298 19.0461 244.292 18.9888 244.294 18.9702C244.295 18.9522 244.31 18.8981 244.428 18.8173L244.428 18.8174M244.4 19.1493L244.428 18.8174M244.428 18.8174L244.432 18.8144M244.428 18.8174L244.432 18.8144M244.432 18.8144C244.568 18.7164 244.695 18.6362 244.818 18.5606M244.432 18.8144L244.818 18.5606M244.818 18.5606C244.845 18.544 244.872 18.5275 244.9 18.511M244.818 18.5606L244.9 18.511M244.9 18.511C244.994 18.4533 245.089 18.3955 245.18 18.3349M244.9 18.511L245.18 18.3349M245.18 18.3349C245.422 18.1741 245.65 17.9854 245.877 17.6685L245.18 18.3349ZM237.627 10.9459C238.442 11.6299 238.952 12.6096 239.045 13.6696C239.138 14.7296 238.805 15.7831 238.121 16.5982C237.437 17.4133 236.458 17.9233 235.398 18.0161C234.338 18.1088 233.284 17.7767 232.469 17.0927C231.654 16.4087 231.144 15.429 231.051 14.369C230.958 13.309 231.291 12.2555 231.975 11.4404C232.659 10.6253 233.638 10.1152 234.698 10.0225C235.758 9.92976 236.812 10.2619 237.627 10.9459ZM240.004 24.3767C240.837 25.0634 241.363 26.0528 241.467 27.1273L241.548 27.9783C241.652 29.0529 241.324 30.1245 240.638 30.9575C239.951 31.7904 238.961 32.3166 237.887 32.42L236.552 32.5485C235.478 32.652 234.406 32.3243 233.573 31.6377C232.74 30.951 232.214 29.9616 232.111 28.887L232.029 28.0361C231.925 26.9615 232.253 25.8899 232.94 25.0569C233.626 24.2239 234.616 23.6978 235.69 23.5944L237.025 23.4659C238.099 23.3624 239.171 23.6901 240.004 24.3767Z" fill="#784779" stroke="black" stroke-width="0.427709"/>
<path d="M274.351 15.7578L274.351 15.7579C273.379 20.8186 273.446 25.7758 274.554 30.6274L274.554 30.6275C275.957 36.769 280.235 41.1609 286.849 41.4264C289.935 41.5516 292.577 41.0272 294.765 39.8406C296.954 38.6532 298.674 36.8106 299.927 34.3245L299.927 34.3244C302.01 30.1888 302.419 24.4585 302.058 19.7937L302.058 19.7935C301.794 16.4043 301.036 13.4508 299.778 10.9378L299.778 10.9376C297.088 5.57966 291.559 3.49115 285.669 4.19597L285.669 4.19599C281.753 4.66811 278.762 6.51402 276.716 9.72969L276.716 9.72981C275.563 11.5442 274.775 13.5542 274.351 15.7578ZM288.017 12.2395L288.018 12.2395C289.735 12.3051 291.003 13.0731 291.847 14.5567C292.099 14.9984 292.373 15.4895 292.484 15.951L292.484 15.9512C293.433 19.8664 293.568 23.8148 292.892 27.7981L292.892 27.7983C292.64 29.2854 292.106 30.5855 291.292 31.7028C289.646 33.9605 286 33.8523 284.352 31.6576L284.351 31.657C284.183 31.4347 283.986 31.0567 283.763 30.5077L283.762 30.5061C283.693 30.3392 283.612 30.1678 283.536 30.0033C283.484 29.8924 283.433 29.7846 283.389 29.6835C283.272 29.4197 283.176 29.1633 283.125 28.8896L283.125 28.8886C282.388 25.0536 282.366 21.2107 283.057 17.3586C283.308 15.9569 283.763 14.6427 284.545 13.6982C285.319 12.7642 286.422 12.1779 288.017 12.2395Z" fill="#6A9742" stroke="black" stroke-width="0.427709"/>
<path d="M254.8 11.3345L258.008 8.98206" stroke="#FFBC34" stroke-width="4.27709" stroke-linecap="round"/>
<path d="M253.945 31.6233C254.943 33.9757 258.051 38.5522 262.499 38.0389C268.059 37.3974 271.053 33.548 271.695 31.6233" stroke="#FFBC34" stroke-width="4.27709" stroke-linecap="round"/>
<path d="M281.889 9.74991C283.029 7.88542 286.631 7.35814 286.631 7.35814" stroke="#88AC68" stroke-width="4.27709" stroke-linecap="round"/>
<path d="M279.502 29.9398C280.22 32.3922 282.775 37.2986 287.253 37.3052C292.85 37.3135 296.271 33.8378 297.132 32.0006" stroke="#88AC68" stroke-width="4.27709" stroke-linecap="round"/>
<path d="M179.492 8.54614C176.749 8.41104 174.114 8.28879 171.586 8.1794C171.442 8.17186 171.366 8.23859 171.359 8.3796M179.492 8.54614L179.481 8.75973C179.481 8.75973 179.481 8.75973 179.482 8.75973M179.492 8.54614C181.063 8.62416 182.442 8.50162 183.247 7.17604M179.492 8.54614L179.482 8.75973M179.482 8.75973C176.739 8.62466 174.104 8.50243 171.577 8.39305L171.575 8.39297C171.574 8.39293 171.573 8.39289 171.572 8.39285M179.482 8.75973C181.052 8.83772 182.555 8.72743 183.43 7.28721M171.572 8.39285L171.573 8.39079C171.573 8.39076 171.573 8.39072 171.573 8.39069C171.573 8.37305 171.576 8.3665 171.576 8.36714C171.576 8.36765 171.575 8.36999 171.572 8.37336C171.57 8.3768 171.567 8.38058 171.563 8.38416C171.56 8.38641 171.558 8.38827 171.555 8.38976L171.359 8.3796M171.572 8.39285C171.555 8.39211 171.547 8.39396 171.546 8.39415L171.546 8.39415C171.546 8.39415 171.548 8.39363 171.551 8.39202C171.553 8.39141 171.554 8.3907 171.555 8.38988L171.359 8.3796M171.572 8.39285L171.218 15.2326L171.218 15.2328C171.218 15.2336 171.218 15.2343 171.218 15.235M171.359 8.3796L171.005 15.2216C170.997 15.3626 171.064 15.4382 171.205 15.4485M171.205 15.4485L171.218 15.256C171.218 15.2553 171.218 15.2544 171.217 15.2534C171.215 15.2501 171.213 15.2464 171.21 15.2426C171.206 15.2388 171.203 15.2359 171.2 15.2338C171.198 15.2328 171.197 15.2321 171.196 15.2316C171.196 15.2316 171.196 15.2315 171.196 15.2315C171.195 15.2311 171.195 15.231 171.195 15.2309C171.195 15.2309 171.196 15.2312 171.197 15.2315C171.197 15.2316 171.197 15.2316 171.197 15.2317C171.198 15.2319 171.199 15.2323 171.201 15.2326C171.205 15.2335 171.211 15.2344 171.218 15.235M171.205 15.4485L171.219 15.2572M171.205 15.4485C173.517 15.61 175.815 15.7233 178.1 15.7882M171.218 15.235C171.219 15.2351 171.22 15.2352 171.221 15.2352L171.219 15.2564C171.219 15.2579 171.219 15.2586 171.219 15.2586C171.219 15.2586 171.219 15.2581 171.219 15.2572M171.218 15.235C171.218 15.2427 171.218 15.2484 171.218 15.2524C171.219 15.2528 171.219 15.2532 171.219 15.2535L171.219 15.2572M171.219 15.2572L170.489 0.456258C166.655 0.385172 164.341 2.15977 163.548 5.78007C163.26 7.09811 163.075 8.47209 162.995 9.90201C162.605 16.7292 162.305 22.7602 162.094 27.9952M178.1 15.7882C179.18 15.8189 180.102 16.0417 180.865 16.4569C181.555 16.8335 181.938 17.5346 182.014 18.5601C182.146 20.2955 181.598 21.4095 180.372 21.9022M178.1 15.7882L178.106 15.5744C178.106 15.5744 178.106 15.5744 178.106 15.5744L178.1 15.7882ZM180.372 21.9022C179.821 22.1272 178.736 22.2031 177.118 22.1298M180.372 21.9022L180.452 22.1006C180.452 22.1005 180.452 22.1005 180.452 22.1004C180.452 22.1003 180.453 22.1002 180.453 22.1002L180.372 21.9022ZM177.118 22.1298C175.039 22.0382 172.958 21.9436 170.874 21.8459C170.727 21.8382 170.65 21.9077 170.642 22.0545L170.263 29.2848C170.251 29.5207 170.363 29.642 170.599 29.6486C173.717 29.7427 176.551 29.9216 179.102 30.1852M177.118 22.1298L177.108 22.3435C177.108 22.3435 177.108 22.3435 177.109 22.3435C177.109 22.3435 177.109 22.3435 177.109 22.3435L177.118 22.1298ZM179.102 30.1852C181.252 30.4046 182.36 31.5592 182.427 33.649C182.514 36.4555 181.157 37.8373 178.357 37.7944C175.967 37.7586 172.735 37.5936 168.662 37.2993C168.254 37.2692 167.822 37.1875 167.367 37.054C167.185 37.0012 167.008 36.957 166.833 36.9136C166.432 36.8136 166.047 36.718 165.668 36.5321C162.232 34.8544 161.956 31.3772 162.094 27.9952M179.102 30.1852L179.124 29.9724M179.102 30.1852L179.124 29.9724C179.124 29.9724 179.124 29.9724 179.124 29.9724M162.094 27.9952L161.88 27.9866L162.094 27.9952ZM183.247 7.17604L161.88 27.9865C162.091 22.7501 162.392 16.7178 162.781 9.88983C162.862 8.44932 163.048 7.0641 163.339 5.73436L163.339 5.73432C163.744 3.88856 164.541 2.48981 165.748 1.56421C166.954 0.639288 168.543 0.206284 170.493 0.24244L170.493 0.242443C173.547 0.301366 176.782 0.455021 180.197 0.703346L180.197 0.703349C181.939 0.830273 183.737 1.80846 184.021 3.76392C184.22 5.1221 184.03 6.30187 183.43 7.28721M183.247 7.17604L183.43 7.28708C183.43 7.28712 183.43 7.28717 183.43 7.28721M183.247 7.17604L183.43 7.28721M179.124 29.9724C180.232 30.0855 181.1 30.4427 181.7 31.0676C182.301 31.6935 182.606 32.5611 182.641 33.6422L182.641 33.6424C182.685 35.0775 182.362 36.1918 181.627 36.94C180.893 37.6884 179.786 38.0302 178.354 38.0083M179.124 29.9724L178.354 38.0083M178.354 38.0083L178.357 37.7947L178.354 38.0083C178.354 38.0083 178.354 38.0083 178.354 38.0083ZM178.354 38.0083C175.958 37.9724 172.721 37.807 168.646 37.5126M178.354 38.0083L168.646 37.5126M168.646 37.5126L168.646 37.5126C168.221 37.4813 167.774 37.3963 167.307 37.2593L168.646 37.5126ZM182.228 18.5443C182.228 18.5443 182.228 18.5442 182.228 18.5442C182.228 18.5441 182.228 18.5441 182.228 18.544L182.015 18.5601L182.228 18.5443ZM165.574 36.7241C165.574 36.7242 165.574 36.7242 165.574 36.7242L165.668 36.5322L165.574 36.7241Z" fill="#F48697" stroke="black" stroke-width="0.427709"/>
<path d="M144.762 18.5007C144.608 15.4777 144.448 12.441 144.282 9.39064C144.242 8.65432 144.183 8.07227 144.103 7.64911C143.859 6.35376 143.422 5.27261 142.278 4.44967L142.237 4.42012L142.187 4.41213C142.055 4.39122 141.907 4.316 141.742 4.15891L141.713 4.13135L141.677 4.1161C141.11 3.88208 140.508 3.74977 139.87 3.71827L139.87 3.71797L139.859 3.71801L139.155 3.72047L139.155 3.72046L153.888 4.13845C153.361 4.65998 153.027 5.01115 152.889 5.19197L152.719 5.06179C152.719 5.06182 152.719 5.06186 152.719 5.06189C151.935 6.0839 151.105 7.4094 150.429 8.60357C148.772 11.5328 147.096 14.451 145.4 17.3581L145.4 17.3581C145.156 17.7751 144.944 18.1561 144.762 18.5007ZM144.762 18.5007C144.77 18.6426 144.777 18.7844 144.784 18.9261C144.995 18.5049 145.262 18.0181 145.584 17.4659" fill="#007C91" stroke="black" stroke-width="0.427709"/>
<path d="M84.0123 14.5585L84.0123 14.5585C83.0403 19.6193 83.1074 24.5764 84.2149 29.4281L84.2149 29.4281C85.6182 35.5696 89.8958 39.9616 96.5103 40.227C99.5959 40.3523 102.238 39.8279 104.426 38.6413C106.615 37.4539 108.335 35.6112 109.588 33.1251L109.588 33.1251C111.671 28.9894 112.08 23.2591 111.719 18.5943L111.719 18.5942C111.455 15.2049 110.697 12.2515 109.439 9.73847L109.439 9.73824C106.749 4.38032 101.22 2.29181 95.3302 2.99663L95.33 2.99665C91.414 3.46877 88.4233 5.31468 86.3772 8.53035L86.3771 8.53047C85.2244 10.3449 84.4363 12.3548 84.0123 14.5585ZM97.6784 11.0402L97.6785 11.0402C99.3958 11.1058 100.664 11.8738 101.508 13.3574C101.76 13.7991 102.034 14.2901 102.145 14.7517L102.145 14.7519C103.093 18.667 103.229 22.6154 102.553 26.5988L102.553 26.5989C102.301 28.0861 101.767 29.3862 100.953 30.5035C99.307 32.7611 95.6606 32.6529 94.0125 30.4582L94.0121 30.4577C93.8441 30.2354 93.6472 29.8573 93.4237 29.3084L93.423 29.3068C93.3535 29.1398 93.2734 28.9684 93.1965 28.804C93.1447 28.693 93.0943 28.5853 93.0497 28.4841C92.9332 28.2203 92.8369 27.9639 92.7857 27.6902L92.7855 27.6892C92.0491 23.8543 92.0265 20.0114 92.7176 16.1593C92.9692 14.7576 93.4241 13.4434 94.2062 12.4989C94.9796 11.5648 96.0833 10.9786 97.6784 11.0402Z" fill="#6A9742" stroke="black" stroke-width="0.427709"/>
<path d="M90.9872 10.2651L94.1951 7.91272" stroke="#88AC68" stroke-width="4.27709" stroke-linecap="round"/>
<path d="M131.066 2.73659L131.066 2.73662C134.241 4.71111 135.905 7.74201 136.064 11.7966C136.13 13.4857 135.73 14.9498 134.818 15.8929C133.897 16.8454 132.496 17.2242 130.661 16.824L131.066 2.73659ZM131.066 2.73659C127.982 0.818959 123.846 0.262141 120.266 1.00743C116.12 1.86765 113.16 4.29847 111.4 8.28026C110.144 11.1206 109.419 14.3595 109.22 17.9938M131.066 2.73659L127.913 24.9018L127.71 24.8336C127.71 24.8334 127.71 24.8331 127.71 24.8329C127.892 24.292 128.163 23.856 128.529 23.5378C129.187 22.9658 129.901 22.6155 130.672 22.4982C131.442 22.3809 132.253 22.4983 133.101 22.8381C133.812 23.1228 134.363 23.5488 134.742 24.1204C135.12 24.6908 135.316 25.3915 135.343 26.211C135.437 28.9675 134.741 31.6401 132.99 33.8163L132.99 33.8164C130.923 36.3804 128.053 37.7941 124.401 38.066L124.401 38.066C120.787 38.3348 117.78 37.7026 115.4 36.1483C113.019 34.5936 111.289 32.132 110.197 28.7874C109.066 25.3276 109.019 21.579 109.22 17.9938M121.628 29.857L121.628 29.8571C123.175 30.2353 124.359 30.0082 125.261 29.3668C126.171 28.7199 126.825 27.6294 127.259 26.2204L121.628 29.857ZM121.628 29.857C120.611 29.6097 119.855 29.0991 119.343 28.3294L119.165 28.4479M121.628 29.857L119.165 28.4479M109.22 17.9938C109.22 17.9938 109.22 17.9938 109.22 17.9937L109.432 18.0056L109.22 17.994C109.22 17.9939 109.22 17.9939 109.22 17.9938ZM119.165 28.4479L119.343 28.3294C118.572 27.1713 118.135 25.8883 118.031 24.4769C117.732 20.4074 117.902 16.3789 118.975 12.5959C119.386 11.1617 120.13 10.1336 121.2 9.48849C122.931 8.4453 125.331 8.60692 126.72 10.1787C127.092 10.6019 127.339 11.1677 127.543 11.8115C127.644 12.1322 127.734 12.4671 127.823 12.8087C127.834 12.8524 127.845 12.8962 127.857 12.9401C127.934 13.2379 128.013 13.5397 128.099 13.8343C128.492 15.1776 129.077 16.4801 130.661 16.824L119.165 28.4479Z" fill="#F48697" stroke="black" stroke-width="0.427709"/>
<path d="M195.73 38.5016C197.085 38.3954 198.169 37.9725 198.895 37.197C199.622 36.4191 199.96 35.3183 199.887 33.9199C199.46 25.7807 199.086 17.7006 198.763 9.6796C198.759 9.54294 198.79 9.47869 198.818 9.44769C198.846 9.41747 198.905 9.38228 199.036 9.3779C199.145 9.37469 199.259 9.37174 199.377 9.36867C200.41 9.34198 201.78 9.30655 203.015 9.00961C204.389 8.67921 205.668 8.00716 206.097 6.5915L206.097 6.59131C206.586 4.97239 206.381 3.48036 205.475 2.13522L205.474 2.13505C204.762 1.07996 203.395 0.63685 201.479 0.717459L201.488 0.916882L201.479 0.717459C195.768 0.95817 190.311 1.27672 185.109 1.6731L185.108 1.67315C184.101 1.75254 183.316 2.00664 182.788 2.4648L182.788 2.46479L182.786 2.46628C182.072 3.09846 181.671 3.90472 181.584 4.87321L181.584 4.87321L181.584 4.87462C181.465 6.29611 181.682 7.47179 182.261 8.38021C182.95 9.48425 184.257 10.0167 185.595 10.2065C186.939 10.3971 188.367 10.2508 189.367 9.94698C189.572 9.88662 189.661 9.91457 189.697 9.9403C189.732 9.9652 189.787 10.0384 189.792 10.2477L189.792 10.2505C190.089 18.1532 190.554 26.278 191.186 34.625L191.186 34.6252C191.291 35.9936 191.715 37.0315 192.493 37.6948C193.27 38.3581 194.362 38.6133 195.73 38.5016ZM195.73 38.5016C195.73 38.5016 195.73 38.5016 195.73 38.5016L195.713 38.2886L195.73 38.5016C195.73 38.5016 195.73 38.5016 195.73 38.5016Z" fill="#FF3B00" stroke="black" stroke-width="0.427709"/>
<rect x="193.087" y="25.7542" width="4.27709" height="10.6927" rx="2.13855" transform="rotate(-3 193.087 25.7542)" fill="#FF6333"/>
<path d="M68.7331 33.3312L68.7331 33.3318C68.7271 34.3499 68.5612 35.2783 68.2319 36.1142L68.2315 36.1152C67.7698 37.2686 66.9099 37.972 65.9035 38.2753C64.9027 38.5769 63.7659 38.4811 62.7345 38.0606L62.7342 38.0605C61.7126 37.6423 61.1191 36.955 60.7893 36.1241C60.4638 35.3039 60.3983 34.3516 60.4068 33.3994C60.4579 27.4623 60.5237 21.5266 60.6041 15.5923L68.7331 33.3312ZM68.7331 33.3312C68.7395 31.1875 68.752 28.9802 68.7705 26.7094C68.7711 26.6624 68.7746 26.6268 68.779 26.6005C68.8023 26.6132 68.8323 26.6323 68.8696 26.6606L68.8713 26.6619C69.2404 26.9361 69.6272 27.1291 70.0316 27.2366L70.0325 27.2368C75.6517 28.7041 80.3062 26.9513 83.1829 23.5406C86.0543 20.1362 87.1383 15.1001 85.6736 10.0224C84.7753 6.8984 83.221 4.57641 80.9993 3.08003C78.7794 1.58482 75.9169 0.930011 72.431 1.09395L72.431 1.09396M68.7331 33.3312L72.431 1.09396M72.431 1.09396C69.9392 1.21164 67.8148 1.83547 66.0673 2.97486C64.3191 4.11472 62.9606 5.7624 61.9885 7.90737M72.431 1.09396L61.9885 7.90737M61.9885 7.90737C60.9505 10.1956 60.6371 13.0562 60.6041 15.5922L61.9885 7.90737ZM68.9857 15.5081L68.7719 15.5006L68.9857 15.5081L69.0741 13.0063C69.1121 11.933 69.5749 10.9188 70.3607 10.1867C71.1465 9.45458 72.1909 9.0646 73.2641 9.10256L74.0148 9.12913C74.5462 9.14793 75.0687 9.27123 75.5525 9.49198C76.0363 9.71273 76.4719 10.0266 76.8344 10.4157C77.1969 10.8047 77.4791 11.2614 77.6651 11.7596C77.8512 12.2578 77.9372 12.7878 77.9184 13.3192L77.8299 15.821C77.7919 16.8943 77.3292 17.9086 76.5434 18.6407C75.7576 19.3727 74.7132 19.7627 73.6399 19.7248L72.8893 19.6982C72.3579 19.6794 71.8354 19.5561 71.3516 19.3354C70.8678 19.1146 70.4322 18.8008 70.0697 18.4117C69.7072 18.0226 69.4249 17.5659 69.2389 17.0677C69.0529 16.5695 68.9669 16.0396 68.9857 15.5081Z" fill="#FFAB00" stroke="black" stroke-width="0.427709"/>
<path d="M64.5536 33.3643L64.8133 23.735" stroke="#FFBC34" stroke-width="4.27709" stroke-linecap="round"/>
<path d="M65.2383 13.8896C65.2383 13.8896 65.108 8.7233 69.3922 5.19836" stroke="#FFBC34" stroke-width="4.27709" stroke-linecap="round"/>
<path d="M88.8487 29.9398C89.8467 32.2922 92.9547 36.8687 97.4029 36.3555C102.963 35.7139 105.957 31.8645 106.599 29.9398" stroke="#88AC68" stroke-width="4.27709" stroke-linecap="round"/>
<path d="M116.793 8.06632C117.933 6.20183 121.535 5.67454 121.535 5.67454" stroke="#F69FAC" stroke-width="4.27709" stroke-linecap="round"/>
<path d="M113.667 26.932C114.386 29.3844 116.941 34.2908 121.419 34.2974C127.016 34.3057 130.437 30.83 131.297 28.9928" stroke="#F69FAC" stroke-width="4.27709" stroke-linecap="round"/>
<path d="M74.7343 4.27722H75.5897" stroke="#FFBC34" stroke-width="2.56626" stroke-linecap="round"/>
<path d="M140.388 37.2108L139.746 26.3042" stroke="#3496A7" stroke-width="4.27709" stroke-linecap="round"/>
<path d="M139.318 9.40967V10.9067" stroke="#3496A7" stroke-width="4.27709" stroke-linecap="round"/>
<path d="M154.716 10.6929L155.571 9.62366" stroke="#3496A7" stroke-width="4.27709" stroke-linecap="round"/>
<path d="M159.635 36.5692L152.364 28.2289" stroke="#3496A7" stroke-width="4.27709" stroke-linecap="round"/>
<path d="M174.177 34.0031C170.684 34.5021 164.211 33.7037 166.264 26.5182" stroke="#F69FAC" stroke-width="4.27709" stroke-linecap="round"/>
<path d="M167.334 7.27122C167.191 6.62966 167.334 5.26099 169.044 4.91882" stroke="#F69FAC" stroke-width="4.27709" stroke-linecap="round"/>
<path d="M168.83 17.1085V18.1778" stroke="#F69FAC" stroke-width="4.27709" stroke-linecap="round"/>
<path d="M190.644 5.9881C194.236 5.47485 196.418 5.77425 197.059 5.9881" stroke="#FF6333" stroke-width="4.27709" stroke-linecap="round"/>
<path d="M227.427 18.8193L230.207 21.5994L227.427 25.235" stroke="#9360A1" stroke-width="4.27709" stroke-linecap="round" stroke-linejoin="round"/>
<path d="M227.64 9.83745C228.211 8.69689 229.907 6.41577 232.131 6.41577" stroke="#9360A1" stroke-width="4.27709" stroke-linecap="round" stroke-linejoin="round"/>
<path d="M229.137 34.6447C230.492 35.7139 233.671 37.8097 235.553 37.6386" stroke="#9360A1" stroke-width="4.27709" stroke-linecap="round" stroke-linejoin="round"/>
<path d="M242.183 21.5994L243.252 23.3102" stroke="#9360A1" stroke-width="4.27709" stroke-linecap="round" stroke-linejoin="round"/>
</svg>
