<svg width="84" height="104" viewBox="0 0 84 104" fill="none" xmlns="http://www.w3.org/2000/svg">
<path d="M14.4574 53.688L9.72723 61.1114" stroke="black" stroke-width="1.70457"/>
<path d="M9.72715 61.1113L5.57654 67.35" stroke="#FF3B00" stroke-width="1.70457"/>
<path d="M5.57732 67.3503L3.37799 71.1267" stroke="black" stroke-width="1.70457"/>
<path d="M3.37771 71.1257L1.25553 74.5263C1.08507 74.7991 1.16177 74.9354 1.48564 74.9354L31.4945 74.782" stroke="#FF3B00" stroke-width="1.70457"/>
<path d="M31.4946 74.782C32.4264 75.0377 33.1679 75.0206 33.719 74.7308" stroke="black" stroke-width="1.70457"/>
<path d="M33.7189 74.7311C34.1396 74.5946 34.4495 74.6856 34.6485 75.004" stroke="#FF3B00" stroke-width="1.70457"/>
<path d="M34.6479 75.0038C34.8013 75.3845 34.8099 75.6799 34.6735 75.8902C33.1053 78.3334 31.5825 80.7965 30.1053 83.2794C29.7871 83.8135 29.6706 84.3874 29.7558 85.0011L31.8269 99.8905C31.8368 99.9551 31.8322 100.021 31.8136 100.084C31.7949 100.147 31.7626 100.205 31.7188 100.254C31.6751 100.304 31.6209 100.343 31.5601 100.37C31.4993 100.397 31.4333 100.411 31.3666 100.41L25.7842 100.393C25.676 100.393 25.5689 100.415 25.4691 100.457C25.3693 100.499 25.2787 100.561 25.2026 100.638C25.1265 100.716 25.0664 100.808 25.0258 100.91C24.9852 101.011 24.9649 101.119 24.966 101.229V101.672C24.9717 102.212 25.2444 102.481 25.7842 102.481L33.8723 102.507C33.9232 102.507 33.9735 102.497 34.02 102.476C34.0664 102.455 34.108 102.424 34.1419 102.385C34.1757 102.347 34.2011 102.301 34.2164 102.252C34.2316 102.202 34.2364 102.15 34.2303 102.098L31.9291 85.0522C31.8894 84.7624 31.9462 84.4925 32.0996 84.2425L37.4178 75.3106" stroke="black" stroke-width="1.70457"/>
<path d="M37.4181 75.3106L40.325 75.0804" stroke="#FF3B00" stroke-width="1.70457"/>
<path d="M40.3241 75.0803C40.7562 74.9723 41.2366 74.9751 41.7653 75.0888" stroke="black" stroke-width="1.70457"/>
<path d="M41.7644 75.0887L46.4529 75.4809" stroke="#FF3B00" stroke-width="1.70457"/>
<path d="M46.4522 75.4812L43.4351 82.5892C43.3886 82.6977 43.381 82.8189 43.4136 82.9323C43.4462 83.0456 43.5171 83.1443 43.6141 83.2114L56.1341 92.024C56.6398 92.382 56.7222 92.8195 56.3813 93.3365L53.9438 97.0354C53.7764 97.2865 53.7073 97.5903 53.7497 97.889C53.7922 98.1877 53.9432 98.4603 54.1739 98.6548L54.3614 98.8082C54.4455 98.8791 54.5437 98.9314 54.6495 98.9614C54.7553 98.9915 54.8663 98.9987 54.9751 98.9826C55.084 98.9665 55.1881 98.9274 55.2807 98.8679C55.3732 98.8085 55.4521 98.73 55.512 98.6377L59.4751 92.4757C59.6626 92.1859 59.6143 91.9388 59.3302 91.7342L46.2136 82.4444C45.9863 82.2853 45.9266 82.0779 46.0346 81.8222L48.6937 75.6176" stroke="black" stroke-width="1.70457"/>
<path d="M48.6938 75.6175L52.3934 75.447" stroke="#FF3B00" stroke-width="1.70457"/>
<path d="M52.3926 75.447L56.6719 75.5408" stroke="black" stroke-width="1.70457"/>
<path d="M56.6712 75.5405L81.9925 76.1115C82.0544 76.1141 82.1157 76.0998 82.17 76.0702C82.2244 76.0406 82.2699 75.9967 82.302 75.943C82.334 75.8892 82.3515 75.8276 82.3525 75.7644C82.3536 75.7012 82.3382 75.6386 82.3079 75.5831C78.8988 69.4808 75.4214 63.3586 71.8759 57.2164C69.8248 53.6539 68.0464 49.9834 66.5407 46.2049C60.6713 31.4832 54.7365 16.7785 48.7365 2.09079C48.5944 1.74419 48.424 1.72712 48.2251 2.03963L14.4576 53.688" stroke="#FF3B00" stroke-width="1.70457"/>
<path d="M56.6719 75.5408C56.5526 74.6941 56.2627 74.1173 55.8024 73.8104C55.5467 73.6342 55.2881 73.6285 55.0267 73.7933L52.3926 75.4471" stroke="black" stroke-width="1.70457"/>
<path d="M48.6935 75.6172C48.0457 75.39 47.2986 75.3445 46.452 75.4809" stroke="black" stroke-width="1.70457"/>
<path d="M41.7646 75.0888C42.4465 74.1342 42.0175 73.8189 40.4777 74.1427C40.0231 74.2336 39.972 74.5461 40.3243 75.0802" stroke="black" stroke-width="1.70457"/>
<path d="M37.4184 75.3108C36.3103 74.6687 35.5544 74.3049 35.1509 74.2197C34.7474 74.1345 34.5798 74.3959 34.648 75.004" stroke="black" stroke-width="1.70457"/>
<path d="M33.719 74.7308C32.7361 73.6853 31.9946 73.7023 31.4946 74.7819" stroke="black" stroke-width="1.70457"/>
<path d="M3.37799 71.126C4.01436 71.9612 4.88653 72.2709 5.9945 72.055C6.40359 71.9697 6.65644 72.1316 6.75303 72.5407C6.89508 73.126 7.23883 73.4555 7.78429 73.5294C7.9433 73.5512 8.10489 73.5226 8.24579 73.4475C8.3867 73.3725 8.49965 73.2549 8.56839 73.1118C8.66498 72.93 8.69055 72.7396 8.6451 72.5407C8.58828 72.2566 8.42066 72.0777 8.14225 72.0038C6.22177 71.5265 5.36665 69.9754 5.57688 67.3503" stroke="black" stroke-width="1.70457"/>
<path d="M9.72723 61.1114C10.4829 61.7534 11.2841 61.9409 12.1307 61.6739C13.4205 61.2761 13.5483 60.4324 12.5142 59.1426C12.1392 58.6824 12.1506 58.2307 12.5483 57.7875C13.1506 57.117 13.8267 56.7051 14.5767 56.5517C14.9006 56.4835 15.0284 56.2875 14.9603 55.9636L14.4574 53.688" stroke="black" stroke-width="1.70457"/>
<path d="M32.7389 45.7874L27.6763 47.0317" stroke="black" stroke-width="1.70457"/>
<path d="M27.6762 47.0316L21.2159 48.4975C21.0469 48.5355 20.8884 48.6106 20.7521 48.7172C20.6159 48.8239 20.5052 48.9595 20.4284 49.114C20.3515 49.2686 20.3104 49.4381 20.308 49.6102C20.3057 49.7823 20.3421 49.9525 20.4147 50.1084C21.6818 52.8641 23.4546 55.2391 25.733 57.2334" stroke="#FF3B00" stroke-width="1.70457"/>
<path d="M25.7332 57.2336C25.1536 58.0918 25.1024 58.8533 25.5798 59.5182C25.681 59.6592 25.8103 59.7777 25.9597 59.8661C26.1091 59.9545 26.2752 60.0109 26.4475 60.0317C26.6198 60.0526 26.7945 60.0374 26.9607 59.9871C27.1268 59.9369 27.2807 59.8527 27.4126 59.7399C27.8445 59.3705 27.9951 58.7681 27.8644 57.9327" stroke="black" stroke-width="1.70457"/>
<path d="M27.864 57.9325C32.2277 58.2904 35.901 57.5916 39.2505 54.7109C41.9949 52.3415 41.8415 47.4238 41.1937 44.3641C41.1755 44.2821 41.1412 44.2044 41.093 44.1358C41.0447 44.0672 40.9834 44.0089 40.9128 43.9644C40.8421 43.92 40.7634 43.8902 40.6814 43.8769C40.5994 43.8636 40.5157 43.8669 40.4352 43.8869L32.7391 45.7875" stroke="#FF3B00" stroke-width="1.70457"/>
<path d="M27.864 57.9325L25.7333 57.2336" stroke="black" stroke-width="1.70457"/>
<path d="M27.6766 47.0317C27.5914 53.313 36.1824 50.8414 32.7392 45.7874" stroke="black" stroke-width="1.70457"/>
<path d="M56.4411 46.9038L51.3189 45.9492" stroke="black" stroke-width="1.70457"/>
<path d="M51.3187 45.9492L44.8328 44.2447C44.5203 44.1651 44.3044 44.2759 44.1851 44.577C43.0544 47.4634 43.1226 50.2334 44.3897 52.8868C47.7903 60.0375 56.458 59.2619 61.8188 55.2476C63.5575 53.9408 64.3956 51.9351 64.3331 49.2305C64.3217 48.8953 64.1541 48.6879 63.8302 48.6083L56.4409 46.9038" stroke="#FF3B00" stroke-width="1.70457"/>
<path d="M51.3185 45.9492C48.0372 51.7362 57.31 53.0658 56.4407 46.9038" stroke="black" stroke-width="1.70457"/>
<path d="M70.2997 58.2649C70.2467 58.1997 70.1733 58.1542 70.0914 58.1356C70.0094 58.1171 69.9236 58.1265 69.8477 58.1625C69.626 58.2706 69.4725 58.461 69.3872 58.7339C69.2905 59.0409 69.3843 59.2655 69.6686 59.4076C69.7709 59.4531 69.8846 59.4759 70.0097 59.4759C70.3224 59.4645 70.4958 59.3024 70.5299 58.9898C70.564 58.7282 70.4873 58.4866 70.2997 58.2649Z" stroke="black" stroke-width="1.70457"/>
<path d="M37.6843 60.1251C37.8171 59.9563 37.8266 59.7017 37.7107 59.4174C37.5949 59.133 37.3631 58.842 37.0665 58.6086C36.9196 58.493 36.7612 58.395 36.6003 58.3202C36.4394 58.2454 36.2792 58.1952 36.1289 58.1726C35.9785 58.1499 35.8409 58.1553 35.724 58.1882C35.607 58.2212 35.513 58.2812 35.4472 58.3648C35.3144 58.5335 35.3049 58.7881 35.4208 59.0725C35.5366 59.3569 35.7684 59.6478 36.065 59.8812C36.2119 59.9968 36.3704 60.0948 36.5312 60.1697C36.6921 60.2445 36.8523 60.2946 37.0027 60.3173C37.153 60.3399 37.2906 60.3346 37.4076 60.3016C37.5245 60.2686 37.6186 60.2086 37.6843 60.1251Z" stroke="black" stroke-width="1.70457"/>
<path d="M18.3442 60.7367L17.7219 60.2764C17.2673 59.9354 17.2048 59.998 17.5344 60.464C18.0572 61.2028 18.6028 61.8648 19.1711 62.4502C19.3416 62.6207 19.5576 62.6945 19.819 62.6718C20.16 62.6434 20.2253 62.4956 20.015 62.2285L19.5547 61.6318C19.3388 61.359 19.3643 61.1118 19.6314 60.8902C19.9951 60.589 20.2509 60.2167 20.3986 59.7735C20.5009 59.4723 20.4043 59.2648 20.1088 59.1512C19.9042 59.0716 19.6996 59.1512 19.495 59.3899C19.2393 59.6854 19.0773 60.0463 19.0091 60.4725C18.9296 60.9214 18.7079 61.0095 18.3442 60.7367Z" stroke="black" stroke-width="1.70457"/>
<path d="M32.9236 62.11C33.0214 61.9913 33.041 61.8164 32.9782 61.6236C32.9153 61.4308 32.7751 61.2361 32.5883 61.0821C32.4016 60.9282 32.1837 60.8277 31.9825 60.8028C31.7813 60.7779 31.6133 60.8305 31.5154 60.9492C31.4176 61.0679 31.398 61.2428 31.4609 61.4356C31.5237 61.6283 31.6639 61.8231 31.8507 61.977C32.0374 62.131 32.2553 62.2314 32.4565 62.2564C32.6578 62.2813 32.8258 62.2287 32.9236 62.11Z" stroke="black" stroke-width="1.70457"/>
<path d="M13.6819 61.3161C14.0114 61.9468 14.4291 62.2394 14.9347 62.1939C15.0165 62.1873 15.0948 62.1581 15.161 62.1096C15.2271 62.0612 15.2785 61.9952 15.3095 61.9193C15.3404 61.8433 15.3496 61.7602 15.3361 61.6793C15.3226 61.5984 15.2869 61.5228 15.233 61.461C14.8694 61.0519 14.3722 60.9496 13.7415 61.1542C13.7259 61.1594 13.7116 61.1682 13.6997 61.1797C13.6878 61.1913 13.6787 61.2053 13.673 61.2208C13.6672 61.2364 13.6651 61.253 13.6666 61.2695C13.6682 61.286 13.6734 61.3019 13.6819 61.3161Z" stroke="black" stroke-width="1.70457"/>
<path d="M23.0237 61.8704C23.0237 61.7008 22.9563 61.5381 22.8364 61.4182C22.7164 61.2982 22.5537 61.2308 22.3841 61.2308C22.2145 61.2308 22.0518 61.2982 21.9318 61.4182C21.8119 61.5381 21.7445 61.7008 21.7445 61.8704C21.7445 62.0401 21.8119 62.2027 21.9318 62.3227C22.0518 62.4426 22.2145 62.51 22.3841 62.51C22.5537 62.51 22.7164 62.4426 22.8364 62.3227C22.9563 62.2027 23.0237 62.0401 23.0237 61.8704Z" stroke="black" stroke-width="1.70457"/>
<path d="M23.7704 61.9889C23.8103 62.0387 23.8614 62.0788 23.9207 62.1069C23.9799 62.135 24.0463 62.1505 24.1159 62.1525C24.1856 62.1546 24.2571 62.1431 24.3265 62.1188C24.3959 62.0946 24.4617 62.0579 24.5203 62.011C24.6385 61.9162 24.7199 61.7854 24.7465 61.6473C24.7732 61.5092 24.7428 61.3751 24.6622 61.2744C24.6223 61.2246 24.5713 61.1845 24.512 61.1565C24.4527 61.1284 24.3863 61.1129 24.3167 61.1108C24.2471 61.1088 24.1755 61.1202 24.1062 61.1445C24.0368 61.1688 23.9709 61.2054 23.9124 61.2524C23.7941 61.3471 23.7128 61.4779 23.6861 61.6161C23.6595 61.7542 23.6898 61.8883 23.7704 61.9889Z" stroke="black" stroke-width="1.70457"/>
<path d="M34.6701 62.4832C34.8086 62.5961 34.9947 62.639 35.1877 62.6023C35.3806 62.5657 35.5645 62.4525 35.6988 62.2878C35.8332 62.123 35.9071 61.9202 35.9042 61.7238C35.9013 61.5275 35.8219 61.3537 35.6834 61.2408C35.5449 61.1279 35.3588 61.085 35.1659 61.1217C34.9729 61.1583 34.7891 61.2714 34.6547 61.4362C34.5203 61.6009 34.4465 61.8038 34.4494 62.0001C34.4523 62.1965 34.5317 62.3702 34.6701 62.4832Z" stroke="black" stroke-width="1.70457"/>
<path d="M40.0402 63.2005C40.1009 63.1105 40.0831 62.9729 39.9908 62.8181C39.8985 62.6632 39.7392 62.5037 39.548 62.3747C39.3567 62.2457 39.1492 62.1578 38.971 62.1302C38.7929 62.1026 38.6587 62.1377 38.598 62.2276C38.5373 62.3176 38.555 62.4552 38.6473 62.61C38.7396 62.7649 38.8989 62.9244 39.0902 63.0534C39.2814 63.1824 39.4889 63.2703 39.6671 63.2979C39.8453 63.3255 39.9795 63.2905 40.0402 63.2005Z" stroke="black" stroke-width="1.70457"/>
<path d="M52.8468 62.5134C52.8243 62.4453 52.7863 62.3831 52.735 62.3303C52.6836 62.2776 52.62 62.2352 52.5477 62.2058C52.4754 62.1763 52.3958 62.1603 52.3135 62.1586C52.2312 62.1569 52.1478 62.1697 52.0681 62.196C51.907 62.2493 51.7707 62.355 51.6889 62.4898C51.6072 62.6246 51.5868 62.7776 51.6322 62.915C51.6547 62.9831 51.6927 63.0453 51.7441 63.098C51.7954 63.1508 51.859 63.1931 51.9313 63.2226C52.0036 63.2521 52.0832 63.2681 52.1655 63.2698C52.2478 63.2715 52.3312 63.2587 52.4109 63.2323C52.572 63.1791 52.7084 63.0734 52.7901 62.9386C52.8718 62.8037 52.8922 62.6508 52.8468 62.5134Z" stroke="black" stroke-width="1.70457"/>
<path d="M23.202 64.9298C23.6339 64.4014 23.9038 63.8475 24.0117 63.2679C24.1083 62.7849 23.9975 62.731 23.6793 63.106C23.1395 63.7367 22.9407 64.4582 23.0827 65.2708C23.0941 65.3333 23.1054 65.3333 23.1168 65.2708C23.1339 65.1969 23.1452 65.123 23.1509 65.0492C23.1566 65.0037 23.1736 64.9639 23.202 64.9298Z" stroke="black" stroke-width="1.70457"/>
<path d="M48.8131 66.6263L50.2282 63.4296C50.2366 63.4118 50.2412 63.3924 50.2419 63.3727C50.2425 63.353 50.2392 63.3334 50.232 63.3151C50.2248 63.2967 50.214 63.28 50.2001 63.266C50.1863 63.252 50.1697 63.241 50.1514 63.2336L50.1088 63.2165C49.9931 63.164 49.8602 63.1532 49.7177 63.1848C49.5753 63.2165 49.4261 63.2898 49.2787 63.4008C49.1313 63.5117 48.9887 63.658 48.859 63.8312C48.7294 64.0044 48.6153 64.2011 48.5233 64.41L48.3954 64.7083C48.3039 64.9164 48.2363 65.1325 48.1962 65.3441C48.1561 65.5557 48.1445 65.7587 48.1619 65.9416C48.1793 66.1245 48.2255 66.2836 48.2977 66.4098C48.3699 66.5361 48.4669 66.6271 48.5829 66.6775L48.6255 66.7031C48.6606 66.7173 48.6999 66.7172 48.7349 66.7029C48.77 66.6886 48.798 66.6611 48.8131 66.6263Z" stroke="black" stroke-width="1.70457"/>
<path d="M31.0545 65.6143C31.1926 65.6283 31.3323 65.6126 31.4658 65.5681C31.5992 65.5235 31.7236 65.4509 31.8321 65.3546C31.9405 65.2582 32.0308 65.1399 32.0977 65.0063C32.1647 64.8728 32.207 64.7267 32.2222 64.5764C32.2375 64.4261 32.2254 64.2745 32.1867 64.1302C32.148 63.986 32.0833 63.8519 31.9965 63.7357C31.9096 63.6195 31.8023 63.5234 31.6806 63.4529C31.5588 63.3824 31.4251 63.3389 31.287 63.3249C31.149 63.3109 31.0092 63.3266 30.8758 63.3712C30.7424 63.4157 30.6179 63.4883 30.5095 63.5847C30.4011 63.6811 30.3108 63.7994 30.2439 63.9329C30.1769 64.0664 30.1346 64.2125 30.1193 64.3628C30.1041 64.5132 30.1161 64.6648 30.1549 64.809C30.1936 64.9533 30.2582 65.0873 30.3451 65.2035C30.4319 65.3198 30.5393 65.4158 30.661 65.4863C30.7827 65.5568 30.9165 65.6003 31.0545 65.6143Z" stroke="black" stroke-width="1.70457"/>
<path d="M42.7026 64.9988C42.7196 64.7998 42.6827 64.6065 42.5917 64.4189C42.1994 63.6002 41.9919 63.6457 41.9692 64.5553C41.9578 64.8509 42.063 65.067 42.2847 65.2034C42.3241 65.2284 42.3693 65.2429 42.4159 65.2455C42.4625 65.2481 42.509 65.2386 42.5509 65.2181C42.5928 65.1975 42.6288 65.1666 42.6553 65.1282C42.6819 65.0898 42.6981 65.0452 42.7026 64.9988Z" stroke="black" stroke-width="1.70457"/>
<path d="M45.3103 66.1659C45.3046 65.9385 45.2705 65.7197 45.208 65.5095C45.083 65.1003 44.992 65.106 44.9352 65.5265L44.5687 68.0583C44.4891 68.6096 44.7221 68.9193 45.2677 68.9875L45.5405 69.0216C46.0292 69.0841 46.3446 68.8795 46.4867 68.4078C46.7197 67.6577 46.5037 67.1604 45.8388 66.916C45.6858 66.8581 45.5537 66.7557 45.4595 66.622C45.3653 66.4883 45.3133 66.3294 45.3103 66.1659Z" stroke="black" stroke-width="1.70457"/>
<path d="M20.0381 66.9846C20.0914 67.0106 20.1509 67.0227 20.2132 67.0202C20.2755 67.0176 20.3393 67.0005 20.4009 66.9698C20.4626 66.9391 20.521 66.8953 20.5727 66.8411C20.6244 66.7869 20.6685 66.7233 20.7023 66.6538C20.7362 66.5843 20.7592 66.5104 20.7701 66.4363C20.781 66.3622 20.7795 66.2893 20.7657 66.2218C20.752 66.1543 20.7262 66.0935 20.6899 66.0428C20.6535 65.9922 20.6074 65.9528 20.554 65.9268C20.5007 65.9008 20.4412 65.8887 20.3789 65.8912C20.3167 65.8937 20.2529 65.9109 20.1912 65.9416C20.1295 65.9723 20.0711 66.016 20.0194 66.0702C19.9677 66.1244 19.9237 66.1881 19.8898 66.2576C19.8559 66.327 19.8329 66.4009 19.822 66.475C19.8111 66.5492 19.8126 66.6221 19.8264 66.6896C19.8402 66.7571 19.8659 66.8179 19.9023 66.8685C19.9386 66.9191 19.9847 66.9586 20.0381 66.9846Z" stroke="black" stroke-width="1.70457"/>
<path d="M25.7076 68.6115C25.7076 68.3402 25.5998 68.0801 25.408 67.8883C25.2162 67.6965 24.9561 67.5887 24.6849 67.5887C24.4136 67.5887 24.1535 67.6965 23.9617 67.8883C23.7699 68.0801 23.6621 68.3402 23.6621 68.6115C23.6621 68.8827 23.7699 69.1429 23.9617 69.3347C24.1535 69.5265 24.4136 69.6342 24.6849 69.6342C24.9561 69.6342 25.2162 69.5265 25.408 69.3347C25.5998 69.1429 25.7076 68.8827 25.7076 68.6115Z" stroke="black" stroke-width="1.70457"/>
<path d="M29.6299 69.9391C29.7575 70.0474 29.9445 70.0751 30.1495 70.0163C30.3546 69.9574 30.561 69.8168 30.7234 69.6253C30.8038 69.5305 30.871 69.4261 30.9211 69.318C30.9712 69.2098 31.0032 69.1002 31.0154 68.9952C31.0275 68.8903 31.0196 68.7921 30.9919 68.7063C30.9643 68.6205 30.9175 68.5488 30.8543 68.4952C30.7267 68.387 30.5397 68.3592 30.3347 68.4181C30.1296 68.4769 29.9232 68.6175 29.7608 68.809C29.6804 68.9038 29.6132 69.0083 29.5631 69.1164C29.513 69.2245 29.481 69.3341 29.4688 69.4391C29.4567 69.544 29.4646 69.6422 29.4923 69.728C29.5199 69.8138 29.5667 69.8856 29.6299 69.9391Z" stroke="black" stroke-width="1.70457"/>
<path d="M21.0372 70.8957L22.3753 71.4583C22.4377 71.4846 22.508 71.4862 22.5726 71.4625C22.6372 71.4389 22.6914 71.3918 22.7247 71.3304C22.7588 71.2566 22.7815 71.1799 22.7929 71.1003C22.8383 70.8219 22.7219 70.6656 22.4434 70.6315C21.2616 70.4781 20.0997 70.1855 18.9576 69.7537C18.0656 69.4185 17.2616 69.5321 16.5457 70.0946C16.2956 70.2878 16.1621 70.5406 16.1451 70.8531C16.1167 71.3191 16.0087 71.7622 15.8212 72.1827C15.0996 73.7907 15.5343 74.214 17.1252 73.4526C18.2502 72.9071 19.1877 72.1514 19.9377 71.1855C20.2332 70.8105 20.5997 70.7139 21.0372 70.8957Z" stroke="black" stroke-width="1.70457"/>
<path d="M40.2564 70.4275C40.5975 70.49 40.7169 70.3536 40.6146 70.0181C40.5407 69.7737 40.3957 69.5974 40.1796 69.4894C40.1358 69.4693 40.088 69.461 40.0414 69.4656C39.9948 69.4701 39.9512 69.4872 39.9153 69.515C39.8527 69.5605 39.793 69.6088 39.7362 69.66C39.486 69.8931 39.5088 70.0949 39.8044 70.2655C39.9465 70.3451 40.0972 70.3991 40.2564 70.4275Z" stroke="black" stroke-width="1.70457"/>
<path d="M44.6283 70.6568C44.5701 70.6698 44.5155 70.6953 44.4682 70.7315C44.4209 70.7678 44.3822 70.8139 44.3545 70.8667C44.3269 70.9194 44.3112 70.9776 44.3084 71.0371C44.3056 71.0966 44.3158 71.156 44.3383 71.2112L44.4321 71.4414C44.5742 71.7996 44.7874 71.8508 45.0717 71.5949C45.2309 71.4528 45.2849 71.2538 45.2337 70.998C45.1769 70.6966 44.9751 70.5829 44.6283 70.6568Z" stroke="black" stroke-width="1.70457"/>
<path d="M54.2846 70.6401C53.8698 70.498 53.6141 70.6401 53.5175 71.0662C53.4096 71.5605 53.4777 72.0264 53.7221 72.4639C53.79 72.5869 53.8916 72.688 54.0148 72.7555C54.138 72.823 54.2779 72.8541 54.4181 72.8452C54.5583 72.8362 54.6931 72.7876 54.8068 72.705C54.9204 72.6225 55.0083 72.5093 55.0602 72.3787C55.4067 71.5208 55.1482 70.9412 54.2846 70.6401Z" stroke="black" stroke-width="1.70457"/>
<path d="M23.8073 72.9243C23.4549 73.1289 23.3555 73.396 23.5089 73.7256C23.6396 74.0097 23.8556 74.2143 24.1568 74.3394C24.475 74.4701 24.6086 74.3678 24.5574 74.0325C24.421 73.0777 24.7279 72.2423 25.4781 71.5263C25.5406 71.4694 25.5406 71.4155 25.4781 71.3643L25.2735 71.1853C25.2454 71.1598 25.2119 71.1409 25.1755 71.1299C25.1391 71.1189 25.1008 71.1162 25.0632 71.1219C25.0257 71.1276 24.9899 71.1416 24.9584 71.1629C24.927 71.1842 24.9006 71.2122 24.8814 71.245L23.9522 72.7794C23.9186 72.8405 23.8684 72.8907 23.8073 72.9243Z" stroke="black" stroke-width="1.70457"/>
<path d="M44.6375 73.4783C44.3646 73.2793 44.0747 73.1656 43.7677 73.1371C43.6881 73.1258 43.6198 73.1514 43.563 73.2139C43.4834 73.2935 43.4436 73.393 43.4436 73.5124C43.4436 73.8819 43.6255 74.0297 43.9894 73.9558L44.5522 73.845C44.8536 73.7881 44.882 73.6659 44.6375 73.4783Z" stroke="black" stroke-width="1.70457"/>
<path d="M56.6708 75.5404C56.5515 74.6938 56.2617 74.1171 55.8014 73.8103C55.5458 73.6341 55.2872 73.6284 55.0259 73.7932L52.3923 75.4466L48.6934 75.6171C48.0457 75.3898 47.2985 75.3444 46.4519 75.4807L41.7643 75.0887C42.4462 74.1341 42.0172 73.8188 40.4774 74.1427C40.0229 74.2336 39.9717 74.5461 40.324 75.0802L37.4177 75.3103C36.3097 74.6682 35.554 74.3046 35.1506 74.2194C34.7472 74.1341 34.5796 74.3955 34.6478 75.0035C34.4489 74.6853 34.1393 74.5944 33.7188 74.7307C32.7358 73.6853 31.9943 73.7023 31.4943 74.7819L1.48546 74.9353C1.16159 74.9353 1.08489 74.7989 1.25534 74.5262L3.37753 71.1256C4.0139 71.9608 4.88607 72.2705 5.99403 72.0546C6.40313 71.9693 6.65597 72.1313 6.75257 72.5404C6.89461 73.1256 7.23837 73.4551 7.78383 73.529C7.94284 73.5508 8.10442 73.5222 8.24533 73.4471C8.38623 73.3721 8.49918 73.2545 8.56793 73.1114C8.66452 72.9296 8.69009 72.7392 8.64463 72.5404C8.58782 72.2563 8.4202 72.0773 8.14178 72.0034C6.22131 71.5262 5.36619 69.975 5.57642 67.35L9.72703 61.1113C10.4827 61.7533 11.2839 61.9408 12.1305 61.6737C13.4203 61.276 13.5481 60.4323 12.514 59.1425C12.139 58.6822 12.1504 58.2305 12.5481 57.7873C13.1504 57.1169 13.8265 56.705 14.5765 56.5515C14.9004 56.4834 15.0282 56.2873 14.96 55.9635L14.4572 53.6879L48.2247 2.0395C48.4235 1.727 48.594 1.74407 48.736 2.09067C54.7361 16.7783 60.6708 31.483 66.5402 46.2048C68.0459 49.9833 69.8243 53.6538 71.8755 57.2163C75.421 63.3584 78.8983 69.4807 82.3074 75.583C82.3377 75.6385 82.3531 75.7011 82.3521 75.7643C82.351 75.8275 82.3336 75.8891 82.3015 75.9428C82.2695 75.9966 82.2239 76.0405 82.1696 76.0701C82.1152 76.0997 82.054 76.114 81.9921 76.1114L56.6708 75.5404ZM32.7387 45.7872L27.6761 47.0315L21.2158 48.4975C21.0468 48.5354 20.8883 48.6105 20.7521 48.7172C20.6158 48.8238 20.5051 48.9594 20.4283 49.114C20.3514 49.2685 20.3103 49.438 20.3079 49.6101C20.3056 49.7822 20.3421 49.9524 20.4147 50.1083C21.6817 52.864 23.4545 55.239 25.7329 57.2334C25.1534 58.0913 25.1022 58.8527 25.5795 59.5175C25.6807 59.6585 25.81 59.7769 25.9593 59.8653C26.1087 59.9537 26.2747 60.01 26.447 60.0309C26.6193 60.0517 26.794 60.0365 26.9601 59.9863C27.1262 59.9361 27.28 59.8519 27.4119 59.7391C27.8437 59.3698 27.9943 58.7675 27.8636 57.9322C32.2273 58.2902 35.9006 57.5913 39.2501 54.7106C41.9945 52.3413 41.8411 47.4236 41.1933 44.3639C41.1751 44.2818 41.1408 44.2042 41.0926 44.1355C41.0443 44.0669 40.983 44.0086 40.9124 43.9642C40.8417 43.9197 40.763 43.8899 40.681 43.8766C40.599 43.8633 40.5153 43.8667 40.4348 43.8866L32.7387 45.7872ZM56.4407 46.9037L51.3184 45.9491L44.8326 44.2446C44.5201 44.165 44.3042 44.2758 44.1848 44.577C43.0541 47.4633 43.1223 50.2333 44.3894 52.8867C47.79 60.0374 56.4577 59.2618 61.8186 55.2476C63.5572 53.9407 64.3953 51.935 64.3328 49.2304C64.3214 48.8952 64.1538 48.6878 63.8299 48.6083L56.4407 46.9037ZM70.2988 58.2646C70.2458 58.1995 70.1725 58.154 70.0906 58.1354C70.0087 58.1169 69.923 58.1264 69.8471 58.1623C69.6255 58.2703 69.4721 58.4607 69.3868 58.7334C69.2902 59.0402 69.384 59.2647 69.6681 59.4067C69.7704 59.4522 69.884 59.4749 70.009 59.4749C70.3215 59.4635 70.4948 59.3016 70.5289 58.9891C70.563 58.7277 70.4863 58.4862 70.2988 58.2646ZM37.684 60.1249C37.8167 59.9562 37.8263 59.7016 37.7104 59.4172C37.5945 59.1328 37.3628 58.8419 37.0661 58.6084C36.9192 58.4928 36.7608 58.3949 36.6 58.32C36.4391 58.2452 36.2789 58.1951 36.1285 58.1724C35.9782 58.1498 35.8406 58.1551 35.7236 58.1881C35.6067 58.221 35.5126 58.281 35.4469 58.3646C35.3141 58.5334 35.3046 58.7879 35.4204 59.0723C35.5363 59.3567 35.7681 59.6476 36.0647 59.8811C36.2116 59.9967 36.37 60.0947 36.5309 60.1695C36.6918 60.2443 36.8519 60.2944 37.0023 60.3171C37.1527 60.3397 37.2903 60.3344 37.4072 60.3014C37.5242 60.2685 37.6182 60.2085 37.684 60.1249ZM18.3436 60.7363L17.7214 60.276C17.2669 59.9351 17.2044 59.9976 17.5339 60.4635C18.0567 61.2022 18.6021 61.8641 19.1703 62.4493C19.3408 62.6198 19.5567 62.6937 19.8181 62.6709C20.159 62.6425 20.2243 62.4948 20.0141 62.2278L19.5539 61.6311C19.3379 61.3584 19.3635 61.1113 19.6306 60.8897C19.9942 60.5885 20.2499 60.2164 20.3976 59.7732C20.4999 59.472 20.4033 59.2646 20.1078 59.151C19.9033 59.0715 19.6987 59.151 19.4942 59.3896C19.2385 59.6851 19.0766 60.0459 19.0084 60.4721C18.9288 60.9209 18.7073 61.009 18.3436 60.7363ZM32.9224 62.1089C33.0202 61.9903 33.0398 61.8155 32.977 61.6228C32.9142 61.4302 32.774 61.2355 32.5874 61.0817C32.4008 60.9279 32.183 60.8274 31.9819 60.8025C31.7808 60.7776 31.6129 60.8302 31.5151 60.9488C31.4174 61.0674 31.3977 61.2423 31.4606 61.4349C31.5234 61.6276 31.6635 61.8222 31.8502 61.9761C32.0368 62.1299 32.2546 62.2303 32.4557 62.2552C32.6568 62.2801 32.8247 62.2275 32.9224 62.1089ZM13.6816 61.3158C14.0112 61.9465 14.4288 62.2391 14.9345 62.1937C15.0162 62.187 15.0946 62.1579 15.1607 62.1094C15.2269 62.0609 15.2783 61.9949 15.3092 61.919C15.3401 61.843 15.3494 61.7599 15.3359 61.679C15.3224 61.5981 15.2867 61.5225 15.2328 61.4607C14.8691 61.0516 14.372 60.9493 13.7413 61.1539C13.7256 61.1592 13.7113 61.1679 13.6994 61.1794C13.6876 61.191 13.6784 61.205 13.6727 61.2206C13.667 61.2361 13.6648 61.2527 13.6664 61.2692C13.6679 61.2857 13.6731 61.3016 13.6816 61.3158ZM23.0226 61.8698C23.0226 61.7003 22.9553 61.5377 22.8354 61.4178C22.7156 61.2979 22.553 61.2306 22.3834 61.2306C22.2139 61.2306 22.0513 61.2979 21.9314 61.4178C21.8116 61.5377 21.7442 61.7003 21.7442 61.8698C21.7442 62.0393 21.8116 62.2019 21.9314 62.3218C22.0513 62.4417 22.2139 62.509 22.3834 62.509C22.553 62.509 22.7156 62.4417 22.8354 62.3218C22.9553 62.2019 23.0226 62.0393 23.0226 61.8698ZM23.7702 61.9882C23.8101 62.038 23.8611 62.078 23.9204 62.1061C23.9796 62.1341 24.0459 62.1496 24.1155 62.1517C24.1851 62.1537 24.2566 62.1423 24.3259 62.118C24.3953 62.0938 24.4611 62.0571 24.5196 62.0102C24.6378 61.9155 24.7191 61.7848 24.7457 61.6468C24.7723 61.5087 24.742 61.3747 24.6615 61.2741C24.6216 61.2243 24.5706 61.1843 24.5113 61.1562C24.4521 61.1282 24.3858 61.1127 24.3162 61.1106C24.2466 61.1086 24.1751 61.12 24.1058 61.1443C24.0364 61.1685 23.9706 61.2052 23.9121 61.2521C23.7939 61.3467 23.7126 61.4775 23.686 61.6155C23.6593 61.7536 23.6896 61.8876 23.7702 61.9882ZM34.6699 62.4821C34.8082 62.5949 34.9943 62.6378 35.1871 62.6011C35.3799 62.5645 35.5637 62.4514 35.698 62.2868C35.8322 62.1221 35.9061 61.9194 35.9032 61.7232C35.9003 61.527 35.8209 61.3533 35.6825 61.2405C35.5442 61.1276 35.3581 61.0848 35.1653 61.1214C34.9725 61.158 34.7887 61.2711 34.6544 61.4357C34.5202 61.6004 34.4463 61.8031 34.4492 61.9993C34.4521 62.1956 34.5315 62.3692 34.6699 62.4821ZM40.039 63.1997C40.0997 63.1097 40.0819 62.9723 39.9897 62.8175C39.8974 62.6627 39.7382 62.5033 39.5471 62.3744C39.3559 62.2455 39.1485 62.1576 38.9705 62.13C38.7924 62.1024 38.6583 62.1375 38.5976 62.2274C38.5369 62.3174 38.5547 62.4548 38.6469 62.6096C38.7392 62.7644 38.8984 62.9237 39.0895 63.0527C39.2807 63.1816 39.4881 63.2695 39.6661 63.2971C39.8442 63.3246 39.9783 63.2896 40.039 63.1997ZM52.8458 62.5128C52.8233 62.4448 52.7854 62.3827 52.7341 62.3299C52.6828 62.2772 52.6192 62.2349 52.5469 62.2054C52.4747 62.176 52.3951 62.16 52.3129 62.1583C52.2307 62.1566 52.1473 62.1693 52.0676 62.1957C51.9067 62.2489 51.7703 62.3546 51.6887 62.4893C51.607 62.6241 51.5866 62.7769 51.632 62.9143C51.6545 62.9823 51.6925 63.0444 51.7438 63.0972C51.795 63.1499 51.8586 63.1922 51.9309 63.2217C52.0032 63.2511 52.0827 63.2671 52.1649 63.2688C52.2472 63.2705 52.3305 63.2578 52.4102 63.2314C52.5712 63.1782 52.7075 63.0725 52.7892 62.9378C52.8709 62.803 52.8912 62.6502 52.8458 62.5128ZM23.2016 64.9295C23.6335 64.4011 23.9033 63.8471 24.0113 63.2675C24.1079 62.7846 23.9971 62.7306 23.6789 63.1056C23.1391 63.7363 22.9403 64.4579 23.0823 65.2704C23.0937 65.3329 23.105 65.3329 23.1164 65.2704C23.1334 65.1965 23.1448 65.1227 23.1505 65.0488C23.1562 65.0034 23.1732 64.9636 23.2016 64.9295ZM48.8127 66.6255L50.2275 63.4295C50.2359 63.4117 50.2406 63.3923 50.2412 63.3726C50.2419 63.3529 50.2385 63.3333 50.2314 63.3149C50.2242 63.2966 50.2133 63.2799 50.1995 63.2659C50.1856 63.2519 50.1691 63.2408 50.1508 63.2334L50.1082 63.2164C49.9925 63.1639 49.8597 63.1531 49.7172 63.1847C49.5748 63.2163 49.4256 63.2897 49.2782 63.4006C49.1309 63.5115 48.9883 63.6578 48.8587 63.8309C48.729 64.0041 48.615 64.2008 48.523 64.4096L48.3951 64.7079C48.3037 64.916 48.236 65.132 48.196 65.3435C48.1559 65.5551 48.1443 65.7581 48.1617 65.9409C48.1791 66.1238 48.2252 66.2828 48.2975 66.4091C48.3697 66.5353 48.4666 66.6263 48.5826 66.6767L48.6252 66.7022C48.6603 66.7165 48.6996 66.7164 48.7346 66.7021C48.7697 66.6877 48.7977 66.6603 48.8127 66.6255ZM31.0542 65.6139C31.1923 65.628 31.332 65.6123 31.4654 65.5677C31.5989 65.5231 31.7233 65.4506 31.8318 65.3542C31.9402 65.2578 32.0305 65.1395 32.0974 65.006C32.1644 64.8725 32.2067 64.7264 32.2219 64.576C32.2372 64.4257 32.2251 64.2741 32.1864 64.1298C32.1477 63.9856 32.083 63.8515 31.9962 63.7353C31.9093 63.6191 31.802 63.523 31.6803 63.4525C31.5585 63.3821 31.4248 63.3386 31.2867 63.3246C31.1486 63.3105 31.0089 63.3262 30.8755 63.3708C30.7421 63.4154 30.6176 63.4879 30.5092 63.5843C30.4008 63.6807 30.3105 63.799 30.2435 63.9325C30.1766 64.066 30.1343 64.2121 30.119 64.3625C30.1037 64.5128 30.1158 64.6644 30.1546 64.8087C30.1933 64.9529 30.2579 65.087 30.3448 65.2032C30.4316 65.3194 30.539 65.4155 30.6607 65.486C30.7824 65.5564 30.9161 65.5999 31.0542 65.6139ZM42.7019 64.9977C42.7189 64.7988 42.682 64.6056 42.5911 64.4181C42.199 63.5999 41.9916 63.6454 41.9689 64.5545C41.9575 64.8499 42.0626 65.0658 42.2842 65.2022C42.3236 65.2272 42.3688 65.2417 42.4154 65.2442C42.4619 65.2468 42.5084 65.2374 42.5503 65.2169C42.5922 65.1963 42.6281 65.1654 42.6547 65.127C42.6812 65.0886 42.6975 65.0441 42.7019 64.9977ZM45.3098 66.1653C45.3042 65.938 45.2701 65.7193 45.2076 65.509C45.0826 65.0999 44.9917 65.1056 44.9348 65.5261L44.5684 68.0574C44.4888 68.6085 44.7218 68.9182 45.2672 68.9864L45.54 69.0204C46.0286 69.083 46.344 68.8784 46.486 68.4068C46.719 67.6568 46.503 67.1596 45.8383 66.9153C45.6853 66.8574 45.5532 66.755 45.459 66.6213C45.3648 66.4876 45.3129 66.3288 45.3098 66.1653ZM20.0375 66.9837C20.0908 67.0097 20.1503 67.0218 20.2125 67.0192C20.2748 67.0167 20.3385 66.9996 20.4002 66.9689C20.4618 66.9382 20.5201 66.8945 20.5718 66.8403C20.6235 66.7861 20.6675 66.7225 20.7014 66.6531C20.7352 66.5836 20.7582 66.5098 20.7691 66.4357C20.78 66.3616 20.7785 66.2888 20.7647 66.2213C20.751 66.1538 20.7252 66.0931 20.6889 66.0425C20.6526 65.9919 20.6065 65.9525 20.5532 65.9265C20.4998 65.9005 20.4404 65.8884 20.3781 65.8909C20.3159 65.8935 20.2522 65.9106 20.1905 65.9413C20.1289 65.972 20.0706 66.0157 20.0189 66.0698C19.9672 66.124 19.9232 66.1877 19.8893 66.2571C19.8555 66.3265 19.8324 66.4003 19.8216 66.4744C19.8107 66.5485 19.8122 66.6214 19.8259 66.6888C19.8397 66.7563 19.8655 66.817 19.9018 66.8676C19.9381 66.9182 19.9842 66.9577 20.0375 66.9837ZM25.7073 68.6113C25.7073 68.3401 25.5996 68.0799 25.4078 67.8881C25.216 67.6964 24.9558 67.5886 24.6846 67.5886C24.4134 67.5886 24.1532 67.6964 23.9614 67.8881C23.7696 68.0799 23.6619 68.3401 23.6619 68.6113C23.6619 68.8826 23.7696 69.1427 23.9614 69.3345C24.1532 69.5263 24.4134 69.6341 24.6846 69.6341C24.9558 69.6341 25.216 69.5263 25.4078 69.3345C25.5996 69.1427 25.7073 68.8826 25.7073 68.6113ZM29.6296 69.938C29.7572 70.0462 29.944 70.0739 30.149 70.0151C30.3539 69.9563 30.5602 69.8157 30.7225 69.6244C30.8029 69.5296 30.87 69.4252 30.9201 69.3172C30.9701 69.2092 31.0021 69.0996 31.0143 68.9947C31.0264 68.8898 31.0185 68.7917 30.9909 68.7059C30.9632 68.6202 30.9165 68.5485 30.8533 68.4949C30.7258 68.3867 30.5389 68.359 30.334 68.4178C30.129 68.4767 29.9227 68.6172 29.7605 68.8085C29.6801 68.9033 29.613 69.0077 29.5629 69.1158C29.5128 69.2238 29.4808 69.3334 29.4687 69.4382C29.4565 69.5431 29.4645 69.6413 29.4921 69.727C29.5197 69.8128 29.5665 69.8845 29.6296 69.938ZM21.0368 70.8955L22.3749 71.458C22.4373 71.4843 22.5076 71.4859 22.5722 71.4622C22.6368 71.4386 22.691 71.3915 22.7243 71.3301C22.7584 71.2563 22.7812 71.1796 22.7925 71.1C22.838 70.8216 22.7215 70.6653 22.4431 70.6312C21.2613 70.4778 20.0993 70.1852 18.9573 69.7534C18.0652 69.4182 17.2612 69.5318 16.5453 70.0943C16.2953 70.2875 16.1618 70.5404 16.1447 70.8529C16.1163 71.3188 16.0084 71.762 15.8209 72.1824C15.0993 73.7904 15.5339 74.2137 17.1248 73.4523C18.2499 72.9068 19.1874 72.1512 19.9374 71.1852C20.2328 70.8102 20.5993 70.7136 21.0368 70.8955ZM40.2558 70.4267C40.5967 70.4892 40.716 70.3528 40.6138 70.0176C40.5399 69.7733 40.395 69.5972 40.1791 69.4892C40.1353 69.4691 40.0876 69.4608 40.041 69.4653C39.9944 69.4699 39.9508 69.4869 39.9149 69.5148C39.8524 69.5602 39.7927 69.6085 39.7359 69.6597C39.4859 69.8926 39.5086 70.0943 39.8041 70.2648C39.9462 70.3443 40.0967 70.3983 40.2558 70.4267ZM44.628 70.6568C44.5699 70.6698 44.5153 70.6953 44.4681 70.7315C44.4208 70.7677 44.3821 70.8138 44.3545 70.8665C44.3269 70.9193 44.3111 70.9774 44.3083 71.0369C44.3055 71.0963 44.3157 71.1557 44.3382 71.2108L44.432 71.4409C44.574 71.7989 44.7871 71.85 45.0712 71.5943C45.2303 71.4523 45.2843 71.2534 45.2331 70.9977C45.1763 70.6966 44.9746 70.583 44.628 70.6568ZM54.2844 70.6398C53.8696 70.4977 53.6139 70.6398 53.5173 71.0659C53.4094 71.5602 53.4776 72.0261 53.7219 72.4637C53.7899 72.5866 53.8914 72.6877 54.0146 72.7552C54.1378 72.8227 54.2777 72.8538 54.4179 72.8449C54.5581 72.8359 54.6929 72.7873 54.8066 72.7048C54.9203 72.6222 55.0081 72.509 55.06 72.3784C55.4066 71.5205 55.148 70.9409 54.2844 70.6398ZM23.8067 72.9239C23.4545 73.1284 23.355 73.3955 23.5084 73.725C23.6391 74.0091 23.855 74.2137 24.1562 74.3387C24.4744 74.4694 24.6079 74.3671 24.5568 74.0319C24.4204 73.0773 24.7272 72.2421 25.4772 71.5262C25.5397 71.4693 25.5397 71.4154 25.4772 71.3642L25.2727 71.1852C25.2445 71.1597 25.2111 71.1408 25.1747 71.1299C25.1384 71.1189 25.1 71.1162 25.0625 71.1219C25.0249 71.1276 24.9891 71.1416 24.9577 71.1629C24.9262 71.1842 24.8999 71.2122 24.8806 71.2449L23.9516 72.779C23.9181 72.8401 23.8678 72.8904 23.8067 72.9239ZM44.6365 73.4779C44.3638 73.279 44.074 73.1654 43.7672 73.137C43.6877 73.1256 43.6195 73.1512 43.5627 73.2137C43.4831 73.2932 43.4433 73.3927 43.4433 73.512C43.4433 73.8813 43.6252 74.029 43.9888 73.9551L44.5513 73.8444C44.8525 73.7875 44.8809 73.6654 44.6365 73.4779Z" fill="#FF3B00"/>
<path d="M27.8637 57.9325L25.733 57.2336C23.4546 55.2393 21.6818 52.8643 20.4147 50.1085C20.3421 49.9527 20.3057 49.7824 20.308 49.6104C20.3104 49.4383 20.3515 49.2687 20.4284 49.1142C20.5052 48.9597 20.6159 48.8241 20.7521 48.7174C20.8884 48.6107 21.0469 48.5356 21.2159 48.4977L27.6762 47.0318C27.591 53.3131 36.182 50.8415 32.7388 45.7875L40.4349 43.8869C40.5154 43.8669 40.5991 43.8636 40.6811 43.8769C40.7631 43.8902 40.8418 43.92 40.9125 43.9644C40.9831 44.0089 41.0444 44.0672 41.0926 44.1358C41.1409 44.2044 41.1751 44.2821 41.1934 44.3641C41.8411 47.4238 41.9945 52.3415 39.2502 54.7109C35.9007 57.5916 32.2274 58.2904 27.8637 57.9325Z" fill="white"/>
<path d="M51.3187 45.9492C48.0374 51.7362 57.3103 53.0658 56.4409 46.9038L63.8302 48.6083C64.1541 48.6879 64.3217 48.8953 64.3331 49.2305C64.3956 51.9351 63.5575 53.9408 61.8188 55.2476C56.458 59.2619 47.7903 60.0375 44.3897 52.8868C43.1226 50.2334 43.0544 47.4634 44.1851 44.577C44.3044 44.2759 44.5203 44.1651 44.8328 44.2447L51.3187 45.9492Z" fill="white"/>
<path d="M32.7392 45.7874C36.1824 50.8414 27.5914 53.313 27.6766 47.0317L32.7392 45.7874Z" fill="black"/>
<path d="M56.4407 46.9038C57.31 53.0658 48.0372 51.7362 51.3185 45.9492L56.4407 46.9038Z" fill="black"/>
<path d="M14.4574 53.688L14.9603 55.9636C15.0284 56.2875 14.9006 56.4835 14.5767 56.5517C13.8267 56.7051 13.1506 57.117 12.5483 57.7875C12.1506 58.2307 12.1392 58.6824 12.5142 59.1426C13.5483 60.4324 13.4205 61.2761 12.1307 61.6739C11.2841 61.9409 10.4829 61.7534 9.72723 61.1114L14.4574 53.688Z" fill="black"/>
<path d="M25.7332 57.2336L27.8644 57.9327C27.9951 58.7681 27.8445 59.3705 27.4126 59.7399C27.2807 59.8527 27.1268 59.9369 26.9607 59.9871C26.7945 60.0374 26.6198 60.0526 26.4475 60.0317C26.2752 60.0109 26.1091 59.9545 25.9597 59.8661C25.8103 59.7777 25.681 59.6592 25.5798 59.5182C25.1024 58.8533 25.1536 58.0918 25.7332 57.2336Z" fill="black"/>
<path d="M70.2997 58.2649C70.4873 58.4866 70.564 58.7282 70.5299 58.9898C70.4958 59.3024 70.3224 59.4645 70.0097 59.4759C69.8846 59.4759 69.7709 59.4531 69.6686 59.4076C69.3843 59.2655 69.2905 59.0409 69.3872 58.7339C69.4725 58.461 69.626 58.2706 69.8477 58.1625C69.9236 58.1265 70.0094 58.1171 70.0914 58.1356C70.1733 58.1542 70.2467 58.1997 70.2997 58.2649Z" fill="black"/>
<path d="M36.0649 59.8816C36.6828 60.3678 37.4079 60.477 37.6845 60.1255C37.9611 59.7741 37.6844 59.095 37.0666 58.6088C36.4487 58.1225 35.7236 58.0133 35.447 58.3648C35.1704 58.7163 35.4471 59.3954 36.0649 59.8816Z" fill="black"/>
<path d="M19.0091 60.4725C19.0773 60.0463 19.2393 59.6854 19.495 59.3899C19.6996 59.1512 19.9042 59.0716 20.1088 59.1512C20.4043 59.2648 20.5009 59.4723 20.3986 59.7735C20.2509 60.2167 19.9951 60.589 19.6314 60.8902C19.3643 61.1118 19.3388 61.359 19.5547 61.6318L20.015 62.2285C20.2253 62.4956 20.16 62.6434 19.819 62.6718C19.5576 62.6945 19.3416 62.6207 19.1711 62.4502C18.6028 61.8648 18.0572 61.2028 17.5344 60.464C17.2048 59.998 17.2673 59.9354 17.7219 60.2764L18.3442 60.7367C18.7079 61.0095 18.9296 60.9214 19.0091 60.4725Z" fill="black"/>
<path d="M31.8505 61.9762C32.2391 62.2965 32.7192 62.356 32.9228 62.109C33.1264 61.8621 32.9764 61.4021 32.5878 61.0818C32.1991 60.7614 31.719 60.7019 31.5155 60.9489C31.3119 61.1959 31.4619 61.6558 31.8505 61.9762Z" fill="black"/>
<path d="M13.6819 61.3161C13.6734 61.3019 13.6682 61.286 13.6666 61.2695C13.6651 61.253 13.6672 61.2364 13.673 61.2208C13.6787 61.2053 13.6878 61.1913 13.6997 61.1797C13.7116 61.1682 13.7259 61.1594 13.7415 61.1542C14.3722 60.9496 14.8694 61.0519 15.233 61.461C15.2869 61.5228 15.3226 61.5984 15.3361 61.6793C15.3496 61.7602 15.3404 61.8433 15.3095 61.9193C15.2785 61.9952 15.2271 62.0612 15.161 62.1096C15.0948 62.1581 15.0165 62.1873 14.9347 62.1939C14.4291 62.2394 14.0114 61.9468 13.6819 61.3161Z" fill="black"/>
<path d="M22.3841 62.51C22.7373 62.51 23.0237 62.2237 23.0237 61.8704C23.0237 61.5172 22.7373 61.2308 22.3841 61.2308C22.0309 61.2308 21.7445 61.5172 21.7445 61.8704C21.7445 62.2237 22.0309 62.51 22.3841 62.51Z" fill="black"/>
<path d="M23.9118 61.2521C23.6655 61.4494 23.6019 61.7792 23.7698 61.9887C23.9376 62.1982 24.2733 62.2081 24.5196 62.0108C24.7659 61.8135 24.8294 61.4837 24.6616 61.2742C24.4937 61.0647 24.158 61.0548 23.9118 61.2521Z" fill="black"/>
<path d="M34.6538 61.4357C34.374 61.7788 34.3809 62.2476 34.6692 62.4828C34.9575 62.7179 35.4181 62.6304 35.6979 62.2874C35.9778 61.9443 35.9708 61.4755 35.6825 61.2403C35.3942 61.0052 34.9336 61.0927 34.6538 61.4357Z" fill="black"/>
<path d="M39.09 63.0527C39.488 63.3212 39.9131 63.387 40.0394 63.1997C40.1658 63.0124 39.9455 62.6429 39.5475 62.3744C39.1495 62.106 38.7244 62.0402 38.598 62.2275C38.4717 62.4148 38.6919 62.7843 39.09 63.0527Z" fill="black"/>
<path d="M52.4112 63.232C52.7465 63.1211 52.9417 62.7992 52.847 62.513C52.7524 62.2268 52.4038 62.0847 52.0684 62.1957C51.7331 62.3066 51.5379 62.6285 51.6326 62.9147C51.7272 63.2009 52.0758 63.3429 52.4112 63.232Z" fill="black"/>
<path d="M23.1509 65.0492C23.1452 65.123 23.1339 65.1969 23.1168 65.2708C23.1054 65.3333 23.0941 65.3333 23.0827 65.2708C22.9407 64.4582 23.1395 63.7367 23.6793 63.106C23.9975 62.731 24.1083 62.7849 24.0117 63.2679C23.9038 63.8475 23.6339 64.4014 23.202 64.9298C23.1736 64.9639 23.1566 65.0037 23.1509 65.0492Z" fill="black"/>
<path d="M48.8131 66.6263C48.798 66.6611 48.77 66.6886 48.7349 66.7029C48.6999 66.7172 48.6606 66.7173 48.6255 66.7031L48.5829 66.6775C48.4669 66.6271 48.3699 66.5361 48.2977 66.4098C48.2255 66.2836 48.1793 66.1245 48.1619 65.9416C48.1445 65.7587 48.1561 65.5557 48.1962 65.3441C48.2363 65.1325 48.3039 64.9164 48.3954 64.7083L48.5233 64.41C48.6153 64.2011 48.7294 64.0044 48.859 63.8312C48.9887 63.658 49.1313 63.5117 49.2787 63.4008C49.4261 63.2898 49.5753 63.2165 49.7177 63.1848C49.8602 63.1532 49.9931 63.164 50.1088 63.2165L50.1514 63.2336C50.1697 63.241 50.1863 63.252 50.2001 63.266C50.214 63.28 50.2248 63.2967 50.232 63.3151C50.2392 63.3334 50.2425 63.353 50.2419 63.3727C50.2412 63.3924 50.2366 63.4118 50.2282 63.4296L48.8131 66.6263Z" fill="black"/>
<path d="M30.1194 64.3625C30.0552 64.9947 30.4738 65.555 31.0545 65.614C31.6352 65.673 32.158 65.2083 32.2222 64.5761C32.2864 63.9439 31.8678 63.3836 31.2871 63.3246C30.7064 63.2656 30.1836 63.7303 30.1194 64.3625Z" fill="black"/>
<path d="M42.7026 64.9984C42.6981 65.0449 42.6819 65.0894 42.6553 65.1278C42.6288 65.1662 42.5928 65.1972 42.5509 65.2177C42.509 65.2383 42.4625 65.2477 42.4159 65.2451C42.3693 65.2426 42.3241 65.2281 42.2847 65.2031C42.063 65.0666 41.9578 64.8506 41.9692 64.5549C41.9919 63.6453 42.1994 63.5998 42.5917 64.4185C42.6827 64.6061 42.7196 64.7994 42.7026 64.9984Z" fill="black"/>
<path d="M45.8388 66.916C46.5037 67.1604 46.7197 67.6577 46.4867 68.4078C46.3446 68.8795 46.0292 69.0841 45.5405 69.0216L45.2677 68.9875C44.7221 68.9193 44.4891 68.6096 44.5687 68.0583L44.9352 65.5265C44.992 65.106 45.083 65.1003 45.208 65.5095C45.2705 65.7197 45.3046 65.9385 45.3103 66.1659C45.3133 66.3294 45.3653 66.4883 45.4595 66.622C45.5537 66.7557 45.6858 66.8581 45.8388 66.916Z" fill="black"/>
<path d="M19.8888 66.2574C19.7463 66.5494 19.8127 66.8749 20.0371 66.9844C20.2615 67.0938 20.5588 66.9457 20.7013 66.6536C20.8437 66.3615 20.7774 66.036 20.553 65.9266C20.3286 65.8172 20.0313 65.9653 19.8888 66.2574Z" fill="black"/>
<path d="M5.57688 67.3503C5.36665 69.9754 6.22177 71.5265 8.14225 72.0038C8.42066 72.0777 8.58828 72.2566 8.6451 72.5407C8.69055 72.7396 8.66498 72.93 8.56839 73.1118C8.49965 73.2549 8.3867 73.3725 8.24579 73.4475C8.10489 73.5226 7.9433 73.5512 7.78429 73.5294C7.23883 73.4555 6.89508 73.126 6.75303 72.5407C6.65644 72.1316 6.40359 71.9697 5.9945 72.055C4.88653 72.2709 4.01436 71.9612 3.37799 71.126L5.57688 67.3503Z" fill="black"/>
<path d="M24.6849 69.6342C25.2497 69.6342 25.7076 69.1763 25.7076 68.6115C25.7076 68.0467 25.2497 67.5887 24.6849 67.5887C24.12 67.5887 23.6621 68.0467 23.6621 68.6115C23.6621 69.1763 24.12 69.6342 24.6849 69.6342Z" fill="black"/>
<path d="M29.7609 68.8087C29.4229 69.2072 29.3643 69.7129 29.63 69.9382C29.8957 70.1635 30.385 70.0231 30.7229 69.6246C31.0608 69.2261 31.1194 68.7204 30.8538 68.4952C30.5881 68.2699 30.0988 68.4103 29.7609 68.8087Z" fill="black"/>
<path d="M19.9377 71.1855C19.1877 72.1514 18.2502 72.9071 17.1252 73.4526C15.5343 74.214 15.0996 73.7907 15.8212 72.1827C16.0087 71.7622 16.1167 71.3191 16.1451 70.8531C16.1621 70.5406 16.2956 70.2878 16.5457 70.0946C17.2616 69.5321 18.0656 69.4185 18.9576 69.7537C20.0997 70.1855 21.2616 70.4781 22.4434 70.6315C22.7219 70.6656 22.8383 70.8219 22.7929 71.1003C22.7815 71.1799 22.7588 71.2566 22.7247 71.3304C22.6914 71.3918 22.6372 71.4389 22.5726 71.4625C22.508 71.4862 22.4377 71.4846 22.3753 71.4583L21.0372 70.8957C20.5997 70.7139 20.2332 70.8105 19.9377 71.1855Z" fill="black"/>
<path d="M40.2564 70.4275C40.0972 70.3991 39.9465 70.3451 39.8044 70.2655C39.5088 70.0949 39.486 69.8931 39.7362 69.66C39.793 69.6088 39.8527 69.5605 39.9153 69.515C39.9512 69.4872 39.9948 69.4701 40.0414 69.4656C40.088 69.461 40.1358 69.4693 40.1796 69.4894C40.3957 69.5974 40.5407 69.7737 40.6146 70.0181C40.7169 70.3536 40.5975 70.49 40.2564 70.4275Z" fill="black"/>
<path d="M44.6283 70.6568C44.9751 70.5829 45.1769 70.6966 45.2337 70.998C45.2849 71.2538 45.2309 71.4528 45.0717 71.5949C44.7874 71.8508 44.5742 71.7996 44.4321 71.4414L44.3383 71.2112C44.3158 71.156 44.3056 71.0966 44.3084 71.0371C44.3112 70.9776 44.3269 70.9194 44.3545 70.8667C44.3822 70.8139 44.4209 70.7678 44.4682 70.7315C44.5155 70.6953 44.5701 70.6698 44.6283 70.6568Z" fill="black"/>
<path d="M54.2846 70.6401C55.1482 70.9412 55.4067 71.5208 55.0602 72.3787C55.0083 72.5093 54.9204 72.6225 54.8068 72.705C54.6931 72.7876 54.5583 72.8362 54.4181 72.8452C54.2779 72.8541 54.138 72.823 54.0148 72.7555C53.8916 72.688 53.79 72.5869 53.7221 72.4639C53.4777 72.0264 53.4096 71.5605 53.5175 71.0662C53.6141 70.6401 53.8698 70.498 54.2846 70.6401Z" fill="black"/>
<path d="M23.9522 72.7794L24.8814 71.245C24.9006 71.2122 24.927 71.1842 24.9584 71.1629C24.9899 71.1416 25.0257 71.1276 25.0632 71.1219C25.1008 71.1162 25.1391 71.1189 25.1755 71.1299C25.2119 71.1409 25.2454 71.1598 25.2735 71.1853L25.4781 71.3643C25.5406 71.4155 25.5406 71.4694 25.4781 71.5263C24.7279 72.2423 24.421 73.0777 24.5574 74.0325C24.6086 74.3678 24.475 74.4701 24.1568 74.3394C23.8556 74.2143 23.6396 74.0097 23.5089 73.7256C23.3555 73.396 23.4549 73.1289 23.8073 72.9243C23.8684 72.8907 23.9186 72.8405 23.9522 72.7794Z" fill="black"/>
<path d="M44.5522 73.845L43.9894 73.9558C43.6255 74.0297 43.4436 73.8819 43.4436 73.5124C43.4436 73.393 43.4834 73.2935 43.563 73.2139C43.6198 73.1514 43.6881 73.1258 43.7677 73.1371C44.0747 73.1656 44.3646 73.2793 44.6375 73.4783C44.882 73.6659 44.8536 73.7881 44.5522 73.845Z" fill="black"/>
<path d="M56.6719 75.5408L52.3926 75.4471L55.0267 73.7933C55.2881 73.6285 55.5467 73.6342 55.8024 73.8104C56.2627 74.1173 56.5526 74.6941 56.6719 75.5408Z" fill="black"/>
<path d="M33.719 74.7308C33.1679 75.0205 32.4264 75.0376 31.4946 74.7819C31.9946 73.7023 32.7361 73.6853 33.719 74.7308Z" fill="black"/>
<path d="M41.7646 75.0888C41.2362 74.9751 40.7561 74.9723 40.3243 75.0802C39.972 74.5461 40.0231 74.2336 40.4777 74.1427C42.0175 73.8189 42.4465 74.1342 41.7646 75.0888Z" fill="black"/>
<path d="M37.4178 75.3106L32.0996 84.2426C31.9462 84.4926 31.8894 84.7625 31.9291 85.0522L34.2303 102.098C34.2364 102.15 34.2316 102.202 34.2164 102.252C34.2011 102.301 34.1757 102.347 34.1419 102.385C34.108 102.424 34.0664 102.455 34.02 102.476C33.9735 102.497 33.9232 102.507 33.8723 102.507L25.7842 102.481C25.2444 102.481 24.9717 102.212 24.966 101.672V101.229C24.9649 101.119 24.9852 101.011 25.0258 100.91C25.0664 100.808 25.1265 100.716 25.2026 100.638C25.2787 100.561 25.3693 100.499 25.4691 100.457C25.5689 100.415 25.676 100.393 25.7842 100.393L31.3666 100.41C31.4333 100.411 31.4993 100.397 31.5601 100.37C31.6209 100.343 31.6751 100.304 31.7188 100.254C31.7626 100.205 31.7949 100.147 31.8136 100.084C31.8322 100.021 31.8368 99.9552 31.8269 99.8905L29.7558 85.0011C29.6706 84.3875 29.7871 83.8136 30.1053 83.2795C31.5825 80.7965 33.1053 78.3334 34.6735 75.8902C34.8099 75.68 34.8013 75.3845 34.6479 75.0038C34.5797 74.3958 34.7474 74.1345 35.1508 74.2197C35.5542 74.3049 36.3099 74.6686 37.4178 75.3106Z" fill="black"/>
<path d="M48.6937 75.6172L46.0346 81.8219C45.9266 82.0776 45.9863 82.2849 46.2136 82.444L59.3302 91.7339C59.6143 91.9385 59.6626 92.1856 59.4751 92.4754L55.512 98.6374C55.4521 98.7297 55.3732 98.8081 55.2807 98.8676C55.1881 98.9271 55.084 98.9661 54.9751 98.9823C54.8663 98.9984 54.7553 98.9912 54.6495 98.9611C54.5437 98.931 54.4455 98.8788 54.3614 98.8079L54.1739 98.6545C53.9432 98.46 53.7922 98.1874 53.7497 97.8887C53.7073 97.59 53.7764 97.2861 53.9438 97.0351L56.3813 93.3362C56.7222 92.8192 56.6398 92.3817 56.1341 92.0237L43.6141 83.2111C43.5171 83.144 43.4462 83.0453 43.4136 82.9319C43.381 82.8185 43.3886 82.6973 43.4351 82.5889L46.4522 75.4809C47.2988 75.3445 48.046 75.39 48.6937 75.6172Z" fill="black"/>
</svg>
