<svg width="77" height="90" viewBox="0 0 77 90" fill="none" xmlns="http://www.w3.org/2000/svg">
<path d="M28.69 60.1776L11.312 85.9932C11.2657 86.0622 11.2062 86.1214 11.1369 86.1674C11.0677 86.2133 10.99 86.2451 10.9085 86.261C10.8269 86.2768 10.743 86.2764 10.6616 86.2597C10.5802 86.243 10.5029 86.2104 10.4341 86.1637L5.29487 82.6182C4.73805 82.2376 4.26927 82.3284 3.88858 82.8909L3.69257 83.1893C3.64278 83.2618 3.60788 83.3435 3.58991 83.4297C3.57195 83.5158 3.57129 83.6047 3.58794 83.6911C3.60459 83.7776 3.63822 83.8598 3.6869 83.9331C3.73559 84.0064 3.79836 84.0693 3.87155 84.1182L10.9284 88.8996C11.0752 88.9997 11.256 89.0371 11.4316 89.0036C11.6072 88.9701 11.7634 88.8683 11.866 88.7206L31.1787 60.2117" stroke="black" stroke-width="1.70457"/>
<path d="M31.1786 60.2116L41.3293 59.24" stroke="#A5280E" stroke-width="1.70457"/>
<path d="M41.3295 59.2401L70.1025 80.104C70.1362 80.1298 70.1791 80.1407 70.2221 80.1343C70.2652 80.1279 70.3048 80.1048 70.3327 80.0699L75.5998 72.8511C75.667 72.7593 75.7131 72.6537 75.7345 72.542C75.7559 72.4302 75.7522 72.3151 75.7237 72.205C75.6951 72.0949 75.6424 71.9924 75.5694 71.9052C75.4964 71.8179 75.4048 71.748 75.3015 71.7005L75.0458 71.5812C74.8079 71.4738 74.54 71.4525 74.2881 71.5209C74.0362 71.5894 73.816 71.7432 73.6651 71.9562L70.1366 76.8994C69.9264 77.1892 69.6764 77.229 69.3866 77.0188L44.0909 58.7202" stroke="black" stroke-width="1.70457"/>
<path d="M44.0908 58.7206C48.8067 57.7717 53.3693 56.6637 57.7784 55.3967C64.699 53.4023 69.949 52.354 70.4007 44.7943C70.6138 41.1636 68.5257 33.2884 64.1535 32.6151C61.1933 32.1606 58.3722 31.6038 55.6903 30.9447C54.963 30.7629 54.9716 30.6237 55.7159 30.5271C60.3438 29.9305 64.2899 28.0895 65.5427 23.4019C66.3098 20.5269 66.5342 17.1491 66.216 13.2683C65.9206 9.66603 64.4291 7.16031 61.7415 5.7512C54.8778 2.13752 47.4346 0.728395 39.4117 1.52386C34.656 2.00114 29.8179 2.34491 24.8974 2.55514C17.0166 2.90174 10.8659 6.19436 6.44542 12.4331C4.4596 15.2456 4.01643 17.1973 5.63577 20.4872C6.89715 23.0525 8.03067 27.4248 11.3972 27.9617C13.562 28.3083 15.6643 28.8566 17.7041 29.6066C18.67 29.9646 18.6473 30.2458 17.6359 30.4503C15.2097 30.9504 12.7779 31.7685 10.3404 32.9049C6.49373 34.6947 3.69539 37.7942 1.94537 42.2033C1.7515 42.6959 1.7187 43.2388 1.85163 43.7545C2.28914 45.4647 2.99652 47.4449 3.97381 49.6949C5.62724 53.5046 7.94545 55.2347 12.2324 56.3853C15.3234 57.2092 18.5961 58.0274 22.0507 58.8399C24.2496 59.3569 26.4627 59.803 28.69 60.178" stroke="#A5280E" stroke-width="1.70457"/>
<path d="M44.0914 58.7203C42.9207 58.4816 42.0001 58.6549 41.3295 59.2403" stroke="black" stroke-width="1.70457"/>
<path d="M31.1786 60.2117C30.6502 59.9617 29.8206 59.9503 28.6899 60.1776" stroke="black" stroke-width="1.70457"/>
<path d="M35.5503 16.6424C35.3307 14.4427 34.2016 12.4247 32.4114 11.0325C30.6212 9.64024 28.3165 8.98774 26.0043 9.21852C24.8594 9.33279 23.7471 9.66047 22.731 10.1829C21.7149 10.7052 20.8148 11.4121 20.0821 12.2631C19.3494 13.1141 18.7985 14.0925 18.4608 15.1425C18.1231 16.1925 18.0052 17.2936 18.1139 18.3828C18.3335 20.5825 19.4626 22.6005 21.2528 23.9927C23.043 25.385 25.3477 26.0375 27.6599 25.8067C28.8048 25.6924 29.9171 25.3647 30.9332 24.8423C31.9493 24.32 32.8495 23.6131 33.5821 22.7621C34.3148 21.9112 34.8657 20.9327 35.2034 19.8827C35.5411 18.8327 35.659 17.7316 35.5503 16.6424Z" stroke="#A5280E" stroke-width="1.70457"/>
<path d="M54.0788 16.2647C53.9044 14.3105 52.9608 12.5056 51.4556 11.2471C49.9504 9.98853 48.007 9.37944 46.0527 9.55384L43.6588 9.76753C42.6912 9.85389 41.75 10.13 40.889 10.5801C40.0281 11.0302 39.2642 11.6454 38.6411 12.3907C38.0179 13.136 37.5476 13.9967 37.2571 14.9238C36.9666 15.8508 36.8615 16.826 36.9479 17.7936L37.0691 19.1519C37.2436 21.1062 38.1872 22.9111 39.6923 24.1696C41.1975 25.4282 43.141 26.0372 45.0952 25.8628L47.4891 25.6492C48.4568 25.5628 49.398 25.2867 50.2589 24.8366C51.1199 24.3865 51.8837 23.7713 52.5069 23.026C53.1301 22.2807 53.6003 21.42 53.8909 20.4929C54.1814 19.5659 54.2865 18.5907 54.2001 17.623L54.0788 16.2647Z" stroke="#A5280E" stroke-width="1.70457"/>
<path d="M33.045 17.4253C33.0317 15.8996 32.3813 14.442 31.2372 13.3731C30.093 12.3041 28.5486 11.7115 26.9438 11.7255C25.339 11.7395 23.8052 12.359 22.6799 13.4478C21.5545 14.5365 20.9298 16.0053 20.9431 17.531C20.9564 19.0567 21.6067 20.5143 22.7509 21.5832C23.8951 22.6521 25.4394 23.2448 27.0442 23.2308C28.649 23.2168 30.1828 22.5973 31.3082 21.5085C32.4336 20.4198 33.0583 18.951 33.045 17.4253Z" stroke="black" stroke-width="1.70457"/>
<path d="M51.3526 17.0347C51.296 16.2824 51.0843 15.5492 50.7297 14.8769C50.375 14.2047 49.8843 13.6066 49.2856 13.1167C48.6868 12.6268 47.9918 12.2547 47.2401 12.0217C46.4884 11.7887 45.6948 11.6994 44.9046 11.7588C43.3087 11.8788 41.8236 12.5974 40.776 13.7565C39.7283 14.9156 39.2039 16.4202 39.3181 17.9394C39.3747 18.6917 39.5863 19.4248 39.941 20.0971C40.2956 20.7693 40.7863 21.3675 41.3851 21.8574C41.9838 22.3473 42.6789 22.7194 43.4306 22.9524C44.1823 23.1853 44.9759 23.2746 45.7661 23.2152C47.3619 23.0952 48.847 22.3767 49.8947 21.2176C50.9423 20.0585 51.4668 18.5539 51.3526 17.0347Z" stroke="black" stroke-width="1.70457"/>
<path d="M44.0908 58.7206C42.9203 58.4819 41.9998 58.6552 41.3294 59.2404L31.1787 60.2121C30.6503 59.9621 29.8207 59.9507 28.69 60.178C26.4627 59.803 24.2496 59.3569 22.0507 58.8399C18.5961 58.0274 15.3234 57.2092 12.2324 56.3853C7.94545 55.2347 5.62724 53.5046 3.97381 49.6949C2.99652 47.4449 2.28914 45.4647 1.85163 43.7545C1.7187 43.2388 1.7515 42.6959 1.94537 42.2033C3.69539 37.7942 6.49373 34.6947 10.3404 32.9049C12.7779 31.7685 15.2097 30.9503 17.6359 30.4503C18.6473 30.2458 18.67 29.9646 17.7041 29.6066C15.6643 28.8566 13.562 28.3083 11.3972 27.9617C8.03067 27.4248 6.89715 23.0525 5.63577 20.4872C4.01643 17.1973 4.4596 15.2456 6.44542 12.4331C10.8659 6.19436 17.0166 2.90174 24.8974 2.55514C29.8179 2.34491 34.656 2.00114 39.4117 1.52386C47.4346 0.728395 54.8778 2.13752 61.7415 5.7512C64.4291 7.16031 65.9206 9.66603 66.216 13.2683C66.5342 17.1491 66.3098 20.5269 65.5427 23.4019C64.2899 28.0895 60.3438 29.9305 55.7159 30.5271C54.9716 30.6237 54.963 30.7629 55.6903 30.9447C58.3722 31.6038 61.1933 32.1606 64.1535 32.6151C68.5257 33.2884 70.6138 41.1636 70.4007 44.7943C69.949 52.354 64.699 53.4023 57.7784 55.3967C53.3693 56.6637 48.8067 57.7717 44.0908 58.7206ZM35.5502 16.6425C35.3306 14.4428 34.2016 12.4248 32.4113 11.0326C30.6211 9.64031 28.3164 8.98781 26.0042 9.2186C24.8593 9.33286 23.7471 9.66054 22.7309 10.1829C21.7148 10.7053 20.8147 11.4122 20.082 12.2632C19.3493 13.1142 18.7984 14.0926 18.4607 15.1426C18.123 16.1926 18.0051 17.2937 18.1139 18.3829C18.3334 20.5826 19.4625 22.6005 21.2527 23.9928C23.043 25.385 25.3477 26.0375 27.6598 25.8067C28.8047 25.6925 29.917 25.3648 30.9331 24.8424C31.9493 24.32 32.8494 23.6132 33.5821 22.7622C34.3148 21.9112 34.8657 20.9328 35.2034 19.8827C35.5411 18.8327 35.6589 17.7317 35.5502 16.6425ZM54.0786 16.2651C53.9042 14.3109 52.9606 12.506 51.4554 11.2474C49.9502 9.98892 48.0067 9.37982 46.0525 9.55422L43.6586 9.76792C42.6909 9.85427 41.7498 10.1304 40.8888 10.5805C40.0279 11.0305 39.264 11.6458 38.6408 12.3911C38.0177 13.1364 37.5474 13.9971 37.2569 14.9242C36.9664 15.8512 36.8613 16.8264 36.9476 17.794L37.0689 19.1523C37.2433 21.1065 38.1869 22.9115 39.6921 24.17C41.1973 25.4285 43.1408 26.0376 45.095 25.8632L47.4889 25.6495C48.4566 25.5632 49.3977 25.2871 50.2587 24.837C51.1196 24.3869 51.8835 23.7717 52.5066 23.0264C53.1298 22.2811 53.6001 21.4203 53.8906 20.4933C54.1811 19.5663 54.2862 18.591 54.1999 17.6234L54.0786 16.2651Z" fill="#A5280E"/>
<path d="M35.5503 16.6424C35.659 17.7316 35.5411 18.8327 35.2034 19.8827C34.8657 20.9327 34.3148 21.9112 33.5821 22.7621C32.8495 23.6131 31.9493 24.32 30.9332 24.8423C29.9171 25.3647 28.8048 25.6924 27.6599 25.8067C25.3477 26.0375 23.043 25.385 21.2528 23.9927C19.4626 22.6005 18.3335 20.5825 18.1139 18.3828C18.0052 17.2936 18.1231 16.1925 18.4608 15.1425C18.7985 14.0925 19.3494 13.1141 20.0821 12.2631C20.8148 11.4121 21.7149 10.7052 22.731 10.1829C23.7471 9.66047 24.8594 9.33279 26.0043 9.21852C28.3165 8.98774 30.6212 9.64024 32.4114 11.0325C34.2016 12.4247 35.3307 14.4427 35.5503 16.6424ZM33.045 17.4257C33.0317 15.9 32.3814 14.4424 31.2372 13.3735C30.093 12.3045 28.5486 11.7119 26.9438 11.7258C25.339 11.7399 23.8052 12.3594 22.6799 13.4482C21.5545 14.5369 20.9298 16.0056 20.9431 17.5314C20.9564 19.057 21.6067 20.5147 22.7509 21.5836C23.8951 22.6525 25.4394 23.2452 27.0442 23.2312C28.6491 23.2172 30.1828 22.5976 31.3082 21.5089C32.4336 20.4202 33.0583 18.9514 33.045 17.4257Z" fill="white"/>
<path d="M54.2001 17.623C54.2865 18.5907 54.1814 19.5659 53.8909 20.4929C53.6003 21.42 53.1301 22.2807 52.5069 23.026C51.8837 23.7713 51.1199 24.3865 50.2589 24.8366C49.398 25.2867 48.4568 25.5628 47.4891 25.6492L45.0952 25.8628C43.141 26.0372 41.1975 25.4282 39.6923 24.1696C38.1872 22.9111 37.2436 21.1062 37.0691 19.1519L36.9479 17.7936C36.8615 16.826 36.9666 15.8508 37.2571 14.9238C37.5476 13.9967 38.0179 13.136 38.6411 12.3907C39.2642 11.6454 40.0281 11.0302 40.889 10.5801C41.75 10.13 42.6912 9.85389 43.6588 9.76753L46.0527 9.55384C48.007 9.37944 49.9504 9.98853 51.4556 11.2471C52.9608 12.5056 53.9044 14.3105 54.0788 16.2647L54.2001 17.623ZM51.3526 17.0344C51.296 16.2821 51.0843 15.5489 50.7297 14.8767C50.375 14.2044 49.8843 13.6063 49.2856 13.1164C48.6868 12.6265 47.9918 12.2544 47.2401 12.0214C46.4884 11.7884 45.6948 11.6991 44.9046 11.7585C43.3088 11.8785 41.8236 12.5971 40.776 13.7562C39.7283 14.9153 39.2039 16.4199 39.3181 17.9391C39.3747 18.6914 39.5863 19.4245 39.941 20.0968C40.2956 20.769 40.7864 21.3672 41.3851 21.8571C41.9839 22.347 42.6789 22.7191 43.4306 22.9521C44.1823 23.185 44.9759 23.2743 45.7661 23.2149C47.3619 23.0949 48.847 22.3764 49.8947 21.2173C50.9424 20.0582 51.4668 18.5536 51.3526 17.0344Z" fill="white"/>
<path d="M27.0443 23.231C30.3862 23.2019 33.0728 20.6026 33.0451 17.4255C33.0174 14.2484 30.2858 11.6965 26.9439 11.7256C23.6021 11.7548 20.9154 14.354 20.9431 17.5311C20.9709 20.7083 23.7025 23.2602 27.0443 23.231Z" fill="black"/>
<path d="M45.766 23.2153C49.0892 22.9654 51.5904 20.1983 51.3525 17.0347C51.1146 13.871 48.2278 11.509 44.9046 11.7589C41.5814 12.0087 39.0803 14.7759 39.3182 17.9395C39.556 21.1031 42.4428 23.4652 45.766 23.2153Z" fill="black"/>
<path d="M44.0909 58.7203L69.3866 77.0188C69.6764 77.229 69.9264 77.1893 70.1366 76.8995L73.6651 71.9562C73.816 71.7433 74.0362 71.5894 74.2881 71.521C74.54 71.4526 74.8079 71.4739 75.0458 71.5812L75.3015 71.7006C75.4048 71.7481 75.4964 71.818 75.5694 71.9052C75.6424 71.9925 75.6951 72.0949 75.7237 72.2051C75.7523 72.3152 75.756 72.4303 75.7345 72.542C75.7131 72.6538 75.667 72.7594 75.5998 72.8511L70.3327 80.0699C70.3048 80.1048 70.2652 80.128 70.2221 80.1343C70.1791 80.1407 70.1362 80.1298 70.1025 80.1041L41.3295 59.2401C41.9999 58.6549 42.9204 58.4816 44.0909 58.7203Z" fill="black"/>
<path d="M31.1787 60.2117L11.866 88.7206C11.7634 88.8683 11.6072 88.9701 11.4316 89.0036C11.256 89.0371 11.0752 88.9997 10.9284 88.8996L3.87155 84.1182C3.79836 84.0693 3.73559 84.0064 3.6869 83.9331C3.63822 83.8598 3.60459 83.7775 3.58794 83.6911C3.57129 83.6047 3.57195 83.5158 3.58991 83.4297C3.60788 83.3435 3.64278 83.2618 3.69257 83.1892L3.88858 82.8909C4.26927 82.3284 4.73805 82.2375 5.29487 82.6182L10.4341 86.1637C10.5029 86.2104 10.5802 86.243 10.6616 86.2597C10.743 86.2764 10.8269 86.2768 10.9085 86.261C10.99 86.2451 11.0677 86.2133 11.1369 86.1673C11.2062 86.1214 11.2657 86.0622 11.312 85.9932L28.69 60.1776C29.8207 59.9503 30.6503 59.9617 31.1787 60.2117Z" fill="black"/>
</svg>
