<svg width="71" height="96" viewBox="0 0 71 96" fill="none" xmlns="http://www.w3.org/2000/svg">
<path d="M30.3102 69.009L17.6283 90.7593C17.5839 90.8346 17.5252 90.9005 17.4555 90.953C17.3859 91.0055 17.3067 91.0435 17.2225 91.065C17.1383 91.0864 17.051 91.0908 16.9655 91.0778C16.8801 91.0648 16.7982 91.0348 16.7248 90.9894L12.8896 88.6627C12.8066 88.6128 12.7143 88.5807 12.6182 88.5684C12.5221 88.556 12.4243 88.5636 12.3308 88.5908C12.2374 88.6179 12.1502 88.664 12.0748 88.7262C11.9994 88.7884 11.9373 88.8654 11.8924 88.9524L11.6964 89.336C11.4578 89.8019 11.5629 90.1712 12.0117 90.4439L17.6112 93.8701C17.6651 93.9035 17.7252 93.9256 17.7878 93.935C17.8505 93.9445 17.9144 93.9412 17.9758 93.9253C18.0371 93.9093 18.0946 93.8811 18.1448 93.8423C18.1949 93.8036 18.2366 93.755 18.2675 93.6996L32.5091 69.1028" stroke="black" stroke-width="1.70457"/>
<path d="M32.5092 69.1026C33.39 68.9662 34.305 69.0173 35.2541 69.256" stroke="#FFBC34" stroke-width="1.70457"/>
<path d="M35.2534 69.2562L35.2022 94.3133C35.2011 94.402 35.2177 94.4901 35.2512 94.5723C35.2846 94.6545 35.3341 94.7292 35.3969 94.7919C35.4596 94.8547 35.5343 94.9042 35.6165 94.9376C35.6987 94.9711 35.7868 94.9877 35.8755 94.9866L43.0688 94.8673C43.5234 94.8616 43.7449 94.6286 43.7336 94.1684L43.725 93.7252C43.708 93.2082 43.441 92.9468 42.9239 92.9411L37.742 92.8388C37.6049 92.8344 37.4748 92.7768 37.3794 92.6782C37.2839 92.5796 37.2306 92.4477 37.2306 92.3104L37.2392 69.1368" stroke="black" stroke-width="1.70457"/>
<path d="M37.2396 69.1366L68.7315 70.1423C68.9033 70.1477 69.0744 70.1167 69.2335 70.0513C69.3925 69.9859 69.5359 69.8875 69.6542 69.7628C69.7726 69.638 69.8632 69.4896 69.9201 69.3273C69.977 69.165 69.9989 68.9926 69.9844 68.8212C69.4105 61.8268 69.0525 54.7841 68.9105 47.6932C68.7997 42.6732 68.3991 37.4317 68.2713 32.2839C68.0923 25.3378 67.8195 19.3547 66.9332 13.7978C66.3707 10.2864 64.8451 5.31765 61.5808 3.48524C58.1461 1.55908 50.2796 -0.196647 47.0665 3.51078C43.8874 7.18412 42.7454 12.187 42.7965 16.8916C42.7998 17.056 42.7556 17.2178 42.669 17.3576C42.5825 17.4974 42.4573 17.6092 42.3086 17.6794C42.16 17.7497 41.9942 17.7755 41.8312 17.7536C41.6683 17.7318 41.5151 17.6633 41.3902 17.5564C39.1743 15.7155 36.3362 14.6558 32.8759 14.3774C24.8986 13.7382 22.64 23.0195 22.8105 29.2327C22.8158 29.3764 22.7802 29.5187 22.7077 29.643C22.6352 29.7673 22.5288 29.8684 22.4011 29.9345C22.2733 30.0006 22.1294 30.029 21.9861 30.0165C21.8428 30.0039 21.706 29.9507 21.5917 29.8634C19.4695 28.2696 16.5632 26.5821 13.7933 26.565C7.67391 26.5224 5.10001 29.7441 4.52046 35.4799C3.45226 46.2016 2.45793 56.52 1.53747 66.4348C1.51759 66.654 1.54285 66.8749 1.61164 67.0839C1.68044 67.2929 1.7913 67.4857 1.93744 67.6502C2.08358 67.8147 2.26192 67.9475 2.46138 68.0404C2.66084 68.1334 2.87719 68.1845 3.09716 68.1905L30.3105 69.0088" stroke="#FFBC34" stroke-width="1.70457"/>
<path d="M37.2396 69.1365C36.5464 68.6194 35.8845 68.6592 35.2538 69.2558" stroke="black" stroke-width="1.70457"/>
<path d="M32.5092 69.1023C31.8899 68.6307 31.1569 68.5995 30.3103 69.0086" stroke="black" stroke-width="1.70457"/>
<path d="M30.2931 51.9204C25.1197 55.5767 18.0969 54.0511 17.0571 46.9005C17.0173 46.6561 16.881 46.4971 16.648 46.4232C16.2446 46.2925 15.8128 46.2811 15.3525 46.3891C15.2142 46.4216 15.0926 46.5038 15.0109 46.62C14.9292 46.7363 14.893 46.8786 14.9093 47.0198C15.9065 56.3352 25.5203 58.3466 32.0232 53.2415C33.455 52.1164 34.3443 50.0056 34.6909 46.909C34.7363 46.4771 34.5403 46.2669 34.1028 46.2783L33.5488 46.2868C33.3386 46.2914 33.1356 46.3647 32.9709 46.4956C32.8062 46.6264 32.6889 46.8075 32.6369 47.0112C32.2022 48.6987 31.7931 50.8635 30.2931 51.9204Z" stroke="black" stroke-width="1.70457"/>
<path d="M55.0264 46.9771C54.5832 51.3408 51.8304 53.642 47.2451 53.7442C42.8075 53.8352 40.2251 51.6249 39.4979 47.1135C39.424 46.6249 39.1371 46.3777 38.637 46.372H38.0064C37.5689 46.3663 37.37 46.5851 37.4098 47.0283C38.2791 56.3778 47.5264 57.9375 54.2679 53.5056C55.535 52.6704 56.5407 50.4942 57.285 46.9771C57.2985 46.9159 57.2991 46.8524 57.2868 46.7909C57.2745 46.7294 57.2495 46.6712 57.2134 46.6199C57.1773 46.5686 57.131 46.5253 57.0773 46.4929C57.0236 46.4605 56.9637 46.4396 56.9015 46.4316L55.8617 46.3124C55.7631 46.3005 55.6631 46.3084 55.5676 46.3355C55.472 46.3626 55.3828 46.4083 55.3051 46.4702C55.2274 46.532 55.1628 46.6087 55.115 46.6957C55.0671 46.7827 55.037 46.8784 55.0264 46.9771Z" stroke="black" stroke-width="1.70457"/>
<path d="M37.2396 69.1366C36.5464 68.6195 35.8845 68.6593 35.2538 69.2559C34.305 69.0173 33.3901 68.9661 32.5094 69.1025C31.8901 68.6309 31.1571 68.5997 30.3105 69.0088L3.09716 68.1905C2.87719 68.1845 2.66084 68.1334 2.46138 68.0404C2.26192 67.9475 2.08358 67.8147 1.93744 67.6502C1.7913 67.4857 1.68044 67.2929 1.61164 67.0839C1.54285 66.8749 1.51759 66.654 1.53747 66.4348C2.45793 56.52 3.45226 46.2016 4.52046 35.4799C5.10001 29.7441 7.67391 26.5224 13.7933 26.565C16.5632 26.5821 19.4695 28.2696 21.5917 29.8634C21.706 29.9507 21.8428 30.0039 21.9861 30.0165C22.1294 30.029 22.2733 30.0006 22.4011 29.9345C22.5288 29.8684 22.6352 29.7673 22.7077 29.643C22.7802 29.5187 22.8158 29.3764 22.8105 29.2327C22.64 23.0195 24.8986 13.7382 32.8759 14.3774C36.3362 14.6558 39.1743 15.7155 41.3902 17.5564C41.5151 17.6633 41.6683 17.7318 41.8312 17.7536C41.9942 17.7755 42.16 17.7497 42.3086 17.6794C42.4573 17.6091 42.5825 17.4974 42.669 17.3576C42.7556 17.2178 42.7998 17.056 42.7965 16.8916C42.7454 12.187 43.8874 7.18412 47.0665 3.51078C50.2796 -0.196647 58.1461 1.55908 61.5808 3.48524C64.8451 5.31765 66.3707 10.2864 66.9332 13.7978C67.8195 19.3547 68.0923 25.3378 68.2713 32.2839C68.3991 37.4317 68.7997 42.6732 68.9105 47.6932C69.0525 54.7841 69.4105 61.8268 69.9844 68.8212C69.9989 68.9926 69.977 69.165 69.9201 69.3273C69.8632 69.4896 69.7726 69.638 69.6542 69.7628C69.5359 69.8876 69.3925 69.9859 69.2335 70.0513C69.0744 70.1167 68.9034 70.1477 68.7315 70.1423L37.2396 69.1366ZM30.2935 51.9204C25.1202 55.5767 18.0973 54.0512 17.0576 46.9005C17.0178 46.6562 16.8814 46.4971 16.6485 46.4233C16.2451 46.2926 15.8132 46.2812 15.353 46.3891C15.2146 46.4216 15.093 46.5038 15.0113 46.6201C14.9296 46.7364 14.8935 46.8786 14.9098 47.0198C15.907 56.3353 25.5207 58.3467 32.0236 53.2415C33.4555 52.1165 34.3447 50.0056 34.6913 46.909C34.7367 46.4772 34.5407 46.267 34.1032 46.2783L33.5493 46.2869C33.339 46.2915 33.136 46.3648 32.9713 46.4956C32.8067 46.6264 32.6894 46.8075 32.6373 47.0113C32.2026 48.6988 31.7936 50.8636 30.2935 51.9204ZM55.0267 46.9772C54.5836 51.3409 51.8307 53.6421 47.2454 53.7443C42.8078 53.8353 40.2255 51.625 39.4982 47.1136C39.4243 46.625 39.1374 46.3778 38.6374 46.3721H38.0067C37.5692 46.3664 37.3703 46.5852 37.4101 47.0283C38.2794 56.3779 47.5267 57.9376 54.2683 53.5057C55.5353 52.6705 56.541 50.4943 57.2853 46.9772C57.2989 46.916 57.2995 46.8525 57.2871 46.791C57.2748 46.7295 57.2498 46.6713 57.2137 46.62C57.1777 46.5687 57.1313 46.5254 57.0776 46.493C57.0239 46.4606 56.964 46.4397 56.9018 46.4317L55.862 46.3125C55.7634 46.3006 55.6634 46.3085 55.5679 46.3356C55.4724 46.3626 55.3832 46.4084 55.3055 46.4703C55.2278 46.5321 55.1631 46.6088 55.1153 46.6958C55.0674 46.7828 55.0373 46.8785 55.0267 46.9772Z" fill="#FFBC34"/>
<path d="M17.0571 46.9005C18.0969 54.0511 25.1197 55.5767 30.2931 51.9204C31.7931 50.8635 32.2022 48.6987 32.6369 47.0112C32.6889 46.8075 32.8062 46.6264 32.9709 46.4956C33.1356 46.3647 33.3386 46.2914 33.5488 46.2868L34.1028 46.2783C34.5403 46.2669 34.7363 46.4771 34.6909 46.909C34.3443 50.0056 33.455 52.1164 32.0232 53.2415C25.5203 58.3466 15.9065 56.3352 14.9093 47.0198C14.893 46.8786 14.9292 46.7363 15.0109 46.62C15.0926 46.5038 15.2142 46.4216 15.3525 46.3891C15.8128 46.2811 16.2446 46.2925 16.648 46.4232C16.881 46.4971 17.0173 46.6561 17.0571 46.9005Z" fill="black"/>
<path d="M47.2451 53.7442C51.8304 53.642 54.5832 51.3408 55.0264 46.9771C55.037 46.8784 55.0671 46.7827 55.115 46.6957C55.1628 46.6087 55.2274 46.532 55.3051 46.4702C55.3829 46.4083 55.472 46.3626 55.5676 46.3355C55.6631 46.3084 55.7631 46.3005 55.8617 46.3124L56.9015 46.4316C56.9637 46.4396 57.0236 46.4605 57.0773 46.4929C57.131 46.5253 57.1773 46.5686 57.2134 46.6199C57.2495 46.6712 57.2745 46.7294 57.2868 46.7909C57.2991 46.8524 57.2985 46.9159 57.285 46.9771C56.5407 50.4942 55.535 52.6704 54.2679 53.5056C47.5264 57.9375 38.2791 56.3778 37.4098 47.0283C37.37 46.5851 37.5689 46.3663 38.0064 46.372H38.637C39.1371 46.3777 39.424 46.6249 39.4979 47.1135C40.2251 51.6249 42.8075 53.8352 47.2451 53.7442Z" fill="black"/>
<path d="M32.5091 69.1023L18.2675 93.6992C18.2366 93.7545 18.1949 93.8031 18.1448 93.8419C18.0946 93.8806 18.0371 93.9088 17.9758 93.9248C17.9144 93.9407 17.8505 93.944 17.7878 93.9346C17.7252 93.9251 17.6651 93.903 17.6112 93.8696L12.0117 90.4434C11.5629 90.1707 11.4578 89.8014 11.6964 89.3355L11.8924 88.952C11.9373 88.865 11.9994 88.788 12.0748 88.7258C12.1502 88.6636 12.2374 88.6175 12.3308 88.5903C12.4243 88.5632 12.5221 88.5555 12.6182 88.5679C12.7143 88.5803 12.8066 88.6124 12.8896 88.6622L16.7248 90.9889C16.7982 91.0343 16.8801 91.0643 16.9655 91.0773C17.051 91.0903 17.1383 91.0859 17.2225 91.0645C17.3067 91.0431 17.3859 91.005 17.4555 90.9525C17.5252 90.9 17.5839 90.8341 17.6283 90.7588L30.3102 69.0086C31.1568 68.5995 31.8898 68.6307 32.5091 69.1023Z" fill="black"/>
<path d="M37.2392 69.1365L37.2306 92.31C37.2306 92.4473 37.2839 92.5792 37.3794 92.6778C37.4748 92.7764 37.6049 92.834 37.742 92.8384L42.9239 92.9407C43.441 92.9464 43.708 93.2078 43.725 93.7248L43.7336 94.168C43.7449 94.6282 43.5234 94.8612 43.0688 94.8669L35.8755 94.9862C35.7868 94.9874 35.6987 94.9707 35.6165 94.9373C35.5343 94.9038 35.4596 94.8543 35.3969 94.7916C35.3341 94.7288 35.2846 94.6541 35.2512 94.5719C35.2177 94.4897 35.2011 94.4016 35.2022 94.3129L35.2534 69.2558C35.8841 68.6592 36.546 68.6194 37.2392 69.1365Z" fill="black"/>
</svg>
