<svg width="84" height="104" viewBox="0 0 84 104" fill="none" xmlns="http://www.w3.org/2000/svg">
<path d="M38.4083 60.4518L38.3743 99.9807C38.3743 100.475 38.1271 100.728 37.6328 100.739L33.4992 100.824C33.0788 100.83 32.843 101.043 32.7918 101.464L32.7492 101.839C32.6754 102.413 32.9282 102.699 33.5077 102.699L40.0959 102.734C40.1434 102.734 40.1889 102.716 40.2225 102.684C40.256 102.652 40.2748 102.608 40.2748 102.563L40.2664 60.5456" stroke="black" stroke-width="1.70457"/>
<path d="M40.2662 60.5454C41.2551 60.1873 42.2866 60.318 43.3606 60.9374" stroke="#BE6901" stroke-width="1.70457"/>
<path d="M43.3601 60.9377L43.3516 102.282C43.3516 102.583 43.5021 102.734 43.8032 102.734L50.0334 102.708C50.6584 102.702 50.9482 102.387 50.9028 101.762L50.8942 101.54C50.8793 101.342 50.7904 101.157 50.6451 101.021C50.4999 100.885 50.309 100.809 50.1102 100.808L45.7209 100.773C45.6003 100.771 45.4854 100.722 45.401 100.636C45.3165 100.55 45.2692 100.434 45.2692 100.313L45.2521 60.5542" stroke="black" stroke-width="1.70457"/>
<path d="M45.2519 60.5538L79.3261 60.9032C79.7182 60.9032 79.9369 60.7101 79.9824 60.3237C80.9256 52.21 81.6955 43.8519 82.2921 35.2495C82.5137 32.0336 82.4909 28.7637 82.2239 25.4398C81.5762 17.488 80.7068 9.8515 80.8347 1.89118C80.8362 1.84937 80.8287 1.80771 80.8126 1.76909C80.7965 1.73047 80.7722 1.69579 80.7414 1.66744C80.7106 1.6391 80.6741 1.61779 80.6343 1.60492C80.5945 1.59204 80.5523 1.5879 80.5108 1.59285C73.1414 2.2349 66.2521 2.49061 59.8429 2.35992C48.6354 2.12129 38.3484 2.64972 27.4818 2.01051C18.405 1.46505 10.1463 2.39401 1.41042 3.20368C1.34108 3.20802 1.27602 3.23867 1.22851 3.28935C1.18099 3.34004 1.15461 3.40694 1.15475 3.47641C1.07804 11.6839 0.882011 20.2067 1.68316 28.4994C2.73146 39.3746 2.23712 49.2099 1.66609 60.0765C1.64905 60.3606 1.7826 60.5026 2.06669 60.5026L38.408 60.4515" stroke="#BE6901" stroke-width="1.70457"/>
<path d="M45.2524 60.5539C44.5251 60.3323 43.8944 60.4601 43.3604 60.9374" stroke="black" stroke-width="1.70457"/>
<path d="M40.2661 60.5455C39.6354 60.2955 39.016 60.2642 38.4081 60.4517" stroke="black" stroke-width="1.70457"/>
<path d="M34.2664 12.3317L29.0846 11.4539" stroke="black" stroke-width="1.70457"/>
<path d="M29.0844 11.4538L23.3997 10.5846C23.0587 10.5277 22.8286 10.6641 22.7093 10.9936C20.9621 15.8516 22.3087 19.2693 26.3826 22.5335C29.2122 24.8006 34.7435 23.3858 37.4623 21.7154C40.0874 20.1131 41.2578 17.5448 40.9737 14.0107C40.951 13.6868 40.7806 13.4965 40.4624 13.4397L34.2663 12.3317" stroke="#BE6901" stroke-width="1.70457"/>
<path d="M29.0844 11.4539C28.0787 16.3886 34.4026 16.2863 34.2662 12.3317" stroke="black" stroke-width="1.70457"/>
<path d="M54.9597 11.667L49.4795 12.6642" stroke="black" stroke-width="1.70457"/>
<path d="M49.4795 12.6642L43.3431 13.5506C42.7408 13.6358 42.4595 13.9824 42.4993 14.5903C42.8061 19.062 44.5846 21.937 47.8346 23.2154C51.0903 24.4939 55.3091 23.6501 58.2835 21.9626C62.0506 19.8319 62.2211 14.7608 61.1643 11.1386C61.1145 10.9705 61.0042 10.8269 60.8546 10.7356C60.705 10.6443 60.5268 10.6117 60.3546 10.6443L54.9597 11.667" stroke="#BE6901" stroke-width="1.70457"/>
<path d="M49.4795 12.6642C49.7352 14.5222 50.8119 15.4057 52.7096 15.3148C54.4596 15.2296 55.2097 14.0136 54.9597 11.667" stroke="black" stroke-width="1.70457"/>
<path d="M57.6024 29.3183C57.6528 29.2824 57.6925 29.2336 57.7173 29.177C57.742 29.1204 57.7509 29.0581 57.7431 28.9968C57.7352 28.9354 57.7108 28.8775 57.6725 28.8289C57.6342 28.7804 57.5835 28.7432 57.5257 28.7213C57.1277 28.5621 56.7383 28.6474 56.3574 28.9771C56.1357 29.1704 56.1584 29.3296 56.4256 29.4547C56.8349 29.6423 57.2272 29.5968 57.6024 29.3183Z" stroke="black" stroke-width="1.70457"/>
<path d="M53.5534 31.0566C53.4625 31.2044 53.4227 31.3551 53.434 31.5086C53.4681 31.9861 53.6046 32.0089 53.8434 31.5768C53.9912 31.3096 53.9912 31.0082 53.8434 30.6728C53.8036 30.5875 53.7524 30.5733 53.6899 30.6302C53.6558 30.6586 53.633 30.6927 53.6217 30.7325C53.5762 30.9486 53.5534 31.0566 53.5534 31.0566Z" stroke="black" stroke-width="1.70457"/>
<path d="M56.6816 33.6731C57.0055 33.6333 57.2954 33.423 57.5511 33.0422C57.7841 32.6842 57.7103 32.599 57.3295 32.7865C56.8351 33.0309 56.3094 33.1644 55.7525 33.1871C55.4399 33.2042 55.2239 33.3577 55.1046 33.6475C55.0023 33.9146 55.0165 34.159 55.1472 34.3806C55.3177 34.6704 55.5053 34.6818 55.7099 34.4147L55.9656 34.0907C56.1474 33.8521 56.3861 33.7128 56.6816 33.6731Z" stroke="black" stroke-width="1.70457"/>
<path d="M50.6045 34.9176C50.4852 34.929 50.3914 34.983 50.3232 35.0796C49.8856 35.699 49.9851 35.8013 50.6215 35.3864C51.3944 34.8863 52.0821 34.2441 52.6845 33.4599C53.0652 32.9655 52.997 32.8944 52.4799 33.2468C51.9457 33.6105 51.457 34.0907 51.0137 34.6874C50.9114 34.8238 50.775 34.9006 50.6045 34.9176Z" stroke="black" stroke-width="1.70457"/>
<path d="M67.1133 35.7101C67.2156 35.7783 67.3207 35.8493 67.4287 35.9232C67.6503 36.0766 67.7582 36.0198 67.7525 35.7527C67.7412 35.3436 67.6304 34.9573 67.4201 34.5936C67.2838 34.3493 67.0792 34.2726 66.8065 34.3635C66.7042 34.3919 66.6275 34.4516 66.5764 34.5425C66.4059 34.8152 66.4315 35.0681 66.6531 35.3011C66.7894 35.4545 66.9429 35.5908 67.1133 35.7101Z" stroke="black" stroke-width="1.70457"/>
<path d="M55.7949 38.8467C56.3123 39.2845 56.679 39.2362 56.895 38.7018C56.9383 38.5951 56.9384 38.476 56.8953 38.3705C56.8521 38.265 56.7692 38.1817 56.6648 38.1389C56.3123 37.9968 56.0223 38.0224 55.7949 38.2157C55.7497 38.2549 55.7135 38.3034 55.6887 38.3578C55.6639 38.4123 55.651 38.4714 55.651 38.5312C55.651 38.591 55.6639 38.6502 55.6887 38.7046C55.7135 38.759 55.7497 38.8075 55.7949 38.8467Z" stroke="black" stroke-width="1.70457"/>
<path d="M55.7351 40.1674C54.8317 40.2583 54.2721 40.6873 54.0562 41.4544C53.9198 41.9373 54.0249 41.997 54.3715 41.6334C54.9397 41.014 55.6243 40.5879 56.4255 40.3549C56.4369 40.3549 56.4426 40.3521 56.4426 40.3464C56.4426 40.2669 56.4426 40.193 56.4426 40.1248C56.4426 39.9998 56.38 39.9515 56.255 39.9799C56.1812 39.997 56.1101 40.0254 56.042 40.0651C55.9454 40.122 55.8431 40.1561 55.7351 40.1674Z" stroke="black" stroke-width="1.70457"/>
<path d="M71.7556 48.1371C71.7272 48.0915 71.68 48.0582 71.6166 48.0391C71.5533 48.02 71.475 48.0156 71.3863 48.026C71.2976 48.0364 71.2003 48.0615 71.0998 48.0998C70.9994 48.1381 70.8977 48.1889 70.8008 48.2493C70.6049 48.3712 70.4399 48.5247 70.3419 48.676C70.244 48.8274 70.2212 48.9643 70.2786 49.0564C70.307 49.1021 70.3542 49.1354 70.4176 49.1544C70.4809 49.1735 70.5592 49.178 70.6478 49.1676C70.7365 49.1571 70.8339 49.1321 70.9344 49.0937C71.0348 49.0554 71.1365 49.0046 71.2334 48.9443C71.4293 48.8224 71.5943 48.6689 71.6923 48.5175C71.7902 48.3661 71.813 48.2293 71.7556 48.1371Z" stroke="black" stroke-width="1.70457"/>
<path d="M63.5846 48.3579C61.8375 49.1079 60.2778 49.0824 58.5135 49.4829C57.5988 49.6932 57.6016 49.8863 58.5221 50.0625C60.8744 50.5142 61.9057 48.5625 64.3347 49.517C64.4824 49.5739 64.5761 49.5255 64.6159 49.3721C64.6841 49.1164 64.6216 48.8551 64.4284 48.588C64.3373 48.4601 64.204 48.3675 64.0506 48.3257C63.8972 48.2839 63.7328 48.2952 63.5846 48.3579Z" stroke="black" stroke-width="1.70457"/>
<path d="M11.1954 53.7025C10.4708 52.5005 10.1554 51.2133 8.79143 50.5314C8.65504 50.4575 8.62664 50.4887 8.70621 50.6251L10.8288 54.069C10.8515 54.1088 10.8828 54.1173 10.9226 54.0946L11.1187 53.9838C11.2437 53.9156 11.2692 53.8218 11.1954 53.7025Z" stroke="black" stroke-width="1.70457"/>
<path d="M60.5766 54.5032C60.8835 54.6112 61.1904 54.6965 61.4973 54.759C62.0258 54.8669 62.0855 54.7448 61.6763 54.3924C61.2103 53.9832 60.9176 53.5002 60.7983 52.9432C60.6846 52.4261 60.5027 52.3977 60.2527 52.858C60.1788 52.9887 60.1476 53.1337 60.1589 53.2928C60.2044 53.8838 59.9344 54.185 59.3491 54.1964C59.0138 54.2077 58.7183 54.3242 58.4625 54.5459C58.1954 54.7789 58.2267 54.9607 58.5563 55.0914C58.92 55.2335 59.2326 55.1426 59.494 54.8186C59.7839 54.4549 60.1447 54.3498 60.5766 54.5032Z" stroke="black" stroke-width="1.70457"/>
<path d="M45.2519 60.5538C44.5246 60.3322 43.8939 60.46 43.3598 60.9373C42.2859 60.318 41.2547 60.1873 40.266 60.5453C39.6353 60.2953 39.016 60.264 38.408 60.4515L2.06669 60.5026C1.7826 60.5026 1.64905 60.3606 1.66609 60.0765C2.23712 49.2099 2.73146 39.3746 1.68316 28.4994C0.882011 20.2067 1.07804 11.6839 1.15475 3.47641C1.15461 3.40694 1.18099 3.34004 1.22851 3.28935C1.27602 3.23867 1.34108 3.20802 1.41042 3.20368C10.1463 2.39401 18.405 1.46505 27.4818 2.01051C38.3484 2.64972 48.6354 2.12129 59.8429 2.35992C66.2521 2.49061 73.1414 2.2349 80.5108 1.59285C80.5523 1.5879 80.5945 1.59204 80.6343 1.60492C80.6741 1.61779 80.7106 1.6391 80.7414 1.66744C80.7722 1.69579 80.7965 1.73047 80.8126 1.76909C80.8287 1.80771 80.8362 1.84937 80.8347 1.89118C80.7068 9.8515 81.5762 17.488 82.2239 25.4398C82.4909 28.7637 82.5137 32.0336 82.2921 35.2495C81.6955 43.8519 80.9256 52.21 79.9824 60.3237C79.9369 60.7101 79.7182 60.9032 79.3261 60.9032L45.2519 60.5538ZM34.2659 12.3316L29.0841 11.4538L23.3993 10.5845C23.0584 10.5277 22.8283 10.664 22.709 10.9936C20.9618 15.8516 22.3084 19.2692 26.3823 22.5334C29.2119 24.8005 34.7432 23.3858 37.462 21.7153C40.087 20.113 41.2575 17.5448 40.9734 14.0106C40.9507 13.6868 40.7802 13.4964 40.462 13.4396L34.2659 12.3316ZM54.9594 11.6668L49.4792 12.664L43.3428 13.5504C42.7405 13.6356 42.4592 13.9822 42.499 14.5902C42.8058 19.0618 44.5843 21.9368 47.8343 23.2153C51.09 24.4937 55.3088 23.65 58.2832 21.9624C62.0503 19.8317 62.2208 14.7606 61.164 11.1384C61.1142 10.9704 61.0039 10.8268 60.8543 10.7354C60.7047 10.6441 60.5265 10.6115 60.3543 10.6441L54.9594 11.6668ZM57.6014 29.3176C57.6518 29.2818 57.6914 29.233 57.7162 29.1765C57.7409 29.1199 57.7499 29.0576 57.742 28.9963C57.7341 28.935 57.7098 28.8771 57.6715 28.8286C57.6332 28.7801 57.5825 28.7429 57.5248 28.721C57.127 28.5619 56.7378 28.6472 56.3571 28.9767C56.1355 29.1699 56.1582 29.329 56.4253 29.454C56.8344 29.6415 57.2264 29.5961 57.6014 29.3176ZM53.5531 31.0563C53.4622 31.204 53.4224 31.3546 53.4338 31.508C53.4678 31.9853 53.6042 32.008 53.8429 31.5762C53.9906 31.3092 53.9906 31.008 53.8429 30.6727C53.8031 30.5875 53.752 30.5733 53.6895 30.6301C53.6554 30.6585 53.6326 30.6926 53.6213 30.7324C53.5758 30.9483 53.5531 31.0563 53.5531 31.0563ZM56.681 33.6728C57.0048 33.633 57.2946 33.4228 57.5503 33.0421C57.7833 32.6842 57.7094 32.5989 57.3287 32.7864C56.8344 33.0308 56.3088 33.1643 55.752 33.187C55.4395 33.204 55.2236 33.3575 55.1042 33.6473C55.002 33.9143 55.0162 34.1586 55.1469 34.3802C55.3173 34.67 55.5048 34.6813 55.7094 34.4143L55.9651 34.0904C56.1469 33.8518 56.3855 33.7126 56.681 33.6728ZM50.6042 34.9171C50.4849 34.9285 50.3911 34.9825 50.323 35.0791C49.8854 35.6984 49.9849 35.8007 50.6212 35.3859C51.394 34.8859 52.0815 34.2438 52.6837 33.4597C53.0644 32.9654 52.9963 32.8944 52.4792 33.2467C51.9451 33.6103 51.4565 34.0904 51.0133 34.687C50.911 34.8234 50.7747 34.9001 50.6042 34.9171ZM67.1129 35.7098C67.2152 35.7779 67.3203 35.849 67.4283 35.9228C67.6499 36.0762 67.7578 36.0194 67.7521 35.7524C67.7408 35.3433 67.63 34.9569 67.4197 34.5933C67.2834 34.3489 67.0788 34.2722 66.8061 34.3631C66.7038 34.3915 66.6271 34.4512 66.576 34.5421C66.4055 34.8149 66.4311 35.0677 66.6527 35.3007C66.789 35.4541 66.9425 35.5904 67.1129 35.7098ZM55.7946 38.8462C56.3116 39.2837 56.6781 39.2354 56.894 38.7013C56.9373 38.5947 56.9374 38.4756 56.8943 38.3702C56.8511 38.2647 56.7683 38.1815 56.6639 38.1387C56.3117 37.9967 56.0219 38.0223 55.7946 38.2155C55.7494 38.2547 55.7132 38.3031 55.6884 38.3575C55.6636 38.4119 55.6508 38.471 55.6508 38.5308C55.6508 38.5906 55.6636 38.6497 55.6884 38.7041C55.7132 38.7585 55.7494 38.807 55.7946 38.8462ZM55.7349 40.1672C54.8315 40.2581 54.2719 40.6871 54.056 41.4541C53.9196 41.9371 54.0247 41.9968 54.3713 41.6331C54.9395 41.0138 55.6241 40.5877 56.4253 40.3547C56.4366 40.3547 56.4423 40.3519 56.4423 40.3462C56.4423 40.2666 56.4423 40.1928 56.4423 40.1246C56.4423 39.9996 56.3798 39.9513 56.2548 39.9797C56.1809 39.9967 56.1099 40.0251 56.0417 40.0649C55.9451 40.1217 55.8429 40.1558 55.7349 40.1672ZM71.7545 48.1369C71.7261 48.0913 71.6789 48.058 71.6156 48.0389C71.5522 48.0199 71.474 48.0154 71.3854 48.0258C71.2968 48.0362 71.1995 48.0613 71.0991 48.0996C70.9986 48.1379 70.8971 48.1887 70.8002 48.249C70.6044 48.3708 70.4395 48.5242 70.3416 48.6755C70.2437 48.8268 70.221 48.9635 70.2783 49.0557C70.3067 49.1013 70.3539 49.1345 70.4172 49.1536C70.4805 49.1727 70.5587 49.1771 70.6473 49.1667C70.7359 49.1563 70.8333 49.1312 70.9337 49.093C71.0341 49.0547 71.1357 49.0039 71.2326 48.9436C71.4283 48.8217 71.5933 48.6683 71.6911 48.517C71.789 48.3658 71.8118 48.229 71.7545 48.1369ZM63.5845 48.3576C61.8373 49.1076 60.2776 49.0821 58.5134 49.4826C57.5986 49.6929 57.6014 49.886 58.5219 50.0622C60.8742 50.5139 61.9055 48.5622 64.3345 49.5168C64.4822 49.5736 64.5759 49.5252 64.6157 49.3718C64.6839 49.1161 64.6214 48.8548 64.4282 48.5877C64.3371 48.4598 64.2038 48.3672 64.0504 48.3254C63.897 48.2836 63.7327 48.2949 63.5845 48.3576ZM11.1946 53.7014C10.4702 52.4997 10.1548 51.2128 8.79117 50.531C8.6548 50.4571 8.62641 50.4883 8.70596 50.6247L10.8281 54.0679C10.8509 54.1077 10.8821 54.1162 10.9219 54.0935L11.1179 53.9827C11.2429 53.9145 11.2685 53.8208 11.1946 53.7014ZM60.5759 54.5026C60.8827 54.6105 61.1895 54.6958 61.4964 54.7583C62.0248 54.8662 62.0845 54.7441 61.6754 54.3918C61.2094 53.9827 60.9168 53.4997 60.7975 52.9429C60.6839 52.4258 60.502 52.3975 60.252 52.8577C60.1782 52.9884 60.1469 53.1333 60.1583 53.2924C60.2037 53.8833 59.9338 54.1844 59.3486 54.1958C59.0134 54.2071 58.7179 54.3236 58.4622 54.5452C58.1952 54.7781 58.2264 54.96 58.556 55.0907C58.9196 55.2327 59.2322 55.1418 59.4935 54.8179C59.7833 54.4543 60.1441 54.3492 60.5759 54.5026Z" fill="#BE6901"/>
<path d="M29.0844 11.4538C28.0787 16.3886 34.4026 16.2863 34.2663 12.3317L40.4624 13.4397C40.7806 13.4965 40.951 13.6868 40.9737 14.0107C41.2578 17.5448 40.0874 20.1131 37.4623 21.7154C34.7435 23.3858 29.2122 24.8006 26.3826 22.5335C22.3087 19.2693 20.9621 15.8516 22.7093 10.9936C22.8286 10.6641 23.0587 10.5277 23.3997 10.5846L29.0844 11.4538Z" fill="white"/>
<path d="M49.4795 12.6642C49.7352 14.5222 50.8119 15.4057 52.7096 15.3148C54.4597 15.2296 55.2097 14.0136 54.9597 11.667L60.3546 10.6443C60.5268 10.6117 60.705 10.6443 60.8546 10.7356C61.0042 10.8269 61.1145 10.9705 61.1643 11.1386C62.2211 14.7608 62.0506 19.8319 58.2835 21.9626C55.3091 23.6501 51.0903 24.4939 47.8346 23.2154C44.5846 21.937 42.8061 19.062 42.4993 14.5903C42.4595 13.9824 42.7408 13.6358 43.3431 13.5506L49.4795 12.6642Z" fill="white"/>
<path d="M29.0844 11.4539L34.2662 12.3317C34.4026 16.2863 28.0787 16.3886 29.0844 11.4539Z" fill="black"/>
<path d="M54.9597 11.667C55.2097 14.0136 54.4596 15.2296 52.7096 15.3148C50.8119 15.4057 49.7352 14.5222 49.4795 12.6642L54.9597 11.667Z" fill="black"/>
<path d="M57.6024 29.3183C57.2272 29.5968 56.8349 29.6423 56.4256 29.4547C56.1584 29.3296 56.1357 29.1704 56.3574 28.9771C56.7383 28.6474 57.1277 28.5621 57.5257 28.7213C57.5835 28.7432 57.6342 28.7804 57.6725 28.8289C57.7108 28.8775 57.7352 28.9354 57.7431 28.9968C57.7509 29.0581 57.742 29.1204 57.7173 29.177C57.6925 29.2336 57.6528 29.2824 57.6024 29.3183Z" fill="black"/>
<path d="M53.6217 30.7325C53.633 30.6927 53.6558 30.6586 53.6899 30.6302C53.7524 30.5733 53.8036 30.5875 53.8434 30.6728C53.9912 31.0082 53.9912 31.3096 53.8434 31.5768C53.6046 32.0089 53.4681 31.9861 53.434 31.5086C53.4227 31.3551 53.4625 31.2044 53.5534 31.0566C53.5534 31.0566 53.5762 30.9486 53.6217 30.7325Z" fill="black"/>
<path d="M55.9656 34.0907L55.7099 34.4147C55.5053 34.6818 55.3177 34.6704 55.1472 34.3806C55.0165 34.159 55.0023 33.9146 55.1046 33.6475C55.2239 33.3577 55.4399 33.2042 55.7525 33.1871C56.3094 33.1644 56.8351 33.0309 57.3295 32.7865C57.7103 32.599 57.7841 32.6842 57.5511 33.0422C57.2954 33.423 57.0055 33.6333 56.6816 33.6731C56.3861 33.7128 56.1474 33.8521 55.9656 34.0907Z" fill="black"/>
<path d="M51.0137 34.6874C51.457 34.0907 51.9457 33.6105 52.4799 33.2468C52.997 32.8944 53.0652 32.9655 52.6845 33.4599C52.0821 34.2441 51.3944 34.8863 50.6215 35.3864C49.9851 35.8013 49.8856 35.699 50.3232 35.0796C50.3914 34.983 50.4852 34.929 50.6045 34.9176C50.775 34.9006 50.9114 34.8238 51.0137 34.6874Z" fill="black"/>
<path d="M67.1133 35.7101C66.9429 35.5908 66.7894 35.4545 66.6531 35.3011C66.4315 35.0681 66.4059 34.8152 66.5764 34.5425C66.6275 34.4516 66.7042 34.3919 66.8065 34.3635C67.0792 34.2726 67.2838 34.3493 67.4201 34.5936C67.6304 34.9573 67.7412 35.3436 67.7525 35.7527C67.7582 36.0198 67.6503 36.0766 67.4287 35.9232C67.3207 35.8493 67.2156 35.7783 67.1133 35.7101Z" fill="black"/>
<path d="M55.7949 38.8467C55.7497 38.8075 55.7135 38.759 55.6887 38.7046C55.6639 38.6502 55.651 38.591 55.651 38.5312C55.651 38.4714 55.6639 38.4123 55.6887 38.3578C55.7135 38.3034 55.7497 38.2549 55.7949 38.2157C56.0223 38.0224 56.3123 37.9968 56.6648 38.1389C56.7692 38.1817 56.8521 38.265 56.8953 38.3705C56.9384 38.476 56.9383 38.5951 56.895 38.7018C56.679 39.2362 56.3123 39.2845 55.7949 38.8467Z" fill="black"/>
<path d="M56.042 40.0651C56.1101 40.0254 56.1812 39.997 56.255 39.9799C56.38 39.9515 56.4426 39.9998 56.4426 40.1248C56.4426 40.193 56.4426 40.2669 56.4426 40.3464C56.4426 40.3521 56.4369 40.3549 56.4255 40.3549C55.6243 40.5879 54.9397 41.014 54.3715 41.6334C54.0249 41.997 53.9198 41.9373 54.0562 41.4544C54.2721 40.6873 54.8317 40.2583 55.7351 40.1674C55.8431 40.1561 55.9454 40.122 56.042 40.0651Z" fill="black"/>
<path d="M71.2328 48.9436C71.6404 48.6899 71.874 48.3287 71.7546 48.1369C71.6352 47.9451 71.208 47.9953 70.8004 48.249C70.3928 48.5027 70.1592 48.8639 70.2786 49.0557C70.398 49.2475 70.8252 49.1973 71.2328 48.9436Z" fill="black"/>
<path d="M58.5135 49.4829C60.2778 49.0824 61.8375 49.1079 63.5846 48.3579C63.7328 48.2952 63.8972 48.2839 64.0506 48.3257C64.204 48.3675 64.3373 48.4601 64.4284 48.588C64.6216 48.8551 64.6841 49.1164 64.6159 49.3721C64.5761 49.5255 64.4824 49.5739 64.3347 49.517C61.9057 48.5625 60.8744 50.5142 58.5221 50.0625C57.6016 49.8863 57.5988 49.6932 58.5135 49.4829Z" fill="black"/>
<path d="M8.79143 50.5314C10.1554 51.2133 10.4708 52.5005 11.1954 53.7025C11.2692 53.8218 11.2437 53.9156 11.1187 53.9838L10.9226 54.0946C10.8828 54.1173 10.8515 54.1088 10.8288 54.069L8.70621 50.6251C8.62664 50.4887 8.65504 50.4575 8.79143 50.5314Z" fill="black"/>
<path d="M59.494 54.8186C59.2326 55.1426 58.92 55.2335 58.5563 55.0914C58.2267 54.9607 58.1954 54.7789 58.4625 54.5459C58.7183 54.3242 59.0138 54.2077 59.3491 54.1964C59.9344 54.185 60.2044 53.8838 60.1589 53.2928C60.1476 53.1337 60.1788 52.9887 60.2527 52.858C60.5027 52.3977 60.6846 52.4261 60.7983 52.9432C60.9176 53.5002 61.2103 53.9832 61.6763 54.3924C62.0855 54.7448 62.0258 54.8669 61.4973 54.759C61.1904 54.6965 60.8835 54.6112 60.5766 54.5032C60.1447 54.3498 59.7839 54.4549 59.494 54.8186Z" fill="black"/>
<path d="M40.2664 60.5455L40.2748 102.563C40.2748 102.608 40.256 102.652 40.2225 102.684C40.1889 102.716 40.1434 102.733 40.0959 102.733L33.5077 102.699C32.9282 102.699 32.6754 102.412 32.7492 101.839L32.7918 101.464C32.843 101.043 33.0788 100.83 33.4992 100.824L37.6328 100.739C38.1271 100.728 38.3743 100.475 38.3743 99.9806L38.4083 60.4517C39.0163 60.2642 39.6357 60.2955 40.2664 60.5455Z" fill="black"/>
<path d="M45.2521 60.5539L45.2692 100.313C45.2692 100.433 45.3165 100.549 45.401 100.635C45.4854 100.721 45.6003 100.771 45.7209 100.773L50.1102 100.807C50.309 100.809 50.4999 100.885 50.6451 101.021C50.7904 101.156 50.8793 101.342 50.8942 101.54L50.9028 101.762C50.9482 102.387 50.6584 102.702 50.0334 102.708L43.8032 102.733C43.5021 102.733 43.3516 102.583 43.3516 102.282L43.3601 60.9374C43.8942 60.4601 44.5249 60.3323 45.2521 60.5539Z" fill="black"/>
</svg>
