<svg width="79" height="121" viewBox="0 0 79 121" fill="none" xmlns="http://www.w3.org/2000/svg">
<path d="M21.3785 92.9668L7.14535 106.339C7.10301 106.38 7.05304 106.412 6.99829 106.433C6.94355 106.454 6.88515 106.464 6.82647 106.462C6.7678 106.461 6.70999 106.448 6.65647 106.423C6.60295 106.399 6.55475 106.365 6.51467 106.322L3.32714 103.049C3.23058 102.95 3.09965 102.893 2.96155 102.888C2.82344 102.883 2.68879 102.932 2.58566 103.024L1.96351 103.561C1.89858 103.619 1.84599 103.69 1.80896 103.769C1.77192 103.848 1.75118 103.934 1.74799 104.021C1.74481 104.107 1.75926 104.194 1.79044 104.274C1.82161 104.355 1.86886 104.428 1.92938 104.49L6.36979 109.058C6.59139 109.279 6.81865 109.285 7.05161 109.075L23.5263 93.6742" stroke="black" stroke-width="1.70457"/>
<path d="M23.5261 93.674L33.2933 95.6683" stroke="#FF6845" stroke-width="1.70457"/>
<path d="M33.2936 95.6686L35.3306 100.441C35.4703 100.769 35.5409 101.122 35.538 101.479C35.5351 101.835 35.4587 102.187 35.3135 102.512L29.1515 116.234C29.1229 116.296 29.1076 116.363 29.1064 116.431C29.1052 116.499 29.1182 116.566 29.1446 116.63C29.171 116.693 29.2102 116.75 29.2598 116.798C29.3093 116.846 29.3682 116.883 29.4328 116.907L35.7397 119.319C36.3704 119.564 36.7823 119.359 36.9755 118.706L37.0522 118.459C37.1106 118.258 37.0913 118.044 36.998 117.857C36.9048 117.671 36.7445 117.526 36.5493 117.453L32.2624 115.842C32.1868 115.814 32.1177 115.771 32.0595 115.715C32.0013 115.659 31.9552 115.592 31.924 115.518C31.8929 115.444 31.8773 115.364 31.8783 115.283C31.8793 115.203 31.8969 115.123 31.93 115.049L37.6147 102.291C37.7324 102.026 37.7918 101.739 37.7889 101.449C37.7859 101.16 37.7207 100.874 37.5977 100.612L35.5351 96.3163" stroke="black" stroke-width="1.70457"/>
<path d="M35.535 96.3163C36.3703 96.3277 38.4016 96.5209 41.6289 96.8959C43.0437 97.0606 44.5721 96.947 46.2142 96.5549C53.9614 94.6799 57.4131 86.1144 58.3421 79.0661C59.0012 74.0433 57.5325 69.8018 53.9358 66.3415C51.2029 63.7165 47.9528 61.8443 44.1857 60.725" stroke="#FF6845" stroke-width="1.70457"/>
<path d="M44.1857 60.7252C44.0777 60.3897 44.2283 60.1509 44.6377 60.0088" stroke="#FF6845" stroke-width="1.70457"/>
<path d="M44.6375 60.009C49.1943 61.8556 53.4444 62.6142 57.3876 62.2846C66.0127 61.5687 68.4076 54.026 69.2087 46.4407C70.1292 37.7559 65.2712 32.4803 57.8734 29.1479C54.9927 27.8467 52.1375 26.5484 49.308 25.2529C49.2341 25.2188 49.2113 25.1648 49.2398 25.091L49.2483 25.0825C49.271 25.02 49.3164 25.0001 49.3846 25.0228C56.487 27.4262 63.507 29.9831 70.4446 32.6933C70.8821 32.8638 71.1662 32.7246 71.2969 32.2757L77.7572 9.81804C77.8026 9.64758 77.743 9.53112 77.5782 9.46862C72.1975 7.45724 67.0894 5.52825 62.2541 3.68164C55.0438 0.925926 47.7483 0.221337 40.3675 1.56794C32.5009 2.99978 24.8048 9.53681 21.9412 17.25C20.4838 21.179 21.1315 24.6478 23.2707 28.1336C26.4583 33.324 29.2708 37.8582 34.4271 41.0628C35.0237 41.4321 34.9754 41.5741 34.2822 41.4889C33.464 41.3866 32.6487 41.2758 31.8362 41.1565C21.4298 39.6394 16.2479 49.185 15.4212 58.2533C14.8672 64.313 18.8389 68.3273 24.123 70.3387C24.2423 70.3841 24.2821 70.4694 24.2423 70.5944C24.1968 70.7194 24.1116 70.7648 23.9866 70.7307C20.5377 69.7023 17.2394 68.5091 14.0916 67.1511C14.0304 67.1237 13.9641 67.1094 13.8971 67.1088C13.83 67.1083 13.7635 67.1216 13.7019 67.1481C13.6402 67.1745 13.5847 67.2134 13.5389 67.2623C13.493 67.3113 13.4577 67.3692 13.4353 67.4324L5.90972 87.623C5.73358 88.0889 5.88698 88.3929 6.36994 88.5349L21.3786 92.9668" stroke="#FF6845" stroke-width="1.70457"/>
<path d="M44.6374 60.0087C42.8931 59.4462 41.1374 58.949 39.3703 58.5172C39.2851 58.5002 39.2311 58.5314 39.2084 58.6109C39.1799 58.6905 39.2055 58.7473 39.2851 58.7814C40.8987 59.4632 42.5323 60.111 44.1857 60.7246" stroke="#FF6845" stroke-width="1.70457"/>
<path d="M35.5347 96.3163C34.9211 95.8902 34.1739 95.6743 33.2932 95.6686" stroke="black" stroke-width="1.70457"/>
<path d="M23.5266 93.6742L21.3788 92.9668" stroke="black" stroke-width="1.70457"/>
<path d="M42.1655 13.1845C44.603 7.85774 53.4071 10.0566 52.5122 16.2783C52.4441 16.7442 52.6173 17.088 53.0321 17.3096L53.2537 17.4204C53.316 17.452 53.3847 17.4687 53.4545 17.4693C53.5243 17.4699 53.5932 17.4543 53.656 17.4238C53.7187 17.3932 53.7736 17.3485 53.8162 17.2932C53.8587 17.2379 53.888 17.1735 53.9015 17.105C55.0094 11.1817 50.4241 8.1305 45.0462 9.00835C43.1599 9.31517 41.7053 10.6419 40.6826 12.9885C40.6556 13.049 40.6429 13.1149 40.6453 13.181C40.6477 13.2472 40.6652 13.3119 40.6964 13.3703C40.7277 13.4286 40.7718 13.4791 40.8256 13.5178C40.8793 13.5566 40.9412 13.5825 41.0064 13.5936L41.2792 13.6448C41.4571 13.6782 41.6411 13.651 41.8017 13.5676C41.9624 13.4841 42.0905 13.3493 42.1655 13.1845Z" stroke="black" stroke-width="1.70457"/>
<path d="M68.9786 21.6563C71.0667 13.5085 58.5723 10.0482 55.7683 17.5739C55.7185 17.7083 55.7235 17.8571 55.7823 17.989C55.8411 18.1209 55.9491 18.2257 56.0836 18.2813C56.5041 18.4517 56.8336 18.3324 57.0722 17.9233C58.6972 15.1562 61.095 14.3153 64.2655 15.4006C66.7201 16.2358 67.9814 18.75 67.5808 21.2983C67.5127 21.7302 67.6945 21.9631 68.1263 21.9972L68.4672 22.0228C68.5821 22.0323 68.6966 22.0006 68.7903 21.9335C68.884 21.8664 68.9507 21.7681 68.9786 21.6563Z" stroke="black" stroke-width="1.70457"/>
<path d="M44.6375 60.009C42.8931 59.4465 41.1374 58.9493 39.3703 58.5175C39.2851 58.5005 39.2311 58.5317 39.2084 58.6112C39.18 58.6908 39.2056 58.7476 39.2851 58.7817C40.8988 59.4635 42.5323 60.1113 44.1857 60.7249C47.9528 61.8443 51.2029 63.7164 53.9358 66.3414C57.5325 69.8017 59.0012 74.0432 58.3421 79.066C57.4131 86.1144 53.9614 94.6799 46.2142 96.5549C44.5721 96.9469 43.0437 97.0606 41.6289 96.8958C38.4016 96.5208 36.3703 96.3276 35.535 96.3163C34.9214 95.8901 34.1742 95.6742 33.2935 95.6685L23.5264 93.6742L21.3786 92.9668L6.36994 88.5349C5.88698 88.3929 5.73358 88.0889 5.90972 87.623L13.4353 67.4324C13.4577 67.3692 13.493 67.3113 13.5389 67.2623C13.5847 67.2134 13.6402 67.1745 13.7019 67.1481C13.7635 67.1216 13.83 67.1083 13.8971 67.1088C13.9641 67.1094 14.0304 67.1237 14.0916 67.1511C17.2394 68.5091 20.5377 69.7023 23.9866 70.7307C24.1116 70.7648 24.1968 70.7194 24.2423 70.5944C24.2821 70.4694 24.2423 70.3841 24.123 70.3387C18.8389 68.3273 14.8672 64.313 15.4212 58.2533C16.2479 49.185 21.4298 39.6394 31.8362 41.1565C32.6487 41.2758 33.464 41.3866 34.2822 41.4889C34.9754 41.5741 35.0237 41.4321 34.4271 41.0628C29.2708 37.8582 26.4583 33.324 23.2707 28.1336C21.1315 24.6478 20.4838 21.179 21.9412 17.25C24.8048 9.53681 32.5009 2.99978 40.3675 1.56794C47.7483 0.221337 55.0438 0.925926 62.2541 3.68164C67.0894 5.52825 72.1975 7.45724 77.5782 9.46862C77.743 9.53112 77.8026 9.64758 77.7572 9.81804L71.2969 32.2757C71.1662 32.7246 70.8821 32.8638 70.4446 32.6933C63.507 29.9831 56.487 27.4262 49.3846 25.0228C49.3164 25.0001 49.271 25.02 49.2483 25.0825L49.2398 25.091C49.2113 25.1648 49.2341 25.2188 49.308 25.2529C52.1375 26.5484 54.9927 27.8467 57.8734 29.1479C65.2712 32.4803 70.1292 37.7559 69.2087 46.4407C68.4076 54.026 66.0127 61.5687 57.3876 62.2846C53.4444 62.6142 49.1943 61.8556 44.6375 60.009ZM42.1658 13.1846C44.6033 7.8578 53.4074 10.0567 52.5125 16.2784C52.4444 16.7443 52.6176 17.088 53.0324 17.3096L53.254 17.4204C53.3163 17.452 53.385 17.4688 53.4548 17.4694C53.5246 17.47 53.5935 17.4544 53.6563 17.4238C53.7191 17.3933 53.7739 17.3486 53.8165 17.2933C53.859 17.238 53.8883 17.1736 53.9018 17.1051C55.0097 11.1817 50.4244 8.13056 45.0465 9.00841C43.1602 9.31523 41.7056 10.6419 40.6829 12.9886C40.6559 13.049 40.6432 13.1149 40.6456 13.1811C40.648 13.2472 40.6655 13.3119 40.6967 13.3703C40.728 13.4287 40.7721 13.4792 40.8259 13.5179C40.8796 13.5566 40.9415 13.5825 41.0067 13.5937L41.2795 13.6448C41.4574 13.6783 41.6414 13.6511 41.802 13.5676C41.9627 13.4842 42.0908 13.3493 42.1658 13.1846ZM68.9786 21.6563C71.0667 13.5084 58.5723 10.0482 55.7683 17.5738C55.7185 17.7082 55.7235 17.857 55.7823 17.989C55.8411 18.1209 55.9491 18.2256 56.0836 18.2813C56.5041 18.4517 56.8336 18.3324 57.0722 17.9233C58.6973 15.1562 61.095 14.3153 64.2655 15.4005C66.7201 16.2358 67.9814 18.75 67.5808 21.2983C67.5127 21.7301 67.6945 21.9631 68.1263 21.9972L68.4673 22.0227C68.5821 22.0322 68.6966 22.0006 68.7903 21.9335C68.884 21.8663 68.9507 21.7681 68.9786 21.6563Z" fill="#FF6845"/>
<path d="M52.5122 16.2783C53.4071 10.0566 44.603 7.85774 42.1655 13.1845C42.0905 13.3493 41.9624 13.4841 41.8017 13.5676C41.6411 13.651 41.4571 13.6782 41.2792 13.6448L41.0064 13.5936C40.9412 13.5825 40.8793 13.5566 40.8256 13.5178C40.7718 13.4791 40.7277 13.4286 40.6964 13.3703C40.6652 13.3119 40.6477 13.2472 40.6453 13.181C40.6429 13.1149 40.6556 13.049 40.6826 12.9885C41.7053 10.6419 43.1599 9.31517 45.0462 9.00835C50.4241 8.1305 55.0094 11.1817 53.9015 17.105C53.888 17.1735 53.8587 17.2379 53.8162 17.2932C53.7736 17.3485 53.7187 17.3932 53.656 17.4238C53.5932 17.4543 53.5243 17.4699 53.4545 17.4693C53.3847 17.4687 53.316 17.452 53.2537 17.4204L53.0321 17.3096C52.6173 17.088 52.4441 16.7442 52.5122 16.2783Z" fill="black"/>
<path d="M55.7683 17.5739C58.5723 10.0482 71.0667 13.5085 68.9786 21.6563C68.9507 21.7681 68.884 21.8664 68.7903 21.9335C68.6966 22.0006 68.5821 22.0323 68.4672 22.0228L68.1263 21.9972C67.6945 21.9631 67.5127 21.7302 67.5808 21.2983C67.9814 18.75 66.7201 16.2358 64.2655 15.4006C61.095 14.3153 58.6972 15.1562 57.0722 17.9233C56.8336 18.3324 56.5041 18.4517 56.0836 18.2813C55.9491 18.2257 55.8411 18.1209 55.7823 17.989C55.7235 17.8571 55.7185 17.7083 55.7683 17.5739Z" fill="black"/>
<path d="M44.6374 60.0087C44.2283 60.1508 44.0778 60.3894 44.1857 60.7246C42.5323 60.111 40.8987 59.4632 39.2851 58.7814C39.2055 58.7473 39.1799 58.6905 39.2084 58.6109C39.2311 58.5314 39.2851 58.5002 39.3703 58.5172C41.1374 58.949 42.8931 59.4462 44.6374 60.0087Z" fill="#FF6845"/>
<path d="M23.5263 93.6742L7.05161 109.075C6.81865 109.285 6.59139 109.279 6.36979 109.058L1.92938 104.49C1.86886 104.428 1.82161 104.355 1.79044 104.274C1.75926 104.194 1.74481 104.107 1.74799 104.021C1.75118 103.934 1.77192 103.848 1.80896 103.769C1.84599 103.69 1.89858 103.619 1.96351 103.561L2.58566 103.024C2.68879 102.932 2.82344 102.883 2.96155 102.888C3.09965 102.893 3.23058 102.95 3.32714 103.049L6.51467 106.322C6.55475 106.365 6.60295 106.399 6.65647 106.423C6.70999 106.448 6.7678 106.461 6.82647 106.462C6.88515 106.464 6.94355 106.454 6.99829 106.433C7.05304 106.412 7.10301 106.38 7.14535 106.339L21.3785 92.9668L23.5263 93.6742Z" fill="black"/>
<path d="M33.2936 95.6686C34.1743 95.6743 34.9214 95.8902 35.5351 96.3163L37.5977 100.612C37.7207 100.874 37.7859 101.16 37.7889 101.449C37.7918 101.739 37.7324 102.026 37.6147 102.291L31.9299 115.049C31.8969 115.123 31.8793 115.203 31.8783 115.283C31.8773 115.364 31.8929 115.444 31.924 115.518C31.9552 115.592 32.0013 115.659 32.0595 115.715C32.1177 115.771 32.1868 115.814 32.2624 115.842L36.5493 117.453C36.7445 117.526 36.9048 117.671 36.998 117.857C37.0913 118.044 37.1106 118.258 37.0522 118.459L36.9755 118.706C36.7823 119.359 36.3704 119.564 35.7397 119.319L29.4328 116.907C29.3682 116.883 29.3093 116.846 29.2598 116.798C29.2102 116.75 29.171 116.693 29.1446 116.63C29.1182 116.566 29.1052 116.499 29.1064 116.431C29.1076 116.363 29.1229 116.296 29.1515 116.234L35.3135 102.512C35.4587 102.187 35.5351 101.835 35.538 101.479C35.5409 101.122 35.4703 100.769 35.3306 100.441L33.2936 95.6686Z" fill="black"/>
</svg>
