<svg width="76" height="104" viewBox="0 0 76 104" fill="none" xmlns="http://www.w3.org/2000/svg">
<path d="M30.9825 70.2518L9.67539 87.2464C9.57335 87.3269 9.44369 87.364 9.31448 87.3497C9.18527 87.3353 9.06696 87.2706 8.98509 87.1696L5.73785 83.019C5.38557 82.5758 4.97927 82.519 4.51904 82.8485L4.17821 83.0872C4.09241 83.1486 4.01997 83.2268 3.96545 83.3171C3.91092 83.4074 3.87546 83.5079 3.8611 83.6124C3.84674 83.7169 3.85386 83.8233 3.88201 83.9249C3.91016 84.0266 3.95869 84.1215 4.02475 84.2037L8.63563 89.9225C8.67702 89.9741 8.72811 90.0169 8.78607 90.0486C8.84403 90.0804 8.90774 90.1003 8.97344 90.1075C9.03914 90.1146 9.10562 90.1087 9.16903 90.0901C9.23245 90.0716 9.29152 90.0407 9.34299 89.9992L33.7097 70.5416" stroke="#007C91" stroke-width="1.70457"/>
<path d="M33.7095 70.5414L38.1848 70.567" stroke="#007C91" stroke-width="1.70457"/>
<path d="M38.184 70.5669L41.346 70.8566C41.6375 70.8823 41.9087 71.0156 42.106 71.2303C42.3033 71.4449 42.4123 71.7253 42.4114 72.0158L42.5477 102.374C42.5476 102.45 42.5631 102.525 42.5933 102.595C42.6236 102.665 42.668 102.729 42.7238 102.781C42.7796 102.834 42.8455 102.875 42.9178 102.901C42.9901 102.928 43.0672 102.94 43.1443 102.937L50.5591 102.57C50.8659 102.553 51.0137 102.391 51.0023 102.084L50.9938 101.777C50.9824 101.437 50.8091 101.283 50.4739 101.317C48.5591 101.516 46.6529 101.473 44.7551 101.189C44.4426 101.144 44.2892 100.962 44.2949 100.644L44.4398 71.4958C44.4398 71.1663 44.6074 71.0186 44.9426 71.0527C47.4313 71.3254 49.937 71.5129 52.3319 71.9817C53.8433 72.2714 55.1643 71.6862 56.295 70.226" stroke="#007C91" stroke-width="1.70457"/>
<path d="M56.295 70.2259C61.2156 66.2145 66.1361 62.0355 71.0566 57.6889C71.0907 57.6605 71.639 57.2457 72.7015 56.4445C73.5026 55.8423 73.926 55.1974 73.9715 54.5098C74.1931 51.0269 74.23 43.3932 74.0823 31.609" stroke="#007C91" stroke-width="1.70457"/>
<path d="M74.0825 31.609L73.9886 25.66" stroke="#007C91" stroke-width="1.70457"/>
<path d="M73.9884 25.6602L73.8692 20.3505C73.8635 20.0436 73.7527 19.7851 73.5368 19.5749L55.4173 1.99226C55.0509 1.63683 54.5587 1.43814 54.0451 1.43831C44.2268 1.44399 34.1017 1.42694 23.6697 1.38717C22.3515 1.38149 21.1213 1.49225 19.9793 1.71952C19.6781 1.77634 19.4168 1.91274 19.1952 2.12865L1.9876 18.68C1.78536 18.877 1.62463 19.1127 1.51485 19.3732C1.40507 19.6338 1.34845 19.9139 1.34839 20.197V47.5383C1.34839 48.3167 1.58985 49.0156 2.07281 49.6349L16.4508 67.9164C16.8226 68.3861 17.3682 68.6895 17.9679 68.7601L30.9823 70.2516" stroke="#007C91" stroke-width="1.70457"/>
<path d="M73.9883 25.66C71.6985 27.1885 71.7298 29.1714 74.0821 31.609" stroke="#007C91" stroke-width="1.70457"/>
<path d="M56.2951 70.2261L53.7468 70.0983C53.599 70.0905 53.4545 70.0515 53.3224 69.9839C53.1903 69.9164 53.0736 69.8218 52.9798 69.7063C51.4201 67.8057 49.8348 68.2914 47.6956 67.6608C47.3944 67.5755 47.1161 67.621 46.8604 67.7971L44.8575 69.1522C44.528 69.3738 44.3007 69.2972 44.1757 68.9222L44.0819 68.658C43.8717 68.0273 44.0535 67.5386 44.6274 67.192L46.1104 66.2971C46.2575 66.2104 46.3741 66.0803 46.4443 65.9247C46.5145 65.769 46.5348 65.5954 46.5024 65.4278C46.1018 63.2715 42.8376 61.7289 41.6103 64.3795C40.7694 66.2147 39.5734 67.1409 38.0222 67.1579C37.6245 67.1636 37.5875 67.2801 37.9114 67.5073C38.0819 67.6267 38.2722 67.7062 38.4825 67.746C38.7495 67.8028 38.8773 67.9676 38.8659 68.2403C38.8205 68.9847 38.5932 69.7602 38.1841 70.5671" stroke="#007C91" stroke-width="1.70457"/>
<path d="M33.7102 70.5414C33.4602 70.1209 32.5509 70.0243 30.9824 70.2516" stroke="#007C91" stroke-width="1.70457"/>
<path d="M37.099 22.7085C37.0251 21.5951 36.7217 20.5078 36.2064 19.5089C35.691 18.5099 34.9738 17.6187 34.0955 16.8863C33.2172 16.1538 32.1951 15.5944 31.0876 15.24C29.9801 14.8856 28.8087 14.7431 27.6406 14.8207C25.2814 14.9774 23.0782 16.021 21.5156 17.7218C19.9531 19.4226 19.1591 21.6415 19.3085 23.8901C19.3824 25.0036 19.6858 26.0908 20.2011 27.0898C20.7165 28.0888 21.4338 28.9799 22.3121 29.7124C23.1904 30.4448 24.2125 31.0042 25.32 31.3586C26.4276 31.713 27.5988 31.8555 28.7669 31.7779C31.1261 31.6212 33.3293 30.5776 34.8919 28.8768C36.4544 27.176 37.2484 24.9572 37.099 22.7085Z" stroke="#007C91" stroke-width="1.70457"/>
<path d="M40.3144 29.3422C39.269 33.0183 40.2918 34.9218 43.3827 35.0525C45.3856 35.1292 46.8515 33.9445 46.9027 31.9331" stroke="#007C91" stroke-width="1.70457"/>
<path d="M46.903 31.9331C48.403 31.8478 49.9144 31.5098 51.4371 30.9188C56.9514 28.7796 57.4372 22.1659 54.0963 17.9045C52.9144 16.3931 51.4798 15.5352 49.7923 15.3306C46.9542 14.9897 42.1729 15.1346 40.5109 17.8278C38.0393 21.8165 37.9739 25.6546 40.3148 29.3421" stroke="#007C91" stroke-width="1.70457"/>
<path d="M46.9029 31.9331C44.3063 32.1263 42.1102 31.2626 40.3147 29.3422" stroke="#007C91" stroke-width="1.70457"/>
<path d="M59.9768 35.2912C59.937 33.8309 60.4399 32.7883 61.4854 32.1633C62.6615 31.4559 62.1161 29.9985 61.0848 29.4274C60.1757 28.9274 59.5251 29.1604 59.1331 30.1263C58.9171 30.6661 58.8433 31.2371 58.9115 31.8394C58.9348 32.0337 58.9068 32.2305 58.8305 32.41C58.7542 32.5895 58.6323 32.7455 58.4768 32.8622L58.0165 33.2201C57.8332 33.3596 57.6928 33.5478 57.6114 33.7632C57.53 33.9787 57.5109 34.2127 57.5563 34.4386C57.6016 34.6644 57.7096 34.8729 57.8678 35.0403C58.0261 35.2076 58.2282 35.327 58.4512 35.3849C59.1671 35.5724 59.6189 35.9957 59.8064 36.6548C59.8524 36.8153 59.9431 36.9596 60.0683 37.0712C60.1934 37.1828 60.3478 37.2571 60.5138 37.2855C61.0649 37.3764 61.5137 37.2031 61.8603 36.7656C62.1444 36.4076 62.0621 36.1832 61.6132 36.0923L60.4711 35.8707C60.3355 35.8439 60.2129 35.7721 60.1232 35.6669C60.0335 35.5618 59.9819 35.4293 59.9768 35.2912Z" stroke="#007C91" stroke-width="1.70457"/>
<path d="M56.2357 32.8966C56.6335 32.3852 56.8836 31.7885 56.9859 31.1065C57.0484 30.686 56.9262 30.6206 56.6193 30.9104C56.0055 31.4787 55.5709 32.0584 55.3151 32.6494C55.1333 33.0757 55.2696 33.3342 55.7243 33.4251C55.8436 33.4479 55.9516 33.4223 56.0482 33.3485C56.196 33.2234 56.2585 33.0728 56.2357 32.8966Z" stroke="#007C91" stroke-width="1.70457"/>
<path d="M51.5484 34.7883C51.5484 34.3836 51.3877 33.9954 51.1015 33.7093C50.8154 33.4231 50.4272 33.2623 50.0225 33.2623C49.6178 33.2623 49.2298 33.4231 48.9436 33.7093C48.6575 33.9954 48.4967 34.3836 48.4967 34.7883C48.4967 35.1929 48.6575 35.581 48.9436 35.8672C49.2298 36.1533 49.6178 36.3141 50.0225 36.3141C50.4272 36.3141 50.8154 36.1533 51.1015 35.8672C51.3877 35.581 51.5484 35.1929 51.5484 34.7883Z" stroke="#007C91" stroke-width="1.70457"/>
<path d="M70.4617 35.8067C70.5879 35.7278 70.6949 35.6207 70.7763 35.4915C70.8578 35.3623 70.9122 35.2135 70.9365 35.0536C70.9608 34.8938 70.9544 34.726 70.9178 34.5599C70.8811 34.3937 70.8149 34.2325 70.723 34.0853C70.631 33.9382 70.5151 33.808 70.3819 33.7022C70.2486 33.5965 70.1006 33.5172 69.9463 33.4689C69.792 33.4207 69.6343 33.4044 69.4825 33.421C69.3306 33.4375 69.1875 33.4867 69.0612 33.5656C68.935 33.6445 68.828 33.7516 68.7466 33.8808C68.6651 34.01 68.6107 34.1588 68.5864 34.3186C68.5622 34.4785 68.5686 34.6462 68.6053 34.8124C68.6419 34.9785 68.708 35.1398 68.8 35.2869C68.8919 35.4341 69.0079 35.5643 69.1412 35.67C69.2744 35.7758 69.4225 35.8551 69.5768 35.9033C69.7311 35.9516 69.8886 35.9679 70.0404 35.9513C70.1923 35.9347 70.3354 35.8856 70.4617 35.8067Z" stroke="#007C91" stroke-width="1.70457"/>
<path d="M65.0869 36.3223C65.3561 36.5673 65.7189 36.6873 66.0954 36.6559C66.4719 36.6246 66.8313 36.4445 67.0945 36.1552C67.2249 36.012 67.3276 35.8463 67.397 35.6675C67.4664 35.4887 67.5011 35.3004 67.499 35.1133C67.4969 34.9263 67.4581 34.7441 67.3849 34.5772C67.3116 34.4103 67.2053 34.262 67.072 34.1407C66.8027 33.8957 66.4399 33.7757 66.0634 33.807C65.6869 33.8384 65.3276 34.0185 65.0643 34.3078C64.934 34.451 64.8311 34.6168 64.7617 34.7955C64.6923 34.9743 64.6577 35.1626 64.6598 35.3496C64.6619 35.5367 64.7006 35.7189 64.7739 35.8858C64.8472 36.0526 64.9536 36.201 65.0869 36.3223Z" stroke="#007C91" stroke-width="1.70457"/>
<path d="M33.825 35.7851C33.7277 35.6719 33.5737 35.6156 33.397 35.6284C33.2202 35.6412 33.0352 35.7221 32.8826 35.8533C32.807 35.9183 32.7417 35.9937 32.6903 36.0752C32.639 36.1567 32.6026 36.2428 32.5832 36.3283C32.5639 36.4139 32.562 36.4974 32.5776 36.5741C32.5932 36.6507 32.6261 36.719 32.6743 36.775C32.7716 36.8882 32.9256 36.9446 33.1024 36.9318C33.2791 36.919 33.4641 36.8381 33.6167 36.7068C33.6923 36.6418 33.7576 36.5664 33.809 36.4849C33.8604 36.4034 33.8968 36.3174 33.9161 36.2318C33.9355 36.1462 33.9374 36.0627 33.9217 35.9861C33.9061 35.9094 33.8732 35.8411 33.825 35.7851Z" stroke="#007C91" stroke-width="1.70457"/>
<path d="M69.9563 37.9391C69.9733 37.9141 69.9852 37.886 69.9914 37.8564C69.9975 37.8268 69.9978 37.7963 69.9921 37.7666C69.9864 37.7369 69.975 37.7086 69.9584 37.6834C69.9418 37.6581 69.9203 37.6363 69.8953 37.6194L69.3173 37.2265C69.2923 37.2095 69.2641 37.1975 69.2346 37.1914C69.205 37.1853 69.1744 37.1851 69.1447 37.1907C69.1151 37.1964 69.0868 37.2078 69.0615 37.2244C69.0362 37.241 69.0145 37.2624 68.9975 37.2874L66.9754 40.2627C66.9584 40.2877 66.9466 40.3158 66.9405 40.3454C66.9343 40.375 66.9341 40.4056 66.9397 40.4352C66.9454 40.4649 66.9569 40.4932 66.9735 40.5185C66.99 40.5438 67.0114 40.5655 67.0364 40.5825L67.6146 40.9754C67.6396 40.9924 67.6677 41.0043 67.6973 41.0104C67.7269 41.0166 67.7574 41.0168 67.7871 41.0112C67.8168 41.0055 67.8451 40.994 67.8703 40.9774C67.8956 40.9609 67.9173 40.9394 67.9343 40.9144L69.9563 37.9391Z" stroke="#007C91" stroke-width="1.70457"/>
<path d="M26.3202 47.2825C26.4736 48.6717 26.6356 50.3422 28.485 50.3251C29.4055 50.3138 30.1299 50.0552 30.6583 49.5495C30.8678 49.3491 31.0278 49.1027 31.1255 48.8298C31.2232 48.5568 31.256 48.2649 31.2212 47.977C31.1865 47.6892 31.0852 47.4134 30.9253 47.1716C30.7655 46.9297 30.5515 46.7284 30.3003 46.5836C29.3116 46.0154 28.5759 45.1091 28.0929 43.8648C28.001 43.6292 27.8271 43.4347 27.6031 43.3172C27.3791 43.1997 27.1203 43.1672 26.8742 43.2256C26.4708 43.3222 26.0929 43.4813 25.7406 43.7029C25.6302 43.7751 25.5353 43.8686 25.4616 43.9781C25.3878 44.0875 25.3367 44.2105 25.3113 44.34C25.2859 44.4695 25.2867 44.6027 25.3136 44.7319C25.3405 44.861 25.393 44.9835 25.4679 45.0921C25.9878 45.8421 26.2179 46.3364 26.3202 47.2825Z" stroke="#007C91" stroke-width="1.70457"/>
<path d="M66.8039 43.5837C66.6846 43.6121 66.5794 43.6604 66.4884 43.7287C66.2781 43.8765 66.2297 44.0669 66.3434 44.3C66.4912 44.59 66.73 44.7691 67.0597 44.8373C67.3724 44.9055 67.6084 44.8032 67.7676 44.5303C67.9154 44.2801 67.9211 43.9845 67.7847 43.6434C67.7562 43.5751 67.705 43.524 67.6311 43.4899C67.5572 43.4614 67.4833 43.4501 67.4094 43.4558C67.3639 43.4558 67.1621 43.4984 66.8039 43.5837Z" stroke="#007C91" stroke-width="1.70457"/>
<path d="M61.1007 45.8411C61.205 45.9221 61.3264 45.9789 61.458 46.0083C61.5896 46.0378 61.7287 46.0393 61.8675 46.0127C62.0063 45.9861 62.1421 45.9321 62.2669 45.8536C62.3918 45.7751 62.5033 45.6736 62.5953 45.5551C62.7809 45.3158 62.8752 45.0213 62.8574 44.7365C62.8397 44.4517 62.7113 44.1999 62.5006 44.0364C62.3962 43.9554 62.2748 43.8986 62.1432 43.8692C62.0116 43.8398 61.8724 43.8383 61.7336 43.8648C61.5948 43.8914 61.4592 43.9454 61.3343 44.0239C61.2095 44.1025 61.0979 44.2039 61.006 44.3224C60.8203 44.5617 60.7259 44.8562 60.7437 45.141C60.7615 45.4258 60.8899 45.6777 61.1007 45.8411Z" stroke="#007C91" stroke-width="1.70457"/>
<path d="M44.8908 46.7847C44.7877 46.6706 44.6108 46.6317 44.3991 46.6764C44.1873 46.7212 43.9581 46.846 43.7618 47.0234C43.5654 47.2008 43.418 47.4163 43.3521 47.6224C43.2862 47.8285 43.3071 48.0084 43.4102 48.1226C43.5133 48.2367 43.6902 48.2756 43.902 48.2309C44.1137 48.1861 44.3429 48.0613 44.5393 47.8839C44.7356 47.7065 44.883 47.491 44.9489 47.2849C45.0148 47.0787 44.9939 46.8988 44.8908 46.7847Z" stroke="#007C91" stroke-width="1.70457"/>
<path d="M72.9323 49.8824C73.04 49.7228 73.1132 49.5424 73.1471 49.3529C73.1809 49.1633 73.1748 48.9688 73.129 48.7817C73.0833 48.5947 72.9989 48.4192 72.8814 48.2667C72.7638 48.1142 72.6157 47.988 72.4464 47.8961C71.3098 47.2824 70.3067 47.1801 69.4372 47.5893C69.0622 47.7598 68.8321 48.0439 68.7468 48.4417C68.0137 51.6896 71.3041 52.3033 72.9323 49.8824Z" stroke="#007C91" stroke-width="1.70457"/>
<path d="M28.3117 56.8884C28.6103 57.0779 28.9499 57.1963 29.3112 57.2369C29.6725 57.2774 30.0483 57.2394 30.4172 57.1248C30.7862 57.0102 31.141 56.8214 31.4614 56.5691C31.7818 56.3169 32.0614 56.0061 32.2845 55.6545C32.7351 54.9446 32.9277 54.1116 32.8198 53.339C32.712 52.5663 32.3125 51.9172 31.7094 51.5345C31.4108 51.345 31.0712 51.2266 30.7099 51.186C30.3486 51.1455 29.9728 51.1835 29.6039 51.2981C29.235 51.4127 28.8802 51.6015 28.5598 51.8538C28.2395 52.106 27.9597 52.4168 27.7366 52.7684C27.286 53.4784 27.0936 54.3113 27.2014 55.0839C27.3093 55.8566 27.7086 56.5056 28.3117 56.8884Z" stroke="#007C91" stroke-width="1.70457"/>
<path d="M42.0542 51.5614C42.0542 51.3828 41.9832 51.2114 41.8569 51.085C41.7305 50.9587 41.5591 50.8877 41.3804 50.8877C41.2017 50.8877 41.0304 50.9587 40.9041 51.085C40.7777 51.2114 40.7068 51.3828 40.7068 51.5614C40.7068 51.7401 40.7777 51.9115 40.9041 52.0378C41.0304 52.1641 41.2017 52.2351 41.3804 52.2351C41.5591 52.2351 41.7305 52.1641 41.8569 52.0378C41.9832 51.9115 42.0542 51.7401 42.0542 51.5614Z" stroke="#007C91" stroke-width="1.70457"/>
<path d="M51.7266 58.0214C51.3062 57.9362 50.9312 57.9902 50.6016 58.1834C50.508 58.2394 50.4323 58.3211 50.3836 58.4187C50.3349 58.5164 50.3152 58.6259 50.3269 58.7345C50.3385 58.843 50.3811 58.9459 50.4494 59.031C50.5178 59.1161 50.609 59.1798 50.7124 59.2146L53.542 60.1692C53.8147 60.2601 54.0733 60.2402 54.3176 60.1095C54.971 59.7573 55.5335 59.2857 56.0051 58.6948C56.1812 58.4675 56.4028 58.2998 56.6699 58.1919L60.2836 56.7686C60.704 56.5981 60.7467 56.3595 60.4114 56.0527C60.1614 55.8197 59.9994 55.5413 59.9256 55.2174C59.7722 54.5072 60.0733 54.0839 60.829 53.9475C62.42 53.6578 63.8205 53.8992 65.0307 54.672C65.7467 55.1208 66.4484 55.1152 67.136 54.6549C67.2152 54.601 67.2777 54.5256 67.3161 54.4377C67.3546 54.3498 67.3675 54.2531 67.3532 54.159C67.3388 54.0649 67.2979 53.9773 67.2352 53.9066C67.1725 53.8359 67.0908 53.785 66.9996 53.76C65.2779 53.2657 63.616 53.3509 61.9796 52.5583C60.5222 51.8594 56.508 50.5043 54.9057 51.5612C52.417 53.2146 53.0477 55.243 52.3062 57.672C52.221 57.9618 52.0277 58.0782 51.7266 58.0214Z" stroke="#007C91" stroke-width="1.70457"/>
<path d="M50.9945 52.2774C50.9945 52.2135 50.982 52.1503 50.9576 52.0913C50.9331 52.0324 50.8974 51.9788 50.8522 51.9337C50.8071 51.8885 50.7535 51.8527 50.6945 51.8283C50.6355 51.8038 50.5723 51.7913 50.5085 51.7913C50.4447 51.7913 50.3814 51.8038 50.3225 51.8283C50.2635 51.8527 50.2099 51.8885 50.1647 51.9337C50.1196 51.9788 50.0838 52.0324 50.0594 52.0913C50.035 52.1503 50.0223 52.2135 50.0223 52.2774C50.0223 52.4063 50.0736 52.5299 50.1647 52.6211C50.2559 52.7123 50.3796 52.7635 50.5085 52.7635C50.6374 52.7635 50.7611 52.7123 50.8522 52.6211C50.9434 52.5299 50.9945 52.4063 50.9945 52.2774Z" stroke="#007C91" stroke-width="1.70457"/>
<path d="M37.0327 56.5991C36.9731 56.3856 36.8719 56.1859 36.7352 56.0115C36.5984 55.8371 36.4286 55.6913 36.2355 55.5825C36.0424 55.4737 35.8297 55.4039 35.6097 55.3773C35.3896 55.3507 35.1665 55.3677 34.953 55.4273L34.5261 55.5466C34.0949 55.667 33.7293 55.9537 33.5095 56.3437C33.2898 56.7337 33.2339 57.195 33.3543 57.6261L33.6431 58.6607C33.7027 58.8741 33.8038 59.0738 33.9405 59.2483C34.0773 59.4227 34.2471 59.5684 34.4402 59.6773C34.6334 59.7861 34.846 59.8558 35.066 59.8824C35.2861 59.909 35.5093 59.8921 35.7228 59.8325L36.1496 59.7132C36.5808 59.5928 36.9465 59.3061 37.1663 58.9161C37.386 58.5261 37.4418 58.0648 37.3214 57.6336L37.0327 56.5991Z" stroke="#007C91" stroke-width="1.70457"/>
<path d="M52.5126 64.1915C52.5944 63.8531 52.521 63.4918 52.3085 63.1871C52.0961 62.8824 51.7619 62.6593 51.3796 62.5668C50.9972 62.4743 50.5981 62.52 50.2698 62.6939C49.9416 62.8678 49.7111 63.1556 49.6292 63.494C49.5474 63.8324 49.6208 64.1937 49.8333 64.4984C50.0458 64.8031 50.3799 65.0262 50.7622 65.1187C51.1446 65.2112 51.5439 65.1655 51.8721 64.9916C52.2004 64.8177 52.4307 64.5299 52.5126 64.1915Z" stroke="#007C91" stroke-width="1.70457"/>
<path d="M48.4805 64.0561C48.5485 64.0528 48.6146 64.0318 48.6721 63.9953C48.7296 63.9587 48.7765 63.9078 48.8084 63.8476C48.8402 63.7873 48.8559 63.7198 48.8537 63.6517C48.8515 63.5836 48.8316 63.5172 48.796 63.4591C48.4492 62.8792 47.983 62.8736 47.3974 63.4421C47.3417 63.4986 47.304 63.5707 47.2893 63.6489C47.2745 63.7271 47.2835 63.8076 47.315 63.8798C47.3464 63.952 47.3989 64.0124 47.4654 64.0531C47.5319 64.0937 47.6093 64.1126 47.6873 64.1072L48.4805 64.0561Z" stroke="#007C91" stroke-width="1.70457"/>
<path d="M27.7699 18.1133C27.7011 17.5091 27.371 16.9598 26.8523 16.5862C26.3335 16.2126 25.6686 16.0452 25.0038 16.121C24.6747 16.1585 24.3554 16.2545 24.0644 16.4037C23.7733 16.5528 23.5161 16.752 23.3075 16.9901C23.0988 17.2281 22.9427 17.5003 22.8483 17.791C22.7538 18.0817 22.7227 18.3854 22.7568 18.6845C22.8257 19.2886 23.1558 19.8379 23.6745 20.2115C24.1933 20.5852 24.8581 20.7525 25.5229 20.6768C25.8521 20.6393 26.1713 20.5432 26.4624 20.3941C26.7534 20.245 27.0107 20.0457 27.2193 19.8076C27.428 19.5696 27.584 19.2975 27.6785 19.0068C27.7729 18.716 27.804 18.4124 27.7699 18.1133Z" stroke="#007C91" stroke-width="1.70457"/>
<path d="M46.9031 18.4874C46.887 17.875 46.6104 17.2944 46.1341 16.8735C45.6577 16.4526 45.0205 16.2258 44.3629 16.243C44.0372 16.2515 43.7164 16.3197 43.4185 16.4437C43.1207 16.5676 42.8517 16.7448 42.6271 16.9653C42.4024 17.1858 42.2264 17.4452 42.1091 17.7286C41.9919 18.0121 41.9355 18.3141 41.9435 18.6173C41.9595 19.2298 42.2362 19.8103 42.7126 20.2313C43.189 20.6522 43.8261 20.879 44.4838 20.8617C44.8094 20.8532 45.1303 20.7851 45.4281 20.6611C45.7259 20.5372 45.9949 20.3599 46.2196 20.1394C46.4442 19.9189 46.6202 19.6596 46.7375 19.3761C46.8548 19.0927 46.911 18.7907 46.9031 18.4874Z" stroke="#007C91" stroke-width="1.70457"/>
<path d="M73.9884 25.6602C71.6986 27.1886 71.73 29.1716 74.0823 31.6091C74.23 43.3933 74.1931 51.0269 73.9715 54.5099C73.926 55.1974 73.5026 55.8424 72.7015 56.4446C71.639 57.2458 71.0907 57.6606 71.0566 57.689C66.1361 62.0356 61.2156 66.2146 56.295 70.226L53.7467 70.0982C53.599 70.0903 53.4545 70.0514 53.3223 69.9838C53.1902 69.9163 53.0735 69.8217 52.9798 69.7061C51.4201 67.8056 49.8348 68.2913 47.6955 67.6607C47.3944 67.5754 47.116 67.6209 46.8603 67.797L44.8575 69.1521C44.5279 69.3737 44.3006 69.2971 44.1756 68.9221L44.0819 68.6579C43.8716 68.0272 44.0535 67.5385 44.6273 67.1919L46.1103 66.297C46.2574 66.2103 46.3741 66.0802 46.4443 65.9246C46.5145 65.7689 46.5348 65.5953 46.5023 65.4277C46.1017 63.2714 42.8375 61.7288 41.6102 64.3794C40.7693 66.2146 39.5733 67.1408 38.0221 67.1578C37.6244 67.1635 37.5875 67.28 37.9113 67.5072C38.0818 67.6266 38.2722 67.7061 38.4824 67.7459C38.7495 67.8027 38.8773 67.9675 38.8659 68.2402C38.8204 68.9846 38.5931 69.7601 38.184 70.567L33.7095 70.5414C33.4595 70.1209 32.5505 70.0243 30.9823 70.2516L17.9679 68.7601C17.3682 68.6895 16.8226 68.3861 16.4508 67.9164L2.07281 49.6349C1.58985 49.0156 1.34839 48.3167 1.34839 47.5383V20.197C1.34845 19.9139 1.40507 19.6338 1.51485 19.3732C1.62463 19.1127 1.78536 18.877 1.9876 18.68L19.1952 2.12865C19.4168 1.91274 19.6781 1.77634 19.9793 1.71952C21.1213 1.49225 22.3515 1.38149 23.6697 1.38717C34.1017 1.42694 44.2268 1.44399 54.0451 1.43831C54.5587 1.43814 55.0509 1.63683 55.4173 1.99226L73.5368 19.5749C73.7527 19.7851 73.8635 20.0436 73.8692 20.3505L73.9884 25.6602ZM37.0991 22.7085C37.0252 21.5951 36.7218 20.5079 36.2065 19.5089C35.6911 18.5099 34.9738 17.6187 34.0955 16.8863C33.2172 16.1538 32.1952 15.5945 31.0877 15.24C29.9801 14.8856 28.8088 14.7432 27.6407 14.8208C25.2815 14.9775 23.0783 16.021 21.5157 17.7218C19.9532 19.4227 19.1592 21.6415 19.3085 23.8902C19.3825 25.0036 19.6858 26.0908 20.2012 27.0898C20.7165 28.0888 21.4338 28.98 22.3121 29.7124C23.1904 30.4449 24.2126 31.0043 25.3201 31.3587C26.4276 31.7131 27.5988 31.8555 28.767 31.7779C31.1262 31.6212 33.3294 30.5777 34.8919 28.8768C36.4545 27.176 37.2485 24.9572 37.0991 22.7085ZM40.3147 29.342C39.2693 33.0182 40.2921 34.9217 43.383 35.0523C45.3859 35.1291 46.8518 33.9444 46.903 31.933C48.403 31.8477 49.9143 31.5097 51.4371 30.9187C56.9513 28.7795 57.4371 22.1658 54.0962 17.9044C52.9144 16.393 51.4797 15.5351 49.7922 15.3305C46.9541 14.9896 42.1728 15.1345 40.5108 17.8277C38.0392 21.8164 37.9738 25.6545 40.3147 29.342ZM59.977 35.291C59.9372 33.8307 60.4401 32.7881 61.4855 32.1631C62.6617 31.4557 62.1162 29.9983 61.085 29.4272C60.1759 28.9272 59.5253 29.1602 59.1332 30.1261C58.9173 30.6659 58.8434 31.2369 58.9116 31.8392C58.9349 32.0335 58.907 32.2303 58.8307 32.4098C58.7544 32.5893 58.6324 32.7453 58.4769 32.862L58.0167 33.2199C57.8333 33.3594 57.6929 33.5476 57.6115 33.7631C57.5301 33.9785 57.5111 34.2125 57.5564 34.4384C57.6017 34.6642 57.7097 34.8727 57.868 35.0401C58.0263 35.2074 58.2284 35.3268 58.4513 35.3847C59.1673 35.5722 59.619 35.9955 59.8065 36.6546C59.8525 36.8151 59.9433 36.9594 60.0684 37.071C60.1936 37.1826 60.3479 37.2569 60.5139 37.2853C61.065 37.3762 61.5139 37.2029 61.8605 36.7654C62.1446 36.4074 62.0623 36.183 61.6134 36.0921L60.4712 35.8705C60.3356 35.8437 60.2131 35.7719 60.1233 35.6667C60.0336 35.5616 59.982 35.4291 59.977 35.291ZM56.2354 32.896C56.6332 32.3847 56.8832 31.7881 56.9854 31.1063C57.0479 30.6858 56.9257 30.6204 56.6189 30.9102C56.0053 31.4784 55.5707 32.058 55.315 32.6489C55.1332 33.075 55.2695 33.3335 55.7241 33.4245C55.8434 33.4472 55.9514 33.4216 56.048 33.3478C56.1957 33.2228 56.2582 33.0722 56.2354 32.896ZM51.5479 34.7881C51.5479 34.3835 51.3871 33.9955 51.101 33.7094C50.8149 33.4233 50.4269 33.2625 50.0223 33.2625C49.6176 33.2625 49.2297 33.4233 48.9436 33.7094C48.6575 33.9955 48.4967 34.3835 48.4967 34.7881C48.4967 35.1928 48.6575 35.5808 48.9436 35.8669C49.2297 36.153 49.6176 36.3137 50.0223 36.3137C50.4269 36.3137 50.8149 36.153 51.101 35.8669C51.3871 35.5808 51.5479 35.1928 51.5479 34.7881ZM70.4612 35.8062C70.5875 35.7273 70.6944 35.6202 70.7758 35.491C70.8573 35.3618 70.9117 35.2131 70.936 35.0533C70.9602 34.8935 70.9539 34.7257 70.9172 34.5596C70.8806 34.3935 70.8144 34.2323 70.7225 34.0852C70.6305 33.938 70.5147 33.8079 70.3814 33.7021C70.2482 33.5964 70.1002 33.5171 69.9459 33.4689C69.7917 33.4206 69.634 33.4043 69.4822 33.4209C69.3304 33.4375 69.1873 33.4866 69.0611 33.5655C68.9348 33.6444 68.8279 33.7515 68.7465 33.8807C68.665 34.0098 68.6106 34.1586 68.5863 34.3184C68.5621 34.4782 68.5686 34.646 68.6052 34.8121C68.6418 34.9782 68.7079 35.1394 68.7998 35.2865C68.8918 35.4337 69.0077 35.5638 69.141 35.6696C69.2742 35.7753 69.4222 35.8546 69.5765 35.9028C69.7308 35.9511 69.8883 35.9674 70.0401 35.9508C70.1919 35.9342 70.335 35.885 70.4612 35.8062ZM65.087 36.3219C65.3562 36.5668 65.7188 36.6868 66.0953 36.6555C66.4717 36.6241 66.831 36.4441 67.0942 36.1548C67.2246 36.0116 67.3273 35.8459 67.3967 35.6672C67.4661 35.4885 67.5007 35.3002 67.4986 35.1132C67.4965 34.9261 67.4578 34.744 67.3845 34.5772C67.3112 34.4103 67.2049 34.262 67.0717 34.1407C66.8025 33.8958 66.4397 33.7758 66.0633 33.8071C65.6869 33.8384 65.3276 34.0186 65.0644 34.3078C64.9341 34.451 64.8313 34.6167 64.7619 34.7954C64.6925 34.9742 64.6578 35.1624 64.6599 35.3494C64.662 35.5365 64.7008 35.7186 64.7741 35.8854C64.8473 36.0523 64.9537 36.2006 65.087 36.3219ZM33.8244 35.7849C33.7271 35.6718 33.5732 35.6155 33.3966 35.6283C33.22 35.6411 33.0351 35.722 32.8825 35.8531C32.807 35.9181 32.7417 35.9934 32.6904 36.0749C32.639 36.1563 32.6027 36.2423 32.5833 36.3279C32.564 36.4134 32.5621 36.4968 32.5777 36.5734C32.5933 36.65 32.6262 36.7183 32.6744 36.7743C32.7716 36.8874 32.9255 36.9437 33.1022 36.9309C33.2788 36.9181 33.4637 36.8373 33.6162 36.7061C33.6917 36.6411 33.757 36.5658 33.8084 36.4843C33.8597 36.4029 33.8961 36.3169 33.9154 36.2314C33.9348 36.1458 33.9367 36.0624 33.9211 35.9858C33.9054 35.9092 33.8726 35.8409 33.8244 35.7849ZM69.9558 37.9391C69.9728 37.9141 69.9847 37.886 69.9909 37.8564C69.997 37.8268 69.9973 37.7963 69.9916 37.7666C69.9859 37.7369 69.9745 37.7086 69.9579 37.6834C69.9413 37.6581 69.9198 37.6364 69.8948 37.6194L69.3169 37.2266C69.2919 37.2096 69.2638 37.1977 69.2342 37.1915C69.2046 37.1854 69.1741 37.1852 69.1444 37.1909C69.1147 37.1965 69.0864 37.2079 69.0612 37.2245C69.0359 37.2411 69.0142 37.2625 68.9972 37.2875L66.9755 40.2622C66.9585 40.2872 66.9467 40.3153 66.9406 40.3449C66.9344 40.3745 66.9342 40.405 66.9398 40.4347C66.9455 40.4644 66.957 40.4927 66.9735 40.518C66.9901 40.5432 67.0115 40.5649 67.0365 40.5819L67.6145 40.9747C67.6395 40.9917 67.6676 41.0037 67.6972 41.0098C67.7268 41.0159 67.7573 41.0162 67.787 41.0105C67.8167 41.0049 67.845 40.9934 67.8703 40.9768C67.8955 40.9602 67.9173 40.9388 67.9342 40.9138L69.9558 37.9391ZM26.3203 47.2826C26.4737 48.6718 26.6357 50.3423 28.4852 50.3252C29.4056 50.3139 30.13 50.0553 30.6584 49.5496C30.8679 49.3493 31.0279 49.1029 31.1256 48.8299C31.2234 48.5569 31.2561 48.265 31.2214 47.9771C31.1866 47.6893 31.0853 47.4135 30.9255 47.1717C30.7656 46.9298 30.5516 46.7285 30.3004 46.5837C29.3118 46.0155 28.576 45.1093 28.093 43.8649C28.0012 43.6293 27.8272 43.4348 27.6032 43.3173C27.3792 43.1998 27.1204 43.1673 26.8743 43.2257C26.4709 43.3223 26.093 43.4814 25.7407 43.703C25.6303 43.7752 25.5354 43.8688 25.4617 43.9782C25.388 44.0876 25.3369 44.2107 25.3115 44.3401C25.286 44.4696 25.2869 44.6028 25.3137 44.732C25.3406 44.8611 25.3931 44.9836 25.468 45.0922C25.9879 45.8422 26.218 46.3366 26.3203 47.2826ZM66.8038 43.5837C66.6844 43.6121 66.5793 43.6604 66.4884 43.7286C66.2782 43.8763 66.2299 44.0666 66.3435 44.2996C66.4912 44.5894 66.7298 44.7684 67.0594 44.8365C67.3719 44.9047 67.6077 44.8025 67.7668 44.5297C67.9146 44.2797 67.9203 43.9842 67.7839 43.6433C67.7555 43.5751 67.7043 43.524 67.6304 43.4899C67.5566 43.4615 67.4827 43.4502 67.4088 43.4558C67.3634 43.4558 67.1617 43.4984 66.8038 43.5837ZM61.1009 45.8412C61.2052 45.9221 61.3267 45.9789 61.4583 46.0084C61.5899 46.0378 61.729 46.0393 61.8678 46.0127C62.0065 45.9862 62.1423 45.9321 62.2672 45.8536C62.392 45.7751 62.5036 45.6737 62.5955 45.5552C62.7811 45.3159 62.8754 45.0214 62.8577 44.7366C62.8399 44.4517 62.7116 44.1999 62.5008 44.0364C62.3965 43.9555 62.275 43.8987 62.1435 43.8692C62.0119 43.8398 61.8727 43.8383 61.7339 43.8649C61.5951 43.8914 61.4594 43.9455 61.3346 44.024C61.2097 44.1025 61.0981 44.2039 61.0062 44.3224C60.8206 44.5618 60.7262 44.8562 60.7439 45.1411C60.7617 45.4259 60.8901 45.6777 61.1009 45.8412ZM44.8899 46.7845C44.7869 46.6705 44.6101 46.6316 44.3985 46.6763C44.1868 46.721 43.9578 46.8458 43.7615 47.0231C43.5653 47.2004 43.418 47.4157 43.3521 47.6217C43.2863 47.8277 43.3072 48.0075 43.4102 48.1216C43.5132 48.2356 43.6901 48.2745 43.9017 48.2298C44.1133 48.1851 44.3424 48.0603 44.5386 47.883C44.7348 47.7057 44.8821 47.4904 44.948 47.2844C45.0139 47.0783 44.993 46.8985 44.8899 46.7845ZM72.9316 49.882C73.0393 49.7225 73.1125 49.5422 73.1464 49.3526C73.1802 49.1631 73.1741 48.9686 73.1284 48.7816C73.0826 48.5946 72.9983 48.4192 72.8807 48.2667C72.7632 48.1143 72.6151 47.988 72.4459 47.8962C71.3095 47.2826 70.3066 47.1803 69.4373 47.5894C69.0623 47.7599 68.8322 48.0439 68.747 48.4417C68.014 51.6889 71.3038 52.3025 72.9316 49.882ZM28.3118 56.8886C28.6104 57.0781 28.9501 57.1965 29.3113 57.2371C29.6726 57.2776 30.0484 57.2396 30.4174 57.125C30.7863 57.0104 31.1411 56.8216 31.4615 56.5693C31.7819 56.3171 32.0615 56.0063 32.2846 55.6547C32.7352 54.9448 32.9278 54.1118 32.8199 53.3392C32.7121 52.5665 32.3126 51.9174 31.7095 51.5347C31.4109 51.3452 31.0713 51.2268 30.71 51.1862C30.3487 51.1457 29.9729 51.1837 29.604 51.2983C29.2351 51.4129 28.8803 51.6017 28.56 51.854C28.2396 52.1062 27.9598 52.417 27.7367 52.7686C27.2861 53.4786 27.0937 54.3115 27.2015 55.0841C27.3094 55.8568 27.7087 56.5058 28.3118 56.8886ZM42.0534 51.5611C42.0534 51.3825 41.9825 51.2112 41.8563 51.0849C41.73 50.9587 41.5587 50.8877 41.3801 50.8877C41.2015 50.8877 41.0303 50.9587 40.904 51.0849C40.7777 51.2112 40.7069 51.3825 40.7069 51.5611C40.7069 51.7396 40.7777 51.9109 40.904 52.0371C41.0303 52.1634 41.2015 52.2343 41.3801 52.2343C41.5587 52.2343 41.73 52.1634 41.8563 52.0371C41.9825 51.9109 42.0534 51.7396 42.0534 51.5611ZM51.7268 58.0213C51.3064 57.9361 50.9314 57.9901 50.6018 58.1833C50.5082 58.2393 50.4325 58.321 50.3838 58.4187C50.3351 58.5163 50.3154 58.6259 50.3271 58.7344C50.3387 58.8429 50.3813 58.9458 50.4496 59.0309C50.518 59.116 50.6092 59.1797 50.7127 59.2145L53.5422 60.1691C53.8149 60.26 54.0735 60.2401 54.3178 60.1094C54.9712 59.7572 55.5337 59.2856 56.0053 58.6947C56.1814 58.4674 56.403 58.2998 56.6701 58.1918L60.2838 56.7685C60.7042 56.598 60.7469 56.3594 60.4116 56.0526C60.1616 55.8196 59.9996 55.5412 59.9258 55.2173C59.7724 54.5071 60.0736 54.0838 60.8292 53.9474C62.4202 53.6577 63.8207 53.8991 65.0309 54.6719C65.7469 55.1207 66.4486 55.1151 67.1362 54.6549C67.2154 54.6009 67.2779 54.5255 67.3164 54.4376C67.3549 54.3497 67.3677 54.253 67.3534 54.1589C67.3391 54.0648 67.2981 53.9772 67.2354 53.9065C67.1728 53.8358 67.091 53.7849 66.9998 53.7599C65.2782 53.2656 63.6162 53.3508 61.9798 52.5582C60.5224 51.8593 56.5082 50.5042 54.9059 51.5611C52.4173 53.2145 53.0479 55.2429 52.3064 57.6719C52.2212 57.9617 52.028 58.0781 51.7268 58.0213ZM50.9939 52.277C50.9939 52.2132 50.9813 52.15 50.9569 52.091C50.9325 52.0321 50.8968 51.9786 50.8516 51.9335C50.8065 51.8884 50.753 51.8525 50.694 51.8281C50.6351 51.8037 50.5719 51.7911 50.5081 51.7911C50.4443 51.7911 50.3811 51.8037 50.3222 51.8281C50.2633 51.8525 50.2097 51.8884 50.1646 51.9335C50.1195 51.9786 50.0837 52.0321 50.0593 52.091C50.0349 52.15 50.0223 52.2132 50.0223 52.277C50.0223 52.4058 50.0735 52.5294 50.1646 52.6205C50.2557 52.7116 50.3793 52.7628 50.5081 52.7628C50.637 52.7628 50.7605 52.7116 50.8516 52.6205C50.9428 52.5294 50.9939 52.4058 50.9939 52.277ZM37.0319 56.5987C36.9723 56.3853 36.8712 56.1857 36.7345 56.0113C36.5977 55.8369 36.4279 55.6911 36.2349 55.5823C36.0418 55.4735 35.8292 55.4038 35.6092 55.3772C35.3892 55.3506 35.1661 55.3676 34.9527 55.4272L34.5258 55.5464C34.0948 55.6668 33.7292 55.9534 33.5095 56.3433C33.2898 56.7333 33.2339 57.1945 33.3543 57.6256L33.6431 58.6599C33.7027 58.8733 33.8037 59.073 33.9404 59.2474C34.0772 59.4218 34.2469 59.5675 34.44 59.6763C34.6331 59.7851 34.8457 59.8548 35.0657 59.8814C35.2857 59.908 35.5088 59.891 35.7223 59.8314L36.149 59.7122C36.5801 59.5919 36.9458 59.3052 37.1655 58.9153C37.3852 58.5254 37.441 58.0641 37.3206 57.6331L37.0319 56.5987ZM52.512 64.1911C52.5938 63.8528 52.5204 63.4916 52.308 63.1869C52.0955 62.8823 51.7615 62.6593 51.3792 62.5668C50.9969 62.4743 50.5978 62.52 50.2697 62.6939C49.9415 62.8677 49.711 63.1554 49.6292 63.4938C49.5474 63.8321 49.6208 64.1933 49.8332 64.4979C50.0456 64.8026 50.3797 65.0257 50.762 65.1182C51.1442 65.2106 51.5435 65.1649 51.8716 64.9911C52.1998 64.8172 52.4301 64.5295 52.512 64.1911ZM48.4797 64.0555C48.5477 64.0522 48.6137 64.0313 48.6712 63.9948C48.7287 63.9582 48.7756 63.9073 48.8074 63.8471C48.8392 63.7869 48.8548 63.7194 48.8526 63.6514C48.8505 63.5833 48.8306 63.517 48.795 63.4589C48.4484 62.8793 47.9825 62.8737 47.3973 63.4419C47.3416 63.4983 47.3039 63.5704 47.2892 63.6486C47.2744 63.7267 47.2834 63.8072 47.3149 63.8794C47.3463 63.9515 47.3987 64.0119 47.4652 64.0525C47.5317 64.0931 47.609 64.112 47.687 64.1066L48.4797 64.0555Z" fill="#007C91"/>
<path d="M37.099 22.7085C37.2484 24.9572 36.4544 27.176 34.8919 28.8768C33.3293 30.5776 31.1261 31.6212 28.7669 31.7779C27.5988 31.8555 26.4276 31.713 25.32 31.3586C24.2125 31.0042 23.1904 30.4448 22.3121 29.7124C21.4338 28.9799 20.7165 28.0888 20.2011 27.0898C19.6858 26.0908 19.3824 25.0036 19.3085 23.8901C19.1591 21.6415 19.9531 19.4226 21.5156 17.7218C23.0782 16.021 25.2814 14.9774 27.6406 14.8207C28.8088 14.7431 29.9801 14.8856 31.0876 15.24C32.1951 15.5944 33.2172 16.1538 34.0955 16.8863C34.9738 17.6187 35.691 18.5099 36.2064 19.5089C36.7218 20.5078 37.0251 21.5951 37.099 22.7085ZM27.7699 18.1131C27.7011 17.5089 27.371 16.9596 26.8523 16.586C26.3336 16.2124 25.6686 16.0451 25.0038 16.1208C24.6747 16.1583 24.3555 16.2543 24.0644 16.4035C23.7733 16.5526 23.5162 16.7518 23.3075 16.9899C23.0988 17.2279 22.9428 17.5001 22.8483 17.7908C22.7538 18.0815 22.7227 18.3852 22.7568 18.6843C22.8257 19.2884 23.1558 19.8377 23.6745 20.2113C24.1933 20.585 24.8581 20.7523 25.5229 20.6766C25.8521 20.6391 26.1713 20.543 26.4624 20.3939C26.7534 20.2448 27.0107 20.0455 27.2193 19.8075C27.428 19.5694 27.584 19.2973 27.6785 19.0066C27.7729 18.7158 27.804 18.4122 27.7699 18.1131Z" fill="white"/>
<path d="M46.903 31.9331C44.3064 32.1262 42.1103 31.2626 40.3148 29.3421C37.9739 25.6546 38.0393 21.8165 40.5109 17.8278C42.1729 15.1346 46.9542 14.9897 49.7923 15.3306C51.4798 15.5352 52.9144 16.3931 54.0963 17.9045C57.4372 22.1659 56.9514 28.7796 51.4371 30.9188C49.9144 31.5098 48.403 31.8478 46.903 31.9331ZM46.9021 18.4873C46.8861 17.8749 46.6095 17.2945 46.1333 16.8736C45.657 16.4528 45.02 16.2261 44.3624 16.2433C44.0368 16.2518 43.716 16.32 43.4183 16.4439C43.1205 16.5678 42.8516 16.745 42.6269 16.9655C42.4023 17.1859 42.2264 17.4452 42.1091 17.7286C41.9919 18.012 41.9356 18.314 41.9435 18.6172C41.9596 19.2295 42.2362 19.8099 42.7125 20.2308C43.1888 20.6516 43.8258 20.8783 44.4833 20.8611C44.8089 20.8526 45.1297 20.7845 45.4275 20.6605C45.7252 20.5366 45.9942 20.3594 46.2188 20.1389C46.4434 19.9185 46.6193 19.6592 46.7366 19.3758C46.8538 19.0924 46.91 18.7905 46.9021 18.4873Z" fill="white"/>
<path d="M25.5232 20.6767C26.9075 20.519 27.9135 19.3713 27.7702 18.1132C27.6268 16.8552 26.3884 15.9632 25.0041 16.1209C23.6198 16.2786 22.6138 17.4263 22.7571 18.6844C22.9004 19.9424 24.1388 20.8344 25.5232 20.6767Z" fill="black"/>
<path d="M44.4839 20.862C45.8535 20.8261 46.9366 19.7631 46.9032 18.4877C46.8698 17.2123 45.7325 16.2074 44.363 16.2433C42.9934 16.2792 41.9103 17.3422 41.9437 18.6176C41.977 19.893 43.1144 20.8979 44.4839 20.862Z" fill="black"/>
<path d="M73.9883 25.66L74.0821 31.609C71.7298 29.1714 71.6985 27.1885 73.9883 25.66Z" fill="black"/>
<path d="M60.4711 35.8707L61.6132 36.0923C62.0621 36.1832 62.1444 36.4076 61.8603 36.7656C61.5137 37.2031 61.0649 37.3764 60.5138 37.2855C60.3478 37.2571 60.1934 37.1828 60.0683 37.0712C59.9431 36.9596 59.8524 36.8153 59.8064 36.6548C59.6189 35.9957 59.1671 35.5724 58.4512 35.3849C58.2282 35.327 58.0261 35.2076 57.8678 35.0403C57.7096 34.8729 57.6016 34.6644 57.5563 34.4386C57.5109 34.2127 57.53 33.9787 57.6114 33.7632C57.6928 33.5478 57.8332 33.3596 58.0165 33.2201L58.4768 32.8622C58.6323 32.7455 58.7542 32.5895 58.8305 32.41C58.9068 32.2305 58.9348 32.0337 58.9115 31.8394C58.8433 31.2371 58.9171 30.6661 59.1331 30.1263C59.5251 29.1604 60.1757 28.9274 61.0848 29.4274C62.1161 29.9985 62.6615 31.4559 61.4854 32.1633C60.4399 32.7883 59.937 33.8309 59.9768 35.2912C59.9819 35.4293 60.0335 35.5618 60.1232 35.6669C60.2129 35.7721 60.3355 35.8439 60.4711 35.8707Z" fill="black"/>
<path d="M40.3144 29.3422C42.1099 31.2626 44.306 32.1263 46.9027 31.9331C46.8515 33.9445 45.3856 35.1292 43.3827 35.0525C40.2918 34.9218 39.269 33.0183 40.3144 29.3422Z" fill="black"/>
<path d="M56.2357 32.8966C56.2585 33.0728 56.196 33.2234 56.0482 33.3485C55.9516 33.4223 55.8436 33.4479 55.7243 33.4251C55.2696 33.3342 55.1333 33.0757 55.3151 32.6494C55.5709 32.0584 56.0055 31.4787 56.6193 30.9104C56.9262 30.6206 57.0484 30.686 56.9859 31.1065C56.8836 31.7885 56.6335 32.3852 56.2357 32.8966Z" fill="black"/>
<path d="M50.0225 36.3141C50.8652 36.3141 51.5484 35.631 51.5484 34.7883C51.5484 33.9455 50.8652 33.2623 50.0225 33.2623C49.1798 33.2623 48.4967 33.9455 48.4967 34.7883C48.4967 35.631 49.1798 36.3141 50.0225 36.3141Z" fill="black"/>
<path d="M68.7994 35.287C69.1861 35.9058 69.9301 36.1385 70.4611 35.8067C70.9921 35.4749 71.1091 34.7042 70.7224 34.0854C70.3357 33.4665 69.5917 33.2338 69.0607 33.5656C68.5297 33.8975 68.4127 34.6681 68.7994 35.287Z" fill="black"/>
<path d="M65.0641 34.3077C64.5159 34.9102 64.526 35.8121 65.0866 36.3222C65.6473 36.8323 66.5461 36.7575 67.0943 36.1551C67.6424 35.5527 67.6323 34.6508 67.0717 34.1407C66.5111 33.6305 65.6122 33.7053 65.0641 34.3077Z" fill="black"/>
<path d="M33.617 36.7063C33.9348 36.4329 34.0281 36.0203 33.8253 35.7846C33.6226 35.549 33.2007 35.5795 32.8829 35.8528C32.5651 36.1262 32.4718 36.5388 32.6745 36.7745C32.8772 37.0102 33.2992 36.9796 33.617 36.7063Z" fill="black"/>
<path d="M69.8948 37.6194L69.3167 37.2265C69.2116 37.1551 69.0684 37.1824 68.997 37.2875L66.975 40.2628C66.9035 40.368 66.9308 40.5111 67.036 40.5826L67.6141 40.9755C67.7192 41.0469 67.8624 41.0196 67.9338 40.9145L69.9558 37.9392C70.0273 37.834 70 37.6909 69.8948 37.6194Z" fill="black"/>
<path d="M26.3202 47.2825C26.2179 46.3364 25.9878 45.8421 25.4679 45.0921C25.393 44.9835 25.3405 44.861 25.3136 44.7319C25.2867 44.6027 25.2859 44.4695 25.3113 44.34C25.3367 44.2105 25.3878 44.0875 25.4616 43.9781C25.5353 43.8686 25.6302 43.7751 25.7406 43.7029C26.0929 43.4813 26.4708 43.3222 26.8742 43.2256C27.1203 43.1672 27.3791 43.1997 27.6031 43.3172C27.8271 43.4347 28.001 43.6292 28.0929 43.8648C28.5759 45.1091 29.3116 46.0154 30.3003 46.5836C30.5515 46.7284 30.7655 46.9297 30.9253 47.1716C31.0852 47.4134 31.1865 47.6892 31.2212 47.977C31.256 48.2649 31.2232 48.5568 31.1255 48.8298C31.0278 49.1027 30.8678 49.3491 30.6583 49.5495C30.1299 50.0552 29.4055 50.3138 28.485 50.3251C26.6356 50.3422 26.4736 48.6717 26.3202 47.2825Z" fill="black"/>
<path d="M67.4094 43.4558C67.4833 43.4501 67.5572 43.4614 67.6311 43.4899C67.705 43.524 67.7562 43.5751 67.7847 43.6434C67.9211 43.9845 67.9154 44.2801 67.7676 44.5303C67.6084 44.8032 67.3724 44.9055 67.0597 44.8373C66.73 44.7691 66.4912 44.59 66.3434 44.3C66.2297 44.0669 66.2781 43.8765 66.4884 43.7287C66.5794 43.6604 66.6846 43.6121 66.8039 43.5837C67.1621 43.4984 67.3639 43.4558 67.4094 43.4558Z" fill="black"/>
<path d="M61.0062 44.3226C60.6197 44.8209 60.6621 45.5009 61.1009 45.8414C61.5398 46.1818 62.209 46.0537 62.5956 45.5554C62.9821 45.057 62.9398 44.377 62.5009 44.0366C62.062 43.6961 61.3928 43.8242 61.0062 44.3226Z" fill="black"/>
<path d="M44.5388 47.8831C44.9474 47.5139 45.1047 47.0221 44.8902 46.7846C44.6756 46.5471 44.1704 46.6539 43.7617 47.0231C43.3531 47.3923 43.1958 47.8842 43.4104 48.1217C43.625 48.3592 44.1302 48.2524 44.5388 47.8831Z" fill="black"/>
<path d="M72.9323 49.8824C71.3041 52.3033 68.0137 51.6896 68.7468 48.4417C68.8321 48.0439 69.0622 47.7598 69.4372 47.5893C70.3067 47.1801 71.3098 47.2824 72.4464 47.8961C72.6157 47.988 72.7638 48.1142 72.8814 48.2667C72.9989 48.4192 73.0833 48.5947 73.129 48.7817C73.1748 48.9688 73.1809 49.1633 73.1471 49.3529C73.1132 49.5424 73.04 49.7228 72.9323 49.8824Z" fill="black"/>
<path d="M27.7367 52.7684C26.7984 54.2468 27.0559 56.0914 28.3118 56.8884C29.5676 57.6854 31.3463 57.133 32.2846 55.6546C33.2228 54.1762 32.9653 52.3316 31.7094 51.5346C30.4536 50.7376 28.6749 51.29 27.7367 52.7684Z" fill="black"/>
<path d="M41.3804 52.2351C41.7525 52.2351 42.0542 51.9335 42.0542 51.5614C42.0542 51.1894 41.7525 50.8877 41.3804 50.8877C41.0083 50.8877 40.7068 51.1894 40.7068 51.5614C40.7068 51.9335 41.0083 52.2351 41.3804 52.2351Z" fill="black"/>
<path d="M52.3062 57.672C53.0477 55.243 52.417 53.2146 54.9057 51.5612C56.508 50.5043 60.5222 51.8594 61.9796 52.5583C63.616 53.3509 65.2779 53.2657 66.9996 53.76C67.0908 53.785 67.1725 53.8359 67.2352 53.9066C67.2979 53.9773 67.3388 54.0649 67.3532 54.159C67.3675 54.2531 67.3546 54.3498 67.3161 54.4377C67.2777 54.5256 67.2152 54.601 67.136 54.6549C66.4484 55.1152 65.7467 55.1208 65.0307 54.672C63.8205 53.8992 62.42 53.6578 60.829 53.9475C60.0733 54.0839 59.7722 54.5072 59.9256 55.2174C59.9994 55.5413 60.1614 55.8197 60.4114 56.0527C60.7467 56.3595 60.704 56.5981 60.2836 56.7686L56.6699 58.1919C56.4028 58.2998 56.1812 58.4675 56.0051 58.6948C55.5335 59.2857 54.971 59.7572 54.3176 60.1095C54.0733 60.2402 53.8147 60.2601 53.542 60.1692L50.7124 59.2146C50.609 59.1798 50.5178 59.1161 50.4494 59.031C50.3811 58.9459 50.3385 58.843 50.3269 58.7345C50.3152 58.6259 50.3349 58.5164 50.3836 58.4187C50.4323 58.3211 50.508 58.2394 50.6016 58.1834C50.9312 57.9902 51.3062 57.9362 51.7266 58.0214C52.0278 58.0782 52.221 57.9618 52.3062 57.672Z" fill="black"/>
<path d="M50.5085 52.7635C50.7769 52.7635 50.9945 52.5458 50.9945 52.2774C50.9945 52.0089 50.7769 51.7913 50.5085 51.7913C50.24 51.7913 50.0223 52.0089 50.0223 52.2774C50.0223 52.5458 50.24 52.7635 50.5085 52.7635Z" fill="black"/>
<path d="M34.9531 55.4271L34.5262 55.5463C33.6284 55.797 33.1037 56.7281 33.3544 57.6259L33.6433 58.6604C33.8939 59.5583 34.825 60.0829 35.7228 59.8322L36.1498 59.713C37.0476 59.4623 37.5722 58.5313 37.3216 57.6334L37.0327 56.5989C36.782 55.7011 35.851 55.1765 34.9531 55.4271Z" fill="black"/>
<path d="M50.7622 65.1186C51.5584 65.3112 52.342 64.8961 52.5125 64.1914C52.683 63.4867 52.1758 62.7593 51.3795 62.5667C50.5833 62.374 49.7997 62.7892 49.6292 63.4939C49.4587 64.1986 49.9659 64.926 50.7622 65.1186Z" fill="black"/>
<path d="M56.2951 70.2261C55.1644 71.6864 53.8434 72.2716 52.3321 71.9818C49.9371 71.5131 47.4314 71.3256 44.9427 71.0529C44.6075 71.0188 44.4399 71.1665 44.4399 71.496L44.295 100.644C44.2893 100.962 44.4427 101.144 44.7553 101.19C46.653 101.474 48.5592 101.516 50.474 101.317C50.8093 101.283 50.9826 101.437 50.9939 101.778L51.0024 102.084C51.0138 102.391 50.8661 102.553 50.5592 102.57L43.1444 102.937C43.0673 102.94 42.9902 102.928 42.9179 102.901C42.8456 102.875 42.7797 102.834 42.7239 102.781C42.6681 102.729 42.6237 102.666 42.5934 102.596C42.5632 102.526 42.5477 102.45 42.5479 102.374L42.4115 72.016C42.4124 71.7255 42.3034 71.4451 42.1061 71.2305C41.9088 71.0158 41.6376 70.8824 41.3461 70.8568L38.1841 70.5671C38.5932 69.7602 38.8205 68.9847 38.8659 68.2403C38.8773 67.9676 38.7495 67.8028 38.4825 67.746C38.2722 67.7062 38.0819 67.6267 37.9114 67.5073C37.5875 67.2801 37.6245 67.1636 38.0222 67.1579C39.5734 67.1409 40.7694 66.2147 41.6103 64.3795C42.8376 61.7289 46.1018 63.2715 46.5024 65.4278C46.5348 65.5954 46.5145 65.769 46.4443 65.9247C46.3741 66.0803 46.2575 66.2104 46.1104 66.2971L44.6274 67.192C44.0535 67.5386 43.8717 68.0273 44.0819 68.658L44.1757 68.9222C44.3007 69.2972 44.528 69.3738 44.8575 69.1522L46.8604 67.7971C47.1161 67.621 47.3944 67.5755 47.6956 67.6608C49.8348 68.2914 51.4201 67.8057 52.9798 69.7063C53.0736 69.8218 53.1903 69.9164 53.3224 69.9839C53.4545 70.0515 53.599 70.0905 53.7468 70.0983L56.2951 70.2261Z" fill="black"/>
<path d="M48.4805 64.0561L47.6873 64.1072C47.6093 64.1126 47.5319 64.0937 47.4654 64.0531C47.3989 64.0124 47.3464 63.952 47.315 63.8798C47.2835 63.8076 47.2745 63.7271 47.2893 63.6489C47.304 63.5707 47.3417 63.4986 47.3974 63.4421C47.983 62.8736 48.4492 62.8792 48.796 63.4591C48.8316 63.5172 48.8515 63.5836 48.8537 63.6517C48.8559 63.7198 48.8402 63.7873 48.8084 63.8476C48.7765 63.9078 48.7296 63.9587 48.6721 63.9953C48.6146 64.0318 48.5485 64.0528 48.4805 64.0561Z" fill="black"/>
<path d="M33.7097 70.5413L9.34299 89.999C9.29152 90.0404 9.23245 90.0713 9.16903 90.0899C9.10562 90.1085 9.03914 90.1143 8.97344 90.1072C8.90774 90.1001 8.84403 90.0801 8.78607 90.0484C8.72811 90.0166 8.67702 89.9738 8.63563 89.9223L4.02475 84.2035C3.95869 84.1212 3.91016 84.0263 3.88201 83.9247C3.85386 83.823 3.84674 83.7167 3.8611 83.6122C3.87546 83.5076 3.91092 83.4072 3.96545 83.3169C4.01997 83.2266 4.09241 83.1483 4.17821 83.087L4.51904 82.8483C4.97927 82.5188 5.38557 82.5756 5.73785 83.0188L8.9851 87.1694C9.06696 87.2704 9.18527 87.3351 9.31448 87.3494C9.44369 87.3638 9.57335 87.3267 9.67539 87.2461L30.9825 70.2516C32.5507 70.0243 33.4597 70.1209 33.7097 70.5413Z" fill="black"/>
</svg>
