<svg width="59" height="103" viewBox="0 0 59 103" fill="none" xmlns="http://www.w3.org/2000/svg">
<path d="M25.9192 54.6969L32.4221 62.1714C32.6502 62.4365 32.8142 62.7497 32.9014 63.0868C32.9886 63.4238 32.9967 63.7755 32.9249 64.1146L25.0328 100.822C25.0163 100.897 25.0166 100.974 25.0337 101.048C25.0508 101.122 25.0842 101.192 25.1316 101.251C25.179 101.311 25.2391 101.359 25.3075 101.393C25.376 101.426 25.451 101.444 25.5272 101.445L34.2204 101.453C34.6352 101.453 34.8682 101.249 34.9193 100.84L34.9619 100.499C35.0357 99.8849 34.7631 99.5724 34.1437 99.5611L27.8965 99.4673C27.8321 99.4663 27.7686 99.451 27.7108 99.4224C27.653 99.3938 27.6022 99.3528 27.5623 99.3022C27.5223 99.2516 27.4941 99.1928 27.4796 99.1299C27.4652 99.0671 27.465 99.0018 27.4789 98.9389L34.6977 65.4698C34.7092 65.4212 34.7336 65.3767 34.7686 65.3411C34.8035 65.3055 34.8476 65.2802 34.8959 65.2679C34.9443 65.2556 34.995 65.2568 35.0427 65.2714C35.0904 65.2859 35.1332 65.3133 35.1664 65.3504L41.7291 72.859C42.1913 73.3935 42.4927 74.0465 42.5984 74.7426L45.5046 94.132C45.5175 94.2219 45.55 94.3079 45.5997 94.384C45.6494 94.46 45.7151 94.5243 45.7923 94.5722C45.8695 94.6201 45.9562 94.6506 46.0463 94.6614C46.1365 94.6722 46.228 94.6632 46.3144 94.6349L53.0644 92.4615C53.2904 92.3883 53.4812 92.2342 53.5994 92.0293C53.7176 91.8244 53.7548 91.5835 53.7036 91.3536L53.644 91.1235C53.5246 90.595 53.2065 90.4075 52.6894 90.5609L47.9081 91.9672C47.8249 91.9915 47.7374 91.9979 47.6517 91.9859C47.5659 91.9739 47.484 91.9439 47.4112 91.8978C47.3385 91.8517 47.2767 91.7907 47.2301 91.7189C47.1835 91.647 47.1531 91.566 47.141 91.4814L44.5927 74.2227C44.4647 73.3546 44.0889 72.5409 43.5103 71.8789L35.7034 62.947C35.5929 62.8235 35.5136 62.6748 35.4721 62.5132C35.4306 62.3516 35.4281 62.1818 35.4648 62.018L37.3483 53.4696" stroke="black" stroke-width="1.70457"/>
<path d="M37.3484 53.4695C44.874 50.7678 55.34 46.1484 57.002 37.2676C59.056 26.3073 58.306 16.1395 50.2605 7.88941C48.4025 5.9803 46.3002 4.60246 43.9536 3.75586" stroke="#4BC87D" stroke-width="1.70457"/>
<path d="M43.9541 3.75614C43.795 3.80163 43.5277 3.64814 43.1525 3.29565" stroke="#4BC87D" stroke-width="1.70457"/>
<path d="M43.1521 3.29539C40.3851 1.87492 36.9192 1.07946 32.7543 0.909007C25.6974 0.624912 19.5269 1.93742 14.2428 4.84655C10.3393 6.99998 7.68305 9.31817 6.27394 11.8012C5.09211 13.8807 3.96418 16.9461 2.8903 20.9973C1.79938 25.0968 1.02385 30.219 1.9784 34.0798C2.36477 35.6594 3.02952 37.2219 3.97272 38.7674C6.99548 43.7618 10.2456 47.7675 13.7229 50.7846C17.4388 54.0062 21.5297 54.117 25.919 54.6966" stroke="#4BC87D" stroke-width="1.70457"/>
<path d="M43.1524 3.29565C42.6123 3.80164 42.6322 4.21664 43.2121 4.5407C43.4737 4.68283 43.6527 4.61461 43.7494 4.33604L43.9541 3.75614" stroke="#4BC87D" stroke-width="1.70457"/>
<path d="M37.3483 53.4695C36.4846 53.407 35.7517 53.5888 35.1494 54.015" stroke="black" stroke-width="1.70457"/>
<path d="M35.1497 54.0148L28.5189 54.6199" stroke="#4BC87D" stroke-width="1.70457"/>
<path d="M28.5192 54.6199C27.5758 54.4664 26.7091 54.492 25.9192 54.6966" stroke="black" stroke-width="1.70457"/>
<path d="M28.5189 54.6199L33.1127 60.0148C33.1668 60.0799 33.2381 60.1281 33.3186 60.1539C33.3991 60.1797 33.4856 60.182 33.5681 60.1607C33.6507 60.1394 33.7261 60.0953 33.7857 60.0333C33.8453 59.9714 33.8867 59.8941 33.9053 59.8103L35.1497 54.0148" stroke="black" stroke-width="1.70457"/>
<path d="M29.6206 5.85343C29.597 5.78934 29.5409 5.73797 29.4552 5.70228C29.3695 5.66659 29.2559 5.64727 29.1211 5.64541C28.9863 5.64355 28.8329 5.6592 28.6695 5.69146C28.5062 5.72371 28.3361 5.77194 28.1691 5.83339C27.8317 5.95752 27.5271 6.12799 27.3223 6.30728C27.1174 6.48657 27.029 6.66001 27.0766 6.78944C27.1001 6.85353 27.1564 6.90489 27.2421 6.94058C27.3278 6.97628 27.4413 6.99559 27.5761 6.99745C27.7108 6.99931 27.8643 6.98366 28.0277 6.95141C28.191 6.91915 28.3611 6.87093 28.5282 6.80947C28.8656 6.68535 29.1701 6.51487 29.375 6.33558C29.5799 6.15629 29.6682 5.98286 29.6206 5.85343Z" stroke="#4BC87D" stroke-width="1.70457"/>
<path d="M11.5923 17.6649C9.91618 22.0854 10.953 25.6849 14.7031 28.4633C14.7716 28.5137 14.851 28.5476 14.9352 28.5624C15.0194 28.5772 15.1063 28.5724 15.189 28.5486C19.4106 27.2986 23.5129 26.6679 27.4959 26.6565C27.9845 26.6508 28.2743 26.4094 28.3652 25.9321C28.6607 24.4548 28.8454 22.8525 28.9192 21.1252C29.1579 15.7473 25.0072 12.1421 19.6549 12.5086C16.0327 12.7558 12.9901 13.9745 11.5923 17.6649Z" stroke="#4BC87D" stroke-width="1.70457"/>
<path d="M30.7093 19.8553C30.0956 21.9292 30.4281 24.0457 31.7065 26.2048C31.7748 26.3208 31.8701 26.4186 31.9844 26.4899C32.0987 26.5611 32.2285 26.6036 32.3628 26.6139C36.1412 26.9434 39.9367 27.6309 43.7493 28.6764C44.0902 28.7673 44.4197 28.7389 44.7379 28.5912C48.0533 27.04 49.0675 23.8354 48.6584 20.324C48.3289 17.4774 47.039 15.2984 44.789 13.787C41.7293 11.733 33.6411 12.6108 31.9706 16.4291C31.4706 17.5768 31.0502 18.7189 30.7093 19.8553Z" stroke="#4BC87D" stroke-width="1.70457"/>
<path d="M51.7213 33.281C51.8419 33.1969 51.9122 33.0514 51.9169 32.8765C51.9217 32.7016 51.8604 32.5116 51.7465 32.3484C51.6901 32.2675 51.6225 32.1957 51.5476 32.137C51.4726 32.0783 51.3918 32.0337 51.3097 32.006C51.2276 31.9783 51.1459 31.968 51.0691 31.9755C50.9924 31.9831 50.9222 32.0084 50.8625 32.0501C50.7419 32.1342 50.6716 32.2797 50.6669 32.4546C50.6621 32.6295 50.7234 32.8195 50.8373 32.9827C50.8937 33.0635 50.9613 33.1354 51.0362 33.1941C51.1112 33.2528 51.192 33.2973 51.2741 33.325C51.3562 33.3527 51.4379 33.3631 51.5147 33.3555C51.5914 33.348 51.6616 33.3227 51.7213 33.281Z" stroke="#4BC87D" stroke-width="1.70457"/>
<path d="M26.184 32.5119C25.7633 32.5631 25.4705 32.6825 25.3056 32.8701C25.0896 33.1203 25.1351 33.3021 25.4421 33.4159C25.7604 33.5352 26.0532 33.5125 26.3204 33.3477C26.5705 33.1885 26.636 32.9724 26.5166 32.6995C26.4484 32.5574 26.3375 32.4948 26.184 32.5119Z" stroke="black" stroke-width="1.70457"/>
<path d="M14.916 36.1757C14.9671 36.1987 15.0271 36.2003 15.0928 36.1805C15.1584 36.1607 15.2284 36.1198 15.2986 36.0601C15.3688 36.0005 15.4379 35.9234 15.502 35.8331C15.5661 35.7428 15.6238 35.6411 15.672 35.5339C15.7202 35.4266 15.7579 35.3159 15.7829 35.208C15.8078 35.1001 15.8197 34.9972 15.8176 34.9051C15.8156 34.813 15.7997 34.7336 15.771 34.6713C15.7422 34.6091 15.7012 34.5653 15.6501 34.5423C15.5991 34.5193 15.539 34.5177 15.4734 34.5376C15.4077 34.5574 15.3378 34.5983 15.2676 34.6579C15.1974 34.7175 15.1282 34.7946 15.0641 34.885C15.0001 34.9753 14.9424 35.0769 14.8942 35.1842C14.8459 35.2915 14.8083 35.4022 14.7833 35.5101C14.7583 35.618 14.7465 35.7209 14.7485 35.813C14.7506 35.905 14.7664 35.9845 14.7952 36.0467C14.8239 36.109 14.8649 36.1528 14.916 36.1757Z" stroke="#4BC87D" stroke-width="1.70457"/>
<path d="M30.6749 36.2875C30.2317 36.8102 30.0868 37.4579 30.2402 38.2307C30.2686 38.3614 30.3481 38.4125 30.4788 38.3841L30.743 38.333C30.8623 38.3102 30.9191 38.2364 30.9134 38.1113C30.9021 37.4238 30.8367 36.7704 30.7174 36.1511C30.7174 36.1454 30.7203 36.1426 30.726 36.1426C30.726 36.1426 30.726 36.1454 30.726 36.1511C30.7203 36.1682 30.7174 36.1852 30.7174 36.2022C30.7117 36.2363 30.6976 36.2647 30.6749 36.2875Z" stroke="black" stroke-width="1.70457"/>
<path d="M29.1921 41.7252C29.0273 42.1744 29.0785 42.5724 29.3457 42.9192C29.3891 42.9727 29.4477 43.0117 29.5137 43.0313C29.5797 43.0509 29.6501 43.05 29.7157 43.0287C29.7812 43.0075 29.8388 42.967 29.8809 42.9124C29.9229 42.8578 29.9473 42.7918 29.9511 42.7231C29.9682 42.3535 29.883 42.0067 29.6954 41.6826C29.6682 41.6376 29.629 41.6011 29.5822 41.5772C29.5354 41.5533 29.4829 41.543 29.4305 41.5474C29.3782 41.5518 29.328 41.5709 29.2859 41.6023C29.2438 41.6337 29.2113 41.6763 29.1921 41.7252Z" stroke="black" stroke-width="1.70457"/>
<path d="M14.2005 45.4071C14.1457 45.4423 14.1019 45.492 14.0738 45.5508C14.0458 45.6095 14.0347 45.6749 14.0418 45.7396C14.0488 45.8043 14.0738 45.8657 14.1139 45.917C14.154 45.9682 14.2077 46.0072 14.2688 46.0297C14.6099 46.1434 14.8771 46.0041 15.0704 45.6118C15.1272 45.4981 15.1499 45.373 15.1386 45.2366C15.1158 44.9807 14.9936 44.9211 14.7719 45.0575L14.2005 45.4071Z" stroke="black" stroke-width="1.70457"/>
<path d="M22.0167 21.1258C22.0167 20.4612 21.7527 19.8237 21.2827 19.3537C20.8127 18.8837 20.1751 18.6196 19.5104 18.6196C18.8457 18.6196 18.2083 18.8837 17.7383 19.3537C17.2683 19.8237 17.0043 20.4612 17.0043 21.1258C17.0043 21.7905 17.2683 22.428 17.7383 22.898C18.2083 23.368 18.8457 23.6321 19.5104 23.6321C20.1751 23.6321 20.8127 23.368 21.2827 22.898C21.7527 22.428 22.0167 21.7905 22.0167 21.1258Z" stroke="black" stroke-width="1.70457"/>
<path d="M41.8143 21.3216C41.8143 20.6547 41.5494 20.0153 41.0779 19.5438C40.6064 19.0722 39.9669 18.8074 39.3001 18.8074C38.9699 18.8074 38.6429 18.8724 38.3378 18.9988C38.0328 19.1251 37.7556 19.3103 37.5222 19.5438C37.2887 19.7772 37.1035 20.0544 36.9772 20.3594C36.8508 20.6645 36.7858 20.9914 36.7858 21.3216C36.7858 21.6517 36.8508 21.9787 36.9772 22.2837C37.1035 22.5888 37.2887 22.866 37.5222 23.0994C37.7556 23.3329 38.0328 23.5181 38.3378 23.6444C38.6429 23.7708 38.9699 23.8358 39.3001 23.8358C39.9669 23.8358 40.6064 23.5709 41.0779 23.0994C41.5494 22.6279 41.8143 21.9884 41.8143 21.3216Z" stroke="black" stroke-width="1.70457"/>
<path d="M43.1521 3.29539C42.6124 3.80108 42.6323 4.21582 43.2119 4.53969C43.4732 4.68174 43.6522 4.61356 43.7488 4.33515L43.9533 3.7556C46.3 4.6022 48.4023 5.98004 50.2603 7.88915C58.3058 16.1393 59.0557 26.307 57.0017 37.2674C55.3398 46.1482 44.8738 50.7675 37.3481 53.4693C36.4845 53.4068 35.7516 53.5886 35.1493 54.0148L28.5185 54.6198C27.5753 54.4664 26.7088 54.492 25.919 54.6966C21.5297 54.117 17.4388 54.0062 13.7229 50.7846C10.2456 47.7675 6.99548 43.7618 3.97272 38.7674C3.02952 37.2219 2.36477 35.6594 1.9784 34.0798C1.02385 30.219 1.79938 25.0968 2.8903 20.9973C3.96418 16.9461 5.09211 13.8807 6.27394 11.8012C7.68305 9.31817 10.3393 6.99998 14.2428 4.84655C19.5269 1.93742 25.6974 0.624912 32.7543 0.909007C36.9192 1.07946 40.3851 1.87492 43.1521 3.29539ZM29.6198 5.85307C29.5962 5.78899 29.54 5.73764 29.4543 5.70195C29.3686 5.66627 29.2551 5.64696 29.1204 5.6451C28.9856 5.64324 28.8322 5.65889 28.6688 5.69113C28.5055 5.72338 28.3355 5.7716 28.1685 5.83304C27.8312 5.95714 27.5267 6.12758 27.3219 6.30683C27.117 6.48609 27.0286 6.65949 27.0762 6.7889C27.0998 6.85297 27.1561 6.90433 27.2418 6.94001C27.3274 6.9757 27.4408 6.99501 27.5756 6.99687C27.7104 6.99873 27.8638 6.98308 28.0271 6.95083C28.1905 6.91858 28.3605 6.87037 28.5276 6.80892C28.8649 6.68482 29.1694 6.51439 29.3742 6.33513C29.5791 6.15588 29.6674 5.98248 29.6198 5.85307ZM11.5922 17.6649C9.91602 22.0854 10.9529 25.6848 14.7029 28.4633C14.7714 28.5136 14.8508 28.5475 14.935 28.5623C15.0193 28.5771 15.1061 28.5724 15.1888 28.5485C19.4104 27.2985 23.5127 26.6678 27.4957 26.6564C27.9844 26.6508 28.2741 26.4093 28.3651 25.932C28.6605 24.4547 28.8452 22.8524 28.9191 21.1251C29.1577 15.7472 25.0071 12.1421 19.6547 12.5086C16.0325 12.7557 12.9899 13.9745 11.5922 17.6649ZM30.7088 19.8552C30.0952 21.9291 30.4276 24.0456 31.706 26.2048C31.7744 26.3208 31.8697 26.4186 31.9839 26.4898C32.0982 26.5611 32.2281 26.6036 32.3623 26.6138C36.1408 26.9434 39.9363 27.6309 43.7488 28.6763C44.0897 28.7673 44.4193 28.7389 44.7375 28.5911C48.0529 27.04 49.0671 23.8354 48.658 20.324C48.3284 17.4774 47.0386 15.2984 44.7886 13.787C41.7289 11.733 33.6407 12.6108 31.9702 16.429C31.4702 17.5768 31.0497 18.7189 30.7088 19.8552ZM51.7206 33.2802C51.8411 33.1961 51.9114 33.0507 51.9161 32.8759C51.9209 32.7011 51.8596 32.5112 51.7458 32.3481C51.6895 32.2673 51.6219 32.1955 51.547 32.1368C51.4721 32.0781 51.3913 32.0336 51.3093 32.0059C51.2272 31.9783 51.1455 31.9679 51.0688 31.9755C50.9922 31.983 50.922 32.0083 50.8623 32.0499C50.7418 32.134 50.6716 32.2794 50.6668 32.4542C50.6621 32.629 50.7234 32.8189 50.8372 32.982C50.8935 33.0628 50.9611 33.1346 51.036 33.1933C51.1109 33.252 51.1917 33.2964 51.2737 33.3241C51.3557 33.3518 51.4374 33.3622 51.5141 33.3546C51.5908 33.3471 51.661 33.3218 51.7206 33.2802ZM26.1833 32.5116C25.7628 32.5628 25.4702 32.6821 25.3054 32.8696C25.0895 33.1196 25.135 33.3014 25.4418 33.415C25.76 33.5344 26.0525 33.5117 26.3196 33.3469C26.5696 33.1878 26.635 32.9719 26.5157 32.6992C26.4475 32.5571 26.3367 32.4946 26.1833 32.5116ZM14.9157 36.1745C14.9667 36.1975 15.0268 36.1991 15.0923 36.1792C15.1579 36.1594 15.2279 36.1185 15.298 36.059C15.3682 35.9994 15.4373 35.9223 15.5013 35.8321C15.5654 35.7418 15.623 35.6402 15.6712 35.533C15.7194 35.4258 15.757 35.3151 15.782 35.2073C15.807 35.0995 15.8188 34.9966 15.8168 34.9046C15.8147 34.8126 15.7989 34.7332 15.7702 34.671C15.7414 34.6088 15.7004 34.565 15.6494 34.542C15.5983 34.5191 15.5383 34.5175 15.4727 34.5373C15.4071 34.5571 15.3372 34.5979 15.267 34.6575C15.1969 34.7171 15.1278 34.7942 15.0637 34.8845C14.9997 34.9747 14.942 35.0763 14.8938 35.1835C14.8457 35.2907 14.808 35.4014 14.783 35.5092C14.7581 35.617 14.7463 35.7199 14.7483 35.8119C14.7503 35.9039 14.7662 35.9833 14.7949 36.0455C14.8236 36.1078 14.8646 36.1516 14.9157 36.1745ZM30.6748 36.2872C30.2316 36.81 30.0867 37.4577 30.2401 38.2305C30.2685 38.3611 30.348 38.4123 30.4787 38.3839L30.743 38.3327C30.8623 38.31 30.9191 38.2361 30.9134 38.1111C30.902 37.4236 30.8367 36.7702 30.7174 36.1509C30.7174 36.1452 30.7202 36.1424 30.7259 36.1424C30.7259 36.1424 30.7259 36.1452 30.7259 36.1509C30.7202 36.1679 30.7174 36.185 30.7174 36.202C30.7117 36.2361 30.6975 36.2645 30.6748 36.2872ZM29.1917 41.7248C29.027 42.1737 29.0782 42.5714 29.3452 42.918C29.3886 42.9715 29.4471 43.0105 29.5131 43.0301C29.5791 43.0496 29.6495 43.0487 29.715 43.0275C29.7804 43.0063 29.8381 42.9658 29.8801 42.9113C29.9221 42.8567 29.9465 42.7907 29.9503 42.722C29.9673 42.3527 29.8822 42.0061 29.6947 41.6822C29.6676 41.6372 29.6284 41.6007 29.5816 41.5768C29.5348 41.5529 29.4823 41.5426 29.43 41.547C29.3777 41.5515 29.3276 41.5705 29.2855 41.6019C29.2434 41.6333 29.2109 41.6759 29.1917 41.7248ZM14.2001 45.4067C14.1454 45.4418 14.1015 45.4915 14.0735 45.5502C14.0455 45.6089 14.0344 45.6743 14.0415 45.7389C14.0485 45.8036 14.0735 45.865 14.1136 45.9162C14.1536 45.9674 14.2073 46.0064 14.2684 46.0288C14.6093 46.1425 14.8763 46.0033 15.0695 45.6112C15.1263 45.4976 15.149 45.3726 15.1376 45.2362C15.1149 44.9805 14.9928 44.9209 14.7712 45.0573L14.2001 45.4067Z" fill="#4BC87D"/>
<path d="M43.1524 3.29565C43.5276 3.64814 43.7949 3.80163 43.9541 3.75614L43.7494 4.33604C43.6527 4.61461 43.4737 4.68283 43.2121 4.5407C42.6322 4.21664 42.6123 3.80164 43.1524 3.29565Z" fill="black"/>
<path d="M28.5279 6.80903C29.2304 6.55056 29.7195 6.12253 29.6203 5.853C29.5212 5.58348 28.8713 5.57453 28.1688 5.83301C27.4662 6.09149 26.9771 6.51952 27.0763 6.78904C27.1754 7.05856 27.8253 7.06751 28.5279 6.80903Z" fill="black"/>
<path d="M11.5923 17.6649C12.9901 13.9745 16.0327 12.7558 19.6549 12.5086C25.0072 12.1421 29.1579 15.7473 28.9192 21.1252C28.8454 22.8525 28.6607 24.4548 28.3652 25.9321C28.2743 26.4094 27.9845 26.6508 27.4959 26.6565C23.5129 26.6679 19.4106 27.2986 15.189 28.5486C15.1063 28.5724 15.0194 28.5772 14.9352 28.5624C14.851 28.5476 14.7716 28.5137 14.7031 28.4633C10.953 25.6849 9.91618 22.0854 11.5923 17.6649ZM22.0157 21.1252C22.0157 20.4606 21.7518 19.8233 21.2819 19.3534C20.8119 18.8834 20.1745 18.6195 19.51 18.6195C18.8454 18.6195 18.2081 18.8834 17.7382 19.3534C17.2683 19.8233 17.0043 20.4606 17.0043 21.1252C17.0043 21.7897 17.2683 22.4271 17.7382 22.897C18.2081 23.3669 18.8454 23.6309 19.51 23.6309C20.1745 23.6309 20.8119 23.3669 21.2819 22.897C21.7518 22.4271 22.0157 21.7897 22.0157 21.1252Z" fill="white"/>
<path d="M31.9706 16.4291C33.6411 12.6108 41.7293 11.733 44.789 13.787C47.039 15.2984 48.3289 17.4774 48.6584 20.324C49.0675 23.8354 48.0533 27.04 44.7379 28.5912C44.4197 28.7389 44.0902 28.7673 43.7493 28.6764C39.9367 27.6309 36.1412 26.9434 32.3628 26.6139C32.2285 26.6036 32.0987 26.5611 31.9844 26.4899C31.8701 26.4186 31.7748 26.3208 31.7065 26.2048C30.4281 24.0457 30.0956 21.9292 30.7093 19.8553C31.0502 18.7189 31.4706 17.5768 31.9706 16.4291ZM41.8146 21.3212C41.8146 20.6544 41.5497 20.0149 41.0782 19.5434C40.6067 19.0718 39.9672 18.807 39.3004 18.807C38.9702 18.807 38.6432 18.872 38.3381 18.9984C38.0331 19.1247 37.7559 19.3099 37.5225 19.5434C37.289 19.7768 37.1039 20.054 36.9775 20.359C36.8511 20.6641 36.7861 20.991 36.7861 21.3212C36.7861 21.6513 36.8511 21.9783 36.9775 22.2833C37.1039 22.5884 37.289 22.8656 37.5225 23.099C37.7559 23.3325 38.0331 23.5177 38.3381 23.644C38.6432 23.7704 38.9702 23.8354 39.3004 23.8354C39.9672 23.8354 40.6067 23.5705 41.0782 23.099C41.5497 22.6275 41.8146 21.988 41.8146 21.3212Z" fill="white"/>
<path d="M19.5104 23.6321C20.8946 23.6321 22.0167 22.51 22.0167 21.1258C22.0167 19.7417 20.8946 18.6196 19.5104 18.6196C18.1263 18.6196 17.0043 19.7417 17.0043 21.1258C17.0043 22.51 18.1263 23.6321 19.5104 23.6321Z" fill="black"/>
<path d="M39.3001 23.8358C40.6886 23.8358 41.8143 22.7101 41.8143 21.3216C41.8143 19.933 40.6886 18.8074 39.3001 18.8074C37.9115 18.8074 36.7858 19.933 36.7858 21.3216C36.7858 22.7101 37.9115 23.8358 39.3001 23.8358Z" fill="black"/>
<path d="M50.8371 32.9828C51.0743 33.3227 51.4701 33.4563 51.7211 33.2812C51.9722 33.106 51.9835 32.6884 51.7464 32.3485C51.5093 32.0086 51.1135 31.875 50.8624 32.0502C50.6113 32.2253 50.6 32.6429 50.8371 32.9828Z" fill="black"/>
<path d="M26.184 32.5119C26.3375 32.4948 26.4484 32.5574 26.5166 32.6995C26.636 32.9724 26.5705 33.1885 26.3204 33.3477C26.0532 33.5125 25.7604 33.5352 25.4421 33.4159C25.1351 33.3021 25.0896 33.1203 25.3056 32.8701C25.4705 32.6825 25.7633 32.5631 26.184 32.5119Z" fill="black"/>
<path d="M14.8942 35.1838C14.6916 35.6346 14.7014 36.0783 14.9161 36.1747C15.1308 36.2712 15.469 35.984 15.6716 35.5332C15.8742 35.0824 15.8644 34.6387 15.6498 34.5422C15.4351 34.4458 15.0968 34.733 14.8942 35.1838Z" fill="black"/>
<path d="M30.7174 36.2022C30.7174 36.1852 30.7203 36.1682 30.726 36.1511C30.726 36.1454 30.726 36.1426 30.726 36.1426C30.7203 36.1426 30.7174 36.1454 30.7174 36.1511C30.8367 36.7704 30.9021 37.4238 30.9134 38.1113C30.9191 38.2364 30.8623 38.3102 30.743 38.333L30.4788 38.3841C30.3481 38.4125 30.2686 38.3614 30.2402 38.2307C30.0868 37.4579 30.2317 36.8102 30.6749 36.2875C30.6976 36.2647 30.7117 36.2363 30.7174 36.2022Z" fill="black"/>
<path d="M29.1921 41.7252C29.2113 41.6763 29.2438 41.6337 29.2859 41.6023C29.328 41.5709 29.3782 41.5518 29.4305 41.5474C29.4829 41.543 29.5354 41.5533 29.5822 41.5772C29.629 41.6011 29.6682 41.6376 29.6954 41.6826C29.883 42.0067 29.9682 42.3535 29.9511 42.7231C29.9473 42.7918 29.9229 42.8578 29.8809 42.9124C29.8388 42.967 29.7812 43.0075 29.7157 43.0287C29.6501 43.05 29.5797 43.0509 29.5137 43.0313C29.4477 43.0117 29.3891 42.9727 29.3457 42.9192C29.0785 42.5724 29.0273 42.1744 29.1921 41.7252Z" fill="black"/>
<path d="M14.2005 45.4071L14.7719 45.0575C14.9936 44.9211 15.1158 44.9807 15.1386 45.2366C15.1499 45.373 15.1272 45.4981 15.0704 45.6118C14.8771 46.0041 14.6099 46.1434 14.2688 46.0297C14.2077 46.0072 14.154 45.9682 14.1139 45.917C14.0738 45.8657 14.0488 45.8043 14.0418 45.7396C14.0347 45.6749 14.0458 45.6095 14.0738 45.5508C14.1019 45.492 14.1457 45.4423 14.2005 45.4071Z" fill="black"/>
<path d="M37.3483 53.4695L35.4648 62.0179C35.4281 62.1817 35.4306 62.3515 35.4721 62.5131C35.5136 62.6747 35.5929 62.8234 35.7034 62.9469L43.5103 71.8788C44.0889 72.5408 44.4647 73.3545 44.5927 74.2226L47.141 91.4813C47.1531 91.566 47.1835 91.6469 47.2301 91.7188C47.2767 91.7906 47.3385 91.8517 47.4112 91.8977C47.484 91.9438 47.5659 91.9738 47.6517 91.9858C47.7374 91.9978 47.8249 91.9914 47.9081 91.9671L52.6894 90.5608C53.2065 90.4074 53.5246 90.5949 53.644 91.1234L53.7036 91.3535C53.7548 91.5834 53.7176 91.8243 53.5994 92.0292C53.4812 92.2341 53.2904 92.3882 53.0644 92.4615L46.3144 94.6348C46.228 94.6631 46.1365 94.6721 46.0463 94.6613C45.9562 94.6505 45.8695 94.62 45.7923 94.5721C45.7151 94.5242 45.6494 94.4599 45.5997 94.3839C45.55 94.3078 45.5175 94.2218 45.5046 94.1319L42.5984 74.7425C42.4927 74.0464 42.1913 73.3934 41.7291 72.8589L35.1664 65.3503C35.1332 65.3132 35.0904 65.2858 35.0427 65.2713C34.995 65.2567 34.9443 65.2555 34.8959 65.2678C34.8476 65.2801 34.8035 65.3054 34.7686 65.341C34.7336 65.3766 34.7092 65.4211 34.6977 65.4697L27.4789 98.9388C27.465 99.0017 27.4652 99.067 27.4796 99.1299C27.4941 99.1927 27.5223 99.2516 27.5623 99.3021C27.6022 99.3527 27.653 99.3937 27.7108 99.4223C27.7686 99.4509 27.8321 99.4662 27.8965 99.4672L34.1437 99.561C34.7631 99.5723 35.0357 99.8848 34.9619 100.498L34.9193 100.839C34.8682 101.249 34.6352 101.453 34.2204 101.453L25.5272 101.444C25.451 101.444 25.376 101.426 25.3075 101.393C25.2391 101.359 25.179 101.311 25.1316 101.251C25.0842 101.192 25.0508 101.122 25.0337 101.048C25.0166 100.974 25.0163 100.897 25.0328 100.822L32.9249 64.1145C32.9967 63.7755 32.9886 63.4237 32.9014 63.0867C32.8142 62.7496 32.6502 62.4364 32.4221 62.1713L25.9192 54.6968C26.709 54.4923 27.5755 54.4667 28.5187 54.6201L33.1125 60.015C33.1666 60.0801 33.2379 60.1283 33.3184 60.1541C33.3989 60.1799 33.4853 60.1822 33.5679 60.1609C33.6504 60.1396 33.7258 60.0955 33.7854 60.0336C33.845 59.9716 33.8864 59.8943 33.9051 59.8105L35.1495 54.015C35.7517 53.5888 36.4847 53.407 37.3483 53.4695Z" fill="black"/>
</svg>
