<svg width="73" height="92" viewBox="0 0 73 92" fill="none" xmlns="http://www.w3.org/2000/svg">
<path d="M27.3391 55.0813C25.7652 56.1552 24.322 57.2205 23.0095 58.2774C21.7425 59.3001 20.5351 60.6126 19.3873 62.2149C16.2168 66.624 13.0604 71.0048 9.91837 75.3571C9.79429 75.5326 9.6079 75.6542 9.39724 75.697C9.18658 75.7398 8.96757 75.7005 8.78487 75.5872L3.00636 72.0162C2.84065 71.9124 2.64202 71.8741 2.44851 71.9087C2.255 71.9433 2.08029 72.0484 1.95807 72.2037L1.80472 72.3912C1.3729 72.9423 1.45521 73.3997 2.05181 73.7633L9.35593 78.2719C9.52342 78.3741 9.72306 78.4097 9.91556 78.3719C10.1081 78.334 10.2794 78.2254 10.3957 78.0674C13.8389 73.3855 17.3361 68.5303 20.8872 63.5019C23.2055 60.212 26.3164 58.2263 29.6062 55.8569" stroke="black" stroke-width="1.70457"/>
<path d="M29.606 55.8569C33.9583 56.1126 37.3532 56.0785 39.7907 55.7546C42.143 55.4421 44.4584 55.158 46.7368 54.9023" stroke="#007C91" stroke-width="1.70457"/>
<path d="M46.7368 54.9023C46.3675 58.5387 46.0351 62.1751 45.7396 65.8115C45.6203 67.232 45.805 68.6156 46.2936 69.9622C48.2425 75.3543 50.1857 80.6384 52.1232 85.8146C52.2709 86.201 52.1488 86.4595 51.7568 86.5902L45.5863 88.559C45.1033 88.7124 44.9272 89.0362 45.0579 89.5305L45.1771 89.9567C45.3248 90.5021 45.6686 90.6897 46.2084 90.5192L54.4841 87.8345C54.5478 87.8134 54.6067 87.7798 54.6573 87.7356C54.7078 87.6914 54.749 87.6375 54.7784 87.5772C54.8078 87.5168 54.8248 87.4512 54.8284 87.3841C54.832 87.3171 54.8221 87.2499 54.7994 87.1868L47.9726 68.7093C47.7426 68.0977 47.6524 67.4396 47.7084 66.7831L48.7567 54.604" stroke="black" stroke-width="1.70457"/>
<path d="M48.7572 54.6041C54.1493 53.4109 59.5669 51.999 65.0102 50.3683C73.2347 47.9137 73.2177 40.1579 69.9193 33.6806C68.9932 31.8567 67.5841 30.8226 65.6921 30.5782C63.0613 30.2373 60.6692 29.743 58.5158 29.0953C58.1181 28.976 58.1238 28.8822 58.5329 28.814C62.9136 28.064 66.6807 26.3253 67.6778 21.6207C68.4705 17.9218 69.0415 10.7541 66.3142 7.76262C62.8795 4.00405 55.6181 2.4785 50.6919 1.94156C47.7316 1.61769 44.4248 1.69157 40.7713 2.16316C37.6008 2.57226 34.1831 2.82221 30.5183 2.91312C22.8364 3.10063 16.8534 6.32798 12.5693 12.5951C11.2227 14.5724 10.8221 16.1491 11.8704 18.4758C12.9272 20.8111 14.3676 25.6776 17.2313 26.2316C19.2142 26.618 21.237 27.0811 23.2995 27.6209C24.3279 27.8879 24.3365 28.1833 23.3251 28.5072C19.6773 29.6834 15.4074 30.8851 12.6545 33.672C10.7198 35.6408 8.01804 38.8624 8.98964 41.8028C10.0124 44.871 10.9499 48.016 13.413 50.2916C14.2256 51.0472 15.4442 51.6694 17.0693 52.1581C20.3534 53.1467 23.7768 54.1211 27.3393 55.0814" stroke="#007C91" stroke-width="1.70457"/>
<path d="M48.757 54.6039C47.9842 54.5244 47.3109 54.6238 46.7371 54.9022" stroke="#007C91" stroke-width="1.70457"/>
<path d="M29.6065 55.8569C29.0951 55.4194 28.3394 55.1608 27.3394 55.0813" stroke="#007C91" stroke-width="1.70457"/>
<path d="M26.3761 18.7828C27.2625 16.993 26.9897 15.3565 29.3165 14.4787C34.0381 12.7116 36.9529 14.1208 38.0609 18.706C38.1063 18.8879 38.203 19.0356 38.3507 19.1492C38.5155 19.2686 38.6944 19.3055 38.8876 19.26C39.1887 19.1975 39.3536 19.0157 39.382 18.7146C39.4786 17.8055 39.3137 16.9247 38.8876 16.0725C37.5353 13.3849 35.3223 12.1094 32.2484 12.2457C27.629 12.4446 25.254 14.6577 25.1233 18.885C25.1233 19.0498 25.2 19.1549 25.3534 19.2004C25.5637 19.2572 25.7682 19.2515 25.967 19.1833C26.1375 19.1265 26.2738 18.993 26.3761 18.7828Z" stroke="#007C91" stroke-width="1.70457"/>
<path d="M47.7258 13.8306C51.152 13.3874 53.8792 14.8959 54.2371 18.4329C54.2499 18.5704 54.2984 18.7019 54.3777 18.8142C54.457 18.9265 54.5644 19.0154 54.6889 19.0721C55.0014 19.2198 55.294 19.2369 55.5667 19.1232C55.8963 18.9926 56.0241 18.754 55.9502 18.4074C54.9559 13.3789 51.8082 11.4414 46.507 12.5948C43.274 13.2993 41.6121 15.3931 41.5211 18.8761C41.5155 19.2 41.6745 19.3477 41.9984 19.3193L42.3137 19.2852C42.7342 19.2511 42.97 19.0267 43.0212 18.6119C43.3678 15.7766 44.936 14.1828 47.7258 13.8306Z" stroke="#007C91" stroke-width="1.70457"/>
<path d="M48.7572 54.6041C47.9845 54.5246 47.3112 54.624 46.7373 54.9024C44.4589 55.1581 42.1435 55.4422 39.7912 55.7547C37.3536 56.0785 33.9587 56.1127 29.6064 55.857C29.0951 55.4195 28.3393 55.1609 27.3393 55.0814C23.7768 54.1211 20.3534 53.1467 17.0693 52.1581C15.4442 51.6694 14.2256 51.0472 13.413 50.2916C10.9499 48.016 10.0124 44.871 8.98964 41.8028C8.01804 38.8624 10.7198 35.6408 12.6545 33.672C15.4074 30.8851 19.6773 29.6834 23.3251 28.5072C24.3365 28.1833 24.3279 27.8879 23.2995 27.6208C21.237 27.0811 19.2142 26.618 17.2313 26.2316C14.3676 25.6776 12.9272 20.8111 11.8704 18.4758C10.8221 16.1491 11.2227 14.5724 12.5693 12.5951C16.8534 6.32798 22.8364 3.10063 30.5183 2.91313C34.1831 2.82221 37.6008 2.57226 40.7713 2.16316C44.4248 1.69157 47.7316 1.61769 50.6919 1.94156C55.6181 2.4785 62.8795 4.00405 66.3142 7.76262C69.0415 10.7541 68.4705 17.9218 67.6778 21.6207C66.6807 26.3253 62.9136 28.064 58.5329 28.814C58.1238 28.8822 58.1181 28.976 58.5158 29.0953C60.6692 29.743 63.0613 30.2373 65.6921 30.5782C67.5841 30.8226 68.9932 31.8567 69.9193 33.6806C73.2177 40.1579 73.2347 47.9137 65.0102 50.3683C59.5669 51.999 54.1493 53.4109 48.7572 54.6041ZM26.3762 18.7827C27.2626 16.9929 26.9898 15.3565 29.3166 14.4786C34.0382 12.7115 36.953 14.1207 38.061 18.706C38.1065 18.8878 38.2031 19.0355 38.3509 19.1492C38.5156 19.2685 38.6945 19.3054 38.8877 19.26C39.1888 19.1975 39.3537 19.0156 39.3821 18.7145C39.4787 17.8054 39.3138 16.9247 38.8877 16.0724C37.5354 13.3848 35.3224 12.1093 32.2485 12.2456C27.6291 12.4445 25.2541 14.6576 25.1234 18.885C25.1234 19.0497 25.2001 19.1548 25.3535 19.2003C25.5638 19.2571 25.7683 19.2514 25.9672 19.1832C26.1376 19.1264 26.274 18.9929 26.3762 18.7827ZM47.726 13.8309C51.1521 13.3877 53.8794 14.8962 54.2373 18.4332C54.25 18.5707 54.2985 18.7023 54.3779 18.8145C54.4572 18.9268 54.5645 19.0158 54.6891 19.0724C55.0016 19.2202 55.2942 19.2372 55.5669 19.1236C55.8965 18.9929 56.0243 18.7543 55.9504 18.4077C54.9561 13.3792 51.8084 11.4417 46.5072 12.5951C43.2742 13.2997 41.6122 15.3934 41.5213 18.8764C41.5156 19.2003 41.6747 19.348 41.9985 19.3196L42.3139 19.2855C42.7343 19.2514 42.9702 19.027 43.0213 18.6122C43.3679 15.777 44.9362 14.1831 47.726 13.8309Z" fill="#007C91"/>
<path d="M29.3165 14.4787C26.9897 15.3565 27.2625 16.993 26.3761 18.7828C26.2738 18.993 26.1375 19.1265 25.967 19.1833C25.7682 19.2515 25.5637 19.2572 25.3534 19.2004C25.2 19.1549 25.1233 19.0498 25.1233 18.885C25.254 14.6577 27.629 12.4446 32.2484 12.2457C35.3223 12.1094 37.5353 13.3849 38.8876 16.0725C39.3137 16.9247 39.4786 17.8055 39.382 18.7146C39.3536 19.0157 39.1887 19.1975 38.8876 19.26C38.6944 19.3055 38.5155 19.2686 38.3507 19.1492C38.203 19.0356 38.1063 18.8879 38.0609 18.706C36.9529 14.1208 34.0381 12.7116 29.3165 14.4787Z" fill="black"/>
<path d="M54.2371 18.4329C53.8792 14.8959 51.152 13.3874 47.7258 13.8306C44.936 14.1828 43.3678 15.7766 43.0212 18.6119C42.97 19.0267 42.7342 19.2511 42.3137 19.2852L41.9984 19.3193C41.6745 19.3477 41.5155 19.2 41.5211 18.8761C41.6121 15.3931 43.274 13.2993 46.507 12.5948C51.8082 11.4414 54.9559 13.3789 55.9502 18.4074C56.0241 18.754 55.8963 18.9926 55.5667 19.1232C55.294 19.2369 55.0014 19.2198 54.6889 19.0721C54.5644 19.0154 54.457 18.9265 54.3777 18.8142C54.2984 18.7019 54.2499 18.5704 54.2371 18.4329Z" fill="black"/>
<path d="M48.7567 54.6039L47.7084 66.783C47.6524 67.4395 47.7426 68.0976 47.9726 68.7092L54.7994 87.1867C54.8221 87.2499 54.832 87.317 54.8284 87.384C54.8248 87.4511 54.8078 87.5167 54.7784 87.5771C54.749 87.6374 54.7078 87.6913 54.6573 87.7355C54.6067 87.7797 54.5478 87.8133 54.4841 87.8344L46.2084 90.5191C45.6686 90.6896 45.3248 90.5021 45.1771 89.9566L45.0579 89.5304C44.9272 89.0361 45.1033 88.7123 45.5863 88.5589L51.7568 86.5901C52.1488 86.4594 52.2709 86.2009 52.1232 85.8145C50.1857 80.6383 48.2425 75.3542 46.2936 69.9621C45.805 68.6155 45.6203 67.2319 45.7396 65.8115C46.0351 62.175 46.3675 58.5386 46.7368 54.9022C47.3107 54.6238 47.984 54.5244 48.7567 54.6039Z" fill="black"/>
<path d="M27.3391 55.0813C28.3391 55.1608 29.0948 55.4194 29.6062 55.8569C26.3164 58.2263 23.2055 60.212 20.8872 63.5019C17.3361 68.5303 13.8389 73.3855 10.3957 78.0674C10.2794 78.2254 10.1081 78.334 9.91556 78.3719C9.72306 78.4097 9.52342 78.3741 9.35593 78.2719L2.05181 73.7633C1.45521 73.3997 1.3729 72.9423 1.80472 72.3912L1.95807 72.2037C2.08029 72.0484 2.255 71.9433 2.44851 71.9087C2.64202 71.8741 2.84065 71.9124 3.00636 72.0162L8.78487 75.5872C8.96757 75.7005 9.18658 75.7397 9.39724 75.697C9.6079 75.6542 9.79429 75.5326 9.91837 75.3571C13.0604 71.0048 16.2168 66.624 19.3873 62.2149C20.5351 60.6126 21.7425 59.3001 23.0095 58.2774C24.322 57.2205 25.7652 56.1552 27.3391 55.0813Z" fill="black"/>
</svg>
