<svg width="88" height="104" viewBox="0 0 88 104" fill="none" xmlns="http://www.w3.org/2000/svg">
<path d="M35.1416 53.009L39.0622 60.3982C39.2724 60.796 39.3292 61.2136 39.2326 61.6511L30.2922 102.092C30.2819 102.139 30.2822 102.188 30.2928 102.235C30.3035 102.282 30.3243 102.326 30.3537 102.364C30.3832 102.401 30.4205 102.432 30.4629 102.453C30.5054 102.473 30.5518 102.484 30.599 102.484L37.9457 102.493C38.0452 102.493 38.1438 102.473 38.2354 102.434C38.3271 102.395 38.41 102.338 38.4792 102.266C38.5484 102.195 38.6025 102.11 38.6382 102.017C38.6739 101.924 38.6906 101.825 38.6871 101.725L38.6786 101.231C38.6673 100.68 38.386 100.41 37.8349 100.421L33.2751 100.507C33.2081 100.508 33.1417 100.495 33.0807 100.467C33.0198 100.439 32.966 100.397 32.9233 100.346C32.8806 100.294 32.8503 100.233 32.8344 100.168C32.8186 100.103 32.8178 100.035 32.832 99.9697L40.5281 64.9409C40.7042 64.1455 40.9883 64.1057 41.3804 64.8216C43.102 67.9495 44.994 70.941 45.6673 74.4609C47.1446 82.1656 48.5424 89.6259 49.8606 96.8419C49.9572 97.3817 50.2668 97.5663 50.7896 97.3959L57.0027 95.4186C57.1121 95.3828 57.2128 95.3246 57.2983 95.2477C57.3838 95.1709 57.4521 95.0771 57.4988 94.9725C57.5454 94.8679 57.5694 94.7549 57.5691 94.6409C57.5688 94.5268 57.5442 94.4143 57.497 94.3106L57.3948 94.0805C57.1561 93.5578 56.7669 93.3845 56.2271 93.5606L51.906 94.9583C51.8685 94.9698 51.829 94.9733 51.7901 94.9686C51.7511 94.9639 51.7136 94.9511 51.6799 94.9311C51.6462 94.911 51.617 94.8841 51.5943 94.8521C51.5716 94.8201 51.5559 94.7837 51.5481 94.7452L47.2782 72.245C47.1201 71.4095 46.8295 70.604 46.4173 69.8586L41.8491 61.5318C41.565 61.0204 41.4855 60.4806 41.6105 59.9124L43.281 52.08" stroke="black" stroke-width="1.70457"/>
<path d="M43.2808 52.0799L85.8353 48.185C85.8999 48.1791 85.9623 48.1587 86.0179 48.1256C86.0736 48.0924 86.1212 48.0472 86.1571 47.9933C86.1931 47.9394 86.2165 47.8781 86.2257 47.8139C86.2349 47.7498 86.2297 47.6844 86.2103 47.6225C84.1251 41.0429 82.2074 34.7899 80.4574 28.8637C79.7188 26.358 78.5966 23.6989 77.0909 20.8864C73.7784 14.7159 70.6647 8.87203 67.7499 3.35492C67.7049 3.26994 67.636 3.19995 67.5518 3.1535C67.4677 3.10705 67.3717 3.08618 67.2759 3.09342C67.18 3.10065 67.0883 3.13567 67.012 3.19423C66.9357 3.25279 66.8782 3.33235 66.8465 3.42311C64.3748 10.4118 61.9543 17.0028 59.585 23.1961C59.4486 23.5654 59.2697 23.9376 59.0481 24.3126C59.006 24.384 58.9464 24.4434 58.8749 24.4853C58.8034 24.5271 58.7223 24.5501 58.6395 24.5518C58.5566 24.5535 58.4747 24.5339 58.4015 24.4951C58.3283 24.4562 58.2663 24.3992 58.2214 24.3296C54.2099 17.9318 50.2923 11.3323 46.4684 4.53107C46.3547 4.33789 46.2042 4.19014 46.0167 4.08787C45.6189 3.88332 45.3604 3.99413 45.2411 4.42027L40.6047 20.3324C40.3206 21.321 39.8859 21.392 39.3007 20.5454L29.9767 7.06238C29.9374 7.00772 29.8838 6.96456 29.822 6.93769C29.7602 6.91082 29.6925 6.90125 29.6264 6.91007C29.5603 6.91888 29.4983 6.94572 29.4474 6.98763C29.3964 7.02954 29.3584 7.0849 29.3375 7.14759C28.2409 10.3806 27.0875 13.6107 25.8772 16.838C24.9312 19.3949 23.5761 23.9035 21.9738 27.2785C21.9448 27.3398 21.8986 27.3912 21.8409 27.4267C21.7831 27.4622 21.7163 27.4801 21.6486 27.4783C21.5809 27.4765 21.5151 27.4551 21.4593 27.4166C21.4036 27.3781 21.3602 27.3241 21.3345 27.2614C19.0163 21.3466 15.9055 15.8153 13.468 10.1476C12.3884 7.63624 11.1725 5.05665 9.82021 2.40889C9.40543 1.59639 9.12986 1.64182 8.99349 2.54524L1.29738 54.5856C1.28142 54.6888 1.28937 54.7943 1.32063 54.8941C1.35189 54.9938 1.40564 55.0853 1.47784 55.1616C1.55004 55.2379 1.6388 55.297 1.73745 55.3346C1.8361 55.3721 1.94207 55.387 2.04738 55.3782L34.5108 52.5913C34.7211 52.5686 34.8887 52.6453 35.0137 52.8214L35.1415 53.0089" stroke="#F69FAC" stroke-width="1.70457"/>
<path d="M43.281 52.0798C42.3094 51.8582 41.6247 51.952 41.227 52.3611" stroke="#F69FAC" stroke-width="1.70457"/>
<path d="M41.2278 52.3613C39.8355 52.2021 38.4801 52.3414 37.1616 52.779" stroke="#F69FAC" stroke-width="1.70457"/>
<path d="M37.1615 52.7787C35.9967 52.29 35.3234 52.3667 35.1416 53.0088" stroke="#F69FAC" stroke-width="1.70457"/>
<path d="M37.1616 52.7789L39.5059 57.1691C39.546 57.2422 39.6075 57.3012 39.6822 57.3384C39.7569 57.3756 39.8411 57.3891 39.9237 57.377C40.0062 57.365 40.0831 57.3279 40.144 57.271C40.2049 57.214 40.247 57.1398 40.2645 57.0582L41.2278 52.3612" stroke="black" stroke-width="1.70457"/>
<path d="M62.5872 34.7531C62.1482 32.3609 60.7768 30.2411 58.7748 28.86C56.7727 27.4789 54.3041 26.9497 51.9119 27.3887L48.894 27.9426C46.5018 28.3816 44.382 29.753 43.0009 31.755C41.6198 33.757 41.0905 36.2257 41.5296 38.6179L41.8558 40.3951C42.2948 42.7873 43.6662 44.9072 45.6682 46.2882C47.6703 47.6693 50.1389 48.1986 52.5311 47.7595L55.549 47.2057C57.9412 46.7666 60.061 45.3952 61.4421 43.3932C62.8232 41.3912 63.3524 38.9225 62.9134 36.5303L62.5872 34.7531Z" stroke="#F69FAC" stroke-width="1.70457"/>
<path d="M38.9712 36.0751C38.3163 33.6976 36.7437 31.6776 34.5995 30.4595C32.4552 29.2414 29.9149 28.925 27.5374 29.5798L24.7766 30.3403C23.5993 30.6645 22.4975 31.2175 21.5339 31.9676C20.5704 32.7177 19.764 33.6502 19.1609 34.712C18.5577 35.7737 18.1696 36.9438 18.0187 38.1555C17.8678 39.3672 17.957 40.5968 18.2812 41.7741L18.7158 43.3517C19.3707 45.7293 20.9433 47.7493 23.0875 48.9674C25.2318 50.1855 27.7721 50.5019 30.1496 49.847L32.9104 49.0866C34.0877 48.7623 35.1895 48.2094 36.1531 47.4593C37.1166 46.7092 37.923 45.7766 38.5261 44.7149C39.1293 43.6532 39.5174 42.483 39.6683 41.2713C39.8192 40.0596 39.73 38.83 39.4058 37.6528L38.9712 36.0751Z" stroke="#F69FAC" stroke-width="1.70457"/>
<path d="M58.8935 37.2688C58.9847 36.5946 58.8043 35.9118 58.392 35.3705C57.9797 34.8293 57.3693 34.474 56.695 34.3828L55.8673 34.2709C55.1931 34.1798 54.5102 34.3602 53.969 34.7725C53.4278 35.1848 53.0725 35.7952 52.9814 36.4695L52.9129 36.9761C52.8217 37.6504 53.0021 38.3333 53.4144 38.8745C53.8267 39.4157 54.4371 39.771 55.1113 39.8622L55.9391 39.9741C56.6133 40.0652 57.2961 39.8848 57.8373 39.4724C58.3786 39.0601 58.7338 38.4498 58.825 37.7755L58.8935 37.2688Z" stroke="black" stroke-width="1.70457"/>
<path d="M35.5888 38.9589C35.4986 38.2025 35.092 37.5153 34.4585 37.0484C33.8249 36.5815 33.0163 36.3731 32.2106 36.4692C31.8116 36.5168 31.4253 36.6377 31.0738 36.825C30.7223 37.0123 30.4124 37.2623 30.1619 37.5607C29.9113 37.8592 29.725 38.2003 29.6136 38.5645C29.5022 38.9288 29.4678 39.309 29.5125 39.6835C29.6027 40.4399 30.0093 41.1271 30.6428 41.594C31.2764 42.0609 32.0849 42.2693 32.8907 42.1732C33.2897 42.1256 33.676 42.0047 34.0275 41.8175C34.379 41.6302 34.6889 41.3802 34.9394 41.0817C35.1899 40.7832 35.3762 40.4421 35.4877 40.0779C35.5991 39.7137 35.6334 39.3334 35.5888 38.9589Z" stroke="black" stroke-width="1.70457"/>
<path d="M43.2808 52.0799C42.3092 51.8583 41.6246 51.9521 41.2268 52.3612C39.8348 52.2021 38.4796 52.3413 37.1614 52.7788C35.9967 52.2902 35.3233 52.3669 35.1415 53.0089L35.0137 52.8214C34.8887 52.6453 34.7211 52.5686 34.5108 52.5913L2.04738 55.3783C1.94207 55.387 1.8361 55.3721 1.73745 55.3346C1.6388 55.297 1.55004 55.2379 1.47784 55.1616C1.40564 55.0853 1.35189 54.9938 1.32063 54.8941C1.28937 54.7943 1.28142 54.6888 1.29738 54.5856L8.99349 2.54524C9.12986 1.64182 9.40543 1.59639 9.82021 2.40889C11.1725 5.05665 12.3884 7.63624 13.468 10.1476C15.9055 15.8153 19.0163 21.3466 21.3345 27.2614C21.3602 27.3241 21.4036 27.3781 21.4594 27.4166C21.5151 27.4551 21.5809 27.4765 21.6486 27.4783C21.7163 27.4801 21.7831 27.4622 21.8409 27.4267C21.8986 27.3912 21.9448 27.3398 21.9738 27.2785C23.5761 23.9035 24.9312 19.3949 25.8772 16.838C27.0875 13.6107 28.2409 10.3806 29.3375 7.14759C29.3584 7.0849 29.3964 7.02954 29.4474 6.98763C29.4983 6.94572 29.5603 6.91888 29.6264 6.91007C29.6925 6.90125 29.7602 6.91082 29.822 6.93769C29.8838 6.96456 29.9374 7.00772 29.9767 7.06238L39.3007 20.5454C39.8859 21.392 40.3206 21.321 40.6047 20.3324L45.2411 4.42027C45.3604 3.99413 45.6189 3.88332 46.0167 4.08787C46.2042 4.19014 46.3547 4.33789 46.4684 4.53107C50.2923 11.3323 54.2099 17.9318 58.2214 24.3296C58.2663 24.3992 58.3283 24.4562 58.4015 24.4951C58.4747 24.5339 58.5566 24.5535 58.6395 24.5518C58.7223 24.5501 58.8034 24.5271 58.8749 24.4853C58.9464 24.4434 59.006 24.384 59.0481 24.3126C59.2697 23.9376 59.4486 23.5654 59.585 23.1961C61.9543 17.0028 64.3748 10.4118 66.8465 3.42311C66.8782 3.33235 66.9357 3.25279 67.012 3.19423C67.0883 3.13567 67.18 3.10065 67.2759 3.09342C67.3717 3.08618 67.4677 3.10705 67.5518 3.1535C67.636 3.19995 67.7049 3.26994 67.7499 3.35492C70.6647 8.87203 73.7784 14.7159 77.0909 20.8864C78.5966 23.6989 79.7188 26.358 80.4574 28.8637C82.2074 34.7899 84.1251 41.0429 86.2103 47.6225C86.2297 47.6844 86.2349 47.7498 86.2257 47.8139C86.2165 47.8781 86.1931 47.9394 86.1571 47.9933C86.1212 48.0472 86.0736 48.0924 86.0179 48.1256C85.9623 48.1587 85.8999 48.1791 85.8353 48.185L43.2808 52.0799ZM62.587 34.7531C62.1479 32.3609 60.7766 30.2411 58.7745 28.86C56.7725 27.4789 54.3039 26.9496 51.9116 27.3887L48.8938 27.9425C46.5016 28.3816 44.3818 29.753 43.0007 31.755C41.6196 33.757 41.0903 36.2256 41.5294 38.6179L41.8556 40.395C42.2946 42.7873 43.666 44.9071 45.668 46.2882C47.67 47.6693 50.1387 48.1985 52.5309 47.7595L55.5488 47.2057C57.941 46.7666 60.0608 45.3952 61.4419 43.3932C62.823 41.3912 63.3522 38.9225 62.9132 36.5303L62.587 34.7531ZM38.9708 36.075C38.3159 33.6975 36.7434 31.6775 34.5991 30.4594C32.4549 29.2413 29.9146 28.9248 27.537 29.5797L24.7762 30.3401C23.599 30.6644 22.4971 31.2174 21.5336 31.9675C20.5701 32.7176 19.7637 33.6501 19.1605 34.7118C18.5574 35.7736 18.1693 36.9437 18.0184 38.1554C17.8674 39.3671 17.9566 40.5967 18.2809 41.774L18.7155 43.3516C19.3704 45.7291 20.9429 47.7491 23.0872 48.9672C25.2314 50.1853 27.7717 50.5018 30.1493 49.8469L32.9101 49.0865C34.0873 48.7622 35.1892 48.2092 36.1527 47.4592C37.1163 46.7091 37.9226 45.7765 38.5258 44.7148C39.1289 43.653 39.517 42.4829 39.668 41.2712C39.8189 40.0595 39.7297 38.8299 39.4054 37.6526L38.9708 36.075Z" fill="#F69FAC"/>
<path d="M62.9134 36.5303C63.3524 38.9225 62.8232 41.3912 61.4421 43.3932C60.061 45.3952 57.9412 46.7666 55.549 47.2057L52.5311 47.7595C50.1389 48.1986 47.6703 47.6693 45.6682 46.2882C43.6662 44.9072 42.2948 42.7873 41.8558 40.3951L41.5296 38.6179C41.0905 36.2257 41.6198 33.757 43.0009 31.755C44.382 29.753 46.5018 28.3816 48.894 27.9426L51.9119 27.3887C54.3041 26.9497 56.7727 27.4789 58.7748 28.86C60.7768 30.2411 62.1482 32.3609 62.5872 34.7531L62.9134 36.5303ZM58.8937 37.2687C58.9849 36.5945 58.8044 35.9117 58.3922 35.3705C57.9799 34.8292 57.3695 34.4739 56.6952 34.3828L55.8675 34.2709C55.1932 34.1797 54.5104 34.3601 53.9692 34.7724C53.428 35.1847 53.0727 35.7952 52.9816 36.4694L52.913 36.9761C52.8219 37.6503 53.0023 38.3332 53.4146 38.8744C53.8269 39.4156 54.4373 39.7709 55.1115 39.8621L55.9392 39.974C56.6135 40.0651 57.2963 39.8847 57.8375 39.4724C58.3787 39.0601 58.734 38.4497 58.8251 37.7755L58.8937 37.2687Z" fill="white"/>
<path d="M39.4058 37.6528C39.73 38.83 39.8192 40.0596 39.6683 41.2713C39.5174 42.483 39.1293 43.6532 38.5261 44.7149C37.923 45.7766 37.1166 46.7092 36.1531 47.4593C35.1895 48.2094 34.0877 48.7623 32.9104 49.0866L30.1496 49.847C27.7721 50.5019 25.2318 50.1855 23.0875 48.9674C20.9433 47.7493 19.3707 45.7293 18.7158 43.3517L18.2812 41.7741C17.957 40.5968 17.8678 39.3672 18.0187 38.1555C18.1696 36.9438 18.5577 35.7737 19.1609 34.712C19.764 33.6502 20.5704 32.7177 21.5339 31.9676C22.4975 31.2175 23.5993 30.6645 24.7766 30.3403L27.5374 29.5798C29.9149 28.925 32.4552 29.2414 34.5995 30.4595C36.7437 31.6776 38.3163 33.6976 38.9712 36.0751L39.4058 37.6528ZM35.5891 38.9591C35.4989 38.2027 35.0923 37.5155 34.4587 37.0486C33.8252 36.5817 33.0166 36.3733 32.2109 36.4694C31.8119 36.517 31.4256 36.6379 31.0741 36.8251C30.7226 37.0124 30.4127 37.2624 30.1622 37.5609C29.9116 37.8594 29.7253 38.2005 29.6139 38.5647C29.5025 38.9289 29.4681 39.3092 29.5128 39.6837C29.603 40.4401 30.0096 41.1273 30.6431 41.5942C31.2766 42.0611 32.0852 42.2695 32.891 42.1734C33.29 42.1258 33.6762 42.0049 34.0278 41.8176C34.3793 41.6303 34.6892 41.3803 34.9397 41.0819C35.1902 40.7834 35.3765 40.4423 35.488 40.0781C35.5994 39.7138 35.6337 39.3336 35.5891 38.9591Z" fill="white"/>
<path d="M56.695 34.3825L55.8673 34.2706C54.4632 34.0808 53.1711 35.0651 52.9813 36.4691L52.9128 36.9759C52.7229 38.3799 53.7072 39.672 55.1113 39.8618L55.939 39.9738C57.343 40.1636 58.6351 39.1793 58.825 37.7752L58.8935 37.2685C59.0833 35.8644 58.099 34.5723 56.695 34.3825Z" fill="black"/>
<path d="M32.8911 42.1734C34.569 41.9733 35.777 40.5342 35.5892 38.9591C35.4013 37.384 33.8888 36.2693 32.2109 36.4694C30.533 36.6695 29.325 38.1085 29.5128 39.6837C29.7006 41.2588 31.2131 42.3734 32.8911 42.1734Z" fill="black"/>
<path d="M43.281 52.0798L41.6105 59.9123C41.4855 60.4805 41.565 61.0203 41.8491 61.5316L46.4173 69.8585C46.8295 70.6038 47.1201 71.4094 47.2782 72.2448L51.5481 94.7451C51.5559 94.7835 51.5716 94.8199 51.5943 94.8519C51.617 94.8839 51.6462 94.9108 51.6799 94.9309C51.7136 94.951 51.7511 94.9638 51.7901 94.9684C51.829 94.9731 51.8685 94.9696 51.906 94.9581L56.2271 93.5604C56.7669 93.3843 57.1561 93.5576 57.3948 94.0803L57.497 94.3105C57.5442 94.4141 57.5688 94.5267 57.5691 94.6407C57.5694 94.7548 57.5454 94.8678 57.4988 94.9724C57.4521 95.0769 57.3838 95.1707 57.2983 95.2476C57.2128 95.3244 57.1121 95.3827 57.0027 95.4184L50.7896 97.3957C50.2668 97.5662 49.9572 97.3815 49.8606 96.8417C48.5424 89.6257 47.1446 82.1654 45.6673 74.4608C44.994 70.9408 43.102 67.9493 41.3804 64.8214C40.9883 64.1055 40.7042 64.1453 40.5281 64.9408L32.832 99.9696C32.8178 100.035 32.8186 100.103 32.8344 100.168C32.8503 100.233 32.8806 100.294 32.9233 100.346C32.966 100.397 33.0198 100.439 33.0807 100.466C33.1417 100.494 33.2081 100.508 33.2751 100.507L37.8349 100.421C38.386 100.41 38.6673 100.68 38.6786 101.231L38.6871 101.725C38.6906 101.825 38.6739 101.924 38.6382 102.017C38.6025 102.11 38.5484 102.195 38.4792 102.266C38.41 102.338 38.3271 102.395 38.2354 102.434C38.1438 102.472 38.0452 102.492 37.9457 102.492L30.599 102.484C30.5518 102.484 30.5054 102.473 30.4629 102.452C30.4205 102.432 30.3832 102.401 30.3537 102.364C30.3243 102.326 30.3035 102.282 30.2928 102.235C30.2822 102.188 30.2819 102.139 30.2922 102.092L39.2326 61.651C39.3292 61.2135 39.2724 60.7958 39.0622 60.3981L35.1416 53.0088C35.3235 52.3668 35.9968 52.29 37.1616 52.7787L39.5053 57.168C39.5455 57.2411 39.607 57.3001 39.6817 57.3373C39.7563 57.3744 39.8405 57.3879 39.9231 57.3759C40.0056 57.3638 40.0824 57.3268 40.1434 57.2699C40.2043 57.2129 40.2463 57.1387 40.2639 57.0571L41.2269 52.3611C41.6247 51.952 42.3093 51.8582 43.281 52.0798Z" fill="black"/>
<path d="M41.227 52.3612L40.2639 57.0573C40.2464 57.1389 40.2043 57.2131 40.1434 57.27C40.0825 57.327 40.0056 57.364 39.9231 57.3761C39.8406 57.3881 39.7564 57.3746 39.6817 57.3375C39.6071 57.3003 39.5455 57.2412 39.5054 57.1681L37.1616 52.7789C38.4798 52.3414 39.835 52.2022 41.227 52.3612Z" fill="#F69FAC"/>
</svg>
