<svg width="95" height="106" viewBox="0 0 95 106" fill="none" xmlns="http://www.w3.org/2000/svg">
<path d="M37.1087 73.261L21.1028 90.0766C21.0438 90.1384 20.9726 90.1875 20.8936 90.2207C20.8146 90.2539 20.7295 90.2707 20.6434 90.2699C20.5573 90.2691 20.4721 90.2507 20.3928 90.216C20.3135 90.1813 20.242 90.131 20.1824 90.068L16.2704 85.8833C16.1784 85.7855 16.0678 85.7071 15.945 85.6527C15.8223 85.5984 15.6899 85.5691 15.5556 85.5668C15.4214 85.5644 15.288 85.5889 15.1634 85.6389C15.0388 85.6888 14.9254 85.7633 14.83 85.8578L14.6255 86.0708C14.4807 86.2149 14.3986 86.4103 14.397 86.6145C14.3954 86.8188 14.4744 87.0154 14.617 87.1617L20.3017 93.0254C20.529 93.2641 20.7562 93.2641 20.9835 93.0254L37.6457 75.6048" stroke="black" stroke-width="1.70457"/>
<path d="M37.6454 75.6048L39.35 84.9885C39.4863 85.7498 39.7818 85.8152 40.2363 85.1845L47.9154 74.4372C47.9653 74.3663 48.0342 74.311 48.1141 74.2776C48.1941 74.2442 48.2819 74.234 48.3674 74.2482C48.4528 74.2624 48.5326 74.3006 48.5974 74.3581C48.6621 74.4157 48.7094 74.4904 48.7336 74.5736L51.674 84.3152C51.8955 85.0481 52.1484 85.0595 52.4325 84.3492L54.9041 78.1105" stroke="#FF3B00" stroke-width="1.70457"/>
<path d="M54.9044 78.1105L56.4555 82.0481C56.5578 82.3038 56.5521 82.5566 56.4385 82.8066L48.3162 100.986C48.1628 101.321 48.2594 101.554 48.606 101.685L56.9839 104.881C57.0648 104.913 57.1514 104.928 57.2384 104.925C57.3253 104.922 57.4107 104.901 57.4892 104.863C57.5676 104.826 57.6374 104.772 57.6942 104.706C57.751 104.64 57.7935 104.563 57.8192 104.48L57.9982 103.909C58.1459 103.443 57.9925 103.122 57.5379 102.946L51.2822 100.568C51.2256 100.547 51.174 100.514 51.1306 100.472C51.0871 100.43 51.0528 100.379 51.0296 100.323C51.0065 100.267 50.995 100.207 50.9959 100.147C50.9968 100.086 51.0101 100.027 51.035 99.9716L58.7141 82.7726C58.8076 82.5672 58.8552 82.3435 58.8537 82.1169C58.8523 81.8903 58.8017 81.6662 58.7055 81.46L55.8589 75.46" stroke="black" stroke-width="1.70457"/>
<path d="M55.859 75.4597C55.9329 75.1699 55.9698 74.8035 55.9698 74.3603C55.9641 74.2069 55.9982 74.0875 56.0721 74.0023C56.1346 73.9284 56.2084 73.8745 56.2937 73.8404C56.5437 73.7438 56.7454 73.8063 56.8988 74.0279L65.2597 85.9513C65.6915 86.5706 65.8932 86.5025 65.8648 85.7468L65.2085 69.5619C65.2065 69.4945 65.223 69.4278 65.2564 69.3692C65.2897 69.3106 65.3386 69.2623 65.3977 69.2297C65.4567 69.1971 65.5236 69.1814 65.591 69.1844C65.6584 69.1874 65.7236 69.2089 65.7796 69.2466L75.3166 75.7921C75.387 75.84 75.4699 75.8666 75.5551 75.8686C75.6404 75.8706 75.7241 75.8479 75.7959 75.8034C75.8677 75.7589 75.9244 75.6944 75.9589 75.6182C75.9934 75.5419 76.0042 75.4572 75.9899 75.3745L74.4217 64.8658C74.3763 64.5647 74.5069 64.3971 74.8138 64.363L88.2287 62.9908C89.5128 62.8601 89.5895 62.4823 88.4588 61.8573L77.7882 55.9509C77.7264 55.9171 77.6751 55.867 77.6399 55.8059C77.6047 55.7449 77.587 55.6753 77.5888 55.6049C77.5906 55.5344 77.6117 55.4658 77.6499 55.4066C77.6881 55.3473 77.7418 55.2998 77.8053 55.2691L92.0214 48.5191C92.1061 48.4791 92.1771 48.4151 92.2257 48.3351C92.2743 48.255 92.2983 48.1624 92.2947 48.0688C92.2911 47.9752 92.26 47.8848 92.2053 47.8088C92.1507 47.7327 92.0748 47.6744 91.9873 47.6412L78.7854 42.7917C78.7423 42.7755 78.7039 42.7487 78.674 42.7138C78.644 42.6788 78.6233 42.6368 78.614 42.5917C78.6046 42.5466 78.6068 42.4999 78.6204 42.4559C78.634 42.4118 78.6585 42.372 78.6917 42.34L93.8282 27.6041C93.8857 27.5477 93.9202 27.472 93.9249 27.3917C93.9296 27.3113 93.9043 27.2321 93.8538 27.1694C93.7458 27.033 93.6038 26.9648 93.4276 26.9648C88.831 26.9251 84.2599 26.9563 79.7144 27.0586C79.6627 27.0608 79.6112 27.0506 79.5642 27.0288C79.5173 27.0071 79.4762 26.9744 79.4445 26.9335C79.4128 26.8926 79.3914 26.8446 79.382 26.7937C79.3726 26.7429 79.3755 26.6905 79.3905 26.641L83.4985 13.0385C83.7826 12.101 83.5127 11.8936 82.6889 12.4164L69.5041 20.8199C69.4567 20.8482 69.4026 20.8637 69.3474 20.8646C69.2922 20.8655 69.2376 20.852 69.1893 20.8252C69.141 20.7985 69.1005 20.7594 69.072 20.7121C69.0435 20.6648 69.0279 20.6109 69.0268 20.5557L69.0353 5.50431C69.0345 5.41567 69.0091 5.32903 68.9618 5.25404C68.9145 5.17906 68.8473 5.11871 68.7676 5.07978C68.688 5.04085 68.5991 5.02484 68.5109 5.03359C68.4227 5.04234 68.3387 5.07548 68.2682 5.1293L56.3448 14.4021C56.1062 14.584 55.9044 14.5499 55.7397 14.2999C55.6374 14.1521 55.609 13.9675 55.6545 13.7459C55.6999 13.513 55.6857 13.2829 55.6118 13.0556L51.9896 2.63212C51.9738 2.58275 51.9434 2.53936 51.9023 2.50769C51.8613 2.47602 51.8116 2.45756 51.7598 2.45479C51.708 2.45201 51.6567 2.46508 51.6125 2.49219C51.5683 2.51929 51.5333 2.55918 51.5124 2.60658L45.018 15.8766C44.9742 15.9649 44.9086 16.0406 44.8274 16.0965C44.7462 16.1523 44.6521 16.1866 44.554 16.196C44.4559 16.2054 44.357 16.1896 44.2666 16.1501C44.1763 16.1106 44.0976 16.0488 44.0378 15.9704L33.282 1.82249C32.8048 1.1918 32.6286 1.26562 32.7536 2.04404L35.5576 19.4221C35.6088 19.7517 35.4809 19.8511 35.1741 19.7204L20.4893 13.3368C20.4323 13.3108 20.369 13.3019 20.3071 13.3112C20.2452 13.3205 20.1873 13.3475 20.1404 13.389C20.0935 13.4304 20.0596 13.4846 20.0429 13.5449C20.0261 13.6052 20.0273 13.6691 20.0461 13.7289L24.7507 29.445C24.7669 29.4955 24.7701 29.5494 24.76 29.6015C24.7498 29.6537 24.7267 29.7024 24.6927 29.7432C24.6587 29.784 24.6149 29.8156 24.5655 29.8349C24.516 29.8543 24.4624 29.8609 24.4098 29.854L8.54026 27.8086C7.54025 27.6836 7.39251 27.9819 8.09706 28.7035L21.4438 42.3655C21.4662 42.3872 21.4822 42.4145 21.4902 42.4446C21.4981 42.4747 21.4977 42.5064 21.4889 42.5363C21.4801 42.5661 21.4634 42.593 21.4404 42.614C21.4174 42.635 21.3891 42.6493 21.3586 42.6553L2.57428 47.1724C1.2504 47.4906 1.26745 47.7293 2.62542 47.8884L18.1455 49.7037C18.2186 49.7123 18.2876 49.7418 18.3445 49.7885C18.4013 49.8353 18.4434 49.8975 18.4659 49.9676C18.4884 50.0377 18.4902 50.1127 18.4711 50.1838C18.4521 50.2549 18.413 50.319 18.3586 50.3685L5.77034 61.8573C4.87261 62.6754 5.01465 62.951 6.19649 62.684C10.9579 61.6215 15.796 60.3942 20.7109 59.0021C20.7874 58.9795 20.8686 58.9802 20.9446 59.004C21.0205 59.0278 21.088 59.0737 21.1386 59.1361C21.1893 59.1985 21.2209 59.2747 21.2297 59.3553C21.2385 59.436 21.2241 59.5176 21.1881 59.5902L14.3443 73.0563C14.3128 73.1219 14.3031 73.1959 14.3166 73.2674C14.3302 73.3389 14.3662 73.4043 14.4196 73.4538C14.4729 73.5033 14.5407 73.5345 14.6131 73.5427C14.6854 73.5509 14.7585 73.5358 14.8216 73.4995C19.083 70.8858 23.4126 68.4255 27.8104 66.1187C28.1172 65.9539 28.2706 66.0448 28.2706 66.3914L28.2365 78.7154C28.2365 79.1927 28.3984 79.2552 28.7223 78.9029C31.3644 76.062 33.8218 72.9483 36.0946 69.5619C36.1473 69.4848 36.2215 69.4249 36.308 69.3895C36.3945 69.3542 36.4895 69.3451 36.5812 69.3632C36.6729 69.3814 36.7571 69.426 36.8237 69.4916C36.8902 69.5573 36.936 69.641 36.9554 69.7324C37.2111 71.0279 37.2622 72.204 37.1088 73.2608" stroke="#FF3B00" stroke-width="1.70457"/>
<path d="M55.8588 75.46C55.3246 76.0283 55.0063 76.912 54.9041 78.1111" stroke="black" stroke-width="1.70457"/>
<path d="M37.6455 75.6048C37.958 74.3547 37.779 73.5735 37.1085 73.261" stroke="black" stroke-width="1.70457"/>
<path d="M48.2387 41.6063C47.8603 39.3686 46.6084 37.373 44.7585 36.0583C42.9086 34.7437 40.6123 34.2177 38.3747 34.5962L35.7528 35.0397C33.5151 35.4182 31.5195 36.67 30.2048 38.5199C28.8902 40.3698 28.3642 42.6661 28.7427 44.9038L29.0127 46.5004C29.3912 48.7381 30.6431 50.7338 32.493 52.0484C34.3428 53.3631 36.6392 53.889 38.8768 53.5105L41.4987 53.067C43.7364 52.6885 45.732 51.4367 47.0467 49.5868C48.3613 47.7369 48.8873 45.4406 48.5088 43.203L48.2387 41.6063Z" stroke="#FF3B00" stroke-width="1.70457"/>
<path d="M70.085 42.6454C69.9851 41.5262 69.6657 40.4376 69.1451 39.4417C68.6245 38.4459 67.9128 37.5623 67.0507 36.8415C66.1886 36.1207 65.1931 35.5768 64.1208 35.2408C63.0485 34.9047 61.9205 34.7832 60.8012 34.8831L58.0678 35.127C56.9485 35.2269 55.8599 35.5463 54.864 36.0669C53.8682 36.5875 52.9846 37.2992 52.2638 38.1613C51.543 39.0234 50.9991 40.019 50.663 41.0913C50.327 42.1636 50.2055 43.2915 50.3054 44.4108L50.4448 45.9727C50.5447 47.092 50.8641 48.1807 51.3847 49.1765C51.9053 50.1723 52.617 51.0559 53.479 51.7767C54.3411 52.4975 55.3367 53.0414 56.409 53.3774C57.4813 53.7134 58.6093 53.835 59.7285 53.7351L62.462 53.4912C63.5812 53.3913 64.6699 53.0719 65.6657 52.5513C66.6616 52.0307 67.5451 51.319 68.2659 50.457C68.9867 49.5949 69.5307 48.5993 69.8667 47.527C70.2028 46.4547 70.3243 45.3267 70.2244 44.2074L70.085 42.6454Z" stroke="#FF3B00" stroke-width="1.70457"/>
<path d="M43.0852 43.7975C43.0229 42.5672 42.4493 41.4133 41.4905 40.5896C40.5318 39.766 39.2664 39.3401 37.9729 39.4056C37.3324 39.4381 36.7042 39.5902 36.1243 39.8533C35.5443 40.1164 35.024 40.4853 34.5929 40.9391C34.1618 41.3928 33.8284 41.9224 33.6118 42.4976C33.3952 43.0728 33.2996 43.6825 33.3305 44.2917C33.3928 45.522 33.9665 46.6759 34.9252 47.4996C35.884 48.3232 37.1493 48.7491 38.4428 48.6836C39.0833 48.6511 39.7115 48.499 40.2914 48.2359C40.8714 47.9728 41.3917 47.6039 41.8228 47.1501C42.2539 46.6964 42.5873 46.1668 42.8039 45.5916C43.0205 45.0164 43.1161 44.4067 43.0852 43.7975Z" stroke="black" stroke-width="1.70457"/>
<path d="M64.7344 44.6621C64.7917 44.0672 64.7238 43.4661 64.5345 42.8931C64.3453 42.3202 64.0384 41.7866 63.6315 41.3229C63.2245 40.8591 62.7254 40.4742 62.1627 40.1903C61.6 39.9063 60.9847 39.7288 60.3519 39.6679C59.7191 39.6069 59.0812 39.6638 58.4746 39.8352C57.8681 40.0065 57.3047 40.2891 56.8168 40.6667C56.3288 41.0443 55.9258 41.5095 55.6307 42.0358C55.3356 42.5621 55.1543 43.1392 55.097 43.7342C55.0397 44.3291 55.1076 44.9302 55.2969 45.5031C55.4861 46.0761 55.793 46.6096 56.1999 47.0734C56.6069 47.5371 57.1059 47.922 57.6686 48.2059C58.2314 48.4899 58.8467 48.6674 59.4795 48.7284C60.1123 48.7893 60.7502 48.7324 61.3567 48.5611C61.9633 48.3897 62.5266 48.1071 63.0146 47.7295C63.5025 47.352 63.9056 46.8868 64.2007 46.3604C64.4958 45.8341 64.6771 45.257 64.7344 44.6621Z" stroke="black" stroke-width="1.70457"/>
<path d="M55.859 75.4597C55.3249 76.0279 55.0067 76.9114 54.9044 78.1103L52.4328 84.349C52.1487 85.0592 51.8959 85.0479 51.6743 84.3149L48.7339 74.5733C48.7097 74.4901 48.6625 74.4154 48.5977 74.3579C48.5329 74.3003 48.4532 74.2622 48.3677 74.248C48.2822 74.2337 48.1944 74.2439 48.1145 74.2774C48.0345 74.3108 47.9656 74.3661 47.9157 74.437L40.2367 85.1843C39.7821 85.815 39.4866 85.7496 39.3503 84.9882L37.6457 75.6046C37.9582 74.3546 37.7792 73.5733 37.1088 73.2608C37.2622 72.204 37.2111 71.0279 36.9554 69.7324C36.936 69.641 36.8902 69.5573 36.8237 69.4916C36.7571 69.426 36.6729 69.3814 36.5812 69.3632C36.4895 69.3451 36.3945 69.3542 36.308 69.3895C36.2215 69.4249 36.1473 69.4848 36.0946 69.5619C33.8218 72.9483 31.3644 76.062 28.7223 78.9029C28.3984 79.2552 28.2365 79.1927 28.2365 78.7154L28.2706 66.3914C28.2706 66.0448 28.1172 65.9539 27.8104 66.1187C23.4126 68.4255 19.083 70.8858 14.8216 73.4995C14.7585 73.5358 14.6854 73.5509 14.6131 73.5427C14.5407 73.5345 14.4729 73.5033 14.4196 73.4538C14.3662 73.4043 14.3302 73.3389 14.3166 73.2674C14.3031 73.1959 14.3128 73.1219 14.3443 73.0563L21.1881 59.5902C21.2241 59.5176 21.2385 59.436 21.2297 59.3553C21.2209 59.2747 21.1893 59.1985 21.1386 59.1361C21.088 59.0737 21.0205 59.0278 20.9446 59.004C20.8686 58.9802 20.7874 58.9795 20.7109 59.0021C15.796 60.3942 10.9579 61.6215 6.19649 62.684C5.01465 62.951 4.87261 62.6754 5.77034 61.8573L18.3586 50.3685C18.413 50.319 18.4521 50.2549 18.4711 50.1838C18.4902 50.1127 18.4884 50.0377 18.4659 49.9676C18.4434 49.8975 18.4013 49.8353 18.3445 49.7885C18.2876 49.7418 18.2186 49.7123 18.1455 49.7037L2.62542 47.8884C1.26745 47.7293 1.2504 47.4906 2.57428 47.1724L21.3586 42.6553C21.3891 42.6493 21.4174 42.635 21.4404 42.614C21.4634 42.593 21.4801 42.5661 21.4889 42.5363C21.4977 42.5064 21.4981 42.4747 21.4902 42.4446C21.4822 42.4145 21.4662 42.3872 21.4438 42.3655L8.09706 28.7035C7.39251 27.9819 7.54025 27.6836 8.54026 27.8086L24.4098 29.854C24.4624 29.8609 24.516 29.8543 24.5655 29.8349C24.6149 29.8156 24.6587 29.784 24.6927 29.7432C24.7267 29.7024 24.7498 29.6537 24.76 29.6015C24.7701 29.5494 24.7669 29.4955 24.7507 29.445L20.0461 13.7289C20.0273 13.6691 20.0261 13.6052 20.0429 13.5449C20.0596 13.4846 20.0935 13.4304 20.1404 13.389C20.1873 13.3475 20.2452 13.3205 20.3071 13.3112C20.369 13.3019 20.4323 13.3108 20.4893 13.3368L35.1741 19.7204C35.4809 19.8511 35.6088 19.7517 35.5576 19.4221L32.7536 2.04404C32.6286 1.26562 32.8048 1.1918 33.282 1.82249L44.0378 15.9704C44.0976 16.0488 44.1763 16.1106 44.2666 16.1501C44.357 16.1896 44.4559 16.2054 44.554 16.196C44.6521 16.1866 44.7462 16.1523 44.8274 16.0965C44.9086 16.0406 44.9742 15.9649 45.018 15.8766L51.5124 2.60658C51.5333 2.55918 51.5683 2.51929 51.6125 2.49219C51.6567 2.46508 51.708 2.45201 51.7598 2.45479C51.8116 2.45756 51.8613 2.47602 51.9023 2.50769C51.9434 2.53936 51.9738 2.58275 51.9896 2.63212L55.6118 13.0556C55.6857 13.2829 55.6999 13.513 55.6545 13.7459C55.609 13.9675 55.6374 14.1521 55.7397 14.2999C55.9044 14.5499 56.1062 14.584 56.3448 14.4021L68.2682 5.1293C68.3387 5.07548 68.4227 5.04234 68.5109 5.03359C68.5991 5.02484 68.688 5.04085 68.7676 5.07978C68.8473 5.11871 68.9145 5.17906 68.9618 5.25405C69.0091 5.32903 69.0345 5.41567 69.0353 5.50431L69.0268 20.5557C69.0279 20.6109 69.0435 20.6648 69.072 20.7121C69.1005 20.7594 69.141 20.7985 69.1893 20.8252C69.2376 20.852 69.2922 20.8655 69.3474 20.8646C69.4026 20.8637 69.4567 20.8482 69.5041 20.8199L82.6889 12.4164C83.5127 11.8936 83.7826 12.101 83.4985 13.0385L79.3905 26.641C79.3755 26.6905 79.3726 26.7429 79.382 26.7937C79.3913 26.8446 79.4128 26.8926 79.4445 26.9335C79.4762 26.9744 79.5173 27.0071 79.5642 27.0288C79.6112 27.0506 79.6627 27.0608 79.7144 27.0586C84.2599 26.9563 88.831 26.9251 93.4276 26.9648C93.6038 26.9648 93.7458 27.033 93.8538 27.1694C93.9043 27.232 93.9296 27.3113 93.9249 27.3917C93.9202 27.472 93.8857 27.5477 93.8282 27.6041L78.6917 42.34C78.6585 42.372 78.634 42.4118 78.6204 42.4559C78.6068 42.4999 78.6046 42.5466 78.614 42.5917C78.6233 42.6368 78.644 42.6788 78.674 42.7138C78.7039 42.7487 78.7423 42.7755 78.7854 42.7917L91.9873 47.6412C92.0748 47.6744 92.1507 47.7327 92.2053 47.8088C92.26 47.8848 92.2911 47.9753 92.2947 48.0688C92.2983 48.1624 92.2743 48.255 92.2257 48.3351C92.1771 48.4151 92.1061 48.4791 92.0214 48.5191L77.8053 55.2691C77.7418 55.2998 77.6881 55.3473 77.6499 55.4066C77.6117 55.4658 77.5906 55.5344 77.5888 55.6049C77.587 55.6753 77.6047 55.7449 77.6399 55.8059C77.6751 55.867 77.7264 55.9171 77.7882 55.9509L88.4588 61.8573C89.5895 62.4823 89.5128 62.8601 88.2287 62.9908L74.8138 64.363C74.5069 64.3971 74.3763 64.5647 74.4217 64.8658L75.9899 75.3745C76.0042 75.4572 75.9934 75.5419 75.9589 75.6182C75.9244 75.6944 75.8677 75.7589 75.7959 75.8034C75.7241 75.8479 75.6404 75.8706 75.5551 75.8686C75.4699 75.8666 75.387 75.84 75.3166 75.7921L65.7796 69.2466C65.7236 69.2089 65.6584 69.1874 65.591 69.1844C65.5236 69.1814 65.4567 69.1971 65.3977 69.2297C65.3386 69.2623 65.2897 69.3106 65.2564 69.3692C65.223 69.4278 65.2065 69.4945 65.2085 69.5619L65.8648 85.7468C65.8932 86.5025 65.6915 86.5706 65.2597 85.9513L56.8988 74.0279C56.7454 73.8063 56.5437 73.7438 56.2937 73.8404C56.2084 73.8745 56.1346 73.9284 56.0721 74.0023C55.9982 74.0875 55.9641 74.2069 55.9698 74.3603C55.9698 74.8035 55.9329 75.1699 55.859 75.4597ZM48.2388 41.606C47.8604 39.3684 46.6085 37.3727 44.7586 36.0581C42.9087 34.7434 40.6124 34.2174 38.3748 34.5959L35.7529 35.0394C33.5152 35.4179 31.5196 36.6697 30.2049 38.5196C28.8903 40.3695 28.3643 42.6659 28.7428 44.9035L29.0128 46.5001C29.3913 48.7378 30.6432 50.7335 32.4931 52.0481C34.3429 53.3628 36.6393 53.8887 38.8769 53.5103L41.4988 53.0667C43.7365 52.6883 45.7321 51.4364 47.0468 49.5865C48.3614 47.7367 48.8874 45.4403 48.5089 43.2027L48.2388 41.606ZM70.0854 42.6451C69.9855 41.5258 69.6661 40.4372 69.1455 39.4414C68.6249 38.4456 67.9132 37.562 67.0511 36.8412C66.1891 36.1204 65.1935 35.5765 64.1212 35.2404C63.0489 34.9044 61.9209 34.7829 60.8016 34.8828L58.0682 35.1267C56.9489 35.2266 55.8603 35.546 54.8644 36.0666C53.8686 36.5872 52.9851 37.2989 52.2643 38.1609C51.5435 39.023 50.9995 40.0186 50.6634 41.0909C50.3274 42.1632 50.2059 43.2912 50.3058 44.4105L50.4452 45.9724C50.5451 47.0917 50.8645 48.1803 51.3851 49.1762C51.9057 50.172 52.6174 51.0555 53.4795 51.7763C54.3415 52.4971 55.3372 53.041 56.4094 53.3771C57.4817 53.7131 58.6097 53.8347 59.729 53.7348L62.4624 53.4908C63.5817 53.391 64.6703 53.0716 65.6662 52.551C66.662 52.0304 67.5456 51.3187 68.2664 50.4566C68.9872 49.5945 69.5311 48.5989 69.8671 47.5266C70.2032 46.4543 70.3247 45.3263 70.2248 44.2071L70.0854 42.6451Z" fill="#FF3B00"/>
<path d="M48.5088 43.203C48.8873 45.4406 48.3613 47.7369 47.0467 49.5868C45.732 51.4367 43.7364 52.6885 41.4987 53.067L38.8768 53.5105C36.6392 53.889 34.3428 53.3631 32.493 52.0484C30.6431 50.7338 29.3912 48.7381 29.0127 46.5004L28.7427 44.9038C28.3642 42.6661 28.8902 40.3698 30.2048 38.5199C31.5195 36.67 33.5151 35.4182 35.7528 35.0397L38.3747 34.5962C40.6123 34.2177 42.9086 34.7437 44.7585 36.0583C46.6084 37.373 47.8603 39.3686 48.2387 41.6063L48.5088 43.203ZM43.0855 43.7978C43.0231 42.5674 42.4495 41.4135 41.4908 40.5899C40.532 39.7662 39.2667 39.3403 37.9732 39.4059C37.3327 39.4383 36.7045 39.5904 36.1246 39.8535C35.5446 40.1166 35.0242 40.4856 34.5932 40.9393C34.1621 41.393 33.8287 41.9226 33.6121 42.4978C33.3955 43.0731 33.2999 43.6827 33.3308 44.2919C33.3931 45.5223 33.9667 46.6762 34.9255 47.4998C35.8842 48.3234 37.1496 48.7493 38.4431 48.6838C39.0836 48.6514 39.7118 48.4992 40.2917 48.2361C40.8716 47.973 41.392 47.6041 41.8231 47.1504C42.2542 46.6967 42.5875 46.1671 42.8041 45.5918C43.0207 45.0166 43.1163 44.407 43.0855 43.7978Z" fill="white"/>
<path d="M70.2244 44.2074C70.3243 45.3267 70.2028 46.4547 69.8667 47.527C69.5307 48.5993 68.9867 49.5949 68.2659 50.457C67.5451 51.319 66.6616 52.0307 65.6657 52.5513C64.6699 53.0719 63.5812 53.3913 62.462 53.4912L59.7285 53.7351C58.6093 53.835 57.4813 53.7134 56.409 53.3774C55.3367 53.0414 54.3411 52.4975 53.479 51.7767C52.617 51.0559 51.9053 50.1723 51.3847 49.1765C50.8641 48.1807 50.5447 47.092 50.4448 45.9727L50.3054 44.4108C50.2055 43.2915 50.327 42.1636 50.663 41.0913C50.9991 40.019 51.543 39.0234 52.2638 38.1613C52.9846 37.2992 53.8682 36.5875 54.864 36.0669C55.8599 35.5463 56.9485 35.2269 58.0678 35.127L60.8012 34.8831C61.9205 34.7832 63.0485 34.9047 64.1208 35.2408C65.1931 35.5768 66.1886 36.1207 67.0507 36.8415C67.9128 37.5623 68.6245 38.4459 69.1451 39.4417C69.6657 40.4376 69.9851 41.5262 70.085 42.6454L70.2244 44.2074ZM64.7342 44.6623C64.7915 44.0674 64.7235 43.4663 64.5343 42.8933C64.345 42.3204 64.0382 41.7868 63.6312 41.3231C63.2243 40.8593 62.7252 40.4744 62.1625 40.1905C61.5998 39.9065 60.9844 39.729 60.3516 39.6681C59.7188 39.6071 59.0809 39.664 58.4744 39.8354C57.8678 40.0067 57.3045 40.2893 56.8165 40.6669C56.3286 41.0445 55.9255 41.5097 55.6304 42.036C55.3354 42.5623 55.154 43.1394 55.0967 43.7344C55.0394 44.3293 55.1074 44.9304 55.2966 45.5033C55.4859 46.0763 55.7927 46.6098 56.1997 47.0736C56.6066 47.5373 57.1057 47.9222 57.6684 48.2061C58.2311 48.4901 58.8464 48.6676 59.4792 48.7286C60.112 48.7895 60.7499 48.7326 61.3565 48.5613C61.963 48.3899 62.5264 48.1073 63.0143 47.7297C63.5023 47.3522 63.9053 46.887 64.2004 46.3607C64.4955 45.8343 64.6769 45.2572 64.7342 44.6623Z" fill="white"/>
<path d="M38.4429 48.6837C41.1366 48.5473 43.215 46.3597 43.0852 43.7977C42.9554 41.2356 40.6666 39.2693 37.9729 39.4058C35.2792 39.5422 33.2008 41.7298 33.3306 44.2918C33.4604 46.8539 35.7492 48.8202 38.4429 48.6837Z" fill="black"/>
<path d="M59.4796 48.7283C62.1409 48.9846 64.4936 47.164 64.7345 44.6621C64.9754 42.1601 63.0133 39.9241 60.352 39.6678C57.6907 39.4116 55.338 41.2321 55.0971 43.7341C54.8562 46.2361 56.8183 48.4721 59.4796 48.7283Z" fill="black"/>
<path d="M37.1087 73.261C37.7792 73.5735 37.9582 74.3547 37.6457 75.6048L20.9835 93.0254C20.7562 93.2641 20.529 93.2641 20.3017 93.0254L14.617 87.1617C14.4744 87.0154 14.3954 86.8188 14.397 86.6145C14.3986 86.4103 14.4807 86.2149 14.6255 86.0708L14.83 85.8578C14.9254 85.7633 15.0388 85.6888 15.1634 85.6389C15.288 85.5889 15.4214 85.5644 15.5556 85.5668C15.6899 85.5691 15.8223 85.5984 15.945 85.6527C16.0678 85.7071 16.1784 85.7855 16.2704 85.8833L20.1824 90.068C20.242 90.131 20.3135 90.1813 20.3928 90.216C20.4721 90.2507 20.5573 90.2691 20.6434 90.2699C20.7295 90.2707 20.8146 90.2539 20.8936 90.2207C20.9726 90.1875 21.0438 90.1384 21.1028 90.0766L37.1087 73.261Z" fill="black"/>
<path d="M55.8589 75.46L58.7055 81.46C58.8017 81.6662 58.8523 81.8903 58.8537 82.1169C58.8552 82.3435 58.8076 82.5672 58.7141 82.7726L51.035 99.9716C51.0101 100.027 50.9968 100.086 50.9959 100.147C50.995 100.207 51.0065 100.267 51.0296 100.323C51.0528 100.379 51.0871 100.43 51.1306 100.472C51.174 100.514 51.2256 100.547 51.2822 100.568L57.5379 102.946C57.9925 103.122 58.1459 103.443 57.9982 103.909L57.8192 104.48C57.7935 104.563 57.751 104.64 57.6942 104.706C57.6374 104.772 57.5676 104.826 57.4892 104.863C57.4107 104.901 57.3253 104.922 57.2384 104.925C57.1514 104.928 57.0648 104.913 56.9839 104.881L48.606 101.685C48.2594 101.554 48.1628 101.321 48.3162 100.986L56.4385 82.8066C56.5521 82.5566 56.5578 82.3038 56.4555 82.0481L54.9044 78.1105C55.0066 76.9117 55.3248 76.0281 55.8589 75.46Z" fill="black"/>
</svg>
