<svg width="77" height="90" viewBox="0 0 77 90" fill="none" xmlns="http://www.w3.org/2000/svg">
<path d="M1.87073 8.14258L2.00712 10.2562" stroke="#007C91" stroke-width="1.70457"/>
<path d="M2.0072 10.2562C2.1322 13.4892 2.57824 16.6455 3.34529 19.7251C4.63224 24.89 8.79986 28.9042 12.3539 32.6031C12.6096 32.8645 12.5556 33.0094 12.1919 33.0378L4.29985 33.6429" stroke="#007C91" stroke-width="1.70457"/>
<path d="M4.30022 33.6428L3.89954 36.7202" stroke="#007C91" stroke-width="1.70457"/>
<path d="M3.8993 36.7194C2.42485 48.89 7.81981 60.9839 19.7262 65.0322C24.8115 66.7652 30.0218 67.7283 35.3571 67.9215" stroke="#007C91" stroke-width="1.70457"/>
<path d="M35.3573 67.9218L35.2976 85.9902C35.2919 86.314 35.13 86.4788 34.8118 86.4844L30.5589 86.5612C30.3772 86.5639 30.2023 86.6325 30.0662 86.7545C29.9301 86.8765 29.8419 87.0438 29.8174 87.2259L29.7918 87.4646C29.718 88.0441 29.9708 88.3396 30.5504 88.351L36.7038 88.5129C37.0731 88.5186 37.255 88.3396 37.2493 87.9759L37.1726 68.2712" stroke="black" stroke-width="1.70457"/>
<path d="M37.1726 68.2711C38.3547 67.6403 39.4031 67.6175 40.3181 68.2029" stroke="#007C91" stroke-width="1.70457"/>
<path d="M40.3173 68.2027L40.2747 87.9928C40.2747 88.3791 40.4678 88.5638 40.8542 88.5468L47.4339 88.2059C47.4862 88.2026 47.5373 88.189 47.5842 88.1657C47.6311 88.1424 47.6729 88.1099 47.7071 88.0702C47.7412 88.0305 47.7671 87.9843 47.7831 87.9344C47.7991 87.8845 47.805 87.8319 47.8003 87.7797L47.7663 87.4388C47.7265 86.9217 47.448 86.6575 46.931 86.6462L42.8571 86.5695C42.4651 86.5581 42.269 86.3564 42.269 85.9643L42.2434 67.6829" stroke="black" stroke-width="1.70457"/>
<path d="M42.2435 67.6829C45.8174 67.5636 49.2692 66.9414 52.5988 65.8164" stroke="#007C91" stroke-width="1.70457"/>
<path d="M52.5986 65.8166L58.7095 63.2683" stroke="#007C91" stroke-width="1.70457"/>
<path d="M58.7095 63.2682C71.8858 56.6545 76.5478 44.876 75.6529 30.7451C75.6359 30.4951 75.4995 30.3758 75.2438 30.3871L64.4539 30.9923C63.7323 31.0321 63.6442 30.8133 64.1897 30.336C67.2295 27.7053 69.5449 24.4326 71.1358 20.5177C73.2609 15.2677 74.8404 9.23918 75.8745 2.43228C75.9427 1.99477 75.7552 1.776 75.312 1.776L2.0157 1.96353C1.74865 1.96353 1.6208 2.09703 1.63217 2.36408L1.87078 8.14258" stroke="#007C91" stroke-width="1.70457"/>
<path d="M58.7097 63.2685C58.1245 62.973 57.383 62.8963 56.4853 63.0383C56.2125 63.0838 55.9995 62.9901 55.846 62.7571C55.1983 61.7571 54.3403 61.4759 53.2721 61.9134C51.9596 62.4531 51.7352 63.7542 52.5989 65.8168" stroke="#007C91" stroke-width="1.70457"/>
<path d="M42.2434 67.6829C42.0389 67.4102 41.5474 67.359 40.769 67.5295C40.2633 67.6375 40.1127 67.8619 40.3172 68.2028" stroke="#007C91" stroke-width="1.70457"/>
<path d="M37.1723 68.2713C37.1553 68.1463 37.1098 68.044 37.0359 67.9645C36.9498 67.8704 36.8366 67.8058 36.7127 67.7797C36.5887 67.7537 36.4602 67.7677 36.3456 67.8196C35.749 68.0866 35.4194 68.1207 35.3569 67.9219" stroke="#007C91" stroke-width="1.70457"/>
<path d="M3.89954 36.7202C4.66674 36.9759 5.28904 36.9731 5.76641 36.7117C6.03351 36.5696 6.17844 36.3479 6.20117 36.0467C6.28641 34.9158 5.65277 34.1145 4.30022 33.6428" stroke="#007C91" stroke-width="1.70457"/>
<path d="M2.00715 10.2568L3.74613 10.0863C3.94701 10.0686 4.13916 9.99606 4.30155 9.87649C4.46394 9.75693 4.59034 9.59499 4.6669 9.40843C4.74346 9.22187 4.76722 9.01785 4.73563 8.81868C4.70404 8.61951 4.61829 8.43285 4.48776 8.27913C3.95924 7.64832 3.08689 7.60288 1.87073 8.14276" stroke="#007C91" stroke-width="1.70457"/>
<path d="M67.8976 3.66797C67.5964 3.74185 67.3322 3.86973 67.1049 4.05159C66.8719 4.23344 66.7496 4.4721 66.7383 4.76762C66.7326 5.06882 66.7951 5.35867 66.9258 5.63714C66.9718 5.73237 67.0449 5.81192 67.1358 5.86581C67.2268 5.9197 67.3316 5.94552 67.4372 5.94005C67.5428 5.93459 67.6445 5.8981 67.7294 5.83511C67.8144 5.77212 67.8788 5.68546 67.9147 5.58599C68.1477 4.94381 68.2528 4.24193 68.2301 3.48041C68.2301 3.38948 68.2074 3.38668 68.1619 3.47193C68.1505 3.49466 68.1391 3.51456 68.1278 3.5316C68.0823 3.59412 68.0056 3.63956 67.8976 3.66797Z" stroke="#007C91" stroke-width="1.70457"/>
<path d="M46.8291 8.10017C46.6471 8.39012 46.6386 8.65733 46.8035 8.9018C46.8326 8.94394 46.8705 8.97932 46.9145 9.00558C46.9585 9.03185 47.0076 9.04839 47.0585 9.05404C47.1094 9.0597 47.161 9.05434 47.2097 9.03838C47.2584 9.02241 47.3031 8.99621 47.3408 8.9615C47.7046 8.62038 47.7671 8.31621 47.5284 8.049C47.4831 7.99867 47.427 7.95936 47.3642 7.93408C47.3014 7.9088 47.2337 7.89822 47.1662 7.90316C47.0987 7.9081 47.0332 7.9284 46.9747 7.96255C46.9163 7.9967 46.8665 8.04378 46.8291 8.10017Z" stroke="#007C91" stroke-width="1.70457"/>
<path d="M67.0109 8.38974C66.9281 8.43163 66.8601 8.49721 66.8153 8.57821C66.7706 8.65922 66.7511 8.75206 66.7593 8.84502C66.7675 8.93799 66.803 9.02693 66.8615 9.10069C66.9199 9.17446 66.9986 9.22976 67.0877 9.2596C67.2753 9.32214 67.4942 9.22832 67.7443 8.97817C67.7826 8.94102 67.8113 8.89521 67.8282 8.84461C67.845 8.794 67.8495 8.74009 67.8411 8.68742C67.8327 8.63474 67.8118 8.58484 67.7801 8.54194C67.7484 8.49903 67.7069 8.46438 67.659 8.44091C67.4089 8.31014 67.1928 8.29309 67.0109 8.38974Z" stroke="#007C91" stroke-width="1.70457"/>
<path d="M23.2715 10.205H17.1948C17.0936 10.2048 16.9936 10.2268 16.9017 10.2696C16.8099 10.3123 16.7283 10.3747 16.6627 10.4525C16.597 10.5303 16.5488 10.6216 16.5215 10.7201C16.4942 10.8187 16.4884 10.9221 16.5045 11.0233C17.1011 14.6966 20.2374 19.904 24.5159 20.3387C30.908 20.9779 37.8626 18.1483 37.82 10.6397C37.8143 10.3045 37.6439 10.1341 37.3087 10.1284C34.8939 10.117 32.5671 10.188 30.3285 10.3414C29.9932 10.3642 29.8228 10.5176 29.8171 10.8017" stroke="#007C91" stroke-width="1.70457"/>
<path d="M29.8173 10.8015C29.6184 10.2958 29.286 10.097 28.8201 10.2049C26.6269 10.7333 24.9564 10.3754 23.8086 9.13104C23.5473 8.84695 23.2234 8.68786 22.8371 8.65377C22.3996 8.61968 22.0814 8.77027 21.8825 9.1055C21.7121 9.37823 21.7632 9.5998 22.0359 9.77026C22.3143 9.95208 22.7262 10.097 23.2717 10.2049" stroke="#007C91" stroke-width="1.70457"/>
<path d="M29.8171 10.8016C29.0046 12.6766 27.621 13.3726 25.6664 12.8897C25.3937 12.8215 25.1721 12.6766 25.0016 12.455L23.2715 10.205" stroke="#007C91" stroke-width="1.70457"/>
<path d="M46.8543 10.7166C46.6725 10.3643 46.3259 10.1853 45.8145 10.1796C43.894 10.1512 42.1014 10.1455 40.4366 10.1626C39.8457 10.1739 39.5815 10.4722 39.644 11.0575C40.3173 17.7053 44.2378 21.1826 50.7833 20.586C54.0817 20.2877 58.9652 18.5576 60.167 15.0377C60.6442 13.6399 60.8943 12.2308 60.917 10.8103C60.9227 10.4637 60.7522 10.2876 60.4056 10.2819L52.9226 10.1455" stroke="#007C91" stroke-width="1.70457"/>
<path d="M52.9227 10.1455C51.0363 10.1966 49.1783 10.2279 47.3487 10.2393C47.1953 10.2393 47.076 10.2705 46.9908 10.333C46.8544 10.4353 46.809 10.5632 46.8545 10.7166" stroke="#007C91" stroke-width="1.70457"/>
<path d="M52.9227 10.1455C52.6159 12.5603 51.4284 13.5859 49.3602 13.2223C47.9511 12.978 47.1159 12.1427 46.8545 10.7166" stroke="#007C91" stroke-width="1.70457"/>
<path d="M36.2012 21.0634C36.6047 20.9554 36.8121 20.7053 36.8235 20.3132C36.8406 19.9609 36.7013 19.6824 36.4058 19.4778L36.0733 19.2476C36.0177 19.2098 35.9535 19.1863 35.8866 19.1792C35.8196 19.1721 35.752 19.1816 35.6896 19.2069C35.6272 19.2322 35.572 19.2725 35.5289 19.3242C35.4858 19.3759 35.4561 19.4375 35.4425 19.5034L34.8799 22.2824C34.8231 22.5666 34.9027 22.612 35.1186 22.4188C35.3346 22.2142 35.4823 21.9727 35.5619 21.6942C35.6528 21.3589 35.8659 21.1486 36.2012 21.0634Z" stroke="#007C91" stroke-width="1.70457"/>
<path d="M57.5591 24.4814C57.7411 24.7372 57.9486 24.922 58.1817 25.0357C58.483 25.1835 58.6649 25.0954 58.7275 24.7713C58.8014 24.4132 58.719 24.0948 58.4802 23.8162C58.3665 23.6855 58.23 23.6144 58.0708 23.603C57.8775 23.5973 57.7212 23.6598 57.6018 23.7906C57.5167 23.8822 57.4661 24.0008 57.4583 24.1265C57.4506 24.2523 57.4862 24.3775 57.5591 24.4814Z" stroke="#007C91" stroke-width="1.70457"/>
<path d="M30.4742 26.0666C30.6504 25.72 30.73 25.3335 30.713 24.9073C30.6959 24.589 30.5396 24.3731 30.2441 24.2594C29.17 23.8502 28.2039 23.9611 27.3458 24.5919C27.226 24.6785 27.1335 24.7976 27.0792 24.935C27.0248 25.0725 27.0108 25.2225 27.0389 25.3677C27.2776 26.5895 27.8544 27.5385 28.7693 28.2148C28.9233 28.3307 29.1074 28.399 29.2995 28.4117C29.4916 28.4243 29.6834 28.3807 29.8519 28.2861C30.0204 28.1915 30.1584 28.0499 30.2492 27.8784C30.3399 27.707 30.3796 27.5129 30.3634 27.3197L30.3208 26.8509C30.2981 26.5781 30.3492 26.3167 30.4742 26.0666Z" stroke="#007C91" stroke-width="1.70457"/>
<path d="M32.8939 30.541C32.8791 30.5798 32.8751 30.6219 32.8822 30.6628C32.8894 30.7037 32.9075 30.7419 32.9346 30.7734C32.9617 30.8049 32.9968 30.8284 33.0361 30.8415C33.0755 30.8547 33.1177 30.857 33.1583 30.8481C33.5449 30.7571 33.7894 30.4558 33.8917 29.9441C33.9024 29.8976 33.9002 29.8491 33.8856 29.8038C33.8709 29.7584 33.8443 29.7178 33.8085 29.6863C33.7726 29.6549 33.7289 29.6337 33.682 29.625C33.6351 29.6164 33.5868 29.6205 33.5421 29.6371C33.3317 29.711 33.1157 30.0123 32.8939 30.541Z" stroke="#007C91" stroke-width="1.70457"/>
<path d="M31.2625 33.2534C31.4021 33.3123 31.566 33.2977 31.7182 33.2127C31.8704 33.1277 31.9985 32.9793 32.0741 32.8001C32.1498 32.621 32.167 32.4256 32.1218 32.2573C32.0766 32.0889 31.9728 31.9612 31.8332 31.9022C31.6936 31.8433 31.5296 31.8579 31.3774 31.9429C31.2252 32.0279 31.0972 32.1763 31.0215 32.3555C30.9458 32.5347 30.9287 32.7299 30.9739 32.8983C31.0191 33.0667 31.1229 33.1944 31.2625 33.2534Z" stroke="#007C91" stroke-width="1.70457"/>
<path d="M50.9972 34.7256C50.9972 34.3616 50.8526 34.0125 50.5952 33.7551C50.3378 33.4977 49.9888 33.3531 49.6248 33.3531C49.2608 33.3531 48.9117 33.4977 48.6543 33.7551C48.3969 34.0125 48.2523 34.3616 48.2523 34.7256C48.2523 35.0896 48.3969 35.4387 48.6543 35.696C48.9117 35.9534 49.2608 36.098 49.6248 36.098C49.9888 36.098 50.3378 35.9534 50.5952 35.696C50.8526 35.4387 50.9972 35.0896 50.9972 34.7256Z" stroke="#007C91" stroke-width="1.70457"/>
<path d="M31.5813 36.0121C31.5813 36.1939 31.7518 36.2507 32.0927 36.1825C32.7461 36.0518 32.857 35.7336 32.4251 35.2279C32.0501 34.7791 31.5359 34.6143 30.8825 34.7336C30.8023 34.7463 30.7278 34.7831 30.669 34.8391C30.6101 34.8951 30.5697 34.9677 30.5531 35.0472C30.5364 35.1267 30.5443 35.2094 30.5757 35.2843C30.6072 35.3592 30.6606 35.4228 30.729 35.4666C30.9052 35.5859 31.0984 35.6626 31.3086 35.6967C31.4905 35.7308 31.5813 35.8359 31.5813 36.0121Z" stroke="#007C91" stroke-width="1.70457"/>
<path d="M16.9579 39.567C17.1096 39.6065 17.2683 39.6128 17.425 39.5855C17.5818 39.5581 17.7335 39.4977 17.8714 39.4077C18.0094 39.3176 18.1309 39.1997 18.2291 39.0607C18.3273 38.9217 18.4003 38.7643 18.4437 38.5975C18.4872 38.4306 18.5003 38.2577 18.4824 38.0884C18.4645 37.9192 18.416 37.7569 18.3394 37.611C18.2629 37.4651 18.16 37.3384 18.0365 37.238C17.913 37.1377 17.7714 37.0657 17.6197 37.0262C17.468 36.9867 17.3093 36.9805 17.1525 37.0078C16.9958 37.0351 16.8441 37.0956 16.7061 37.1856C16.5682 37.2756 16.4466 37.3935 16.3484 37.5325C16.2502 37.6715 16.1774 37.829 16.1339 37.9958C16.0904 38.1626 16.0773 38.3356 16.0951 38.5048C16.113 38.6741 16.1617 38.8363 16.2382 38.9822C16.3147 39.1281 16.4176 39.2549 16.5411 39.3552C16.6646 39.4556 16.8062 39.5275 16.9579 39.567Z" stroke="#007C91" stroke-width="1.70457"/>
<path d="M10.6241 39.3791C10.6241 39.0332 10.4867 38.7014 10.2421 38.4568C9.99753 38.2122 9.66576 38.0748 9.31985 38.0748C8.97394 38.0748 8.64222 38.2122 8.39763 38.4568C8.15303 38.7014 8.01563 39.0332 8.01562 39.3791C8.01563 39.725 8.15303 40.0567 8.39763 40.3013C8.64222 40.5459 8.97394 40.6833 9.31985 40.6833C9.66576 40.6833 9.99753 40.5459 10.2421 40.3013C10.4867 40.0567 10.6241 39.725 10.6241 39.3791Z" stroke="#007C91" stroke-width="1.70457"/>
<path d="M13.2381 46.5987C13.2901 46.452 13.3079 46.2948 13.2904 46.1361C13.273 45.9775 13.2207 45.8204 13.1366 45.6739C13.0524 45.5273 12.9381 45.3942 12.8 45.2821C12.6619 45.1701 12.5028 45.0813 12.3319 45.0207C12.1609 44.9602 11.9815 44.9291 11.8036 44.9293C11.6258 44.9295 11.4532 44.961 11.2956 45.0219C11.138 45.0828 10.9985 45.172 10.8851 45.2843C10.7716 45.3967 10.6865 45.53 10.6346 45.6767C10.5826 45.8234 10.5649 45.9805 10.5823 46.1392C10.5997 46.2979 10.652 46.455 10.7362 46.6016C10.8204 46.7481 10.9347 46.8812 11.0728 46.9932C11.2108 47.1053 11.3699 47.1941 11.5408 47.2547C11.7118 47.3152 11.8913 47.3462 12.0691 47.346C12.247 47.3458 12.4196 47.3144 12.5772 47.2535C12.7348 47.1926 12.8743 47.1034 12.9877 46.991C13.1011 46.8787 13.1862 46.7454 13.2381 46.5987Z" stroke="#007C91" stroke-width="1.70457"/>
<path d="M50.645 48.5253C50.7991 48.5594 50.9594 48.5582 51.1169 48.5216C51.2744 48.485 51.4259 48.4137 51.5628 48.3119C51.6997 48.2101 51.8193 48.0797 51.9147 47.9282C52.0102 47.7767 52.0797 47.607 52.1192 47.4288C52.1587 47.2507 52.1674 47.0675 52.145 46.8899C52.1225 46.7122 52.0692 46.5435 51.9881 46.3934C51.9071 46.2432 51.7999 46.1146 51.6726 46.0149C51.5454 45.9152 51.4005 45.8462 51.2464 45.8121C51.0923 45.7779 50.9319 45.7792 50.7745 45.8158C50.617 45.8524 50.4655 45.9236 50.3286 46.0255C50.1917 46.1273 50.0721 46.2577 49.9766 46.4092C49.8812 46.5607 49.8117 46.7303 49.7722 46.9085C49.7327 47.0867 49.7239 47.2698 49.7464 47.4475C49.7689 47.6251 49.8222 47.7938 49.9032 47.9439C49.9843 48.0941 50.0915 48.2227 50.2187 48.3225C50.346 48.4222 50.4908 48.4911 50.645 48.5253Z" stroke="#007C91" stroke-width="1.70457"/>
<path d="M39.787 49.0051C40.0647 48.7841 40.2344 48.4506 40.2587 48.0779C40.2829 47.7052 40.1598 47.3239 39.9163 47.0178C39.7957 46.8662 39.6493 46.7377 39.4852 46.6396C39.3212 46.5414 39.1428 46.4755 38.9603 46.4457C38.7778 46.4159 38.5947 46.4227 38.4215 46.4658C38.2483 46.5089 38.0883 46.5874 37.9508 46.6968C37.673 46.9178 37.5033 47.2513 37.4791 47.624C37.4548 47.9966 37.578 48.378 37.8215 48.6841C37.942 48.8356 38.0885 48.9641 38.2525 49.0623C38.4165 49.1605 38.5949 49.2264 38.7774 49.2562C38.9599 49.286 39.143 49.2791 39.3162 49.236C39.4895 49.193 39.6494 49.1145 39.787 49.0051Z" stroke="#007C91" stroke-width="1.70457"/>
<path d="M40.3771 57.1835L41.3489 55.9986C41.3978 55.94 41.4347 55.8722 41.4573 55.7992C41.4799 55.7263 41.4879 55.6496 41.4807 55.5735C41.4736 55.4975 41.4515 55.4236 41.4157 55.3561C41.3799 55.2886 41.3312 55.2288 41.2722 55.1803L40.9142 54.8819C40.7264 54.7268 40.5207 54.5971 40.3089 54.5002C40.097 54.4033 39.8831 54.3412 39.6796 54.3175C39.476 54.2937 39.2868 54.3087 39.1227 54.3617C38.9586 54.4147 38.8229 54.5045 38.7234 54.6262L38.5273 54.8649C38.3273 55.1099 38.2859 55.4684 38.4121 55.8616C38.5384 56.2548 38.822 56.6505 39.2007 56.9619L39.5588 57.2603C39.6175 57.3091 39.6852 57.346 39.7582 57.3686C39.8311 57.3912 39.9079 57.3991 39.9839 57.392C40.06 57.3849 40.1338 57.3628 40.2013 57.327C40.2688 57.2912 40.3286 57.2425 40.3771 57.1835Z" stroke="#007C91" stroke-width="1.70457"/>
<path d="M60.8833 58.4788C61.0495 58.4485 61.2021 58.3664 61.3198 58.2442C61.4375 58.1219 61.5144 57.9655 61.5398 57.7969C61.625 57.2683 61.4915 56.9586 61.1391 56.8677C60.622 56.7313 60.281 56.916 60.1162 57.4218L59.4257 59.5529C59.3575 59.7518 59.4285 59.8428 59.6388 59.8257L59.8519 59.8086C59.9883 59.803 60.0479 59.7319 60.0309 59.5955C59.9456 58.9704 60.2298 58.5982 60.8833 58.4788Z" stroke="#007C91" stroke-width="1.70457"/>
<path d="M18.2623 60.6296C18.2346 60.5269 18.1361 60.4479 17.9884 60.4099C17.8407 60.3719 17.6558 60.378 17.4746 60.4269C17.3849 60.4511 17.2987 60.4851 17.221 60.527C17.1433 60.5688 17.0757 60.6176 17.022 60.6707C16.9682 60.7237 16.9293 60.78 16.9077 60.8362C16.886 60.8924 16.8819 60.9475 16.8956 60.9983C16.9233 61.1009 17.0219 61.1799 17.1696 61.2179C17.3173 61.2559 17.5021 61.2498 17.6834 61.2009C17.7731 61.1767 17.8592 61.1427 17.9369 61.1009C18.0146 61.0591 18.0822 61.0103 18.136 60.9572C18.1898 60.9042 18.2286 60.8479 18.2502 60.7917C18.2719 60.7355 18.276 60.6804 18.2623 60.6296Z" stroke="#007C91" stroke-width="1.70457"/>
<path d="M58.7095 63.2682C58.1243 62.9728 57.3828 62.8961 56.4851 63.0381C56.2124 63.0836 55.9993 62.9898 55.8459 62.7569C55.1981 61.7569 54.3402 61.4756 53.272 61.9131C51.9594 62.4529 51.735 63.754 52.5987 65.8166C49.2691 66.9416 45.8173 67.5637 42.2434 67.6831C42.0389 67.4103 41.5474 67.3592 40.769 67.5296C40.2633 67.6376 40.1127 67.862 40.3172 68.2029C39.4025 67.6177 38.3542 67.6404 37.1724 68.2711C37.1553 68.1461 37.1098 68.0439 37.036 67.9643C36.9498 67.8703 36.8367 67.8056 36.7127 67.7796C36.5887 67.7536 36.4603 67.7675 36.3456 67.8195C35.749 68.0865 35.4195 68.1206 35.357 67.9217C30.0217 67.7285 24.8114 66.7654 19.7261 65.0325C7.81972 60.9841 2.42477 48.8902 3.89922 36.7196C4.66627 36.9753 5.28844 36.9725 5.76572 36.7111C6.03277 36.5691 6.17766 36.3475 6.20039 36.0463C6.28562 34.9156 5.6521 34.1145 4.29982 33.6429L12.1919 33.0378C12.5556 33.0094 12.6095 32.8645 12.3538 32.6031C8.79983 28.9042 4.63221 24.89 3.34526 19.7251C2.57821 16.6455 2.13217 13.4892 2.00717 10.2562L3.74581 10.0858C3.94665 10.0681 4.13876 9.99551 4.30112 9.87597C4.46347 9.75643 4.58985 9.59452 4.66639 9.408C4.74294 9.22148 4.76669 9.01749 4.73511 8.81836C4.70353 8.61924 4.61779 8.43261 4.48729 8.27892C3.95888 7.64823 3.0867 7.6028 1.87078 8.14258L1.63217 2.36408C1.6208 2.09703 1.74865 1.96353 2.0157 1.96353L75.312 1.776C75.7552 1.776 75.9427 1.99477 75.8745 2.43228C74.8404 9.23918 73.2609 15.2677 71.1358 20.5177C69.5449 24.4326 67.2295 27.7053 64.1897 30.336C63.6442 30.8133 63.7323 31.0321 64.4539 30.9923L75.2438 30.3871C75.4995 30.3758 75.6359 30.4951 75.6529 30.7451C76.5478 44.876 71.8858 56.6545 58.7095 63.2682ZM67.8972 3.6681C67.596 3.74196 67.3318 3.86981 67.1045 4.05163C66.8716 4.23345 66.7494 4.47206 66.738 4.76752C66.7323 5.06866 66.7949 5.35846 66.9256 5.63687C66.9715 5.73208 67.0445 5.81161 67.1355 5.86549C67.2265 5.91937 67.3313 5.94518 67.4368 5.93972C67.5424 5.93426 67.6441 5.89778 67.729 5.8348C67.8139 5.77183 67.8783 5.68518 67.9142 5.58573C68.1471 4.94368 68.2522 4.24194 68.2295 3.48057C68.2295 3.38966 68.2068 3.38686 68.1614 3.47209C68.15 3.49482 68.1386 3.51471 68.1272 3.53175C68.0818 3.59425 68.0051 3.63969 67.8972 3.6681ZM46.8287 8.09998C46.6469 8.38975 46.6384 8.6568 46.8032 8.90113C46.8323 8.94324 46.8701 8.9786 46.9141 9.00485C46.958 9.0311 47.0071 9.04763 47.058 9.05328C47.1089 9.05894 47.1605 9.05358 47.2091 9.03762C47.2578 9.02167 47.3024 8.99549 47.3401 8.96079C47.7037 8.61988 47.7662 8.31589 47.5276 8.04884C47.4824 7.99854 47.4263 7.95925 47.3635 7.93398C47.3008 7.90872 47.2331 7.89815 47.1656 7.90309C47.0982 7.90802 47.0327 7.92831 46.9743 7.96244C46.9159 7.99657 46.8661 8.04362 46.8287 8.09998ZM67.0108 8.38972C66.9281 8.43159 66.8601 8.49713 66.8153 8.57809C66.7706 8.65904 66.7511 8.75183 66.7593 8.84474C66.7675 8.93765 66.803 9.02653 66.8614 9.10026C66.9198 9.17398 66.9985 9.22924 67.0875 9.25907C67.275 9.32157 67.4938 9.22781 67.7438 8.9778C67.782 8.94067 67.8107 8.8949 67.8276 8.84432C67.8444 8.79375 67.8488 8.73987 67.8405 8.68722C67.8321 8.63458 67.8112 8.5847 67.7795 8.54183C67.7479 8.49895 67.7064 8.46432 67.6585 8.44086C67.4085 8.31018 67.1926 8.29313 67.0108 8.38972ZM23.2716 10.2051H17.1949C17.0937 10.2049 16.9937 10.2269 16.9018 10.2696C16.8099 10.3123 16.7283 10.3747 16.6627 10.4525C16.5971 10.5303 16.5489 10.6216 16.5216 10.7202C16.4943 10.8187 16.4885 10.9222 16.5045 11.0233C17.1011 14.6966 20.2375 19.9041 24.5159 20.3387C30.9081 20.978 37.8627 18.1484 37.8201 10.6398C37.8144 10.3045 37.6439 10.1341 37.3087 10.1284C34.8939 10.1171 32.5672 10.1881 30.3285 10.3415C29.9933 10.3642 29.8229 10.5176 29.8172 10.8017C29.6183 10.296 29.2859 10.0971 28.82 10.2051C26.6268 10.7335 24.9563 10.3755 23.8085 9.13121C23.5472 8.84711 23.2233 8.68802 22.837 8.65393C22.3995 8.61984 22.0813 8.77043 21.8824 9.10567C21.712 9.3784 21.7631 9.59996 22.0358 9.77042C22.3142 9.95224 22.7261 10.0971 23.2716 10.2051ZM46.8543 10.7165C46.6725 10.3642 46.3259 10.1852 45.8145 10.1796C43.894 10.1511 42.1014 10.1454 40.4366 10.1625C39.8457 10.1739 39.5815 10.4721 39.644 11.0574C40.3173 17.7052 44.2378 21.1825 50.7833 20.5859C54.0816 20.2876 58.9652 18.5575 60.167 15.0376C60.6442 13.6398 60.8942 12.2307 60.917 10.8102C60.9226 10.4636 60.7522 10.2875 60.4056 10.2818L52.9225 10.1454C51.0362 10.1966 49.1782 10.2279 47.3486 10.2392C47.1952 10.2392 47.0759 10.2705 46.9906 10.333C46.8543 10.4352 46.8088 10.5631 46.8543 10.7165ZM36.2008 21.0632C36.6042 20.9552 36.8115 20.7052 36.8229 20.3132C36.84 19.9609 36.7008 19.6825 36.4053 19.4779L36.0729 19.2478C36.0172 19.21 35.9531 19.1865 35.8861 19.1793C35.8192 19.1722 35.7516 19.1817 35.6892 19.207C35.6268 19.2323 35.5716 19.2726 35.5286 19.3243C35.4855 19.376 35.4558 19.4376 35.4422 19.5035L34.8797 22.282C34.8229 22.5661 34.9024 22.6115 35.1183 22.4183C35.3343 22.2138 35.482 21.9723 35.5615 21.6939C35.6525 21.3587 35.8655 21.1484 36.2008 21.0632ZM57.559 24.4808C57.7408 24.7365 57.9482 24.9212 58.1811 25.0348C58.4823 25.1826 58.6641 25.0945 58.7266 24.7706C58.8005 24.4127 58.7181 24.0945 58.4794 23.8161C58.3658 23.6854 58.2294 23.6144 58.0703 23.603C57.8771 23.5973 57.7209 23.6598 57.6016 23.7905C57.5166 23.8821 57.466 24.0006 57.4582 24.1262C57.4505 24.2519 57.486 24.3771 57.559 24.4808ZM30.4734 26.0661C30.6495 25.7195 30.7291 25.3331 30.7121 24.907C30.695 24.5888 30.5388 24.3729 30.2433 24.2592C29.1694 23.8501 28.2035 23.9609 27.3455 24.5916C27.2258 24.6783 27.1333 24.7973 27.079 24.9347C27.0246 25.0721 27.0107 25.2222 27.0387 25.3672C27.2774 26.5888 27.854 27.5377 28.7688 28.2138C28.9227 28.3297 29.1068 28.398 29.2988 28.4107C29.4909 28.4233 29.6827 28.3797 29.8512 28.2851C30.0197 28.1905 30.1576 28.049 30.2484 27.8775C30.3391 27.7061 30.3787 27.5121 30.3626 27.3189L30.32 26.8502C30.2973 26.5775 30.3484 26.3161 30.4734 26.0661ZM32.8939 30.5406C32.8791 30.5793 32.875 30.6214 32.8822 30.6623C32.8893 30.7031 32.9074 30.7413 32.9345 30.7728C32.9616 30.8042 32.9967 30.8277 33.036 30.8409C33.0754 30.854 33.1176 30.8563 33.1581 30.8474C33.5445 30.7565 33.7888 30.4554 33.8911 29.944C33.9017 29.8975 33.8996 29.8491 33.885 29.8037C33.8703 29.7583 33.8437 29.7178 33.8079 29.6863C33.7721 29.6549 33.7284 29.6337 33.6815 29.6251C33.6346 29.6164 33.5863 29.6205 33.5416 29.6371C33.3314 29.711 33.1155 30.0121 32.8939 30.5406ZM31.2621 33.2527C31.4016 33.3116 31.5655 33.297 31.7176 33.212C31.8697 33.1271 31.9977 32.9788 32.0733 32.7997C32.1489 32.6207 32.1661 32.4255 32.1209 32.2572C32.0757 32.0889 31.972 31.9613 31.8324 31.9024C31.6929 31.8434 31.5291 31.858 31.377 31.943C31.2248 32.0279 31.0969 32.1763 31.0213 32.3553C30.9456 32.5344 30.9285 32.7296 30.9737 32.8979C31.0188 33.0661 31.1226 33.1938 31.2621 33.2527ZM50.9964 34.7253C50.9964 34.3614 50.8518 34.0124 50.5945 33.755C50.3371 33.4977 49.9881 33.3531 49.6242 33.3531C49.2603 33.3531 48.9113 33.4977 48.654 33.755C48.3966 34.0124 48.2521 34.3614 48.2521 34.7253C48.2521 35.0892 48.3966 35.4382 48.654 35.6956C48.9113 35.9529 49.2603 36.0975 49.6242 36.0975C49.9881 36.0975 50.3371 35.9529 50.5945 35.6956C50.8518 35.4382 50.9964 35.0892 50.9964 34.7253ZM31.5813 36.0122C31.5813 36.1941 31.7518 36.2509 32.0927 36.1827C32.7462 36.052 32.857 35.7338 32.4252 35.2281C32.0501 34.7792 31.5359 34.6145 30.8825 34.7338C30.8023 34.7465 30.7278 34.7833 30.669 34.8393C30.6101 34.8953 30.5697 34.9679 30.5531 35.0474C30.5364 35.1269 30.5443 35.2096 30.5758 35.2845C30.6072 35.3594 30.6607 35.423 30.7291 35.4668C30.9052 35.5861 31.0984 35.6628 31.3087 35.6969C31.4905 35.731 31.5813 35.8361 31.5813 36.0122ZM16.9578 39.5665C17.1094 39.606 17.2681 39.6123 17.4248 39.5849C17.5815 39.5576 17.7332 39.4972 17.8711 39.4072C18.0091 39.3172 18.1306 39.1993 18.2287 39.0603C18.3269 38.9213 18.3998 38.7639 18.4433 38.5971C18.4867 38.4303 18.4999 38.2574 18.482 38.0882C18.4641 37.919 18.4155 37.7568 18.339 37.6109C18.2625 37.465 18.1596 37.3383 18.0361 37.238C17.9126 37.1376 17.7711 37.0657 17.6194 37.0262C17.4678 36.9867 17.3091 36.9804 17.1524 37.0078C16.9956 37.0351 16.844 37.0955 16.706 37.1855C16.5681 37.2756 16.4466 37.3934 16.3484 37.5324C16.2502 37.6714 16.1774 37.8288 16.1339 37.9956C16.0905 38.1624 16.0773 38.3353 16.0952 38.5045C16.1131 38.6738 16.1617 38.8359 16.2382 38.9818C16.3147 39.1277 16.4176 39.2544 16.541 39.3547C16.6645 39.4551 16.8061 39.527 16.9578 39.5665ZM10.6237 39.3788C10.6237 39.0329 10.4864 38.7012 10.2418 38.4567C9.99727 38.2121 9.66556 38.0748 9.31972 38.0748C8.97388 38.0748 8.64223 38.2121 8.39768 38.4567C8.15314 38.7012 8.01576 39.0329 8.01576 39.3788C8.01576 39.7246 8.15314 40.0563 8.39768 40.3008C8.64223 40.5454 8.97388 40.6827 9.31972 40.6827C9.66556 40.6827 9.99727 40.5454 10.2418 40.3008C10.4864 40.0563 10.6237 39.7246 10.6237 39.3788ZM13.2378 46.5983C13.2897 46.4516 13.3075 46.2945 13.29 46.1358C13.2726 45.9772 13.2204 45.8201 13.1362 45.6736C13.0521 45.5271 12.9377 45.394 12.7997 45.282C12.6617 45.1699 12.5026 45.0811 12.3317 45.0206C12.1608 44.9601 11.9813 44.929 11.8035 44.9292C11.6258 44.9294 11.4531 44.9609 11.2956 45.0218C11.138 45.0827 10.9985 45.1718 10.8851 45.2841C10.7717 45.3965 10.6866 45.5298 10.6347 45.6764C10.5828 45.8231 10.565 45.9802 10.5824 46.1389C10.5999 46.2975 10.6522 46.4546 10.7363 46.6011C10.8204 46.7476 10.9348 46.8807 11.0728 46.9927C11.2109 47.1048 11.3699 47.1936 11.5408 47.2541C11.7117 47.3146 11.8912 47.3457 12.069 47.3455C12.2468 47.3453 12.4194 47.3138 12.577 47.2529C12.7345 47.192 12.874 47.1029 12.9874 46.9905C13.1008 46.8782 13.1858 46.7449 13.2378 46.5983ZM50.6446 48.5249C50.7986 48.5591 50.959 48.5579 51.1164 48.5213C51.2739 48.4847 51.4254 48.4134 51.5622 48.3116C51.6991 48.2098 51.8187 48.0795 51.9141 47.928C52.0095 47.7765 52.079 47.6069 52.1185 47.4287C52.158 47.2506 52.1668 47.0675 52.1443 46.8899C52.1218 46.7122 52.0685 46.5436 51.9875 46.3935C51.9065 46.2434 51.7993 46.1148 51.6721 46.0151C51.5448 45.9154 51.4 45.8465 51.2459 45.8123C51.0918 45.7781 50.9315 45.7794 50.774 45.816C50.6166 45.8526 50.4651 45.9238 50.3282 46.0256C50.1914 46.1274 50.0718 46.2578 49.9764 46.4093C49.8809 46.5608 49.8115 46.7304 49.772 46.9085C49.7325 47.0866 49.7237 47.2697 49.7462 47.4474C49.7687 47.625 49.822 47.7936 49.903 47.9437C49.984 48.0938 50.0912 48.2225 50.2184 48.3222C50.3457 48.4219 50.4905 48.4908 50.6446 48.5249ZM39.7863 49.0044C40.064 48.7834 40.2336 48.45 40.2579 48.0774C40.2821 47.7048 40.159 47.3235 39.9156 47.0175C39.7951 46.8659 39.6486 46.7374 39.4846 46.6393C39.3206 46.5412 39.1423 46.4753 38.9598 46.4455C38.7773 46.4157 38.5943 46.4225 38.4211 46.4656C38.2479 46.5087 38.088 46.5871 37.9505 46.6965C37.6728 46.9174 37.5031 47.2509 37.4789 47.6235C37.4546 47.9961 37.5778 48.3774 37.8212 48.6834C37.9417 48.8349 38.0881 48.9634 38.2521 49.0616C38.4161 49.1597 38.5945 49.2256 38.777 49.2554C38.9594 49.2852 39.1425 49.2783 39.3157 49.2353C39.4889 49.1922 39.6488 49.1138 39.7863 49.0044ZM40.3769 57.1829L41.3485 55.9983C41.3974 55.9396 41.4342 55.8718 41.4568 55.7989C41.4794 55.726 41.4874 55.6493 41.4803 55.5732C41.4732 55.4972 41.451 55.4233 41.4153 55.3559C41.3795 55.2884 41.3308 55.2286 41.2719 55.1801L40.9139 54.8818C40.7261 54.7267 40.5205 54.597 40.3087 54.5001C40.0968 54.4033 39.883 54.3412 39.6795 54.3174C39.476 54.2937 39.2868 54.3087 39.1227 54.3617C38.9587 54.4146 38.823 54.5045 38.7235 54.6261L38.5275 54.8647C38.3275 55.1097 38.2861 55.4681 38.4123 55.8613C38.5386 56.2544 38.8221 56.65 39.2008 56.9613L39.5588 57.2597C39.6174 57.3085 39.6852 57.3453 39.7581 57.368C39.831 57.3906 39.9078 57.3985 39.9838 57.3914C40.0598 57.3842 40.1337 57.3622 40.2011 57.3264C40.2686 57.2906 40.3283 57.2419 40.3769 57.1829ZM60.8828 58.4784C61.0489 58.4481 61.2015 58.3661 61.3192 58.2438C61.4368 58.1216 61.5137 57.9652 61.5391 57.7966C61.6243 57.2682 61.4908 56.9585 61.1386 56.8676C60.6215 56.7312 60.2806 56.9159 60.1158 57.4216L59.4255 59.5523C59.3573 59.7512 59.4283 59.8421 59.6385 59.825L59.8516 59.808C59.988 59.8023 60.0476 59.7313 60.0306 59.5949C59.9453 58.9699 60.2294 58.5977 60.8828 58.4784ZM18.2613 60.6294C18.2336 60.5268 18.1352 60.4479 17.9875 60.4099C17.8399 60.3719 17.6552 60.378 17.474 60.4269C17.3844 60.4511 17.2982 60.4851 17.2206 60.5269C17.143 60.5687 17.0754 60.6175 17.0217 60.6705C16.968 60.7235 16.9291 60.7797 16.9075 60.8359C16.8858 60.8921 16.8817 60.9471 16.8954 60.9979C16.9231 61.1005 17.0216 61.1795 17.1692 61.2174C17.3169 61.2554 17.5016 61.2493 17.6827 61.2004C17.7724 61.1762 17.8585 61.1423 17.9361 61.1005C18.0137 61.0587 18.0813 61.0099 18.1351 60.9569C18.1888 60.9038 18.2276 60.8476 18.2492 60.7914C18.2709 60.7353 18.275 60.6802 18.2613 60.6294Z" fill="#007C91"/>
<path d="M68.1278 3.5316C68.1391 3.51456 68.1505 3.49466 68.1619 3.47193C68.2074 3.38668 68.2301 3.38948 68.2301 3.48041C68.2528 4.24193 68.1477 4.94381 67.9147 5.58599C67.8788 5.68546 67.8144 5.77212 67.7294 5.83511C67.6445 5.8981 67.5428 5.93459 67.4372 5.94005C67.3316 5.94552 67.2268 5.9197 67.1358 5.86581C67.0449 5.81192 66.9718 5.73237 66.9258 5.63714C66.7951 5.35867 66.7326 5.06882 66.7383 4.76762C66.7496 4.4721 66.8719 4.23344 67.1049 4.05159C67.3322 3.86973 67.5964 3.74185 67.8976 3.66797C68.0056 3.63956 68.0823 3.59412 68.1278 3.5316Z" fill="black"/>
<path d="M2.00715 10.2568L1.87073 8.14276C3.08689 7.60288 3.95924 7.64832 4.48776 8.27913C4.61829 8.43285 4.70404 8.61951 4.73563 8.81868C4.76722 9.01785 4.74346 9.22187 4.6669 9.40843C4.59034 9.59499 4.46394 9.75693 4.30155 9.87649C4.13916 9.99606 3.94701 10.0686 3.74613 10.0863L2.00715 10.2568Z" fill="black"/>
<path d="M46.8291 8.10017C46.8665 8.04378 46.9163 7.9967 46.9747 7.96255C47.0332 7.9284 47.0987 7.9081 47.1662 7.90316C47.2337 7.89822 47.3014 7.9088 47.3642 7.93408C47.427 7.95936 47.4831 7.99867 47.5284 8.049C47.7671 8.31621 47.7046 8.62038 47.3408 8.9615C47.3031 8.99621 47.2584 9.02241 47.2097 9.03838C47.161 9.05434 47.1094 9.0597 47.0585 9.05404C47.0076 9.04839 46.9585 9.03185 46.9145 9.00558C46.8705 8.97932 46.8326 8.94394 46.8035 8.9018C46.6386 8.65733 46.6471 8.39012 46.8291 8.10017Z" fill="black"/>
<path d="M67.0109 8.38974C67.1928 8.29309 67.4089 8.31014 67.659 8.44091C67.7069 8.46438 67.7484 8.49903 67.7801 8.54194C67.8118 8.58484 67.8327 8.63474 67.8411 8.68742C67.8495 8.74009 67.845 8.794 67.8282 8.84461C67.8113 8.89521 67.7826 8.94102 67.7443 8.97817C67.4942 9.22832 67.2753 9.32214 67.0877 9.2596C66.9986 9.22976 66.9199 9.17446 66.8615 9.10069C66.803 9.02693 66.7675 8.93799 66.7593 8.84502C66.7511 8.75206 66.7706 8.65922 66.8153 8.57821C66.8601 8.49721 66.9281 8.43163 67.0109 8.38974Z" fill="black"/>
<path d="M29.8173 10.8015C29.0048 12.6766 27.6212 13.3726 25.6667 12.8896C25.3939 12.8215 25.1723 12.6766 25.0019 12.455L23.2717 10.2049C22.7262 10.097 22.3143 9.95208 22.0359 9.77026C21.7632 9.5998 21.7121 9.37823 21.8825 9.1055C22.0814 8.77027 22.3996 8.61968 22.8371 8.65377C23.2234 8.68786 23.5473 8.84695 23.8086 9.13104C24.9564 10.3754 26.6269 10.7333 28.8201 10.2049C29.286 10.097 29.6184 10.2958 29.8173 10.8015Z" fill="black"/>
<path d="M52.9227 10.1455C52.6159 12.5603 51.4284 13.5859 49.3602 13.2223C47.9511 12.978 47.1158 12.1427 46.8545 10.7166C46.809 10.5632 46.8544 10.4353 46.9908 10.333C47.076 10.2705 47.1953 10.2393 47.3487 10.2393C49.1783 10.2279 51.0363 10.1966 52.9227 10.1455Z" fill="black"/>
<path d="M23.2715 10.205L25.0017 12.4551C25.1722 12.6767 25.3938 12.8216 25.6665 12.8898C27.6211 13.3727 29.0046 12.6767 29.8171 10.8017C29.8228 10.5176 29.9932 10.3642 30.3285 10.3414C32.5671 10.188 34.8939 10.117 37.3087 10.1284C37.6439 10.1341 37.8143 10.3045 37.82 10.6397C37.8626 18.1483 30.908 20.9779 24.5159 20.3387C20.2374 19.904 17.1011 14.6966 16.5045 11.0233C16.4884 10.9221 16.4942 10.8187 16.5215 10.7201C16.5488 10.6216 16.597 10.5303 16.6627 10.4525C16.7283 10.3747 16.8099 10.3123 16.9017 10.2696C16.9936 10.2268 17.0936 10.2048 17.1948 10.205H23.2715Z" fill="white"/>
<path d="M46.8543 10.7166C47.1157 12.1427 47.9509 12.978 49.36 13.2223C51.4282 13.5859 52.6157 12.5603 52.9226 10.1455L60.4056 10.2819C60.7522 10.2876 60.9227 10.4637 60.917 10.8103C60.8943 12.2308 60.6442 13.6399 60.167 15.0377C58.9652 18.5576 54.0817 20.2877 50.7833 20.586C44.2378 21.1826 40.3173 17.7053 39.644 11.0575C39.5815 10.4722 39.8457 10.1739 40.4366 10.1626C42.1014 10.1455 43.894 10.1512 45.8145 10.1796C46.3259 10.1853 46.6725 10.3643 46.8543 10.7166Z" fill="white"/>
<path d="M35.5619 21.6942C35.4823 21.9727 35.3346 22.2142 35.1186 22.4188C34.9027 22.612 34.8231 22.5666 34.8799 22.2824L35.4425 19.5034C35.4561 19.4375 35.4858 19.3759 35.5289 19.3242C35.572 19.2725 35.6272 19.2322 35.6896 19.2069C35.752 19.1816 35.8196 19.1721 35.8866 19.1792C35.9535 19.1863 36.0177 19.2098 36.0733 19.2476L36.4058 19.4778C36.7013 19.6824 36.8406 19.9609 36.8235 20.3132C36.8121 20.7053 36.6047 20.9554 36.2012 21.0634C35.8659 21.1486 35.6528 21.3589 35.5619 21.6942Z" fill="black"/>
<path d="M57.5591 24.4814C57.4862 24.3775 57.4506 24.2523 57.4583 24.1265C57.4661 24.0008 57.5167 23.8822 57.6018 23.7906C57.7212 23.6598 57.8775 23.5973 58.0708 23.603C58.23 23.6144 58.3665 23.6855 58.4802 23.8162C58.719 24.0948 58.8014 24.4132 58.7275 24.7713C58.6649 25.0954 58.483 25.1835 58.1817 25.0357C57.9486 24.922 57.7411 24.7372 57.5591 24.4814Z" fill="black"/>
<path d="M30.3208 26.8509L30.3634 27.3197C30.3796 27.5129 30.3399 27.707 30.2492 27.8784C30.1584 28.0499 30.0204 28.1915 29.8519 28.2861C29.6834 28.3807 29.4916 28.4243 29.2995 28.4117C29.1074 28.399 28.9233 28.3307 28.7693 28.2148C27.8544 27.5385 27.2776 26.5895 27.0389 25.3677C27.0108 25.2225 27.0248 25.0725 27.0792 24.935C27.1335 24.7976 27.226 24.6785 27.3458 24.5919C28.2039 23.9611 29.17 23.8502 30.2441 24.2594C30.5396 24.3731 30.6959 24.589 30.713 24.9073C30.73 25.3335 30.6504 25.72 30.4742 26.0666C30.3492 26.3167 30.2981 26.5781 30.3208 26.8509Z" fill="black"/>
<path d="M32.8939 30.541C33.1157 30.0123 33.3317 29.711 33.5421 29.6371C33.5868 29.6205 33.6351 29.6164 33.682 29.625C33.7289 29.6337 33.7726 29.6549 33.8085 29.6863C33.8443 29.7178 33.8709 29.7584 33.8856 29.8038C33.9002 29.8491 33.9024 29.8976 33.8917 29.9441C33.7894 30.4558 33.5449 30.7571 33.1583 30.8481C33.1177 30.857 33.0755 30.8547 33.0361 30.8415C32.9968 30.8284 32.9617 30.8049 32.9346 30.7734C32.9075 30.7419 32.8894 30.7037 32.8822 30.6628C32.8751 30.6219 32.8791 30.5798 32.8939 30.541Z" fill="black"/>
<path d="M31.0206 32.3556C30.863 32.7287 30.9708 33.1307 31.2615 33.2535C31.5522 33.3763 31.9156 33.1734 32.0733 32.8002C32.2309 32.4271 32.123 32.0251 31.8323 31.9023C31.5416 31.7795 31.1782 31.9824 31.0206 32.3556Z" fill="black"/>
<path d="M49.6248 36.098C50.3827 36.098 50.9972 35.4836 50.9972 34.7256C50.9972 33.9676 50.3827 33.3531 49.6248 33.3531C48.8668 33.3531 48.2523 33.9676 48.2523 34.7256C48.2523 35.4836 48.8668 36.098 49.6248 36.098Z" fill="black"/>
<path d="M3.89954 36.7202L4.30022 33.6428C5.65277 34.1145 6.28641 34.9158 6.20117 36.0467C6.17844 36.3479 6.03351 36.5696 5.76641 36.7117C5.28904 36.9731 4.66674 36.9759 3.89954 36.7202Z" fill="black"/>
<path d="M31.3086 35.6967C31.0984 35.6626 30.9052 35.5859 30.729 35.4666C30.6606 35.4228 30.6072 35.3592 30.5757 35.2843C30.5443 35.2094 30.5364 35.1267 30.5531 35.0472C30.5697 34.9677 30.6101 34.8951 30.669 34.8391C30.7278 34.7831 30.8023 34.7463 30.8825 34.7336C31.5359 34.6143 32.0501 34.7791 32.4251 35.2279C32.857 35.7336 32.7461 36.0518 32.0927 36.1825C31.7518 36.2507 31.5813 36.1939 31.5813 36.0121C31.5813 35.8359 31.4905 35.7308 31.3086 35.6967Z" fill="black"/>
<path d="M16.1333 37.9958C15.9506 38.6974 16.3195 39.4008 16.9573 39.567C17.5952 39.7331 18.2604 39.299 18.4431 38.5974C18.6259 37.8958 18.257 37.1923 17.6192 37.0262C16.9813 36.8601 16.3161 37.2941 16.1333 37.9958Z" fill="black"/>
<path d="M9.31985 40.6833C10.0402 40.6833 10.6241 40.0994 10.6241 39.3791C10.6241 38.6588 10.0402 38.0748 9.31985 38.0748C8.59953 38.0748 8.01562 38.6588 8.01562 39.3791C8.01562 40.0994 8.59953 40.6833 9.31985 40.6833Z" fill="black"/>
<path d="M11.541 47.2546C12.2599 47.5092 13.0198 47.2155 13.2383 46.5986C13.4567 45.9817 13.051 45.2753 12.332 45.0207C11.6131 44.7661 10.8532 45.0598 10.6347 45.6766C10.4163 46.2935 10.822 47 11.541 47.2546Z" fill="black"/>
<path d="M49.7716 46.9088C49.6055 47.658 49.9963 48.3818 50.6444 48.5255C51.2924 48.6692 51.9525 48.1783 52.1186 47.4291C52.2847 46.6799 51.8939 45.956 51.2458 45.8124C50.5978 45.6687 49.9377 46.1596 49.7716 46.9088Z" fill="black"/>
<path d="M37.8212 48.684C38.3282 49.3214 39.2082 49.4651 39.7866 49.005C40.3651 48.5448 40.423 47.6551 39.916 47.0177C39.4089 46.3803 38.529 46.2365 37.9505 46.6967C37.3721 47.1568 37.3141 48.0465 37.8212 48.684Z" fill="black"/>
<path d="M40.3771 57.1835C40.3286 57.2425 40.2688 57.2912 40.2013 57.327C40.1338 57.3628 40.06 57.3849 39.9839 57.392C39.9079 57.3991 39.8311 57.3912 39.7582 57.3686C39.6852 57.346 39.6175 57.3091 39.5588 57.2603L39.2007 56.9619C38.822 56.6505 38.5384 56.2548 38.4121 55.8616C38.2859 55.4684 38.3273 55.1099 38.5273 54.8649L38.7234 54.6262C38.8229 54.5045 38.9586 54.4147 39.1227 54.3617C39.2868 54.3087 39.476 54.2937 39.6796 54.3175C39.8831 54.3412 40.097 54.4033 40.3089 54.5002C40.5207 54.5971 40.7264 54.7268 40.9142 54.8819L41.2722 55.1803C41.3312 55.2288 41.3799 55.2886 41.4157 55.3561C41.4515 55.4236 41.4736 55.4975 41.4807 55.5735C41.4879 55.6496 41.4799 55.7263 41.4573 55.7992C41.4347 55.8722 41.3978 55.94 41.3489 55.9986L40.3771 57.1835Z" fill="black"/>
<path d="M60.8833 58.4788C60.2298 58.5982 59.9456 58.9704 60.0309 59.5955C60.0479 59.7319 59.9883 59.803 59.8519 59.8086L59.6388 59.8257C59.4285 59.8428 59.3575 59.7518 59.4257 59.5529L60.1162 57.4218C60.281 56.916 60.622 56.7313 61.1391 56.8677C61.4915 56.9586 61.625 57.2683 61.5398 57.7969C61.5144 57.9655 61.4375 58.1219 61.3198 58.2442C61.2021 58.3664 61.0495 58.4485 60.8833 58.4788Z" fill="black"/>
<path d="M17.6833 61.2008C18.0608 61.0989 18.32 60.8431 18.2623 60.6294C18.2046 60.4157 17.8519 60.325 17.4745 60.4268C17.0971 60.5287 16.8379 60.7845 16.8956 60.9982C16.9532 61.2119 17.3059 61.3026 17.6833 61.2008Z" fill="black"/>
<path d="M58.7097 63.2685L52.5989 65.8168C51.7352 63.7542 51.9596 62.4531 53.2721 61.9134C54.3403 61.4759 55.1983 61.7571 55.846 62.7571C55.9995 62.9901 56.2125 63.0838 56.4853 63.0383C57.383 62.8963 58.1245 62.973 58.7097 63.2685Z" fill="black"/>
<path d="M42.2434 67.6829L42.269 85.9644C42.269 86.3564 42.465 86.5582 42.8571 86.5695L46.931 86.6462C47.448 86.6576 47.7265 86.9218 47.7662 87.4388L47.8003 87.7797C47.805 87.8319 47.7991 87.8845 47.7831 87.9344C47.7671 87.9843 47.7412 88.0305 47.707 88.0702C47.6729 88.1099 47.6311 88.1424 47.5842 88.1657C47.5372 88.189 47.4861 88.2027 47.4338 88.2059L40.8542 88.5468C40.4678 88.5639 40.2746 88.3792 40.2746 87.9928L40.3172 68.2028C40.1127 67.8619 40.2633 67.6375 40.769 67.5295C41.5474 67.359 42.0389 67.4102 42.2434 67.6829Z" fill="black"/>
<path d="M37.1726 68.2713L37.2493 87.976C37.255 88.3397 37.0731 88.5187 36.7038 88.513L30.5504 88.3511C29.9708 88.3397 29.718 88.0442 29.7918 87.4647L29.8174 87.226C29.8419 87.0439 29.9301 86.8766 30.0662 86.7546C30.2023 86.6326 30.3772 86.564 30.5589 86.5613L34.8118 86.4845C35.13 86.4789 35.2919 86.3141 35.2976 85.9903L35.3573 67.9219C35.4198 68.1207 35.7493 68.0866 36.3459 67.8196C36.4605 67.7677 36.589 67.7537 36.713 67.7797C36.837 67.8058 36.9501 67.8704 37.0362 67.9645C37.1101 68.044 37.1556 68.1463 37.1726 68.2713Z" fill="black"/>
</svg>
