<svg width="65" height="108" viewBox="0 0 65 108" fill="none" xmlns="http://www.w3.org/2000/svg">
<path d="M26.5758 81.7634L29.0219 87.5504C29.0693 87.6636 29.0766 87.7896 29.0425 87.9074C29.0084 88.0253 28.9349 88.1279 28.8344 88.1982L16.391 97.0108C16.331 97.0523 16.2894 97.1155 16.2751 97.187C16.2608 97.2586 16.2749 97.3329 16.3143 97.3943L20.1581 103.292C20.4479 103.741 20.803 103.801 21.2235 103.471L21.6155 103.164C21.9678 102.892 22.0218 102.565 21.7775 102.184L19.2888 98.2721C19.1813 98.1076 19.1424 97.9073 19.1806 97.7133C19.2188 97.5193 19.3309 97.3469 19.4934 97.2324L31.2549 88.9141C31.5049 88.738 31.5674 88.5078 31.4424 88.2237L28.6128 81.9083" stroke="black" stroke-width="1.70457"/>
<path d="M28.6128 81.9083L37.0589 81.4139" stroke="#F69FAC" stroke-width="1.70457"/>
<path d="M37.0591 81.4138L41.6614 89.0332C42.0365 89.662 42.1868 90.3983 42.0876 91.1213L40.0506 106.275C39.9824 106.769 40.1955 107.014 40.6898 107.008L48.1388 106.948C48.2306 106.947 48.3213 106.928 48.4051 106.89C48.4889 106.852 48.5639 106.798 48.6256 106.73C48.6873 106.662 48.7342 106.582 48.7633 106.494C48.7925 106.407 48.8033 106.315 48.795 106.224C48.7837 106.116 48.7808 106.008 48.7865 105.9C48.7947 105.785 48.7792 105.67 48.7409 105.562C48.7026 105.454 48.6424 105.354 48.564 105.27C48.4856 105.186 48.3907 105.119 48.2853 105.074C48.1799 105.028 48.0661 105.005 47.9513 105.005L42.8631 104.988C42.7883 104.987 42.7145 104.971 42.6465 104.94C42.5786 104.908 42.518 104.863 42.4689 104.807C42.4197 104.75 42.3831 104.684 42.3615 104.613C42.3398 104.541 42.3336 104.466 42.3432 104.391L44.2268 90.269C44.2666 89.9736 44.2069 89.698 44.0478 89.4423L39.0023 81.3115" stroke="black" stroke-width="1.70457"/>
<path d="M39.0021 81.3115L63.3177 80.6212C63.7382 80.6098 63.8604 80.411 63.6842 80.0246L46.3658 41.4418C46.1963 41.0627 46.1073 40.652 46.1044 40.2354C46.1014 39.8189 46.1847 39.4055 46.3488 39.0213L62.099 1.90436C62.126 1.83887 62.1366 1.76765 62.1298 1.6972C62.123 1.62674 62.0991 1.55927 62.0602 1.50088C62.0212 1.44248 61.9685 1.395 61.9068 1.36277C61.8452 1.33053 61.7765 1.31457 61.7069 1.31629C56.5535 1.37311 51.2551 1.53787 45.8119 1.8106C33.2378 2.44697 19.661 3.00949 5.08125 3.49813C4.98006 3.50079 4.88117 3.52877 4.79361 3.57954C4.70604 3.63031 4.63261 3.70224 4.58004 3.78874C4.52747 3.87523 4.49743 3.97353 4.49267 4.07463C4.48792 4.17574 4.50861 4.27641 4.55283 4.36745L22.6553 42.2173C22.7349 42.3839 22.774 42.5671 22.7696 42.7521C22.7652 42.9372 22.7173 43.119 22.6297 43.2827L1.82552 81.7036C1.77768 81.7932 1.75423 81.8938 1.7575 81.9953C1.76078 82.0968 1.79068 82.1957 1.84419 82.282C1.89771 82.3683 1.97298 82.439 2.06244 82.4871C2.1519 82.5352 2.25241 82.5589 2.35393 82.5559L26.5758 81.7633" stroke="#F69FAC" stroke-width="1.70457"/>
<path d="M39.0023 81.3115L37.0591 81.4138" stroke="black" stroke-width="1.70457"/>
<path d="M28.6126 81.9082C27.9251 81.6468 27.2461 81.5985 26.5757 81.7633" stroke="black" stroke-width="1.70457"/>
<path d="M31.9885 14.7583C31.6058 12.8432 30.4781 11.1586 28.8533 10.075C27.2285 8.99141 25.2398 8.59763 23.3247 8.98029L21.1852 9.40781C20.2369 9.59729 19.3352 9.97168 18.5316 10.5096C17.728 11.0476 17.0383 11.7385 16.5017 12.543C15.9652 13.3476 15.5923 14.2499 15.4045 15.1985C15.2167 16.1471 15.2176 17.1234 15.407 18.0717L15.6743 19.4089C16.057 21.324 17.1848 23.0087 18.8095 24.0923C20.4343 25.1759 22.423 25.5696 24.3381 25.187L26.4777 24.7595C27.4259 24.57 28.3276 24.1956 29.1312 23.6576C29.9348 23.1197 30.6246 22.4287 31.1611 21.6242C31.6977 20.8197 32.0705 19.9174 32.2583 18.9688C32.4462 18.0202 32.4453 17.0439 32.2558 16.0956L31.9885 14.7583Z" stroke="#F69FAC" stroke-width="1.70457"/>
<path d="M50.7937 15.7688C50.7017 14.8129 50.4223 13.8845 49.9714 13.0366C49.5206 12.1887 48.9071 11.4379 48.1661 10.8271C47.4251 10.2163 46.5711 9.75738 45.6528 9.47662C44.7344 9.19586 43.7698 9.09873 42.8139 9.19077L40.4385 9.41953C38.508 9.60542 36.7304 10.5506 35.4968 12.047C34.2632 13.5435 33.6746 15.4688 33.8605 17.3993L33.9944 18.7906C34.0864 19.7465 34.3658 20.6749 34.8167 21.5228C35.2675 22.3707 35.8809 23.1215 36.6219 23.7323C37.3629 24.3431 38.217 24.802 39.1353 25.0828C40.0537 25.3635 41.0183 25.4607 41.9742 25.3686L44.3496 25.1399C46.2801 24.954 48.0576 24.0088 49.2912 22.5123C50.5249 21.0158 51.1135 19.0906 50.9276 17.1601L50.7937 15.7688Z" stroke="#F69FAC" stroke-width="1.70457"/>
<path d="M24.3256 17.041C24.3256 16.8127 24.2349 16.5937 24.0735 16.4323C23.9121 16.2709 23.6931 16.1802 23.4648 16.1802C23.2365 16.1802 23.0176 16.2709 22.8561 16.4323C22.6947 16.5937 22.604 16.8127 22.604 17.041C22.604 17.2693 22.6947 17.4882 22.8561 17.6497C23.0176 17.8111 23.2365 17.9018 23.4648 17.9018C23.6931 17.9018 23.9121 17.8111 24.0735 17.6497C24.2349 17.4882 24.3256 17.2693 24.3256 17.041Z" stroke="black" stroke-width="1.70457"/>
<path d="M42.9719 17.4852C43.0004 17.3851 43.0053 17.2793 42.9863 17.1739C42.9674 17.0685 42.9249 16.9656 42.8613 16.871C42.7978 16.7763 42.7144 16.6919 42.6159 16.6224C42.5174 16.5529 42.4058 16.4998 42.2874 16.4661C42.0483 16.3979 41.7961 16.4129 41.5863 16.5077C41.3764 16.6025 41.2262 16.7693 41.1686 16.9715C41.1401 17.0716 41.1352 17.1773 41.1541 17.2827C41.1731 17.3881 41.2156 17.4911 41.2791 17.5857C41.3427 17.6804 41.4261 17.7648 41.5246 17.8343C41.623 17.9038 41.7347 17.9569 41.8531 17.9906C42.0922 18.0587 42.3444 18.0438 42.5542 17.949C42.764 17.8542 42.9143 17.6874 42.9719 17.4852Z" stroke="black" stroke-width="1.70457"/>
<path d="M39.0021 81.3115L37.0589 81.4138L28.6128 81.9081C27.9253 81.6468 27.2463 81.5985 26.5758 81.7633L2.35393 82.5559C2.25241 82.5589 2.1519 82.5352 2.06244 82.4871C1.97298 82.439 1.89771 82.3683 1.84419 82.282C1.79068 82.1957 1.76078 82.0968 1.7575 81.9953C1.75423 81.8938 1.77768 81.7932 1.82552 81.7036L22.6297 43.2827C22.7173 43.119 22.7652 42.9372 22.7696 42.7521C22.774 42.5671 22.7349 42.3839 22.6553 42.2173L4.55283 4.36745C4.50861 4.27641 4.48792 4.17574 4.49267 4.07463C4.49743 3.97353 4.52747 3.87523 4.58004 3.78874C4.63261 3.70224 4.70604 3.63031 4.79361 3.57954C4.88117 3.52877 4.98006 3.50079 5.08125 3.49813C19.661 3.00949 33.2378 2.44697 45.8119 1.8106C51.2551 1.53787 56.5535 1.37311 61.7069 1.31629C61.7765 1.31457 61.8452 1.33053 61.9068 1.36277C61.9685 1.395 62.0212 1.44248 62.0602 1.50088C62.0991 1.55927 62.123 1.62674 62.1298 1.6972C62.1366 1.76765 62.126 1.83887 62.099 1.90436L46.3488 39.0213C46.1847 39.4055 46.1014 39.8189 46.1044 40.2354C46.1073 40.652 46.1963 41.0627 46.3658 41.4418L63.6842 80.0246C63.8604 80.411 63.7382 80.6098 63.3177 80.6212L39.0021 81.3115ZM31.9886 14.7582C31.6059 12.8431 30.4781 11.1585 28.8534 10.0749C27.2286 8.9913 25.2399 8.59752 23.3248 8.98017L21.1852 9.40769C20.2369 9.59717 19.3353 9.97157 18.5317 10.5095C17.7281 11.0475 17.0383 11.7384 16.5018 12.5429C15.9652 13.3474 15.5924 14.2498 15.4046 15.1984C15.2167 16.147 15.2176 17.1233 15.4071 18.0716L15.6744 19.4088C16.057 21.3239 17.1848 23.0086 18.8096 24.0921C20.4344 25.1757 22.4231 25.5695 24.3382 25.1868L26.4777 24.7593C27.426 24.5699 28.3277 24.1955 29.1313 23.6575C29.9349 23.1196 30.6246 22.4286 31.1612 21.6241C31.6977 20.8196 32.0705 19.9173 32.2584 18.9687C32.4462 18.0201 32.4453 17.0437 32.2559 16.0955L31.9886 14.7582ZM50.7939 15.7686C50.7018 14.8127 50.4224 13.8843 49.9716 13.0365C49.5207 12.1886 48.9073 11.4378 48.1663 10.8269C47.4253 10.2161 46.5713 9.75723 45.6529 9.47646C44.7346 9.1957 43.7699 9.09857 42.814 9.19062L40.4386 9.41937C38.5082 9.60527 36.7306 10.5504 35.497 12.0469C34.2634 13.5434 33.6747 15.4686 33.8606 17.3991L33.9945 18.7905C34.0866 19.7464 34.366 20.6747 34.8168 21.5226C35.2677 22.3705 35.8811 23.1213 36.6221 23.7321C37.3631 24.343 38.2171 24.8019 39.1355 25.0826C40.0538 25.3634 41.0185 25.4605 41.9743 25.3685L44.3498 25.1397C46.2802 24.9538 48.0578 24.0087 49.2914 22.5122C50.525 21.0157 51.1136 19.0904 50.9278 17.16L50.7939 15.7686Z" fill="#F69FAC"/>
<path d="M32.2558 16.0956C32.4453 17.0439 32.4462 18.0202 32.2583 18.9688C32.0705 19.9174 31.6977 20.8197 31.1611 21.6242C30.6246 22.4287 29.9348 23.1197 29.1312 23.6576C28.3276 24.1956 27.4259 24.57 26.4777 24.7595L24.3381 25.187C22.423 25.5696 20.4343 25.1759 18.8095 24.0923C17.1848 23.0087 16.057 21.324 15.6743 19.4089L15.407 18.0717C15.2176 17.1234 15.2167 16.1471 15.4045 15.1985C15.5923 14.2499 15.9652 13.3475 16.5017 12.543C17.0383 11.7385 17.728 11.0476 18.5316 10.5096C19.3352 9.97168 20.2369 9.59729 21.1852 9.40781L23.3247 8.98029C25.2398 8.59763 27.2285 8.99141 28.8533 10.075C30.4781 11.1586 31.6058 12.8432 31.9885 14.7583L32.2558 16.0956ZM24.3257 17.041C24.3257 16.8127 24.2351 16.5938 24.0736 16.4323C23.9122 16.2709 23.6932 16.1802 23.4649 16.1802C23.2366 16.1802 23.0177 16.2709 22.8563 16.4323C22.6948 16.5938 22.6041 16.8127 22.6041 17.041C22.6041 17.2693 22.6948 17.4883 22.8563 17.6497C23.0177 17.8111 23.2366 17.9018 23.4649 17.9018C23.6932 17.9018 23.9122 17.8111 24.0736 17.6497C24.2351 17.4883 24.3257 17.2693 24.3257 17.041Z" fill="white"/>
<path d="M50.9276 17.1601C51.1135 19.0906 50.5249 21.0158 49.2912 22.5123C48.0576 24.0088 46.2801 24.954 44.3496 25.1399L41.9742 25.3686C41.0183 25.4607 40.0537 25.3635 39.1353 25.0828C38.217 24.802 37.3629 24.3431 36.6219 23.7323C35.8809 23.1215 35.2675 22.3707 34.8167 21.5228C34.3658 20.6749 34.0864 19.7465 33.9944 18.7906L33.8605 17.3993C33.6746 15.4688 34.2632 13.5435 35.4968 12.047C36.7304 10.5506 38.508 9.60542 40.4385 9.41953L42.8139 9.19077C43.7698 9.09873 44.7344 9.19586 45.6528 9.47662C46.5711 9.75738 47.4251 10.2163 48.1661 10.8271C48.9071 11.4379 49.5206 12.1887 49.9714 13.0366C50.4223 13.8845 50.7017 14.8129 50.7937 15.7688L50.9276 17.1601ZM42.9718 17.4854C43.0003 17.3853 43.0052 17.2796 42.9863 17.1742C42.9673 17.0688 42.9248 16.9658 42.8613 16.8712C42.7977 16.7765 42.7143 16.6921 42.6158 16.6226C42.5174 16.5531 42.4057 16.5 42.2873 16.4663C42.0482 16.3982 41.796 16.4131 41.5862 16.5079C41.3764 16.6027 41.2261 16.7695 41.1685 16.9717C41.14 17.0718 41.1351 17.1776 41.1541 17.283C41.173 17.3884 41.2155 17.4913 41.2791 17.5859C41.3426 17.6806 41.426 17.765 41.5245 17.8345C41.623 17.904 41.7346 17.9571 41.853 17.9908C42.0921 18.059 42.3443 18.044 42.5542 17.9492C42.764 17.8544 42.9142 17.6876 42.9718 17.4854Z" fill="white"/>
<path d="M23.4648 17.9018C23.9402 17.9018 24.3256 17.5164 24.3256 17.041C24.3256 16.5656 23.9402 16.1802 23.4648 16.1802C22.9894 16.1802 22.604 16.5656 22.604 17.041C22.604 17.5164 22.9894 17.9018 23.4648 17.9018Z" fill="black"/>
<path d="M41.8532 17.9907C42.3512 18.1325 42.8521 17.9062 42.972 17.4852C43.0919 17.0642 42.7855 16.6079 42.2875 16.4661C41.7895 16.3242 41.2886 16.5505 41.1687 16.9715C41.0488 17.3925 41.3553 17.8488 41.8532 17.9907Z" fill="black"/>
<path d="M39.0023 81.3115L44.0478 89.4423C44.2069 89.698 44.2666 89.9736 44.2268 90.269L42.3432 104.391C42.3336 104.466 42.3398 104.541 42.3615 104.613C42.3831 104.684 42.4197 104.75 42.4689 104.807C42.518 104.863 42.5786 104.908 42.6465 104.94C42.7145 104.971 42.7883 104.987 42.8631 104.988L47.9513 105.005C48.0661 105.005 48.1799 105.028 48.2853 105.074C48.3907 105.119 48.4856 105.186 48.564 105.27C48.6424 105.354 48.7026 105.454 48.7409 105.562C48.7792 105.67 48.7947 105.785 48.7865 105.9C48.7808 106.008 48.7837 106.116 48.795 106.224C48.8033 106.315 48.7925 106.407 48.7633 106.494C48.7342 106.582 48.6873 106.662 48.6256 106.73C48.5639 106.798 48.4889 106.852 48.4051 106.89C48.3213 106.928 48.2306 106.947 48.1388 106.948L40.6898 107.008C40.1955 107.014 39.9824 106.769 40.0506 106.275L42.0876 91.1213C42.1868 90.3983 42.0365 89.662 41.6614 89.0332L37.0591 81.4138L39.0023 81.3115Z" fill="black"/>
<path d="M28.6128 81.9082L31.4424 88.2236C31.5674 88.5077 31.5049 88.7378 31.2549 88.914L19.4934 97.2322C19.3309 97.3468 19.2188 97.5192 19.1806 97.7132C19.1424 97.9071 19.1813 98.1075 19.2888 98.272L21.7775 102.184C22.0218 102.565 21.9678 102.891 21.6155 103.164L21.2235 103.471C20.803 103.8 20.4479 103.741 20.1581 103.292L16.3143 97.3942C16.2749 97.3328 16.2608 97.2585 16.2751 97.1869C16.2894 97.1153 16.331 97.0521 16.391 97.0106L28.8344 88.198C28.9349 88.1277 29.0084 88.0251 29.0425 87.9073C29.0766 87.7894 29.0693 87.6634 29.0219 87.5503L26.5758 81.7633C27.2463 81.5985 27.9253 81.6468 28.6128 81.9082Z" fill="black"/>
</svg>
