<svg width="69" height="106" viewBox="0 0 69 106" fill="none" xmlns="http://www.w3.org/2000/svg">
<path d="M32.117 87.671L32.1426 102.475C32.1425 102.556 32.1266 102.637 32.0956 102.712C32.0647 102.787 32.0194 102.855 31.9623 102.912C31.9052 102.969 31.8375 103.014 31.7631 103.045C31.6887 103.075 31.6091 103.09 31.5289 103.089L25.1198 102.978C24.9635 102.973 24.8115 103.03 24.6955 103.137C24.5795 103.243 24.5086 103.391 24.4975 103.549L24.4805 103.873C24.4736 103.96 24.4846 104.047 24.5129 104.129C24.5413 104.211 24.5864 104.287 24.6454 104.352C24.7045 104.417 24.7762 104.469 24.8563 104.505C24.9364 104.541 25.0231 104.561 25.1112 104.563L33.5062 104.725C33.8244 104.731 33.9835 104.575 33.9835 104.256L33.9323 87.6881" stroke="black" stroke-width="1.70457"/>
<path d="M33.9323 87.688L40.6227 87.475" stroke="#4BC87D" stroke-width="1.70457"/>
<path d="M40.6228 87.4749L40.5716 104.418C40.5705 104.465 40.5787 104.51 40.5958 104.553C40.613 104.596 40.6387 104.635 40.6714 104.668C40.704 104.701 40.743 104.726 40.786 104.744C40.8289 104.761 40.8748 104.769 40.9211 104.768L49.4524 104.657C49.544 104.655 49.6342 104.634 49.7172 104.596C49.8003 104.557 49.8743 104.501 49.9345 104.432C49.9947 104.363 50.0398 104.282 50.0669 104.195C50.0939 104.107 50.1024 104.015 50.0916 103.924L50.049 103.583C50.0282 103.405 49.943 103.241 49.8096 103.122C49.6761 103.003 49.5036 102.936 49.3246 102.935L43.0518 102.91C42.8905 102.908 42.7366 102.843 42.6234 102.73C42.5101 102.616 42.4467 102.464 42.4467 102.305L42.4296 87.4067" stroke="black" stroke-width="1.70457"/>
<path d="M42.4296 87.4067L67.0861 86.6738C67.8304 86.651 68.052 86.3016 67.7509 85.6255L49.3501 44.5114C49.1889 44.1508 49.1035 43.7606 49.0991 43.3648C49.0947 42.969 49.1714 42.5761 49.3245 42.2102L66.285 2.11028C66.3105 2.0486 66.3199 1.98149 66.3123 1.9151C66.3047 1.84872 66.2803 1.78515 66.2414 1.73012C66.2024 1.6751 66.1502 1.63038 66.0893 1.60002C66.0285 1.56967 65.9609 1.55462 65.8929 1.55628L5.15925 4.05346C5.06875 4.05777 4.98065 4.08419 4.90274 4.13045C4.82484 4.1767 4.75946 4.24136 4.71235 4.31876C4.66525 4.39615 4.63786 4.48393 4.63256 4.57438C4.62725 4.66483 4.64419 4.75518 4.68192 4.83754L24.114 45.9687C24.194 46.1358 24.2274 46.3213 24.2109 46.5058C24.1944 46.6902 24.1285 46.8668 24.0202 47.017C23.5316 47.7102 23.0998 48.3978 22.7248 49.0796C15.7929 61.7843 8.7786 74.7589 1.68192 88.0033C1.652 88.0585 1.63713 88.1207 1.6388 88.1834C1.64047 88.2462 1.65863 88.3074 1.69144 88.361C1.72426 88.4145 1.77058 88.4585 1.82576 88.4885C1.88093 88.5184 1.94302 88.5334 2.00579 88.5317L32.1169 87.6709" stroke="#4BC87D" stroke-width="1.70457"/>
<path d="M42.4296 87.4071C41.7535 87.2878 41.1512 87.3105 40.6228 87.4753" stroke="#4BC87D" stroke-width="1.70457"/>
<path d="M33.9323 87.6881C33.3187 87.5631 32.7135 87.5574 32.1169 87.671" stroke="#4BC87D" stroke-width="1.70457"/>
<path d="M20.2616 18.4147L28.2901 18.4914" stroke="#4BC87D" stroke-width="1.70457"/>
<path d="M28.29 18.491C30.2162 18.7808 32.1566 18.7439 34.1111 18.3802C34.3952 18.3291 34.5259 18.1587 34.5032 17.8689C33.9918 11.5109 29.2872 7.96533 23.1763 8.72386C17.7984 9.38864 14.5171 12.3802 14.1166 18.0223C14.0938 18.3234 14.2302 18.4939 14.5257 18.5336C16.4803 18.8121 18.3922 18.7723 20.2615 18.4143" stroke="#4BC87D" stroke-width="1.70457"/>
<path d="M28.2901 18.4913C27.7276 13.3094 20.7304 13.335 20.2616 18.4146" stroke="black" stroke-width="1.70457"/>
<path d="M42.5575 18.2865L42.7791 18.4484C42.9063 18.5428 43.0617 18.5935 43.2223 18.5933L50.5434 18.5762" stroke="#4BC87D" stroke-width="1.70457"/>
<path d="M50.5431 18.5764L55.8614 18.6702C56.6284 18.6815 56.9324 18.3122 56.7733 17.5622C55.2846 10.5962 50.9209 7.84329 43.6822 9.30353C38.398 10.3689 37.2134 13.2837 36.2588 17.9031C36.185 18.2497 36.3213 18.4543 36.6679 18.5168C38.7589 18.8747 40.7219 18.798 42.5572 18.2866" stroke="#4BC87D" stroke-width="1.70457"/>
<path d="M50.5434 18.5766C50.2934 16.497 49.1144 15.2925 47.0064 14.9629C44.6485 14.5936 43.1655 15.7016 42.5575 18.2868" stroke="black" stroke-width="1.70457"/>
<path d="M42.4296 87.4067C41.7534 87.2874 41.1511 87.3102 40.6227 87.4749L33.9323 87.688C33.3186 87.563 32.7135 87.5573 32.1169 87.6709L2.00579 88.5317C1.94302 88.5334 1.88093 88.5184 1.82576 88.4885C1.77058 88.4585 1.72426 88.4145 1.69144 88.361C1.65863 88.3074 1.64047 88.2462 1.6388 88.1834C1.63713 88.1207 1.652 88.0585 1.68192 88.0033C8.7786 74.7589 15.7929 61.7843 22.7248 49.0796C23.0998 48.3978 23.5316 47.7102 24.0202 47.017C24.1285 46.8668 24.1944 46.6902 24.2109 46.5058C24.2274 46.3213 24.194 46.1358 24.114 45.9687L4.68192 4.83754C4.64419 4.75518 4.62725 4.66483 4.63256 4.57438C4.63786 4.48393 4.66525 4.39615 4.71235 4.31876C4.75946 4.24136 4.82484 4.1767 4.90274 4.13045C4.98065 4.08419 5.06875 4.05777 5.15925 4.05346L65.8929 1.55628C65.9609 1.55462 66.0285 1.56967 66.0893 1.60002C66.1502 1.63038 66.2024 1.6751 66.2414 1.73012C66.2803 1.78515 66.3047 1.84872 66.3123 1.9151C66.3199 1.98149 66.3105 2.0486 66.285 2.11028L49.3245 42.2102C49.1714 42.5761 49.0947 42.969 49.0991 43.3648C49.1035 43.7606 49.1889 44.1508 49.3501 44.5114L67.7509 85.6255C68.052 86.3016 67.8304 86.651 67.0861 86.6738L42.4296 87.4067ZM20.2617 18.4144L28.2902 18.4911C30.2163 18.7809 32.1567 18.744 34.1113 18.3803C34.3954 18.3292 34.5261 18.1588 34.5033 17.869C33.992 11.511 29.2873 7.96542 23.1765 8.72395C17.7986 9.38873 14.5173 12.3803 14.1167 18.0224C14.094 18.3235 14.2304 18.494 14.5258 18.5337C16.4804 18.8122 18.3923 18.7724 20.2617 18.4144ZM42.5574 18.2866L42.779 18.4485C42.9062 18.5429 43.0616 18.5936 43.2222 18.5934L50.5433 18.5763L55.8616 18.6701C56.6286 18.6815 56.9326 18.3121 56.7735 17.5621C55.2848 10.5961 50.9211 7.84325 43.6824 9.3035C38.3982 10.3689 37.2136 13.2837 36.259 17.9031C36.1852 18.2497 36.3215 18.4542 36.6681 18.5167C38.7591 18.8747 40.7221 18.798 42.5574 18.2866Z" fill="#4BC87D"/>
<path d="M28.29 18.491C27.7275 13.3092 20.7303 13.3347 20.2615 18.4143C18.3922 18.7723 16.4803 18.8121 14.5257 18.5336C14.2302 18.4939 14.0938 18.3234 14.1166 18.0223C14.5171 12.3802 17.7984 9.38864 23.1763 8.72386C29.2872 7.96533 33.9918 11.5109 34.5032 17.8689C34.5259 18.1587 34.3952 18.3291 34.1111 18.3802C32.1566 18.7439 30.2162 18.7808 28.29 18.491Z" fill="white"/>
<path d="M50.5431 18.5764C50.2931 16.4968 49.1141 15.2923 47.0061 14.9627C44.6481 14.5934 43.1651 15.7014 42.5572 18.2866C40.7219 18.798 38.7589 18.8747 36.6679 18.5168C36.3213 18.4543 36.185 18.2497 36.2588 17.9031C37.2134 13.2837 38.398 10.3689 43.6822 9.30353C50.9209 7.84329 55.2846 10.5962 56.7733 17.5622C56.9324 18.3122 56.6284 18.6815 55.8614 18.6702L50.5431 18.5764Z" fill="white"/>
<path d="M28.2901 18.4913L20.2616 18.4146C20.7304 13.335 27.7276 13.3094 28.2901 18.4913Z" fill="black"/>
<path d="M50.5434 18.5766L43.2223 18.5937C43.0617 18.5939 42.9063 18.5431 42.7791 18.4488L42.5575 18.2868C43.1655 15.7016 44.6485 14.5936 47.0064 14.9629C49.1144 15.2925 50.2934 16.497 50.5434 18.5766Z" fill="black"/>
<path d="M42.4296 87.4071L42.4467 102.305C42.4467 102.464 42.5101 102.617 42.6234 102.73C42.7366 102.843 42.8905 102.908 43.0518 102.91L49.3246 102.936C49.5036 102.937 49.6761 103.003 49.8096 103.122C49.943 103.242 50.0282 103.406 50.049 103.583L50.0916 103.924C50.1024 104.015 50.0939 104.108 50.0669 104.195C50.0398 104.283 49.9947 104.363 49.9345 104.432C49.8743 104.502 49.8003 104.557 49.7172 104.596C49.6342 104.635 49.544 104.656 49.4524 104.657L40.9211 104.768C40.8748 104.769 40.8289 104.761 40.786 104.744C40.743 104.727 40.704 104.701 40.6714 104.668C40.6387 104.636 40.613 104.597 40.5958 104.554C40.5787 104.511 40.5705 104.465 40.5716 104.419L40.6228 87.4753C41.1512 87.3105 41.7535 87.2878 42.4296 87.4071Z" fill="black"/>
<path d="M33.9323 87.6881L33.9835 104.256C33.9835 104.575 33.8244 104.731 33.5062 104.725L25.1112 104.563C25.0231 104.561 24.9364 104.541 24.8563 104.505C24.7762 104.469 24.7045 104.417 24.6454 104.352C24.5864 104.287 24.5413 104.211 24.5129 104.129C24.4846 104.047 24.4736 103.96 24.4805 103.873L24.4975 103.549C24.5086 103.391 24.5795 103.243 24.6955 103.137C24.8115 103.03 24.9635 102.973 25.1198 102.978L31.5289 103.089C31.6091 103.09 31.6887 103.075 31.7631 103.045C31.8375 103.014 31.9052 102.969 31.9623 102.912C32.0194 102.855 32.0647 102.787 32.0956 102.712C32.1266 102.637 32.1425 102.556 32.1426 102.475L32.117 87.671C32.7136 87.5574 33.3187 87.5631 33.9323 87.6881Z" fill="black"/>
</svg>
