<svg width="90" height="86" viewBox="0 0 90 86" fill="none" xmlns="http://www.w3.org/2000/svg">
<path d="M36.0025 44.696C32.5479 46.2586 29.2468 47.5597 26.099 48.5995C24.4399 49.145 22.9796 49.8893 21.7183 50.8325C17.2068 54.2075 12.6812 57.6394 8.14139 61.1281C8.04067 61.2067 7.91323 61.2434 7.78501 61.2307C7.65678 61.2181 7.53739 61.157 7.45105 61.0599L3.0021 56.0144C2.55891 55.5144 2.10723 55.503 1.647 55.9803L1.38279 56.253C1.08165 56.5655 1.07596 56.8837 1.36573 57.2076L7.35725 63.9321C7.40449 63.9831 7.46897 64.0148 7.53823 64.0211C7.60748 64.0274 7.6766 64.0078 7.73226 63.9662C12.8801 60.0172 18.025 56.1053 23.1671 52.2303C24.1899 51.4575 25.1416 50.9206 26.0223 50.6194C31.8178 48.6251 37.6474 46.6222 43.5111 44.6108" stroke="black" stroke-width="1.70457"/>
<path d="M43.5112 44.6109L51.3011 44.4319" stroke="#C9CACA" stroke-width="1.70457"/>
<path d="M51.301 44.4319C48.9032 50.5626 46.5368 56.5286 44.2015 62.3298C43.6731 63.6537 43.4458 64.9605 43.5197 66.2503C43.8436 71.8129 44.1816 77.2334 44.5339 82.5119C44.5409 82.5989 44.5299 82.6864 44.5014 82.769C44.4729 82.8515 44.4276 82.9272 44.3683 82.9913C44.309 83.0554 44.237 83.1065 44.157 83.1413C44.0769 83.1762 43.9905 83.194 43.9032 83.1937L37.7071 83.2278C37.2639 83.2335 37.0139 83.4551 36.9571 83.8926L36.8974 84.3528C36.8853 84.4538 36.8948 84.5561 36.9254 84.653C36.9559 84.75 37.0067 84.8393 37.0744 84.9151C37.1421 84.9909 37.2252 85.0514 37.3182 85.0926C37.4111 85.1337 37.5117 85.1547 37.6133 85.154L46.0509 85.1199C46.4657 85.1142 46.6617 84.9068 46.639 84.4977L45.5311 65.6964C45.4862 64.9838 45.5997 64.2706 45.8635 63.6083L53.3124 44.8921" stroke="black" stroke-width="1.70457"/>
<path d="M53.3125 44.8921C53.2216 44.4148 53.5938 44.2359 54.429 44.3552C54.8268 44.4177 55.2188 44.4433 55.6052 44.4319C60.5825 44.3296 65.5655 44.2643 70.5542 44.2359C73.3923 44.2274 76.2304 44.4745 79.077 44.287C82.0685 44.091 84.7533 44.2614 87.6169 44.1592C88.1226 44.1421 88.3726 43.8836 88.3669 43.3836C88.3073 37.0256 86.8243 31.0766 84.6169 25.0765C81.4549 16.46 75.8128 10.6985 67.3411 6.16438C64.9632 4.903 62.074 4.0252 59.4234 3.12178C57.1734 2.35472 55.0427 1.86605 53.0313 1.65582C47.7073 1.09332 42.3465 1.01944 36.9487 1.43422C30.9088 1.90014 26.2213 3.31496 22.886 5.67863C19.8803 7.80933 16.2723 11.3946 12.062 16.4344C9.41142 19.622 6.88868 23.8408 5.8489 27.6078C5.15571 30.1363 4.40569 32.7982 3.59886 35.5937C2.80624 38.3551 2.96816 41.1677 2.41417 43.9632C2.39913 44.0433 2.40197 44.1257 2.42244 44.2046C2.44291 44.2835 2.48053 44.3568 2.53262 44.4195C2.58472 44.4822 2.64998 44.5326 2.72379 44.5672C2.79761 44.6017 2.87815 44.6195 2.95965 44.6194L36.0027 44.6961" stroke="#C9CACA" stroke-width="1.70457"/>
<path d="M53.3126 44.8921L51.3011 44.4319" stroke="black" stroke-width="1.70457"/>
<path d="M43.5112 44.6108L36.0026 44.696" stroke="black" stroke-width="1.70457"/>
<path d="M38.4317 29.8749C39.5908 30.3863 39.5851 30.8834 38.4146 31.3664L27.8292 35.7131C27.7198 35.7591 27.6204 35.826 27.5367 35.91C27.453 35.994 27.3867 36.0935 27.3416 36.2027C27.2964 36.312 27.2734 36.4288 27.2737 36.5466C27.2741 36.6644 27.2977 36.7808 27.3434 36.8892L27.4798 37.2046C27.7923 37.9375 28.3094 38.142 29.031 37.8182L42.4885 31.7585C42.6858 31.6652 42.8407 31.5042 42.9232 31.3067C43.1277 30.8351 43.122 30.3408 42.9061 29.8238C42.7982 29.5624 42.6107 29.3806 42.3437 29.2783C37.747 27.5908 33.2981 25.605 28.9969 23.3208C28.3378 22.9686 27.8321 23.1248 27.4798 23.7896L27.3264 24.0794C27.2768 24.1731 27.2471 24.276 27.2392 24.3819C27.2313 24.4878 27.2454 24.5943 27.2805 24.695C27.3156 24.7956 27.3711 24.8882 27.4435 24.967C27.5159 25.0459 27.6037 25.1092 27.7014 25.1533L38.4317 29.8749Z" stroke="black" stroke-width="1.70457"/>
<path d="M51.5566 30.2157L63.2244 25.1191C63.5653 24.9714 63.6732 24.7241 63.5482 24.3776L63.2925 23.6361C63.2638 23.5514 63.2177 23.4737 63.157 23.4078C63.0964 23.3419 63.0225 23.2893 62.9401 23.2533C62.8576 23.2173 62.7683 23.1986 62.6779 23.1985C62.5875 23.1984 62.4979 23.2168 62.4147 23.2526L48.6162 29.2356C48.3536 29.3505 48.1301 29.5395 47.9732 29.7794C47.8162 30.0193 47.7327 30.2998 47.7327 30.5865C47.7327 30.8732 47.8162 31.1536 47.9732 31.3935C48.1301 31.6335 48.3536 31.8225 48.6162 31.9374L62.2527 37.9203C62.7471 38.1363 63.088 37.9914 63.2755 37.4857L63.5312 36.7953C63.6025 36.6028 63.5972 36.3902 63.5163 36.2015C63.4354 36.0127 63.2851 35.8622 63.0965 35.7811L51.5566 30.7612C51.5038 30.7378 51.4589 30.6995 51.4274 30.6511C51.3959 30.6027 51.3791 30.5462 51.3791 30.4885C51.3791 30.4307 51.3959 30.3742 51.4274 30.3257C51.4589 30.2773 51.5038 30.2391 51.5566 30.2157Z" stroke="black" stroke-width="1.70457"/>
<path d="M53.3125 44.8921L51.3011 44.4319L43.5113 44.6109L36.0027 44.6961L2.95965 44.6194C2.87815 44.6195 2.79761 44.6017 2.72379 44.5672C2.64998 44.5326 2.58472 44.4822 2.53262 44.4195C2.48053 44.3568 2.44291 44.2835 2.42244 44.2046C2.40197 44.1257 2.39913 44.0433 2.41417 43.9632C2.96816 41.1677 2.80624 38.3551 3.59886 35.5937C4.40569 32.7982 5.15571 30.1363 5.8489 27.6078C6.88868 23.8408 9.41142 19.622 12.062 16.4344C16.2723 11.3946 19.8803 7.80933 22.886 5.67863C26.2213 3.31496 30.9088 1.90014 36.9487 1.43422C42.3465 1.01944 47.7073 1.09332 53.0313 1.65582C55.0427 1.86605 57.1734 2.35472 59.4234 3.12178C62.074 4.0252 64.9632 4.903 67.3411 6.16438C75.8128 10.6985 81.4549 16.46 84.6169 25.0765C86.8243 31.0766 88.3073 37.0256 88.3669 43.3836C88.3726 43.8836 88.1226 44.1421 87.6169 44.1592C84.7533 44.2614 82.0685 44.091 79.077 44.287C76.2304 44.4745 73.3923 44.2274 70.5542 44.2359C65.5655 44.2643 60.5825 44.3296 55.6052 44.4319C55.2188 44.4433 54.8268 44.4177 54.429 44.3552C53.5938 44.2359 53.2216 44.4148 53.3125 44.8921ZM38.4317 29.8749C39.5908 30.3863 39.5851 30.8834 38.4146 31.3664L27.8293 35.7131C27.7198 35.7591 27.6204 35.826 27.5367 35.91C27.453 35.994 27.3867 36.0935 27.3416 36.2027C27.2965 36.312 27.2734 36.4288 27.2737 36.5466C27.2741 36.6644 27.2977 36.7808 27.3434 36.8892L27.4798 37.2046C27.7923 37.9375 28.3094 38.1421 29.031 37.8182L42.4885 31.7585C42.6859 31.6652 42.8407 31.5042 42.9232 31.3067C43.1278 30.8351 43.1221 30.3408 42.9061 29.8238C42.7982 29.5624 42.6107 29.3806 42.3437 29.2783C37.747 27.5908 33.2981 25.605 28.9969 23.3208C28.3378 22.9686 27.8321 23.1249 27.4798 23.7896L27.3264 24.0794C27.2768 24.1731 27.2471 24.2761 27.2392 24.3819C27.2313 24.4878 27.2454 24.5943 27.2805 24.695C27.3156 24.7956 27.3711 24.8882 27.4435 24.967C27.5159 25.0459 27.6037 25.1092 27.7014 25.1533L38.4317 29.8749ZM51.5568 30.2158L63.2246 25.1192C63.5655 24.9715 63.6735 24.7243 63.5485 24.3777L63.2927 23.6362C63.2641 23.5515 63.2179 23.4738 63.1573 23.4079C63.0966 23.342 63.0228 23.2895 62.9403 23.2534C62.8578 23.2174 62.7685 23.1987 62.6781 23.1986C62.5877 23.1985 62.4981 23.2169 62.4149 23.2527L48.6165 29.2357C48.3538 29.3506 48.1303 29.5396 47.9734 29.7795C47.8165 30.0194 47.7329 30.2999 47.7329 30.5866C47.7329 30.8733 47.8165 31.1537 47.9734 31.3937C48.1303 31.6336 48.3538 31.8226 48.6165 31.9375L62.253 37.9205C62.7473 38.1364 63.0882 37.9915 63.2757 37.4858L63.5314 36.7954C63.6027 36.6029 63.5974 36.3903 63.5165 36.2016C63.4356 36.0128 63.2853 35.8624 63.0967 35.7812L51.5568 30.7613C51.504 30.7379 51.4591 30.6996 51.4276 30.6512C51.3961 30.6028 51.3793 30.5463 51.3793 30.4886C51.3793 30.4308 51.3961 30.3743 51.4276 30.3259C51.4591 30.2774 51.504 30.2392 51.5568 30.2158Z" fill="#C9CACA"/>
<path d="M38.4317 29.8749L27.7014 25.1533C27.6037 25.1092 27.5159 25.0459 27.4435 24.967C27.3711 24.8882 27.3156 24.7956 27.2805 24.695C27.2454 24.5943 27.2313 24.4878 27.2392 24.3819C27.2471 24.276 27.2768 24.1731 27.3264 24.0794L27.4798 23.7896C27.8321 23.1248 28.3378 22.9686 28.9969 23.3208C33.2981 25.605 37.747 27.5908 42.3437 29.2783C42.6107 29.3806 42.7982 29.5624 42.9061 29.8238C43.122 30.3408 43.1277 30.8351 42.9232 31.3067C42.8407 31.5042 42.6858 31.6652 42.4885 31.7585L29.031 37.8182C28.3094 38.142 27.7923 37.9375 27.4798 37.2046L27.3434 36.8892C27.2977 36.7808 27.2741 36.6644 27.2737 36.5466C27.2734 36.4288 27.2964 36.312 27.3416 36.2027C27.3867 36.0935 27.453 35.994 27.5367 35.91C27.6204 35.826 27.7198 35.7591 27.8292 35.7131L38.4146 31.3664C39.5851 30.8834 39.5908 30.3863 38.4317 29.8749Z" fill="black"/>
<path d="M51.5566 30.2157C51.5038 30.2391 51.4589 30.2773 51.4274 30.3257C51.3959 30.3742 51.3791 30.4307 51.3791 30.4885C51.3791 30.5462 51.3959 30.6027 51.4274 30.6511C51.4589 30.6995 51.5038 30.7378 51.5566 30.7612L63.0965 35.7811C63.2851 35.8622 63.4354 36.0127 63.5163 36.2015C63.5972 36.3902 63.6025 36.6028 63.5312 36.7953L63.2755 37.4857C63.088 37.9914 62.7471 38.1363 62.2527 37.9203L48.6162 31.9374C48.3536 31.8225 48.1301 31.6335 47.9732 31.3935C47.8162 31.1536 47.7327 30.8732 47.7327 30.5865C47.7327 30.2998 47.8162 30.0193 47.9732 29.7794C48.1301 29.5395 48.3536 29.3505 48.6162 29.2356L62.4147 23.2526C62.4979 23.2168 62.5875 23.1984 62.6779 23.1985C62.7683 23.1986 62.8576 23.2173 62.9401 23.2533C63.0225 23.2893 63.0964 23.3419 63.157 23.4078C63.2177 23.4737 63.2638 23.5514 63.2925 23.6361L63.5482 24.3776C63.6732 24.7241 63.5653 24.9714 63.2244 25.1191L51.5566 30.2157Z" fill="black"/>
<path d="M43.5111 44.6108C37.6474 46.6222 31.8178 48.6251 26.0223 50.6194C25.1416 50.9206 24.1899 51.4575 23.1671 52.2303C18.025 56.1053 12.88 60.0172 7.73226 63.9662C7.6766 64.0078 7.60748 64.0274 7.53823 64.0211C7.46898 64.0148 7.40449 63.9831 7.35725 63.9321L1.36573 57.2076C1.07596 56.8837 1.08165 56.5655 1.38279 56.253L1.647 55.9803C2.10723 55.503 2.55891 55.5144 3.0021 56.0144L7.45105 61.0599C7.53739 61.157 7.65678 61.2181 7.78501 61.2307C7.91323 61.2434 8.04067 61.2067 8.14139 61.1281C12.6812 57.6394 17.2068 54.2075 21.7183 50.8325C22.9796 49.8893 24.4399 49.145 26.099 48.5995C29.2468 47.5597 32.5479 46.2586 36.0025 44.696L43.5111 44.6108Z" fill="black"/>
<path d="M51.301 44.4319L53.3124 44.8921L45.8635 63.6083C45.5997 64.2706 45.4862 64.9838 45.5311 65.6964L46.639 84.4977C46.6617 84.9068 46.4657 85.1142 46.0509 85.1199L37.6133 85.154C37.5117 85.1547 37.4111 85.1337 37.3182 85.0926C37.2252 85.0514 37.1421 84.9909 37.0744 84.9151C37.0067 84.8393 36.9559 84.75 36.9254 84.653C36.8948 84.5561 36.8853 84.4538 36.8974 84.3528L36.9571 83.8926C37.0139 83.4551 37.2639 83.2335 37.7071 83.2278L43.9032 83.1937C43.9905 83.194 44.0769 83.1762 44.157 83.1413C44.237 83.1065 44.309 83.0554 44.3683 82.9913C44.4276 82.9272 44.4729 82.8515 44.5014 82.769C44.5299 82.6864 44.5409 82.5989 44.5339 82.5119C44.1816 77.2334 43.8436 71.8129 43.5197 66.2503C43.4458 64.9605 43.6731 63.6537 44.2015 62.3298C46.5368 56.5286 48.9032 50.5626 51.301 44.4319Z" fill="black"/>
</svg>
