<svg width="102" height="82" viewBox="0 0 102 82" fill="none" xmlns="http://www.w3.org/2000/svg">
<path d="M19.1247 8.01782L11.224 14.9725" stroke="#A5280E" stroke-width="1.70457"/>
<path d="M11.224 14.9727L9.51941 16.3619" stroke="black" stroke-width="1.70457"/>
<path d="M9.51954 16.3617L1.53365 23.4612C1.4738 23.514 1.42593 23.5789 1.3931 23.6516C1.36026 23.7244 1.34326 23.8032 1.34326 23.883C1.34326 23.9629 1.36026 24.0417 1.3931 24.1145C1.42593 24.1872 1.4738 24.2521 1.53365 24.3049L8.55646 30.3988" stroke="#A5280E" stroke-width="1.70457"/>
<path d="M8.5564 30.399L10.0402 31.6868" stroke="black" stroke-width="1.70457"/>
<path d="M10.0396 31.6858L13.1766 34.4563" stroke="#A5280E" stroke-width="1.70457"/>
<path d="M13.1757 34.4557L14.0711 35.1294" stroke="black" stroke-width="1.70457"/>
<path d="M14.0709 35.129L18.2224 38.8542" stroke="#A5280E" stroke-width="1.70457"/>
<path d="M18.2216 38.8536C18.5286 39.2118 18.81 39.4279 19.0658 39.5018" stroke="black" stroke-width="1.70457"/>
<path d="M19.0652 39.5016L22.5602 42.6131" stroke="#A5280E" stroke-width="1.70457"/>
<path d="M22.5596 42.6123C22.9234 43.0103 23.3129 43.3229 23.7279 43.5504" stroke="black" stroke-width="1.70457"/>
<path d="M23.7273 43.5499C24.5512 44.6636 25.5767 45.2375 26.804 45.2716C30.1052 45.3568 33.2217 45.3141 36.1535 45.1437" stroke="#A5280E" stroke-width="1.70457"/>
<path d="M36.1532 45.1433C38.1646 45.5979 40.1475 45.6036 42.1021 45.1604" stroke="black" stroke-width="1.70457"/>
<path d="M42.1027 45.1604C42.3586 45.4503 42.2875 45.7829 41.8895 46.1582" stroke="#A5280E" stroke-width="1.70457"/>
<path d="M41.8895 46.1576L34.236 48.8253C33.6461 49.0331 33.1088 49.3613 32.6593 49.7884L20.1052 61.5669C20.035 61.6325 19.9525 61.6834 19.8624 61.7168C19.7724 61.7502 19.6766 61.7654 19.5806 61.7615C19.4846 61.7575 19.3904 61.7344 19.3034 61.6937C19.2165 61.653 19.1385 61.5955 19.0739 61.5243L15.4432 57.4504C15.3801 57.3802 15.3038 57.3231 15.2186 57.2826C15.1334 57.242 15.041 57.2186 14.9467 57.2139C14.8525 57.2091 14.7581 57.2231 14.6693 57.2549C14.5804 57.2867 14.4988 57.3357 14.4289 57.3992L14.25 57.5612C13.7329 58.0384 13.7074 58.5385 14.1733 59.0612L19.1336 64.6436C19.1723 64.6868 19.2193 64.7219 19.2718 64.7466C19.3243 64.7713 19.3812 64.7853 19.4392 64.7877C19.4972 64.7901 19.5551 64.7808 19.6094 64.7605C19.6638 64.7401 19.7135 64.7091 19.7557 64.6692L33.7758 51.5611C34.2537 51.1169 34.8193 50.7746 35.4377 50.5554L48.1026 46.1321" stroke="black" stroke-width="1.70457"/>
<path d="M48.1027 46.1323L55.3983 46.1067" stroke="#A5280E" stroke-width="1.70457"/>
<path d="M55.3978 46.1065C55.8751 46.0326 56.3381 46.0412 56.787 46.1321C57.0256 46.1776 57.0994 46.3168 57.0085 46.5497L51.196 61.0471C50.8927 61.8106 50.759 62.6335 50.804 63.459L51.6903 78.2802C51.6937 78.3312 51.6867 78.3824 51.6696 78.4308C51.6525 78.4792 51.6256 78.5237 51.5907 78.5618C51.5558 78.5999 51.5134 78.6309 51.4661 78.6528C51.4188 78.6746 51.3675 78.687 51.3153 78.6893L46.0141 78.8342C45.4914 78.8512 45.1988 79.1183 45.1363 79.6353C45.1249 79.7547 45.1078 79.8683 45.0851 79.9762C45.0676 80.0744 45.0723 80.1752 45.0985 80.2715C45.1247 80.3678 45.172 80.4573 45.237 80.5337C45.302 80.61 45.3831 80.6714 45.4747 80.7135C45.5663 80.7557 45.666 80.7774 45.7669 80.7774L53.2244 80.7859C53.6165 80.7859 53.8012 80.5927 53.7784 80.2064L52.892 63.7402C52.8466 62.9505 52.9716 62.192 53.2671 61.4647L59.25 46.5156C59.3523 46.2485 59.5427 46.0838 59.8211 46.0213C60.054 45.9702 60.2955 45.9645 60.5455 46.0042" stroke="black" stroke-width="1.70457"/>
<path d="M60.5457 46.004L75.1367 46.5239C75.3385 46.5321 75.5402 46.4986 75.7293 46.4253C75.9184 46.352 76.091 46.2405 76.2362 46.0978L81.6823 40.7625" stroke="#A5280E" stroke-width="1.70457"/>
<path d="M81.6825 40.7629C82.2393 40.6209 82.9665 40.0356 83.8643 39.0072" stroke="black" stroke-width="1.70457"/>
<path d="M83.8644 39.007L90.052 33.3137" stroke="#A5280E" stroke-width="1.70457"/>
<path d="M90.0518 33.3144L92.8052 30.8423" stroke="black" stroke-width="1.70457"/>
<path d="M92.8047 30.8422L99.0691 25.2001" stroke="#A5280E" stroke-width="1.70457"/>
<path d="M99.069 25.2009C99.5464 24.877 99.8873 24.5218 100.092 24.1354C100.234 23.8569 100.197 23.6069 99.9811 23.3852L98.3274 21.6377" stroke="black" stroke-width="1.70457"/>
<path d="M98.3276 21.6375L90.5803 13.447" stroke="#A5280E" stroke-width="1.70457"/>
<path d="M90.5809 13.4479L89.6855 12.4075" stroke="black" stroke-width="1.70457"/>
<path d="M89.6861 12.408L85.8245 8.24805" stroke="#A5280E" stroke-width="1.70457"/>
<path d="M85.8254 8.24907L84.2136 6.73108" stroke="black" stroke-width="1.70457"/>
<path d="M84.2136 6.73117L81.6909 4.08058C81.4921 3.87035 81.2449 3.75954 80.9494 3.74818L50.719 2.57202" stroke="#A5280E" stroke-width="1.70457"/>
<path d="M50.7196 2.57175C49.4296 2.20235 48.1963 2.13986 47.0199 2.38423" stroke="black" stroke-width="1.70457"/>
<path d="M47.02 2.38438L36.0255 1.99231" stroke="#A5280E" stroke-width="1.70457"/>
<path d="M36.0257 1.99214L27.2302 1.54046C26.9461 1.52342 26.6933 1.60863 26.4717 1.79614L19.125 8.01779" stroke="black" stroke-width="1.70457"/>
<path d="M36.0256 1.99231C31.2358 3.5321 27.2444 4.606 24.0511 5.21396C23.5398 5.31056 23.2073 5.54637 23.0539 5.92137C22.9346 6.2282 23.0369 6.3532 23.3607 6.29638L47.0201 2.38438" stroke="black" stroke-width="1.70457"/>
<path d="M50.7192 2.57202C44.4862 4.18568 38.2758 5.32775 32.0882 5.99822C30.6052 6.16299 28.949 6.42155 27.1194 6.77382C25.4717 7.09201 23.8126 7.34766 22.1421 7.54085C21.1591 7.6488 20.1534 7.80789 19.125 8.01812" stroke="black" stroke-width="1.70457"/>
<path d="M84.2137 6.73108C84.3046 7.2254 83.9892 7.53509 83.2676 7.66009C75.9153 8.91011 68.5544 10.1005 61.185 11.2312C59.3327 11.5153 56.5911 11.984 52.9604 12.6374C49.6649 13.2283 46.9121 13.6318 44.7018 13.8477C44.0996 13.9045 43.662 14.0749 43.3893 14.359" stroke="black" stroke-width="1.70457"/>
<path d="M43.3894 14.3592C40.0598 13.3024 36.8666 13.5552 33.8098 15.1177C31.7643 16.1575 30.2899 17.0183 29.4802 19.0468C28.5711 21.3252 28.162 23.6889 28.2529 26.1378" stroke="#A5280E" stroke-width="1.70457"/>
<path d="M28.2526 26.1376C21.7469 28.1092 15.1815 29.5297 8.5564 30.399" stroke="black" stroke-width="1.70457"/>
<path d="M9.51941 16.3618C9.62737 16.5265 9.76656 16.6515 9.93702 16.7368C10.0734 16.805 10.2439 16.8192 10.4485 16.7794C19.102 14.8987 27.764 13.072 36.4346 11.2992C36.48 11.2878 36.9999 11.1315 37.9942 10.8304C38.8238 10.5804 39.6732 10.5776 40.5425 10.8219C40.8778 10.9185 41.0056 11.1316 40.926 11.4611C40.9033 11.5634 40.9346 11.6287 41.0199 11.6571C41.179 11.7196 41.3408 11.7225 41.5056 11.6657C43.7954 10.8816 46.0853 10.0833 48.3751 9.27077C54.1962 7.20824 60.5797 6.18551 66.5542 4.95822C66.6425 4.93993 66.7209 4.88891 66.7744 4.81501C66.8278 4.74111 66.8526 4.64947 66.844 4.55762L66.8184 4.32749C66.807 4.22521 66.7474 4.17693 66.6394 4.18261C64.4689 4.2792 62.3439 4.6826 60.2644 5.39284C59.861 5.5292 59.4661 5.52641 59.0797 5.38436C58.6195 5.2139 58.6223 5.05196 59.0882 4.89855C59.27 4.83605 59.395 4.71669 59.4632 4.54056C59.4826 4.48598 59.4867 4.42712 59.4749 4.3704C59.4631 4.31368 59.4358 4.26134 59.3962 4.21908C59.3565 4.17681 59.306 4.14625 59.2502 4.1308C59.1944 4.11535 59.1354 4.11559 59.0797 4.13148C57.3126 4.67126 55.5256 5.32751 53.7188 6.10025C51.8438 6.90139 50.0569 7.48663 48.358 7.85595C44.3693 8.72528 40.5994 9.52073 37.0482 10.2423C29.4686 11.7878 21.7213 13.3958 13.8064 15.0663C12.9996 15.2311 12.1388 15.1998 11.224 14.9725" stroke="black" stroke-width="1.70457"/>
<path d="M28.5767 27.3224L10.0396 31.6861" stroke="black" stroke-width="1.70457"/>
<path d="M85.8245 8.24805L46.824 14.4612C46.6024 14.4953 46.3979 14.5748 46.2104 14.6998C45.9093 14.9157 45.4774 15.0095 44.9149 14.9811" stroke="black" stroke-width="1.70457"/>
<path d="M44.9158 14.9818C44.3871 14.9022 43.8782 14.6947 43.3893 14.3593" stroke="black" stroke-width="1.70457"/>
<path d="M38.4896 34.4985L36.9801 34.2427" stroke="black" stroke-width="1.70457"/>
<path d="M36.9803 34.2429C33.1109 34.5242 30.3581 30.3224 28.5768 27.3224" stroke="#A5280E" stroke-width="1.70457"/>
<path d="M28.577 27.323C28.3666 26.925 28.2586 26.5299 28.2529 26.1376" stroke="black" stroke-width="1.70457"/>
<path d="M36.9803 34.2427C33.7814 34.8847 30.5853 35.5836 27.3921 36.3393C24.4546 37.0325 21.4858 37.5978 18.4858 38.0353C18.1676 38.0865 18.0796 38.3592 18.2217 38.8535" stroke="black" stroke-width="1.70457"/>
<path d="M14.0706 35.1293L29.744 31.3878C29.9031 31.3537 29.9657 31.2543 29.9316 31.0895L29.8719 30.8594C29.815 30.6094 29.6617 30.5128 29.4117 30.5696L13.6529 34.2174C13.5563 34.2401 13.4768 34.2884 13.4143 34.3623C13.3632 34.4248 13.2836 34.456 13.1757 34.456" stroke="black" stroke-width="1.70457"/>
<path d="M89.6854 12.4075L70.4834 17.0098" stroke="black" stroke-width="1.70457"/>
<path d="M70.4833 17.0096C68.6366 15.1345 66.4605 14.1743 63.9547 14.1288C60.4689 14.0692 55.2189 14.7511 53.4888 18.2795C52.9149 19.45 52.4574 20.8022 52.1165 22.3363C51.3665 25.7171 52.1052 28.8677 54.3325 31.7882" stroke="#A5280E" stroke-width="1.70457"/>
<path d="M54.3327 31.7882C52.0912 33.2967 48.2643 33.6292 45.6223 33.9871C45.5938 33.9871 44.628 34.1746 42.7246 34.5496C41.3211 34.8223 39.9091 34.8053 38.4886 34.4985" stroke="black" stroke-width="1.70457"/>
<path d="M38.4886 34.4983C41.9376 34.2823 44.9518 33.0863 47.5314 30.9101C48.3666 30.1999 48.9263 29.3505 49.2104 28.3618C50.736 23.0009 49.5769 18.0662 44.9149 14.981" stroke="#A5280E" stroke-width="1.70457"/>
<path d="M72.58 20.3335C72.6709 20.6689 72.8188 20.956 73.0234 21.1948" stroke="black" stroke-width="1.70457"/>
<path d="M72.8528 28.1318L72.5884 29.1125" stroke="black" stroke-width="1.70457"/>
<path d="M72.5888 29.1118C71.6001 30.8505 70.2166 32.1516 68.4381 33.0153C64.6711 34.8562 58.5261 35.4613 54.9551 32.4698" stroke="#A5280E" stroke-width="1.70457"/>
<path d="M54.955 32.4704L54.3325 31.7882" stroke="black" stroke-width="1.70457"/>
<path d="M90.5801 13.447L71.2675 17.896" stroke="black" stroke-width="1.70457"/>
<path d="M71.268 17.8966C71.0235 17.7203 70.762 17.4247 70.4834 17.0096" stroke="black" stroke-width="1.70457"/>
<path d="M92.8047 30.8423L67.918 35.4446C67.6316 35.5007 67.3347 35.492 67.0487 35.419C66.2362 35.2145 65.4976 35.3054 64.8328 35.6918C63.9379 36.2117 62.7959 35.8963 61.7731 36.1861C59.1083 36.9304 56.4009 37.4759 53.6508 37.8225C48.2474 38.4986 42.8524 39.2231 37.466 39.9958C32.4659 40.7174 27.4971 41.5896 22.5596 42.6123" stroke="black" stroke-width="1.70457"/>
<path d="M19.0652 39.5015C21.2925 38.7288 23.3038 38.1976 25.0993 37.9078C29.3664 37.2146 34.5199 36.5413 40.5597 35.8879C43.662 35.547 48.3382 34.5839 54.5883 32.9986C54.6906 32.9702 54.7758 32.9134 54.844 32.8282C54.9349 32.7259 54.9719 32.6066 54.9548 32.4702" stroke="black" stroke-width="1.70457"/>
<path d="M98.3278 21.6377C98.038 21.8593 97.8249 22.0695 97.6886 22.2684C97.5352 22.4957 97.3277 22.6377 97.0663 22.6945L72.853 28.1321" stroke="black" stroke-width="1.70457"/>
<path d="M72.853 28.1317L73.0234 21.1941" stroke="#A5280E" stroke-width="1.70457"/>
<path d="M73.0232 21.1943L89.7279 16.9755C89.7707 16.9639 89.8106 16.9436 89.8452 16.9159C89.8799 16.8883 89.9084 16.8538 89.9292 16.8147C89.95 16.7755 89.9625 16.7325 89.966 16.6884C89.9695 16.6442 89.9639 16.5998 89.9495 16.5578L89.8728 16.3448C89.8338 16.233 89.7546 16.1396 89.6507 16.0829C89.5467 16.0262 89.4254 16.0102 89.3103 16.038L72.58 20.3334" stroke="black" stroke-width="1.70457"/>
<path d="M72.5799 20.3336L71.2675 17.8961" stroke="#A5280E" stroke-width="1.70457"/>
<path d="M99.0689 25.2001C99.1939 24.7285 99.2392 24.4274 99.2052 24.2967C99.0347 23.6774 98.6314 23.4245 97.995 23.5381C89.6142 25.0723 81.5459 26.9587 73.7901 29.1973C73.5685 29.2598 73.1679 29.2314 72.5884 29.1121" stroke="black" stroke-width="1.70457"/>
<path d="M90.052 33.3138C89.0577 33.0184 88.3588 32.9218 87.9554 33.0241C75.5462 36.0866 62.9523 39.2343 50.1737 42.4673C48.168 42.973 46.1708 43.5242 44.1822 44.1208C43.3981 44.3594 42.8014 44.7856 42.1025 45.1606" stroke="black" stroke-width="1.70457"/>
<path d="M36.1535 45.1435L63.921 37.7457C64.0574 37.7116 64.1056 37.6264 64.0658 37.49L63.9977 37.2599C63.9677 37.155 63.8993 37.0652 63.8061 37.0083C63.713 36.9515 63.6019 36.9318 63.4948 36.9531C56.2391 38.3849 49.1396 39.5042 42.1963 40.3111C36.5286 40.9759 30.7927 42.2287 24.9545 43.0043C24.75 43.0327 24.5795 43.1264 24.4432 43.2855C24.2955 43.4503 24.0568 43.5384 23.7273 43.5497" stroke="black" stroke-width="1.70457"/>
<path d="M83.8643 39.0072L55.4918 45.4846C55.2816 45.53 55.2163 45.6522 55.2958 45.8511L55.3981 46.1067" stroke="black" stroke-width="1.70457"/>
<path d="M48.1027 46.132C46.5572 45.257 44.4861 45.2655 41.8895 46.1575" stroke="black" stroke-width="1.70457"/>
<path d="M81.6823 40.7625C78.5232 41.1318 75.4749 41.7313 72.5373 42.5608C71.5316 42.8506 69.56 43.2881 66.6224 43.8733C64.5258 44.2938 62.5002 45.004 60.5457 46.004" stroke="black" stroke-width="1.70457"/>
<path d="M45.8664 23.9261C45.8315 23.1584 45.4724 22.4369 44.8681 21.9203C44.2639 21.4038 43.464 21.1345 42.6443 21.1717C42.2384 21.1902 41.84 21.2833 41.4716 21.4458C41.1032 21.6083 40.7722 21.837 40.4974 22.1188C40.2226 22.4006 40.0094 22.7301 39.87 23.0884C39.7307 23.4467 39.6678 23.8267 39.685 24.2069C39.7199 24.9746 40.079 25.6961 40.6833 26.2127C41.2875 26.7292 42.0874 26.9985 42.9071 26.9613C43.313 26.9428 43.7115 26.8497 44.0798 26.6872C44.4482 26.5247 44.7793 26.296 45.0541 26.0142C45.3288 25.7324 45.542 25.4029 45.6814 25.0446C45.8208 24.6864 45.8837 24.3063 45.8664 23.9261Z" stroke="black" stroke-width="1.70457"/>
<path d="M69.3197 24.6077C69.411 23.8423 69.1784 23.0702 68.6732 22.461C68.168 21.8519 67.4315 21.4557 66.6257 21.3596C65.82 21.2635 65.011 21.4754 64.3767 21.9486C63.7424 22.4219 63.3347 23.1178 63.2434 23.8831C63.1522 24.6485 63.3847 25.4207 63.8899 26.0298C64.3952 26.639 65.1318 27.0352 65.9375 27.1313C66.7433 27.2273 67.5522 27.0155 68.1865 26.5422C68.8208 26.0689 69.2284 25.3731 69.3197 24.6077Z" stroke="black" stroke-width="1.70457"/>
<path d="M36.0257 1.99214C31.2359 3.53193 27.2444 4.60584 24.0512 5.2138C23.5399 5.31039 23.2074 5.5462 23.054 5.92121C22.9347 6.22803 23.037 6.35303 23.3608 6.29621L47.0202 2.38421C48.1964 2.13989 49.4294 2.20237 50.7192 2.57169C44.4862 4.18535 38.2758 5.32742 32.0882 5.99788C30.6052 6.16266 28.949 6.42121 27.1194 6.77349C25.4717 7.09168 23.8126 7.34733 22.1421 7.54051C21.1591 7.64847 20.1534 7.80756 19.125 8.01779L26.4717 1.79614C26.6933 1.60863 26.9461 1.52342 27.2302 1.54046L36.0257 1.99214Z" fill="black"/>
<path d="M36.0256 1.99231L47.0201 2.38438L23.3607 6.29638C23.0369 6.3532 22.9346 6.2282 23.0539 5.92137C23.2073 5.54637 23.5398 5.31056 24.0511 5.21396C27.2444 4.606 31.2358 3.5321 36.0256 1.99231Z" fill="#A5280E"/>
<path d="M50.719 2.57214L80.9494 3.7483C81.2449 3.75966 81.492 3.87047 81.6909 4.0807L84.2136 6.73129C84.3045 7.22561 83.9892 7.5353 83.2676 7.6603C75.9152 8.91031 68.5543 10.1007 61.1849 11.2314C59.3326 11.5155 56.5911 11.9842 52.9604 12.6376C49.6649 13.2285 46.9121 13.632 44.7018 13.8479C44.0995 13.9047 43.662 14.0751 43.3893 14.3592C40.0597 13.3024 36.8665 13.5553 33.8096 15.1178C31.7641 16.1576 30.2897 17.0184 29.48 19.0468C28.5709 21.3252 28.1618 23.6889 28.2527 26.1378C21.7469 28.1094 15.1815 29.5299 8.55646 30.3992L1.53365 24.3054C1.4738 24.2526 1.42593 24.1877 1.3931 24.1149C1.36026 24.0422 1.34326 23.9633 1.34326 23.8835C1.34326 23.8037 1.36026 23.7248 1.3931 23.6521C1.42593 23.5793 1.4738 23.5144 1.53365 23.4616L9.51954 16.3621C9.62749 16.5269 9.76669 16.6519 9.93715 16.7371C10.0735 16.8053 10.2441 16.8195 10.4486 16.7797C19.1021 14.899 27.7641 13.0723 36.4347 11.2996C36.4802 11.2882 37 11.1319 37.9943 10.8308C38.8239 10.5808 39.6733 10.578 40.5427 10.8223C40.8779 10.9189 41.0057 11.132 40.9261 11.4615C40.9034 11.5638 40.9348 11.6291 41.02 11.6575C41.1791 11.72 41.341 11.7229 41.5057 11.666C43.7955 10.8819 46.0854 10.0836 48.3752 9.27113C54.1963 7.2086 60.5798 6.18586 66.5544 4.95858C66.6427 4.94029 66.721 4.88927 66.7745 4.81537C66.828 4.74147 66.8527 4.64983 66.8441 4.55798L66.8185 4.32784C66.8071 4.22557 66.7475 4.17729 66.6396 4.18297C64.4691 4.27956 62.3441 4.68296 60.2645 5.3932C59.8611 5.52956 59.4662 5.52677 59.0798 5.38472C58.6196 5.21426 58.6224 5.05232 59.0883 4.89891C59.2702 4.83641 59.3951 4.71705 59.4633 4.54092C59.4827 4.48634 59.4869 4.42748 59.4751 4.37076C59.4632 4.31404 59.4359 4.2617 59.3963 4.21944C59.3567 4.17717 59.3062 4.14661 59.2503 4.13116C59.1945 4.11571 59.1355 4.11595 59.0798 4.13184C57.3127 4.67162 55.5258 5.32787 53.7189 6.10061C51.8439 6.90175 50.057 7.48699 48.3581 7.85631C44.3694 8.72564 40.5995 9.52109 37.0483 10.2427C29.4687 11.7882 21.7214 13.3962 13.8065 15.0666C12.9997 15.2314 12.1389 15.2002 11.2241 14.9729L19.1248 8.01824C20.1532 7.80801 21.1589 7.64892 22.1419 7.54097C23.8124 7.34778 25.4715 7.09213 27.1192 6.77394C28.9488 6.42167 30.605 6.16311 32.088 5.99834C38.2756 5.32788 44.4859 4.1858 50.719 2.57214Z" fill="#A5280E"/>
<path d="M9.51941 16.3618L11.224 14.9725C12.1388 15.1998 12.9996 15.2311 13.8064 15.0663C21.7213 13.3958 29.4686 11.7878 37.0482 10.2423C40.5994 9.52073 44.3693 8.72528 48.358 7.85595C50.0569 7.48663 51.8438 6.90139 53.7188 6.10025C55.5256 5.32751 57.3126 4.67126 59.0797 4.13148C59.1354 4.11559 59.1944 4.11535 59.2502 4.1308C59.306 4.14625 59.3565 4.17681 59.3962 4.21908C59.4358 4.26134 59.4631 4.31368 59.4749 4.3704C59.4867 4.42712 59.4826 4.48598 59.4632 4.54056C59.395 4.71669 59.27 4.83605 59.0882 4.89855C58.6223 5.05196 58.6194 5.2139 59.0797 5.38436C59.4661 5.52641 59.861 5.5292 60.2644 5.39284C62.3439 4.6826 64.4689 4.2792 66.6394 4.18261C66.7474 4.17693 66.807 4.22521 66.8184 4.32749L66.844 4.55762C66.8526 4.64947 66.8278 4.74111 66.7744 4.81501C66.7209 4.88891 66.6425 4.93993 66.5542 4.95822C60.5797 6.18551 54.1962 7.20824 48.3751 9.27077C46.0853 10.0833 43.7954 10.8816 41.5056 11.6657C41.3408 11.7225 41.1789 11.7196 41.0199 11.6571C40.9346 11.6287 40.9033 11.5634 40.926 11.4611C41.0056 11.1316 40.8778 10.9185 40.5425 10.8219C39.6732 10.5776 38.8238 10.5804 37.9942 10.8304C36.9999 11.1315 36.48 11.2878 36.4346 11.2992C27.764 13.072 19.102 14.8987 10.4485 16.7794C10.2439 16.8192 10.0734 16.805 9.93702 16.7368C9.76656 16.6515 9.62737 16.5265 9.51941 16.3618Z" fill="black"/>
<path d="M84.2137 6.73108L85.8245 8.24817L46.824 14.4613C46.6024 14.4954 46.3979 14.575 46.2104 14.7C45.9092 14.9159 45.4774 15.0096 44.9149 14.9812C44.3865 14.9016 43.8779 14.6943 43.3893 14.359C43.662 14.0749 44.0996 13.9045 44.7018 13.8477C46.9121 13.6318 49.6649 13.2283 52.9604 12.6374C56.5911 11.984 59.3327 11.5153 61.185 11.2312C68.5544 10.1005 75.9153 8.91011 83.2676 7.66009C83.9892 7.53509 84.3046 7.2254 84.2137 6.73108Z" fill="black"/>
<path d="M85.8245 8.24805L89.6853 12.4072L70.4834 17.0095C68.6368 15.1345 66.4606 14.1742 63.9549 14.1288C60.469 14.0691 55.219 14.751 53.4889 18.2794C52.915 19.4499 52.4576 20.8021 52.1166 22.3363C51.3666 25.717 52.1054 28.8676 54.3327 31.7881C52.0912 33.2966 48.2643 33.629 45.6223 33.987C45.5938 33.987 44.628 34.1745 42.7246 34.5495C41.3211 34.8222 39.9091 34.8052 38.4886 34.4984C41.9376 34.2824 44.9518 33.0864 47.5314 30.9102C48.3666 30.2 48.9263 29.3506 49.2104 28.3619C50.736 23.001 49.5769 18.0663 44.9149 14.9811C45.4774 15.0095 45.9092 14.9157 46.2104 14.6998C46.3979 14.5748 46.6024 14.4953 46.824 14.4612L85.8245 8.24805Z" fill="#A5280E"/>
<path d="M89.6854 12.4075L90.5802 13.4472L71.2675 17.8962C71.0232 17.72 70.7618 17.4245 70.4834 17.0098L89.6854 12.4075Z" fill="black"/>
<path d="M90.5801 13.447L98.3274 21.6375C98.0377 21.8591 97.8246 22.0693 97.6882 22.2682C97.5348 22.4955 97.3273 22.6375 97.066 22.6943L72.8527 28.1319L73.0231 21.1943L89.7278 16.9755C89.7706 16.9639 89.8106 16.9436 89.8452 16.916C89.8798 16.8883 89.9084 16.8538 89.9291 16.8147C89.9499 16.7755 89.9625 16.7326 89.966 16.6884C89.9695 16.6442 89.9638 16.5998 89.9494 16.5579L89.8728 16.3448C89.8338 16.233 89.7546 16.1396 89.6506 16.0829C89.5467 16.0262 89.4253 16.0102 89.3102 16.038L72.5799 20.3335L71.2675 17.896L90.5801 13.447Z" fill="#A5280E"/>
<path d="M43.3894 14.3592C43.8781 14.6944 44.3866 14.9018 44.915 14.9814C49.577 18.0666 50.7362 23.0013 49.2106 28.3622C48.9265 29.3509 48.3667 30.2003 47.5315 30.9105C44.9519 33.0867 41.9377 34.2827 38.4888 34.4986L36.9802 34.243C33.1109 34.5242 30.358 30.3225 28.5767 27.3224C28.3665 26.9247 28.2586 26.5298 28.2529 26.1378C28.162 23.6889 28.5711 21.3252 29.4802 19.0468C30.2899 17.0183 31.7643 16.1575 33.8098 15.1177C36.8666 13.5552 40.0598 13.3024 43.3894 14.3592ZM45.8665 23.9263C45.8316 23.1586 45.4725 22.4371 44.8682 21.9206C44.264 21.404 43.4641 21.1347 42.6444 21.1719C42.2385 21.1904 41.8401 21.2835 41.4717 21.446C41.1033 21.6085 40.7723 21.8372 40.4975 22.119C40.2227 22.4009 40.0095 22.7303 39.8701 23.0886C39.7307 23.4469 39.6679 23.8269 39.6851 24.2071C39.72 24.9748 40.0791 25.6963 40.6834 26.2129C41.2876 26.7294 42.0875 26.9987 42.9072 26.9615C43.3131 26.9431 43.7116 26.8499 44.0799 26.6874C44.4483 26.5249 44.7794 26.2963 45.0541 26.0144C45.3289 25.7326 45.5421 25.4031 45.6815 25.0448C45.8209 24.6866 45.8837 24.3065 45.8665 23.9263Z" fill="white"/>
<path d="M70.4833 17.0096C70.7617 17.4243 71.0231 17.7198 71.2674 17.896L72.5798 20.3335C72.6707 20.6687 72.8185 20.9557 73.023 21.1943L72.8526 28.1319L72.5884 29.112C71.5997 30.8506 70.2162 32.1518 68.4378 33.0155C64.6707 34.8564 58.5258 35.4615 54.9547 32.47L54.3325 31.7882C52.1052 28.8677 51.3665 25.7171 52.1165 22.3363C52.4574 20.8022 52.9149 19.45 53.4888 18.2795C55.2189 14.7511 60.4689 14.0692 63.9547 14.1288C66.4605 14.1743 68.6366 15.1345 70.4833 17.0096ZM69.3196 24.6077C69.4109 23.8424 69.1783 23.0702 68.6731 22.4611C68.1679 21.8519 67.4314 21.4557 66.6256 21.3596C65.8198 21.2635 65.0109 21.4754 64.3766 21.9487C63.7423 22.4219 63.3346 23.1178 63.2433 23.8832C63.1521 24.6485 63.3846 25.4207 63.8898 26.0298C64.395 26.639 65.1316 27.0352 65.9374 27.1313C66.7432 27.2274 67.5521 27.0155 68.1864 26.5422C68.8207 26.069 69.2283 25.3731 69.3196 24.6077Z" fill="white"/>
<path d="M73.0232 21.1943C72.8186 20.9556 72.6709 20.6687 72.58 20.3334L89.3103 16.038C89.4254 16.0102 89.5467 16.0262 89.6507 16.0829C89.7546 16.1396 89.8338 16.233 89.8728 16.3448L89.9495 16.5578C89.9639 16.5998 89.9695 16.6442 89.966 16.6884C89.9625 16.7325 89.95 16.7755 89.9292 16.8147C89.9084 16.8538 89.8799 16.8883 89.8452 16.9159C89.8106 16.9436 89.7707 16.9639 89.7279 16.9755L73.0232 21.1943Z" fill="black"/>
<path d="M42.9071 26.9615C44.614 26.884 45.9388 25.5251 45.8662 23.9263C45.7936 22.3276 44.3511 21.0944 42.6442 21.1719C40.9373 21.2494 39.6124 22.6083 39.685 24.207C39.7576 25.8058 41.2002 27.039 42.9071 26.9615Z" fill="black"/>
<path d="M65.9377 27.1313C67.6156 27.3314 69.1299 26.2015 69.32 24.6077C69.51 23.0139 68.3039 21.5597 66.6259 21.3596C64.948 21.1595 63.4337 22.2893 63.2437 23.8832C63.0536 25.477 64.2598 26.9312 65.9377 27.1313Z" fill="black"/>
<path d="M98.3274 21.6377L99.9808 23.3849C100.197 23.6065 100.234 23.8565 100.092 24.1349C99.887 24.5212 99.5461 24.8764 99.0689 25.2002C99.1939 24.7286 99.2393 24.4275 99.2052 24.2968C99.0347 23.6775 98.6314 23.4246 97.995 23.5383C89.6142 25.0724 81.5459 26.9588 73.7901 29.1974C73.5685 29.2599 73.1679 29.2315 72.5884 29.1122L72.8526 28.1321L97.0659 22.6945C97.3273 22.6377 97.5348 22.4957 97.6882 22.2684C97.8245 22.0695 98.0376 21.8593 98.3274 21.6377Z" fill="black"/>
<path d="M99.069 25.2001L92.8046 30.8422L67.918 35.4445C67.6316 35.5006 67.3346 35.4919 67.0487 35.419C66.2361 35.2144 65.4975 35.3053 64.8327 35.6917C63.9378 36.2116 62.7958 35.8962 61.7731 36.186C59.1083 36.9303 56.4008 37.4758 53.6508 37.8224C48.2473 38.4986 42.8524 39.223 37.4659 39.9957C32.4659 40.7173 27.4971 41.5895 22.5595 42.6122L19.0652 39.5014C21.2925 38.7287 23.3038 38.1974 25.0993 37.9076C29.3664 37.2144 34.5199 36.5411 40.5597 35.8877C43.662 35.5468 48.3382 34.5837 54.5883 32.9985C54.6906 32.9701 54.7758 32.9132 54.844 32.828C54.9349 32.7257 54.9719 32.6064 54.9548 32.4701C58.5259 35.4616 64.6708 34.8565 68.4379 33.0155C70.2163 32.1519 71.5998 30.8507 72.5885 29.1121C73.168 29.2314 73.5686 29.2598 73.7902 29.1973C81.546 26.9587 89.6143 25.0723 97.9951 23.5381C98.6315 23.4245 99.0348 23.6774 99.2053 24.2967C99.2394 24.4274 99.194 24.7285 99.069 25.2001Z" fill="#A5280E"/>
<path d="M28.2526 26.1376C28.2583 26.5296 28.3663 26.9245 28.5765 27.3223L10.0394 31.6859L8.5564 30.399C15.1815 29.5297 21.7469 28.1092 28.2526 26.1376Z" fill="black"/>
<path d="M28.5767 27.3224C30.358 30.3224 33.1108 34.5242 36.9802 34.2429C33.7813 34.885 30.5852 35.5839 27.392 36.3396C24.4545 37.0327 21.4857 37.5981 18.4857 38.0356C18.1675 38.0867 18.0795 38.3594 18.2215 38.8537L14.0709 35.1293L29.7443 31.3877C29.9034 31.3537 29.966 31.2542 29.9319 31.0895L29.8722 30.8593C29.8154 30.6093 29.662 30.5128 29.412 30.5696L13.6532 34.2173C13.5566 34.2401 13.4772 34.2884 13.4147 34.3623C13.3635 34.4248 13.284 34.456 13.176 34.456L10.0396 31.6861L28.5767 27.3224Z" fill="#A5280E"/>
<path d="M14.0706 35.1293L13.1757 34.456C13.2836 34.456 13.3632 34.4248 13.4143 34.3623C13.4768 34.2884 13.5563 34.2401 13.6529 34.2174L29.4117 30.5696C29.6617 30.5128 29.815 30.6094 29.8719 30.8594L29.9316 31.0895C29.9657 31.2543 29.9031 31.3537 29.744 31.3878L14.0706 35.1293Z" fill="black"/>
<path d="M92.8047 30.8423L90.0518 33.3139C89.0575 33.0184 88.3586 32.9219 87.9552 33.0241C75.546 36.0867 62.9521 39.2344 50.1736 42.4674C48.1679 42.9731 46.1706 43.5242 44.182 44.1208C43.3979 44.3595 42.8012 44.7856 42.1024 45.1606C40.1478 45.6038 38.1648 45.5981 36.1534 45.1436L63.9209 37.7458C64.0573 37.7117 64.1055 37.6264 64.0657 37.4901L63.9976 37.2599C63.9676 37.155 63.8992 37.0652 63.806 37.0084C63.7129 36.9515 63.6018 36.9318 63.4947 36.9531C56.239 38.385 49.1395 39.5043 42.1962 40.3111C36.5285 40.9759 30.7926 42.2288 24.9544 43.0043C24.7499 43.0327 24.5794 43.1265 24.4431 43.2856C24.2954 43.4504 24.0567 43.5384 23.7272 43.5498C23.3124 43.3225 22.9232 43.01 22.5596 42.6123C27.4971 41.5896 32.4659 40.7174 37.466 39.9958C42.8524 39.2231 48.2474 38.4986 53.6508 37.8225C56.4009 37.4759 59.1083 36.9304 61.7731 36.1861C62.7959 35.8963 63.9379 36.2117 64.8328 35.6918C65.4976 35.3054 66.2362 35.2145 67.0487 35.419C67.3347 35.492 67.6316 35.5007 67.918 35.4446L92.8047 30.8423Z" fill="black"/>
<path d="M54.3329 31.7882L54.955 32.47C54.9721 32.6064 54.9351 32.7257 54.8442 32.828C54.7761 32.9132 54.6908 32.97 54.5885 32.9984C48.3384 34.5837 43.6623 35.5468 40.56 35.8877C34.5201 36.5411 29.3666 37.2144 25.0995 37.9076C23.3041 38.1974 21.2927 38.7286 19.0654 39.5014C18.8097 39.4275 18.5285 39.2116 18.2217 38.8536C18.0796 38.3593 18.1676 38.0866 18.4858 38.0355C21.4858 37.598 24.4546 37.0326 27.3921 36.3394C30.5853 35.5837 33.7814 34.8848 36.9803 34.2428L38.4889 34.4985C39.9093 34.8053 41.3214 34.8223 42.7248 34.5496C44.6282 34.1746 45.5941 33.9871 45.6225 33.9871C48.2646 33.6292 52.0914 33.2967 54.3329 31.7882Z" fill="black"/>
<path d="M90.052 33.3138L83.8645 39.0071L55.492 45.4844C55.2818 45.5299 55.2165 45.6521 55.296 45.8509L55.3983 46.1066L48.1027 46.1322C46.5572 45.2572 44.4861 45.2657 41.8895 46.1577C42.2873 45.7827 42.3583 45.4503 42.1026 45.1606C42.8015 44.7856 43.3981 44.3594 44.1822 44.1208C46.1709 43.5242 48.1681 42.973 50.1738 42.4673C62.9524 39.2343 75.5462 36.0866 87.9555 33.0241C88.3589 32.9218 89.0577 33.0184 90.052 33.3138Z" fill="#A5280E"/>
<path d="M36.1535 45.1435C33.2217 45.314 30.1052 45.3566 26.804 45.2714C25.5767 45.2373 24.5512 44.6634 23.7273 43.5497C24.0568 43.5384 24.2955 43.4503 24.4432 43.2855C24.5795 43.1264 24.75 43.0327 24.9545 43.0043C30.7927 42.2287 36.5286 40.9759 42.1963 40.3111C49.1396 39.5042 56.2391 38.3849 63.4948 36.9531C63.6019 36.9318 63.713 36.9515 63.8061 37.0083C63.8993 37.0652 63.9677 37.155 63.9977 37.2599L64.0658 37.49C64.1056 37.6264 64.0574 37.7116 63.921 37.7457L36.1535 45.1435Z" fill="#A5280E"/>
<path d="M83.864 39.0072C82.9662 40.0356 82.239 40.6209 81.6822 40.7629C78.523 41.1322 75.4747 41.7317 72.5372 42.5613C71.5315 42.851 69.5598 43.2885 66.6223 43.8738C64.5257 44.2942 62.5001 45.0045 60.5455 46.0045C60.2955 45.9647 60.054 45.9704 59.8211 46.0215C59.5427 46.084 59.3523 46.2488 59.25 46.5158L53.2671 61.4649C52.9716 62.1922 52.8466 62.9507 52.892 63.7405L53.7784 80.2066C53.8012 80.5929 53.6165 80.7861 53.2244 80.7861L45.7669 80.7776C45.666 80.7777 45.5663 80.7559 45.4747 80.7138C45.3831 80.6717 45.302 80.6103 45.237 80.5339C45.172 80.4575 45.1247 80.368 45.0985 80.2717C45.0723 80.1754 45.0676 80.0746 45.0851 79.9764C45.1078 79.8685 45.1249 79.7549 45.1363 79.6356C45.1988 79.1185 45.4914 78.8515 46.0141 78.8344L51.3153 78.6895C51.3675 78.6873 51.4188 78.6749 51.4661 78.653C51.5134 78.6311 51.5558 78.6002 51.5907 78.562C51.6256 78.5239 51.6525 78.4794 51.6696 78.431C51.6867 78.3826 51.6937 78.3314 51.6903 78.2804L50.804 63.4592C50.759 62.6337 50.8927 61.8108 51.196 61.0473L57.0085 46.5499C57.0994 46.317 57.0256 46.1778 56.787 46.1323C56.3381 46.0414 55.8751 46.0329 55.3978 46.1067L55.2955 45.8511C55.216 45.6522 55.2813 45.53 55.4915 45.4846L83.864 39.0072Z" fill="black"/>
<path d="M81.6823 40.7625L76.2362 46.0978C76.091 46.2405 75.9184 46.352 75.7293 46.4253C75.5402 46.4986 75.3385 46.5321 75.1367 46.5239L60.5457 46.004C62.5002 45.004 64.5258 44.2938 66.6224 43.8733C69.56 43.2881 71.5316 42.8506 72.5373 42.5608C75.4749 41.7313 78.5232 41.1318 81.6823 40.7625Z" fill="#A5280E"/>
<path d="M48.1026 46.132L35.4377 50.5553C34.8193 50.7745 34.2537 51.1168 33.7758 51.561L19.7557 64.6692C19.7135 64.709 19.6638 64.74 19.6094 64.7604C19.5551 64.7807 19.4972 64.79 19.4392 64.7876C19.3812 64.7852 19.3243 64.7712 19.2718 64.7465C19.2193 64.7218 19.1723 64.6868 19.1336 64.6436L14.1733 59.0611C13.7074 58.5384 13.7329 58.0384 14.25 57.5611L14.4289 57.3992C14.4988 57.3357 14.5804 57.2866 14.6693 57.2548C14.7581 57.223 14.8525 57.2091 14.9467 57.2138C15.041 57.2186 15.1334 57.2419 15.2186 57.2825C15.3038 57.3231 15.3801 57.3801 15.4432 57.4503L19.0739 61.5242C19.1385 61.5954 19.2165 61.6529 19.3034 61.6937C19.3904 61.7344 19.4846 61.7574 19.5806 61.7614C19.6766 61.7653 19.7724 61.7501 19.8624 61.7167C19.9525 61.6834 20.035 61.6324 20.1052 61.5668L32.6593 49.7883C33.1088 49.3612 33.6461 49.033 34.236 48.8252L41.8895 46.1575C44.4861 45.2655 46.5572 45.257 48.1026 46.132Z" fill="black"/>
</svg>
