<svg width="102" height="104" viewBox="0 0 102 104" fill="none" xmlns="http://www.w3.org/2000/svg">
<path d="M40.2041 68.2701L42.0876 75.4974C42.1384 75.6887 42.1333 75.8911 42.073 76.0811C42.0127 76.2711 41.8996 76.4411 41.7467 76.5713L27.1386 88.7845C26.9856 88.9113 26.8845 89.0899 26.8547 89.2864C26.8248 89.4828 26.8683 89.6834 26.9767 89.8499L32.0222 97.7506C32.1461 97.9479 32.3434 98.0879 32.5715 98.1406C32.7995 98.1932 33.0401 98.1541 33.2409 98.0318C33.3375 97.9693 33.437 97.9182 33.5392 97.8784C33.6319 97.8423 33.7155 97.7861 33.7839 97.7138C33.8523 97.6416 33.9038 97.5551 33.9348 97.4606C33.9657 97.3661 33.9754 97.2658 33.963 97.1671C33.9506 97.0684 33.9165 96.9737 33.8631 96.8898L29.4654 89.9948C29.3968 89.8896 29.3692 89.7628 29.3881 89.6386C29.407 89.5145 29.4709 89.4016 29.5677 89.3215L43.9882 77.2958C44.156 77.1556 44.2799 76.9707 44.345 76.7635C44.41 76.5563 44.4134 76.3357 44.3548 76.1282L41.9343 67.2559" stroke="black" stroke-width="1.70457"/>
<path d="M41.9343 67.2555C42.1218 66.6817 42.4513 66.3578 42.9229 66.2839C43.6161 66.1816 44.082 66.4601 44.3207 67.1192L51.71 87.6762C51.7332 87.7427 51.7751 87.801 51.8307 87.8443C51.8862 87.8876 51.953 87.9139 52.0231 87.9202C52.0933 87.9265 52.1637 87.9125 52.226 87.8798C52.2884 87.8471 52.3401 87.7972 52.3748 87.7359C55.0566 83.2415 57.5339 78.6591 59.8067 73.9886C59.943 73.7045 60.1902 73.6647 60.5482 73.8692" stroke="#FF6333" stroke-width="1.70457"/>
<path d="M60.548 73.8693L63.0964 77.9688C63.4711 78.5748 63.6247 79.2944 63.531 80.0058L60.4883 102.216C60.4372 102.58 60.5963 102.762 60.9657 102.762L71.6277 102.702C71.8198 102.7 72.0032 102.622 72.1374 102.486C72.2717 102.35 72.3459 102.167 72.3436 101.978V101.27C72.3436 100.873 72.1419 100.674 71.7385 100.674L63.2072 100.657C63.1488 100.656 63.0911 100.643 63.0382 100.618C62.9853 100.593 62.9382 100.558 62.9003 100.513C62.8623 100.469 62.8343 100.417 62.8182 100.361C62.802 100.305 62.7981 100.246 62.8066 100.188L65.5509 79.3324C65.6168 78.8307 65.5085 78.3221 65.2441 77.8921L61.4003 71.6704" stroke="black" stroke-width="1.70457"/>
<path d="M61.4007 71.6703C61.4972 71.5283 61.5342 71.3607 61.5115 71.1675C61.4971 71.0691 61.5095 70.9687 61.5472 70.8767C61.585 70.7848 61.6469 70.7044 61.7266 70.6438C61.8063 70.5831 61.9008 70.5445 62.0008 70.5317C62.1007 70.5189 62.2024 70.5324 62.2955 70.5709L98.3983 85.6222C98.7903 85.7813 98.8955 85.6705 98.7136 85.2898C98.5489 84.9489 98.3442 84.6136 98.0999 84.2841C89.6737 73.068 81.9577 62.5907 74.952 52.8519C74.9155 52.7996 74.8924 52.7391 74.8847 52.6758C74.8769 52.6125 74.8846 52.5483 74.9072 52.4886C74.9299 52.429 74.9668 52.3758 75.0147 52.3337C75.0626 52.2915 75.12 52.2617 75.182 52.2468L99.7107 46.5962C101.08 46.2836 101.089 45.9314 99.7363 45.5393L74.415 38.2267C74.3163 38.1986 74.2242 38.1508 74.1445 38.0861C74.0648 38.0214 73.999 37.9413 73.9512 37.8504C73.9034 37.7596 73.8746 37.66 73.8664 37.5577C73.8582 37.4553 73.8708 37.3524 73.9036 37.2551L83.1935 9.92239C83.4662 9.11557 83.2474 8.94228 82.5372 9.40251L60.1648 23.7976C60.0957 23.8424 60.0175 23.8713 59.9359 23.8822C59.8543 23.893 59.7712 23.8855 59.6929 23.8602C59.6145 23.8349 59.5427 23.7924 59.4828 23.7358C59.4229 23.6793 59.3764 23.6102 59.3466 23.5334L50.7215 2.24337C50.3693 1.37404 50.0709 1.39393 49.8266 2.30304L44.1078 23.7976C44.0594 23.9817 43.9502 24.1437 43.7983 24.2569C43.6464 24.37 43.4609 24.4275 43.2726 24.4197L7.87725 23.1924C7.06474 23.164 7.00796 23.3572 7.70683 23.772L30.3434 37.3744C30.4344 37.4282 30.5077 37.5069 30.5547 37.6014C30.6017 37.6958 30.6206 37.8021 30.6089 37.9077C30.5973 38.0133 30.5557 38.1139 30.4891 38.1975C30.4224 38.2812 30.3334 38.3446 30.2326 38.3801C20.7211 41.7097 11.2182 45.0279 1.72379 48.3348C1.51356 48.4087 1.38576 48.5223 1.3403 48.6757C1.2778 48.8575 1.34313 48.9627 1.53631 48.9911L28.7411 52.2979C28.8179 52.3073 28.8912 52.3356 28.9544 52.3802C29.0176 52.4248 29.0689 52.4843 29.1035 52.5536C29.1381 52.6228 29.155 52.6995 29.1528 52.7768C29.1506 52.8542 29.1291 52.9297 29.0906 52.9968L12.42 81.7954C12.3899 81.8473 12.382 81.9092 12.3979 81.9681C12.4138 82.027 12.4523 82.0781 12.5052 82.1108C12.5677 82.1505 12.6359 82.1704 12.7097 82.1704C12.7722 82.1704 12.8319 82.1562 12.8887 82.1278C21.099 77.8551 29.3093 73.5794 37.5197 69.301C37.6901 69.2101 38.0793 68.9402 38.6873 68.4913C39.2441 68.0765 39.7498 68.0027 40.2044 68.2697" stroke="#FF6333" stroke-width="1.70457"/>
<path d="M61.4005 71.6704C60.7528 72.017 60.4687 72.75 60.5482 73.8693" stroke="black" stroke-width="1.70457"/>
<path d="M41.934 67.2557C41.2124 67.0796 40.6357 67.4176 40.2039 68.2699" stroke="black" stroke-width="1.70457"/>
<path d="M50.6595 44.3072C50.3562 41.7255 48.9907 39.3758 46.8634 37.775C44.7361 36.1741 42.0212 35.4534 39.3161 35.7711C37.9766 35.9285 36.6799 36.3361 35.4998 36.9706C34.3198 37.6052 33.2796 38.4543 32.4386 39.4695C31.5976 40.4847 30.9723 41.6461 30.5985 42.8873C30.2246 44.1286 30.1095 45.4254 30.2597 46.7037C30.563 49.2854 31.9285 51.6351 34.0558 53.236C36.1831 54.8368 38.898 55.5576 41.6031 55.2398C42.9426 55.0824 44.2393 54.6749 45.4194 54.0403C46.5994 53.4057 47.6396 52.5566 48.4806 51.5414C49.3216 50.5263 49.9468 49.3649 50.3206 48.1236C50.6945 46.8824 50.8096 45.5856 50.6595 44.3072Z" stroke="#FF6333" stroke-width="1.70457"/>
<path d="M72.4234 44.1818C72.2502 41.8782 71.169 39.7378 69.4177 38.2313C67.6663 36.7249 65.3881 35.976 63.0845 36.1492L60.3819 36.3524C59.2413 36.4381 58.1287 36.7477 57.1077 37.2634C56.0867 37.7792 55.1774 38.4909 54.4314 39.3581C53.6855 40.2253 53.1178 41.231 52.7605 42.3176C52.4032 43.4042 52.2635 44.5506 52.3492 45.6912L52.4732 47.3401C52.6465 49.6437 53.7276 51.7841 55.479 53.2905C57.2304 54.797 59.5085 55.546 61.8121 55.3728L64.5148 55.1696C65.6554 55.0838 66.7679 54.7742 67.7889 54.2585C68.8099 53.7427 69.7193 53.031 70.4652 52.1638C71.2111 51.2966 71.7789 50.291 72.1362 49.2043C72.4935 48.1177 72.6332 46.9713 72.5475 45.8307L72.4234 44.1818Z" stroke="#FF6333" stroke-width="1.70457"/>
<path d="M42.7525 45.4627C42.7525 44.728 42.4607 44.0235 41.9412 43.504C41.4217 42.9846 40.7172 42.6927 39.9826 42.6927C39.2479 42.6927 38.5434 42.9846 38.0239 43.504C37.5045 44.0235 37.2126 44.728 37.2126 45.4627C37.2126 46.1973 37.5045 46.9018 38.0239 47.4213C38.5434 47.9408 39.2479 48.2326 39.9826 48.2326C40.7172 48.2326 41.4217 47.9408 41.9412 47.4213C42.4607 46.9018 42.7525 46.1973 42.7525 45.4627Z" stroke="black" stroke-width="1.70457"/>
<path d="M64.8176 45.6672C64.8176 44.9303 64.5249 44.2236 64.0039 43.7026C63.4828 43.1815 62.7761 42.8888 62.0392 42.8888C61.3023 42.8888 60.5956 43.1815 60.0745 43.7026C59.5535 44.2236 59.2607 44.9303 59.2607 45.6672C59.2607 46.4041 59.5535 47.1108 60.0745 47.6319C60.5956 48.1529 61.3023 48.4456 62.0392 48.4456C62.7761 48.4456 63.4828 48.1529 64.0039 47.6319C64.5249 47.1108 64.8176 46.4041 64.8176 45.6672Z" stroke="black" stroke-width="1.70457"/>
<path d="M61.4007 71.6703C60.7529 72.0169 60.4688 72.7499 60.5484 73.8692C60.1904 73.6647 59.9433 73.7044 59.8069 73.9885C57.5341 78.659 55.0569 83.2415 52.375 87.7359C52.3403 87.7971 52.2886 87.8471 52.2262 87.8798C52.1639 87.9124 52.0935 87.9265 52.0234 87.9202C51.9532 87.9139 51.8864 87.8876 51.8309 87.8443C51.7754 87.801 51.7335 87.7427 51.7102 87.6762L44.3209 67.1191C44.0822 66.46 43.6163 66.1816 42.9231 66.2839C42.4515 66.3577 42.122 66.6816 41.9345 67.2555C41.2129 67.0793 40.6362 67.4174 40.2044 68.2697C39.7498 68.0027 39.2441 68.0765 38.6873 68.4913C38.0793 68.9402 37.6901 69.2101 37.5197 69.301C29.3093 73.5794 21.099 77.8551 12.8887 82.1278C12.8319 82.1562 12.7722 82.1704 12.7097 82.1704C12.6359 82.1704 12.5677 82.1505 12.5052 82.1108C12.4523 82.0781 12.4138 82.027 12.3979 81.9681C12.382 81.9092 12.3899 81.8473 12.42 81.7954L29.0906 52.9968C29.1291 52.9297 29.1506 52.8542 29.1528 52.7768C29.155 52.6995 29.1381 52.6228 29.1035 52.5536C29.0689 52.4843 29.0176 52.4248 28.9544 52.3802C28.8912 52.3356 28.8179 52.3073 28.7411 52.2979L1.53631 48.9911C1.34313 48.9627 1.2778 48.8575 1.3403 48.6757C1.38576 48.5223 1.51356 48.4087 1.72379 48.3348C11.2182 45.0279 20.7211 41.7097 30.2326 38.3801C30.3334 38.3446 30.4224 38.2812 30.4891 38.1975C30.5557 38.1139 30.5973 38.0133 30.6089 37.9077C30.6206 37.8021 30.6017 37.6958 30.5547 37.6014C30.5077 37.5069 30.4344 37.4282 30.3434 37.3744L7.70683 23.772C7.00796 23.3572 7.06474 23.164 7.87725 23.1924L43.2726 24.4197C43.4609 24.4275 43.6464 24.37 43.7983 24.2569C43.9502 24.1437 44.0594 23.9817 44.1078 23.7976L49.8266 2.30304C50.0709 1.39393 50.3693 1.37404 50.7215 2.24337L59.3466 23.5334C59.3764 23.6102 59.4229 23.6793 59.4828 23.7358C59.5427 23.7924 59.6145 23.8349 59.6929 23.8602C59.7712 23.8855 59.8543 23.893 59.9359 23.8822C60.0175 23.8713 60.0957 23.8424 60.1648 23.7976L82.5372 9.40251C83.2475 8.94228 83.4662 9.11557 83.1935 9.92239L73.9036 37.2551C73.8708 37.3524 73.8582 37.4553 73.8664 37.5577C73.8746 37.66 73.9034 37.7596 73.9512 37.8504C73.999 37.9413 74.0648 38.0214 74.1445 38.0861C74.2242 38.1508 74.3163 38.1986 74.415 38.2267L99.7363 45.5393C101.089 45.9314 101.08 46.2836 99.7107 46.5962L75.182 52.2468C75.12 52.2617 75.0626 52.2915 75.0147 52.3337C74.9668 52.3758 74.9299 52.429 74.9072 52.4886C74.8846 52.5483 74.8769 52.6125 74.8847 52.6758C74.8924 52.7391 74.9155 52.7996 74.952 52.8519C81.9577 62.5907 89.6737 73.068 98.0999 84.2841C98.3442 84.6136 98.5489 84.9489 98.7136 85.2898C98.8954 85.6705 98.7903 85.7813 98.3983 85.6222L62.2955 70.5709C62.2024 70.5324 62.1007 70.5189 62.0008 70.5317C61.9008 70.5445 61.8063 70.5831 61.7266 70.6438C61.6469 70.7044 61.585 70.7848 61.5472 70.8767C61.5095 70.9687 61.4971 71.0691 61.5115 71.1675C61.5342 71.3607 61.4972 71.5283 61.4007 71.6703ZM50.6599 44.307C50.3567 41.7253 48.9912 39.3756 46.8639 37.7747C44.7366 36.1739 42.0217 35.4531 39.3165 35.7709C37.9771 35.9283 36.6803 36.3358 35.5003 36.9704C34.3202 37.605 33.28 38.4541 32.4391 39.4693C31.5981 40.4844 30.9728 41.6458 30.5989 42.8871C30.2251 44.1283 30.11 45.4251 30.2602 46.7035C30.5635 49.2852 31.9289 51.6349 34.0562 53.2357C36.1835 54.8366 38.8984 55.5573 41.6036 55.2396C42.9431 55.0822 44.2398 54.6746 45.4198 54.0401C46.5999 53.4055 47.6401 52.5564 48.4811 51.5412C49.322 50.526 49.9472 49.3646 50.3211 48.1234C50.6949 46.8821 50.8101 45.5853 50.6599 44.307ZM72.424 44.1818C72.2508 41.8782 71.1697 39.7377 69.4183 38.2313C67.6669 36.7249 65.3888 35.9759 63.0851 36.1491L60.3825 36.3523C59.2419 36.4381 58.1293 36.7477 57.1083 37.2634C56.0873 37.7791 55.178 38.4909 54.4321 39.3581C53.6861 40.2253 53.1184 41.2309 52.7611 42.3176C52.4038 43.4042 52.2641 44.5505 52.3498 45.6912L52.4738 47.34C52.6471 49.6436 53.7282 51.7841 55.4796 53.2905C57.231 54.7969 59.5091 55.5459 61.8128 55.3727L64.5154 55.1695C65.656 55.0838 66.7686 54.7742 67.7896 54.2584C68.8105 53.7427 69.7199 53.0309 70.4658 52.1637C71.2118 51.2965 71.7795 50.2909 72.1368 49.2043C72.4941 48.1177 72.6338 46.9713 72.5481 45.8306L72.424 44.1818Z" fill="#FF6333"/>
<path d="M50.6595 44.3072C50.8096 45.5856 50.6945 46.8824 50.3206 48.1236C49.9468 49.3649 49.3216 50.5263 48.4806 51.5414C47.6396 52.5566 46.5994 53.4057 45.4194 54.0403C44.2393 54.6749 42.9426 55.0824 41.6031 55.2398C38.898 55.5576 36.1831 54.8368 34.0558 53.236C31.9285 51.6351 30.563 49.2854 30.2597 46.7037C30.1095 45.4254 30.2246 44.1286 30.5985 42.8873C30.9723 41.6461 31.5976 40.4847 32.4386 39.4695C33.2796 38.4543 34.3198 37.6052 35.4998 36.9706C36.6799 36.3361 37.9766 35.9285 39.3161 35.7711C42.0212 35.4534 44.7361 36.1741 46.8634 37.775C48.9907 39.3758 50.3562 41.7255 50.6595 44.3072ZM42.7522 45.4628C42.7522 44.7282 42.4604 44.0237 41.9409 43.5042C41.4215 42.9847 40.7169 42.6929 39.9823 42.6929C39.2477 42.6929 38.5432 42.9847 38.0237 43.5042C37.5042 44.0237 37.2124 44.7282 37.2124 45.4628C37.2124 46.1975 37.5042 46.902 38.0237 47.4215C38.5432 47.9409 39.2477 48.2328 39.9823 48.2328C40.7169 48.2328 41.4215 47.9409 41.9409 47.4215C42.4604 46.902 42.7522 46.1975 42.7522 45.4628Z" fill="white"/>
<path d="M72.5475 45.8307C72.6332 46.9713 72.4935 48.1177 72.1362 49.2043C71.7789 50.291 71.2111 51.2966 70.4652 52.1638C69.7193 53.031 68.8099 53.7427 67.7889 54.2585C66.7679 54.7742 65.6554 55.0838 64.5148 55.1696L61.8121 55.3728C59.5085 55.546 57.2304 54.797 55.479 53.2905C53.7276 51.7841 52.6465 49.6437 52.4732 47.3401L52.3492 45.6912C52.2635 44.5506 52.4032 43.4042 52.7605 42.3176C53.1178 41.231 53.6855 40.2253 54.4314 39.3581C55.1774 38.4909 56.0867 37.7792 57.1077 37.2634C58.1287 36.7477 59.2413 36.4381 60.3819 36.3524L63.0845 36.1492C65.3881 35.976 67.6663 36.7249 69.4177 38.2313C71.169 39.7378 72.2502 41.8782 72.4234 44.1818L72.5475 45.8307ZM64.8177 45.6672C64.8177 44.9303 64.525 44.2236 64.0039 43.7026C63.4829 43.1815 62.7761 42.8888 62.0393 42.8888C61.3024 42.8888 60.5957 43.1815 60.0746 43.7026C59.5535 44.2236 59.2608 44.9303 59.2608 45.6672C59.2608 46.4041 59.5535 47.1108 60.0746 47.6318C60.5957 48.1529 61.3024 48.4456 62.0393 48.4456C62.7761 48.4456 63.4829 48.1529 64.0039 47.6318C64.525 47.1108 64.8177 46.4041 64.8177 45.6672Z" fill="white"/>
<path d="M39.9826 48.2326C41.5124 48.2326 42.7525 46.9925 42.7525 45.4627C42.7525 43.9329 41.5124 42.6927 39.9826 42.6927C38.4528 42.6927 37.2126 43.9329 37.2126 45.4627C37.2126 46.9925 38.4528 48.2326 39.9826 48.2326Z" fill="black"/>
<path d="M62.0392 48.4456C63.5737 48.4456 64.8176 47.2017 64.8176 45.6672C64.8176 44.1327 63.5737 42.8888 62.0392 42.8888C60.5047 42.8888 59.2607 44.1327 59.2607 45.6672C59.2607 47.2017 60.5047 48.4456 62.0392 48.4456Z" fill="black"/>
<path d="M41.9343 67.2557L44.3547 76.128C44.4134 76.3355 44.41 76.5562 44.345 76.7634C44.2799 76.9705 44.156 77.1554 43.9882 77.2956L29.5677 89.3213C29.4709 89.4014 29.407 89.5143 29.3881 89.6385C29.3692 89.7627 29.3968 89.8894 29.4654 89.9946L33.8631 96.8896C33.9165 96.9735 33.9506 97.0683 33.963 97.167C33.9754 97.2657 33.9657 97.3659 33.9348 97.4605C33.9038 97.555 33.8523 97.6414 33.7839 97.7137C33.7155 97.7859 33.6319 97.8421 33.5392 97.8782C33.437 97.918 33.3375 97.9691 33.2409 98.0316C33.0401 98.154 32.7995 98.193 32.5715 98.1404C32.3434 98.0878 32.1461 97.9477 32.0222 97.7504L26.9767 89.8497C26.8683 89.6832 26.8248 89.4827 26.8547 89.2862C26.8845 89.0898 26.9856 88.9111 27.1386 88.7844L41.7467 76.5711C41.8996 76.4409 42.0127 76.2709 42.073 76.0809C42.1333 75.8909 42.1384 75.6886 42.0876 75.4973L40.2041 68.2699C40.636 67.4176 41.2127 67.0796 41.9343 67.2557Z" fill="black"/>
<path d="M61.4003 71.6704L65.2441 77.8921C65.5085 78.3221 65.6168 78.8307 65.5509 79.3324L62.8066 100.188C62.7981 100.246 62.802 100.305 62.8182 100.361C62.8343 100.417 62.8623 100.469 62.9003 100.513C62.9382 100.558 62.9853 100.593 63.0382 100.618C63.0911 100.643 63.1488 100.656 63.2072 100.657L71.7385 100.674C72.1419 100.674 72.3436 100.872 72.3436 101.27V101.978C72.3459 102.167 72.2717 102.35 72.1374 102.486C72.0032 102.622 71.8198 102.7 71.6277 102.702L60.9657 102.762C60.5963 102.762 60.4372 102.58 60.4883 102.216L63.531 80.0058C63.6247 79.2944 63.4711 78.5748 63.0964 77.9688L60.548 73.8693C60.4685 72.75 60.7526 72.017 61.4003 71.6704Z" fill="black"/>
</svg>
