<svg width="77" height="103" viewBox="0 0 77 103" fill="none" xmlns="http://www.w3.org/2000/svg">
<path d="M8.53262 56.6095L1.6547 66.9392C1.61342 67.0035 1.5902 67.0777 1.58749 67.1541C1.58477 67.2305 1.60265 67.3062 1.63925 67.3733C1.67586 67.4404 1.72983 67.4964 1.79553 67.5355C1.86122 67.5746 1.93622 67.5953 2.01265 67.5954L36.3852 67.5869" stroke="#007C91" stroke-width="1.70457"/>
<path d="M36.3851 67.5868L36.3937 98.3627C36.3937 98.5413 36.3218 98.7125 36.194 98.8388C36.0661 98.9651 35.8927 99.0359 35.7118 99.0359L30.8964 99.0445C30.3964 99.0445 30.1209 99.2916 30.0697 99.786L30.0186 100.28C29.9561 100.905 30.2373 101.212 30.8624 101.201L37.8681 101.116C38.2261 101.116 38.4051 100.937 38.4051 100.579L38.3795 67.7401" stroke="black" stroke-width="1.70457"/>
<path d="M38.3798 67.7404L44.8912 68.0131" stroke="#007C91" stroke-width="1.70457"/>
<path d="M44.8914 68.013L70.5365 88.5018C70.586 88.5404 70.6424 88.569 70.7026 88.586C70.7628 88.603 70.8256 88.6081 70.8873 88.601C70.9491 88.5939 71.0086 88.5747 71.0624 88.5445C71.1163 88.5143 71.1635 88.4738 71.2013 88.4252L75.6588 82.8683C76.0565 82.3739 75.977 81.9706 75.4201 81.6581L75.1389 81.5046C74.6445 81.2262 74.2213 81.3115 73.869 81.7604L70.7837 85.6638C70.7553 85.7017 70.7196 85.7334 70.6785 85.7571C70.6375 85.7808 70.5921 85.7958 70.5451 85.8014C70.4981 85.807 70.4504 85.803 70.405 85.7896C70.3595 85.7761 70.3173 85.7536 70.2809 85.7234L47.9937 67.9022" stroke="black" stroke-width="1.70457"/>
<path d="M47.9933 67.9024L75.7948 68.4905C75.8189 68.4907 75.8425 68.4846 75.8634 68.4727C75.8843 68.4608 75.9017 68.4436 75.9138 68.4228C75.9259 68.4021 75.9324 68.3784 75.9324 68.3544C75.9325 68.3303 75.9262 68.3067 75.9141 68.2859L69.5561 57.1721" stroke="#007C91" stroke-width="1.70457"/>
<path d="M69.5563 57.172C66.9313 52.4674 64.0676 47.9333 62.0732 42.956C56.4595 28.9444 50.8629 15.1403 45.2833 1.5435C45.0617 1.0094 44.7946 0.983864 44.4821 1.46682L8.53284 56.6095" stroke="#88AC68" stroke-width="1.70457"/>
<path d="M69.5563 57.172C66.9313 57.4533 65.3801 58.6807 62.8574 57.0443C62.6167 56.8876 62.3412 56.7937 62.0562 56.7715L58.5278 56.4988C58.2437 56.4761 57.9766 56.5272 57.7266 56.6522C56.6641 57.1976 55.7379 57.4278 54.9482 57.3426C52.414 57.0641 49.735 56.8823 46.9111 56.7971C46.6214 56.7857 46.3628 56.6892 46.1356 56.5073C45.5503 56.0301 44.86 55.8454 44.0645 55.9533C42.2122 56.2033 40.3457 56.084 38.465 55.5953C36.6241 55.1181 34.8457 55.6067 33.1297 57.0612C32.8797 57.2715 32.5899 57.3766 32.2604 57.3766C30.9876 57.3709 29.7973 57.1578 28.6893 56.7374C26.891 56.0555 25.4933 57.1636 23.7035 57.2318C21.0103 57.334 18.1324 57.263 15.0698 57.0187C14.9161 57.0078 14.766 56.9659 14.6284 56.8956C14.4908 56.8253 14.3685 56.7281 14.2687 56.6096C13.5812 55.8028 12.6863 55.5926 11.584 55.9789C11.3454 56.0642 11.1238 56.0301 10.9192 55.8767C10.7942 55.7744 10.6465 55.7175 10.476 55.7061C10.3113 55.6948 10.1948 55.7629 10.1266 55.9107C10.0755 56.0357 10.0016 56.1379 9.90501 56.2175C9.84251 56.2743 9.7999 56.263 9.77717 56.1835C9.74308 56.0755 9.66353 56.0045 9.53853 55.9704C9.52006 55.9652 9.50075 55.9638 9.48173 55.9661C9.4627 55.9685 9.44433 55.9746 9.42768 55.9841C9.41103 55.9936 9.39643 56.0064 9.38474 56.0216C9.37304 56.0368 9.36449 56.0541 9.35955 56.0727C9.29137 56.4249 9.0158 56.6039 8.53284 56.6096" stroke="#007C91" stroke-width="1.70457"/>
<path d="M47.9943 67.9025C46.8009 67.6638 45.7665 67.7007 44.8914 68.0133" stroke="#007C91" stroke-width="1.70457"/>
<path d="M38.3795 67.7401L36.3851 67.5868" stroke="#007C91" stroke-width="1.70457"/>
<path d="M28.6724 41.3793C32.7349 41.2486 35.1241 43.3339 35.8401 47.6351C35.8628 47.7651 35.9359 47.8812 36.0439 47.959C36.1519 48.0369 36.2866 48.0705 36.4196 48.0527L37.2463 47.9248C37.3855 47.9035 37.5114 47.8309 37.5984 47.7217C37.6855 47.6125 37.7272 47.4748 37.7151 47.3368C37.1696 39.4361 28.3741 37.3139 22.6808 41.4987C21.2319 42.5612 20.32 44.4475 19.945 47.1577C19.8825 47.6066 20.0813 47.8339 20.5416 47.8396H20.9677C21.5075 47.8453 21.8228 47.581 21.9138 47.0469C22.5444 43.3878 24.7973 41.4986 28.6724 41.3793Z" stroke="#007C91" stroke-width="1.70457"/>
<path d="M41.9679 47.3279C42.4623 44.6773 43.3998 42.6574 46.1782 41.8562C51.5647 40.3107 54.8545 42.2028 56.0477 47.5324C56.1329 47.9018 56.363 48.058 56.738 48.0011L57.4284 47.8989C57.5864 47.8737 57.7281 47.787 57.8224 47.6576C57.9166 47.5282 57.9557 47.3668 57.9312 47.2086C56.6016 38.9159 47.9169 37.2112 42.2321 42.0352C40.9367 43.1374 40.2236 44.9614 40.0929 47.5069C40.0759 47.9046 40.2634 48.0864 40.6554 48.0523L41.2179 48.0097C41.6384 47.9756 41.8884 47.7484 41.9679 47.3279Z" stroke="#007C91" stroke-width="1.70457"/>
<path d="M69.5563 57.172C66.9313 57.4532 65.3801 58.6806 62.8574 57.0442C62.6167 56.8875 62.3412 56.7937 62.0562 56.7714L58.5278 56.4987C58.2437 56.476 57.9766 56.5271 57.7266 56.6521C56.6641 57.1976 55.7379 57.4277 54.9482 57.3425C52.414 57.0641 49.735 56.8822 46.9111 56.797C46.6214 56.7857 46.3628 56.6891 46.1356 56.5073C45.5503 56.03 44.86 55.8453 44.0645 55.9533C42.2122 56.2033 40.3457 56.0839 38.465 55.5953C36.6241 55.118 34.8457 55.6066 33.1297 57.0612C32.8797 57.2714 32.5899 57.3765 32.2604 57.3765C30.9876 57.3708 29.7973 57.1578 28.6893 56.7373C26.891 56.0555 25.4933 57.1635 23.7035 57.2317C21.0103 57.334 18.1324 57.2629 15.0698 57.0186C14.9161 57.0077 14.766 56.9658 14.6284 56.8955C14.4908 56.8253 14.3685 56.7281 14.2687 56.6095C13.5812 55.8027 12.6863 55.5925 11.584 55.9789C11.3454 56.0641 11.1238 56.03 10.9192 55.8766C10.7942 55.7743 10.6465 55.7174 10.476 55.7061C10.3113 55.6947 10.1948 55.7629 10.1266 55.9106C10.0755 56.0356 10.0016 56.1379 9.90501 56.2174C9.84251 56.2742 9.7999 56.2629 9.77717 56.1834C9.74308 56.0754 9.66353 56.0044 9.53853 55.9703C9.52006 55.9652 9.50075 55.9637 9.48173 55.9661C9.4627 55.9684 9.44433 55.9745 9.42768 55.9841C9.41103 55.9936 9.39643 56.0063 9.38474 56.0215C9.37304 56.0367 9.36449 56.0541 9.35955 56.0726C9.29137 56.4249 9.0158 56.6039 8.53284 56.6095L44.4821 1.46682C44.7946 0.983864 45.0617 1.0094 45.2833 1.5435C50.8629 15.1403 56.4595 28.9444 62.0732 42.956C64.0676 47.9333 66.9313 52.4674 69.5563 57.172ZM28.6723 41.3792C32.7348 41.2486 35.1241 43.3338 35.84 47.635C35.8627 47.7651 35.9358 47.8811 36.0438 47.959C36.1518 48.0368 36.2865 48.0704 36.4195 48.0526L37.2463 47.9247C37.3854 47.9034 37.5113 47.8309 37.5984 47.7216C37.6854 47.6124 37.7271 47.4748 37.715 47.3367C37.1695 39.436 28.374 37.3139 22.6807 41.4986C21.2319 42.5611 20.3199 44.4474 19.9449 47.1576C19.8824 47.6065 20.0813 47.8338 20.5415 47.8395H20.9676C21.5074 47.8452 21.8228 47.5809 21.9137 47.0468C22.5444 43.3877 24.7972 41.4986 28.6723 41.3792ZM41.9679 47.3282C42.4622 44.6776 43.3997 42.6576 46.1782 41.8565C51.5646 40.311 54.8544 42.2031 56.0476 47.5327C56.1328 47.902 56.363 48.0582 56.738 48.0014L57.4283 47.8991C57.5864 47.874 57.7281 47.7873 57.8223 47.6579C57.9166 47.5285 57.9557 47.367 57.9311 47.2088C56.6016 38.9161 47.9168 37.2115 42.2321 42.0354C40.9366 43.1377 40.2236 44.9616 40.0929 47.5071C40.0758 47.9048 40.2633 48.0867 40.6554 48.0526L41.2179 48.0099C41.6383 47.9758 41.8883 47.7486 41.9679 47.3282Z" fill="#88AC68"/>
<path d="M28.6724 41.3793C24.7973 41.4986 22.5444 43.3878 21.9138 47.0469C21.8228 47.581 21.5075 47.8453 20.9677 47.8396H20.5416C20.0813 47.8339 19.8825 47.6066 19.945 47.1577C20.32 44.4475 21.2319 42.5612 22.6808 41.4987C28.3741 37.3139 37.1696 39.4361 37.7151 47.3368C37.7272 47.4748 37.6855 47.6125 37.5984 47.7217C37.5114 47.8309 37.3855 47.9035 37.2463 47.9248L36.4196 48.0527C36.2866 48.0705 36.1519 48.0369 36.0439 47.959C35.9359 47.8812 35.8628 47.7651 35.8401 47.6351C35.1241 43.3339 32.7349 41.2486 28.6724 41.3793Z" fill="black"/>
<path d="M46.1782 41.8562C43.3998 42.6574 42.4623 44.6773 41.9679 47.3279C41.8884 47.7484 41.6384 47.9756 41.2179 48.0097L40.6554 48.0523C40.2634 48.0864 40.0759 47.9046 40.0929 47.5069C40.2236 44.9614 40.9367 43.1374 42.2321 42.0352C47.9169 37.2112 56.6016 38.9159 57.9312 47.2086C57.9557 47.3668 57.9166 47.5282 57.8224 47.6576C57.7281 47.787 57.5864 47.8737 57.4284 47.8989L56.738 48.0011C56.363 48.058 56.1329 47.9018 56.0477 47.5324C54.8545 42.2028 51.5647 40.3107 46.1782 41.8562Z" fill="black"/>
<path d="M69.5561 57.172L75.9141 68.2858C75.9261 68.3067 75.9324 68.3303 75.9324 68.3543C75.9323 68.3783 75.9259 68.402 75.9138 68.4228C75.9017 68.4435 75.8843 68.4607 75.8634 68.4726C75.8425 68.4845 75.8188 68.4906 75.7948 68.4904L47.9933 67.9024C46.8001 67.6637 45.766 67.7007 44.891 68.0132L38.3796 67.7404L36.3852 67.587L2.01265 67.5955C1.93622 67.5954 1.86122 67.5747 1.79553 67.5356C1.72983 67.4965 1.67586 67.4405 1.63925 67.3734C1.60265 67.3063 1.58477 67.2306 1.58749 67.1542C1.5902 67.0778 1.61342 67.0036 1.6547 66.9393L8.53262 56.6096C9.01558 56.6039 9.29115 56.4249 9.35933 56.0727C9.36427 56.0541 9.37282 56.0368 9.38452 56.0216C9.39621 56.0064 9.41081 55.9936 9.42746 55.9841C9.44411 55.9746 9.46248 55.9685 9.48151 55.9661C9.50054 55.9638 9.51985 55.9652 9.53831 55.9704C9.66332 56.0045 9.74286 56.0755 9.77695 56.1835C9.79968 56.263 9.84229 56.2743 9.9048 56.2175C10.0014 56.1379 10.0752 56.0357 10.1264 55.9107C10.1946 55.7629 10.311 55.6948 10.4758 55.7061C10.6463 55.7175 10.794 55.7744 10.919 55.8767C11.1236 56.0301 11.3452 56.0642 11.5838 55.9789C12.6861 55.5926 13.581 55.8028 14.2685 56.6096C14.3683 56.7281 14.4906 56.8253 14.6282 56.8956C14.7658 56.9659 14.9159 57.0078 15.0696 57.0187C18.1322 57.263 21.01 57.334 23.7033 57.2318C25.493 57.1636 26.8908 56.0555 28.6891 56.7374C29.7971 57.1578 30.9874 57.3709 32.2602 57.3766C32.5897 57.3766 32.8795 57.2715 33.1295 57.0612C34.8454 55.6067 36.6239 55.1181 38.4648 55.5953C40.3455 56.084 42.212 56.2033 44.0643 55.9533C44.8598 55.8454 45.5501 56.0301 46.1353 56.5073C46.3626 56.6892 46.6211 56.7857 46.9109 56.7971C49.7348 56.8823 52.4138 57.0641 54.9479 57.3426C55.7377 57.4278 56.6639 57.1976 57.7264 56.6522C57.9764 56.5272 58.2434 56.4761 58.5275 56.4988L62.056 56.7715C62.341 56.7937 62.6164 56.8876 62.8571 57.0443C65.3799 58.6807 66.931 57.4533 69.5561 57.172Z" fill="#007C91"/>
<path d="M38.3795 67.7401L38.4051 100.579C38.4051 100.937 38.2261 101.116 37.8681 101.116L30.8624 101.201C30.2373 101.212 29.9561 100.905 30.0186 100.28L30.0697 99.786C30.1209 99.2916 30.3964 99.0445 30.8964 99.0445L35.7118 99.0359C35.8927 99.0359 36.0661 98.9651 36.194 98.8388C36.3218 98.7125 36.3937 98.5413 36.3937 98.3627L36.3851 67.5868L38.3795 67.7401Z" fill="black"/>
<path d="M47.9937 67.9024L70.2809 85.7236C70.3173 85.7538 70.3595 85.7763 70.405 85.7898C70.4504 85.8032 70.4981 85.8072 70.5451 85.8016C70.5921 85.796 70.6375 85.781 70.6785 85.7573C70.7196 85.7336 70.7553 85.7019 70.7837 85.664L73.869 81.7606C74.2213 81.3117 74.6445 81.2264 75.1389 81.5048L75.4201 81.6583C75.9769 81.9708 76.0565 82.3741 75.6588 82.8685L71.2013 88.4254C71.1635 88.474 71.1163 88.5145 71.0624 88.5447C71.0086 88.5749 70.9491 88.5941 70.8873 88.6012C70.8256 88.6083 70.7628 88.6032 70.7026 88.5862C70.6424 88.5692 70.586 88.5406 70.5365 88.502L44.8914 68.0132C45.7664 67.7007 46.8005 67.6638 47.9937 67.9024Z" fill="black"/>
</svg>
