<svg width="85" height="101" viewBox="0 0 85 101" fill="none" xmlns="http://www.w3.org/2000/svg">
<path d="M37.6293 42.8281L37.4418 96.931C37.4361 97.2663 37.2656 97.4367 36.9304 97.4424H30.9303C30.8218 97.4424 30.7178 97.4855 30.6411 97.5622C30.5643 97.639 30.5213 97.743 30.5213 97.8515L30.5127 98.5333C30.507 98.8458 30.6605 99.0049 30.973 99.0105L38.9674 99.1725C39.3196 99.1782 39.4929 99.0049 39.4873 98.6527L39.385 43.1435" stroke="black" stroke-width="1.70457"/>
<path d="M39.385 43.1433C41.0157 42.666 42.7004 42.6319 44.439 43.041" stroke="#F48697" stroke-width="1.70457"/>
<path d="M44.4389 43.0411L44.3622 98.9081C44.3622 98.9536 44.3713 98.9987 44.3889 99.0406C44.4066 99.0825 44.4325 99.1205 44.465 99.1523C44.4976 99.1841 44.5362 99.2089 44.5785 99.2256C44.6209 99.2422 44.6661 99.2502 44.7116 99.2491L52.7998 99.0189C53.1975 99.0076 53.3992 98.8031 53.4049 98.4053V98.1667C53.4106 97.7803 53.2231 97.5815 52.8424 97.5701L46.8935 97.3741C46.5639 97.3627 46.3963 97.1922 46.3906 96.8626L46.3565 42.9047" stroke="black" stroke-width="1.70457"/>
<path d="M46.3566 42.905L83.4054 42.6067C83.7804 42.601 83.9906 42.4106 84.0361 42.0356C84.1951 40.6947 84.1554 39.2799 83.9167 37.7913C82.1696 26.865 78.9053 16.2711 69.8455 9.75115C61.7602 3.93858 52.5101 1.0465 42.0952 1.07491C35.419 1.09196 29.7314 1.89026 25.0325 3.46983C21.5552 4.63745 19.1262 6.40166 16.6205 9.04374C11.0295 14.933 6.62319 20.3109 4.26236 27.6576C2.77939 32.2656 1.822 37.2287 1.39017 42.547C1.36745 42.8652 1.51802 43.0243 1.84188 43.0243L37.6293 42.8283" stroke="#F48697" stroke-width="1.70457"/>
<path d="M46.3568 42.9049C45.5614 42.6833 44.9222 42.7288 44.4392 43.0413" stroke="#F48697" stroke-width="1.70457"/>
<path d="M39.385 43.1434C39.2202 42.7571 38.635 42.652 37.6293 42.8281" stroke="#F48697" stroke-width="1.70457"/>
<path d="M22.0408 31.0069H39.1887C39.454 31.0069 39.7166 30.9546 39.9617 30.8531C40.2068 30.7516 40.4294 30.6028 40.617 30.4153C40.8046 30.2277 40.9534 30.0051 41.0549 29.76C41.1564 29.5149 41.2086 29.2522 41.2086 28.987V26.1915C41.2086 23.6395 40.1724 21.192 38.3279 19.3875C36.4834 17.583 33.9818 16.5692 31.3733 16.5692H29.8562C27.2477 16.5692 24.7461 17.583 22.9016 19.3875C21.0571 21.192 20.0209 23.6395 20.0209 26.1915V28.987C20.0209 29.5227 20.2337 30.0365 20.6125 30.4153C20.9913 30.7941 21.5051 31.0069 22.0408 31.0069Z" stroke="#F48697" stroke-width="1.70457"/>
<path d="M44.669 30.9386L62.584 31.0068C62.8007 31.0079 63.0155 30.9662 63.2161 30.884C63.4166 30.8018 63.599 30.6808 63.7526 30.528C63.9063 30.3751 64.0282 30.1934 64.1114 29.9933C64.1946 29.7932 64.2374 29.5786 64.2374 29.3619L64.2459 26.7453C64.2506 25.4469 64.0104 24.1603 63.5392 22.959C63.068 21.7577 62.375 20.6653 61.4997 19.744C60.6243 18.8228 59.5839 18.0908 58.4377 17.5899C57.2916 17.089 56.0621 16.829 54.8197 16.8248H52.5355C50.0267 16.8161 47.6171 17.8492 45.8366 19.6968C44.0561 21.5445 43.0505 24.0553 43.0411 26.6771L43.0326 29.2937C43.0326 29.7284 43.2047 30.1456 43.5114 30.4538C43.818 30.762 44.2342 30.9363 44.669 30.9386Z" stroke="#F48697" stroke-width="1.70457"/>
<path d="M33.0201 25.9276C32.833 25.1939 32.3508 24.5673 31.6796 24.1859C31.0084 23.8044 30.203 23.6993 29.4408 23.8936C29.0634 23.9898 28.7079 24.1566 28.3946 24.3845C28.0813 24.6124 27.8165 24.897 27.6151 25.2219C27.4137 25.5469 27.2797 25.9059 27.2208 26.2783C27.1619 26.6508 27.1793 27.0295 27.2719 27.3929C27.459 28.1266 27.9411 28.7532 28.6124 29.1346C29.2836 29.5161 30.0889 29.6212 30.8512 29.4269C31.2286 29.3307 31.5841 29.1639 31.8974 28.936C32.2106 28.7081 32.4755 28.4235 32.6769 28.0986C32.8783 27.7736 33.0123 27.4147 33.0712 27.0422C33.13 26.6697 33.1127 26.291 33.0201 25.9276Z" stroke="black" stroke-width="1.70457"/>
<path d="M56.1935 27.0695C56.2444 26.3231 55.9769 25.5856 55.45 25.0194C54.9231 24.4532 54.1798 24.1047 53.3837 24.0504C52.5877 23.9961 51.804 24.2406 51.2052 24.73C50.6063 25.2195 50.2412 25.9138 50.1903 26.6603C50.1395 27.4067 50.4069 28.1441 50.9338 28.7103C51.4607 29.2765 52.204 29.6251 53 29.6794C53.7961 29.7337 54.5798 29.4892 55.1787 28.9997C55.7775 28.5103 56.1426 27.816 56.1935 27.0695Z" stroke="black" stroke-width="1.70457"/>
<path d="M46.3566 42.905C45.5612 42.6834 44.922 42.7289 44.439 43.0414C42.7003 42.6323 41.0157 42.6664 39.385 43.1436C39.2202 42.7573 38.635 42.6522 37.6293 42.8283L1.84188 43.0243C1.51802 43.0243 1.36745 42.8652 1.39017 42.547C1.822 37.2287 2.77939 32.2656 4.26236 27.6576C6.62319 20.3109 11.0295 14.933 16.6205 9.04374C19.1262 6.40166 21.5552 4.63746 25.0325 3.46983C29.7314 1.89026 35.419 1.09196 42.0952 1.07491C52.5101 1.0465 61.7602 3.93858 69.8456 9.75115C78.9053 16.2711 82.1696 26.865 83.9167 37.7913C84.1554 39.2799 84.1951 40.6947 84.0361 42.0356C83.9906 42.4106 83.7804 42.601 83.4054 42.6067L46.3566 42.905ZM22.041 31.0071H39.1889C39.4542 31.0071 39.7168 30.9548 39.9619 30.8533C40.207 30.7518 40.4297 30.603 40.6172 30.4155C40.8048 30.2279 40.9536 30.0053 41.0551 29.7602C41.1566 29.5151 41.2088 29.2524 41.2088 28.9872V26.1917C41.2088 23.6397 40.1726 21.1922 38.3281 19.3877C36.4837 17.5832 33.982 16.5694 31.3735 16.5694H29.8564C27.2479 16.5694 24.7463 17.5832 22.9018 19.3877C21.0573 21.1922 20.0211 23.6397 20.0211 26.1917V28.9872C20.0211 29.5229 20.2339 30.0367 20.6127 30.4155C20.9915 30.7943 21.5053 31.0071 22.041 31.0071ZM44.6691 30.9389L62.5841 31.0071C62.8008 31.0082 63.0156 30.9665 63.2162 30.8843C63.4167 30.8022 63.5991 30.6812 63.7527 30.5283C63.9064 30.3755 64.0283 30.1938 64.1115 29.9937C64.1947 29.7935 64.2375 29.5789 64.2375 29.3622L64.246 26.7457C64.2507 25.4472 64.0106 24.1607 63.5394 22.9594C63.0682 21.7581 62.3751 20.6656 61.4998 19.7444C60.6245 18.8231 59.584 18.0911 58.4379 17.5902C57.2917 17.0894 56.0623 16.8294 54.8198 16.8251H52.5357C50.0269 16.8164 47.6172 17.8495 45.8367 19.6972C44.0562 21.5448 43.0506 24.0557 43.0412 26.6775L43.0327 29.294C43.0327 29.7288 43.2049 30.1459 43.5115 30.4541C43.8181 30.7624 44.2343 30.9366 44.6691 30.9389Z" fill="#F48697"/>
<path d="M22.0408 31.0069C21.5051 31.0069 20.9913 30.7941 20.6125 30.4153C20.2337 30.0365 20.0209 29.5227 20.0209 28.987V26.1915C20.0209 23.6395 21.0571 21.192 22.9016 19.3875C24.7461 17.583 27.2477 16.5692 29.8562 16.5692H31.3733C33.9818 16.5692 36.4834 17.583 38.3279 19.3875C40.1724 21.192 41.2086 23.6395 41.2086 26.1915V28.987C41.2086 29.2522 41.1564 29.5149 41.0549 29.76C40.9534 30.0051 40.8046 30.2277 40.617 30.4153C40.4294 30.6028 40.2068 30.7516 39.9617 30.8531C39.7166 30.9546 39.454 31.0069 39.1887 31.0069H22.0408ZM33.0201 25.9276C32.833 25.1939 32.3508 24.5673 31.6796 24.1859C31.0084 23.8044 30.203 23.6993 29.4408 23.8936C29.0634 23.9898 28.7079 24.1566 28.3946 24.3845C28.0814 24.6124 27.8165 24.897 27.6151 25.2219C27.4137 25.5469 27.2797 25.9058 27.2208 26.2783C27.1619 26.6508 27.1793 27.0295 27.2719 27.3929C27.459 28.1266 27.9411 28.7532 28.6124 29.1346C29.2836 29.5161 30.0889 29.6212 30.8512 29.4269C31.2286 29.3307 31.5841 29.1639 31.8974 28.936C32.2106 28.7081 32.4755 28.4235 32.6769 28.0985C32.8783 27.7736 33.0123 27.4147 33.0712 27.0422C33.13 26.6697 33.1127 26.291 33.0201 25.9276Z" fill="white"/>
<path d="M44.669 30.9386C44.2342 30.9363 43.818 30.762 43.5114 30.4538C43.2047 30.1456 43.0326 29.7284 43.0326 29.2937L43.0411 26.6771C43.0505 24.0553 44.0561 21.5445 45.8366 19.6968C47.6171 17.8492 50.0267 16.8161 52.5355 16.8248H54.8197C56.0621 16.829 57.2916 17.089 58.4377 17.5899C59.5839 18.0908 60.6243 18.8228 61.4997 19.744C62.375 20.6653 63.068 21.7577 63.5392 22.959C64.0104 24.1603 64.2506 25.4469 64.2459 26.7453L64.2374 29.3619C64.2374 29.5786 64.1946 29.7932 64.1114 29.9933C64.0282 30.1934 63.9062 30.3751 63.7526 30.528C63.599 30.6808 63.4166 30.8018 63.2161 30.884C63.0155 30.9662 62.8007 31.0079 62.584 31.0068L44.669 30.9386ZM56.1934 27.0693C56.2443 26.3229 55.9768 25.5854 55.4499 25.0192C54.923 24.453 54.1797 24.1044 53.3836 24.0502C52.5876 23.9959 51.8039 24.2404 51.205 24.7298C50.6062 25.2193 50.2411 25.9136 50.1902 26.66C50.1393 27.4065 50.4068 28.1439 50.9337 28.7101C51.4606 29.2763 52.2039 29.6249 52.9999 29.6792C53.796 29.7334 54.5797 29.4889 55.1786 28.9995C55.7774 28.5101 56.1425 27.8158 56.1934 27.0693Z" fill="white"/>
<path d="M30.8515 29.4268C32.4388 29.0222 33.4098 27.4555 33.0203 25.9275C32.6308 24.3995 31.0284 23.4888 29.4411 23.8934C27.8538 24.298 26.8828 25.8647 27.2722 27.3927C27.6617 28.9207 29.2642 29.8314 30.8515 29.4268Z" fill="black"/>
<path d="M53 29.6794C54.6578 29.7924 56.0875 28.6239 56.1935 27.0695C56.2995 25.5151 55.0415 24.1633 53.3838 24.0503C51.7261 23.9373 50.2963 25.1058 50.1903 26.6602C50.0844 28.2146 51.3423 29.5664 53 29.6794Z" fill="black"/>
<path d="M39.385 43.1434L39.4873 98.6526C39.4929 99.0049 39.3196 99.1782 38.9674 99.1725L30.973 99.0105C30.6605 99.0048 30.507 98.8458 30.5127 98.5333L30.5213 97.8514C30.5213 97.7429 30.5643 97.6389 30.6411 97.5622C30.7178 97.4855 30.8218 97.4423 30.9303 97.4423H36.9304C37.2656 97.4367 37.4361 97.2662 37.4418 96.931L37.6293 42.8281C38.635 42.652 39.2202 42.7571 39.385 43.1434Z" fill="black"/>
<path d="M46.3565 42.9049L46.3906 96.8628C46.3963 97.1924 46.5639 97.3629 46.8935 97.3743L52.8424 97.5703C53.2231 97.5817 53.4106 97.7805 53.4049 98.1669V98.4055C53.3992 98.8033 53.1975 99.0078 52.7998 99.0191L44.7116 99.2493C44.6661 99.2504 44.6209 99.2424 44.5785 99.2258C44.5362 99.2091 44.4976 99.1843 44.465 99.1525C44.4325 99.1208 44.4066 99.0827 44.3889 99.0408C44.3713 98.9989 44.3622 98.9538 44.3622 98.9083L44.4389 43.0413C44.9218 42.7288 45.5611 42.6833 46.3565 42.9049Z" fill="black"/>
</svg>
