<svg width="72" height="93" viewBox="0 0 72 93" fill="none" xmlns="http://www.w3.org/2000/svg">
<path d="M26.7818 67.1519L7.7162 86.9418C7.65962 87.0009 7.59178 87.0481 7.51671 87.0805C7.44164 87.113 7.36087 87.1301 7.27908 87.1309C7.1973 87.1317 7.11616 87.1161 7.04047 87.0851C6.96479 87.0541 6.89605 87.0083 6.83833 86.9504L2.66217 82.8252C2.57216 82.7356 2.46515 82.6649 2.34745 82.6172C2.22976 82.5694 2.10376 82.5457 1.97676 82.5473C1.84977 82.5488 1.72436 82.5758 1.6079 82.6264C1.49143 82.6771 1.38622 82.7505 1.29849 82.8423L1.12807 83.0128C1.05441 83.0871 0.996133 83.1751 0.956668 83.272C0.917203 83.3688 0.897302 83.4725 0.898094 83.577C0.898886 83.6816 0.920369 83.785 0.961297 83.8812C1.00223 83.9775 1.06178 84.0647 1.13655 84.1378L6.88946 89.7799C7.17924 90.0583 7.46333 90.0526 7.74174 89.7628L29.7051 67.1519" stroke="black" stroke-width="1.70457"/>
<path d="M29.7051 67.1519L41.0149 67.5353" stroke="#FF6333" stroke-width="1.70457"/>
<path d="M41.0149 67.535L63.8475 91.0155C64.0805 91.2541 64.3192 91.2569 64.5635 91.0239L70.3761 85.3989C70.4726 85.3049 70.5442 85.1886 70.5844 85.0606C70.6246 84.9326 70.6321 84.7969 70.6061 84.6659C70.5493 84.3591 70.4243 84.1346 70.2311 83.9926C69.697 83.6119 69.1942 83.6517 68.7226 84.1119L64.751 88.0325C64.393 88.3904 64.035 88.3876 63.6771 88.0239L43.8786 67.5946" stroke="black" stroke-width="1.70457"/>
<path d="M43.8786 67.595L68.5778 68.311C68.6706 68.3135 68.7629 68.2967 68.8489 68.2618C68.9349 68.2269 69.0128 68.1746 69.0776 68.1082C69.1424 68.0417 69.1928 67.9627 69.2256 67.8758C69.2584 67.789 69.2729 67.6963 69.2681 67.6036C68.5352 51.9898 67.9216 37.1373 67.4272 23.0463C67.3136 19.9098 66.8846 16.3104 66.1403 12.2478C65.5522 9.00916 64.0777 4.57728 60.8987 2.96647C58.7169 1.86418 56.0464 1.25336 52.8873 1.13404C44.5093 0.81017 42.5406 11.8643 42.7622 17.9326C42.7644 17.9779 42.7526 18.0229 42.7284 18.0614C42.7043 18.0999 42.6689 18.13 42.627 18.1477C42.5851 18.1653 42.5389 18.1697 42.4945 18.1602C42.45 18.1507 42.4096 18.1277 42.3786 18.0945C40.6797 16.3047 38.299 15.0035 35.2365 14.191C25.3415 11.5489 23.1256 22.5264 23.1256 29.7282C23.1256 30.2452 22.9409 30.3219 22.5716 29.9583C21.4522 28.8332 19.9721 27.802 18.1312 26.8645C12.5998 24.0434 6.15661 27.2821 5.4833 33.4782C4.13102 46.0749 3.08271 56.7655 2.33838 65.5497C2.33021 65.6408 2.34072 65.7326 2.36928 65.8196C2.39784 65.9066 2.44385 65.9869 2.50448 66.0555C2.5651 66.1241 2.63905 66.1797 2.72186 66.2187C2.80468 66.2578 2.89462 66.2795 2.98612 66.2826L26.7818 67.1519" stroke="#FF6333" stroke-width="1.70457"/>
<path d="M43.8791 67.5949C42.9301 67.3051 41.9753 67.2853 41.0149 67.5353" stroke="black" stroke-width="1.70457"/>
<path d="M29.7055 67.1519H26.7816" stroke="black" stroke-width="1.70457"/>
<path d="M44.9786 33.8106C45.0252 33.8111 45.0711 33.7983 45.1108 33.7737C45.1505 33.7492 45.1825 33.7139 45.203 33.672C45.2235 33.6301 45.2318 33.5832 45.2268 33.5368C45.2218 33.4904 45.2037 33.4464 45.1748 33.4098C44.953 33.1256 44.6347 33.0346 44.2196 33.1369C43.9581 33.1995 43.9183 33.3302 44.1002 33.5292C44.2708 33.7111 44.5636 33.8049 44.9786 33.8106Z" stroke="black" stroke-width="1.70457"/>
<path d="M47.2436 35.6307C47.24 35.586 47.2215 35.543 47.1891 35.5041C47.1567 35.4652 47.1112 35.4311 47.055 35.4038C46.9987 35.3766 46.933 35.3567 46.8615 35.3452C46.79 35.3338 46.7141 35.331 46.6382 35.3372C46.4849 35.3495 46.3408 35.3971 46.2375 35.4696C46.1343 35.5421 46.0803 35.6335 46.0876 35.7236C46.0911 35.7683 46.1096 35.8113 46.142 35.8502C46.1744 35.8891 46.22 35.9232 46.2762 35.9505C46.3324 35.9777 46.3982 35.9976 46.4697 36.0091C46.5412 36.0205 46.617 36.0232 46.693 36.0171C46.8462 36.0048 46.9903 35.9572 47.0936 35.8847C47.1969 35.8122 47.2508 35.7208 47.2436 35.6307Z" stroke="black" stroke-width="1.70457"/>
<path d="M37.107 48.8897C36.974 46.1692 35.7136 43.6154 33.6033 41.7904C31.4929 39.9653 28.7054 39.0183 25.8539 39.1578C24.442 39.2268 23.0569 39.5605 21.7777 40.1398C20.4985 40.7191 19.3502 41.5327 18.3984 42.534C17.4466 43.5354 16.71 44.7049 16.2305 45.9758C15.7511 47.2468 15.5382 48.5943 15.6041 49.9414C15.7372 52.6619 16.9975 55.2155 19.1079 57.0406C21.2183 58.8656 24.0058 59.8127 26.8573 59.6733C28.2692 59.6042 29.6543 59.2704 30.9335 58.6911C32.2127 58.1118 33.361 57.2984 34.3128 56.297C35.2646 55.2957 36.0012 54.1261 36.4806 52.8551C36.9601 51.5841 37.1729 50.2367 37.107 48.8897Z" stroke="#FF6333" stroke-width="1.70457"/>
<path d="M59.7233 47.8466C59.6226 46.6724 59.2917 45.5295 58.7493 44.4831C58.2069 43.4368 57.4638 42.5075 56.5623 41.7484C55.6608 40.9893 54.6186 40.4151 53.4952 40.0588C52.3718 39.7024 51.1892 39.5708 50.0149 39.6715L46.9241 39.9365C44.5526 40.1398 42.359 41.2769 40.8259 43.0975C39.2927 44.9182 38.5456 47.2733 38.7489 49.6448L38.909 51.513C39.0097 52.6873 39.3406 53.8301 39.883 54.8765C40.4254 55.9228 41.1685 56.8521 42.07 57.6112C42.9716 58.3704 44.0138 58.9446 45.1372 59.3009C46.2605 59.6573 47.4431 59.7888 48.6174 59.6882L51.7083 59.4232C54.0798 59.2199 56.2733 58.0827 57.8065 56.2621C59.3396 54.4414 60.0868 52.0863 59.8835 49.7148L59.7233 47.8466Z" stroke="#FF6333" stroke-width="1.70457"/>
<path d="M26.9523 49.4498C26.9523 49.174 26.8427 48.9095 26.6477 48.7145C26.4527 48.5195 26.1882 48.4099 25.9124 48.4099C25.6367 48.4099 25.3722 48.5195 25.1772 48.7145C24.9822 48.9095 24.8727 49.174 24.8727 49.4498C24.8727 49.7255 24.9822 49.99 25.1772 50.185C25.3722 50.38 25.6367 50.4895 25.9124 50.4895C26.1882 50.4895 26.4527 50.38 26.6477 50.185C26.8427 49.99 26.9523 49.7255 26.9523 49.4498Z" stroke="black" stroke-width="1.70457"/>
<path d="M49.9468 49.6543C49.9468 49.3808 49.8382 49.1185 49.6448 48.9251C49.4514 48.7317 49.189 48.6229 48.9155 48.6229C48.642 48.6229 48.3797 48.7317 48.1863 48.9251C47.9929 49.1185 47.8843 49.3808 47.8843 49.6543C47.8843 49.9278 47.9929 50.1901 48.1863 50.3835C48.3797 50.5769 48.642 50.6855 48.9155 50.6855C49.189 50.6855 49.4514 50.5769 49.6448 50.3835C49.8382 50.1901 49.9468 49.9278 49.9468 49.6543Z" stroke="black" stroke-width="1.70457"/>
<path d="M43.8786 67.595C42.9298 67.3053 41.9752 67.2854 41.015 67.5354L29.7052 67.1519H26.7818L2.98612 66.2826C2.89462 66.2795 2.80468 66.2578 2.72186 66.2187C2.63905 66.1797 2.5651 66.1241 2.50448 66.0555C2.44385 65.9869 2.39784 65.9066 2.36928 65.8196C2.34072 65.7326 2.33021 65.6408 2.33838 65.5497C3.08271 56.7655 4.13102 46.0749 5.4833 33.4782C6.15661 27.2821 12.5998 24.0434 18.1312 26.8645C19.9721 27.802 21.4522 28.8332 22.5716 29.9583C22.9409 30.3219 23.1256 30.2452 23.1256 29.7282C23.1256 22.5264 25.3415 11.5489 35.2365 14.191C38.299 15.0035 40.6797 16.3047 42.3786 18.0945C42.4096 18.1278 42.45 18.1507 42.4945 18.1602C42.5389 18.1697 42.5851 18.1653 42.627 18.1477C42.6689 18.13 42.7043 18.0999 42.7284 18.0614C42.7526 18.0229 42.7644 17.9779 42.7622 17.9326C42.5406 11.8643 44.5093 0.81017 52.8873 1.13404C56.0464 1.25336 58.7169 1.86418 60.8987 2.96647C64.0777 4.57728 65.5522 9.00916 66.1403 12.2478C66.8846 16.3104 67.3136 19.9098 67.4272 23.0463C67.9216 37.1373 68.5352 51.9898 69.2681 67.6036C69.2729 67.6963 69.2584 67.789 69.2256 67.8758C69.1928 67.9627 69.1424 68.0417 69.0776 68.1082C69.0128 68.1746 68.9349 68.2269 68.8489 68.2618C68.7629 68.2967 68.6706 68.3135 68.5778 68.311L43.8786 67.595ZM44.9781 33.8106C45.0247 33.811 45.0705 33.7982 45.1102 33.7737C45.1499 33.7492 45.1818 33.714 45.2023 33.6721C45.2228 33.6302 45.2311 33.5833 45.2261 33.537C45.2211 33.4906 45.2031 33.4466 45.1741 33.41C44.9525 33.1259 44.6344 33.035 44.2196 33.1373C43.9582 33.1998 43.9184 33.3305 44.1002 33.5293C44.2707 33.7111 44.5633 33.8049 44.9781 33.8106ZM47.2433 35.6306C47.2397 35.586 47.2212 35.543 47.1888 35.5041C47.1565 35.4652 47.111 35.4312 47.0548 35.4039C46.9986 35.3767 46.9329 35.3568 46.8614 35.3454C46.79 35.3339 46.7141 35.3312 46.6383 35.3373C46.4851 35.3496 46.341 35.3973 46.2378 35.4697C46.1346 35.5421 46.0807 35.6334 46.088 35.7235C46.0915 35.7682 46.11 35.8112 46.1424 35.8501C46.1747 35.8889 46.2203 35.923 46.2765 35.9502C46.3327 35.9775 46.3984 35.9974 46.4698 36.0088C46.5413 36.0203 46.6171 36.023 46.693 36.0169C46.8462 36.0045 46.9902 35.9569 47.0934 35.8845C47.1966 35.8121 47.2505 35.7208 47.2433 35.6306ZM37.1071 48.8901C36.9741 46.1696 35.7138 43.6158 33.6034 41.7908C31.493 39.9657 28.7055 39.0187 25.854 39.1582C24.4421 39.2272 23.057 39.5609 21.7778 40.1402C20.4986 40.7195 19.3503 41.5331 18.3985 42.5344C17.4467 43.5358 16.7101 44.7053 16.2306 45.9762C15.7512 47.2472 15.5383 48.5947 15.6042 49.9418C15.7373 52.6623 16.9977 55.2159 19.108 57.041C21.2184 58.8661 24.0059 59.8131 26.8574 59.6737C28.2693 59.6046 29.6544 59.2708 30.9336 58.6915C32.2128 58.1122 33.3611 57.2988 34.3129 56.2974C35.2647 55.2961 36.0013 54.1265 36.4807 52.8555C36.9602 51.5845 37.173 50.2371 37.1071 48.8901ZM59.7233 47.8469C59.6227 46.6726 59.2917 45.5298 58.7493 44.4834C58.207 43.4371 57.4638 42.5078 56.5623 41.7487C55.6608 40.9895 54.6186 40.4154 53.4952 40.059C52.3718 39.7027 51.1892 39.5711 50.015 39.6717L46.9241 39.9368C44.5526 40.1401 42.359 41.2771 40.8259 43.0978C39.2928 44.9184 38.5456 47.2736 38.7489 49.6451L38.9091 51.5133C39.0098 52.6876 39.3407 53.8304 39.883 54.8768C40.4254 55.9231 41.1686 56.8524 42.0701 57.6115C42.9716 58.3707 44.0138 58.9448 45.1372 59.3012C46.2606 59.6576 47.4432 59.7891 48.6174 59.6884L51.7083 59.4235C54.0798 59.2201 56.2734 58.083 57.8065 56.2623C59.3397 54.4417 60.0868 52.0866 59.8835 49.7151L59.7233 47.8469Z" fill="#FF6333"/>
<path d="M44.9786 33.8106C44.5636 33.8049 44.2708 33.7111 44.1002 33.5292C43.9183 33.3302 43.9581 33.1995 44.2196 33.1369C44.6347 33.0346 44.953 33.1256 45.1748 33.4098C45.2037 33.4464 45.2218 33.4904 45.2268 33.5368C45.2318 33.5832 45.2235 33.6301 45.203 33.672C45.1825 33.7139 45.1505 33.7492 45.1108 33.7737C45.0711 33.7983 45.0252 33.8111 44.9786 33.8106Z" fill="black"/>
<path d="M46.693 36.017C47.0123 35.9913 47.2588 35.8182 47.2437 35.6304C47.2286 35.4426 46.9576 35.3112 46.6383 35.3369C46.3191 35.3626 46.0726 35.5357 46.0877 35.7234C46.1028 35.9112 46.3738 36.0426 46.693 36.017Z" fill="black"/>
<path d="M37.107 48.8897C37.1729 50.2367 36.9601 51.5841 36.4806 52.8551C36.0012 54.1261 35.2646 55.2957 34.3128 56.297C33.361 57.2984 32.2127 58.1118 30.9335 58.6911C29.6543 59.2704 28.2692 59.6042 26.8573 59.6733C24.0058 59.8127 21.2183 58.8657 19.1079 57.0406C16.9975 55.2155 15.7372 52.6619 15.6041 49.9414C15.5382 48.5943 15.7511 47.2468 16.2305 45.9758C16.71 44.7049 17.4466 43.5354 18.3984 42.534C19.3502 41.5327 20.4985 40.7191 21.7777 40.1398C23.0569 39.5605 24.442 39.2268 25.8539 39.1578C28.7054 39.0183 31.4929 39.9653 33.6033 41.7904C35.7136 43.6154 36.974 46.1692 37.107 48.8897ZM26.9522 49.4496C26.9522 49.1738 26.8426 48.9094 26.6476 48.7144C26.4526 48.5194 26.1882 48.4097 25.9124 48.4097C25.6366 48.4097 25.3721 48.5194 25.1772 48.7144C24.9822 48.9094 24.8726 49.1738 24.8726 49.4496C24.8726 49.7254 24.9822 49.9899 25.1772 50.1849C25.3721 50.3799 25.6366 50.4894 25.9124 50.4894C26.1882 50.4894 26.4526 50.3799 26.6476 50.1849C26.8426 49.9899 26.9522 49.7254 26.9522 49.4496Z" fill="white"/>
<path d="M59.8835 49.7148C60.0868 52.0863 59.3396 54.4414 57.8065 56.2621C56.2733 58.0827 54.0798 59.2199 51.7083 59.4232L48.6174 59.6882C47.4431 59.7888 46.2605 59.6573 45.1372 59.3009C44.0138 58.9446 42.9716 58.3704 42.07 57.6112C41.1685 56.8521 40.4254 55.9228 39.883 54.8765C39.3406 53.8301 39.0097 52.6873 38.909 51.513L38.7489 49.6448C38.5456 47.2733 39.2927 44.9182 40.8259 43.0975C42.359 41.2769 44.5526 40.1398 46.9241 39.9365L50.0149 39.6715C51.1892 39.5708 52.3718 39.7024 53.4952 40.0588C54.6186 40.4151 55.6608 40.9893 56.5623 41.7484C57.4638 42.5075 58.2069 43.4368 58.7493 44.4831C59.2917 45.5295 59.6226 46.6724 59.7233 47.8466L59.8835 49.7148ZM49.9469 49.6543C49.9469 49.3808 49.8382 49.1185 49.6448 48.9251C49.4514 48.7317 49.1891 48.6229 48.9156 48.6229C48.6421 48.6229 48.3798 48.7317 48.1864 48.9251C47.993 49.1185 47.8843 49.3808 47.8843 49.6543C47.8843 49.9278 47.993 50.1901 48.1864 50.3835C48.3798 50.5769 48.6421 50.6855 48.9156 50.6855C49.1891 50.6855 49.4514 50.5769 49.6448 50.3835C49.8382 50.1901 49.9469 49.9278 49.9469 49.6543Z" fill="white"/>
<path d="M25.9124 50.4895C26.4867 50.4895 26.9523 50.024 26.9523 49.4498C26.9523 48.8755 26.4867 48.4099 25.9124 48.4099C25.3382 48.4099 24.8727 48.8755 24.8727 49.4498C24.8727 50.024 25.3382 50.4895 25.9124 50.4895Z" fill="black"/>
<path d="M48.9155 50.6855C49.4851 50.6855 49.9468 50.2238 49.9468 49.6543C49.9468 49.0847 49.4851 48.6229 48.9155 48.6229C48.346 48.6229 47.8843 49.0847 47.8843 49.6543C47.8843 50.2238 48.346 50.6855 48.9155 50.6855Z" fill="black"/>
<path d="M29.7051 67.1519L7.74174 89.7628C7.46333 90.0526 7.17924 90.0583 6.88946 89.7799L1.13655 84.1378C1.06178 84.0647 1.00223 83.9775 0.961297 83.8812C0.920369 83.785 0.898886 83.6816 0.898094 83.577C0.897302 83.4725 0.917203 83.3688 0.956668 83.272C0.996133 83.1751 1.05441 83.0871 1.12807 83.0128L1.29849 82.8423C1.38622 82.7505 1.49143 82.6771 1.6079 82.6264C1.72436 82.5758 1.84977 82.5488 1.97676 82.5473C2.10376 82.5457 2.22976 82.5694 2.34745 82.6172C2.46515 82.6649 2.57216 82.7356 2.66217 82.8252L6.83833 86.9504C6.89605 87.0083 6.96479 87.0541 7.04047 87.0851C7.11616 87.1161 7.1973 87.1317 7.27908 87.1309C7.36087 87.1301 7.44164 87.113 7.51671 87.0805C7.59178 87.0481 7.65962 87.0009 7.7162 86.9418L26.7818 67.1519H29.7051Z" fill="black"/>
<path d="M43.8786 67.5949L63.6771 88.0242C64.035 88.3878 64.393 88.3907 64.751 88.0327L68.7226 84.1121C69.1942 83.6519 69.697 83.6121 70.2311 83.9928C70.4243 84.1349 70.5493 84.3593 70.6061 84.6661C70.632 84.7972 70.6246 84.9329 70.5844 85.0609C70.5442 85.1889 70.4726 85.3051 70.3761 85.3991L64.5635 91.0241C64.3192 91.2571 64.0805 91.2544 63.8475 91.0157L41.0149 67.5353C41.9751 67.2853 42.9297 67.3051 43.8786 67.5949Z" fill="black"/>
</svg>
