<svg width="73" height="101" viewBox="0 0 73 101" fill="none" xmlns="http://www.w3.org/2000/svg">
<path d="M8.3635 13.0039L7.11841 14.4281" stroke="black" stroke-width="1.70457"/>
<path d="M7.11833 14.4272C4.7433 19.8478 2.97911 25.8734 1.82568 32.5041" stroke="#A5280E" stroke-width="1.70457"/>
<path d="M1.82604 32.504C1.35444 35.6291 1.3459 38.8678 1.80045 42.2201" stroke="black" stroke-width="1.70457"/>
<path d="M1.80042 42.22L2.38849 44.1121" stroke="#A5280E" stroke-width="1.70457"/>
<path d="M2.38843 44.1123L2.70396 45.0589" stroke="black" stroke-width="1.70457"/>
<path d="M2.70386 45.0582C6.53913 52.9163 11.5108 59.2885 17.6188 64.1749C20.3973 66.4022 24.0592 67.6863 28.6047 68.0272" stroke="#A5280E" stroke-width="1.70457"/>
<path d="M28.6045 68.027L12.1298 90.5785C12.0411 90.6998 11.9082 90.7812 11.7598 90.8052C11.6114 90.8291 11.4595 90.7935 11.3372 90.7062L6.50476 87.1948C6.05589 86.8653 5.67803 86.9334 5.37121 87.3994L5.20928 87.6465C5.08045 87.8409 5.03249 88.0781 5.07538 88.3084C5.11827 88.5388 5.2487 88.7443 5.43941 88.8823L12.0275 93.6637C12.1923 93.783 12.3344 93.7602 12.4537 93.5955L31.0676 68.206" stroke="black" stroke-width="1.70457"/>
<path d="M31.0676 68.206L40.3745 67.6349" stroke="#A5280E" stroke-width="1.70457"/>
<path d="M40.3749 67.6352L46.6307 76.55C46.7994 76.7915 46.9155 77.065 46.9713 77.3529C47.0271 77.6407 47.0214 77.9365 46.9545 78.2206L42.3522 97.4054C42.3374 97.4721 42.3363 97.5412 42.3491 97.6083C42.3619 97.6755 42.3882 97.7394 42.4265 97.796C42.4648 97.8527 42.5142 97.9008 42.5718 97.9377C42.6294 97.9746 42.6938 97.9994 42.7613 98.0106L51.0369 99.4168C51.6449 99.5191 52.0739 99.2918 52.3239 98.735L52.4517 98.4538C52.492 98.3633 52.5114 98.2648 52.5083 98.1659C52.5051 98.0669 52.4797 97.97 52.4338 97.8823C52.3879 97.7945 52.3227 97.7184 52.2431 97.6594C52.1636 97.6005 52.0717 97.5602 51.9744 97.5418L45.1903 96.2975C45.1341 96.2872 45.0806 96.2658 45.033 96.2345C44.9855 96.2033 44.9449 96.1628 44.9138 96.1157C44.8826 96.0686 44.8616 96.0158 44.852 95.9606C44.8424 95.9053 44.8444 95.8489 44.8579 95.7946L49.2216 77.6324C49.3239 77.212 49.2528 76.8256 49.0085 76.4733L42.659 67.4136" stroke="black" stroke-width="1.70457"/>
<path d="M42.6587 67.4134C47.2724 66.6122 51.7725 65.0213 56.1589 62.6406" stroke="#A5280E" stroke-width="1.70457"/>
<path d="M56.1588 62.641C56.4088 62.6523 56.9969 62.3341 57.923 61.6864" stroke="black" stroke-width="1.70457"/>
<path d="M57.9232 61.6861C61.8835 59.5326 65.3977 56.4701 68.466 52.4984C69.1478 51.6121 69.7529 50.1234 70.2813 48.0325" stroke="#A5280E" stroke-width="1.70457"/>
<path d="M70.2814 48.0325C71.3496 43.8051 71.9291 39.5665 72.02 35.3164" stroke="#A5280E" stroke-width="1.70457"/>
<path d="M72.02 35.3172L72.0371 32.7854" stroke="#A5280E" stroke-width="1.70457"/>
<path d="M72.0371 32.7857L72.0541 32.0438" stroke="black" stroke-width="1.70457"/>
<path d="M72.0542 32.0438C71.8496 27.1233 70.5598 22.3647 68.1848 17.7681" stroke="#A5280E" stroke-width="1.70457"/>
<path d="M68.1853 17.7689C67.992 17.2345 67.6907 16.7257 67.2814 16.2424" stroke="black" stroke-width="1.70457"/>
<path d="M67.2815 16.2425C64.5428 11.1516 60.5598 7.28786 55.3325 4.65147C50.7131 2.33326 46.7954 1.10597 43.5795 0.9696C39.5567 0.799143 35.5425 0.881564 31.5367 1.2168C25.6219 1.71112 19.0849 5.04352 14.4059 7.79639C12.0536 9.18277 10.0393 10.9186 8.36316 13.0038" stroke="#A5280E" stroke-width="1.70457"/>
<path d="M67.2814 16.2424C66.7075 16.6685 66.1506 16.8077 65.6109 16.66C63.1563 15.9697 60.3182 16.0464 57.8636 16.1145C57.25 16.1316 57.1932 16.3191 57.6932 16.677C58.142 17.0009 58.6222 17.1117 59.1335 17.0094C61.0256 16.6174 62.8893 16.66 64.7245 17.1373C65.3325 17.2964 65.3268 17.4299 64.7075 17.5378L59.1676 18.4754C58.6392 18.5663 58.608 18.7367 59.0739 18.9867C59.5227 19.2311 60.071 19.2793 60.7188 19.1316C63.0768 18.5975 65.4632 18.2509 67.878 18.0918C67.9575 18.0862 68.02 18.0492 68.0654 17.981C68.0995 17.9242 68.1393 17.8532 68.1848 17.768" stroke="black" stroke-width="1.70457"/>
<path d="M72.054 32.0437L56.8493 32.1204C56.5653 32.1204 56.2925 32.0693 56.0311 31.967L55.5283 31.7625" stroke="black" stroke-width="1.70457"/>
<path d="M55.5283 31.7624C57.2272 30.5976 58.2755 28.9045 58.6732 26.6829" stroke="#A5280E" stroke-width="1.70457"/>
<path d="M58.6732 26.6829L70.3154 27.0834C70.4802 27.0891 70.5455 27.0124 70.5114 26.8533L70.4432 26.555C70.4262 26.4584 70.3665 26.4073 70.2642 26.4016L58.7244 25.9243" stroke="black" stroke-width="1.70457"/>
<path d="M58.7245 25.9245C59.3495 22.0494 58.2528 18.788 55.4346 16.1403C54.196 14.9812 52.8409 14.3107 51.3693 14.1289C49.0226 13.8391 46.676 13.9755 44.3294 14.538C41.4259 15.2312 39.497 17.0749 38.5424 20.0693C37.3947 23.6716 37.5481 26.7341 39.0026 29.2569C39.1435 29.5013 39.3385 29.711 39.5731 29.8703C39.8077 30.0297 40.0758 30.1346 40.3577 30.1774L47.3038 31.2001" stroke="#A5280E" stroke-width="1.70457"/>
<path d="M47.3038 31.1998C39.2753 32.4214 31.1729 32.5862 22.9967 31.6942" stroke="black" stroke-width="1.70457"/>
<path d="M22.9967 31.6944C26.2127 30.6944 29.3803 30.1859 32.4997 30.1688C33.9486 30.1631 34.8633 29.4359 35.244 27.987C36.8293 22.021 35.3292 16.1317 29.0224 13.9669" stroke="#A5280E" stroke-width="1.70457"/>
<path d="M29.0225 13.9669L61.3411 11.3334C61.4067 11.3292 61.4684 11.3006 61.5141 11.2534C61.5598 11.2061 61.5863 11.1435 61.5882 11.0777L61.5968 10.7879C61.598 10.7585 61.5931 10.7292 61.5824 10.7017C61.5717 10.6743 61.5553 10.6494 61.5345 10.6286C61.5137 10.6077 61.4888 10.5915 61.4614 10.5807C61.4339 10.57 61.4046 10.5651 61.3752 10.5663C58.5342 10.6573 55.7501 10.8647 53.0228 11.1885C46.0739 12.0124 39.2982 12.5067 32.6958 12.6715C31.5623 12.6971 30.514 13.2766 29.3975 13.1573C26.8236 12.8846 24.4088 12.913 22.1531 13.2425C19.4769 13.6232 17.403 13.7993 15.9314 13.7709C13.9485 13.7255 11.8717 13.7454 9.70125 13.8306C9.29784 13.8476 8.8518 13.572 8.36316 13.0039" stroke="black" stroke-width="1.70457"/>
<path d="M29.0222 13.967C25.2437 13.2113 21.8176 13.7 18.7437 15.433" stroke="black" stroke-width="1.70457"/>
<path d="M18.7436 15.4329L7.11841 14.4272" stroke="black" stroke-width="1.70457"/>
<path d="M72.037 32.7853L54.9658 32.9046C54.7726 32.9046 54.6078 32.8393 54.4715 32.7086L54.2499 32.504" stroke="black" stroke-width="1.70457"/>
<path d="M52.9374 32.4783C51.9403 33.2112 49.767 32.7595 48.0539 32.8021C32.9514 33.1942 17.8944 33.4215 2.88289 33.484C2.72947 33.484 2.64426 33.5578 2.62721 33.7056L2.38002 35.9556C2.37506 35.9973 2.37896 36.0395 2.39141 36.0794C2.40385 36.1193 2.42456 36.1559 2.45211 36.1867C2.47967 36.2175 2.51342 36.2417 2.551 36.2577C2.58859 36.2737 2.62912 36.2811 2.66981 36.2794C26.9258 36.001 49.8664 35.4499 71.4917 34.626C71.6905 34.6204 71.8667 34.8505 72.0201 35.3164" stroke="black" stroke-width="1.70457"/>
<path d="M72.02 35.3164L3.07884 37.217C2.59588 37.234 2.35442 37.4869 2.35442 37.9755V38.9215C2.35442 39.4329 2.61013 39.7057 3.1215 39.7398C6.84881 39.9898 10.6528 40.217 14.5335 40.4216C18.4768 40.6318 22.2013 40.6545 25.707 40.4897C34.2639 40.0806 42.7356 39.8164 51.1988 39.0153C57.4886 38.4187 63.8921 37.7766 70.4092 37.0891C70.6024 37.0721 70.699 37.1601 70.699 37.3533L70.6905 37.6005C70.691 37.7097 70.6504 37.8153 70.5764 37.8971C70.5025 37.9789 70.4005 38.0311 70.2899 38.0437C63.0796 38.771 56.1988 39.4499 49.6476 40.0806C44.1078 40.6091 38.9088 40.4216 33.4968 41.1716C33.4334 41.1813 33.3744 41.2092 33.3274 41.2517C33.2803 41.2942 33.2473 41.3493 33.2326 41.4102L33.1474 41.7767C33.1133 41.9017 33.1616 41.9642 33.2923 41.9642L70.3751 41.5551C70.4831 41.5494 70.5371 41.6006 70.5371 41.7085V41.9812C70.5371 42.2085 70.4234 42.325 70.1961 42.3307C58.5767 42.6091 47.1277 42.6915 35.8491 42.5778C34.3491 42.5693 33.0537 41.8875 31.5536 41.9812C27.6502 42.2199 23.9257 41.4869 20.0308 41.5721C14.008 41.7085 7.93117 41.9244 1.80042 42.2199" stroke="black" stroke-width="1.70457"/>
<path d="M22.9975 31.6942C21.0937 32.1943 19.5792 32.2881 18.454 31.9755" stroke="black" stroke-width="1.70457"/>
<path d="M18.4539 31.9754C16.4852 29.3589 14.0732 26.768 14.7124 23.3248C15.3516 19.9071 15.701 17.8957 18.7437 15.4326" stroke="#A5280E" stroke-width="1.70457"/>
<path d="M58.7244 25.9243L58.6732 26.6833" stroke="black" stroke-width="1.70457"/>
<path d="M55.5291 31.7625L54.2499 32.5044" stroke="black" stroke-width="1.70457"/>
<path d="M54.2507 32.5038L52.9374 32.4783" stroke="#A5280E" stroke-width="1.70457"/>
<path d="M52.9374 32.4783L47.3038 31.1998" stroke="black" stroke-width="1.70457"/>
<path d="M18.4537 31.9756L1.82568 32.504" stroke="black" stroke-width="1.70457"/>
<path d="M70.2813 48.0328C70.1563 47.8453 70.1222 47.7032 70.1791 47.6066C70.2137 47.5498 70.2323 47.4847 70.2328 47.4181C70.2333 47.3515 70.2157 47.2858 70.1819 47.2277C70.1481 47.1696 70.0992 47.1213 70.0403 47.0875C69.9814 47.0537 69.9146 47.0358 69.8466 47.0356C58.23 47.1464 46.9288 46.6095 35.7042 45.7317C28.0961 45.1351 20.7182 44.7884 13.5704 44.6918C9.89704 44.6407 6.147 44.172 2.38843 44.1123" stroke="black" stroke-width="1.70457"/>
<path d="M70.2814 48.0327L68.9944 48.4247C68.9268 48.4472 68.8577 48.4588 68.7899 48.4588C65.6365 48.5043 62.4915 48.5554 59.3551 48.6122C57.071 48.6576 53.946 48.8196 49.98 49.098C47.4743 49.2742 44.7754 49.402 41.8833 49.4815C39.3094 49.544 36.619 49.6832 33.8122 49.8991C25.5507 50.5355 17.2836 51.1634 9.01077 51.7828C8.6869 51.8055 8.47098 51.6634 8.36303 51.3566C8.34473 51.2997 8.33967 51.2394 8.34825 51.1803C8.35684 51.1211 8.37883 51.0647 8.41255 51.0154C8.44627 50.966 8.49083 50.925 8.54281 50.8955C8.59479 50.866 8.65284 50.8489 8.71249 50.8453C12.5563 50.6492 16.3233 50.2316 20.2268 50.0441C24.0962 49.8566 28.5621 49.5384 33.6247 49.0895C37.8975 48.7145 43.9856 48.51 51.8891 48.4759C52.8352 48.4674 54.1562 48.0668 55.0937 47.7515C55.1676 47.7231 55.1931 47.6719 55.1704 47.598C55.1306 47.4673 55.0511 47.4275 54.9318 47.4787C53.6363 48.0241 52.2556 47.4276 50.8749 47.4105C46.1476 47.3367 41.1361 47.0724 35.8406 46.6179C31.3178 46.2315 26.3093 45.9617 20.8149 45.8082C14.8432 45.6491 8.8062 45.3991 2.70386 45.0582" stroke="black" stroke-width="1.70457"/>
<path d="M57.9234 61.6863L16.2979 60.4079C16.1558 60.4022 16.0791 60.4733 16.0678 60.621L16.0507 60.9363C16.0337 61.1806 16.1473 61.3056 16.3916 61.3113L38.0311 62.0613C38.1106 62.067 38.1504 62.1068 38.1504 62.1806V62.3937C38.1504 62.5641 38.0652 62.6494 37.8948 62.6494C31.747 62.5301 25.6275 62.6494 19.5365 63.0073C19.474 63.013 19.4428 63.0471 19.4428 63.1096L19.4513 63.3397C19.457 63.567 19.5735 63.6806 19.8008 63.6806C27.994 63.6352 36.193 63.442 44.3977 63.101C44.4431 63.101 46.3039 62.9051 49.9801 62.513C51.9801 62.3028 54.0398 62.3454 56.1592 62.6409" stroke="black" stroke-width="1.70457"/>
<path d="M42.659 67.4136L40.3749 67.6352" stroke="black" stroke-width="1.70457"/>
<path d="M31.068 68.206L28.6049 68.027" stroke="black" stroke-width="1.70457"/>
<path d="M40.2697 15.7894C40.2707 15.7592 40.2658 15.7291 40.2552 15.7007C40.2447 15.6724 40.2286 15.6465 40.208 15.6244C40.1873 15.6023 40.1626 15.5845 40.1351 15.5719C40.1076 15.5594 40.0778 15.5524 40.0476 15.5513L34.7326 15.3657C34.6716 15.3636 34.6123 15.3858 34.5677 15.4274C34.523 15.4691 34.4968 15.5267 34.4947 15.5877L34.4798 16.0136C34.4787 16.0438 34.4836 16.0739 34.4942 16.1022C34.5048 16.1305 34.5208 16.1565 34.5415 16.1786C34.5621 16.2007 34.5868 16.2185 34.6143 16.231C34.6418 16.2436 34.6716 16.2506 34.7018 16.2516L40.0168 16.4372C40.0778 16.4393 40.1371 16.4172 40.1817 16.3755C40.2264 16.3339 40.2526 16.2763 40.2547 16.2153L40.2697 15.7894Z" stroke="black" stroke-width="1.70457"/>
<path d="M68.3548 20.9222C68.3561 20.816 68.3152 20.7136 68.241 20.6375C68.1668 20.5615 68.0654 20.5181 67.9592 20.5168L60.2892 20.4231C60.183 20.4218 60.0806 20.4627 60.0045 20.5369C59.9285 20.6111 59.885 20.7125 59.8837 20.8187L59.8833 20.8529C59.882 20.9591 59.923 21.0615 59.9971 21.1375C60.0713 21.2135 60.1727 21.2569 60.2789 21.2582L67.949 21.3519C68.0552 21.3532 68.1576 21.3123 68.2336 21.2381C68.3096 21.1639 68.3531 21.0625 68.3544 20.9563L68.3548 20.9222Z" stroke="black" stroke-width="1.70457"/>
<path d="M27.7693 23.6744C27.7693 23.2905 27.6936 22.9104 27.5467 22.5557C27.3998 22.201 27.1845 21.8788 26.913 21.6073C26.6416 21.3359 26.3193 21.1205 25.9646 20.9736C25.6099 20.8267 25.2298 20.7511 24.8459 20.7511C24.0706 20.7511 23.327 21.0591 22.7788 21.6073C22.2306 22.1556 21.9226 22.8991 21.9226 23.6744C21.9226 24.4497 22.2306 25.1933 22.7788 25.7415C23.327 26.2897 24.0706 26.5977 24.8459 26.5977C25.2298 26.5977 25.6099 26.5221 25.9646 26.3752C26.3193 26.2283 26.6416 26.013 26.913 25.7415C27.1845 25.4701 27.3998 25.1478 27.5467 24.7931C27.6936 24.4385 27.7693 24.0583 27.7693 23.6744Z" stroke="black" stroke-width="1.70457"/>
<path d="M50.8231 23.9173C50.8923 23.2586 50.697 22.5994 50.2802 22.0847C49.8634 21.57 49.2592 21.242 48.6005 21.1727L47.6682 21.0747C47.0095 21.0055 46.3503 21.2007 45.8356 21.6175C45.3209 22.0343 44.9928 22.6385 44.9236 23.2972L44.8755 23.755C44.8063 24.4136 45.0015 25.0728 45.4183 25.5875C45.8351 26.1022 46.4393 26.4303 47.098 26.4995L48.0304 26.5975C48.689 26.6667 49.3483 26.4715 49.863 26.0547C50.3776 25.6379 50.7057 25.0337 50.7749 24.375L50.8231 23.9173Z" stroke="black" stroke-width="1.70457"/>
<path d="M14.397 20.7204C14.3965 20.6566 14.28 20.5944 14.0542 20.5374C13.8284 20.4804 13.4977 20.4297 13.0811 20.3883C12.6644 20.3468 12.1699 20.3153 11.6258 20.2957C11.0817 20.276 10.4986 20.2685 9.90987 20.2737C9.32117 20.2788 8.73832 20.2965 8.19464 20.3256C7.65096 20.3548 7.1571 20.3949 6.74122 20.4436C6.32535 20.4924 5.99562 20.5488 5.77086 20.6097C5.5461 20.6706 5.4307 20.7348 5.43128 20.7986C5.43181 20.8624 5.54829 20.9245 5.77408 20.9815C5.99987 21.0385 6.33054 21.0892 6.74721 21.1306C7.16388 21.1721 7.65839 21.2036 8.2025 21.2233C8.74661 21.2429 9.32969 21.2504 9.9184 21.2453C10.5071 21.2401 11.09 21.2225 11.6336 21.1933C12.1773 21.1642 12.6712 21.1241 13.087 21.0753C13.5029 21.0266 13.8327 20.9701 14.0574 20.9092C14.2822 20.8483 14.3976 20.7842 14.397 20.7204Z" stroke="black" stroke-width="1.70457"/>
<path d="M14.3119 24.6546L14.3375 23.9387C14.3387 23.9152 14.3352 23.8917 14.3272 23.8695C14.3193 23.8474 14.307 23.827 14.2912 23.8096C14.2753 23.7922 14.2562 23.778 14.2349 23.768C14.2136 23.758 14.1906 23.7523 14.1671 23.7512L14.0051 23.7427C11.5714 23.6365 9.23435 23.568 7.49919 23.552C5.76403 23.5361 4.7701 23.5739 4.73228 23.6574L4.70674 24.0836C4.68717 24.1257 4.91205 24.1782 5.36832 24.238C5.8246 24.2978 6.50313 24.3637 7.36446 24.4319C8.22578 24.5001 9.25268 24.5693 10.3854 24.6353C11.5182 24.7014 12.7341 24.763 13.9625 24.8166L14.1245 24.8251C14.148 24.8262 14.1715 24.8227 14.1936 24.8148C14.2158 24.8068 14.2362 24.7946 14.2536 24.7788C14.271 24.7629 14.2851 24.7438 14.2951 24.7225C14.3052 24.7012 14.3108 24.6781 14.3119 24.6546Z" stroke="black" stroke-width="1.70457"/>
<path d="M67.2139 52.8803C67.2128 52.8193 67.1876 52.7612 67.1437 52.7188C67.0998 52.6764 67.0408 52.6533 66.9798 52.6543L10.5843 53.6387C10.5233 53.6398 10.4652 53.665 10.4228 53.7089C10.3804 53.7528 10.3571 53.8117 10.3582 53.8727L10.3647 54.2478C10.3658 54.3088 10.3911 54.3669 10.435 54.4093C10.4789 54.4516 10.5379 54.4748 10.5989 54.4738L66.9944 53.4893C67.0554 53.4883 67.1135 53.4631 67.1559 53.4192C67.1983 53.3753 67.2215 53.3164 67.2205 53.2554L67.2139 52.8803Z" stroke="black" stroke-width="1.70457"/>
<path d="M67.2815 16.2425C66.7076 16.6687 66.1508 16.8079 65.611 16.6602C63.1564 15.9698 60.3183 16.0465 57.8638 16.1147C57.2501 16.1317 57.1933 16.3192 57.6933 16.6772C58.1422 17.001 58.6223 17.1118 59.1337 17.0096C61.0257 16.6175 62.8894 16.6602 64.7246 17.1374C65.3326 17.2965 65.3269 17.43 64.7076 17.538L59.1677 18.4755C58.6393 18.5664 58.6081 18.7369 59.074 18.9869C59.5229 19.2312 60.0712 19.2795 60.7189 19.1317C63.0769 18.5976 65.4633 18.2511 67.8781 18.092C67.9576 18.0863 68.0201 18.0494 68.0656 17.9812C68.0997 17.9244 68.1394 17.8533 68.1849 17.7681C70.5599 22.3648 71.8497 27.1233 72.0542 32.0439L56.8495 32.1206C56.5655 32.1206 56.2927 32.0694 56.0313 31.9671L55.5285 31.7626C57.2274 30.5978 58.2757 28.9046 58.6734 26.683L70.3156 27.0836C70.4804 27.0892 70.5457 27.0125 70.5116 26.8534L70.4435 26.5551C70.4264 26.4586 70.3667 26.4074 70.2645 26.4017L58.7246 25.9245C59.3496 22.0494 58.2529 18.788 55.4347 16.1403C54.1961 14.9812 52.841 14.3107 51.3694 14.1289C49.0228 13.8391 46.6761 13.9755 44.3295 14.538C41.4261 15.2312 39.4971 17.0749 38.5425 20.0693C37.3948 23.6716 37.5482 26.7341 39.0027 29.2569C39.1436 29.5013 39.3386 29.711 39.5732 29.8703C39.8078 30.0297 40.076 30.1346 40.3578 30.1774L47.304 31.2001C39.2755 32.4217 31.1731 32.5865 22.9968 31.6944C26.2128 30.6944 29.3805 30.1859 32.4998 30.1688C33.9487 30.1631 34.8635 29.4359 35.2441 27.987C36.8294 22.021 35.3294 16.1317 29.0225 13.9669L61.3411 11.3334C61.4067 11.3292 61.4684 11.3006 61.5141 11.2533C61.5598 11.206 61.5863 11.1434 61.5882 11.0777L61.5968 10.7879C61.598 10.7585 61.5931 10.7291 61.5824 10.7017C61.5717 10.6743 61.5553 10.6494 61.5345 10.6285C61.5137 10.6077 61.4888 10.5914 61.4614 10.5807C61.4339 10.57 61.4046 10.5651 61.3752 10.5663C58.5342 10.6572 55.7501 10.8646 53.0228 11.1885C46.0739 12.0124 39.2982 12.5067 32.6958 12.6715C31.5623 12.697 30.514 13.2766 29.3975 13.1573C26.8236 12.8846 24.4088 12.9129 22.1531 13.2425C19.4769 13.6232 17.403 13.7993 15.9314 13.7709C13.9485 13.7255 11.8717 13.7453 9.70125 13.8306C9.29784 13.8476 8.8518 13.572 8.36316 13.0038C10.0393 10.9186 12.0536 9.18277 14.4059 7.79639C19.0849 5.04352 25.6219 1.71112 31.5367 1.2168C35.5425 0.881564 39.5567 0.799143 43.5795 0.9696C46.7954 1.10597 50.7131 2.33326 55.3325 4.65147C60.5598 7.28786 64.5428 11.1516 67.2815 16.2425ZM40.2698 15.7896C40.2709 15.7594 40.266 15.7292 40.2554 15.7009C40.2448 15.6726 40.2287 15.6466 40.2081 15.6245C40.1875 15.6024 40.1628 15.5846 40.1353 15.5721C40.1077 15.5595 40.078 15.5525 40.0478 15.5515L34.7328 15.3659C34.6718 15.3638 34.6125 15.3859 34.5678 15.4276C34.5232 15.4692 34.497 15.5268 34.4949 15.5878L34.4799 16.0137C34.4789 16.0439 34.4838 16.074 34.4943 16.1024C34.5049 16.1307 34.521 16.1566 34.5416 16.1787C34.5622 16.2008 34.587 16.2186 34.6145 16.2312C34.642 16.2437 34.6717 16.2507 34.7019 16.2518L40.017 16.4374C40.0779 16.4395 40.1373 16.4173 40.1819 16.3757C40.2265 16.334 40.2528 16.2764 40.2549 16.2154L40.2698 15.7896ZM68.3553 20.9221C68.3566 20.8159 68.3156 20.7135 68.2414 20.6375C68.1673 20.5615 68.0659 20.518 67.9597 20.5167L60.2896 20.4231C60.1834 20.4218 60.081 20.4627 60.005 20.5369C59.929 20.6111 59.8855 20.7125 59.8842 20.8187L59.8838 20.8528C59.8825 20.959 59.9234 21.0614 59.9976 21.1375C60.0718 21.2135 60.1732 21.2569 60.2794 21.2582L67.9494 21.3519C68.0556 21.3532 68.158 21.3122 68.2341 21.238C68.3101 21.1638 68.3535 21.0625 68.3548 20.9563L68.3553 20.9221Z" fill="#A5280E"/>
<path d="M29.0221 13.9669C25.2436 13.2112 21.8175 13.6999 18.7436 15.4329L7.11841 14.4272L8.36276 13.0039C8.8514 13.572 9.29744 13.8476 9.70085 13.8306C11.8713 13.7454 13.9481 13.7255 15.931 13.7709C17.4026 13.7993 19.4765 13.6232 22.1527 13.2425C24.4084 12.913 26.8232 12.8846 29.3971 13.1573C30.5136 13.2766 31.5619 12.6971 32.6954 12.6715C39.2978 12.5067 46.0735 12.0124 53.0224 11.1885C55.7497 10.8647 58.5338 10.6573 61.3748 10.5663C61.4042 10.5651 61.4335 10.57 61.461 10.5807C61.4884 10.5915 61.5133 10.6077 61.5341 10.6286C61.5549 10.6494 61.5713 10.6743 61.582 10.7017C61.5927 10.7292 61.5976 10.7585 61.5964 10.7879L61.5878 11.0777C61.5859 11.1435 61.5594 11.2061 61.5137 11.2534C61.468 11.3006 61.4063 11.3292 61.3407 11.3334L29.0221 13.9669Z" fill="black"/>
<path d="M29.0222 13.967C35.3291 16.1318 36.8291 22.0211 35.2439 27.9871C34.8632 29.4359 33.9484 30.1632 32.4995 30.1689C29.3802 30.186 26.2125 30.6945 22.9966 31.6945C21.0931 32.1945 19.579 32.2882 18.4539 31.9757C16.4852 29.3592 14.0732 26.7683 14.7124 23.3251C15.3516 19.9074 15.701 17.896 18.7437 15.433C21.8176 13.7 25.2438 13.2113 29.0222 13.967ZM27.7694 23.6745C27.7694 23.2906 27.6938 22.9105 27.5468 22.5558C27.3999 22.2011 27.1846 21.8789 26.9132 21.6074C26.6417 21.336 26.3194 21.1206 25.9647 20.9737C25.6101 20.8268 25.23 20.7512 24.8461 20.7512C24.0707 20.7512 23.3272 21.0592 22.7789 21.6074C22.2307 22.1557 21.9227 22.8992 21.9227 23.6745C21.9227 24.4498 22.2307 25.1934 22.7789 25.7416C23.3272 26.2898 24.0707 26.5978 24.8461 26.5978C25.23 26.5978 25.6101 26.5222 25.9647 26.3753C26.3194 26.2284 26.6417 26.0131 26.9132 25.7416C27.1846 25.4701 27.3999 25.1479 27.5468 24.7932C27.6938 24.4386 27.7694 24.0584 27.7694 23.6745Z" fill="white"/>
<path d="M58.7245 25.9245L58.6733 26.683C58.2756 28.9046 57.2273 30.5978 55.5284 31.7626L54.25 32.5041L52.9374 32.4785L47.3038 31.2001L40.3577 30.1774C40.0758 30.1346 39.8077 30.0297 39.5731 29.8703C39.3385 29.711 39.1435 29.5013 39.0026 29.2569C37.5481 26.7341 37.3947 23.6716 38.5424 20.0693C39.497 17.0749 41.4259 15.2312 44.3294 14.538C46.676 13.9755 49.0226 13.8391 51.3693 14.1289C52.8409 14.3107 54.196 14.9812 55.4346 16.1403C58.2528 18.788 59.3495 22.0494 58.7245 25.9245ZM50.8231 23.9175C50.8923 23.2589 50.6971 22.5996 50.2803 22.0849C49.8635 21.5702 49.2592 21.2422 48.6006 21.173L47.6682 21.075C47.0095 21.0058 46.3504 21.201 45.8357 21.6178C45.321 22.0346 44.9929 22.6388 44.9237 23.2975L44.8755 23.7552C44.8063 24.4139 45.0016 25.0731 45.4184 25.5878C45.8352 26.1025 46.4393 26.4305 47.098 26.4998L48.0304 26.5978C48.6891 26.667 49.3483 26.4717 49.863 26.0549C50.3777 25.6381 50.7057 25.034 50.7749 24.3753L50.8231 23.9175Z" fill="white"/>
<path d="M7.11833 14.4272L18.7435 15.4329C15.7008 17.896 15.3514 19.9074 14.7122 23.3251C14.073 26.7683 16.485 29.3592 18.4537 31.9757L1.82568 32.5041C2.97911 25.8734 4.7433 19.8478 7.11833 14.4272ZM14.3967 20.7206C14.3962 20.6568 14.2797 20.5946 14.0539 20.5376C13.8281 20.4807 13.4974 20.43 13.0808 20.3885C12.6641 20.347 12.1696 20.3156 11.6255 20.2959C11.0814 20.2762 10.4983 20.2688 9.90957 20.2739C9.32087 20.279 8.73802 20.2967 8.19434 20.3259C7.65067 20.355 7.1568 20.3951 6.74093 20.4438C6.32505 20.4926 5.99532 20.549 5.77056 20.6099C5.5458 20.6708 5.4304 20.735 5.43098 20.7988C5.43151 20.8626 5.548 20.9247 5.77379 20.9817C5.99958 21.0387 6.33024 21.0894 6.74691 21.1309C7.16358 21.1723 7.65809 21.2038 8.2022 21.2235C8.74631 21.2432 9.32939 21.2506 9.91811 21.2455C10.5068 21.2404 11.0897 21.2227 11.6333 21.1935C12.177 21.1644 12.6709 21.1243 13.0868 21.0756C13.5026 21.0268 13.8324 20.9704 14.0571 20.9095C14.2819 20.8486 14.3973 20.7844 14.3967 20.7206ZM14.3116 24.6546L14.3372 23.9387C14.3383 23.9152 14.3348 23.8917 14.3269 23.8695C14.3189 23.8474 14.3067 23.827 14.2908 23.8096C14.275 23.7922 14.2559 23.778 14.2346 23.768C14.2133 23.758 14.1902 23.7523 14.1667 23.7512L14.0048 23.7427C11.571 23.6365 9.23401 23.568 7.49885 23.552C5.76369 23.5361 4.76977 23.5739 4.73195 23.6574L4.7064 24.0836C4.68683 24.1257 4.91171 24.1782 5.36798 24.238C5.82426 24.2978 6.50279 24.3637 7.36412 24.4319C8.22544 24.5002 9.25235 24.5693 10.3851 24.6353C11.5178 24.7014 12.7338 24.763 13.9622 24.8166L14.1241 24.8251C14.1476 24.8263 14.1712 24.8227 14.1933 24.8148C14.2155 24.8068 14.2358 24.7946 14.2532 24.7788C14.2706 24.7629 14.2848 24.7438 14.2948 24.7225C14.3048 24.7012 14.3105 24.6782 14.3116 24.6546Z" fill="#A5280E"/>
<path d="M40.0475 15.5513L34.7325 15.3657C34.6055 15.3613 34.499 15.4606 34.4945 15.5876L34.4797 16.0135C34.4752 16.1405 34.5746 16.2471 34.7016 16.2515L40.0166 16.4371C40.1436 16.4416 40.2502 16.3422 40.2546 16.2152L40.2695 15.7893C40.2739 15.6623 40.1746 15.5557 40.0475 15.5513Z" fill="black"/>
<path d="M67.2814 16.2424C67.6905 16.7254 67.9916 17.2339 68.1848 17.768C68.1393 17.8532 68.0995 17.9242 68.0654 17.981C68.02 18.0492 67.9575 18.0862 67.878 18.0918C65.4632 18.2509 63.0768 18.5975 60.7188 19.1316C60.071 19.2793 59.5227 19.2311 59.0739 18.9867C58.608 18.7367 58.6392 18.5663 59.1676 18.4754L64.7075 17.5378C65.3268 17.4299 65.3325 17.2964 64.7245 17.1373C62.8893 16.66 61.0256 16.6174 59.1335 17.0094C58.6222 17.1117 58.142 17.0009 57.6932 16.677C57.1932 16.3191 57.25 16.1316 57.8636 16.1145C60.3182 16.0464 63.1563 15.9697 65.6109 16.66C66.1506 16.8077 66.7075 16.6685 67.2814 16.2424Z" fill="black"/>
<path d="M9.91844 21.2453C12.3942 21.2237 14.3994 20.9887 14.397 20.7204C14.3947 20.4521 12.3858 20.2521 9.90996 20.2737C7.43416 20.2954 5.42902 20.5304 5.43136 20.7986C5.4337 21.0669 7.44264 21.2669 9.91844 21.2453Z" fill="black"/>
<path d="M67.9593 20.5167L60.2893 20.423C60.0681 20.4203 59.8866 20.5974 59.8839 20.8186L59.8835 20.8527C59.8808 21.0739 60.0579 21.2555 60.2791 21.2582L67.9491 21.3519C68.1703 21.3546 68.3518 21.1774 68.3545 20.9562L68.355 20.9221C68.3577 20.7009 68.1805 20.5194 67.9593 20.5167Z" fill="black"/>
<path d="M24.8459 26.5977C26.4604 26.5977 27.7693 25.2889 27.7693 23.6744C27.7693 22.0599 26.4604 20.7511 24.8459 20.7511C23.2314 20.7511 21.9226 22.0599 21.9226 23.6744C21.9226 25.2889 23.2314 26.5977 24.8459 26.5977Z" fill="black"/>
<path d="M48.6007 21.1729L47.6683 21.0749C46.2967 20.9307 45.0679 21.9257 44.9238 23.2974L44.8757 23.7551C44.7315 25.1267 45.7266 26.3554 47.0982 26.4996L48.0305 26.5976C49.4021 26.7418 50.6309 25.7467 50.7751 24.3751L50.8232 23.9174C50.9673 22.5458 49.9723 21.317 48.6007 21.1729Z" fill="black"/>
<path d="M14.3119 24.6546C14.3108 24.6781 14.3052 24.7012 14.2951 24.7225C14.2851 24.7438 14.271 24.7629 14.2536 24.7788C14.2362 24.7946 14.2158 24.8068 14.1936 24.8148C14.1715 24.8227 14.148 24.8262 14.1245 24.8251L13.9625 24.8166C12.7341 24.763 11.5182 24.7014 10.3854 24.6353C9.25268 24.5693 8.22578 24.5001 7.36446 24.4319C6.50313 24.3637 5.8246 24.2978 5.36832 24.238C4.91205 24.1782 4.68717 24.1257 4.70674 24.0836L4.73228 23.6574C4.7701 23.5739 5.76402 23.5361 7.49919 23.552C9.23435 23.568 11.5714 23.6365 14.0051 23.7427L14.1671 23.7512C14.1906 23.7523 14.2136 23.758 14.2349 23.768C14.2562 23.778 14.2753 23.7922 14.2912 23.8096C14.307 23.827 14.3193 23.8474 14.3272 23.8695C14.3352 23.8917 14.3387 23.9152 14.3375 23.9387L14.3119 24.6546Z" fill="black"/>
<path d="M58.7244 25.9243L70.2642 26.4016C70.3665 26.4073 70.4262 26.4584 70.4432 26.555L70.5114 26.8533C70.5455 27.0124 70.4802 27.0891 70.3154 27.0834L58.6732 26.6829L58.7244 25.9243Z" fill="black"/>
<path d="M47.3038 31.1998L52.9374 32.4783C51.9403 33.2112 49.7669 32.7595 48.0539 32.8021C32.9514 33.1942 17.8944 33.4214 2.88286 33.4839C2.72945 33.4839 2.64423 33.5578 2.62719 33.7055L2.37999 35.9556C2.37504 35.9972 2.37894 36.0394 2.39139 36.0793C2.40383 36.1192 2.42454 36.1559 2.45209 36.1867C2.47965 36.2174 2.5134 36.2417 2.55098 36.2577C2.58856 36.2737 2.6291 36.2811 2.66979 36.2794C26.9258 36.001 49.8664 35.4499 71.4916 34.626C71.6905 34.6203 71.8666 34.8505 72.0201 35.3164L3.07887 37.2169C2.59591 37.234 2.35445 37.4868 2.35445 37.9755V38.9215C2.35445 39.4329 2.61016 39.7056 3.12153 39.7397C6.84884 39.9897 10.6528 40.217 14.5336 40.4215C18.4768 40.6318 22.2013 40.6545 25.707 40.4897C34.2639 40.0806 42.7356 39.8164 51.1988 39.0152C57.4886 38.4187 63.8921 37.7766 70.4092 37.0891C70.6024 37.072 70.699 37.1601 70.699 37.3533L70.6905 37.6005C70.691 37.7097 70.6504 37.8153 70.5765 37.8971C70.5025 37.9789 70.4005 38.0311 70.2899 38.0436C63.0796 38.7709 56.1988 39.4499 49.6476 40.0806C44.1078 40.609 38.9088 40.4215 33.4969 41.1715C33.4334 41.1813 33.3745 41.2092 33.3274 41.2517C33.2804 41.2942 33.2474 41.3493 33.2326 41.4102L33.1474 41.7766C33.1133 41.9016 33.1616 41.9642 33.2923 41.9642L70.3752 41.555C70.4831 41.5494 70.5371 41.6005 70.5371 41.7085V41.9812C70.5371 42.2085 70.4234 42.325 70.1962 42.3306C58.5767 42.6091 47.1277 42.6914 35.8492 42.5778C34.3491 42.5693 33.0537 41.8874 31.5537 41.9812C27.6502 42.2198 23.9257 41.4869 20.0308 41.5721C14.008 41.7085 7.9312 41.9244 1.80045 42.2198C1.3459 38.8675 1.35444 35.6288 1.82604 32.5038L18.4541 31.9754C19.5791 32.2879 21.0933 32.1942 22.9967 31.6942C31.173 32.5862 39.2753 32.4214 47.3038 31.1998Z" fill="black"/>
<path d="M55.5283 31.7625L56.0311 31.967C56.2925 32.0693 56.5652 32.1204 56.8493 32.1204L72.054 32.0437L72.037 32.7852L54.9658 32.9045C54.7726 32.9045 54.6078 32.8392 54.4715 32.7085L54.2499 32.5039L55.5283 31.7625Z" fill="black"/>
<path d="M52.9375 32.4783L54.25 32.5038L54.4716 32.7084C54.608 32.8391 54.7727 32.9044 54.9659 32.9044L72.0371 32.7851L72.0201 35.3164C71.8667 34.8505 71.6905 34.6204 71.4917 34.626C49.8664 35.4499 26.9258 36.001 2.66981 36.2794C2.62912 36.2811 2.58859 36.2737 2.551 36.2577C2.51342 36.2417 2.47967 36.2175 2.45211 36.1867C2.42456 36.1559 2.40385 36.1193 2.39141 36.0794C2.37896 36.0395 2.37506 35.9973 2.38002 35.9556L2.62721 33.7056C2.64426 33.5578 2.72947 33.484 2.88289 33.484C17.8944 33.4215 32.9514 33.1942 48.0539 32.8021C49.767 32.7595 51.9403 33.2112 52.9375 32.4783Z" fill="#A5280E"/>
<path d="M72.02 35.3164C71.9291 39.5665 71.3496 43.8051 70.2814 48.0325C70.1564 47.845 70.1223 47.7029 70.1791 47.6063C70.2138 47.5494 70.2323 47.4844 70.2328 47.4178C70.2334 47.3512 70.2158 47.2855 70.182 47.2274C70.1481 47.1693 70.0993 47.1209 70.0404 47.0872C69.9815 47.0534 69.9146 47.0354 69.8467 47.0352C58.2301 47.146 46.9288 46.6092 35.7043 45.7313C28.0962 45.1347 20.7183 44.7881 13.5704 44.6915C9.8971 44.6403 6.14706 44.1716 2.38849 44.112L1.80042 42.2199C7.93117 41.9244 14.008 41.7085 20.0308 41.5721C23.9257 41.4869 27.6502 42.2199 31.5536 41.9812C33.0537 41.8875 34.3491 42.5693 35.8491 42.5778C47.1277 42.6915 58.5767 42.6091 70.1961 42.3307C70.4234 42.325 70.5371 42.2085 70.5371 41.9812V41.7085C70.5371 41.6006 70.4831 41.5494 70.3751 41.5551L33.2923 41.9642C33.1616 41.9642 33.1133 41.9017 33.1474 41.7767L33.2326 41.4102C33.2473 41.3493 33.2803 41.2942 33.3274 41.2517C33.3744 41.2092 33.4334 41.1813 33.4968 41.1716C38.9088 40.4216 44.1078 40.6091 49.6476 40.0806C56.1988 39.4499 63.0796 38.771 70.2899 38.0437C70.4005 38.0311 70.5025 37.9789 70.5764 37.8971C70.6504 37.8153 70.691 37.7097 70.6905 37.6005L70.699 37.3533C70.699 37.1601 70.6024 37.0721 70.4092 37.0891C63.8921 37.7766 57.4886 38.4187 51.1988 39.0153C42.7356 39.8164 34.2639 40.0806 25.707 40.4897C22.2013 40.6545 18.4768 40.6318 14.5335 40.4216C10.6528 40.217 6.84881 39.9898 3.1215 39.7398C2.61013 39.7057 2.35442 39.4329 2.35442 38.9215V37.9755C2.35442 37.4869 2.59588 37.234 3.07884 37.217L72.02 35.3164Z" fill="#A5280E"/>
<path d="M70.2813 48.0328L68.9944 48.4248C68.9267 48.4473 68.8576 48.4589 68.7898 48.4589C65.6364 48.5044 62.4914 48.5555 59.355 48.6123C57.0709 48.6577 53.9459 48.8197 49.9799 49.0981C47.4742 49.2743 44.7753 49.4021 41.8832 49.4816C39.3093 49.5441 36.6189 49.6833 33.8121 49.8992C25.5506 50.5356 17.2835 51.1635 9.01068 51.7829C8.68682 51.8056 8.4709 51.6635 8.36294 51.3567C8.34464 51.2998 8.33958 51.2395 8.34817 51.1804C8.35675 51.1212 8.37875 51.0648 8.41246 51.0155C8.44618 50.9661 8.49074 50.9251 8.54272 50.8956C8.5947 50.8661 8.65275 50.849 8.71241 50.8454C12.5562 50.6493 16.3232 50.2317 20.2267 50.0442C24.0961 49.8567 28.5621 49.5385 33.6246 49.0896C37.8974 48.7146 43.9855 48.5101 51.889 48.476C52.8351 48.4675 54.1561 48.0669 55.0936 47.7516C55.1675 47.7232 55.193 47.672 55.1703 47.5981C55.1305 47.4674 55.051 47.4276 54.9317 47.4788C53.6362 48.0242 52.2555 47.4277 50.8748 47.4106C46.1475 47.3368 41.1361 47.0725 35.8405 46.618C31.3178 46.2316 26.3092 45.9618 20.8148 45.8083C14.8431 45.6492 8.80611 45.3992 2.70377 45.0583L2.38843 44.1123C6.147 44.172 9.89704 44.6407 13.5704 44.6918C20.7182 44.7884 28.0961 45.1351 35.7042 45.7317C46.9288 46.6095 58.23 47.1464 69.8466 47.0356C69.9146 47.0358 69.9814 47.0537 70.0403 47.0875C70.0992 47.1213 70.1481 47.1696 70.1819 47.2277C70.2157 47.2858 70.2333 47.3515 70.2328 47.4181C70.2323 47.4847 70.2137 47.5498 70.1791 47.6066C70.1222 47.7032 70.1563 47.8453 70.2813 48.0328Z" fill="black"/>
<path d="M70.2814 48.0327C69.753 50.1236 69.1479 51.6123 68.466 52.4986C65.3978 56.4703 61.8836 59.5328 57.9233 61.6863L16.2978 60.4079C16.1557 60.4022 16.079 60.4732 16.0676 60.6209L16.0506 60.9363C16.0336 61.1806 16.1472 61.3055 16.3915 61.3112L38.031 62.0612C38.1105 62.0669 38.1503 62.1067 38.1503 62.1806V62.3936C38.1503 62.5641 38.0651 62.6494 37.8946 62.6494C31.7469 62.53 25.6274 62.6493 19.5364 63.0073C19.4739 63.0129 19.4427 63.047 19.4427 63.1095L19.4512 63.3397C19.4569 63.5669 19.5734 63.6806 19.8006 63.6806C27.9939 63.6351 36.1929 63.4419 44.3976 63.101C44.443 63.101 46.3038 62.905 49.98 62.513C51.98 62.3027 54.0397 62.3454 56.1591 62.6408C51.7727 65.0215 47.2726 66.6124 42.6589 67.4136L40.3748 67.6352L31.0679 68.2063L28.6047 68.0272C24.0592 67.6863 20.3972 66.4022 17.6188 64.1749C11.5108 59.2885 6.53913 52.9163 2.70386 45.0582C8.8062 45.3991 14.8432 45.6491 20.8149 45.8082C26.3093 45.9617 31.3178 46.2315 35.8406 46.6179C41.1361 47.0724 46.1476 47.3367 50.8749 47.4105C52.2556 47.4276 53.6363 48.0241 54.9318 47.4787C55.0511 47.4275 55.1306 47.4673 55.1704 47.598C55.1931 47.6719 55.1676 47.7231 55.0937 47.7515C54.1562 48.0668 52.8352 48.4674 51.8891 48.4759C43.9856 48.51 37.8975 48.7145 33.6247 49.0895C28.5621 49.5384 24.0962 49.8566 20.2268 50.0441C16.3233 50.2316 12.5563 50.6492 8.71249 50.8453C8.65284 50.8489 8.59479 50.866 8.54281 50.8955C8.49083 50.925 8.44627 50.966 8.41255 51.0154C8.37883 51.0647 8.35684 51.1211 8.34825 51.1803C8.33967 51.2394 8.34473 51.2997 8.36303 51.3566C8.47098 51.6634 8.6869 51.8055 9.01077 51.7828C17.2836 51.1634 25.5507 50.5355 33.8122 49.8991C36.619 49.6832 39.3094 49.544 41.8833 49.4815C44.7754 49.402 47.4743 49.2742 49.98 49.098C53.946 48.8196 57.071 48.6576 59.3551 48.6122C62.4915 48.5554 65.6365 48.5043 68.7899 48.4588C68.8577 48.4588 68.9268 48.4472 68.9944 48.4247L70.2814 48.0327ZM67.2141 52.8803C67.213 52.8192 67.1878 52.7612 67.1439 52.7188C67.1 52.6764 67.041 52.6532 66.98 52.6543L10.5845 53.6387C10.5235 53.6397 10.4654 53.6649 10.423 53.7088C10.3806 53.7527 10.3573 53.8117 10.3584 53.8727L10.3649 54.2477C10.366 54.3088 10.3913 54.3668 10.4352 54.4092C10.4791 54.4516 10.5381 54.4748 10.5991 54.4737L66.9946 53.4893C67.0556 53.4882 67.1137 53.4631 67.1561 53.4192C67.1985 53.3753 67.2217 53.3163 67.2206 53.2553L67.2141 52.8803Z" fill="#A5280E"/>
<path d="M66.9799 52.6542L10.5845 53.6386C10.4574 53.6408 10.3562 53.7456 10.3584 53.8727L10.3649 54.2476C10.3671 54.3747 10.472 54.4759 10.599 54.4737L66.9945 53.4893C67.1216 53.4871 67.2228 53.3823 67.2206 53.2552L67.214 52.8802C67.2118 52.7532 67.107 52.652 66.9799 52.6542Z" fill="black"/>
<path d="M57.9234 61.6863C56.9973 62.3341 56.4092 62.6522 56.1592 62.6409C54.0398 62.3454 51.9801 62.3028 49.9801 62.513C46.3039 62.9051 44.4431 63.101 44.3977 63.101C36.193 63.442 27.994 63.6352 19.8008 63.6806C19.5735 63.6806 19.457 63.567 19.4513 63.3397L19.4428 63.1096C19.4428 63.0471 19.474 63.013 19.5365 63.0073C25.6275 62.6494 31.747 62.5301 37.8948 62.6494C38.0652 62.6494 38.1504 62.5641 38.1504 62.3937V62.1806C38.1504 62.1068 38.1106 62.067 38.0311 62.0613L16.3916 61.3113C16.1473 61.3056 16.0337 61.1806 16.0507 60.9363L16.0678 60.621C16.0791 60.4733 16.1558 60.4022 16.2979 60.4079L57.9234 61.6863Z" fill="black"/>
<path d="M42.659 67.4136L49.0085 76.4733C49.2528 76.8256 49.3239 77.212 49.2216 77.6324L44.8579 95.7946C44.8444 95.8489 44.8424 95.9053 44.852 95.9606C44.8616 96.0158 44.8826 96.0686 44.9138 96.1157C44.9449 96.1628 44.9855 96.2033 45.033 96.2345C45.0806 96.2658 45.1341 96.2872 45.1903 96.2975L51.9744 97.5418C52.0717 97.5602 52.1636 97.6005 52.2431 97.6594C52.3227 97.7184 52.3879 97.7945 52.4338 97.8823C52.4797 97.97 52.5051 98.0669 52.5083 98.1659C52.5114 98.2648 52.492 98.3633 52.4517 98.4538L52.3239 98.735C52.0739 99.2918 51.6449 99.5191 51.0369 99.4168L42.7613 98.0106C42.6938 97.9994 42.6294 97.9746 42.5718 97.9377C42.5142 97.9008 42.4648 97.8527 42.4265 97.796C42.3882 97.7394 42.3619 97.6755 42.3491 97.6083C42.3363 97.5412 42.3374 97.4721 42.3522 97.4054L46.9545 78.2206C47.0214 77.9365 47.0271 77.6407 46.9713 77.3529C46.9155 77.065 46.7994 76.7915 46.6307 76.55L40.3749 67.6352L42.659 67.4136Z" fill="black"/>
<path d="M31.0676 68.206L12.4537 93.5955C12.3344 93.7602 12.1923 93.783 12.0275 93.6637L5.43941 88.8823C5.2487 88.7443 5.11827 88.5388 5.07538 88.3084C5.03249 88.0781 5.08045 87.8409 5.20928 87.6465L5.37121 87.3994C5.67803 86.9334 6.05589 86.8653 6.50476 87.1948L11.3372 90.7062C11.4595 90.7935 11.6114 90.8291 11.7598 90.8052C11.9082 90.7812 12.0411 90.6998 12.1298 90.5785L28.6045 68.027L31.0676 68.206Z" fill="black"/>
</svg>
