<svg width="79" height="101" viewBox="0 0 79 101" fill="none" xmlns="http://www.w3.org/2000/svg">
<path d="M31.3168 56.3847L38.3311 72.9532C38.3699 73.0442 38.3757 73.1458 38.3477 73.2406C38.3197 73.3355 38.2597 73.4176 38.1777 73.473L20.8082 85.7374C20.7173 85.8004 20.655 85.8969 20.6343 86.0067C20.6136 86.1164 20.6362 86.2307 20.6974 86.3254L25.9048 94.4562C25.961 94.5424 26.0339 94.6163 26.1191 94.6736C26.2043 94.7308 26.3001 94.7702 26.4005 94.7894C26.501 94.8085 26.604 94.8069 26.7034 94.7848C26.8028 94.7627 26.8965 94.7205 26.9787 94.6608C27.0412 94.6096 27.1065 94.5613 27.1747 94.5159C27.2879 94.4444 27.3858 94.3513 27.4627 94.2419C27.5396 94.1326 27.5939 94.0092 27.6225 93.879C27.651 93.7489 27.6533 93.6144 27.6291 93.4838C27.6049 93.3531 27.5547 93.2288 27.4815 93.1181L23.4332 86.9221C23.3661 86.8195 23.341 86.6949 23.3632 86.5743C23.3854 86.4537 23.4532 86.3463 23.5525 86.2743L40.6238 74.1804C40.7321 74.1039 40.8107 73.9919 40.8464 73.8632C40.882 73.7344 40.8727 73.5968 40.8198 73.473L33.3026 56.3507" stroke="black" stroke-width="1.70457"/>
<path d="M33.3029 56.3507L44.732 56.487" stroke="#008674" stroke-width="1.70457"/>
<path d="M44.7317 56.4871L56.067 75.2202C56.3707 75.722 56.4939 76.3143 56.4165 76.8993L53.5699 98.5557C53.5589 98.6368 53.5657 98.7193 53.5898 98.7976C53.614 98.8759 53.6549 98.9482 53.7099 99.0097C53.7648 99.0711 53.8325 99.1202 53.9083 99.1536C53.9842 99.1871 54.0664 99.204 54.1494 99.2035L64.3257 99.1864C64.7973 99.1864 65.0387 98.9507 65.0501 98.4791L65.0671 97.8484C65.0694 97.7611 65.0543 97.6743 65.0227 97.5932C64.991 97.512 64.9435 97.4382 64.8831 97.3761C64.8226 97.3141 64.7503 97.265 64.6707 97.2319C64.591 97.1989 64.5055 97.1824 64.4194 97.1836L56.2971 97.2092C56.2272 97.21 56.1579 97.1955 56.094 97.1666C56.0302 97.1377 55.9732 97.0951 55.9271 97.0417C55.881 96.9883 55.8467 96.9253 55.8268 96.8571C55.8068 96.7889 55.8016 96.7171 55.8114 96.6466L58.5131 76.6692C58.6125 75.9586 58.4619 75.2354 58.0869 74.6237L46.9647 56.4019" stroke="black" stroke-width="1.70457"/>
<path d="M46.965 56.4017L75.1073 56.8022C75.2726 56.8052 75.433 56.7458 75.5575 56.6355C75.682 56.5252 75.7615 56.372 75.7806 56.2057C76.5647 48.6999 77.2437 41.1146 77.8176 33.4497C78.2522 27.6542 77.8005 22.2337 77.1783 16.3615C76.6954 11.7535 76.4653 6.84143 76.488 1.62546C76.488 1.2675 76.3119 1.09991 75.9596 1.12264C69.4652 1.46355 63.039 1.94084 56.2719 1.77038C50.3229 1.61129 44.374 1.59425 38.4251 1.71925C29.4931 1.90675 20.9874 0.679431 12.0043 1.68512C8.68039 2.06013 5.31104 2.31868 1.89623 2.46073C1.71441 2.46641 1.62349 2.56018 1.62349 2.742C1.40758 10.8103 1.56382 18.3473 2.09223 25.353C2.62065 32.427 2.84792 37.5236 2.77405 40.643C2.64337 46.1147 2.38202 51.1943 1.98996 55.8818C1.98404 55.9491 1.9922 56.0169 2.01395 56.0808C2.03569 56.1448 2.07055 56.2035 2.11627 56.2532C2.16198 56.303 2.21755 56.3426 2.27945 56.3697C2.34135 56.3967 2.40823 56.4105 2.47577 56.4102L31.317 56.3846" stroke="#008674" stroke-width="1.70457"/>
<path d="M46.9647 56.4015C46.0442 56.1685 45.2999 56.1969 44.7317 56.4867" stroke="#008674" stroke-width="1.70457"/>
<path d="M33.3029 56.3503C32.9392 56.0207 32.2773 56.032 31.317 56.3843" stroke="#008674" stroke-width="1.70457"/>
<path d="M30.8228 12.7561L24.746 12.739" stroke="#008674" stroke-width="1.70457"/>
<path d="M24.7456 12.739L18.7455 12.7561C17.6489 12.7561 17.2285 13.293 17.4841 14.3669C18.4046 18.1595 21.6859 22.992 26.1348 23.1369C30.8792 23.2903 34.5014 21.9976 37.0014 19.2589C38.2571 17.8953 38.8822 15.9294 38.8765 13.3612C38.8765 12.9918 38.6889 12.8044 38.3139 12.7987L30.8224 12.7561" stroke="#008674" stroke-width="1.70457"/>
<path d="M24.746 12.739C25.1494 15.3868 26.5642 16.3527 28.9903 15.6367C30.121 15.3015 30.7318 14.3413 30.8228 12.7561" stroke="#008674" stroke-width="1.70457"/>
<path d="M53.8427 12.9097L47.783 12.7648" stroke="#008674" stroke-width="1.70457"/>
<path d="M47.783 12.7648H41.4931C40.7658 12.7648 40.4562 13.1256 40.5641 13.8472C41.7403 21.4893 46.0699 24.5291 53.5529 22.9666C59.3144 21.7649 61.8712 18.9353 61.8797 13.3358C61.8797 12.9665 61.6979 12.7847 61.3343 12.7904L53.8427 12.9097" stroke="#008674" stroke-width="1.70457"/>
<path d="M47.783 12.7648C47.9818 15.0034 49.1069 16.0944 51.158 16.0376C53.0842 15.9779 53.6978 14.6228 53.8427 12.9097" stroke="#008674" stroke-width="1.70457"/>
<path d="M46.965 56.4017C46.0445 56.1687 45.3002 56.1971 44.732 56.4869L33.3028 56.3506C32.9392 56.0211 32.2772 56.0324 31.317 56.3846L2.47577 56.4102C2.40823 56.4105 2.34135 56.3967 2.27945 56.3697C2.21755 56.3426 2.16198 56.303 2.11627 56.2532C2.07055 56.2035 2.03569 56.1448 2.01395 56.0808C1.9922 56.0169 1.98404 55.9491 1.98996 55.8818C2.38202 51.1943 2.64337 46.1147 2.77405 40.643C2.84792 37.5236 2.62065 32.427 2.09223 25.353C1.56382 18.3473 1.40758 10.8103 1.62349 2.742C1.62349 2.56018 1.71441 2.46641 1.89623 2.46073C5.31104 2.31868 8.68039 2.06013 12.0043 1.68512C20.9874 0.679431 29.4931 1.90675 38.4251 1.71925C44.374 1.59425 50.3229 1.61129 56.2719 1.77038C63.039 1.94084 69.4652 1.46355 75.9596 1.12264C76.3119 1.09991 76.488 1.2675 76.488 1.62546C76.4653 6.84143 76.6954 11.7535 77.1783 16.3615C77.8005 22.2337 78.2522 27.6542 77.8176 33.4497C77.2437 41.1146 76.5647 48.6999 75.7806 56.2057C75.7615 56.372 75.682 56.5252 75.5575 56.6355C75.433 56.7458 75.2726 56.8052 75.1074 56.8022L46.965 56.4017ZM30.8227 12.7563L24.7459 12.7393L18.7458 12.7563C17.6492 12.7563 17.2288 13.2932 17.4845 14.3671C18.4049 18.1598 21.6862 22.9922 26.1352 23.1371C30.8795 23.2905 34.5017 21.9979 37.0018 19.2592C38.2575 17.8955 38.8825 15.9296 38.8768 13.3614C38.8768 12.9921 38.6893 12.8046 38.3143 12.7989L30.8227 12.7563ZM53.8429 12.9097L47.7831 12.7648H41.4933C40.766 12.7648 40.4563 13.1256 40.5643 13.8472C41.7405 21.4894 46.07 24.5292 53.5531 22.9667C59.3145 21.7649 61.8714 18.9354 61.8799 13.3359C61.8799 12.9665 61.6981 12.7847 61.3344 12.7904L53.8429 12.9097Z" fill="#008674"/>
<path d="M24.7456 12.739C25.149 15.3868 26.5638 16.3527 28.99 15.6367C30.1207 15.3015 30.7315 14.3413 30.8224 12.7561L38.3139 12.7987C38.6889 12.8044 38.8765 12.9918 38.8765 13.3612C38.8822 15.9294 38.2571 17.8953 37.0014 19.2589C34.5014 21.9976 30.8792 23.2903 26.1348 23.1369C21.6859 22.992 18.4046 18.1595 17.4841 14.3669C17.2285 13.293 17.6489 12.7561 18.7455 12.7561L24.7456 12.739Z" fill="white"/>
<path d="M24.746 12.739L30.8228 12.7561C30.7318 14.3413 30.121 15.3015 28.9903 15.6367C26.5642 16.3527 25.1494 15.3868 24.746 12.739Z" fill="black"/>
<path d="M47.783 12.7648C47.9818 15.0034 49.1069 16.0944 51.158 16.0376C53.0842 15.9779 53.6978 14.6228 53.8427 12.9097L61.3343 12.7904C61.6979 12.7847 61.8797 12.9665 61.8797 13.3358C61.8712 18.9353 59.3144 21.7649 53.5529 22.9666C46.0699 24.5291 41.7403 21.4893 40.5641 13.8472C40.4562 13.1256 40.7658 12.7648 41.4931 12.7648H47.783Z" fill="white"/>
<path d="M47.783 12.7648L53.8427 12.9097C53.6978 14.6228 53.0842 15.9779 51.158 16.0376C49.1069 16.0944 47.9818 15.0034 47.783 12.7648Z" fill="black"/>
<path d="M33.3026 56.3503L40.8198 73.4726C40.8727 73.5963 40.882 73.734 40.8464 73.8628C40.8107 73.9915 40.7321 74.1035 40.6238 74.18L23.5525 86.2739C23.4532 86.3459 23.3854 86.4533 23.3632 86.5739C23.341 86.6945 23.3661 86.819 23.4332 86.9217L27.4815 93.1177C27.5547 93.2284 27.6049 93.3527 27.6291 93.4834C27.6533 93.614 27.651 93.7484 27.6225 93.8786C27.5939 94.0088 27.5396 94.1321 27.4627 94.2415C27.3858 94.3509 27.2879 94.444 27.1747 94.5154C27.1065 94.5609 27.0412 94.6092 26.9787 94.6604C26.8965 94.7201 26.8028 94.7623 26.7034 94.7844C26.604 94.8065 26.501 94.8081 26.4005 94.789C26.3001 94.7698 26.2043 94.7304 26.1191 94.6732C26.0339 94.6159 25.961 94.5419 25.9048 94.4558L20.6974 86.325C20.6362 86.2303 20.6136 86.116 20.6343 86.0062C20.655 85.8965 20.7173 85.8 20.8082 85.737L38.1777 73.4726C38.2597 73.4172 38.3197 73.3351 38.3477 73.2402C38.3757 73.1453 38.3699 73.0437 38.3311 72.9527L31.3168 56.3843C32.2771 56.032 32.939 56.0207 33.3026 56.3503Z" fill="black"/>
<path d="M46.9647 56.4015L58.0869 74.6233C58.4619 75.2351 58.6125 75.9582 58.5131 76.6688L55.8114 96.6462C55.8016 96.7167 55.8068 96.7885 55.8268 96.8567C55.8467 96.9249 55.881 96.9879 55.9271 97.0413C55.9732 97.0947 56.0302 97.1373 56.094 97.1662C56.1579 97.1951 56.2272 97.2096 56.2971 97.2088L64.4194 97.1832C64.5055 97.182 64.591 97.1985 64.6707 97.2316C64.7503 97.2646 64.8226 97.3137 64.8831 97.3758C64.9435 97.4378 64.991 97.5116 65.0227 97.5928C65.0543 97.6739 65.0694 97.7608 65.0671 97.848L65.0501 98.4787C65.0387 98.9503 64.7973 99.186 64.3257 99.186L54.1494 99.2031C54.0664 99.2037 53.9842 99.1867 53.9083 99.1533C53.8325 99.1198 53.7648 99.0707 53.7099 99.0093C53.6549 98.9478 53.614 98.8755 53.5898 98.7972C53.5657 98.7189 53.5589 98.6364 53.5699 98.5553L56.4165 76.8989C56.4939 76.3139 56.3707 75.7216 56.067 75.2198L44.7317 56.4867C45.2999 56.1969 46.0442 56.1685 46.9647 56.4015Z" fill="black"/>
</svg>
