<svg width="80" height="93" viewBox="0 0 80 93" fill="none" xmlns="http://www.w3.org/2000/svg">
<path d="M31.8142 57.08C30.0244 63.4551 28.9562 67.6455 28.6096 69.6512C27.4902 76.0831 26.4021 82.5406 25.3453 89.0236C25.2998 89.3248 25.1237 89.4753 24.8169 89.4753H17.5725C17.1293 89.4753 16.9134 89.6941 16.9247 90.1316L16.9503 90.9924C16.9617 91.2822 17.1123 91.4271 17.4021 91.4271L26.5044 91.4356C26.8397 91.4356 27.0329 91.2708 27.084 90.9412C28.0499 85.1855 28.9959 79.4297 29.9221 73.674C30.834 68.0319 32.4363 62.5261 33.8426 56.9266" stroke="black" stroke-width="1.70457"/>
<path d="M33.8423 56.9266L43.3452 56.9778" stroke="#848686" stroke-width="1.70457"/>
<path d="M43.3451 56.9777L48.9361 68.7392C49.3061 69.5185 49.4898 70.3733 49.473 71.2364L49.0299 91.0605C49.0287 91.1145 49.0385 91.1682 49.0586 91.2184C49.0788 91.2685 49.1088 91.3141 49.1471 91.3523C49.1853 91.3906 49.2308 91.4206 49.281 91.4408C49.3312 91.4609 49.3849 91.4707 49.4389 91.4696L58.5243 91.3758C58.9561 91.3758 59.1748 91.1599 59.1805 90.7281L59.1891 90.2764C59.1913 90.1764 59.1736 90.0771 59.1369 89.9841C59.1003 89.8911 59.0454 89.8064 58.9755 89.735C58.9056 89.6635 58.8222 89.6067 58.73 89.568C58.6379 89.5292 58.539 89.5093 58.439 89.5093L51.4503 89.4667C51.3925 89.4667 51.3353 89.4552 51.282 89.4328C51.2287 89.4104 51.1804 89.3776 51.1399 89.3364C51.0994 89.2951 51.0676 89.2462 51.0463 89.1925C51.0249 89.1387 51.0145 89.0813 51.0156 89.0235L51.4588 70.7591C51.4814 69.8409 51.2826 68.9316 50.8793 68.1085L45.3821 56.7902" stroke="black" stroke-width="1.70457"/>
<path d="M45.382 56.7901L75.0245 57.0884C75.342 57.0931 75.6487 56.9737 75.8795 56.7557C76.1104 56.5376 76.247 56.238 76.2603 55.9208C76.3398 53.7446 76.5273 51.506 76.8228 49.2048C77.7319 42.1536 78.229 35.9347 78.3143 30.5483C78.3824 26.3153 78.141 21.588 77.5898 16.3663C77.0614 11.3663 76.8597 6.4685 76.9847 1.67299C77.0017 1.07071 76.7091 0.800805 76.1068 0.863306C69.5045 1.5565 62.959 1.81218 56.4702 1.63036C50.3423 1.45138 44.2826 1.45138 38.1973 1.63036C34.6291 1.73831 31.1205 1.64457 27.6716 1.34911C18.5011 0.573536 10.6515 1.74117 1.94973 2.26106C1.56904 2.28379 1.37016 2.48834 1.35312 2.87471C1.02925 11.193 1.19969 19.0794 1.86447 26.5341C2.77641 36.787 2.46961 46.5201 1.77926 56.3469C1.77574 56.395 1.78192 56.4432 1.79746 56.4887C1.81301 56.5341 1.8376 56.5757 1.86962 56.611C1.90163 56.6462 1.94042 56.6742 1.98354 56.6933C2.02666 56.7124 2.07314 56.7222 2.12014 56.7219C11.6828 56.8413 21.2425 56.8128 30.7995 56.6367C31.3506 56.631 31.6887 56.7787 31.8137 57.0799" stroke="#848686" stroke-width="1.70457"/>
<path d="M45.3821 56.7903C44.5468 56.7278 43.8678 56.7903 43.3451 56.9778" stroke="black" stroke-width="1.70457"/>
<path d="M33.8424 56.9266C33.2401 56.6596 32.564 56.7107 31.814 57.08" stroke="black" stroke-width="1.70457"/>
<path d="M20.419 22.7417L35.6578 22.6564C35.9253 22.6553 36.1899 22.6015 36.4366 22.4981C36.6833 22.3947 36.9073 22.2437 37.0957 22.0538C37.284 21.8639 37.4331 21.6387 37.5344 21.3911C37.6358 21.1436 37.6874 20.8785 37.6862 20.611L37.6692 17.7814C37.6556 15.3846 36.6929 13.0912 34.9925 11.4052C33.2921 9.71919 30.9932 8.77847 28.6009 8.78977H27.3395C26.1535 8.79534 24.9803 9.03505 23.8868 9.49518C22.7933 9.95531 21.8011 10.6269 20.9668 11.4714C20.1325 12.316 19.4726 13.317 19.0247 14.4172C18.5768 15.5175 18.3497 16.6954 18.3565 17.8836L18.3735 20.7132C18.3746 20.9807 18.4284 21.2454 18.5318 21.4921C18.6352 21.7388 18.7862 21.9627 18.9761 22.1511C19.1661 22.3394 19.3912 22.4885 19.6388 22.5899C19.8864 22.6912 20.1515 22.7428 20.419 22.7417Z" stroke="#848686" stroke-width="1.70457"/>
<path d="M41.8622 22.6986L56.4363 22.6816C56.7594 22.6816 57.0792 22.6178 57.3776 22.494C57.676 22.3701 57.9469 22.1885 58.175 21.9597C58.403 21.7308 58.5836 21.4592 58.7065 21.1604C58.8293 20.8617 58.892 20.5416 58.8909 20.2185L58.8824 18.1304C58.8777 15.7474 57.9738 13.4636 56.3693 11.7808C54.7648 10.098 52.591 9.15393 50.3254 9.15589H47.939C46.8157 9.15685 45.7035 9.39071 44.6662 9.84408C43.6289 10.2974 42.6868 10.9614 41.8937 11.7981C41.1005 12.6347 40.472 13.6276 40.044 14.72C39.6159 15.8124 39.3969 16.9829 39.3992 18.1645L39.4077 20.2526C39.4099 20.9021 39.6696 21.5243 40.1296 21.9827C40.5897 22.4412 41.2127 22.6987 41.8622 22.6986Z" stroke="#848686" stroke-width="1.70457"/>
<path d="M7.82233 18.4375L8.81974 19.1876C9.19482 19.4661 9.25731 19.4065 9.00725 19.0086C8.45032 18.105 7.59786 17.7612 6.44989 17.9772C6.41011 17.9828 6.38457 18.0056 6.3732 18.0454C6.33342 18.1477 6.33622 18.2386 6.38168 18.3182C6.46693 18.4773 6.59481 18.5313 6.7653 18.4801L7.2768 18.3352C7.47571 18.2784 7.65752 18.3125 7.82233 18.4375Z" stroke="black" stroke-width="1.70457"/>
<path d="M14.8188 23.9722C14.8176 23.9241 14.7861 23.8773 14.7263 23.8343C14.6665 23.7914 14.5794 23.7533 14.4701 23.7221C14.3609 23.6909 14.2315 23.6673 14.0894 23.6526C13.9473 23.6379 13.7953 23.6324 13.642 23.6364C13.4887 23.6404 13.3371 23.6539 13.196 23.676C13.0548 23.6981 12.9269 23.7285 12.8194 23.7654C12.7119 23.8022 12.627 23.8449 12.5695 23.8909C12.512 23.9368 12.4831 23.9853 12.4844 24.0334C12.4857 24.0815 12.5171 24.1284 12.5769 24.1713C12.6367 24.2142 12.7238 24.2523 12.833 24.2835C12.9423 24.3147 13.0717 24.3383 13.2138 24.353C13.3559 24.3677 13.508 24.3732 13.6612 24.3692C13.8145 24.3652 13.9661 24.3517 14.1072 24.3296C14.2483 24.3075 14.3763 24.2771 14.4838 24.2402C14.5913 24.2034 14.6763 24.1607 14.7337 24.1147C14.7912 24.0688 14.8201 24.0203 14.8188 23.9722Z" stroke="black" stroke-width="1.70457"/>
<path d="M54.1897 30.7151C54.1742 30.6917 54.1362 30.6837 54.0776 30.6915C54.0191 30.6992 53.9412 30.7226 53.8484 30.7603C53.7557 30.7979 53.6499 30.8491 53.537 30.911C53.4242 30.9728 53.3065 31.0441 53.1908 31.1207C53.075 31.1973 52.9635 31.2777 52.8625 31.3574C52.7615 31.4371 52.673 31.5145 52.6021 31.5852C52.5312 31.6559 52.4792 31.7184 52.4492 31.7693C52.4192 31.8202 52.4117 31.8584 52.4271 31.8817C52.4426 31.905 52.4807 31.9131 52.5392 31.9053C52.5978 31.8976 52.6756 31.8742 52.7684 31.8365C52.8611 31.7988 52.967 31.7476 53.0798 31.6858C53.1927 31.6239 53.3103 31.5527 53.426 31.4761C53.5418 31.3995 53.6533 31.319 53.7544 31.2393C53.8554 31.1596 53.9439 31.0822 54.0148 31.0115C54.0857 30.9409 54.1376 30.8783 54.1676 30.8274C54.1977 30.7766 54.2051 30.7384 54.1897 30.7151Z" stroke="black" stroke-width="1.70457"/>
<path d="M30.3226 18.071C30.3226 17.3567 30.0388 16.6717 29.5338 16.1666C29.0287 15.6616 28.3437 15.3778 27.6294 15.3778C26.9151 15.3778 26.2301 15.6616 25.725 16.1666C25.2199 16.6717 24.9362 17.3567 24.9362 18.071C24.9362 18.7853 25.2199 19.4703 25.725 19.9754C26.2301 20.4805 26.9151 20.7642 27.6294 20.7642C28.3437 20.7642 29.0287 20.4805 29.5338 19.9754C30.0388 19.4703 30.3226 18.7853 30.3226 18.071Z" stroke="#848686" stroke-width="1.70457"/>
<path d="M51.4791 18.6556C51.5301 18.318 51.5098 17.9731 51.4194 17.6404C51.3289 17.3078 51.17 16.9939 50.9518 16.7168C50.7335 16.4397 50.4602 16.2047 50.1475 16.0253C49.8347 15.8458 49.4887 15.7255 49.129 15.6711C48.7693 15.6167 48.4031 15.6293 48.0513 15.7082C47.6995 15.7871 47.3689 15.9308 47.0785 16.131C46.7881 16.3312 46.5435 16.584 46.3587 16.8751C46.1739 17.1661 46.0525 17.4896 46.0014 17.8271C45.9504 18.1647 45.9707 18.5096 46.0612 18.8423C46.1516 19.1749 46.3105 19.4888 46.5288 19.7659C46.747 20.043 47.0203 20.278 47.333 20.4574C47.6458 20.6368 47.9919 20.7572 48.3515 20.8116C48.7112 20.866 49.0774 20.8534 49.4293 20.7745C49.7811 20.6955 50.1116 20.5519 50.402 20.3517C50.6924 20.1515 50.9371 19.8986 51.1219 19.6076C51.3067 19.3166 51.428 18.9931 51.4791 18.6556Z" stroke="#848686" stroke-width="1.70457"/>
<path d="M45.382 56.7901C44.5468 56.7276 43.8678 56.7901 43.3451 56.9776L33.8421 56.9265C33.2399 56.6594 32.5637 56.7106 31.8137 57.0799C31.6887 56.7787 31.3506 56.631 30.7995 56.6367C21.2425 56.8128 11.6828 56.8413 2.12014 56.7219C2.07314 56.7222 2.02666 56.7124 1.98354 56.6933C1.94042 56.6742 1.90163 56.6462 1.86962 56.611C1.8376 56.5757 1.81301 56.5341 1.79746 56.4887C1.78192 56.4432 1.77574 56.395 1.77926 56.3469C2.46961 46.5201 2.77641 36.787 1.86447 26.5341C1.19969 19.0794 1.02925 11.193 1.35312 2.87471C1.37016 2.48834 1.56904 2.28379 1.94973 2.26106C10.6515 1.74117 18.5011 0.573536 27.6716 1.34911C31.1205 1.64457 34.6291 1.73831 38.1973 1.63036C44.2826 1.45138 50.3423 1.45138 56.4702 1.63036C62.959 1.81218 69.5045 1.5565 76.1068 0.863306C76.7091 0.800805 77.0017 1.07071 76.9847 1.67299C76.8597 6.4685 77.0614 11.3663 77.5898 16.3663C78.141 21.588 78.3824 26.3153 78.3143 30.5483C78.229 35.9347 77.7319 42.1536 76.8228 49.2048C76.5273 51.506 76.3398 53.7446 76.2603 55.9208C76.247 56.2381 76.1104 56.5376 75.8795 56.7557C75.6487 56.9738 75.342 57.0931 75.0245 57.0884L45.382 56.7901ZM20.4187 22.7414L35.6575 22.6562C35.925 22.6551 36.1896 22.6013 36.4363 22.4979C36.683 22.3945 36.907 22.2435 37.0954 22.0535C37.2837 21.8636 37.4328 21.6384 37.5341 21.3909C37.6355 21.1433 37.6871 20.8782 37.6859 20.6107L37.6689 17.7811C37.6553 15.3843 36.6926 13.091 34.9922 11.405C33.2918 9.71894 30.9929 8.77822 28.6006 8.78953H27.3392C26.1532 8.7951 24.98 9.0348 23.8865 9.49494C22.793 9.95507 21.8008 10.6266 20.9665 11.4712C20.1322 12.3157 19.4723 13.3167 19.0244 14.417C18.5765 15.5172 18.3494 16.6952 18.3562 17.8834L18.3732 20.713C18.3743 20.9805 18.4281 21.2451 18.5315 21.4918C18.6349 21.7386 18.7859 21.9625 18.9758 22.1508C19.1658 22.3392 19.3909 22.4883 19.6385 22.5896C19.8861 22.691 20.1512 22.7425 20.4187 22.7414ZM41.8621 22.6988L56.4362 22.6818C56.7592 22.6818 57.0791 22.618 57.3775 22.4941C57.6758 22.3702 57.9468 22.1886 58.1748 21.9598C58.4028 21.731 58.5835 21.4594 58.7063 21.1606C58.8292 20.8618 58.8919 20.5417 58.8907 20.2186L58.8822 18.1306C58.8775 15.7475 57.9736 13.4637 56.3692 11.7809C54.7647 10.0982 52.5908 9.15407 50.3253 9.15603H47.9389C46.8155 9.157 45.7034 9.39085 44.6661 9.84422C43.6288 10.2976 42.6866 10.9616 41.8935 11.7982C41.1004 12.6349 40.4718 13.6278 40.0438 14.7202C39.6158 15.8126 39.3967 16.983 39.399 18.1646L39.4075 20.2527C39.4098 20.9023 39.6694 21.5244 40.1295 21.9829C40.5896 22.4414 41.2126 22.6988 41.8621 22.6988ZM7.82192 18.4374L8.81912 19.1874C9.19413 19.4658 9.2566 19.4062 9.0066 19.0084C8.44978 18.105 7.59749 17.7612 6.44975 17.9771C6.40998 17.9828 6.38444 18.0056 6.37308 18.0453C6.3333 18.1476 6.3361 18.2385 6.38156 18.3181C6.46678 18.4772 6.59464 18.5311 6.76509 18.48L7.27649 18.3351C7.47536 18.2783 7.65714 18.3124 7.82192 18.4374ZM14.8188 23.9722C14.8175 23.9241 14.786 23.8772 14.7262 23.8343C14.6664 23.7914 14.5794 23.7533 14.4701 23.7221C14.3608 23.6909 14.2314 23.6673 14.0893 23.6526C13.9472 23.6379 13.7952 23.6324 13.6419 23.6364C13.4886 23.6404 13.3371 23.6539 13.1959 23.676C13.0548 23.6981 12.9268 23.7285 12.8194 23.7653C12.7119 23.8022 12.6269 23.8448 12.5694 23.8908C12.512 23.9368 12.4831 23.9853 12.4843 24.0334C12.4856 24.0815 12.517 24.1284 12.5768 24.1713C12.6367 24.2142 12.7237 24.2523 12.833 24.2835C12.9423 24.3147 13.0717 24.3383 13.2138 24.353C13.3559 24.3677 13.5079 24.3732 13.6612 24.3692C13.8145 24.3652 13.966 24.3517 14.1071 24.3296C14.2483 24.3075 14.3763 24.2771 14.4838 24.2402C14.5912 24.2034 14.6762 24.1607 14.7337 24.1147C14.7911 24.0687 14.8201 24.0203 14.8188 23.9722ZM54.1895 30.715C54.1741 30.6917 54.136 30.6837 54.0775 30.6914C54.0189 30.6992 53.941 30.7225 53.8483 30.7602C53.7555 30.7979 53.6497 30.8491 53.5369 30.9109C53.424 30.9728 53.3064 31.044 53.1906 31.1206C53.0749 31.1972 52.9634 31.2777 52.8623 31.3574C52.7613 31.4371 52.6728 31.5145 52.6019 31.5852C52.531 31.6558 52.4791 31.7184 52.4491 31.7693C52.419 31.8201 52.4115 31.8583 52.427 31.8816C52.4424 31.905 52.4805 31.913 52.5391 31.9053C52.5976 31.8975 52.6755 31.8741 52.7682 31.8365C52.861 31.7988 52.9668 31.7476 53.0797 31.6857C53.1925 31.6239 53.3101 31.5526 53.4259 31.476C53.5416 31.3994 53.6532 31.319 53.7542 31.2393C53.8552 31.1596 53.9437 31.0822 54.0146 31.0115C54.0855 30.9408 54.1375 30.8783 54.1675 30.8274C54.1975 30.7765 54.205 30.7384 54.1895 30.715Z" fill="#848686"/>
<path d="M20.419 22.7417C20.1515 22.7428 19.8864 22.6912 19.6388 22.5899C19.3912 22.4885 19.1661 22.3394 18.9761 22.1511C18.7862 21.9627 18.6352 21.7388 18.5318 21.4921C18.4284 21.2454 18.3746 20.9807 18.3735 20.7132L18.3565 17.8836C18.3497 16.6954 18.5768 15.5175 19.0247 14.4172C19.4726 13.317 20.1325 12.316 20.9668 11.4714C21.8011 10.6269 22.7933 9.95531 23.8868 9.49518C24.9803 9.03505 26.1535 8.79534 27.3395 8.78977H28.6009C30.9932 8.77847 33.2921 9.71919 34.9925 11.4052C36.6929 13.0912 37.6556 15.3846 37.6692 17.7814L37.6862 20.611C37.6874 20.8785 37.6358 21.1436 37.5344 21.3911C37.4331 21.6387 37.284 21.8639 37.0957 22.0538C36.9073 22.2437 36.6833 22.3947 36.4366 22.4981C36.1899 22.6015 35.9253 22.6553 35.6578 22.6564L20.419 22.7417ZM30.3225 18.0711C30.3225 17.3569 30.0388 16.6718 29.5337 16.1667C29.0286 15.6617 28.3436 15.3779 27.6293 15.3779C26.915 15.3779 26.23 15.6617 25.7249 16.1667C25.2198 16.6718 24.9361 17.3569 24.9361 18.0711C24.9361 18.7854 25.2198 19.4705 25.7249 19.9755C26.23 20.4806 26.915 20.7644 27.6293 20.7644C28.3436 20.7644 29.0286 20.4806 29.5337 19.9755C30.0388 19.4705 30.3225 18.7854 30.3225 18.0711Z" fill="white"/>
<path d="M41.8622 22.6986C41.2127 22.6987 40.5897 22.4412 40.1296 21.9827C39.6696 21.5243 39.4099 20.9021 39.4077 20.2526L39.3992 18.1645C39.3969 16.9829 39.6159 15.8124 40.044 14.72C40.472 13.6276 41.1005 12.6347 41.8937 11.7981C42.6868 10.9614 43.6289 10.2974 44.6662 9.84408C45.7035 9.39071 46.8157 9.15685 47.939 9.15589H50.3254C52.591 9.15393 54.7648 10.098 56.3693 11.7808C57.9738 13.4636 58.8777 15.7474 58.8824 18.1304L58.8909 20.2185C58.892 20.5416 58.8293 20.8617 58.7065 21.1604C58.5836 21.4592 58.403 21.7308 58.175 21.9597C57.9469 22.1885 57.676 22.3701 57.3776 22.494C57.0792 22.6178 56.7594 22.6816 56.4363 22.6816L41.8622 22.6986ZM51.479 18.6554C51.53 18.3179 51.5097 17.973 51.4193 17.6403C51.3288 17.3076 51.1699 16.9938 50.9517 16.7167C50.7334 16.4395 50.4602 16.2045 50.1474 16.0251C49.8346 15.8457 49.4886 15.7254 49.1289 15.671C48.7693 15.6166 48.4031 15.6292 48.0512 15.7081C47.6994 15.787 47.3688 15.9307 47.0784 16.1309C46.788 16.3311 46.5434 16.5839 46.3586 16.8749C46.1738 17.166 46.0524 17.4895 46.0014 17.827C45.9503 18.1645 45.9706 18.5095 46.0611 18.8421C46.1516 19.1748 46.3105 19.4886 46.5287 19.7658C46.7469 20.0429 47.0202 20.2779 47.333 20.4573C47.6457 20.6367 47.9918 20.7571 48.3514 20.8114C48.7111 20.8658 49.0773 20.8532 49.4292 20.7743C49.781 20.6954 50.1115 20.5517 50.4019 20.3515C50.6923 20.1513 50.937 19.8985 51.1218 19.6075C51.3066 19.3165 51.4279 18.993 51.479 18.6554Z" fill="white"/>
<path d="M27.6294 20.7642C29.1168 20.7642 30.3226 19.5584 30.3226 18.071C30.3226 16.5836 29.1168 15.3778 27.6294 15.3778C26.142 15.3778 24.9362 16.5836 24.9362 18.071C24.9362 19.5584 26.142 20.7642 27.6294 20.7642Z" fill="black"/>
<path d="M48.3515 20.8119C49.8641 21.0406 51.2643 20.0753 51.479 18.6558C51.6937 17.2363 50.6415 15.9002 49.1289 15.6714C47.6163 15.4426 46.2161 16.4079 46.0014 17.8274C45.7867 19.2469 46.8389 20.5831 48.3515 20.8119Z" fill="black"/>
<path d="M7.2768 18.3352L6.7653 18.4801C6.59481 18.5313 6.46693 18.4773 6.38168 18.3182C6.33622 18.2386 6.33342 18.1477 6.3732 18.0454C6.38457 18.0056 6.41011 17.9828 6.44989 17.9772C7.59786 17.7612 8.45032 18.105 9.00725 19.0086C9.25731 19.4065 9.19482 19.4661 8.81974 19.1876L7.82233 18.4375C7.65752 18.3125 7.47571 18.2784 7.2768 18.3352Z" fill="black"/>
<path d="M13.6613 24.3694C14.3059 24.3525 14.8242 24.1748 14.8189 23.9725C14.8136 23.7701 14.2867 23.6198 13.6421 23.6367C12.9974 23.6536 12.4791 23.8313 12.4844 24.0336C12.4897 24.2359 13.0166 24.3863 13.6613 24.3694Z" fill="black"/>
<path d="M53.4259 31.476C53.9126 31.1539 54.2546 30.8132 54.1896 30.715C54.1247 30.6169 53.6774 30.7985 53.1907 31.1207C52.704 31.4428 52.3621 31.7835 52.427 31.8817C52.492 31.9798 52.9392 31.7982 53.4259 31.476Z" fill="black"/>
<path d="M33.8426 56.9266C32.4363 62.5261 30.834 68.0319 29.9221 73.674C28.9959 79.4298 28.0499 85.1855 27.084 90.9413C27.0329 91.2708 26.8397 91.4356 26.5044 91.4356L17.4021 91.4271C17.1123 91.4271 16.9617 91.2822 16.9503 90.9924L16.9247 90.1316C16.9134 89.6941 17.1293 89.4753 17.5725 89.4753H24.8169C25.1237 89.4753 25.2998 89.3248 25.3453 89.0236C26.4021 82.5406 27.4902 76.0831 28.6096 69.6512C28.9562 67.6455 30.0244 63.4551 31.8142 57.08C32.5642 56.7107 33.2403 56.6596 33.8426 56.9266Z" fill="black"/>
<path d="M45.3821 56.7903L50.8793 68.1086C51.2826 68.9317 51.4814 69.841 51.4588 70.7592L51.0156 89.0236C51.0145 89.0814 51.0249 89.1389 51.0463 89.1926C51.0676 89.2463 51.0994 89.2952 51.1399 89.3365C51.1804 89.3778 51.2287 89.4106 51.282 89.4329C51.3353 89.4553 51.3925 89.4668 51.4503 89.4668L58.439 89.5094C58.539 89.5094 58.6379 89.5294 58.73 89.5681C58.8222 89.6069 58.9056 89.6636 58.9755 89.7351C59.0454 89.8066 59.1003 89.8913 59.1369 89.9842C59.1736 90.0772 59.1913 90.1766 59.1891 90.2765L59.1805 90.7282C59.1748 91.16 58.9561 91.3759 58.5243 91.3759L49.4389 91.4697C49.3849 91.4708 49.3312 91.4611 49.281 91.4409C49.2308 91.4208 49.1853 91.3907 49.1471 91.3525C49.1088 91.3142 49.0788 91.2687 49.0586 91.2185C49.0385 91.1683 49.0287 91.1146 49.0299 91.0606L49.473 71.2365C49.4898 70.3734 49.3061 69.5186 48.9361 68.7393L43.3451 56.9778C43.8678 56.7903 44.5468 56.7278 45.3821 56.7903Z" fill="black"/>
</svg>
