<svg width="97" height="96" viewBox="0 0 97 96" fill="none" xmlns="http://www.w3.org/2000/svg">
<path d="M45.3889 44.729L45.3463 92.4739C45.3463 92.5466 45.3322 92.6187 45.3048 92.6859C45.2774 92.7531 45.2371 92.8141 45.1865 92.8656C45.1358 92.917 45.0757 92.9579 45.0095 92.9857C44.9433 93.0136 44.8724 93.0279 44.8008 93.0279L38.9371 93.079C38.4769 93.0846 38.2495 93.3148 38.2552 93.7694L38.2638 94.3915C38.2694 94.6927 38.4229 94.8461 38.724 94.8518L46.8463 94.9966C46.9075 94.9977 46.9682 94.9867 47.025 94.964C47.0819 94.9414 47.1336 94.9077 47.1773 94.8649C47.2209 94.822 47.2556 94.771 47.2792 94.7146C47.3029 94.6582 47.315 94.5976 47.315 94.5364L47.2639 43.0927" stroke="black" stroke-width="1.70457"/>
<path d="M47.2635 43.0927L52.3006 43.4165" stroke="#F69FAC" stroke-width="1.70457"/>
<path d="M52.3009 43.4165L52.2753 94.5109C52.2753 94.5765 52.2883 94.6414 52.3137 94.702C52.339 94.7625 52.3762 94.8174 52.423 94.8634C52.4698 94.9095 52.5254 94.9456 52.5863 94.97C52.6473 94.9943 52.7125 95.0063 52.7781 95.0051L60.6361 94.937C60.823 94.9348 61.0017 94.8595 61.1339 94.7274C61.2661 94.5952 61.3414 94.4166 61.3436 94.2296V93.8375C61.3493 93.2977 61.0822 93.0279 60.5424 93.0279L54.6957 93.0194C54.633 93.0194 54.571 93.0068 54.5131 92.9824C54.4552 92.958 54.4025 92.9221 54.3582 92.877C54.3139 92.8319 54.2788 92.7784 54.2548 92.7194C54.2308 92.6605 54.2185 92.5974 54.2185 92.5336L54.1588 43.2716" stroke="black" stroke-width="1.70457"/>
<path d="M54.1585 43.2716C58.1813 42.908 62.2665 42.8597 66.4143 43.1267C67.9228 43.2205 69.1757 42.9051 70.6416 42.6835C70.92 42.6381 71.1985 42.6523 71.4769 42.7262C72.4741 42.9989 72.9939 42.854 73.778 42.1211C80.6134 35.7403 87.3265 29.2317 93.9175 22.5953C94.5823 21.9248 95.1448 21.2799 95.605 20.6606C95.7901 20.4111 95.8775 20.1022 95.8508 19.7916C95.8242 19.4811 95.6854 19.1901 95.4602 18.9731L78.0565 2.3024C77.6359 1.89304 77.0941 1.63265 76.5138 1.56092C73.7354 1.20296 70.957 1.4416 68.1189 1.40751C53.988 1.26547 39.8202 1.29385 25.6155 1.49272C24.8878 1.50347 24.1898 1.79304 23.6638 2.3024L2.12667 23.0299C1.89572 23.2527 1.74161 23.5435 1.68648 23.8605C1.63135 24.1775 1.67794 24.5044 1.81975 24.7942C2.26294 25.6976 2.97043 26.2686 3.94203 26.5073C4.19204 26.5641 4.41355 26.6777 4.60674 26.8481C10.8227 32.2346 17.1836 37.354 23.6894 42.2063C24.6041 42.8881 25.6297 43.2688 26.7661 43.3483C28.8286 43.4904 31.0417 43.5302 33.4054 43.4677C37.2407 43.3597 41.0817 43.3511 44.9283 43.4421C45.4453 43.4534 45.5988 43.8824 45.3886 44.729" stroke="#F69FAC" stroke-width="1.70457"/>
<path d="M54.1586 43.2719C53.579 43.0332 52.9598 43.0816 52.3007 43.4168" stroke="black" stroke-width="1.70457"/>
<path d="M47.2638 43.0931C46.849 42.8772 46.4739 42.8317 46.1387 42.9567C45.8489 43.0646 45.6501 43.3175 45.5421 43.7152C45.4569 44.022 45.4058 44.3601 45.3888 44.7294" stroke="black" stroke-width="1.70457"/>
<path d="M38.527 4.13435C38.6453 4.20969 38.7993 4.21831 38.9551 4.15829C39.1109 4.09827 39.2558 3.97451 39.3579 3.81429C39.4599 3.65406 39.5108 3.4705 39.4993 3.30394C39.4879 3.13737 39.415 3.00145 39.2968 2.92611C39.1785 2.85077 39.0246 2.84219 38.8688 2.90221C38.713 2.96223 38.5681 3.08594 38.466 3.24616C38.364 3.40639 38.313 3.59 38.3245 3.75657C38.3359 3.92313 38.4088 4.05901 38.527 4.13435Z" stroke="#F69FAC" stroke-width="1.70457"/>
<path d="M62.725 7.4164C62.763 7.39736 62.7903 7.3578 62.8053 7.29996C62.8203 7.24213 62.8227 7.16714 62.8124 7.07932C62.8021 6.9915 62.7792 6.89254 62.7452 6.7881C62.7111 6.68366 62.6664 6.5758 62.6138 6.47065C62.5075 6.25831 62.375 6.06997 62.2455 5.94702C62.116 5.82407 62 5.77657 61.9232 5.81502C61.8851 5.83406 61.8577 5.87362 61.8427 5.93146C61.8277 5.98929 61.8253 6.06428 61.8356 6.1521C61.846 6.23992 61.8688 6.33888 61.9029 6.44332C61.937 6.54776 61.9816 6.65562 62.0343 6.76077C62.1406 6.97311 62.273 7.16145 62.4026 7.2844C62.5321 7.40735 62.6481 7.45485 62.725 7.4164Z" stroke="#F69FAC" stroke-width="1.70457"/>
<path d="M30.1841 8.22606C30.1126 8.26358 30.054 8.32112 30.0152 8.39174C29.9764 8.46235 29.9591 8.54302 29.9654 8.62409C29.9717 8.70516 30.0014 8.78314 30.0507 8.84868C30.1001 8.91423 30.1672 8.96453 30.2438 8.99354C30.4201 9.05608 30.6247 9.07598 30.8578 9.05324C31.2501 9.00776 31.324 8.83152 31.0796 8.52452C30.7896 8.15497 30.4911 8.0555 30.1841 8.22606Z" stroke="#F69FAC" stroke-width="1.70457"/>
<path d="M73.0029 9.78557L75.3727 11.2007C75.4295 11.2348 75.4722 11.2234 75.5006 11.1666C75.7791 10.6722 75.7648 10.6295 75.4579 11.0387C75.4181 11.0842 75.3812 11.0842 75.3471 11.0387C74.7333 10.2829 73.9747 9.80549 73.0711 9.60658C72.6733 9.52134 72.6505 9.58098 73.0029 9.78557Z" stroke="#F69FAC" stroke-width="1.70457"/>
<path d="M18.2355 11.167C18.588 11.0306 18.7217 10.7662 18.6364 10.3739C18.591 10.1635 18.4601 10.0669 18.2441 10.084L17.9627 10.1095C17.6045 10.1436 17.4624 10.3341 17.5363 10.6809C17.5818 10.8913 17.6984 11.0476 17.886 11.1499C17.9997 11.2068 18.1162 11.2125 18.2355 11.167Z" stroke="#F69FAC" stroke-width="1.70457"/>
<path d="M48.0383 20.4689C47.8419 19.2955 47.4163 18.1722 46.7859 17.1632C46.1554 16.1542 45.3323 15.2794 44.3637 14.5885C43.3951 13.8976 42.3 13.4042 41.1407 13.1366C39.9815 12.869 38.7808 12.8323 37.6074 13.0287L34.7157 13.5126C33.5423 13.7089 32.4191 14.1345 31.4101 14.765C30.4011 15.3954 29.5263 16.2184 28.8354 17.187C28.1445 18.1556 27.651 19.2508 27.3834 20.4101C27.1158 21.5694 27.0792 22.77 27.2755 23.9434L27.5512 25.591C27.7476 26.7644 28.1732 27.8877 28.8036 28.8966C29.4341 29.9056 30.2571 30.7805 31.2257 31.4714C32.1942 32.1623 33.2895 32.6556 34.4488 32.9233C35.608 33.1909 36.8086 33.2276 37.982 33.0312L40.8737 32.5473C42.0471 32.3509 43.1704 31.9254 44.1794 31.2949C45.1883 30.6644 46.0632 29.8414 46.7541 28.8728C47.445 27.9042 47.9383 26.809 48.206 25.6498C48.4736 24.4905 48.5103 23.2899 48.314 22.1164L48.0383 20.4689Z" stroke="#F69FAC" stroke-width="1.70457"/>
<path d="M71.5284 23.9849L71.7671 24.4282C71.9148 24.7009 72.1365 24.7862 72.432 24.6839C72.6878 24.5986 72.827 24.4083 72.8497 24.1128C72.9804 22.5272 72.5201 21.7543 71.4688 21.7941" stroke="#F69FAC" stroke-width="1.70457"/>
<path d="M71.4686 21.7945C70.4118 17.2774 67.0537 13.016 62.119 13.1267C57.9769 13.229 53.119 14.0984 51.5422 18.1467C50.9059 19.7945 50.4939 21.5757 50.3064 23.4905C50.1473 25.0928 50.4655 26.6951 51.2609 28.2974C53.0791 31.9622 56.1048 33.6611 60.3378 33.394C66.21 33.019 71.3066 30.5048 71.5282 23.9848" stroke="#F69FAC" stroke-width="1.70457"/>
<path d="M71.4688 21.7943C71.6165 22.5273 71.6363 23.2574 71.5284 23.9847" stroke="#F69FAC" stroke-width="1.70457"/>
<path d="M79.7786 17.3456C79.6308 17.5958 79.699 17.7407 79.9833 17.7805C80.1823 17.8089 80.3812 17.7947 80.5802 17.7379C80.7849 17.681 80.9213 17.5474 80.9895 17.3371C81.0407 17.1665 81.0322 16.9959 80.964 16.8254C80.9015 16.6548 80.7849 16.6008 80.6143 16.6634C80.2618 16.7827 79.9833 17.0102 79.7786 17.3456Z" stroke="#F69FAC" stroke-width="1.70457"/>
<path d="M8.40836 18.8455C8.13562 18.4023 7.98218 18.4393 7.94809 18.9563C7.90832 19.5529 8.20666 20.0075 8.84303 20.32C9.29758 20.5416 9.39129 20.4365 9.12424 20.0047L8.40836 18.8455Z" stroke="#F69FAC" stroke-width="1.70457"/>
<path d="M5.83232 25.3963C5.85737 25.3244 5.8622 25.2462 5.84648 25.1663C5.83076 25.0863 5.7948 25.0061 5.74071 24.9302C5.68663 24.8544 5.61548 24.7843 5.53126 24.7242C5.44704 24.664 5.35141 24.6148 5.24988 24.5795C5.04483 24.5081 4.8281 24.4973 4.64734 24.5495C4.46659 24.6017 4.33658 24.7126 4.28601 24.8579C4.26097 24.9298 4.25614 25.008 4.27185 25.0879C4.28757 25.1679 4.32353 25.2481 4.37762 25.324C4.43171 25.3998 4.50295 25.4699 4.58717 25.53C4.67139 25.5902 4.76692 25.6394 4.86845 25.6747C5.0735 25.7461 5.29024 25.7569 5.47099 25.7047C5.65174 25.6525 5.78175 25.5416 5.83232 25.3963Z" stroke="#F69FAC" stroke-width="1.70457"/>
<path d="M74.3157 39.4711C74.5488 39.5223 74.7706 39.3802 74.9809 39.0447C75.0052 39.0055 75.0202 38.9612 75.025 38.9153C75.0299 38.8694 75.0243 38.8231 75.0087 38.7797C74.9931 38.7363 74.968 38.6969 74.9351 38.6645C74.9022 38.6322 74.8625 38.6076 74.8188 38.5927C74.5516 38.5018 74.2673 38.5159 73.966 38.6353C73.9128 38.6581 73.8656 38.6928 73.8281 38.7369C73.7906 38.781 73.7636 38.8331 73.7496 38.8893C73.7356 38.9455 73.7347 39.0041 73.7471 39.0607C73.7595 39.1172 73.7849 39.1701 73.8211 39.2152C73.9235 39.3403 74.0883 39.4256 74.3157 39.4711Z" stroke="black" stroke-width="1.70457"/>
<path d="M40.2152 23.0385C40.2152 22.2677 39.909 21.5285 39.364 20.9834C38.819 20.4384 38.0797 20.1322 37.3089 20.1322C36.5381 20.1322 35.799 20.4384 35.254 20.9834C34.7089 21.5285 34.4027 22.2677 34.4027 23.0385C34.4027 23.8093 34.7089 24.5485 35.254 25.0935C35.799 25.6386 36.5381 25.9448 37.3089 25.9448C38.0797 25.9448 38.819 25.6386 39.364 25.0935C39.909 24.5485 40.2152 23.8093 40.2152 23.0385Z" stroke="black" stroke-width="1.70457"/>
<path d="M63.3638 23.4397C63.4181 22.7003 63.1514 21.9677 62.6223 21.4032C62.0932 20.8387 61.3451 20.4884 60.5426 20.4295C59.74 20.3706 58.9487 20.6078 58.3429 21.089C57.737 21.5702 57.3661 22.2559 57.3119 22.9953C57.2576 23.7347 57.5244 24.4672 58.0534 25.0317C58.5825 25.5963 59.3305 25.9466 60.1331 26.0055C60.9356 26.0644 61.7269 25.8272 62.3327 25.346C62.9386 24.8648 63.3095 24.1791 63.3638 23.4397Z" stroke="black" stroke-width="1.70457"/>
<path d="M54.1585 43.2716C53.5789 43.033 52.9597 43.0813 52.3006 43.4166L47.2635 43.0927C46.8488 42.8768 46.4737 42.8313 46.1385 42.9563C45.8487 43.0643 45.6499 43.3171 45.5419 43.7148C45.4567 44.0217 45.4056 44.3597 45.3886 44.729C45.5988 43.8824 45.4453 43.4534 44.9283 43.4421C41.0817 43.3511 37.2407 43.3597 33.4054 43.4677C31.0417 43.5302 28.8286 43.4904 26.7661 43.3483C25.6297 43.2688 24.6041 42.8881 23.6894 42.2063C17.1836 37.354 10.8227 32.2346 4.60673 26.8481C4.41355 26.6777 4.19204 26.5641 3.94203 26.5073C2.97043 26.2686 2.26294 25.6976 1.81975 24.7942C1.67794 24.5044 1.63135 24.1775 1.68648 23.8605C1.74161 23.5435 1.89572 23.2527 2.12667 23.0299L23.6638 2.3024C24.1898 1.79304 24.8878 1.50347 25.6155 1.49272C39.8202 1.29385 53.988 1.26547 68.1189 1.40751C70.957 1.4416 73.7354 1.20296 76.5138 1.56092C77.0941 1.63265 77.6359 1.89304 78.0565 2.3024L95.4602 18.9731C95.6854 19.1901 95.8242 19.4811 95.8508 19.7916C95.8775 20.1022 95.7901 20.4111 95.605 20.6606C95.1448 21.2799 94.5823 21.9248 93.9175 22.5953C87.3265 29.2317 80.6134 35.7403 73.778 42.1211C72.9939 42.854 72.4741 42.9989 71.4769 42.7262C71.1985 42.6523 70.92 42.6381 70.6416 42.6835C69.1757 42.9051 67.9229 43.2205 66.4143 43.1267C62.2665 42.8597 58.1813 42.908 54.1585 43.2716ZM38.5265 4.13342C38.6447 4.20872 38.7986 4.21734 38.9543 4.15735C39.11 4.09737 39.2548 3.97368 39.3568 3.81356C39.4588 3.65343 39.5097 3.46997 39.4982 3.30351C39.4868 3.13705 39.4139 3.0012 39.2958 2.9259C39.1776 2.85061 39.0238 2.84204 38.8681 2.90202C38.7123 2.96201 38.5675 3.08564 38.4655 3.24577C38.3635 3.4059 38.3126 3.5894 38.324 3.75587C38.3355 3.92233 38.4083 4.05813 38.5265 4.13342ZM62.7241 7.41516C62.7621 7.39613 62.7894 7.35659 62.8044 7.29879C62.8194 7.24099 62.8218 7.16605 62.8115 7.07828C62.8011 6.99051 62.7783 6.89161 62.7442 6.78724C62.7102 6.68286 62.6656 6.57506 62.613 6.46997C62.5067 6.25776 62.3743 6.06954 62.2449 5.94666C62.1154 5.82378 61.9996 5.77631 61.9228 5.81474C61.8847 5.83377 61.8573 5.8733 61.8423 5.9311C61.8273 5.9889 61.825 6.06384 61.8353 6.15161C61.8456 6.23938 61.8684 6.33829 61.9025 6.44266C61.9365 6.54704 61.9811 6.65484 62.0338 6.75993C62.14 6.97214 62.2724 7.16036 62.4019 7.28324C62.5313 7.40612 62.6472 7.45358 62.7241 7.41516ZM30.1838 8.22578C30.1123 8.26328 30.0538 8.32078 30.015 8.39135C29.9762 8.46192 29.9589 8.54254 29.9652 8.62357C29.9715 8.70459 30.0011 8.78252 30.0505 8.84803C30.0998 8.91353 30.1669 8.96381 30.2435 8.9928C30.4196 9.0553 30.6241 9.07519 30.8571 9.05246C31.2491 9.00701 31.323 8.83088 31.0787 8.52405C30.7889 8.15473 30.4906 8.05532 30.1838 8.22578ZM73.0024 9.78542L75.3718 11.2002C75.4286 11.2343 75.4713 11.223 75.4997 11.1662C75.7781 10.6718 75.7638 10.6292 75.457 11.0383C75.4172 11.0838 75.3803 11.0838 75.3462 11.0383C74.7326 10.2826 73.9741 9.80534 73.0707 9.60647C72.673 9.52124 72.6502 9.58087 73.0024 9.78542ZM18.2347 11.1662C18.587 11.0298 18.7206 10.7655 18.6354 10.3735C18.5899 10.1633 18.4592 10.0667 18.2433 10.0837L17.962 10.1093C17.6041 10.1434 17.462 10.3338 17.5359 10.6804C17.5814 10.8906 17.6979 11.0468 17.8854 11.1491C17.999 11.2059 18.1154 11.2116 18.2347 11.1662ZM48.0382 20.4689C47.8419 19.2955 47.4163 18.1722 46.7858 17.1632C46.1553 16.1542 45.3323 15.2793 44.3637 14.5885C43.3951 13.8976 42.2999 13.4042 41.1407 13.1366C39.9814 12.869 38.7807 12.8323 37.6073 13.0287L34.7157 13.5125C33.5422 13.7089 32.419 14.1345 31.4101 14.765C30.4011 15.3954 29.5262 16.2184 28.8353 17.187C28.1444 18.1556 27.651 19.2508 27.3834 20.4101C27.1157 21.5693 27.0791 22.7699 27.2755 23.9434L27.5512 25.5909C27.7475 26.7644 28.1731 27.8876 28.8036 28.8966C29.434 29.9056 30.257 30.7805 31.2256 31.4714C32.1942 32.1623 33.2894 32.6556 34.4487 32.9233C35.608 33.1909 36.8085 33.2276 37.982 33.0312L40.8736 32.5473C42.047 32.3509 43.1704 31.9254 44.1793 31.2949C45.1883 30.6644 46.0632 29.8414 46.7541 28.8728C47.445 27.9042 47.9383 26.809 48.2059 25.6498C48.4736 24.4905 48.5103 23.2898 48.3139 22.1164L48.0382 20.4689ZM71.528 23.9845L71.7667 24.4277C71.9144 24.7004 72.136 24.7856 72.4315 24.6834C72.6872 24.5981 72.8264 24.4078 72.8491 24.1123C72.9798 22.5271 72.5195 21.7543 71.4684 21.7941C70.4116 17.277 67.0535 13.0156 62.1188 13.1264C57.9767 13.2287 53.1187 14.098 51.542 18.1464C50.9056 19.7941 50.4936 21.5753 50.3061 23.4901C50.147 25.0924 50.4652 26.6947 51.2607 28.297C53.0789 31.9618 56.1045 33.6607 60.3375 33.3937C66.2098 33.0187 71.3064 30.5044 71.528 23.9845ZM79.7782 17.3452C79.6304 17.5952 79.6986 17.7401 79.9827 17.7798C80.1816 17.8082 80.3804 17.794 80.5792 17.7372C80.7838 17.6804 80.9201 17.5469 80.9883 17.3367C81.0395 17.1662 81.031 16.9957 80.9628 16.8253C80.9003 16.6548 80.7838 16.6008 80.6134 16.6633C80.2611 16.7827 79.9827 17.01 79.7782 17.3452ZM8.40799 18.8452C8.13526 18.402 7.98181 18.4389 7.94772 18.956C7.90795 19.5526 8.20629 20.0072 8.84266 20.3197C9.29721 20.5413 9.39092 20.4362 9.12388 20.0043L8.40799 18.8452ZM5.83116 25.3956C5.85619 25.3237 5.86102 25.2456 5.84531 25.1657C5.82961 25.0858 5.79366 25.0056 5.73961 24.9298C5.68556 24.854 5.61446 24.784 5.53028 24.7238C5.44611 24.6637 5.35054 24.6145 5.24907 24.5792C5.04414 24.5079 4.82754 24.4971 4.64689 24.5492C4.46625 24.6014 4.33632 24.7123 4.28578 24.8575C4.26075 24.9293 4.25592 25.0075 4.27163 25.0874C4.28733 25.1673 4.32328 25.2475 4.37733 25.3233C4.43138 25.3991 4.50259 25.4691 4.58676 25.5292C4.67093 25.5894 4.7664 25.6385 4.86787 25.6739C5.0728 25.7452 5.2894 25.756 5.47005 25.7038C5.65069 25.6516 5.78062 25.5408 5.83116 25.3956ZM74.315 39.4705C74.5479 39.5216 74.7696 39.3796 74.9798 39.0444C75.004 39.0051 75.0191 38.9609 75.0239 38.915C75.0287 38.8692 75.0231 38.8229 75.0076 38.7795C74.992 38.7361 74.9669 38.6968 74.934 38.6644C74.9012 38.6321 74.8614 38.6075 74.8178 38.5926C74.5508 38.5017 74.2667 38.5159 73.9655 38.6352C73.9123 38.6579 73.8652 38.6927 73.8277 38.7367C73.7902 38.7807 73.7633 38.8329 73.7492 38.889C73.7352 38.9451 73.7343 39.0038 73.7467 39.0603C73.7591 39.1168 73.7845 39.1697 73.8207 39.2148C73.923 39.3398 74.0877 39.425 74.315 39.4705Z" fill="#F69FAC"/>
<path d="M38.4648 3.24619C38.2523 3.57986 38.2796 3.97754 38.5259 4.13444C38.7721 4.29133 39.1441 4.14803 39.3567 3.81436C39.5693 3.4807 39.5419 3.08302 39.2956 2.92612C39.0494 2.76922 38.6774 2.91252 38.4648 3.24619Z" fill="#F69FAC"/>
<path d="M62.0342 6.76025C62.2555 7.20217 62.5645 7.4955 62.7245 7.41541C62.8844 7.33532 62.8346 6.91215 62.6133 6.47022C62.392 6.02829 62.083 5.73497 61.9231 5.81506C61.7631 5.89515 61.8129 6.31832 62.0342 6.76025Z" fill="#F69FAC"/>
<path d="M30.1841 8.22606C30.4911 8.0555 30.7896 8.15497 31.0796 8.52452C31.324 8.83152 31.2501 9.00776 30.8578 9.05324C30.6247 9.07598 30.4201 9.05608 30.2438 8.99354C30.1672 8.96453 30.1001 8.91423 30.0507 8.84868C30.0014 8.78314 29.9717 8.70516 29.9654 8.62409C29.9591 8.54302 29.9764 8.46235 30.0152 8.39174C30.054 8.32112 30.1126 8.26358 30.1841 8.22606Z" fill="#F69FAC"/>
<path d="M73.0711 9.60658C73.9747 9.80549 74.7333 10.2829 75.3471 11.0387C75.3812 11.0842 75.4181 11.0842 75.4579 11.0387C75.7648 10.6295 75.7791 10.6722 75.5006 11.1666C75.4722 11.2234 75.4295 11.2348 75.3727 11.2007L73.0029 9.78557C72.6505 9.58098 72.6733 9.52134 73.0711 9.60658Z" fill="#F69FAC"/>
<path d="M18.2355 11.167C18.1162 11.2125 17.9997 11.2068 17.886 11.1499C17.6984 11.0476 17.5818 10.8913 17.5363 10.6809C17.4624 10.3341 17.6045 10.1436 17.9627 10.1095L18.2441 10.084C18.4601 10.0669 18.591 10.1635 18.6364 10.3739C18.7217 10.7662 18.588 11.0306 18.2355 11.167Z" fill="#F69FAC"/>
<path d="M48.314 22.1164C48.5103 23.2899 48.4736 24.4905 48.206 25.6498C47.9383 26.809 47.445 27.9042 46.7541 28.8728C46.0632 29.8414 45.1883 30.6644 44.1794 31.2949C43.1704 31.9254 42.0471 32.3509 40.8737 32.5473L37.982 33.0312C36.8086 33.2276 35.608 33.1909 34.4488 32.9233C33.2895 32.6556 32.1942 32.1623 31.2257 31.4714C30.2571 30.7805 29.4341 29.9056 28.8036 28.8966C28.1732 27.8877 27.7476 26.7644 27.5512 25.591L27.2755 23.9434C27.0792 22.77 27.1158 21.5694 27.3834 20.4101C27.651 19.2508 28.1445 18.1556 28.8354 17.187C29.5263 16.2184 30.4011 15.3954 31.4101 14.765C32.4191 14.1345 33.5423 13.7089 34.7157 13.5126L37.6074 13.0287C38.7808 12.8323 39.9815 12.869 41.1407 13.1366C42.3 13.4042 43.3951 13.8976 44.3637 14.5885C45.3323 15.2794 46.1554 16.1542 46.7859 17.1632C47.4163 18.1722 47.8419 19.2955 48.0383 20.4689L48.314 22.1164ZM40.2152 23.0385C40.2152 22.2677 39.909 21.5284 39.364 20.9834C38.8189 20.4384 38.0797 20.1322 37.3089 20.1322C36.5381 20.1322 35.799 20.4384 35.2539 20.9834C34.7089 21.5284 34.4027 22.2677 34.4027 23.0385C34.4027 23.8093 34.7089 24.5485 35.2539 25.0935C35.799 25.6385 36.5381 25.9447 37.3089 25.9447C38.0797 25.9447 38.8189 25.6385 39.364 25.0935C39.909 24.5485 40.2152 23.8093 40.2152 23.0385Z" fill="white"/>
<path d="M71.4686 21.7945C71.6164 22.5274 71.6362 23.2575 71.5282 23.9848C71.3066 30.5048 66.21 33.019 60.3378 33.394C56.1048 33.6611 53.0791 31.9622 51.2609 28.2974C50.4655 26.6951 50.1473 25.0928 50.3064 23.4905C50.4939 21.5757 50.9059 19.7945 51.5422 18.1467C53.119 14.0984 57.9769 13.229 62.119 13.1267C67.0537 13.016 70.4118 17.2774 71.4686 21.7945ZM63.3637 23.44C63.418 22.7006 63.1513 21.968 62.6222 21.4035C62.0932 20.839 61.345 20.4887 60.5425 20.4298C59.74 20.3709 58.9487 20.6081 58.3428 21.0893C57.737 21.5705 57.3661 22.2562 57.3118 22.9956C57.2575 23.735 57.5243 24.4675 58.0534 25.032C58.5825 25.5965 59.3305 25.9468 60.133 26.0058C60.9356 26.0647 61.7268 25.8275 62.3327 25.3463C62.9386 24.8651 63.3094 24.1794 63.3637 23.44Z" fill="white"/>
<path d="M79.7786 17.3456C79.9833 17.0102 80.2618 16.7827 80.6143 16.6634C80.7849 16.6008 80.9015 16.6548 80.964 16.8254C81.0322 16.9959 81.0407 17.1665 80.9895 17.3371C80.9213 17.5474 80.7849 17.681 80.5802 17.7379C80.3812 17.7947 80.1823 17.8089 79.9833 17.7805C79.699 17.7407 79.6308 17.5958 79.7786 17.3456Z" fill="#F69FAC"/>
<path d="M8.40836 18.8455L9.12424 20.0047C9.39129 20.4365 9.29758 20.5416 8.84303 20.32C8.20666 20.0075 7.90832 19.5529 7.94809 18.9563C7.98218 18.4393 8.13562 18.4023 8.40836 18.8455Z" fill="#F69FAC"/>
<path d="M37.3089 25.9448C38.914 25.9448 40.2152 24.6436 40.2152 23.0385C40.2152 21.4334 38.914 20.1322 37.3089 20.1322C35.7038 20.1322 34.4027 21.4334 34.4027 23.0385C34.4027 24.6436 35.7038 25.9448 37.3089 25.9448Z" fill="black"/>
<path d="M60.1332 26.0057C61.8044 26.1284 63.2509 24.9797 63.3639 23.4399C63.477 21.9002 62.2139 20.5525 60.5427 20.4297C58.8715 20.307 57.4251 21.4557 57.312 22.9955C57.1989 24.5353 58.462 25.883 60.1332 26.0057Z" fill="black"/>
<path d="M71.4688 21.7941C72.5201 21.7543 72.9804 22.5272 72.8497 24.1128C72.827 24.4083 72.6878 24.5986 72.432 24.6839C72.1365 24.7862 71.9148 24.7009 71.7671 24.4282L71.5284 23.9849C71.6364 23.2574 71.6165 22.5272 71.4688 21.7941Z" fill="#F69FAC"/>
<path d="M4.86841 25.6749C5.2954 25.8236 5.72693 25.699 5.83226 25.3965C5.93759 25.0941 5.67682 24.7284 5.24983 24.5797C4.82283 24.431 4.3913 24.5556 4.28598 24.8581C4.18065 25.1605 4.44141 25.5263 4.86841 25.6749Z" fill="#F69FAC"/>
<path d="M74.3157 39.4711C74.0883 39.4256 73.9235 39.3403 73.8211 39.2152C73.7849 39.1701 73.7595 39.1172 73.7471 39.0607C73.7347 39.0041 73.7356 38.9455 73.7496 38.8893C73.7636 38.8331 73.7906 38.781 73.8281 38.7369C73.8656 38.6928 73.9128 38.6581 73.966 38.6353C74.2673 38.5159 74.5516 38.5018 74.8188 38.5927C74.8625 38.6076 74.9022 38.6322 74.9351 38.6645C74.968 38.6969 74.9931 38.7363 75.0087 38.7797C75.0243 38.8231 75.0299 38.8694 75.025 38.9153C75.0202 38.9612 75.0052 39.0055 74.9809 39.0447C74.7706 39.3802 74.5488 39.5223 74.3157 39.4711Z" fill="black"/>
<path d="M47.2639 43.0931L47.315 94.5369C47.315 94.598 47.3029 94.6586 47.2792 94.715C47.2556 94.7714 47.2209 94.8225 47.1773 94.8653C47.1336 94.9082 47.0819 94.9418 47.025 94.9645C46.9682 94.9871 46.9075 94.9982 46.8463 94.997L38.724 94.8522C38.4229 94.8465 38.2694 94.6931 38.2638 94.3919L38.2552 93.7698C38.2495 93.3152 38.4769 93.0851 38.9371 93.0794L44.8008 93.0283C44.8724 93.0283 44.9433 93.014 45.0095 92.9862C45.0757 92.9583 45.1358 92.9174 45.1865 92.866C45.2371 92.8146 45.2774 92.7535 45.3048 92.6863C45.3322 92.6191 45.3463 92.5471 45.3463 92.4743L45.3889 44.7294C45.406 44.3601 45.4571 44.022 45.5423 43.7152C45.6502 43.3175 45.8491 43.0646 46.1388 42.9567C46.4741 42.8317 46.8491 42.8772 47.2639 43.0931Z" fill="black"/>
<path d="M54.1588 43.2719L54.2185 92.5339C54.2185 92.5977 54.2308 92.6608 54.2548 92.7197C54.2788 92.7786 54.3139 92.8322 54.3582 92.8773C54.4025 92.9224 54.4552 92.9583 54.5131 92.9827C54.571 93.0071 54.633 93.0196 54.6957 93.0196L60.5424 93.0282C61.0822 93.0282 61.3493 93.298 61.3436 93.8378V94.2299C61.3414 94.4168 61.2661 94.5955 61.1339 94.7276C61.0017 94.8598 60.823 94.9351 60.6361 94.9373L52.7781 95.0054C52.7125 95.0065 52.6473 94.9946 52.5863 94.9703C52.5254 94.9459 52.4698 94.9097 52.423 94.8637C52.3762 94.8177 52.339 94.7628 52.3137 94.7023C52.2883 94.6417 52.2753 94.5768 52.2753 94.5111L52.3009 43.4168C52.96 43.0816 53.5792 43.0332 54.1588 43.2719Z" fill="black"/>
</svg>
