<svg width="88" height="92" viewBox="0 0 88 92" fill="none" xmlns="http://www.w3.org/2000/svg">
<path d="M38.3339 54.3225C37.3396 57.8623 36.3879 61.4135 35.4788 64.976C33.5526 72.4847 32.4191 80.3087 31.2003 88.0218C31.176 88.1716 31.0993 88.3079 30.9837 88.4062C30.8682 88.5046 30.7214 88.5587 30.5696 88.5588L24.2115 88.5758C23.7854 88.5758 23.5923 88.7889 23.632 89.215L23.7002 89.9394C23.7151 90.103 23.7908 90.2549 23.9123 90.3654C24.0338 90.4758 24.1923 90.5367 24.3565 90.536L32.3934 90.5445C32.524 90.5441 32.6504 90.4968 32.7502 90.4111C32.85 90.3253 32.9168 90.2066 32.9389 90.0758C33.6889 85.2462 34.4503 80.4564 35.2231 75.7064C36.314 69.033 38.1464 62.5045 39.9448 55.8396C40.0868 55.2941 39.9021 54.7913 39.3907 54.331" stroke="black" stroke-width="1.70457"/>
<path d="M39.3904 54.3315C39.4188 54.2576 39.4444 54.1837 39.4671 54.1099C39.4728 54.0985 39.4813 54.0928 39.4927 54.0928L86.1125 53.3173C86.1503 53.3158 86.1874 53.306 86.2209 53.2885C86.2545 53.271 86.2836 53.2462 86.3065 53.2161C86.3293 53.1859 86.3451 53.151 86.3529 53.114C86.3606 53.077 86.36 53.0387 86.3512 53.002C84.6409 45.553 82.9676 38.3796 81.3312 31.4818C81.0471 30.2715 80.6238 29.0442 80.0613 27.7999C76.959 20.9362 73.8965 14.0412 70.8737 7.11502C70.8388 7.03677 70.7821 6.97029 70.7103 6.92364C70.6384 6.87699 70.5546 6.85217 70.4689 6.85217C70.3832 6.85217 70.2994 6.87699 70.2275 6.92364C70.1557 6.97029 70.0989 7.03677 70.0641 7.11502L60.8339 27.8255C60.8061 27.8896 60.7605 27.9445 60.7026 27.9836C60.6447 28.0227 60.5768 28.0445 60.5069 28.0463C60.437 28.0481 60.368 28.0299 60.3082 27.9938C60.2483 27.9577 60.2001 27.9052 60.1691 27.8425L49.1661 6.48434C49.1356 6.42368 49.088 6.37323 49.0293 6.33915C48.9705 6.30508 48.9032 6.28882 48.8353 6.29244C48.7675 6.29606 48.7022 6.31937 48.6474 6.35949C48.5927 6.39962 48.5508 6.45485 48.5269 6.51841L42.2455 23.1976C42.2262 23.253 42.1912 23.3012 42.1446 23.3367C42.0981 23.3722 42.042 23.3935 41.9828 23.398C41.9237 23.4025 41.8641 23.39 41.811 23.362C41.7579 23.3341 41.7135 23.2918 41.683 23.2402L33.0323 8.40198C32.9994 8.34424 32.9512 8.29675 32.8929 8.2649C32.8346 8.23306 32.7685 8.21809 32.7022 8.22162C32.6359 8.22516 32.5718 8.24711 32.5172 8.28498C32.4626 8.32285 32.4197 8.37515 32.3931 8.43605L23.9471 27.7743C23.9118 27.8545 23.8535 27.9223 23.7797 27.9694C23.7058 28.0164 23.6198 28.0405 23.5323 28.0387C23.4447 28.0369 23.3598 28.0092 23.288 27.9591C23.2162 27.909 23.1607 27.8388 23.1288 27.7573L13.1998 2.39334C12.8418 1.48424 12.5606 1.50698 12.356 2.46154L1.17408 54.1184C1.15602 54.2028 1.15704 54.2903 1.1771 54.3741C1.19716 54.458 1.23572 54.5361 1.28988 54.6026C1.34403 54.669 1.41236 54.7221 1.48973 54.7578C1.56711 54.7935 1.65144 54.811 1.73651 54.8088L38.0353 54.1184C38.149 54.1127 38.2512 54.1468 38.3421 54.2207C38.5012 54.357 38.4984 54.3911 38.3336 54.3229" stroke="#007C91" stroke-width="1.70457"/>
<path d="M39.3912 54.3313C39.1126 54.2744 38.7601 54.2716 38.3337 54.3227" stroke="#007C91" stroke-width="1.70457"/>
<path d="M54.5781 87.792C54.7713 83.4908 54.9446 78.3685 55.098 72.4253C55.1321 71.1696 54.8765 69.9622 54.331 68.8031C52.0867 64.0587 49.7429 59.2434 47.2997 54.3569C47.2569 54.2694 47.1933 54.1937 47.1145 54.1363C47.0356 54.0789 46.9437 54.0416 46.8467 54.0273C46.7496 54.0131 46.6502 54.0224 46.5569 54.0546C46.4637 54.0868 46.3793 54.1407 46.311 54.212L46.1235 54.408C45.941 54.5974 45.8211 54.8386 45.78 55.0991C45.7388 55.3597 45.7784 55.6272 45.8934 55.8655L52.6264 69.8855C52.9344 70.5181 53.0862 71.2166 53.0695 71.9225L52.6434 90.1358C52.6422 90.1965 52.6533 90.2569 52.6761 90.3132C52.6988 90.3696 52.7327 90.4208 52.7756 90.4638C52.8186 90.5068 52.8698 90.5406 52.9262 90.5634C52.9825 90.5861 53.0429 90.5972 53.1037 90.596L61.4134 90.3403C61.885 90.3232 62.1095 90.0789 62.0868 89.6073C62.0811 89.5392 62.0754 89.4312 62.0697 89.2835C62.047 88.8857 61.8396 88.6841 61.4475 88.6784L55.311 88.5761C54.7997 88.5647 54.5554 88.3033 54.5781 87.792Z" stroke="black" stroke-width="1.70457"/>
<path d="M33.1773 39.3909C33.1432 39.1693 33.0011 38.979 32.7511 38.8199C32.5807 38.712 32.3619 38.6693 32.0948 38.692C30.6119 38.8284 29.1375 38.7602 27.6715 38.4875C27.5352 38.4648 27.4301 38.5131 27.3562 38.6324C27.3107 38.712 27.2567 38.7745 27.1942 38.8199" stroke="#007C91" stroke-width="1.70457"/>
<path d="M27.1943 38.8196C27.1375 38.5469 26.9699 38.4161 26.6915 38.4275C24.7881 38.507 23.0352 38.4872 21.4329 38.3679C20.3817 38.294 19.8931 38.7826 19.967 39.8338C20.0579 41.1122 20.3619 42.3708 20.879 43.6094C21.3392 44.7117 22.1659 45.2628 23.3591 45.2628H38.9473C39.3533 45.263 39.7459 45.117 40.054 44.8511C40.3621 44.5853 40.5651 44.2173 40.6263 43.814L41.3082 39.4418C41.4332 38.652 41.0979 38.2997 40.3024 38.3849C38.382 38.5952 36.311 38.6009 34.0894 38.402C33.9435 38.3893 33.7972 38.4177 33.6675 38.4841C33.5378 38.5504 33.4298 38.652 33.3563 38.7769C33.2484 38.9588 33.1887 39.1633 33.1774 39.3906" stroke="#007C91" stroke-width="1.70457"/>
<path d="M27.1942 38.8199C27.5692 43.0473 32.6829 43.0131 33.1773 39.3909" stroke="#007C91" stroke-width="1.70457"/>
<path d="M56.2148 38.4363L50.334 38.4704" stroke="#007C91" stroke-width="1.70457"/>
<path d="M50.3338 38.4702L44.598 38.4531C43.2627 38.4531 42.74 39.1065 43.0298 40.4134L43.6945 43.422C43.9672 44.6606 44.74 45.2799 46.0128 45.2799L62.2743 45.2203C62.6277 45.2211 62.9695 45.0928 63.236 44.8592C63.5026 44.6255 63.6756 44.3026 63.7231 43.9504L64.3369 39.3651C64.4278 38.7003 64.138 38.3707 63.4675 38.3764L56.2146 38.436" stroke="#007C91" stroke-width="1.70457"/>
<path d="M50.3338 38.4704C49.7628 43.2091 56.581 43.9079 56.2146 38.4363" stroke="#007C91" stroke-width="1.70457"/>
<path d="M39.3904 54.3315C39.112 54.2746 38.7597 54.2718 38.3336 54.3229C38.4984 54.3911 38.5012 54.357 38.3421 54.2207C38.2512 54.1468 38.149 54.1127 38.0353 54.1184L1.73651 54.8088C1.65144 54.811 1.56711 54.7935 1.48973 54.7578C1.41236 54.7221 1.34403 54.669 1.28988 54.6026C1.23572 54.5361 1.19716 54.458 1.1771 54.3741C1.15704 54.2903 1.15602 54.2028 1.17408 54.1184L12.356 2.46154C12.5606 1.50698 12.8418 1.48424 13.1998 2.39334L23.1288 27.7573C23.1607 27.8388 23.2162 27.909 23.288 27.9591C23.3598 28.0092 23.4447 28.0369 23.5323 28.0387C23.6198 28.0405 23.7058 28.0164 23.7797 27.9694C23.8535 27.9223 23.9118 27.8545 23.9471 27.7743L32.3931 8.43605C32.4197 8.37514 32.4626 8.32285 32.5172 8.28498C32.5718 8.24711 32.6359 8.22516 32.7022 8.22162C32.7685 8.21809 32.8346 8.23306 32.8929 8.2649C32.9512 8.29675 32.9994 8.34424 33.0323 8.40198L41.683 23.2402C41.7135 23.2918 41.7579 23.3341 41.811 23.362C41.8641 23.39 41.9237 23.4025 41.9828 23.398C42.042 23.3935 42.0981 23.3722 42.1446 23.3367C42.1912 23.3012 42.2262 23.253 42.2455 23.1976L48.5269 6.51841C48.5508 6.45485 48.5927 6.39962 48.6474 6.35949C48.7022 6.31937 48.7675 6.29606 48.8353 6.29244C48.9032 6.28882 48.9705 6.30508 49.0293 6.33915C49.088 6.37323 49.1356 6.42368 49.1661 6.48434L60.1691 27.8425C60.2001 27.9052 60.2483 27.9577 60.3082 27.9938C60.368 28.0299 60.437 28.0481 60.5069 28.0463C60.5768 28.0445 60.6447 28.0227 60.7026 27.9836C60.7605 27.9445 60.8061 27.8896 60.8339 27.8255L70.0641 7.11502C70.0989 7.03677 70.1557 6.97029 70.2275 6.92364C70.2994 6.87699 70.3832 6.85217 70.4689 6.85217C70.5546 6.85217 70.6384 6.87699 70.7103 6.92364C70.7821 6.97029 70.8388 7.03677 70.8737 7.11502C73.8965 14.0412 76.959 20.9362 80.0613 27.7999C80.6238 29.0442 81.0471 30.2715 81.3312 31.4818C82.9676 38.3796 84.6409 45.553 86.3512 53.002C86.36 53.0387 86.3606 53.077 86.3529 53.114C86.3451 53.151 86.3293 53.1859 86.3065 53.2161C86.2836 53.2462 86.2545 53.271 86.2209 53.2885C86.1874 53.306 86.1503 53.3158 86.1125 53.3173L39.4927 54.0928C39.4813 54.0928 39.4728 54.0985 39.4671 54.1099C39.4444 54.1837 39.4188 54.2576 39.3904 54.3315ZM33.1772 39.3909C33.1432 39.1693 33.0011 38.979 32.7511 38.82C32.5806 38.712 32.3619 38.6694 32.0948 38.6921C30.6119 38.8285 29.1375 38.7603 27.6715 38.4876C27.5352 38.4648 27.4301 38.5132 27.3562 38.6325C27.3107 38.712 27.2567 38.7745 27.1942 38.82C27.1374 38.5472 26.9698 38.4165 26.6914 38.4278C24.788 38.5074 23.0351 38.4875 21.4328 38.3682C20.3816 38.2944 19.893 38.783 19.9669 39.8341C20.0578 41.1125 20.3618 42.3711 20.8789 43.6098C21.3391 44.7121 22.1657 45.2632 23.3589 45.2632H38.9472C39.3531 45.2634 39.7458 45.1173 40.0539 44.8515C40.362 44.5856 40.565 44.2176 40.6262 43.8143L41.3081 39.4421C41.4331 38.6523 41.0978 38.3001 40.3023 38.3853C38.3818 38.5955 36.3109 38.6012 34.0892 38.4023C33.9434 38.3896 33.7971 38.4181 33.6674 38.4844C33.5377 38.5508 33.4297 38.6523 33.3562 38.7773C33.2482 38.9591 33.1886 39.1636 33.1772 39.3909ZM56.2145 38.4364L50.3337 38.4705L44.5979 38.4534C43.2626 38.4534 42.7399 39.1069 43.0297 40.4137L43.6944 43.4223C43.9671 44.661 44.7399 45.2802 46.0127 45.2802L62.2742 45.2206C62.6276 45.2215 62.9694 45.0931 63.2359 44.8595C63.5025 44.6259 63.6755 44.303 63.723 43.9507L64.3368 39.3654C64.4277 38.7006 64.1379 38.3711 63.4674 38.3768L56.2145 38.4364Z" fill="#007C91"/>
<path d="M27.1943 38.8196C27.5693 43.0469 32.6831 43.0128 33.1774 39.3906C33.1887 39.1633 33.2484 38.9588 33.3563 38.7769C33.4298 38.652 33.5378 38.5504 33.6675 38.4841C33.7972 38.4177 33.9435 38.3893 34.0894 38.402C36.311 38.6009 38.382 38.5952 40.3025 38.3849C41.0979 38.2997 41.4332 38.652 41.3082 39.4418L40.6263 43.814C40.5651 44.2173 40.3621 44.5853 40.054 44.8511C39.7459 45.117 39.3533 45.263 38.9473 45.2628H23.3591C22.1659 45.2628 21.3392 44.7117 20.879 43.6094C20.3619 42.3708 20.0579 41.1122 19.967 39.8338C19.8931 38.7826 20.3817 38.294 21.4329 38.3679C23.0352 38.4872 24.7881 38.507 26.6915 38.4275C26.9699 38.4161 27.1375 38.5469 27.1943 38.8196Z" fill="white"/>
<path d="M33.1773 39.3909C32.6829 43.0131 27.5692 43.0472 27.1942 38.8199C27.2567 38.7745 27.3107 38.712 27.3562 38.6324C27.4301 38.5131 27.5352 38.4648 27.6715 38.4875C29.1375 38.7602 30.6119 38.8284 32.0948 38.692C32.3619 38.6693 32.5807 38.712 32.7511 38.8199C33.0011 38.979 33.1432 39.1693 33.1773 39.3909Z" fill="black"/>
<path d="M50.3338 38.4702C49.7628 43.2088 56.5811 43.9077 56.2146 38.436L63.4675 38.3764C64.138 38.3707 64.4278 38.7003 64.3369 39.3651L63.7231 43.9504C63.6756 44.3026 63.5026 44.6255 63.236 44.8592C62.9695 45.0928 62.6277 45.2211 62.2743 45.2203L46.0128 45.2799C44.74 45.2799 43.9672 44.6606 43.6945 43.422L43.0298 40.4134C42.74 39.1065 43.2627 38.4531 44.598 38.4531L50.3338 38.4702Z" fill="white"/>
<path d="M56.2146 38.4363C56.581 43.9079 49.7628 43.2091 50.3338 38.4704L56.2146 38.4363Z" fill="black"/>
<path d="M55.311 88.5761L61.4475 88.6784C61.8396 88.6841 62.047 88.8857 62.0697 89.2835C62.0754 89.4312 62.0811 89.5392 62.0868 89.6073C62.1095 90.0789 61.885 90.3232 61.4134 90.3403L53.1037 90.596C53.0429 90.5972 52.9825 90.5861 52.9262 90.5634C52.8698 90.5406 52.8186 90.5068 52.7756 90.4638C52.7327 90.4208 52.6988 90.3696 52.6761 90.3132C52.6533 90.2569 52.6422 90.1965 52.6434 90.1358L53.0695 71.9225C53.0862 71.2166 52.9344 70.5181 52.6264 69.8855L45.8934 55.8655C45.7784 55.6272 45.7388 55.3597 45.78 55.0991C45.8211 54.8386 45.941 54.5974 46.1235 54.408L46.311 54.212C46.3793 54.1407 46.4637 54.0868 46.5569 54.0546C46.6502 54.0224 46.7496 54.0131 46.8467 54.0273C46.9437 54.0416 47.0356 54.0789 47.1145 54.1363C47.1933 54.1937 47.2569 54.2694 47.2997 54.3569C49.7429 59.2434 52.0867 64.0587 54.331 68.8031C54.8765 69.9622 55.1321 71.1696 55.098 72.4253C54.9446 78.3685 54.7713 83.4908 54.5781 87.792C54.5554 88.3033 54.7997 88.5647 55.311 88.5761Z" fill="black"/>
<path d="M38.3339 54.3227C38.7601 54.2716 39.1123 54.2744 39.3907 54.3312C39.9021 54.7915 40.0868 55.2943 39.9448 55.8398C38.1464 62.5046 36.314 69.0332 35.2231 75.7066C34.4503 80.4566 33.6889 85.2464 32.9389 90.076C32.9168 90.2068 32.85 90.3255 32.7502 90.4113C32.6504 90.497 32.524 90.5443 32.3934 90.5447L24.3565 90.5362C24.1923 90.5369 24.0338 90.476 23.9123 90.3656C23.7908 90.2551 23.7151 90.1032 23.7002 89.9396L23.632 89.2152C23.5923 88.7891 23.7854 88.576 24.2115 88.576L30.5696 88.5589C30.7214 88.5589 30.8682 88.5048 30.9837 88.4064C31.0993 88.3081 31.176 88.1718 31.2003 88.022C32.4191 80.3088 33.5526 72.4849 35.4788 64.9762C36.3879 61.4137 37.3396 57.8625 38.3339 54.3227Z" fill="black"/>
</svg>
