<svg width="71" height="111" viewBox="0 0 71 111" fill="none" xmlns="http://www.w3.org/2000/svg">
<path d="M13.4153 22.8306L15.904 28.1829" stroke="black" stroke-width="1.70457"/>
<path d="M15.9038 28.1826L22.2362 41.5123" stroke="#BE6901" stroke-width="1.70457"/>
<path d="M22.2366 41.5125C22.7196 43.1833 23.5778 44.7489 24.811 46.2095" stroke="black" stroke-width="1.70457"/>
<path d="M24.8101 46.2084C24.1226 48.8561 22.8129 51.5721 20.8811 54.3562" stroke="#BE6901" stroke-width="1.70457"/>
<path d="M20.8815 54.3562L20.3101 55.6694" stroke="black" stroke-width="1.70457"/>
<path d="M20.3102 55.6688L16.0146 63.8934" stroke="#BE6901" stroke-width="1.70457"/>
<path d="M16.0147 63.8932C15.2532 64.7172 14.7219 65.6266 14.4207 66.6211" stroke="#BE6901" stroke-width="1.70457"/>
<path d="M14.4209 66.6207L11.114 73.2259" stroke="#BE6901" stroke-width="1.70457"/>
<path d="M11.1141 73.226L9.32397 76.0902" stroke="black" stroke-width="1.70457"/>
<path d="M9.32413 76.0895L1.50023 90.5527C1.28431 90.9447 1.40072 91.1351 1.84959 91.1238L28.4494 90.2459" stroke="#BE6901" stroke-width="1.70457"/>
<path d="M28.4493 90.2457L28.4323 107.002C28.4323 107.394 28.2362 107.59 27.8442 107.59L22.0743 107.607C22.0098 107.607 21.9458 107.62 21.8866 107.645C21.8274 107.671 21.7741 107.709 21.7301 107.756C21.6861 107.803 21.6523 107.859 21.6309 107.92C21.6094 107.981 21.6008 108.045 21.6055 108.11L21.6226 108.382C21.6566 108.882 21.9236 109.141 22.4236 109.158L29.9323 109.337C29.9722 109.338 30.0119 109.331 30.049 109.317C30.0862 109.302 30.1201 109.28 30.1487 109.253C30.1773 109.225 30.2001 109.191 30.2156 109.155C30.2311 109.118 30.2391 109.079 30.2391 109.039L30.1027 90.3139" stroke="black" stroke-width="1.70457"/>
<path d="M30.1025 90.3141L42.9294 89.9902" stroke="#BE6901" stroke-width="1.70457"/>
<path d="M42.9297 89.9902L42.7081 108.783C42.7069 108.858 42.7209 108.932 42.7493 109.002C42.7777 109.071 42.8198 109.134 42.8732 109.187C42.9266 109.239 42.9901 109.28 43.0598 109.308C43.1296 109.335 43.2042 109.348 43.2791 109.346L50.711 109.158C51.1826 109.147 51.4184 108.905 51.4184 108.434V108.178C51.4188 108.091 51.401 108.005 51.3661 107.925C51.3311 107.846 51.2799 107.774 51.2156 107.716C51.1514 107.657 51.0756 107.612 50.9931 107.585C50.9106 107.557 50.8232 107.547 50.7366 107.556C48.7707 107.76 46.9127 107.746 45.1627 107.513C44.8445 107.473 44.6853 107.294 44.6853 106.976L44.5745 89.6152" stroke="black" stroke-width="1.70457"/>
<path d="M44.5747 89.6151L69.683 89.0525C69.7578 89.0508 69.8309 89.0306 69.8959 88.9937C69.9609 88.9567 70.0157 88.9042 70.0554 88.8408C70.0951 88.7775 70.1185 88.7053 70.1234 88.6307C70.1283 88.5561 70.1146 88.4814 70.0836 88.4133L68.2001 84.2798" stroke="#BE6901" stroke-width="1.70457"/>
<path d="M68.2001 84.2799L67.2881 82.2344" stroke="black" stroke-width="1.70457"/>
<path d="M67.288 82.2345L61.2197 68.7002" stroke="#BE6901" stroke-width="1.70457"/>
<path d="M61.2197 68.7001L60.1543 66.433" stroke="black" stroke-width="1.70457"/>
<path d="M60.1543 66.4329L52.731 49.8135" stroke="#BE6901" stroke-width="1.70457"/>
<path d="M52.7313 49.8148L52.1343 48.1519" stroke="black" stroke-width="1.70457"/>
<path d="M52.1341 48.1519C50.7364 46.1007 50.4296 44.1462 51.2137 42.2882C56.9467 28.663 62.6854 15.0577 68.4298 1.47233C68.4525 1.41717 68.4612 1.35724 68.4549 1.29791C68.4485 1.23858 68.4275 1.18177 68.3936 1.13265C68.3597 1.08353 68.3142 1.04364 68.2609 1.01664C68.2077 0.989644 68.1486 0.976378 68.089 0.978045L4.75577 3.61157C4.70663 3.61383 4.65881 3.62823 4.61657 3.65345C4.57432 3.67866 4.53898 3.7139 4.51367 3.75608C4.48836 3.79826 4.47391 3.84604 4.47154 3.89518C4.46917 3.94432 4.47901 3.99329 4.50015 4.03771L13.415 22.8305" stroke="#BE6901" stroke-width="1.70457"/>
<path d="M52.1343 48.1519C51.3899 48.2825 50.9241 48.7485 50.7366 49.5496C50.64 49.9587 50.799 50.1547 51.2138 50.1377C51.515 50.1263 51.8162 50.2286 52.1173 50.4445C52.1669 50.4811 52.2251 50.5042 52.2864 50.5117C52.3476 50.5192 52.4097 50.5107 52.4667 50.4871C52.7848 50.3564 52.873 50.132 52.7309 49.8138" stroke="#BE6901" stroke-width="1.70457"/>
<path d="M60.1541 66.433C59.6996 66.6034 59.4638 67.2569 59.4468 68.3933C59.4468 68.6262 59.5433 68.683 59.7365 68.5637C60.0945 68.3535 60.5888 68.3989 61.2195 68.7001" stroke="#BE6901" stroke-width="1.70457"/>
<path d="M67.2878 82.2344C66.6344 83.4617 66.9384 84.1435 68.1998 84.2799" stroke="#BE6901" stroke-width="1.70457"/>
<path d="M44.5745 89.6152C44.8359 88.9618 44.8047 88.5299 44.4808 88.3197C44.2137 88.1549 43.9553 88.1663 43.7053 88.3538C43.2337 88.7175 42.9751 89.2629 42.9297 89.9901" stroke="#BE6901" stroke-width="1.70457"/>
<path d="M30.1041 90.3143C29.4275 90.1438 28.8761 90.1211 28.4497 90.2461" stroke="#BE6901" stroke-width="1.70457"/>
<path d="M9.32397 76.0902C10.4492 75.6696 11.4608 75.1553 12.3588 74.5472C12.5406 74.4278 12.6571 74.2972 12.7083 74.1551C12.7651 74.013 12.7707 73.8795 12.7253 73.7545C12.64 73.4874 12.4581 73.3396 12.1797 73.3112L11.1141 73.226" stroke="#BE6901" stroke-width="1.70457"/>
<path d="M14.4207 66.6211C15.6993 65.9562 16.2307 65.0468 16.0147 63.8932" stroke="#BE6901" stroke-width="1.70457"/>
<path d="M20.3101 55.6689C21.1057 55.4302 21.7507 55.6462 22.2451 56.3168C22.4156 56.5498 22.6401 56.6947 22.9186 56.7515C23.6574 56.9107 24.2541 56.6749 24.7087 56.044C24.7438 55.9948 24.7668 55.938 24.7758 55.8783C24.7847 55.8185 24.7794 55.7575 24.7603 55.7001C24.7411 55.6428 24.7088 55.5907 24.6658 55.5483C24.6227 55.5059 24.5703 55.4741 24.5127 55.4558L20.8812 54.3562" stroke="#BE6901" stroke-width="1.70457"/>
<path d="M24.8105 46.2084L27.1372 44.6999C27.3645 44.5465 27.444 44.3362 27.3759 44.0692C27.2736 43.6885 27.2707 43.2851 27.3673 42.8589C27.4639 42.4555 27.7111 42.3021 28.1088 42.3987L32.1486 43.3703C32.2062 43.3843 32.2674 43.3766 32.3217 43.3486C32.3761 43.3207 32.4203 43.2741 32.4469 43.2169C32.6287 42.8135 32.41 42.5266 31.7906 42.3561C31.6772 42.3278 31.5602 42.3106 31.4413 42.305C30.3958 42.2652 29.4384 41.9953 28.5691 41.4953C26.1884 40.1259 24.0775 40.1316 22.2366 41.5123" stroke="#BE6901" stroke-width="1.70457"/>
<path d="M15.904 28.1829C17.6199 27.45 17.9806 26.2596 16.9863 24.6119C16.3613 23.5778 15.171 22.984 13.4153 22.8306" stroke="#BE6901" stroke-width="1.70457"/>
<path d="M17.4462 15.501C15.8041 14.3589 14.27 14.3589 12.8438 15.501C12.6067 15.6929 12.4516 15.9676 12.4104 16.2688C12.3692 16.57 12.4449 16.8747 12.6222 17.1203C13.0143 17.6715 13.466 17.9555 13.9774 17.9726C14.0607 17.9757 14.1422 17.997 14.2164 18.035C14.2906 18.073 14.3555 18.1268 14.4067 18.1926C14.4579 18.2584 14.494 18.3346 14.5126 18.4159C14.5312 18.4971 14.5318 18.5814 14.5144 18.6629C14.0371 20.8107 14.9235 21.7595 17.1735 21.5095" stroke="#BE6901" stroke-width="1.70457"/>
<path d="M17.1736 21.5093C18.6225 23.7309 19.6821 25.1798 20.3526 25.856C21.398 26.8957 22.8867 27.4838 24.8185 27.6202" stroke="#BE6901" stroke-width="1.70457"/>
<path d="M24.8188 27.6203C26.0464 28.4387 26.9187 29.2172 27.4358 29.956C27.5211 30.081 27.6376 30.1435 27.7854 30.1435C27.9445 30.1435 28.0752 30.0782 28.1775 29.9475C28.2341 29.8781 28.2704 29.7944 28.2825 29.7056C28.2945 29.6168 28.2818 29.5265 28.2457 29.4445C27.9729 28.8308 27.4814 28.1772 26.771 27.4839" stroke="#BE6901" stroke-width="1.70457"/>
<path d="M26.7706 27.4841C30.4269 27.1517 35.353 24.9784 35.7877 20.8789C36.3758 15.4157 34.5177 10.6685 28.5944 9.55205C24.3756 8.75943 18.563 10.7878 17.4465 15.501" stroke="#BE6901" stroke-width="1.70457"/>
<path d="M26.7706 27.4839L24.8188 27.6203" stroke="black" stroke-width="1.70457"/>
<path d="M17.1738 21.5094C16.6794 19.5208 16.7703 17.5179 17.4465 15.5009" stroke="black" stroke-width="1.70457"/>
<path d="M37.7309 21.4156C36.6852 21.6202 36.2646 22.3278 36.4692 23.5382C36.7419 25.1409 37.8332 25.7916 39.7426 25.4904" stroke="#BE6901" stroke-width="1.70457"/>
<path d="M39.7424 25.4897C41.6629 26.9273 43.8589 27.6858 46.3306 27.7653" stroke="#BE6901" stroke-width="1.70457"/>
<path d="M46.3301 27.7649C46.5119 28.856 46.9637 29.3305 47.6854 29.1885C48.7198 28.9782 49.2113 28.4497 49.1602 27.6029" stroke="#BE6901" stroke-width="1.70457"/>
<path d="M49.1599 27.6034C49.4897 27.359 49.9644 27.2481 50.5841 27.2708" stroke="#BE6901" stroke-width="1.70457"/>
<path d="M50.5829 27.2708C50.4295 27.7311 50.6312 28.3163 51.188 29.0265C51.2904 29.1597 51.4238 29.2657 51.5766 29.3357C51.7294 29.4056 51.8971 29.4373 52.0655 29.4281C52.2338 29.4189 52.3978 29.369 52.5433 29.2828C52.6888 29.1965 52.8116 29.0764 52.9011 28.9328C53.2534 28.3646 53.2932 27.9129 53.0204 27.5776C52.9526 27.492 52.9063 27.3914 52.8855 27.2842C52.8647 27.1771 52.8701 27.0667 52.9011 26.9627C52.9321 26.8587 52.988 26.7641 53.0637 26.6871C53.1394 26.6101 53.2328 26.553 53.3358 26.5208L55.6881 25.7623C55.9608 25.677 56.1284 25.4924 56.1909 25.2083C56.3329 24.5833 56.1937 23.964 55.7733 23.3503" stroke="#BE6901" stroke-width="1.70457"/>
<path d="M55.7735 23.3503C56.5064 21.0548 56.7593 19.0576 56.532 17.3587C55.961 13.1569 52.1854 9.11712 47.6086 9.60292C45.6541 9.80747 43.9495 10.1398 42.4949 10.6001C38.3017 11.9041 37.2193 17.5973 37.7307 21.4156" stroke="#BE6901" stroke-width="1.70457"/>
<path d="M55.7736 23.3503C54.4668 25.3049 52.7367 26.6117 50.5833 27.2708" stroke="black" stroke-width="1.70457"/>
<path d="M49.1602 27.6029L46.3301 27.7649" stroke="black" stroke-width="1.70457"/>
<path d="M39.7425 25.4904L37.7307 21.4156" stroke="black" stroke-width="1.70457"/>
<path d="M19.042 29.0484C19.3094 29.1954 19.6303 29.2192 19.9341 29.1144C20.2379 29.0097 20.4997 28.7851 20.6619 28.49C20.7423 28.3438 20.7958 28.1848 20.8193 28.0219C20.8429 27.859 20.8361 27.6955 20.7993 27.5407C20.7625 27.3859 20.6964 27.2428 20.6048 27.1196C20.5132 26.9964 20.398 26.8956 20.2656 26.8228C19.9981 26.6758 19.6772 26.652 19.3734 26.7568C19.0696 26.8615 18.8077 27.0861 18.6455 27.3813C18.5651 27.5274 18.5116 27.6865 18.4881 27.8493C18.4645 28.0122 18.4714 28.1758 18.5082 28.3306C18.5451 28.4854 18.6111 28.6284 18.7027 28.7516C18.7943 28.8748 18.9095 28.9756 19.042 29.0484Z" stroke="#BE6901" stroke-width="1.70457"/>
<path d="M35.5915 28.038C35.5915 27.9183 35.5678 27.7997 35.522 27.6891C35.4761 27.5784 35.409 27.4778 35.3243 27.3932C35.2396 27.3085 35.1392 27.2413 35.0285 27.1955C34.9179 27.1497 34.7992 27.1261 34.6795 27.1261C34.4376 27.1261 34.2057 27.2221 34.0346 27.3932C33.8636 27.5642 33.7676 27.7962 33.7676 28.038C33.7676 28.2799 33.8636 28.5119 34.0346 28.6829C34.2057 28.8539 34.4376 28.95 34.6795 28.95C34.7992 28.95 34.9179 28.9264 35.0285 28.8806C35.1392 28.8347 35.2396 28.7676 35.3243 28.6829C35.409 28.5982 35.4761 28.4976 35.522 28.387C35.5678 28.2764 35.5915 28.1578 35.5915 28.038Z" stroke="#BE6901" stroke-width="1.70457"/>
<path d="M32.6601 29.4159C32.8588 29.2345 32.9675 28.9711 32.9625 28.6835C32.9574 28.3959 32.8391 28.1077 32.6333 27.8824C32.5314 27.7708 32.4111 27.678 32.2794 27.6093C32.1476 27.5406 32.0069 27.4973 31.8653 27.4819C31.7237 27.4665 31.584 27.4793 31.4541 27.5196C31.3243 27.5599 31.2068 27.6268 31.1084 27.7167C30.9098 27.898 30.801 28.1615 30.8061 28.449C30.8111 28.7366 30.9295 29.0248 31.1353 29.2501C31.2371 29.3617 31.3574 29.4545 31.4892 29.5232C31.621 29.592 31.7617 29.6352 31.9033 29.6506C32.0449 29.666 32.1846 29.6532 32.3144 29.613C32.4443 29.5727 32.5618 29.5057 32.6601 29.4159Z" stroke="#BE6901" stroke-width="1.70457"/>
<path d="M33.8362 31.848C34.5068 31.4218 34.7597 30.8194 34.5949 30.0408C34.585 29.984 34.5579 29.9316 34.5173 29.8907C34.4766 29.8498 34.4244 29.8224 34.3676 29.8122C34.3109 29.802 34.2525 29.8094 34.2001 29.8335C34.1477 29.8577 34.104 29.8973 34.0749 29.9471C33.6146 30.6688 33.1685 31.3479 32.7366 31.9844C32.5775 32.2231 32.5859 32.4533 32.7621 32.6749C32.9724 32.942 33.1457 32.9164 33.2821 32.5982C33.356 32.4334 33.4327 32.2856 33.5123 32.1549C33.5861 32.0412 33.6941 31.9389 33.8362 31.848Z" stroke="#BE6901" stroke-width="1.70457"/>
<path d="M45.5893 34.6525L47.8908 32.4446C47.9269 32.4106 47.948 32.3637 47.9496 32.3142C47.9512 32.2647 47.9331 32.2166 47.8994 32.1804L47.3965 31.6518C47.1765 31.4229 46.9275 31.2262 46.6635 31.0731C46.3995 30.92 46.1257 30.8134 45.8581 30.7596C45.5904 30.7057 45.334 30.7056 45.1035 30.7593C44.8731 30.8129 44.6732 30.9192 44.5152 31.0722L44.3531 31.2341C44.0362 31.5417 43.9076 32.0184 43.9955 32.5599C44.0834 33.1014 44.3805 33.6638 44.822 34.1239L45.325 34.6525C45.3601 34.6874 45.4076 34.7069 45.4571 34.7069C45.5066 34.7069 45.5541 34.6874 45.5893 34.6525Z" stroke="#BE6901" stroke-width="1.70457"/>
<path d="M40.7308 32.6404C40.4921 32.9133 40.4836 33.2686 40.7053 33.7064C40.735 33.7651 40.7782 33.8158 40.8316 33.8543C40.885 33.8928 40.9471 33.9181 41.0127 33.9281C41.0784 33.938 41.1458 33.9324 41.2094 33.9117C41.273 33.8909 41.3311 33.8556 41.379 33.8087C41.6348 33.5472 41.6689 33.1976 41.4813 32.7598C41.4508 32.6906 41.4036 32.6301 41.3437 32.584C41.2838 32.5378 41.2134 32.5074 41.1387 32.4955C41.064 32.4836 40.9876 32.4907 40.9164 32.516C40.8451 32.5413 40.7813 32.584 40.7308 32.6404Z" stroke="#BE6901" stroke-width="1.70457"/>
<path d="M38.8738 33.4756C38.8738 33.2834 38.7974 33.099 38.6614 32.963C38.5255 32.8271 38.3412 32.7507 38.1489 32.7507C38.0537 32.7507 37.9594 32.7695 37.8715 32.8059C37.7836 32.8423 37.7036 32.8957 37.6363 32.963C37.569 33.0304 37.5157 33.1103 37.4792 33.1982C37.4428 33.2862 37.4241 33.3804 37.4241 33.4756C37.4241 33.5708 37.4428 33.6651 37.4792 33.753C37.5157 33.841 37.569 33.9209 37.6363 33.9882C37.7036 34.0555 37.7836 34.1089 37.8715 34.1453C37.9594 34.1817 38.0537 34.2005 38.1489 34.2005C38.3412 34.2005 38.5255 34.1241 38.6614 33.9882C38.7974 33.8522 38.8738 33.6679 38.8738 33.4756Z" stroke="#BE6901" stroke-width="1.70457"/>
<path d="M33.0531 34.9112C33.0075 34.7979 32.8955 34.7167 32.7416 34.6854C32.5877 34.6542 32.4047 34.6755 32.2326 34.7447C32.0605 34.8138 31.9136 34.9252 31.8241 35.0542C31.7346 35.1832 31.71 35.3194 31.7555 35.4327C31.801 35.546 31.9131 35.6272 32.067 35.6585C32.2208 35.6897 32.404 35.6683 32.5761 35.5992C32.7482 35.53 32.895 35.4187 32.9845 35.2896C33.074 35.1606 33.0986 35.0245 33.0531 34.9112Z" stroke="#BE6901" stroke-width="1.70457"/>
<path d="M29.4391 35.8965C29.4391 35.6794 29.3528 35.4712 29.1993 35.3176C29.0458 35.1641 28.8375 35.0779 28.6204 35.0779C28.4033 35.0779 28.195 35.1641 28.0415 35.3176C27.888 35.4712 27.8018 35.6794 27.8018 35.8965C27.8018 36.1137 27.888 36.3219 28.0415 36.4754C28.195 36.629 28.4033 36.7152 28.6204 36.7152C28.8375 36.7152 29.0458 36.629 29.1993 36.4754C29.3528 36.3219 29.4391 36.1137 29.4391 35.8965Z" stroke="#BE6901" stroke-width="1.70457"/>
<path d="M36.9645 39.0753C36.9645 38.6525 36.7966 38.2471 36.4976 37.9481C36.1987 37.6492 35.7932 37.4812 35.3704 37.4812C34.9477 37.4812 34.5422 37.6492 34.2433 37.9481C33.9443 38.2471 33.7764 38.6525 33.7764 39.0753C33.7764 39.4981 33.9443 39.9036 34.2433 40.2025C34.5422 40.5015 34.9477 40.6694 35.3704 40.6694C35.7932 40.6694 36.1987 40.5015 36.4976 40.2025C36.7966 39.9036 36.9645 39.4981 36.9645 39.0753Z" stroke="#BE6901" stroke-width="1.70457"/>
<path d="M44.8307 39.5097L44.8648 38.9642C44.8699 38.8845 44.8522 38.8047 44.8142 38.7345C44.7761 38.6642 44.7191 38.6063 44.65 38.5677C44.5808 38.5291 44.5024 38.5114 44.4241 38.5167C44.3459 38.522 44.271 38.55 44.2084 38.5976C43.7254 38.9499 43.3418 39.4301 43.0576 40.0382C42.9326 40.3053 42.9496 40.5639 43.1087 40.814C43.3417 41.1834 43.7083 41.3652 44.2084 41.3596C44.5494 41.3539 44.7739 41.1862 44.8819 40.8566C44.9728 40.5611 44.97 40.2599 44.8734 39.953C44.8336 39.8109 44.8193 39.6631 44.8307 39.5097Z" stroke="#BE6901" stroke-width="1.70457"/>
<path d="M34.9356 45.0668C35.2936 44.8793 35.4527 44.6008 35.4129 44.2314C35.3845 43.8961 35.2311 43.828 34.9527 44.0269C34.623 44.2656 34.4497 44.5838 34.4327 44.9816C34.4213 45.2601 34.3246 45.5073 34.1428 45.7232C33.9609 45.9449 33.7734 46.1011 33.5802 46.1921C33.453 46.2515 33.3432 46.3426 33.2614 46.4568C33.1796 46.5709 33.1285 46.7041 33.1131 46.8437C33.0977 46.9833 33.1184 47.1245 33.1734 47.2537C33.2283 47.3829 33.3155 47.4958 33.4267 47.5816C33.8927 47.9396 34.3786 48.0845 34.8844 48.0163C35.2367 47.9709 35.4272 47.7691 35.4556 47.4111C35.5067 46.7916 35.2993 46.2546 34.8333 45.7999C34.5378 45.5101 34.5719 45.2657 34.9356 45.0668Z" stroke="#BE6901" stroke-width="1.70457"/>
<path d="M52.0152 52.9844C52.4129 53.8196 52.4612 54.7316 52.16 55.7202C51.7168 57.1918 52.2055 57.6293 53.6259 57.0327C54.4896 56.6691 54.6118 56.0071 53.9925 55.0469C53.3731 54.0809 52.8617 53.1463 52.4583 52.2429C52.4027 52.1218 52.3187 52.0159 52.2133 51.9342C52.1079 51.8526 51.9844 51.7977 51.8532 51.7741C51.0521 51.6264 50.5947 51.2258 50.4811 50.5724C50.4242 50.2713 50.2566 50.0497 49.9782 49.9076L49.2708 49.5411C49.0094 49.4105 48.8902 49.1974 48.9129 48.9019C49.0038 47.6974 48.444 47.1064 47.2338 47.1292C47.1246 47.1306 47.0176 47.1593 46.9223 47.2126C46.827 47.2659 46.7465 47.3421 46.6881 47.4344C46.6297 47.5266 46.5953 47.632 46.5879 47.7409C46.5805 47.8498 46.6004 47.9589 46.6458 48.0582C47.2537 49.348 47.5151 50.6662 47.4299 52.0128C47.4129 52.2855 47.5123 52.5099 47.7282 52.686C48.8134 53.5667 49.964 53.5924 51.1799 52.7628C51.2465 52.7156 51.3227 52.6838 51.4031 52.6694C51.4836 52.655 51.5664 52.6584 51.6459 52.6795C51.7253 52.7005 51.7995 52.7388 51.8633 52.7914C51.9271 52.8441 51.9789 52.9099 52.0152 52.9844Z" stroke="#BE6901" stroke-width="1.70457"/>
<path d="M40.0405 54.2369C39.0121 54.1801 38.8927 53.8221 39.6825 53.163C40.2621 52.6801 40.7706 52.0778 41.2081 51.3562C41.3502 51.1119 41.5519 50.93 41.8132 50.8107C42.478 50.5096 43.1286 50.3817 43.765 50.4272C44.1059 50.4499 44.2422 50.2965 44.1741 49.967C44.0945 49.5522 43.9298 49.1857 43.6798 48.8675C43.4752 48.6118 43.2735 48.6146 43.0746 48.876C42.62 49.4783 41.9894 49.7993 41.1825 49.8391C40.8359 49.8561 40.5292 49.7539 40.2621 49.5323C39.2223 48.663 38.2166 48.6374 37.245 49.4556C36.9354 49.7136 36.7296 50.0748 36.6654 50.4726C36.6012 50.8705 36.6829 51.2781 36.8955 51.6204L39.657 56.0608C39.8161 56.3165 40.0433 56.4414 40.3388 56.4358C40.6229 56.4301 40.8843 56.325 41.1229 56.1204C41.3161 55.9556 41.4127 55.7426 41.4127 55.4812C41.4013 54.6971 40.9439 54.2824 40.0405 54.2369Z" stroke="#BE6901" stroke-width="1.70457"/>
<path d="M32.0128 49.8568C32.0128 49.7052 31.9527 49.5599 31.8455 49.4527C31.7384 49.3456 31.5931 49.2854 31.4415 49.2854C31.29 49.2854 31.1447 49.3456 31.0375 49.4527C30.9304 49.5599 30.8701 49.7052 30.8701 49.8568C30.8701 50.0083 30.9304 50.1536 31.0375 50.2608C31.1447 50.3679 31.29 50.4281 31.4415 50.4281C31.5931 50.4281 31.7384 50.3679 31.8455 50.2608C31.9527 50.1536 32.0128 50.0083 32.0128 49.8568Z" stroke="#BE6901" stroke-width="1.70457"/>
<path d="M33.9898 50.5213C33.7738 50.3962 33.6316 50.4559 33.5634 50.7003C33.4497 51.104 33.6202 51.4167 34.0751 51.6384C34.4446 51.8147 34.5953 51.7009 34.5271 51.2973C34.4702 50.9562 34.2911 50.6975 33.9898 50.5213Z" stroke="#BE6901" stroke-width="1.70457"/>
<path d="M44.2168 52.8053C44.1272 52.9854 44.0979 53.1895 44.1332 53.3875C44.1685 53.5855 44.2665 53.767 44.4128 53.905L45.1203 54.587C45.228 54.6905 45.3588 54.7667 45.5019 54.8094C45.645 54.8521 45.7962 54.86 45.9429 54.8325C46.0897 54.805 46.2277 54.7429 46.3456 54.6512C46.4635 54.5596 46.5578 54.4411 46.6206 54.3056L47.0981 53.2657C47.1592 53.1338 47.1889 52.9895 47.1847 52.8442C47.1806 52.6989 47.1426 52.5566 47.074 52.4284C47.0054 52.3003 46.908 52.1898 46.7893 52.1058C46.6707 52.0218 46.5341 51.9665 46.3905 51.9443L45.4443 51.808C45.2487 51.7776 45.0485 51.81 44.8725 51.9003C44.6964 51.9907 44.5533 52.1344 44.4639 52.3109L44.2168 52.8053Z" stroke="#BE6901" stroke-width="1.70457"/>
<path d="M27.4865 53.0272C27.7196 53.2603 27.9414 53.3598 28.1518 53.3256C28.2016 53.3188 28.2485 53.299 28.288 53.2679C28.3275 53.2368 28.3582 53.1956 28.3771 53.1484C28.396 53.1011 28.4025 53.0493 28.3959 52.9981C28.3892 52.947 28.3698 52.8983 28.3393 52.8567C28.1006 52.5554 27.876 52.4218 27.6656 52.4559C27.6042 52.4678 27.547 52.4961 27.5003 52.5376C27.4535 52.5791 27.4191 52.6323 27.4006 52.6914C27.3821 52.7504 27.3803 52.8129 27.3955 52.8722C27.4106 52.9314 27.4421 52.985 27.4865 53.0272Z" stroke="#BE6901" stroke-width="1.70457"/>
<path d="M27.5076 57.588C27.5642 57.5087 27.6023 57.4174 27.6196 57.3192C27.637 57.221 27.6334 57.1179 27.6089 57.0159C27.5845 56.9138 27.5397 56.8147 27.4771 56.7243C27.4146 56.6338 27.3354 56.5538 27.2443 56.4888C27.0601 56.3575 26.8381 56.2952 26.6272 56.3156C26.4162 56.336 26.2334 56.4374 26.1191 56.5976C26.0626 56.6769 26.0245 56.7683 26.0071 56.8665C25.9897 56.9646 25.9934 57.0676 26.0179 57.1697C26.0423 57.2718 26.0871 57.3709 26.1496 57.4613C26.2122 57.5517 26.2914 57.6318 26.3826 57.6969C26.5668 57.8282 26.7886 57.8905 26.9996 57.8701C27.2106 57.8497 27.3934 57.7482 27.5076 57.588Z" stroke="#BE6901" stroke-width="1.70457"/>
<path d="M31.5177 58.2432C31.8872 58.607 32.1231 58.7691 32.2255 58.7293C32.5268 58.627 32.578 58.4536 32.379 58.2091C32.0436 57.7941 31.7763 57.6434 31.5773 57.7571C31.5363 57.7809 31.5014 57.8139 31.4752 57.8535C31.4491 57.8931 31.4324 57.9382 31.4266 57.9853C31.4208 58.0324 31.426 58.0802 31.4418 58.1249C31.4576 58.1697 31.4836 58.2102 31.5177 58.2432Z" stroke="#BE6901" stroke-width="1.70457"/>
<path d="M38.3539 59.5016C38.2452 59.2431 38.0036 59.0532 37.6822 58.9733C37.3607 58.8934 36.9858 58.9301 36.6398 59.0755C36.4685 59.1476 36.3095 59.2441 36.1718 59.3596C36.0341 59.4751 35.9204 59.6073 35.8373 59.7487C35.7542 59.8901 35.7033 60.038 35.6875 60.1838C35.6716 60.3296 35.6911 60.4704 35.7449 60.5983C35.8536 60.8568 36.0952 61.0469 36.4166 61.1268C36.7381 61.2067 37.113 61.1699 37.459 61.0245C37.6303 60.9525 37.7893 60.8559 37.927 60.7404C38.0647 60.6249 38.1784 60.4927 38.2615 60.3513C38.3446 60.2099 38.3955 60.062 38.4113 59.9162C38.4272 59.7705 38.4077 59.6295 38.3539 59.5016Z" stroke="#BE6901" stroke-width="1.70457"/>
<path d="M55.8589 68.8876C56.4271 68.4558 56.8448 67.9132 57.1118 67.2598C57.3164 66.7711 57.1856 66.6546 56.7197 66.9103L55.2708 67.6945C54.8618 67.9161 54.6658 67.7967 54.6828 67.3365C54.7112 66.2626 54.535 65.1632 54.1543 64.0381C54.0179 63.6404 54.1572 63.4757 54.572 63.5438C54.9186 63.595 55.2509 63.7199 55.5691 63.9188C55.7767 64.0448 56.0246 64.0846 56.2595 64.0296C56.6629 63.933 56.8191 63.6375 56.7282 63.1432C56.6985 62.989 56.6195 62.8493 56.5038 62.7459C56.3881 62.6425 56.2421 62.5814 56.089 62.5722L53.2509 62.3847C52.9555 62.3676 52.7253 62.4813 52.5605 62.7256L52.1771 63.2796C51.6657 64.0296 51.3618 63.9557 51.2652 63.058C51.1458 61.8989 51.0776 60.3903 49.9697 59.7341C48.9299 59.1091 47.9526 59.2597 47.0378 60.1858C46.7139 60.5154 46.7708 60.6091 47.2083 60.467C47.6117 60.3363 47.9356 60.433 48.1799 60.7569C48.9015 61.7285 48.6799 62.0353 47.5151 61.6773C46.9583 61.5068 46.4356 61.2142 45.9469 60.7994C45.8416 60.7088 45.7093 60.6555 45.5706 60.6478C45.4319 60.6401 45.2945 60.6785 45.1798 60.7569L44.9412 60.9188C44.8469 60.9817 44.7685 61.0656 44.7122 61.164C44.6559 61.2623 44.6231 61.3725 44.6165 61.4857C44.6099 61.5988 44.6296 61.7119 44.6741 61.8162C44.7186 61.9204 44.7867 62.0129 44.873 62.0864C46.5265 63.5182 48.5804 64.6347 47.5491 67.2171C47.5019 67.3393 47.4909 67.4724 47.5174 67.6006C47.5438 67.7289 47.6067 67.8468 47.6984 67.9403C47.7901 68.0338 47.9068 68.0988 48.0345 68.1278C48.1622 68.1567 48.2954 68.1483 48.4185 68.1035C50.4639 67.3422 52.2311 67.6604 53.7197 69.0581C53.9243 69.2513 54.1657 69.3734 54.4442 69.4245C54.5862 69.4472 54.7283 69.4472 54.8703 69.4245C55.268 69.3677 55.4952 69.5382 55.5521 69.936C55.6543 70.7258 56.072 71.1433 56.805 71.1888C57.2652 71.2229 57.4812 71.4672 57.4527 71.9218C57.43 72.2399 57.518 72.5098 57.7169 72.7314C57.7626 72.7802 57.8251 72.8099 57.8918 72.8144C57.9585 72.8189 58.0245 72.798 58.0764 72.7558C58.1282 72.7137 58.1622 72.6534 58.1714 72.5872C58.1807 72.521 58.1644 72.4537 58.126 72.399C57.6317 71.7626 57.3647 71.0609 57.3249 70.2939C57.3147 70.1162 57.2502 69.9463 57.1403 69.8074C57.0304 69.6685 56.8804 69.5674 56.7112 69.5183L55.9357 69.2882C55.6459 69.203 55.6202 69.0694 55.8589 68.8876Z" stroke="#BE6901" stroke-width="1.70457"/>
<path d="M19.6711 60.7572C19.6516 60.8084 19.6442 60.8634 19.6492 60.918C19.6543 60.9727 19.6718 61.0256 19.7004 61.0731C19.7291 61.1205 19.768 61.1611 19.8146 61.192C19.8612 61.2229 19.9141 61.2433 19.9694 61.2516C21.4982 61.4562 22.6292 61.8824 23.3623 62.5303C24.4136 63.4566 24.5358 63.3458 23.7288 62.1978C23.1264 61.3511 22.453 60.618 21.7085 59.9985C21.3732 59.7258 21.0151 59.578 20.6344 59.5553C20.2934 59.5382 20.0633 59.6888 19.9439 60.0071L19.6711 60.7572Z" stroke="#BE6901" stroke-width="1.70457"/>
<path d="M33.0776 63.1006C33.2061 63.2076 33.4236 63.1971 33.6823 63.0714C33.941 62.9457 34.2196 62.7151 34.4569 62.4303C34.5744 62.2893 34.6782 62.1393 34.7624 61.9887C34.8466 61.8381 34.9095 61.69 34.9476 61.5528C34.9857 61.4156 34.9982 61.292 34.9843 61.1891C34.9705 61.0861 34.9307 61.0058 34.8671 60.9528C34.7386 60.8457 34.5211 60.8561 34.2624 60.9818C34.0038 61.1075 33.7251 61.3381 33.4879 61.6229C33.3704 61.7639 33.2665 61.9141 33.1823 62.0646C33.0981 62.2152 33.0352 62.3633 32.9971 62.5005C32.959 62.6377 32.9465 62.7613 32.9603 62.8643C32.9741 62.9672 33.014 63.0475 33.0776 63.1006Z" stroke="#BE6901" stroke-width="1.70457"/>
<path d="M40.966 62.0776C41.0277 62.0051 41.0745 61.9212 41.1038 61.8307C41.133 61.7401 41.1441 61.6447 41.1365 61.5498C41.1288 61.455 41.1026 61.3626 41.0592 61.2779C41.0159 61.1932 40.9563 61.1178 40.8838 61.0562L40.6631 60.8683C40.5167 60.7438 40.3269 60.6825 40.1353 60.6979C39.9438 60.7133 39.7662 60.8042 39.6416 60.9505L37.7521 63.1706C37.6905 63.2431 37.6436 63.327 37.6144 63.4176C37.5851 63.5081 37.5741 63.6036 37.5817 63.6984C37.5893 63.7933 37.6155 63.8857 37.6589 63.9704C37.7023 64.0552 37.7619 64.1305 37.8343 64.1922L38.0551 64.3799C38.2014 64.5045 38.3912 64.5658 38.5827 64.5504C38.7743 64.535 38.9519 64.4442 39.0765 64.2978L40.966 62.0776Z" stroke="#BE6901" stroke-width="1.70457"/>
<path d="M31.364 62.99C31.364 62.7324 31.2617 62.4852 31.0795 62.303C30.8973 62.1208 30.6502 62.0184 30.3925 62.0184C30.1348 62.0184 29.8877 62.1208 29.7054 62.303C29.5232 62.4852 29.4209 62.7324 29.4209 62.99C29.4209 63.1176 29.446 63.244 29.4949 63.3619C29.5437 63.4798 29.6152 63.5868 29.7054 63.677C29.7957 63.7672 29.9028 63.8389 30.0207 63.8877C30.1386 63.9365 30.2649 63.9617 30.3925 63.9617C30.5201 63.9617 30.6464 63.9365 30.7642 63.8877C30.8821 63.8389 30.9893 63.7672 31.0795 63.677C31.1697 63.5868 31.2413 63.4798 31.2902 63.3619C31.339 63.244 31.364 63.1176 31.364 62.99Z" stroke="#BE6901" stroke-width="1.70457"/>
<path d="M41.3451 65.794L40.8762 65.6832C40.8105 65.6683 40.7426 65.6671 40.6765 65.6794C40.6103 65.6918 40.5473 65.7175 40.4915 65.755C40.4356 65.7925 40.3881 65.841 40.3516 65.8975C40.3151 65.9541 40.2906 66.0175 40.2795 66.0839L39.768 69.2635C39.7512 69.3679 39.7728 69.4751 39.829 69.5657C39.8853 69.6564 39.9725 69.7245 40.0749 69.7579L40.3562 69.8517C40.4224 69.8737 40.4928 69.8807 40.562 69.8721C40.6313 69.8635 40.6977 69.8395 40.7565 69.8019C40.8153 69.7644 40.8651 69.7141 40.902 69.6549C40.9389 69.5957 40.9621 69.5289 40.9699 69.4596C41.0893 68.4935 41.3677 67.6098 41.8053 66.8085C42.0951 66.2686 41.9418 65.9304 41.3451 65.794Z" stroke="#BE6901" stroke-width="1.70457"/>
<path d="M45.606 69.5781C45.2992 68.8622 44.694 68.7343 44.0634 68.3593C43.8247 68.2115 43.7139 68.277 43.731 68.5554L43.8418 70.0383C43.8493 70.134 43.8758 70.2272 43.9196 70.3124C43.9634 70.3976 44.0237 70.473 44.0969 70.5342C44.17 70.5954 44.2545 70.6412 44.3454 70.6687C44.4363 70.6963 44.5317 70.705 44.6259 70.6945C44.8702 70.6661 45.0918 70.5979 45.2907 70.49C45.4477 70.4067 45.5674 70.2667 45.6258 70.0977C45.6842 69.9288 45.6772 69.7433 45.606 69.5781Z" stroke="#BE6901" stroke-width="1.70457"/>
<path d="M22.2574 70.2616C22.2165 70.2097 22.161 70.1702 22.0939 70.1452C22.0269 70.1203 21.9496 70.1105 21.8666 70.1164C21.7835 70.1223 21.6963 70.1437 21.6099 70.1795C21.5236 70.2153 21.4397 70.2648 21.3631 70.325C21.2866 70.3853 21.2188 70.4551 21.1637 70.5306C21.1086 70.6062 21.0672 70.6859 21.042 70.7653C21.0167 70.8446 21.0081 70.9219 21.0166 70.9929C21.025 71.064 21.0503 71.1272 21.0912 71.1792C21.1321 71.2311 21.1877 71.2707 21.2548 71.2957C21.3218 71.3206 21.399 71.3304 21.482 71.3245C21.565 71.3186 21.6523 71.2971 21.7387 71.2613C21.8251 71.2255 21.909 71.1761 21.9855 71.1159C22.0621 71.0556 22.1298 70.9857 22.1849 70.9102C22.24 70.8346 22.2814 70.755 22.3067 70.6756C22.3319 70.5963 22.3406 70.5189 22.3321 70.4479C22.3236 70.3768 22.2982 70.3135 22.2574 70.2616Z" stroke="#BE6901" stroke-width="1.70457"/>
<path d="M54.1021 71.5575C54.1714 71.3188 54.1258 71.0572 53.9753 70.8304C53.8249 70.6036 53.5818 70.4302 53.2996 70.3482C53.1599 70.3076 53.0148 70.2907 52.8725 70.2985C52.7303 70.3062 52.5937 70.3383 52.4706 70.3932C52.3475 70.4481 52.2404 70.5247 52.1552 70.6184C52.07 70.7121 52.0084 70.8211 51.9741 70.9393C51.9047 71.1781 51.9503 71.4397 52.1008 71.6665C52.2513 71.8933 52.4943 72.0667 52.7765 72.1487C52.9162 72.1893 53.0613 72.2062 53.2036 72.1985C53.3458 72.1908 53.4824 72.1585 53.6055 72.1036C53.7286 72.0487 53.8357 71.9723 53.9209 71.8786C54.0061 71.7849 54.0677 71.6758 54.1021 71.5575Z" stroke="#BE6901" stroke-width="1.70457"/>
<path d="M17.549 72.7745C18.7538 73.2121 19.7142 73.3286 20.4303 73.1241C20.8849 72.999 21.0184 72.7233 20.8309 72.2971L20.5326 71.6323C20.3336 71.1833 19.9899 70.9957 19.5011 71.0696C18.5918 71.206 17.8872 71.5839 17.3871 72.2033C17.3512 72.2488 17.3266 72.3022 17.3154 72.359C17.3041 72.4158 17.3064 72.4746 17.3222 72.5303C17.338 72.586 17.3669 72.6372 17.4063 72.6796C17.4457 72.7221 17.4946 72.7546 17.549 72.7745Z" stroke="#BE6901" stroke-width="1.70457"/>
<path d="M33.6313 74.4446C32.583 75.74 31.7477 75.1861 30.6227 75.885C29.8386 76.3679 29.7904 77.0952 30.4779 78.0668C30.6499 78.3108 30.8934 78.498 31.1767 78.6037C31.8131 78.8423 32.3017 78.7799 32.6426 78.4162C32.7733 78.2799 32.9125 77.8963 33.0602 77.2657C33.2648 76.3509 33.8046 75.6833 34.6796 75.2628C34.7888 75.2091 34.88 75.1244 34.9416 75.0194C35.0032 74.9144 35.0326 74.7937 35.0263 74.6721C35.0199 74.5505 34.978 74.4334 34.9058 74.3354C34.8336 74.2374 34.7342 74.1628 34.62 74.1207C34.245 73.9843 33.9154 74.0923 33.6313 74.4446Z" stroke="#BE6901" stroke-width="1.70457"/>
<path d="M57.7626 80.1891C57.8103 80.1227 57.8416 80.0456 57.8547 79.962C57.8677 79.8784 57.8624 79.79 57.8389 79.7019C57.8154 79.6139 57.7742 79.5278 57.7177 79.4486C57.6611 79.3695 57.5904 79.2988 57.5095 79.2407C57.4285 79.1825 57.339 79.138 57.246 79.1097C57.1529 79.0814 57.0582 79.0697 56.9672 79.0756C56.8762 79.0814 56.7908 79.1045 56.7158 79.1435C56.6407 79.1826 56.5775 79.2369 56.5298 79.3033C56.4821 79.3697 56.4507 79.4469 56.4376 79.5305C56.4245 79.6141 56.43 79.7024 56.4535 79.7905C56.477 79.8786 56.5181 79.9647 56.5746 80.0438C56.6312 80.1229 56.702 80.1936 56.7829 80.2518C56.8639 80.31 56.9534 80.3544 57.0464 80.3827C57.1395 80.4111 57.2342 80.4227 57.3252 80.4169C57.4162 80.4111 57.5015 80.388 57.5766 80.3489C57.6517 80.3098 57.7149 80.2555 57.7626 80.1891Z" stroke="#BE6901" stroke-width="1.70457"/>
<path d="M47.8222 83.0621L49.2884 82.6189C49.3211 82.6092 49.3515 82.593 49.3778 82.5714C49.4042 82.5497 49.426 82.523 49.4418 82.4928C49.4577 82.4626 49.4674 82.4296 49.4704 82.3956C49.4733 82.3616 49.4694 82.3274 49.4589 82.295L49.4077 82.1159C49.2871 81.7186 49.1486 81.331 49.0001 80.9753C48.8516 80.6196 48.696 80.3028 48.5424 80.043C48.3887 79.7833 48.24 79.5857 48.1047 79.4616C47.9694 79.3375 47.8503 79.2893 47.754 79.3198L47.268 79.4733C47.1709 79.501 47.0985 79.6068 47.0549 79.7848C47.0114 79.9627 46.9975 80.2092 47.0141 80.5102C47.0308 80.8111 47.0776 81.1605 47.1519 81.5385C47.2262 81.9164 47.3264 82.3155 47.447 82.7127L47.5068 82.8917C47.5265 82.9558 47.5706 83.0095 47.6296 83.0414C47.6885 83.0733 47.7577 83.0807 47.8222 83.0621Z" stroke="#BE6901" stroke-width="1.70457"/>
<path d="M62.4385 81.2372L63.6232 79.7969C63.7312 79.6605 63.7112 79.5497 63.5635 79.4645L63.3163 79.3196C63.2424 79.2798 63.1885 79.2997 63.1544 79.3793C62.6033 80.6463 61.7311 81.4617 60.5379 81.8253C60.4538 81.8508 60.3757 81.8936 60.3091 81.951C60.2424 82.0084 60.1885 82.079 60.1508 82.1585C60.1131 82.2379 60.0924 82.3245 60.0901 82.4124C60.0877 82.5003 60.1038 82.5877 60.1373 82.6691L60.8277 84.3566C60.947 84.652 61.1458 84.7202 61.4243 84.5611L62.4896 83.956C62.7396 83.814 62.8704 83.5981 62.8817 83.3083C62.8988 82.7912 62.7482 82.3253 62.43 81.9105C62.2539 81.6833 62.2567 81.4588 62.4385 81.2372Z" stroke="#BE6901" stroke-width="1.70457"/>
<path d="M52.245 83.7662C52.3345 83.7518 52.4197 83.7156 52.4955 83.6596C52.5714 83.6037 52.6365 83.5291 52.6872 83.44C52.7378 83.3509 52.7731 83.2492 52.7908 83.1406C52.8085 83.032 52.8085 82.9186 52.7906 82.8069C52.7545 82.5815 52.648 82.3769 52.4946 82.238C52.3413 82.099 52.1535 82.0372 51.9728 82.0662C51.8832 82.0805 51.7982 82.1167 51.7223 82.1726C51.6465 82.2286 51.5814 82.3033 51.5307 82.3923C51.48 82.4814 51.4448 82.5832 51.4271 82.6918C51.4093 82.8004 51.4094 82.9137 51.4273 83.0253C51.4634 83.2507 51.5698 83.4555 51.7232 83.5944C51.8765 83.7333 52.0642 83.7951 52.245 83.7662Z" stroke="#BE6901" stroke-width="1.70457"/>
<path d="M32.4124 18.4106C32.4118 18.0782 32.3418 17.7491 32.2063 17.4423C32.0708 17.1354 31.8726 16.8567 31.6228 16.6221C31.3731 16.3875 31.077 16.2015 30.751 16.0749C30.4251 15.9483 30.0758 15.8834 29.7232 15.884C29.0112 15.8853 28.3288 16.1532 27.8262 16.6287C27.3235 17.1043 27.0418 17.7486 27.043 18.42C27.0436 18.7524 27.1135 19.0814 27.249 19.3883C27.3844 19.6952 27.5827 19.9739 27.8324 20.2085C28.0821 20.4431 28.3784 20.6291 28.7044 20.7557C29.0303 20.8823 29.3795 20.9472 29.7321 20.9466C30.4441 20.9454 31.1265 20.6775 31.6292 20.2019C32.1318 19.7263 32.4136 19.0819 32.4124 18.4106Z" stroke="black" stroke-width="1.70457"/>
<path d="M52.9868 18.6118C52.9868 18.2681 52.9192 17.9279 52.7877 17.6104C52.6562 17.293 52.4635 17.0046 52.2205 16.7616C51.9775 16.5186 51.6891 16.3259 51.3716 16.1944C51.0542 16.0629 50.714 15.9952 50.3704 15.9952C50.0268 15.9952 49.6866 16.0629 49.3691 16.1944C49.0517 16.3259 48.7632 16.5186 48.5203 16.7616C48.2773 17.0046 48.0845 17.293 47.953 17.6104C47.8215 17.9279 47.7539 18.2681 47.7539 18.6118C47.7539 19.3057 48.0296 19.9712 48.5203 20.4619C49.0109 20.9526 49.6764 21.2283 50.3704 21.2283C51.0643 21.2283 51.7298 20.9526 52.2205 20.4619C52.7112 19.9712 52.9868 19.3057 52.9868 18.6118Z" stroke="black" stroke-width="1.70457"/>
<path d="M52.1343 48.152C51.39 48.2827 50.9241 48.7486 50.7366 49.5498C50.64 49.9589 50.7991 50.1549 51.2139 50.1378C51.515 50.1265 51.8162 50.2287 52.1173 50.4446C52.167 50.4813 52.2252 50.5044 52.2864 50.5119C52.3476 50.5193 52.4097 50.5109 52.4667 50.4873C52.7849 50.3566 52.873 50.1322 52.7309 49.814L60.1543 66.4334C59.6997 66.6039 59.464 67.2574 59.4469 68.3937C59.4469 68.6267 59.5435 68.6835 59.7367 68.5641C60.0946 68.3539 60.589 68.3994 61.2197 68.7005L67.2879 82.2348C66.6345 83.4621 66.9385 84.1439 68.1999 84.2803L70.0834 88.4138C70.1145 88.4819 70.1282 88.5566 70.1233 88.6312C70.1184 88.7058 70.0949 88.778 70.0552 88.8413C70.0155 88.9047 69.9607 88.9572 69.8957 88.9942C69.8307 89.0311 69.7576 89.0514 69.6829 89.0531L44.5745 89.6156C44.8359 88.9622 44.8047 88.5303 44.4808 88.3201C44.2137 88.1553 43.9553 88.1667 43.7053 88.3542C43.2337 88.7179 42.9751 89.2633 42.9297 89.9905L30.1028 90.3144C29.4266 90.144 28.8756 90.1213 28.4494 90.2463L1.84959 91.1242C1.40072 91.1355 1.28431 90.9451 1.50023 90.5531L9.32413 76.0899C10.4491 75.6694 11.4606 75.1552 12.3583 74.5472C12.5401 74.4279 12.6566 74.2972 12.7078 74.1552C12.7646 74.0131 12.7702 73.8796 12.7247 73.7546C12.6395 73.4876 12.4577 73.3398 12.1793 73.3114L11.1139 73.2262L14.4208 66.621C15.6992 65.9562 16.2304 65.0471 16.0145 63.8937L20.3101 55.6691C21.1055 55.4305 21.7504 55.6464 22.2448 56.3168C22.4152 56.5498 22.6397 56.6947 22.9181 56.7515C23.6567 56.9106 24.2533 56.6748 24.7079 56.0442C24.7429 55.9949 24.7659 55.9382 24.7749 55.8784C24.7838 55.8187 24.7785 55.7576 24.7594 55.7003C24.7403 55.643 24.7079 55.591 24.6649 55.5485C24.6219 55.5061 24.5694 55.4743 24.5119 55.456L20.8811 54.3567C22.813 51.5725 24.1226 48.8566 24.8101 46.2088L27.1369 44.7003C27.3641 44.5469 27.4437 44.3366 27.3755 44.0696C27.2733 43.6889 27.2704 43.2855 27.367 42.8593C27.4636 42.4559 27.7107 42.3025 28.1085 42.3991L32.1483 43.3707C32.2058 43.3847 32.267 43.377 32.3214 43.349C32.3758 43.321 32.42 43.2745 32.4466 43.2173C32.6284 42.8139 32.4096 42.527 31.7903 42.3565C31.6769 42.3282 31.5599 42.311 31.4409 42.3054C30.3955 42.2656 29.4381 41.9957 28.5687 41.4957C26.188 40.1263 24.0772 40.132 22.2362 41.5127L15.9038 28.183C17.6198 27.4501 17.9805 26.2597 16.9861 24.612C16.3611 23.5779 15.1708 22.9841 13.4151 22.8307L4.50028 4.03783C4.47914 3.99341 4.4693 3.94444 4.47167 3.8953C4.47404 3.84616 4.48849 3.79839 4.5138 3.7562C4.53911 3.71402 4.57446 3.67878 4.6167 3.65357C4.65894 3.62835 4.70676 3.61395 4.7559 3.61169L68.0891 0.978167C68.1488 0.9765 68.2079 0.989766 68.2611 1.01677C68.3143 1.04376 68.3598 1.08365 68.3937 1.13277C68.4276 1.18189 68.4487 1.2387 68.455 1.29803C68.4613 1.35737 68.4527 1.41729 68.4299 1.47245C62.6855 15.0578 56.9469 28.6631 51.2139 42.2883C50.4298 44.1463 50.7365 46.1008 52.1343 48.152ZM17.4464 15.501C15.8043 14.359 14.2702 14.359 12.8441 15.501C12.6069 15.693 12.4518 15.9677 12.4106 16.2689C12.3694 16.5701 12.4452 16.8748 12.6225 17.1204C13.0145 17.6716 13.4663 17.9556 13.9777 17.9727C14.0609 17.9758 14.1425 17.9971 14.2166 18.0351C14.2908 18.0731 14.3558 18.1269 14.4069 18.1927C14.4581 18.2585 14.4942 18.3347 14.5128 18.4159C14.5314 18.4972 14.5321 18.5815 14.5146 18.663C14.0373 20.8108 14.9237 21.7596 17.1737 21.5096C18.6226 23.7313 19.6823 25.1802 20.3527 25.8563C21.3982 26.8961 22.8868 27.4842 24.8187 27.6205C26.046 28.4387 26.9181 29.2171 27.4351 29.9558C27.5204 30.0808 27.6369 30.1433 27.7846 30.1433C27.9437 30.1433 28.0743 30.0779 28.1766 29.9473C28.2332 29.8779 28.2696 29.7942 28.2816 29.7054C28.2936 29.6167 28.281 29.5263 28.2449 29.4444C27.9721 28.8307 27.4807 28.1773 26.7704 27.4841C30.4267 27.1518 35.3529 24.9784 35.7876 20.879C36.3756 15.4158 34.5176 10.6686 28.5942 9.55213C24.3754 8.75951 18.5629 10.7879 17.4464 15.501ZM37.7308 21.4159C36.6853 21.6204 36.2648 22.3278 36.4693 23.5381C36.742 25.1404 37.833 25.791 39.7422 25.4898C41.6626 26.9273 43.8587 27.6859 46.3303 27.7654C46.5121 28.8563 46.9638 29.3308 47.6854 29.1887C48.7195 28.9785 49.211 28.4501 49.1598 27.6035C49.4894 27.3592 49.9638 27.2483 50.5832 27.2711C50.4298 27.7313 50.6314 28.3165 51.1883 29.0268C51.2907 29.1599 51.424 29.266 51.5768 29.3359C51.7296 29.4059 51.8974 29.4376 52.0657 29.4284C52.2341 29.4192 52.398 29.3693 52.5436 29.283C52.6891 29.1968 52.8118 29.0767 52.9014 28.933C53.2536 28.3648 53.2934 27.9131 53.0207 27.5779C52.9529 27.4923 52.9065 27.3916 52.8858 27.2845C52.865 27.1774 52.8703 27.067 52.9014 26.963C52.9324 26.8589 52.9882 26.7644 53.064 26.6874C53.1397 26.6104 53.233 26.5533 53.336 26.5211L55.6883 25.7625C55.9611 25.6773 56.1287 25.4927 56.1912 25.2086C56.3332 24.5836 56.194 23.9642 55.7735 23.3506C56.5065 21.0551 56.7594 19.0579 56.5321 17.359C55.9611 13.1573 52.1855 9.11747 47.6087 9.60327C45.6541 9.80781 43.9496 10.1402 42.495 10.6004C38.3018 11.9044 37.2194 17.5977 37.7308 21.4159ZM19.042 29.0487C19.3094 29.1957 19.6304 29.2194 19.9342 29.1147C20.238 29.0099 20.4998 28.7853 20.662 28.4902C20.7424 28.3441 20.7959 28.185 20.8194 28.0221C20.843 27.8593 20.8362 27.6958 20.7994 27.541C20.7625 27.3861 20.6965 27.243 20.6049 27.1199C20.5133 26.9967 20.3981 26.8958 20.2656 26.823C19.9982 26.676 19.6773 26.6523 19.3735 26.757C19.0697 26.8618 18.8078 27.0864 18.6456 27.3815C18.5652 27.5277 18.5117 27.6867 18.4881 27.8496C18.4646 28.0125 18.4715 28.176 18.5083 28.3308C18.5451 28.4856 18.6112 28.6287 18.7028 28.7519C18.7944 28.875 18.9096 28.9759 19.042 29.0487ZM35.5915 28.0382C35.5915 27.9184 35.5679 27.7998 35.522 27.6892C35.4762 27.5785 35.4091 27.4779 35.3244 27.3933C35.2397 27.3086 35.1392 27.2414 35.0286 27.1956C34.9179 27.1498 34.7993 27.1262 34.6795 27.1262C34.4377 27.1262 34.2057 27.2222 34.0347 27.3933C33.8637 27.5643 33.7676 27.7963 33.7676 28.0382C33.7676 28.28 33.8637 28.512 34.0347 28.683C34.2057 28.854 34.4377 28.9501 34.6795 28.9501C34.7993 28.9501 34.9179 28.9265 35.0286 28.8807C35.1392 28.8348 35.2397 28.7677 35.3244 28.683C35.4091 28.5983 35.4762 28.4977 35.522 28.3871C35.5679 28.2765 35.5915 28.1579 35.5915 28.0382ZM32.66 29.4162C32.8586 29.2348 32.9673 28.9713 32.9623 28.6838C32.9573 28.3962 32.8389 28.108 32.6331 27.8827C32.5312 27.7711 32.4109 27.6783 32.2792 27.6096C32.1474 27.5408 32.0067 27.4976 31.8651 27.4822C31.7235 27.4668 31.5838 27.4796 31.4539 27.5199C31.3241 27.5602 31.2066 27.6271 31.1082 27.7169C30.9096 27.8983 30.8008 28.1617 30.8059 28.4493C30.8109 28.7369 30.9293 29.0251 31.1351 29.2504C31.2369 29.362 31.3572 29.4548 31.489 29.5235C31.6208 29.5922 31.7615 29.6355 31.9031 29.6509C32.0447 29.6663 32.1844 29.6535 32.3142 29.6132C32.4441 29.573 32.5616 29.506 32.66 29.4162ZM33.8358 31.8478C34.5063 31.4217 34.7591 30.8194 34.5943 30.041C34.5845 29.9842 34.5574 29.9318 34.5167 29.8909C34.4761 29.85 34.4238 29.8227 34.3671 29.8124C34.3104 29.8022 34.252 29.8096 34.1996 29.8337C34.1473 29.8579 34.1035 29.8975 34.0745 29.9473C33.6142 30.6689 33.1682 31.3479 32.7364 31.9842C32.5773 32.2229 32.5858 32.453 32.7619 32.6746C32.9721 32.9416 33.1454 32.916 33.2818 32.5978C33.3557 32.4331 33.4324 32.2853 33.5119 32.1546C33.5858 32.041 33.6937 31.9387 33.8358 31.8478ZM45.5888 34.6519L47.8899 32.4444C47.926 32.4105 47.9471 32.3636 47.9487 32.3141C47.9503 32.2646 47.9322 32.2165 47.8985 32.1802L47.3956 31.6518C47.1758 31.4229 46.9267 31.2263 46.6628 31.0732C46.3989 30.9201 46.1252 30.8136 45.8575 30.7597C45.5899 30.7059 45.3336 30.7058 45.1032 30.7594C44.8728 30.8131 44.6729 30.9194 44.5149 31.0723L44.3529 31.2342C44.036 31.5417 43.9075 32.0183 43.9954 32.5597C44.0832 33.1011 44.3803 33.6633 44.8217 34.1234L45.3246 34.6519C45.3597 34.6867 45.4072 34.7063 45.4567 34.7063C45.5062 34.7063 45.5537 34.6867 45.5888 34.6519ZM40.7307 32.6404C40.4921 32.9132 40.4837 33.2683 40.7052 33.7058C40.7349 33.7645 40.7781 33.8152 40.8314 33.8536C40.8848 33.8921 40.9469 33.9174 41.0125 33.9273C41.0781 33.9373 41.1454 33.9317 41.209 33.911C41.2726 33.8902 41.3306 33.855 41.3785 33.8081C41.6342 33.5467 41.6682 33.1973 41.4807 32.7598C41.4503 32.6906 41.403 32.6302 41.3432 32.5841C41.2834 32.5379 41.213 32.5075 41.1384 32.4956C41.0637 32.4838 40.9873 32.4908 40.9161 32.5161C40.8449 32.5414 40.7811 32.5841 40.7307 32.6404ZM38.8728 33.4757C38.8728 33.2836 38.7964 33.0993 38.6606 32.9634C38.5247 32.8276 38.3405 32.7512 38.1484 32.7512C38.0533 32.7512 37.959 32.77 37.8711 32.8064C37.7832 32.8428 37.7034 32.8962 37.6361 32.9634C37.5688 33.0307 37.5155 33.1106 37.4791 33.1985C37.4427 33.2864 37.424 33.3806 37.424 33.4757C37.424 33.5709 37.4427 33.665 37.4791 33.7529C37.5155 33.8408 37.5688 33.9207 37.6361 33.988C37.7034 34.0552 37.7832 34.1086 37.8711 34.145C37.959 34.1814 38.0533 34.2001 38.1484 34.2001C38.3405 34.2001 38.5247 34.1238 38.6606 33.988C38.7964 33.8521 38.8728 33.6679 38.8728 33.4757ZM33.0524 34.9111C33.0069 34.7979 32.8949 34.7167 32.7411 34.6855C32.5873 34.6543 32.4043 34.6756 32.2324 34.7447C32.0604 34.8139 31.9135 34.9251 31.8241 35.0541C31.7347 35.183 31.71 35.3191 31.7555 35.4324C31.8011 35.5456 31.913 35.6268 32.0668 35.658C32.2206 35.6892 32.4037 35.6679 32.5757 35.5987C32.7476 35.5296 32.8944 35.4183 32.9838 35.2894C33.0732 35.1604 33.0979 35.0244 33.0524 34.9111ZM29.438 35.8962C29.438 35.6792 29.3518 35.4711 29.1984 35.3176C29.0449 35.1642 28.8368 35.078 28.6198 35.078C28.4028 35.078 28.1947 35.1642 28.0413 35.3176C27.8878 35.4711 27.8017 35.6792 27.8017 35.8962C27.8017 36.1132 27.8878 36.3213 28.0413 36.4747C28.1947 36.6282 28.4028 36.7144 28.6198 36.7144C28.8368 36.7144 29.0449 36.6282 29.1984 36.4747C29.3518 36.3213 29.438 36.1132 29.438 35.8962ZM36.9637 39.0752C36.9637 38.6525 36.7958 38.2471 36.4969 37.9482C36.198 37.6493 35.7926 37.4814 35.3699 37.4814C34.9473 37.4814 34.5419 37.6493 34.243 37.9482C33.9441 38.2471 33.7762 38.6525 33.7762 39.0752C33.7762 39.4979 33.9441 39.9033 34.243 40.2022C34.5419 40.5011 34.9473 40.669 35.3699 40.669C35.7926 40.669 36.198 40.5011 36.4969 40.2022C36.7958 39.9033 36.9637 39.4979 36.9637 39.0752ZM44.8303 39.5098L44.8644 38.9644C44.8694 38.8848 44.8518 38.805 44.8137 38.7348C44.7756 38.6645 44.7187 38.6066 44.6495 38.568C44.5804 38.5294 44.502 38.5117 44.4238 38.517C44.3455 38.5223 44.2707 38.5504 44.2081 38.5979C43.7252 38.9502 43.3416 39.4303 43.0576 40.0383C42.9326 40.3053 42.9495 40.5639 43.1086 40.8139C43.3416 41.1832 43.7081 41.365 44.2081 41.3593C44.549 41.3537 44.7735 41.186 44.8815 40.8565C44.9724 40.561 44.9695 40.2599 44.8729 39.953C44.8331 39.811 44.8189 39.6633 44.8303 39.5098ZM34.9353 45.0667C35.2932 44.8792 35.4523 44.6008 35.4125 44.2315C35.3841 43.8963 35.2307 43.8281 34.9523 44.027C34.6228 44.2656 34.4495 44.5838 34.4325 44.9815C34.4211 45.26 34.3244 45.5071 34.1426 45.723C33.9608 45.9446 33.7734 46.1009 33.5802 46.1918C33.453 46.2512 33.3432 46.3423 33.2614 46.4564C33.1796 46.5705 33.1285 46.7037 33.1131 46.8433C33.0977 46.9828 33.1185 47.124 33.1734 47.2532C33.2283 47.3824 33.3155 47.4953 33.4267 47.581C33.8926 47.9389 34.3784 48.0838 34.8841 48.0157C35.2364 47.9702 35.4267 47.7685 35.4552 47.4105C35.5063 46.7912 35.2989 46.2542 34.833 45.7997C34.5375 45.5099 34.5716 45.2656 34.9353 45.0667ZM52.0151 52.9845C52.4128 53.8197 52.461 54.7316 52.1599 55.7203C51.7167 57.1919 52.2053 57.6294 53.6258 57.0328C54.4894 56.6692 54.6116 56.0072 53.9923 55.0469C53.373 54.081 52.8616 53.1464 52.4582 52.243C52.4025 52.1219 52.3185 52.0159 52.2131 51.9343C52.1078 51.8527 51.9842 51.7978 51.8531 51.7742C51.0519 51.6265 50.5945 51.2259 50.4809 50.5725C50.4241 50.2714 50.2565 50.0498 49.9781 49.9077L49.2706 49.5412C49.0093 49.4105 48.89 49.1975 48.9127 48.902C49.0036 47.6975 48.4439 47.1065 47.2337 47.1293C47.1245 47.1307 47.0175 47.1594 46.9222 47.2127C46.8269 47.266 46.7464 47.3422 46.688 47.4345C46.6296 47.5267 46.5952 47.6321 46.5878 47.741C46.5804 47.8499 46.6003 47.959 46.6456 48.0583C47.2536 49.3481 47.515 50.6663 47.4298 52.0129C47.4127 52.2856 47.5121 52.51 47.728 52.6861C48.8133 53.5668 49.9638 53.5924 51.1797 52.7629C51.2463 52.7157 51.3225 52.6838 51.403 52.6695C51.4835 52.6551 51.5663 52.6585 51.6457 52.6796C51.7252 52.7006 51.7994 52.7389 51.8632 52.7915C51.9269 52.8441 51.9788 52.91 52.0151 52.9845ZM40.0404 54.2373C39.012 54.1805 38.8927 53.8225 39.6824 53.1634C40.262 52.6805 40.7706 52.0782 41.2081 51.3566C41.3501 51.1123 41.5518 50.9304 41.8131 50.8111C42.4779 50.51 43.1285 50.3821 43.7649 50.4276C44.1058 50.4503 44.2422 50.2969 44.174 49.9674C44.0944 49.5526 43.9297 49.1861 43.6797 48.8679C43.4752 48.6123 43.2734 48.6151 43.0745 48.8764C42.62 49.4787 41.9893 49.7997 41.1825 49.8395C40.8359 49.8566 40.5291 49.7543 40.262 49.5327C39.2223 48.6634 38.2165 48.6378 37.2449 49.456C36.9354 49.714 36.7295 50.0752 36.6653 50.4731C36.6011 50.8709 36.6828 51.2785 36.8955 51.6208L39.657 56.0612C39.816 56.3169 40.0433 56.4419 40.3387 56.4362C40.6228 56.4305 40.8842 56.3254 41.1229 56.1208C41.316 55.9561 41.4126 55.743 41.4126 55.4816C41.4012 54.6975 40.9439 54.2828 40.0404 54.2373ZM32.0119 49.8566C32.0119 49.7051 31.9518 49.5599 31.8447 49.4528C31.7376 49.3457 31.5924 49.2856 31.4409 49.2856C31.2895 49.2856 31.1442 49.3457 31.0372 49.4528C30.9301 49.5599 30.8699 49.7051 30.8699 49.8566C30.8699 50.008 30.9301 50.1533 31.0372 50.2603C31.1442 50.3674 31.2895 50.4276 31.4409 50.4276C31.5924 50.4276 31.7376 50.3674 31.8447 50.2603C31.9518 50.1533 32.0119 50.008 32.0119 49.8566ZM33.9893 50.5214C33.7733 50.3964 33.6313 50.456 33.5631 50.7003C33.4495 51.1037 33.6199 51.4163 34.0745 51.6379C34.4438 51.814 34.5944 51.7003 34.5262 51.2969C34.4694 50.956 34.2904 50.6975 33.9893 50.5214ZM44.2166 52.8054C44.1271 52.9855 44.0978 53.1896 44.1331 53.3875C44.1684 53.5855 44.2664 53.7669 44.4127 53.9049L45.12 54.5868C45.2276 54.6902 45.3585 54.7664 45.5015 54.8091C45.6446 54.8518 45.7957 54.8597 45.9424 54.8322C46.0892 54.8047 46.2272 54.7426 46.3451 54.651C46.4629 54.5594 46.5572 54.4409 46.62 54.3055L47.0974 53.2657C47.1585 53.1339 47.1882 52.9896 47.184 52.8443C47.1799 52.6991 47.1419 52.5567 47.0733 52.4286C47.0047 52.3005 46.9073 52.1901 46.7887 52.1061C46.6701 52.0221 46.5335 51.9668 46.3899 51.9446L45.4439 51.8083C45.2483 51.7779 45.0482 51.8103 44.8722 51.9006C44.6961 51.9909 44.5531 52.1346 44.4637 52.3112L44.2166 52.8054ZM27.4863 53.027C27.7193 53.26 27.9409 53.3594 28.1511 53.3253C28.2009 53.3185 28.2478 53.2987 28.2873 53.2676C28.3268 53.2365 28.3575 53.1954 28.3764 53.1481C28.3953 53.1009 28.4017 53.0491 28.3951 52.998C28.3885 52.9469 28.369 52.8982 28.3386 52.8566C28.1 52.5555 27.8755 52.422 27.6653 52.4561C27.604 52.468 27.5468 52.4962 27.5001 52.5377C27.4533 52.5793 27.4189 52.6324 27.4004 52.6914C27.3819 52.7504 27.3801 52.8129 27.3953 52.8721C27.4105 52.9313 27.4419 52.9849 27.4863 53.027ZM27.5068 57.5874C27.5634 57.5081 27.6014 57.4168 27.6188 57.3187C27.6361 57.2206 27.6325 57.1176 27.6081 57.0156C27.5836 56.9136 27.5389 56.8145 27.4763 56.7242C27.4138 56.6338 27.3347 56.5538 27.2436 56.4888C27.0596 56.3576 26.8377 56.2953 26.6269 56.3157C26.416 56.3361 26.2334 56.4374 26.1192 56.5975C26.0626 56.6768 26.0246 56.7682 26.0072 56.8663C25.9898 56.9644 25.9935 57.0673 26.0179 57.1693C26.0424 57.2713 26.0871 57.3704 26.1496 57.4607C26.2122 57.5511 26.2914 57.6312 26.3825 57.6962C26.5665 57.8274 26.7882 57.8897 26.9991 57.8693C27.21 57.8489 27.3926 57.7475 27.5068 57.5874ZM31.5176 58.243C31.8869 58.6067 32.1227 58.7686 32.225 58.7289C32.5261 58.6266 32.5773 58.4533 32.3784 58.209C32.0432 57.7942 31.7761 57.6436 31.5772 57.7573C31.5362 57.781 31.5013 57.814 31.4752 57.8536C31.449 57.8932 31.4324 57.9382 31.4266 57.9853C31.4208 58.0324 31.426 58.0801 31.4418 58.1248C31.4576 58.1695 31.4835 58.21 31.5176 58.243ZM38.3531 59.5016C38.2445 59.2432 38.003 59.0532 37.6816 58.9734C37.3602 58.8935 36.9853 58.9302 36.6394 59.0756C36.4681 59.1476 36.3091 59.2442 36.1715 59.3597C36.0338 59.4751 35.9202 59.6073 35.8371 59.7487C35.754 59.89 35.7031 60.0379 35.6873 60.1836C35.6714 60.3294 35.6909 60.4702 35.7447 60.5981C35.8533 60.8565 36.0949 61.0466 36.4163 61.1264C36.7377 61.2063 37.1125 61.1696 37.4584 61.0242C37.6297 60.9522 37.7887 60.8556 37.9264 60.7401C38.064 60.6247 38.1777 60.4925 38.2608 60.3511C38.3438 60.2098 38.3947 60.0619 38.4106 59.9162C38.4264 59.7704 38.4069 59.6295 38.3531 59.5016ZM55.8588 68.888C56.4269 68.4562 56.8446 67.9137 57.1117 67.2602C57.3162 66.7716 57.1855 66.6551 56.7196 66.9108L55.2707 67.6949C54.8616 67.9165 54.6657 67.7971 54.6827 67.3369C54.7111 66.263 54.5349 65.1636 54.1542 64.0386C54.0178 63.6408 54.1571 63.4761 54.5719 63.5443C54.9185 63.5954 55.2508 63.7204 55.569 63.9192C55.7766 64.0452 56.0245 64.085 56.2594 64.03C56.6628 63.9335 56.819 63.638 56.7281 63.1436C56.6983 62.9895 56.6194 62.8497 56.5037 62.7463C56.388 62.6429 56.242 62.5818 56.0889 62.5727L53.2508 62.3851C52.9554 62.368 52.7252 62.4817 52.5604 62.726L52.1769 63.28C51.6656 64.03 51.3616 63.9562 51.265 63.0584C51.1457 61.8993 51.0775 60.3908 49.9696 59.7345C48.9298 59.1095 47.9524 59.2601 47.0376 60.1862C46.7138 60.5158 46.7707 60.6095 47.2082 60.4675C47.6116 60.3368 47.9355 60.4334 48.1798 60.7573C48.9014 61.7289 48.6798 62.0357 47.515 61.6777C46.9582 61.5073 46.4354 61.2146 45.9468 60.7999C45.8415 60.7093 45.7092 60.656 45.5705 60.6483C45.4318 60.6406 45.2944 60.6789 45.1797 60.7573L44.9411 60.9192C44.8468 60.9821 44.7684 61.0661 44.7121 61.1644C44.6557 61.2628 44.623 61.3729 44.6164 61.4861C44.6098 61.5993 44.6295 61.7124 44.674 61.8166C44.7185 61.9209 44.7866 62.0133 44.8729 62.0868C46.5263 63.5187 48.5803 64.6352 47.549 67.2176C47.5018 67.3397 47.4908 67.4728 47.5173 67.6011C47.5437 67.7293 47.6066 67.8473 47.6983 67.9408C47.79 68.0342 47.9066 68.0993 48.0343 68.1282C48.162 68.1572 48.2953 68.1488 48.4183 68.104C50.4638 67.3426 52.231 67.6608 53.7196 69.0585C53.9242 69.2517 54.1656 69.3738 54.444 69.425C54.5861 69.4477 54.7281 69.4477 54.8702 69.425C55.2679 69.3681 55.4951 69.5387 55.5519 69.9364C55.6542 70.7262 56.0719 71.1438 56.8049 71.1892C57.2651 71.2233 57.481 71.4676 57.4526 71.9222C57.4299 72.2404 57.5179 72.5102 57.7168 72.7318C57.7625 72.7806 57.825 72.8103 57.8917 72.8148C57.9584 72.8194 58.0243 72.7984 58.0762 72.7563C58.1281 72.7141 58.1621 72.6538 58.1713 72.5876C58.1805 72.5214 58.1643 72.4541 58.1259 72.3994C57.6315 71.763 57.3645 71.0614 57.3248 70.2943C57.3146 70.1167 57.2501 69.9467 57.1402 69.8078C57.0303 69.6689 56.8803 69.5679 56.711 69.5187L55.9355 69.2887C55.6458 69.2034 55.6201 69.0698 55.8588 68.888ZM19.6709 60.7573C19.6514 60.8085 19.6439 60.8634 19.649 60.918C19.6541 60.9727 19.6716 61.0257 19.7002 61.0731C19.7288 61.1205 19.7678 61.1611 19.8143 61.192C19.8609 61.2229 19.9138 61.2433 19.9691 61.2516C21.4976 61.4561 22.6283 61.8823 23.3613 62.53C24.4125 63.4562 24.5346 63.3454 23.7277 62.1976C23.1254 61.351 22.4521 60.6181 21.7078 59.9988C21.3726 59.726 21.0146 59.5783 20.6339 59.5556C20.293 59.5385 20.063 59.6891 19.9436 60.0073L19.6709 60.7573ZM33.0775 63.1011C33.206 63.2082 33.4235 63.1976 33.6821 63.072C33.9408 62.9463 34.2194 62.7157 34.4567 62.4309C34.5742 62.2898 34.6781 62.1398 34.7623 61.9892C34.8465 61.8386 34.9094 61.6905 34.9474 61.5533C34.9855 61.4161 34.998 61.2925 34.9842 61.1896C34.9703 61.0866 34.9305 61.0063 34.8669 60.9533C34.7384 60.8462 34.5209 60.8567 34.2622 60.9823C34.0036 61.108 33.725 61.3386 33.4877 61.6234C33.3702 61.7645 33.2663 61.9146 33.1821 62.0652C33.0979 62.2158 33.035 62.3638 32.9969 62.501C32.9588 62.6382 32.9463 62.7619 32.9601 62.8648C32.9739 62.9678 33.0138 63.0481 33.0775 63.1011ZM40.9652 62.0773C41.0269 62.0049 41.0737 61.921 41.103 61.8305C41.1322 61.7399 41.1433 61.6445 41.1357 61.5497C41.128 61.4548 41.1018 61.3625 41.0585 61.2778C41.0151 61.1931 40.9555 61.1178 40.883 61.0561L40.6624 60.8683C40.5161 60.7438 40.3262 60.6825 40.1347 60.6979C39.9432 60.7133 39.7657 60.8042 39.6411 60.9505L37.752 63.1702C37.6903 63.2426 37.6435 63.3265 37.6143 63.417C37.585 63.5076 37.574 63.603 37.5816 63.6978C37.5892 63.7927 37.6154 63.8851 37.6588 63.9698C37.7021 64.0545 37.7617 64.1299 37.8342 64.1915L38.0549 64.3792C38.2012 64.5037 38.3909 64.565 38.5824 64.5496C38.774 64.5342 38.9516 64.4434 39.0761 64.2971L40.9652 62.0773ZM31.3642 62.9903C31.3642 62.7326 31.2618 62.4854 31.0796 62.3032C30.8974 62.121 30.6503 62.0187 30.3926 62.0187C30.135 62.0187 29.8878 62.121 29.7056 62.3032C29.5234 62.4854 29.421 62.7326 29.421 62.9903C29.421 63.1179 29.4462 63.2442 29.495 63.3621C29.5438 63.48 29.6153 63.587 29.7056 63.6772C29.7958 63.7675 29.9029 63.8391 30.0208 63.8879C30.1387 63.9368 30.265 63.9619 30.3926 63.9619C30.5202 63.9619 30.6465 63.9368 30.7644 63.8879C30.8822 63.8391 30.9894 63.7675 31.0796 63.6772C31.1698 63.587 31.2415 63.48 31.2903 63.3621C31.3391 63.2442 31.3642 63.1179 31.3642 62.9903ZM41.3445 65.7942L40.8757 65.6834C40.81 65.6686 40.7421 65.6673 40.676 65.6797C40.6099 65.692 40.5469 65.7177 40.491 65.7552C40.4352 65.7927 40.3877 65.8412 40.3512 65.8977C40.3147 65.9543 40.2902 66.0177 40.2791 66.0841L39.7678 69.2631C39.7509 69.3674 39.7725 69.4746 39.8287 69.5652C39.885 69.6558 39.9722 69.7239 40.0746 69.7574L40.3558 69.8511C40.422 69.8731 40.4923 69.8801 40.5616 69.8715C40.6308 69.8629 40.6972 69.8389 40.756 69.8014C40.8148 69.7638 40.8645 69.7136 40.9015 69.6544C40.9384 69.5952 40.9615 69.5284 40.9694 69.4591C41.0887 68.4932 41.3671 67.6096 41.8046 66.8085C42.0944 66.2687 41.9411 65.9306 41.3445 65.7942ZM45.6059 69.5784C45.299 68.8625 44.6939 68.7346 44.0632 68.3596C43.8246 68.2119 43.7137 68.2773 43.7308 68.5557L43.8416 70.0387C43.8491 70.1343 43.8756 70.2275 43.9194 70.3127C43.9632 70.3979 44.0235 70.4733 44.0967 70.5345C44.1698 70.5957 44.2543 70.6415 44.3452 70.6691C44.4361 70.6966 44.5315 70.7053 44.6257 70.6949C44.87 70.6664 45.0917 70.5983 45.2905 70.4903C45.4476 70.4071 45.5672 70.2671 45.6256 70.0981C45.6841 69.9291 45.677 69.7436 45.6059 69.5784ZM22.2564 70.2619C22.2156 70.21 22.1601 70.1705 22.0931 70.1456C22.0261 70.1207 21.9488 70.1109 21.8659 70.1168C21.7829 70.1227 21.6957 70.1441 21.6094 70.1799C21.5231 70.2156 21.4393 70.2651 21.3627 70.3253C21.2862 70.3855 21.2185 70.4553 21.1634 70.5308C21.1083 70.6063 21.067 70.686 21.0418 70.7653C21.0165 70.8446 21.0079 70.9218 21.0164 70.9928C21.0248 71.0638 21.0501 71.1271 21.091 71.1789C21.1318 71.2309 21.1874 71.2705 21.2544 71.2954C21.3214 71.3203 21.3985 71.3301 21.4815 71.3242C21.5645 71.3183 21.6518 71.2968 21.7381 71.261C21.8244 71.2253 21.9082 71.1759 21.9848 71.1157C22.0613 71.0555 22.1289 70.9856 22.184 70.9101C22.2391 70.8346 22.2805 70.755 22.3057 70.6757C22.331 70.5964 22.3396 70.5191 22.3311 70.4481C22.3227 70.3771 22.2973 70.3138 22.2564 70.2619ZM54.1018 71.558C54.1711 71.3192 54.1255 71.0576 53.975 70.8308C53.8246 70.604 53.5815 70.4306 53.2993 70.3486C53.1596 70.308 53.0145 70.2911 52.8722 70.2989C52.73 70.3066 52.5934 70.3388 52.4703 70.3937C52.3472 70.4486 52.2401 70.5251 52.1549 70.6188C52.0697 70.7125 52.0081 70.8215 51.9738 70.9398C51.9044 71.1785 51.95 71.4401 52.1005 71.6669C52.251 71.8937 52.494 72.0671 52.7762 72.1491C52.9159 72.1897 53.061 72.2067 53.2033 72.1989C53.3455 72.1912 53.4821 72.1589 53.6052 72.104C53.7283 72.0492 53.8354 71.9727 53.9206 71.879C54.0058 71.7853 54.0674 71.6762 54.1018 71.558ZM17.5487 72.7745C18.7532 73.212 19.7135 73.3285 20.4294 73.1239C20.8839 72.9989 21.0174 72.7233 20.8299 72.2971L20.5317 71.6324C20.3328 71.1836 19.9891 70.996 19.5004 71.0699C18.5913 71.2063 17.8868 71.5841 17.3868 72.2034C17.3509 72.2489 17.3264 72.3022 17.3151 72.3591C17.3039 72.4159 17.3062 72.4746 17.322 72.5303C17.3378 72.586 17.3666 72.6371 17.406 72.6796C17.4454 72.722 17.4943 72.7546 17.5487 72.7745ZM33.6313 74.4449C32.5829 75.7404 31.7477 75.1865 30.6227 75.8853C29.8386 76.3683 29.7903 77.0955 30.4778 78.0671C30.6498 78.3112 30.8934 78.4983 31.1767 78.6041C31.813 78.8427 32.3017 78.7802 32.6426 78.4166C32.7733 78.2802 32.9125 77.8967 33.0602 77.266C33.2647 76.3512 33.8045 75.6836 34.6795 75.2632C34.7888 75.2094 34.8799 75.1247 34.9415 75.0197C35.0031 74.9147 35.0326 74.794 35.0262 74.6724C35.0198 74.5509 34.9779 74.4338 34.9057 74.3358C34.8335 74.2378 34.7342 74.1631 34.6199 74.121C34.2449 73.9847 33.9153 74.0926 33.6313 74.4449ZM57.7618 80.1888C57.8095 80.1224 57.8407 80.0453 57.8538 79.9618C57.8669 79.8782 57.8616 79.7899 57.8381 79.7019C57.8146 79.6139 57.7734 79.5278 57.7169 79.4488C57.6604 79.3697 57.5897 79.299 57.5088 79.2409C57.4279 79.1827 57.3385 79.1383 57.2455 79.11C57.1525 79.0817 57.0578 79.0701 56.9669 79.0759C56.876 79.0817 56.7906 79.1048 56.7156 79.1438C56.6406 79.1829 56.5774 79.2372 56.5297 79.3035C56.482 79.3699 56.4507 79.447 56.4376 79.5305C56.4245 79.6141 56.43 79.7024 56.4534 79.7904C56.4769 79.8784 56.5181 79.9644 56.5745 80.0435C56.631 80.1226 56.7018 80.1933 56.7827 80.2514C56.8636 80.3095 56.9531 80.354 57.046 80.3823C57.139 80.4106 57.2337 80.4222 57.3247 80.4164C57.4156 80.4106 57.5009 80.3875 57.5759 80.3485C57.6509 80.3094 57.7141 80.2551 57.7618 80.1888ZM47.8218 83.0615L49.2877 82.6184C49.3204 82.6087 49.3508 82.5925 49.3772 82.5708C49.4035 82.5492 49.4253 82.5225 49.4411 82.4923C49.457 82.4621 49.4667 82.4291 49.4697 82.3951C49.4726 82.3611 49.4687 82.327 49.4582 82.2945L49.407 82.1155C49.2864 81.7183 49.148 81.3307 48.9995 80.9751C48.851 80.6195 48.6954 80.3027 48.5418 80.043C48.3882 79.7833 48.2395 79.5857 48.1042 79.4617C47.969 79.3376 47.8499 79.2894 47.7536 79.32L47.2678 79.4734C47.1707 79.5011 47.0983 79.6069 47.0547 79.7848C47.0112 79.9627 46.9973 80.2092 47.0139 80.51C47.0306 80.8109 47.0774 81.1603 47.1517 81.5382C47.2259 81.916 47.3262 82.315 47.4467 82.7121L47.5064 82.8911C47.5262 82.9552 47.5702 83.0089 47.6292 83.0408C47.6882 83.0727 47.7574 83.0801 47.8218 83.0615ZM62.4385 81.2376L63.6231 79.7973C63.7311 79.6609 63.7112 79.5501 63.5634 79.4649L63.3162 79.32C63.2424 79.2802 63.1884 79.3001 63.1544 79.3797C62.6032 80.6467 61.7311 81.4621 60.5379 81.8257C60.4537 81.8512 60.3757 81.894 60.309 81.9514C60.2423 82.0088 60.1885 82.0794 60.1508 82.1589C60.113 82.2383 60.0923 82.3249 60.09 82.4128C60.0877 82.5007 60.1038 82.5881 60.1372 82.6695L60.8276 84.357C60.947 84.6524 61.1458 84.7206 61.4242 84.5615L62.4895 83.9564C62.7395 83.8144 62.8703 83.5985 62.8817 83.3087C62.8987 82.7916 62.7481 82.3257 62.4299 81.9109C62.2538 81.6836 62.2566 81.4592 62.4385 81.2376ZM52.2449 83.7667C52.3344 83.7523 52.4195 83.7161 52.4954 83.6601C52.5713 83.6042 52.6364 83.5296 52.687 83.4405C52.7377 83.3514 52.7729 83.2497 52.7907 83.1411C52.8084 83.0325 52.8083 82.919 52.7905 82.8074C52.7543 82.582 52.6478 82.3774 52.4945 82.2384C52.3411 82.0995 52.1534 82.0377 51.9726 82.0667C51.8831 82.081 51.798 82.1171 51.7222 82.1731C51.6463 82.2291 51.5812 82.3038 51.5305 82.3928C51.4799 82.4819 51.4447 82.5836 51.4269 82.6923C51.4092 82.8009 51.4093 82.9142 51.4271 83.0258C51.4632 83.2512 51.5697 83.456 51.723 83.5949C51.8764 83.7338 52.0641 83.7956 52.2449 83.7667Z" fill="#BE6901"/>
<path d="M26.7705 27.4841L24.8187 27.6205C22.8869 27.4841 21.3982 26.896 20.3528 25.8562C19.6823 25.1801 18.6226 23.7312 17.1738 21.5096C16.6794 19.5209 16.7703 17.518 17.4464 15.501C18.5629 10.7878 24.3755 8.75943 28.5943 9.55205C34.5176 10.6685 36.3757 15.4157 35.7876 20.8789C35.3529 24.9784 30.4268 27.1517 26.7705 27.4841ZM32.4126 18.4111C32.412 18.0787 32.3419 17.7496 32.2065 17.4427C32.071 17.1359 31.8727 16.8572 31.623 16.6226C31.3733 16.3879 31.0771 16.202 30.7512 16.0754C30.4253 15.9487 30.076 15.8839 29.7234 15.8845C29.0114 15.8858 28.329 16.1536 27.8264 16.6292C27.3237 17.1048 27.042 17.7491 27.0432 18.4204C27.0437 18.7529 27.1137 19.0819 27.2492 19.3888C27.3846 19.6957 27.5829 19.9744 27.8326 20.209C28.0823 20.4436 28.3786 20.6295 28.7046 20.7562C29.0305 20.8828 29.3797 20.9477 29.7322 20.9471C30.4443 20.9458 31.1267 20.6779 31.6294 20.2024C32.132 19.7268 32.4138 19.0824 32.4126 18.4111Z" fill="white"/>
<path d="M55.7735 23.3503C54.4666 25.3048 52.7365 26.6116 50.5831 27.2707C49.9638 27.248 49.4893 27.3588 49.1597 27.6031L46.3302 27.7651C43.8586 27.6855 41.6626 26.927 39.7421 25.4895L37.7307 21.4156C37.2193 17.5973 38.3017 11.9041 42.4949 10.6001C43.9495 10.1398 45.6541 9.80747 47.6086 9.60292C52.1854 9.11712 55.961 13.1569 56.532 17.3587C56.7593 19.0576 56.5064 21.0548 55.7735 23.3503ZM52.9865 18.6116C52.9865 18.268 52.9188 17.9277 52.7874 17.6102C52.6559 17.2928 52.4631 17.0044 52.2201 16.7614C51.9772 16.5184 51.6887 16.3257 51.3713 16.1942C51.0538 16.0627 50.7136 15.995 50.37 15.995C50.0264 15.995 49.6862 16.0627 49.3688 16.1942C49.0513 16.3257 48.7629 16.5184 48.5199 16.7614C48.2769 17.0044 48.0842 17.2928 47.9527 17.6102C47.8212 17.9277 47.7536 18.268 47.7536 18.6116C47.7536 19.3055 48.0292 19.971 48.5199 20.4617C49.0106 20.9524 49.6761 21.2281 50.37 21.2281C51.064 21.2281 51.7294 20.9524 52.2201 20.4617C52.7108 19.971 52.9865 19.3055 52.9865 18.6116Z" fill="white"/>
<path d="M17.4462 15.501C16.77 17.518 16.6792 19.5209 17.1735 21.5095C14.9235 21.7595 14.0371 20.8107 14.5144 18.6629C14.5318 18.5814 14.5312 18.4971 14.5126 18.4159C14.494 18.3346 14.4579 18.2584 14.4067 18.1926C14.3555 18.1268 14.2906 18.073 14.2164 18.035C14.1422 17.997 14.0607 17.9757 13.9774 17.9726C13.466 17.9555 13.0143 17.6715 12.6222 17.1203C12.4449 16.8747 12.3692 16.57 12.4104 16.2688C12.4516 15.9676 12.6067 15.6929 12.8438 15.501C14.27 14.3589 15.8041 14.3589 17.4462 15.501Z" fill="black"/>
<path d="M29.7323 20.9469C31.2151 20.9443 32.4151 19.8089 32.4126 18.4109C32.4102 17.013 31.2062 15.8818 29.7235 15.8844C28.2408 15.8869 27.0408 17.0223 27.0432 18.4203C27.0457 19.8183 28.2496 20.9495 29.7323 20.9469Z" fill="black"/>
<path d="M50.3704 21.2283C51.8154 21.2283 52.9868 20.0568 52.9868 18.6118C52.9868 17.1667 51.8154 15.9952 50.3704 15.9952C48.9253 15.9952 47.7539 17.1667 47.7539 18.6118C47.7539 20.0568 48.9253 21.2283 50.3704 21.2283Z" fill="black"/>
<path d="M37.7309 21.4156L39.7426 25.4904C37.8332 25.7916 36.7419 25.1409 36.4692 23.5382C36.2646 22.3278 36.6852 21.6202 37.7309 21.4156Z" fill="black"/>
<path d="M15.904 28.1829L13.4153 22.8306C15.171 22.984 16.3613 23.5778 16.9863 24.6119C17.9806 26.2596 17.6199 27.45 15.904 28.1829Z" fill="black"/>
<path d="M55.7733 23.3503C56.1937 23.964 56.3329 24.5833 56.1909 25.2083C56.1284 25.4924 55.9608 25.677 55.6881 25.7623L53.3358 26.5208C53.2328 26.553 53.1394 26.6101 53.0637 26.6871C52.988 26.7641 52.9321 26.8587 52.9011 26.9627C52.8701 27.0667 52.8647 27.1771 52.8855 27.2842C52.9063 27.3914 52.9526 27.492 53.0204 27.5776C53.2932 27.9129 53.2534 28.3646 52.9011 28.9328C52.8116 29.0764 52.6888 29.1965 52.5433 29.2828C52.3978 29.369 52.2338 29.4189 52.0655 29.4281C51.8971 29.4373 51.7294 29.4056 51.5766 29.3357C51.4238 29.2657 51.2904 29.1597 51.188 29.0265C50.6312 28.3163 50.4295 27.7311 50.5829 27.2708C52.7363 26.6117 54.4665 25.3049 55.7733 23.3503Z" fill="black"/>
<path d="M18.6451 27.3812C18.3072 27.9959 18.4847 28.7424 19.0417 29.0486C19.5986 29.3548 20.3241 29.1047 20.662 28.49C21 27.8753 20.8224 27.1287 20.2655 26.8225C19.7085 26.5164 18.983 26.7665 18.6451 27.3812Z" fill="black"/>
<path d="M34.6795 28.95C35.1831 28.95 35.5915 28.5417 35.5915 28.038C35.5915 27.5344 35.1831 27.1261 34.6795 27.1261C34.1758 27.1261 33.7676 27.5344 33.7676 28.038C33.7676 28.5417 34.1758 28.95 34.6795 28.95Z" fill="black"/>
<path d="M24.8188 27.6203L26.771 27.4839C27.4814 28.1772 27.9729 28.8308 28.2457 29.4445C28.2818 29.5265 28.2945 29.6168 28.2825 29.7056C28.2704 29.7944 28.2341 29.8781 28.1775 29.9475C28.0752 30.0782 27.9445 30.1435 27.7854 30.1435C27.6376 30.1435 27.5211 30.081 27.4358 29.956C26.9187 29.2172 26.0464 28.4387 24.8188 27.6203Z" fill="black"/>
<path d="M31.1351 29.2503C31.5636 29.7195 32.2463 29.7937 32.6599 29.416C33.0735 29.0383 33.0615 28.3517 32.633 27.8825C32.2045 27.4132 31.5219 27.339 31.1082 27.7167C30.6946 28.0944 30.7066 28.781 31.1351 29.2503Z" fill="black"/>
<path d="M49.1602 27.6029C49.2113 28.4497 48.7198 28.9782 47.6854 29.1885C46.9637 29.3305 46.5119 28.856 46.3301 27.7649L49.1602 27.6029Z" fill="black"/>
<path d="M33.5123 32.1549C33.4327 32.2856 33.356 32.4334 33.2821 32.5982C33.1457 32.9164 32.9724 32.942 32.7621 32.6749C32.5859 32.4533 32.5775 32.2231 32.7366 31.9844C33.1685 31.3479 33.6146 30.6688 34.0749 29.9471C34.104 29.8973 34.1477 29.8577 34.2001 29.8335C34.2525 29.8094 34.3109 29.802 34.3676 29.8122C34.4244 29.8224 34.4766 29.8498 34.5173 29.8907C34.5579 29.9316 34.585 29.984 34.5949 30.0408C34.7597 30.8194 34.5068 31.4218 33.8362 31.848C33.6941 31.9389 33.5861 32.0412 33.5123 32.1549Z" fill="black"/>
<path d="M45.5893 34.6525C45.5541 34.6874 45.5066 34.7069 45.4571 34.7069C45.4076 34.7069 45.3601 34.6874 45.325 34.6525L44.822 34.1239C44.3805 33.6638 44.0834 33.1014 43.9955 32.5599C43.9076 32.0184 44.0362 31.5417 44.3531 31.2341L44.5152 31.0722C44.6732 30.9192 44.8731 30.8129 45.1035 30.7593C45.334 30.7056 45.5904 30.7057 45.8581 30.7596C46.1257 30.8134 46.3995 30.92 46.6635 31.0731C46.9275 31.2262 47.1765 31.4229 47.3965 31.6518L47.8994 32.1804C47.9331 32.2166 47.9512 32.2647 47.9496 32.3142C47.948 32.3637 47.9269 32.4106 47.8908 32.4446L45.5893 34.6525Z" fill="black"/>
<path d="M40.7308 32.6404C40.7813 32.584 40.8451 32.5413 40.9164 32.516C40.9876 32.4907 41.064 32.4836 41.1387 32.4955C41.2134 32.5074 41.2838 32.5378 41.3437 32.584C41.4036 32.6301 41.4508 32.6906 41.4813 32.7598C41.6689 33.1976 41.6348 33.5472 41.379 33.8087C41.3311 33.8556 41.273 33.8909 41.2094 33.9117C41.1458 33.9324 41.0784 33.938 41.0127 33.9281C40.9471 33.9181 40.885 33.8928 40.8316 33.8543C40.7782 33.8158 40.735 33.7651 40.7053 33.7064C40.4836 33.2686 40.4921 32.9133 40.7308 32.6404Z" fill="black"/>
<path d="M38.1489 34.2005C38.5493 34.2005 38.8738 33.876 38.8738 33.4756C38.8738 33.0753 38.5493 32.7507 38.1489 32.7507C37.7486 32.7507 37.4241 33.0753 37.4241 33.4756C37.4241 33.876 37.7486 34.2005 38.1489 34.2005Z" fill="black"/>
<path d="M32.5766 35.5989C32.9349 35.4548 33.1485 35.1467 33.0536 34.9107C32.9588 34.6748 32.5914 34.6003 32.2331 34.7443C31.8747 34.8884 31.6611 35.1964 31.756 35.4324C31.8509 35.6684 32.2182 35.7429 32.5766 35.5989Z" fill="black"/>
<path d="M28.6204 36.7152C29.0725 36.7152 29.4391 36.3487 29.4391 35.8965C29.4391 35.4444 29.0725 35.0779 28.6204 35.0779C28.1683 35.0779 27.8018 35.4444 27.8018 35.8965C27.8018 36.3487 28.1683 36.7152 28.6204 36.7152Z" fill="black"/>
<path d="M35.3704 40.6694C36.2508 40.6694 36.9645 39.9557 36.9645 39.0753C36.9645 38.1949 36.2508 37.4812 35.3704 37.4812C34.4901 37.4812 33.7764 38.1949 33.7764 39.0753C33.7764 39.9557 34.4901 40.6694 35.3704 40.6694Z" fill="black"/>
<path d="M44.8734 39.953C44.97 40.2599 44.9728 40.5611 44.8819 40.8566C44.7739 41.1862 44.5494 41.3539 44.2084 41.3596C43.7083 41.3652 43.3417 41.1834 43.1087 40.814C42.9496 40.5639 42.9326 40.3053 43.0576 40.0382C43.3418 39.4301 43.7254 38.9499 44.2084 38.5976C44.271 38.55 44.3459 38.522 44.4241 38.5167C44.5024 38.5114 44.5808 38.5291 44.65 38.5677C44.7191 38.6063 44.7761 38.6642 44.8142 38.7345C44.8522 38.8047 44.8699 38.8845 44.8648 38.9642L44.8307 39.5097C44.8193 39.6631 44.8336 39.8109 44.8734 39.953Z" fill="black"/>
<path d="M24.8105 46.2084C23.5775 44.7482 22.7195 43.1828 22.2366 41.5123C24.0775 40.1316 26.1884 40.1259 28.5691 41.4953C29.4384 41.9953 30.3958 42.2652 31.4413 42.305C31.5602 42.3106 31.6772 42.3278 31.7906 42.3561C32.41 42.5266 32.6287 42.8135 32.4469 43.2169C32.4203 43.2741 32.3761 43.3207 32.3217 43.3486C32.2674 43.3766 32.2062 43.3843 32.1486 43.3703L28.1088 42.3987C27.7111 42.3021 27.4639 42.4555 27.3673 42.8589C27.2707 43.2851 27.2736 43.6885 27.3759 44.0692C27.444 44.3362 27.3645 44.5465 27.1372 44.6999L24.8105 46.2084Z" fill="black"/>
<path d="M34.8333 45.7999C35.2993 46.2546 35.5067 46.7916 35.4556 47.4111C35.4272 47.7691 35.2367 47.9709 34.8844 48.0163C34.3786 48.0845 33.8927 47.9396 33.4267 47.5816C33.3155 47.4958 33.2283 47.3829 33.1734 47.2537C33.1184 47.1245 33.0977 46.9833 33.1131 46.8437C33.1285 46.7041 33.1796 46.5709 33.2614 46.4568C33.3432 46.3426 33.453 46.2515 33.5802 46.1921C33.7734 46.1011 33.9609 45.9449 34.1428 45.7232C34.3246 45.5073 34.4213 45.2601 34.4327 44.9816C34.4497 44.5838 34.623 44.2656 34.9527 44.0269C35.2311 43.828 35.3845 43.8961 35.4129 44.2314C35.4527 44.6008 35.2936 44.8793 34.9356 45.0668C34.5719 45.2657 34.5378 45.5101 34.8333 45.7999Z" fill="black"/>
<path d="M52.0152 52.9844C51.9789 52.9099 51.9271 52.8441 51.8633 52.7914C51.7995 52.7388 51.7253 52.7005 51.6459 52.6795C51.5664 52.6584 51.4836 52.655 51.4031 52.6694C51.3227 52.6838 51.2465 52.7156 51.1799 52.7628C49.964 53.5924 48.8134 53.5667 47.7282 52.686C47.5123 52.5099 47.4129 52.2855 47.4299 52.0128C47.5151 50.6662 47.2537 49.348 46.6458 48.0582C46.6004 47.9589 46.5805 47.8498 46.5879 47.7409C46.5953 47.632 46.6297 47.5266 46.6881 47.4344C46.7465 47.3421 46.827 47.2659 46.9223 47.2126C47.0176 47.1593 47.1246 47.1306 47.2338 47.1292C48.444 47.1064 49.0038 47.6974 48.9129 48.9019C48.8902 49.1974 49.0094 49.4105 49.2708 49.5411L49.9782 49.9076C50.2566 50.0497 50.4242 50.2713 50.4811 50.5724C50.5947 51.2258 51.0521 51.6264 51.8532 51.7741C51.9844 51.7977 52.1079 51.8526 52.2133 51.9342C52.3187 52.0159 52.4027 52.1218 52.4583 52.2429C52.8617 53.1463 53.3731 54.0809 53.9925 55.0469C54.6118 56.0071 54.4896 56.6691 53.6259 57.0327C52.2055 57.6293 51.7168 57.1918 52.16 55.7202C52.4612 54.7316 52.4129 53.8196 52.0152 52.9844Z" fill="black"/>
<path d="M52.1343 48.1519L52.7309 49.8138C52.873 50.132 52.7848 50.3564 52.4667 50.4871C52.4097 50.5107 52.3476 50.5192 52.2864 50.5117C52.2251 50.5042 52.1669 50.4811 52.1173 50.4445C51.8162 50.2286 51.515 50.1263 51.2138 50.1377C50.799 50.1547 50.64 49.9587 50.7366 49.5496C50.9241 48.7485 51.3899 48.2825 52.1343 48.1519Z" fill="black"/>
<path d="M40.0405 54.2369C40.9439 54.2824 41.4013 54.6971 41.4127 55.4812C41.4127 55.7426 41.3161 55.9556 41.1229 56.1204C40.8843 56.325 40.6229 56.4301 40.3388 56.4358C40.0433 56.4414 39.8161 56.3165 39.657 56.0608L36.8955 51.6204C36.6829 51.2781 36.6012 50.8705 36.6654 50.4726C36.7296 50.0748 36.9354 49.7136 37.245 49.4556C38.2166 48.6374 39.2223 48.663 40.2621 49.5323C40.5292 49.7539 40.8359 49.8561 41.1825 49.8391C41.9894 49.7993 42.62 49.4783 43.0746 48.876C43.2735 48.6146 43.4752 48.6118 43.6798 48.8675C43.9298 49.1857 44.0945 49.5522 44.1741 49.967C44.2422 50.2965 44.1059 50.4499 43.765 50.4272C43.1286 50.3817 42.478 50.5096 41.8132 50.8107C41.5519 50.93 41.3502 51.1119 41.2081 51.3562C40.7706 52.0778 40.2621 52.6801 39.6825 53.163C38.8927 53.8221 39.0121 54.1801 40.0405 54.2369Z" fill="black"/>
<path d="M31.4415 50.4281C31.7571 50.4281 32.0128 50.1723 32.0128 49.8568C32.0128 49.5412 31.7571 49.2854 31.4415 49.2854C31.126 49.2854 30.8701 49.5412 30.8701 49.8568C30.8701 50.1723 31.126 50.4281 31.4415 50.4281Z" fill="black"/>
<path d="M33.9898 50.5213C34.2911 50.6975 34.4702 50.9562 34.5271 51.2973C34.5953 51.7009 34.4446 51.8147 34.0751 51.6384C33.6202 51.4167 33.4497 51.104 33.5634 50.7003C33.6316 50.4559 33.7738 50.3962 33.9898 50.5213Z" fill="black"/>
<path d="M44.2168 52.8053L44.4639 52.3109C44.5533 52.1344 44.6964 51.9907 44.8725 51.9003C45.0485 51.81 45.2487 51.7776 45.4443 51.808L46.3905 51.9443C46.5341 51.9665 46.6707 52.0218 46.7893 52.1058C46.908 52.1898 47.0054 52.3003 47.074 52.4284C47.1426 52.5566 47.1806 52.6989 47.1847 52.8442C47.1889 52.9895 47.1592 53.1338 47.0981 53.2657L46.6206 54.3056C46.5578 54.4411 46.4635 54.5596 46.3456 54.6512C46.2277 54.7429 46.0897 54.805 45.9429 54.8325C45.7962 54.86 45.645 54.8521 45.5019 54.8094C45.3588 54.7667 45.228 54.6905 45.1203 54.587L44.4128 53.905C44.2665 53.767 44.1685 53.5855 44.1332 53.3875C44.0979 53.1895 44.1272 52.9854 44.2168 52.8053Z" fill="black"/>
<path d="M27.4865 53.0272C27.4421 52.985 27.4106 52.9314 27.3955 52.8722C27.3803 52.8129 27.3821 52.7504 27.4006 52.6914C27.4191 52.6323 27.4535 52.5791 27.5003 52.5376C27.547 52.4961 27.6042 52.4678 27.6656 52.4559C27.876 52.4218 28.1006 52.5554 28.3393 52.8567C28.3698 52.8983 28.3892 52.947 28.3959 52.9981C28.4025 53.0493 28.396 53.1011 28.3771 53.1484C28.3582 53.1956 28.3275 53.2368 28.288 53.2679C28.2485 53.299 28.2016 53.3188 28.1518 53.3256C27.9414 53.3598 27.7196 53.2603 27.4865 53.0272Z" fill="black"/>
<path d="M20.8812 54.3562L24.5127 55.4558C24.5703 55.4741 24.6227 55.5059 24.6658 55.5483C24.7088 55.5907 24.7411 55.6428 24.7603 55.7001C24.7794 55.7575 24.7847 55.8185 24.7758 55.8783C24.7668 55.938 24.7438 55.9948 24.7087 56.044C24.2541 56.6749 23.6574 56.9107 22.9186 56.7515C22.6401 56.6947 22.4156 56.5498 22.2451 56.3168C21.7507 55.6462 21.1057 55.4302 20.3101 55.6689L20.8812 54.3562Z" fill="black"/>
<path d="M26.3825 57.696C26.7657 57.9693 27.2691 57.9207 27.5069 57.5873C27.7447 57.2539 27.6269 56.762 27.2437 56.4887C26.8605 56.2154 26.357 56.264 26.1192 56.5974C25.8814 56.9308 25.9993 57.4227 26.3825 57.696Z" fill="black"/>
<path d="M31.5177 58.2432C31.4836 58.2102 31.4576 58.1697 31.4418 58.1249C31.426 58.0802 31.4208 58.0324 31.4266 57.9853C31.4324 57.9382 31.4491 57.8931 31.4752 57.8535C31.5014 57.8139 31.5363 57.7809 31.5773 57.7571C31.7763 57.6434 32.0436 57.7941 32.379 58.2091C32.578 58.4536 32.5268 58.627 32.2255 58.7293C32.1231 58.7691 31.8872 58.607 31.5177 58.2432Z" fill="black"/>
<path d="M37.4592 61.0241C38.1796 60.7212 38.5803 60.0394 38.3541 59.5013C38.1278 58.9631 37.3604 58.7723 36.64 59.0752C35.9195 59.378 35.5188 60.0598 35.7451 60.598C35.9713 61.1362 36.7387 61.3269 37.4592 61.0241Z" fill="black"/>
<path d="M55.9357 69.2882L56.7112 69.5183C56.8804 69.5674 57.0304 69.6685 57.1403 69.8074C57.2502 69.9463 57.3147 70.1162 57.3249 70.2939C57.3647 71.0609 57.6317 71.7626 58.126 72.399C58.1644 72.4537 58.1807 72.521 58.1714 72.5872C58.1622 72.6534 58.1282 72.7137 58.0764 72.7558C58.0245 72.798 57.9585 72.8189 57.8918 72.8144C57.8251 72.8099 57.7626 72.7802 57.7169 72.7314C57.518 72.5098 57.43 72.2399 57.4527 71.9218C57.4812 71.4672 57.2652 71.2229 56.805 71.1888C56.072 71.1433 55.6543 70.7258 55.5521 69.936C55.4952 69.5382 55.268 69.3677 54.8703 69.4245C54.7283 69.4472 54.5862 69.4472 54.4442 69.4245C54.1657 69.3734 53.9243 69.2513 53.7197 69.0581C52.2311 67.6604 50.4639 67.3422 48.4185 68.1035C48.2954 68.1483 48.1622 68.1567 48.0345 68.1278C47.9068 68.0988 47.7901 68.0338 47.6984 67.9403C47.6067 67.8468 47.5438 67.7289 47.5174 67.6006C47.4909 67.4724 47.5019 67.3393 47.5491 67.2171C48.5804 64.6347 46.5265 63.5182 44.873 62.0864C44.7867 62.0129 44.7186 61.9204 44.6741 61.8162C44.6296 61.7119 44.6099 61.5988 44.6165 61.4857C44.6231 61.3725 44.6559 61.2623 44.7122 61.164C44.7685 61.0656 44.8469 60.9817 44.9412 60.9188L45.1798 60.7569C45.2945 60.6785 45.4319 60.6401 45.5706 60.6478C45.7093 60.6555 45.8416 60.7088 45.9469 60.7994C46.4356 61.2142 46.9583 61.5068 47.5151 61.6773C48.6799 62.0353 48.9015 61.7285 48.1799 60.7569C47.9356 60.433 47.6117 60.3363 47.2083 60.467C46.7708 60.6091 46.7139 60.5154 47.0378 60.1858C47.9526 59.2597 48.9299 59.1091 49.9697 59.7341C51.0776 60.3903 51.1458 61.8989 51.2652 63.058C51.3618 63.9557 51.6657 64.0296 52.1771 63.2796L52.5605 62.7256C52.7253 62.4813 52.9555 62.3676 53.2509 62.3847L56.089 62.5722C56.2421 62.5814 56.3881 62.6425 56.5038 62.7459C56.6195 62.8493 56.6985 62.989 56.7282 63.1432C56.8191 63.6375 56.6629 63.933 56.2595 64.0296C56.0246 64.0846 55.7767 64.0448 55.5691 63.9188C55.2509 63.7199 54.9186 63.595 54.572 63.5438C54.1572 63.4757 54.0179 63.6404 54.1543 64.0381C54.535 65.1632 54.7112 66.2626 54.6828 67.3365C54.6658 67.7967 54.8618 67.9161 55.2708 67.6945L56.7197 66.9103C57.1856 66.6546 57.3164 66.7711 57.1118 67.2598C56.8448 67.9132 56.4271 68.4558 55.8589 68.8876C55.6202 69.0694 55.6459 69.203 55.9357 69.2882Z" fill="black"/>
<path d="M19.6711 60.7572L19.9439 60.0071C20.0633 59.6888 20.2934 59.5382 20.6344 59.5553C21.0151 59.578 21.3732 59.7258 21.7085 59.9985C22.453 60.618 23.1264 61.3511 23.7288 62.1978C24.5358 63.3458 24.4136 63.4566 23.3623 62.5303C22.6292 61.8824 21.4982 61.4562 19.9694 61.2516C19.9141 61.2433 19.8612 61.2229 19.8146 61.192C19.768 61.1611 19.7291 61.1205 19.7004 61.0731C19.6718 61.0256 19.6543 60.9727 19.6492 60.918C19.6442 60.8634 19.6516 60.8084 19.6711 60.7572Z" fill="black"/>
<path d="M33.4874 61.6233C32.9932 62.2165 32.8095 62.8782 33.0771 63.1012C33.3448 63.3242 33.9624 63.0241 34.4567 62.4309C34.9509 61.8377 35.1346 61.176 34.8669 60.953C34.5993 60.73 33.9816 61.0301 33.4874 61.6233Z" fill="black"/>
<path d="M40.8831 61.0559L40.6624 60.8681C40.3576 60.6087 39.9003 60.6455 39.641 60.9502L37.7515 63.1704C37.4921 63.4752 37.5289 63.9325 37.8336 64.1918L38.0544 64.3797C38.3591 64.639 38.8164 64.6022 39.0758 64.2975L40.9653 62.0773C41.2247 61.7726 41.1879 61.3153 40.8831 61.0559Z" fill="black"/>
<path d="M30.3925 63.9617C30.9291 63.9617 31.364 63.5266 31.364 62.99C31.364 62.4534 30.9291 62.0184 30.3925 62.0184C29.8559 62.0184 29.4209 62.4534 29.4209 62.99C29.4209 63.5266 29.8559 63.9617 30.3925 63.9617Z" fill="black"/>
<path d="M16.0147 63.8932C16.2307 65.0468 15.6993 65.9562 14.4207 66.6211C14.7219 65.6266 15.2532 64.7172 16.0147 63.8932Z" fill="#BE6901"/>
<path d="M41.8053 66.8085C41.3677 67.6098 41.0893 68.4935 40.9699 69.4596C40.9621 69.5289 40.9389 69.5957 40.902 69.6549C40.8651 69.7141 40.8153 69.7644 40.7565 69.8019C40.6977 69.8395 40.6313 69.8635 40.562 69.8721C40.4928 69.8807 40.4224 69.8737 40.3562 69.8517L40.0749 69.7579C39.9725 69.7245 39.8853 69.6564 39.829 69.5657C39.7728 69.4751 39.7512 69.3679 39.768 69.2635L40.2795 66.0839C40.2906 66.0175 40.3151 65.9541 40.3516 65.8975C40.3881 65.841 40.4356 65.7925 40.4915 65.755C40.5473 65.7175 40.6103 65.6918 40.6765 65.6794C40.7426 65.6671 40.8105 65.6683 40.8762 65.6832L41.3451 65.794C41.9418 65.9304 42.0951 66.2686 41.8053 66.8085Z" fill="black"/>
<path d="M60.1541 66.433L61.2195 68.7001C60.5888 68.3989 60.0945 68.3535 59.7365 68.5637C59.5433 68.683 59.4468 68.6262 59.4468 68.3933C59.4638 67.2569 59.6996 66.6034 60.1541 66.433Z" fill="black"/>
<path d="M44.0634 68.3593C44.694 68.7343 45.2992 68.8622 45.606 69.5781C45.6772 69.7433 45.6842 69.9288 45.6258 70.0977C45.5674 70.2667 45.4477 70.4067 45.2907 70.49C45.0918 70.5979 44.8702 70.6661 44.6259 70.6945C44.5317 70.705 44.4363 70.6963 44.3454 70.6687C44.2545 70.6412 44.17 70.5954 44.0969 70.5342C44.0237 70.473 43.9634 70.3976 43.9196 70.3124C43.8758 70.2272 43.8493 70.134 43.8418 70.0383L43.731 68.5554C43.7139 68.277 43.8247 68.2115 44.0634 68.3593Z" fill="black"/>
<path d="M21.9854 71.1154C22.3074 70.862 22.4291 70.4796 22.2573 70.2612C22.0854 70.0428 21.6851 70.0712 21.3631 70.3246C21.0411 70.578 20.9193 70.9605 21.0912 71.1788C21.263 71.3972 21.6634 71.3688 21.9854 71.1154Z" fill="black"/>
<path d="M52.7762 72.1487C53.3638 72.3195 53.9573 72.0548 54.1017 71.5576C54.2462 71.0604 53.8869 70.5189 53.2993 70.3482C52.7117 70.1775 52.1182 70.4421 51.9738 70.9393C51.8293 71.4366 52.1886 71.978 52.7762 72.1487Z" fill="black"/>
<path d="M17.549 72.7745C17.4946 72.7546 17.4457 72.7221 17.4063 72.6796C17.3669 72.6372 17.338 72.586 17.3222 72.5303C17.3064 72.4746 17.3041 72.4158 17.3154 72.359C17.3266 72.3022 17.3512 72.2488 17.3871 72.2033C17.8872 71.5839 18.5918 71.206 19.5011 71.0696C19.9899 70.9957 20.3336 71.1833 20.5326 71.6323L20.8309 72.2971C21.0184 72.7233 20.8849 72.999 20.4303 73.1241C19.7142 73.3286 18.7538 73.2121 17.549 72.7745Z" fill="black"/>
<path d="M11.1141 73.226L12.1797 73.3112C12.4581 73.3396 12.64 73.4874 12.7253 73.7545C12.7707 73.8795 12.7651 74.013 12.7083 74.1551C12.6571 74.2972 12.5406 74.4278 12.3588 74.5472C11.4608 75.1553 10.4492 75.6696 9.32397 76.0902L11.1141 73.226Z" fill="black"/>
<path d="M33.6313 74.4446C33.9154 74.0923 34.245 73.9843 34.62 74.1207C34.7342 74.1628 34.8336 74.2374 34.9058 74.3354C34.978 74.4334 35.0199 74.5505 35.0263 74.6721C35.0326 74.7937 35.0032 74.9144 34.9416 75.0194C34.88 75.1244 34.7888 75.2091 34.6796 75.2628C33.8046 75.6833 33.2648 76.3509 33.0602 77.2657C32.9125 77.8963 32.7733 78.2799 32.6426 78.4162C32.3017 78.7799 31.8131 78.8423 31.1767 78.6037C30.8934 78.498 30.6499 78.3108 30.4779 78.0668C29.7904 77.0952 29.8386 76.3679 30.6227 75.885C31.7477 75.1861 32.583 75.74 33.6313 74.4446Z" fill="black"/>
<path d="M56.7829 80.2522C57.1233 80.4968 57.5619 80.4688 57.7625 80.1896C57.9631 79.9104 57.8498 79.4857 57.5094 79.2411C57.169 78.9965 56.7304 79.0246 56.5298 79.3038C56.3292 79.583 56.4425 80.0076 56.7829 80.2522Z" fill="black"/>
<path d="M47.8222 83.0621C47.7577 83.0807 47.6885 83.0733 47.6296 83.0414C47.5706 83.0095 47.5265 82.9558 47.5068 82.8917L47.447 82.7127C47.3264 82.3155 47.2262 81.9164 47.1519 81.5385C47.0776 81.1605 47.0308 80.8111 47.0141 80.5102C46.9975 80.2092 47.0114 79.9627 47.0549 79.7848C47.0985 79.6068 47.1709 79.501 47.268 79.4733L47.754 79.3198C47.8503 79.2893 47.9694 79.3375 48.1047 79.4616C48.24 79.5857 48.3887 79.7833 48.5424 80.043C48.696 80.3028 48.8516 80.6196 49.0001 80.9753C49.1486 81.331 49.2871 81.7186 49.4077 82.1159L49.4589 82.295C49.4694 82.3274 49.4733 82.3616 49.4704 82.3956C49.4674 82.4296 49.4577 82.4626 49.4418 82.4928C49.426 82.523 49.4042 82.5497 49.3778 82.5714C49.3515 82.593 49.3211 82.6092 49.2884 82.6189L47.8222 83.0621Z" fill="black"/>
<path d="M62.43 81.9105C62.7482 82.3253 62.8988 82.7912 62.8817 83.3083C62.8704 83.5981 62.7396 83.814 62.4896 83.956L61.4243 84.5611C61.1458 84.7202 60.947 84.652 60.8277 84.3566L60.1373 82.6691C60.1038 82.5877 60.0877 82.5003 60.0901 82.4124C60.0924 82.3245 60.1131 82.2379 60.1508 82.1585C60.1885 82.079 60.2424 82.0084 60.3091 81.951C60.3757 81.8936 60.4538 81.8508 60.5379 81.8253C61.7311 81.4617 62.6033 80.6463 63.1544 79.3793C63.1885 79.2997 63.2424 79.2798 63.3163 79.3196L63.5635 79.4645C63.7112 79.5497 63.7312 79.6605 63.6232 79.7969L62.4385 81.2372C62.2567 81.4588 62.2539 81.6833 62.43 81.9105Z" fill="black"/>
<path d="M51.4274 83.0256C51.5026 83.495 51.8687 83.8267 52.2452 83.7664C52.6216 83.7061 52.8659 83.2767 52.7907 82.8072C52.7155 82.3378 52.3494 82.0062 51.9729 82.0665C51.5964 82.1268 51.3522 82.5562 51.4274 83.0256Z" fill="black"/>
<path d="M67.2878 82.2344L68.1998 84.2799C66.9384 84.1435 66.6344 83.4617 67.2878 82.2344Z" fill="black"/>
<path d="M44.5745 89.6152L44.6853 106.976C44.6853 107.294 44.8445 107.473 45.1627 107.513C46.9127 107.746 48.7707 107.76 50.7366 107.556C50.8232 107.547 50.9106 107.557 50.9931 107.585C51.0756 107.612 51.1514 107.657 51.2156 107.715C51.2799 107.774 51.3311 107.845 51.3661 107.925C51.401 108.005 51.4188 108.091 51.4184 108.178V108.434C51.4184 108.905 51.1826 109.147 50.711 109.158L43.2791 109.346C43.2042 109.348 43.1296 109.335 43.0598 109.308C42.9901 109.28 42.9266 109.239 42.8732 109.186C42.8198 109.134 42.7777 109.071 42.7493 109.002C42.7209 108.932 42.7069 108.858 42.7081 108.783L42.9297 89.9901C42.9751 89.2629 43.2337 88.7175 43.7053 88.3538C43.9553 88.1663 44.2137 88.1549 44.4808 88.3197C44.8047 88.5299 44.8359 88.9618 44.5745 89.6152Z" fill="black"/>
<path d="M30.1027 90.3142L30.2391 109.039C30.2391 109.079 30.2311 109.118 30.2156 109.155C30.2001 109.192 30.1773 109.225 30.1487 109.253C30.1201 109.281 30.0862 109.302 30.049 109.317C30.0119 109.331 29.9722 109.338 29.9323 109.337L22.4236 109.158C21.9236 109.141 21.6566 108.883 21.6226 108.383L21.6055 108.11C21.6008 108.046 21.6094 107.981 21.6309 107.92C21.6523 107.859 21.6861 107.803 21.7301 107.756C21.7741 107.709 21.8274 107.671 21.8866 107.646C21.9458 107.62 22.0098 107.607 22.0743 107.607L27.8442 107.59C28.2362 107.59 28.4323 107.394 28.4323 107.002L28.4493 90.2461C28.8755 90.1211 29.4266 90.1438 30.1027 90.3142Z" fill="black"/>
</svg>
