<svg width="69" height="84" viewBox="0 0 69 84" fill="none" xmlns="http://www.w3.org/2000/svg">
<path d="M39.8895 14.3964C39.7018 15.0161 39.6734 15.5334 39.8042 15.9484" stroke="black" stroke-width="1.70457"/>
<path d="M39.8049 15.9479C39.4353 16.2719 39.0544 16.1667 38.6621 15.6323" stroke="#008674" stroke-width="1.70457"/>
<path d="M38.6619 15.6324C38.2642 14.7915 37.6391 14.3113 36.7869 14.192" stroke="black" stroke-width="1.70457"/>
<path d="M36.7867 14.1917C34.4003 12.4701 28.639 10.757 26.4401 13.8423" stroke="#008674" stroke-width="1.70457"/>
<path d="M26.4411 13.8424C25.9863 13.9618 25.5912 14.283 25.2557 14.8061" stroke="black" stroke-width="1.70457"/>
<path d="M25.2557 14.8054C23.875 17.0043 23.1279 18.5128 23.0142 19.331C22.7699 21.1038 22.4773 23.0783 22.1363 25.2544C22.1251 25.3278 22.0941 25.3967 22.0467 25.4538C21.9993 25.5109 21.9372 25.554 21.8671 25.5785C21.7971 25.6031 21.7217 25.6081 21.649 25.593C21.5763 25.5779 21.5091 25.5434 21.4545 25.4931C20.625 24.7317 19.7358 24.0641 18.7869 23.4902C14.909 21.1464 9.34361 21.547 7.35779 26.243" stroke="#008674" stroke-width="1.70457"/>
<path d="M7.35755 26.2429C7.01664 26.8111 6.79502 27.5583 6.69275 28.4844" stroke="black" stroke-width="1.70457"/>
<path d="M6.69277 28.4847L5.0564 40.2463" stroke="#008674" stroke-width="1.70457"/>
<path d="M5.0567 40.2461C4.93163 40.4735 4.87762 40.971 4.89467 41.7385" stroke="black" stroke-width="1.70457"/>
<path d="M4.89484 41.7375L4.16174 46.4942" stroke="#008674" stroke-width="1.70457"/>
<path d="M4.16147 46.4934C4.21264 46.5616 4.20409 46.718 4.13586 46.9625" stroke="black" stroke-width="1.70457"/>
<path d="M4.13605 46.962L2.84909 56.5928C2.84195 56.6423 2.84503 56.6927 2.85809 56.741C2.87116 56.7893 2.89396 56.8343 2.92509 56.8734C2.95623 56.9126 2.99502 56.9449 3.03912 56.9685C3.08322 56.992 3.13167 57.0063 3.1815 57.0104L26.9772 58.698" stroke="#008674" stroke-width="1.70457"/>
<path d="M26.9772 58.698L7.93722 78.3857C7.67017 78.6585 7.40027 78.6613 7.12754 78.3942L3.00252 74.3885C2.85542 74.2439 2.65663 74.1637 2.44924 74.1653C2.24185 74.1669 2.04252 74.2502 1.89451 74.397L1.6985 74.5931C1.60919 74.6844 1.5389 74.7925 1.49178 74.9112C1.44465 75.0299 1.42162 75.1568 1.424 75.2845C1.42637 75.4122 1.45415 75.5381 1.50567 75.655C1.55718 75.7719 1.63144 75.8774 1.72409 75.9653L7.34914 81.3687C7.37549 81.3955 7.4071 81.4166 7.4421 81.4307C7.4771 81.4448 7.51477 81.4516 7.5529 81.4508C7.59103 81.45 7.62885 81.4416 7.66412 81.4261C7.69938 81.4105 7.73138 81.3881 7.75822 81.3602L29.5767 58.8514" stroke="black" stroke-width="1.70457"/>
<path d="M29.5767 58.8516L39.3182 59.5078" stroke="#008674" stroke-width="1.70457"/>
<path d="M39.3184 59.5078L61.58 82.4598C61.6167 82.4982 61.6607 82.529 61.7094 82.5502C61.7581 82.5715 61.8106 82.5829 61.8637 82.5837C61.9168 82.5845 61.9697 82.5747 62.019 82.5549C62.0683 82.5351 62.1132 82.5056 62.151 82.4683L67.8102 76.9796C68.1795 76.616 68.1909 76.2438 67.8443 75.8631L67.4863 75.4796C67.1397 75.0989 66.7846 75.0932 66.4209 75.4625L62.33 79.5535C62.097 79.7921 61.8641 79.7893 61.6311 79.545L42.3184 59.6868" stroke="black" stroke-width="1.70457"/>
<path d="M42.318 59.6868L55.9631 60.7266" stroke="#008674" stroke-width="1.70457"/>
<path d="M55.9633 60.7265L60.8127 60.8032C61.1196 60.8089 61.2986 60.6583 61.3497 60.3515C61.3895 60.1128 61.3611 59.8799 61.2645 59.6526" stroke="black" stroke-width="1.70457"/>
<path d="M61.2644 59.6528L61.1707 48.5134" stroke="#008674" stroke-width="1.70457"/>
<path d="M61.1708 48.5139C61.2276 48.0647 61.2077 47.7293 61.1111 47.5076" stroke="black" stroke-width="1.70457"/>
<path d="M61.111 47.5074L61.0428 41.1238" stroke="#008674" stroke-width="1.70457"/>
<path d="M61.0428 41.1237C61.2815 40.0953 61.2957 39.2969 61.0855 38.7288" stroke="black" stroke-width="1.70457"/>
<path d="M61.0855 38.729L61.0599 31.7062" stroke="#008674" stroke-width="1.70457"/>
<path d="M61.06 31.7071C61.1567 31.1727 61.1538 30.6809 61.0515 30.2318" stroke="black" stroke-width="1.70457"/>
<path d="M61.0515 30.2326L61.0685 25.9363" stroke="#008674" stroke-width="1.70457"/>
<path d="M61.0685 25.9372C61.1822 25.3118 61.1766 24.7547 61.0515 24.2657" stroke="black" stroke-width="1.70457"/>
<path d="M61.0515 24.2665V21.121" stroke="#008674" stroke-width="1.70457"/>
<path d="M61.0516 21.1217L61.0345 19.9619" stroke="black" stroke-width="1.70457"/>
<path d="M61.0343 19.9622L60.8468 16.5695" stroke="#008674" stroke-width="1.70457"/>
<path d="M60.8469 16.5703L60.8127 15.3763" stroke="black" stroke-width="1.70457"/>
<path d="M60.8128 15.3764C60.6253 12.5241 60.0458 9.82238 59.0742 7.27122C57.6423 3.4956 53.8497 2.25979 50.0315 1.80808C42.7871 0.947274 40.0938 8.49849 39.8893 14.3963" stroke="#008674" stroke-width="1.70457"/>
<path d="M60.8128 15.3765L39.8893 14.3964" stroke="#008674" stroke-width="1.70457"/>
<path d="M60.8468 16.5694L39.804 15.9473" stroke="#008674" stroke-width="1.70457"/>
<path d="M61.0341 19.9618L23.8661 19.7743C23.5706 19.7743 23.3604 19.905 23.2354 20.1664C23.1388 20.3595 23.136 20.5698 23.2269 20.797C23.2648 20.8951 23.3315 20.9793 23.4182 21.0386C23.5049 21.098 23.6076 21.1296 23.7127 21.1294L61.0512 21.1209" stroke="#008674" stroke-width="1.70457"/>
<path d="M61.0516 24.2657C60.455 24.3851 59.9777 24.6407 59.3897 24.6748C52.4975 25.0044 45.6082 25.3709 38.7218 25.7743C28.3353 26.3766 17.8806 26.5328 7.35779 26.243" stroke="#008674" stroke-width="1.70457"/>
<path d="M38.6621 15.6321L26.5256 15.4532C26.2359 15.4532 25.9774 15.3651 25.7501 15.189L25.2557 14.8054" stroke="#008674" stroke-width="1.70457"/>
<path d="M61.0684 25.9361C60.5343 25.76 59.3383 25.7259 57.4803 25.8339C49.395 26.2998 41.5966 26.7401 34.0852 27.1549C25.2896 27.6322 17.0651 27.4703 8.34622 27.3765C8.27656 27.3768 8.20856 27.396 8.14984 27.4322C8.09113 27.4683 8.044 27.5198 8.01381 27.581L7.79226 28.0072C7.68431 28.2231 7.74963 28.3424 7.98827 28.3652C13.3065 28.8083 17.3719 29.0754 20.1844 29.1663C31.7528 29.5584 44.6791 29.9731 58.9633 30.4106C59.6451 30.4334 60.3412 30.3737 61.0514 30.2317" stroke="#008674" stroke-width="1.70457"/>
<path d="M61.0598 31.7064L7.3915 29.5331C7.1074 29.5217 6.90573 29.3882 6.78641 29.1325C6.70686 28.9563 6.67557 28.7404 6.69262 28.4847" stroke="#008674" stroke-width="1.70457"/>
<path d="M36.7867 14.1918C33.3378 14.5271 29.889 14.4106 26.4401 13.8424" stroke="#008674" stroke-width="1.70457"/>
<path d="M61.0856 38.7289L51.3952 38.226C51.1395 38.2146 51.0684 38.3254 51.1821 38.5584L51.4208 39.0442C51.4725 39.1519 51.5578 39.24 51.6638 39.2953C51.7698 39.3506 51.8908 39.3702 52.0088 39.351C53.1452 39.1635 54.1708 39.1664 55.0856 39.3595C55.6651 39.4845 55.6651 39.601 55.0856 39.709L52.6821 40.1692C52.5628 40.1919 52.5088 40.263 52.5202 40.3823L52.5372 40.6124C52.5438 40.7301 52.596 40.8407 52.6832 40.9216C52.7704 41.0025 52.886 41.0474 53.006 41.0471L61.043 41.1238" stroke="#008674" stroke-width="1.70457"/>
<path d="M61.1109 47.5077C58.0541 47.5248 55.7756 47.4537 54.2756 47.2946C54.0256 47.2662 53.7329 47.1043 53.3977 46.8088" stroke="#008674" stroke-width="1.70457"/>
<path d="M53.3978 46.8088C53.4774 41.8542 51.2842 38.6013 46.8182 37.0502C45.6477 36.6411 43.4176 36.7945 40.1278 37.5104" stroke="#008674" stroke-width="1.70457"/>
<path d="M40.1278 37.5104C37.4232 37.2774 34.7811 37.0871 32.2015 36.9393C28.5537 36.7348 24.9656 35.9848 21.1303 35.678C17.2496 35.3655 13.1729 34.891 8.90009 34.2547C8.09327 34.1353 7.29496 34.1637 6.50518 34.3399C6.19268 34.4081 6.10461 34.587 6.24097 34.8768C6.33757 35.0927 6.5137 35.2149 6.76939 35.2433C12.2581 35.8229 16.778 36.445 20.3292 37.1098" stroke="#008674" stroke-width="1.70457"/>
<path d="M20.3302 37.1096C18.4207 38.0416 16.963 39.1697 15.9572 40.4939" stroke="#008674" stroke-width="1.70457"/>
<path d="M15.9571 40.4934C15.8093 40.3684 15.6645 40.2661 15.5225 40.1866C15.3804 40.107 15.2128 40.0786 15.0196 40.1013C11.6389 40.4877 8.3178 40.536 5.0564 40.2462" stroke="#008674" stroke-width="1.70457"/>
<path d="M53.3978 46.8088C53.267 47.15 53.1959 47.6645 53.1846 48.3524" stroke="black" stroke-width="1.70457"/>
<path d="M53.185 48.3513L52.435 50.5502C52.3086 50.9161 52.0477 51.2204 51.7046 51.4022C51.3616 51.584 50.9619 51.6298 50.5855 51.5303C46.2048 50.3712 41.699 50.2973 37.0683 51.3087C36.8666 51.3532 36.6562 51.3315 36.4687 51.247C36.2813 51.1624 36.1268 51.0196 36.0286 50.84C34.3922 47.7831 34.3382 44.6126 35.8666 41.3285" stroke="#008674" stroke-width="1.70457"/>
<path d="M29.662 38.0048C30.6393 38.7548 31.2671 39.4792 31.5456 40.1781" stroke="#008674" stroke-width="1.70457"/>
<path d="M32.6364 41.7035C33.3239 43.9422 33.2956 46.5019 32.5512 49.3826C32.2359 50.6099 31.537 51.8031 30.0796 51.4366C26.1477 50.4536 21.9573 50.3655 17.5084 51.1723C17.2482 51.2198 16.9796 51.1864 16.7389 51.0767C16.4982 50.967 16.2968 50.7863 16.1619 50.5587L14.6362 47.9507" stroke="#008674" stroke-width="1.70457"/>
<path d="M14.6362 47.9515L14.3633 46.7235" stroke="black" stroke-width="1.70457"/>
<path d="M14.3633 46.7234L15.7099 40.9619" stroke="#008674" stroke-width="1.70457"/>
<path d="M15.71 40.9623C15.8976 40.7918 15.98 40.6354 15.9573 40.4933" stroke="black" stroke-width="1.70457"/>
<path d="M40.1286 37.5103L37.2728 39.0532C37.0228 39.1839 36.8353 39.3771 36.7103 39.6329L35.8663 41.3293" stroke="black" stroke-width="1.70457"/>
<path d="M35.8671 41.3287C34.469 40.9706 33.3921 41.0957 32.6362 41.7037" stroke="#008674" stroke-width="1.70457"/>
<path d="M32.637 41.7044C32.256 41.5054 31.8922 40.9965 31.5454 40.1779" stroke="black" stroke-width="1.70457"/>
<path d="M31.5456 40.1781C32.9944 39.7349 34.5371 39.465 36.1734 39.3684C36.3269 39.3571 36.4433 39.3144 36.5229 39.2406C36.6138 39.1496 36.6706 39.0502 36.6933 38.9423C36.7501 38.6241 36.6166 38.4565 36.2928 38.4394L29.662 38.0048" stroke="#008674" stroke-width="1.70457"/>
<path d="M29.6617 38.0047C26.7753 36.7547 23.6645 36.4564 20.3292 37.1098" stroke="black" stroke-width="1.70457"/>
<path d="M15.71 40.9619L4.89453 41.7375" stroke="#008674" stroke-width="1.70457"/>
<path d="M53.1846 48.3511L61.1705 48.513" stroke="#008674" stroke-width="1.70457"/>
<path d="M61.2644 59.6526C59.4973 59.8344 57.7359 59.9225 55.9802 59.9168C55.7359 59.9111 55.7302 60.181 55.9632 60.7265" stroke="#008674" stroke-width="1.70457"/>
<path d="M42.319 59.6868L39.3184 59.5078" stroke="#008674" stroke-width="1.70457"/>
<path d="M29.577 58.8515C28.912 58.6356 28.0453 58.5844 26.9769 58.6981" stroke="#008674" stroke-width="1.70457"/>
<path d="M4.13586 46.962C4.23814 47.087 4.30067 47.2262 4.32339 47.3796C4.35748 47.624 4.49668 47.749 4.741 47.7547L14.636 47.9507" stroke="#008674" stroke-width="1.70457"/>
<path d="M14.3635 46.7235L4.16174 46.4934" stroke="#008674" stroke-width="1.70457"/>
<path d="M26.0139 45.5303C26.0139 44.8544 25.7454 44.2062 25.2675 43.7283C24.7896 43.2504 24.1414 42.9819 23.4656 42.9819C22.7897 42.9819 22.1416 43.2504 21.6637 43.7283C21.1858 44.2062 20.9172 44.8544 20.9172 45.5303C20.9172 46.2061 21.1858 46.8543 21.6637 47.3322C22.1416 47.8101 22.7897 48.0786 23.4656 48.0786C24.1414 48.0786 24.7896 47.8101 25.2675 47.3322C25.7454 46.8543 26.0139 46.2061 26.0139 45.5303Z" stroke="black" stroke-width="1.70457"/>
<path d="M46.1874 45.6923C46.1874 45.0142 45.9181 44.3639 45.4386 43.8844C44.9591 43.4049 44.3087 43.1355 43.6306 43.1355C42.9525 43.1355 42.3021 43.4049 41.8226 43.8844C41.3431 44.3639 41.0737 45.0142 41.0737 45.6923C41.0737 46.3705 41.3431 47.0208 41.8226 47.5003C42.3021 47.9798 42.9525 48.2492 43.6306 48.2492C44.3087 48.2492 44.9591 47.9798 45.4386 47.5003C45.9181 47.0208 46.1874 46.3705 46.1874 45.6923Z" stroke="black" stroke-width="1.70457"/>
<path d="M60.8128 15.3764L39.8893 14.3963C40.0938 8.49849 42.7871 0.947274 50.0315 1.80808C53.8497 2.25979 57.6423 3.4956 59.0742 7.27122C60.0458 9.82238 60.6253 12.5241 60.8128 15.3764Z" fill="#008674"/>
<path d="M36.7867 14.1917C33.3378 14.527 29.889 14.4105 26.4401 13.8423C28.639 10.757 34.4003 12.4701 36.7867 14.1917Z" fill="#008674"/>
<path d="M26.4404 13.8424C29.8893 14.4106 33.3382 14.5271 36.7871 14.1918C37.6394 14.3112 38.2644 14.7913 38.6621 15.6322L26.5256 15.4532C26.2359 15.4532 25.9774 15.3652 25.7501 15.189L25.2557 14.8055C25.591 14.2828 25.9859 13.9617 26.4404 13.8424Z" fill="black"/>
<path d="M39.8894 14.3964L60.8129 15.3765L60.847 16.5697L39.8042 15.9475C39.6735 15.5327 39.7019 15.0157 39.8894 14.3964Z" fill="black"/>
<path d="M25.2557 14.8054L25.7501 15.189C25.9773 15.3651 26.2358 15.4532 26.5256 15.4532L38.6621 15.6321C39.0542 16.1662 39.4349 16.2713 39.8042 15.9475L60.8471 16.5697L61.0345 19.9617L23.8665 19.7742C23.571 19.7742 23.3608 19.9049 23.2358 20.1663C23.1392 20.3595 23.1364 20.5697 23.2273 20.797C23.2652 20.895 23.3319 20.9792 23.4186 21.0385C23.5053 21.0979 23.608 21.1295 23.7131 21.1293L61.0516 21.1208V24.2658C60.455 24.3851 59.9777 24.6408 59.3897 24.6748C52.4975 25.0044 45.6082 25.3709 38.7218 25.7743C28.3353 26.3766 17.8806 26.5328 7.35779 26.243C9.34361 21.547 14.909 21.1464 18.7869 23.4902C19.7358 24.0641 20.625 24.7317 21.4545 25.4931C21.5091 25.5434 21.5763 25.5779 21.649 25.593C21.7217 25.6081 21.7971 25.6031 21.8671 25.5785C21.9372 25.554 21.9993 25.5109 22.0467 25.4538C22.0941 25.3967 22.1251 25.3278 22.1363 25.2544C22.4773 23.0783 22.7699 21.1038 23.0142 19.331C23.1279 18.5128 23.875 17.0043 25.2557 14.8054Z" fill="#008674"/>
<path d="M61.0341 19.9618L61.0512 21.1209L23.7127 21.1294C23.6076 21.1296 23.5049 21.098 23.4182 21.0386C23.3315 20.9793 23.2648 20.8951 23.2269 20.797C23.136 20.5698 23.1388 20.3595 23.2354 20.1664C23.3604 19.905 23.5706 19.7743 23.8661 19.7743L61.0341 19.9618Z" fill="black"/>
<path d="M61.0513 24.2657C61.1763 24.7544 61.1819 25.3112 61.0683 25.9362C60.5342 25.7601 59.3382 25.726 57.4802 25.8339C49.3949 26.2999 41.5965 26.7402 34.085 27.155C25.2894 27.6323 17.0649 27.4703 8.34605 27.3766C8.27639 27.3768 8.2084 27.3961 8.14968 27.4322C8.09096 27.4684 8.04384 27.5199 8.01365 27.5811L7.7921 28.0073C7.68414 28.2232 7.74947 28.3425 7.98811 28.3652C13.3064 28.8084 17.3717 29.0755 20.1843 29.1664C31.7526 29.5584 44.6789 29.9732 58.9631 30.4107C59.645 30.4334 60.341 30.3738 61.0513 30.2317C61.1535 30.6806 61.1564 31.1721 61.0598 31.7062L7.3915 29.5328C7.1074 29.5215 6.90573 29.388 6.78641 29.1323C6.70686 28.9561 6.67557 28.7402 6.69262 28.4845C6.79489 27.5584 7.01651 26.8112 7.35742 26.243C17.8803 26.5328 28.3349 26.3766 38.7214 25.7743C45.6079 25.3709 52.4972 25.0044 59.3893 24.6748C59.9774 24.6407 60.4547 24.3851 61.0513 24.2657Z" fill="black"/>
<path d="M61.0684 25.9361L61.0514 30.2317C60.3412 30.3737 59.6451 30.4334 58.9633 30.4106C44.6791 29.9731 31.7528 29.5584 20.1844 29.1663C17.3719 29.0754 13.3065 28.8083 7.98827 28.3652C7.74963 28.3424 7.68431 28.2231 7.79226 28.0072L8.01381 27.581C8.044 27.5198 8.09113 27.4683 8.14984 27.4322C8.20856 27.396 8.27656 27.3768 8.34622 27.3765C17.0651 27.4703 25.2896 27.6322 34.0852 27.1549C41.5966 26.7401 49.395 26.2998 57.4804 25.8339C59.3383 25.7259 60.5343 25.76 61.0684 25.9361Z" fill="#008674"/>
<path d="M6.69277 28.4847C6.67572 28.7404 6.70701 28.9563 6.78656 29.1325C6.90588 29.3882 7.10755 29.5217 7.39164 29.5331L61.0599 31.7064L61.0855 38.7292L51.395 38.2264C51.1393 38.215 51.0683 38.3258 51.1819 38.5587L51.4206 39.0445C51.4724 39.1523 51.5577 39.2404 51.6636 39.2957C51.7696 39.351 51.8907 39.3705 52.0087 39.3513C53.1451 39.1638 54.1706 39.1667 55.0854 39.3599C55.665 39.4849 55.665 39.6014 55.0854 39.7093L52.682 40.1696C52.5627 40.1923 52.5087 40.2633 52.52 40.3826L52.5371 40.6127C52.5436 40.7304 52.5959 40.8411 52.6831 40.9219C52.7703 41.0028 52.8858 41.0477 53.0058 41.0474L61.0429 41.1241L61.1111 47.5077C58.0542 47.5247 55.7758 47.4537 54.2757 47.2946C54.0257 47.2662 53.7331 47.1043 53.3979 46.8088C53.4774 41.8542 51.2842 38.6014 46.8183 37.0502C45.6478 36.6411 43.4177 36.7945 40.1279 37.5104C37.4233 37.2775 34.7812 37.0871 32.2016 36.9394C28.5538 36.7349 24.9657 35.9848 21.1304 35.678C17.2497 35.3655 13.173 34.8911 8.9002 34.2547C8.09337 34.1354 7.29507 34.1638 6.50529 34.3399C6.19278 34.4081 6.10472 34.5871 6.24108 34.8769C6.33767 35.0928 6.51381 35.215 6.76949 35.2434C12.2582 35.8229 16.7781 36.4451 20.3293 37.1098C18.4202 38.0417 16.9628 39.1695 15.9571 40.4934C15.8093 40.3684 15.6645 40.2661 15.5225 40.1866C15.3804 40.107 15.2128 40.0786 15.0196 40.1014C11.6389 40.4877 8.3178 40.536 5.0564 40.2463L6.69277 28.4847Z" fill="#008674"/>
<path d="M40.1278 37.5104L37.2726 39.053C37.0226 39.1837 36.8351 39.3769 36.7101 39.6326L35.8663 41.3286C34.4686 40.9706 33.3918 41.0956 32.6362 41.7036C32.2555 41.5047 31.8919 40.9962 31.5453 40.178C32.9941 39.7348 34.5368 39.465 36.1731 39.3684C36.3266 39.357 36.443 39.3144 36.5226 39.2405C36.6135 39.1496 36.6703 39.0502 36.693 38.9422C36.7498 38.624 36.6163 38.4564 36.2925 38.4394L29.6617 38.0047C26.7753 36.7547 23.6645 36.4564 20.3292 37.1098C16.778 36.445 12.2581 35.8229 6.76939 35.2433C6.5137 35.2149 6.33757 35.0927 6.24097 34.8768C6.10461 34.587 6.19268 34.4081 6.50518 34.3399C7.29496 34.1637 8.09327 34.1353 8.90009 34.2547C13.1729 34.891 17.2496 35.3655 21.1303 35.678C24.9656 35.9848 28.5537 36.7348 32.2015 36.9393C34.7811 37.0871 37.4232 37.2774 40.1278 37.5104Z" fill="black"/>
<path d="M29.6618 38.0047C30.6391 38.7547 31.2669 39.4791 31.5453 40.178C31.8919 40.9962 32.2555 41.5047 32.6362 41.7036C33.3237 43.9423 33.2953 46.502 32.551 49.3827C32.2357 50.61 31.5368 51.8032 30.0794 51.4367C26.1475 50.4537 21.9571 50.3656 17.5082 51.1724C17.2479 51.2199 16.9794 51.1865 16.7387 51.0768C16.498 50.9671 16.2966 50.7864 16.1616 50.5588L14.636 47.9508L14.3633 46.7235L15.7099 40.9621C15.8974 40.7917 15.9798 40.6354 15.957 40.4933C16.9627 39.1695 18.4201 38.0416 20.3293 37.1098C23.6645 36.4564 26.7754 36.7547 29.6618 38.0047ZM26.014 45.5303C26.014 44.8545 25.7455 44.2063 25.2676 43.7284C24.7897 43.2505 24.1415 42.982 23.4657 42.982C22.7898 42.982 22.1417 43.2505 21.6638 43.7284C21.1859 44.2063 20.9173 44.8545 20.9173 45.5303C20.9173 46.2062 21.1859 46.8544 21.6638 47.3323C22.1417 47.8102 22.7898 48.0787 23.4657 48.0787C24.1415 48.0787 24.7897 47.8102 25.2676 47.3323C25.7455 46.8544 26.014 46.2062 26.014 45.5303Z" fill="white"/>
<path d="M53.398 46.8088C53.2673 47.1497 53.1963 47.6639 53.185 48.3514L52.435 50.5503C52.3086 50.9162 52.0477 51.2206 51.7046 51.4024C51.3616 51.5841 50.9619 51.6299 50.5855 51.5305C46.2048 50.3714 41.699 50.2975 37.0683 51.3089C36.8666 51.3533 36.6562 51.3316 36.4687 51.2471C36.2813 51.1626 36.1268 51.0198 36.0286 50.8401C34.3922 47.7833 34.3382 44.6128 35.8666 41.3286L36.7104 39.6326C36.8354 39.3769 37.0228 39.1837 37.2729 39.053L40.128 37.5104C43.4178 36.7945 45.648 36.6411 46.8184 37.0502C51.2844 38.6013 53.4776 41.8542 53.398 46.8088ZM46.1877 45.6923C46.1877 45.0142 45.9184 44.3639 45.4389 43.8844C44.9594 43.4049 44.309 43.1355 43.6309 43.1355C42.9528 43.1355 42.3024 43.4049 41.8229 43.8844C41.3434 44.3639 41.0741 45.0142 41.0741 45.6923C41.0741 46.3704 41.3434 47.0208 41.8229 47.5003C42.3024 47.9798 42.9528 48.2492 43.6309 48.2492C44.309 48.2492 44.9594 47.9798 45.4389 47.5003C45.9184 47.0208 46.1877 46.3704 46.1877 45.6923Z" fill="white"/>
<path d="M31.5456 40.1781C31.2671 39.4792 30.6393 38.7548 29.662 38.0048L36.2928 38.4394C36.6166 38.4565 36.7501 38.6241 36.6933 38.9423C36.6706 39.0502 36.6138 39.1496 36.5229 39.2406C36.4433 39.3144 36.3269 39.3571 36.1734 39.3684C34.5371 39.465 32.9944 39.7349 31.5456 40.1781Z" fill="#008674"/>
<path d="M61.0856 38.7289C61.2958 39.297 61.2816 40.0953 61.043 41.1238L53.006 41.0471C52.886 41.0474 52.7704 41.0025 52.6832 40.9216C52.596 40.8407 52.5438 40.7301 52.5372 40.6124L52.5202 40.3823C52.5088 40.263 52.5628 40.1919 52.6821 40.1692L55.0856 39.709C55.6651 39.601 55.6651 39.4845 55.0856 39.3595C54.1708 39.1664 53.1452 39.1635 52.0088 39.351C51.8908 39.3702 51.7698 39.3506 51.6638 39.2953C51.5578 39.24 51.4725 39.1519 51.4208 39.0442L51.1821 38.5584C51.0684 38.3254 51.1395 38.2146 51.3952 38.226L61.0856 38.7289Z" fill="black"/>
<path d="M5.05661 40.2462C8.31801 40.536 11.6391 40.4877 15.0198 40.1013C15.213 40.0786 15.3806 40.107 15.5227 40.1866C15.6647 40.2661 15.8096 40.3684 15.9573 40.4934C15.98 40.6354 15.8976 40.7917 15.7101 40.9621L4.89467 41.7377C4.87762 40.9707 4.9316 40.4735 5.05661 40.2462Z" fill="black"/>
<path d="M15.7102 40.9619L14.3635 46.7234L4.16174 46.4932L4.89469 41.7375L15.7102 40.9619Z" fill="#008674"/>
<path d="M35.8666 41.3286C34.3382 44.6128 34.3921 47.7832 36.0285 50.8401C36.1268 51.0198 36.2812 51.1626 36.4687 51.2471C36.6562 51.3316 36.8666 51.3533 37.0683 51.3088C41.699 50.2975 46.2047 50.3713 50.5855 51.5304C50.9618 51.6299 51.3616 51.5841 51.7046 51.4024C52.0476 51.2206 52.3085 50.9162 52.435 50.5503L53.1849 48.3514L61.1709 48.5134L61.2646 59.6527C59.4975 59.8345 57.7361 59.9226 55.9804 59.9169C55.7361 59.9112 55.7304 60.1811 55.9634 60.7266L42.3183 59.6868L39.3183 59.5078L29.5767 58.8516C28.9119 58.6356 28.0454 58.5845 26.9772 58.6982L3.1815 57.0106C3.13167 57.0065 3.08322 56.9922 3.03912 56.9686C2.99502 56.9451 2.95623 56.9127 2.92509 56.8736C2.89396 56.8345 2.87116 56.7894 2.85809 56.7412C2.84503 56.6929 2.84195 56.6425 2.84909 56.593L4.13605 46.9622C4.23832 47.0872 4.30085 47.2264 4.32358 47.3798C4.35767 47.6242 4.49687 47.7492 4.74119 47.7548L14.6362 47.9509L16.1618 50.5589C16.2967 50.7864 16.4981 50.9672 16.7389 51.0769C16.9796 51.1866 17.2481 51.2199 17.5084 51.1725C21.9573 50.3657 26.1477 50.4537 30.0795 51.4367C31.5369 51.8032 32.2358 50.61 32.5512 49.3827C33.2955 46.502 33.3239 43.9423 32.6364 41.7036C33.3921 41.0957 34.4688 40.9707 35.8666 41.3286Z" fill="#008674"/>
<path d="M23.4656 48.0786C24.873 48.0786 26.0139 46.9377 26.0139 45.5303C26.0139 44.1228 24.873 42.9819 23.4656 42.9819C22.0582 42.9819 20.9172 44.1228 20.9172 45.5303C20.9172 46.9377 22.0582 48.0786 23.4656 48.0786Z" fill="black"/>
<path d="M43.6306 48.2492C45.0427 48.2492 46.1874 47.1045 46.1874 45.6923C46.1874 44.2802 45.0427 43.1355 43.6306 43.1355C42.2185 43.1355 41.0737 44.2802 41.0737 45.6923C41.0737 47.1045 42.2185 48.2492 43.6306 48.2492Z" fill="black"/>
<path d="M4.16146 46.4934L14.3633 46.7235L14.636 47.9508L4.741 47.7548C4.49668 47.7491 4.35748 47.6241 4.32339 47.3798C4.30067 47.2264 4.23814 47.0872 4.13586 46.9622C4.20405 46.7179 4.21259 46.5616 4.16146 46.4934Z" fill="black"/>
<path d="M53.3976 46.8088C53.7329 47.1043 54.0255 47.2662 54.2755 47.2946C55.7755 47.4537 58.054 47.5248 61.1108 47.5077C61.2074 47.7293 61.2273 48.0645 61.1705 48.5134L53.1846 48.3515C53.1959 47.664 53.267 47.1498 53.3976 46.8088Z" fill="black"/>
<path d="M29.5767 58.8515L7.75822 81.3603C7.73138 81.3882 7.69938 81.4105 7.66412 81.4261C7.62885 81.4417 7.59103 81.4501 7.5529 81.4509C7.51477 81.4517 7.4771 81.4449 7.4421 81.4307C7.4071 81.4166 7.37549 81.3956 7.34914 81.3688L1.72409 75.9653C1.63144 75.8774 1.55718 75.7719 1.50567 75.6551C1.45415 75.5382 1.42637 75.4123 1.424 75.2846C1.42162 75.1569 1.44465 75.03 1.49178 74.9113C1.5389 74.7926 1.60919 74.6844 1.6985 74.5931L1.89451 74.3971C2.04252 74.2502 2.24185 74.167 2.44924 74.1654C2.65663 74.1638 2.85542 74.244 3.00252 74.3886L7.12754 78.3943C7.40027 78.6614 7.67017 78.6585 7.93722 78.3858L26.9772 58.6981C28.0454 58.5844 28.9119 58.6356 29.5767 58.8515Z" fill="black"/>
<path d="M42.3184 59.6868L61.6311 79.545C61.8641 79.7893 62.097 79.7921 62.33 79.5535L66.4209 75.4625C66.7846 75.0932 67.1397 75.0989 67.4863 75.4796L67.8443 75.8631C68.1909 76.2438 68.1795 76.616 67.8102 76.9796L62.151 82.4683C62.1132 82.5056 62.0683 82.5351 62.019 82.5549C61.9697 82.5747 61.9168 82.5845 61.8637 82.5837C61.8106 82.5829 61.7581 82.5715 61.7094 82.5502C61.6607 82.529 61.6167 82.4982 61.58 82.4598L39.3184 59.5078L42.3184 59.6868Z" fill="black"/>
<path d="M61.2644 59.6526C61.361 59.8799 61.3894 60.1128 61.3496 60.3515C61.2984 60.6583 61.1195 60.8089 60.8126 60.8032L55.9632 60.7265C55.7302 60.181 55.7359 59.9111 55.9802 59.9168C57.7359 59.9225 59.4973 59.8344 61.2644 59.6526Z" fill="black"/>
</svg>
