<svg width="89" height="63" viewBox="0 0 89 63" fill="none" xmlns="http://www.w3.org/2000/svg">
<path d="M36.6125 39.3748L19.4815 57.0596C19.3548 57.1883 19.1823 57.2614 19.0018 57.263C18.8212 57.2646 18.6473 57.1945 18.5184 57.0681L14.6065 53.2158C14.1974 52.8181 13.7996 52.8238 13.4132 53.2329L13.2343 53.4119C12.8366 53.8323 12.8451 54.2471 13.2599 54.6562L18.6889 60.0341C18.7907 60.1334 18.9277 60.1883 19.0699 60.1867C19.2121 60.1851 19.3479 60.1272 19.4475 60.0256L39.5869 39.2384" stroke="black" stroke-width="1.70457"/>
<path d="M39.5869 39.2386C43.8824 38.8239 47.979 38.821 51.8768 39.2301" stroke="#FF6845" stroke-width="1.70457"/>
<path d="M51.8767 39.2303L73.2094 61.2874C73.3344 61.418 73.4622 61.4209 73.5929 61.2959L79.3543 55.8072C79.4338 55.7319 79.497 55.6411 79.54 55.5406C79.583 55.44 79.6048 55.3319 79.604 55.223C79.6032 55.1141 79.5799 55.0068 79.5354 54.9078C79.491 54.8089 79.4264 54.7204 79.3458 54.6481C79.289 54.5969 79.2322 54.5458 79.1754 54.4947C78.6583 54.0231 78.1526 54.0316 77.6583 54.5202L73.8998 58.2447C73.8341 58.3093 73.7561 58.3601 73.6704 58.3943C73.5846 58.4284 73.4928 58.4452 73.4001 58.4436C73.3074 58.442 73.2158 58.4221 73.1304 58.385C73.045 58.348 72.9676 58.2945 72.9026 58.2277L54.4592 39.1536" stroke="black" stroke-width="1.70457"/>
<path d="M54.4593 39.1531C58.2719 38.7099 62.0361 38.5679 65.7521 38.727C66.8771 38.7724 67.7265 38.5054 68.3004 37.9258C74.8119 31.3689 81.2977 24.9513 87.758 18.6728C87.8521 18.5814 87.9269 18.4721 87.9779 18.3513C88.029 18.2306 88.0553 18.1008 88.0553 17.9696C88.0553 17.8385 88.029 17.7087 87.9779 17.5879C87.9269 17.4672 87.8521 17.3579 87.758 17.2665L72.0846 2.12996C71.2914 1.36438 70.231 0.936607 69.1271 0.936768L24.0498 0.945273C23.1351 0.945273 22.3482 1.26063 21.6891 1.89132L1.66045 21.1359C1.59496 21.2001 1.54362 21.2774 1.50991 21.3625C1.4762 21.4477 1.46083 21.5388 1.46486 21.6299C1.46889 21.7209 1.49226 21.8098 1.53332 21.8907C1.57437 21.9716 1.63217 22.0425 1.70301 22.0989L22.8311 38.9145C23.1516 39.1688 23.5442 39.3097 23.9476 39.3151L36.6126 39.3747" stroke="#FF6845" stroke-width="1.70457"/>
<path d="M54.4597 39.1535C53.431 38.8068 52.57 38.8324 51.8767 39.2302" stroke="black" stroke-width="1.70457"/>
<path d="M39.5877 39.2384L36.6127 39.3748" stroke="black" stroke-width="1.70457"/>
<path d="M35.7771 14.2413C40.0214 14.4203 41.5045 17.1391 42.4676 20.7272C42.5089 20.8815 42.6007 21.0177 42.7286 21.1148C42.8565 21.2119 43.0134 21.2644 43.1749 21.2641H43.4647C44.1465 21.2585 44.4278 20.9175 44.3084 20.2414C43.4277 15.4459 40.8709 12.8379 36.6379 12.4174C30.885 11.8464 25.6946 14.5822 25.7031 20.838C25.7036 20.9151 25.7214 20.991 25.7554 21.0602C25.7893 21.1294 25.8384 21.19 25.899 21.2375C25.9597 21.2851 26.0303 21.3183 26.1056 21.3347C26.1808 21.3511 26.2589 21.3503 26.3338 21.3323C26.4134 21.3153 26.4929 21.2982 26.5725 21.2812C27.1236 21.1562 27.4504 20.8153 27.5526 20.2584C28.331 16.0538 31.0725 14.0481 35.7771 14.2413Z" stroke="black" stroke-width="1.70457"/>
<path d="M55.8487 14.2242C58.4737 14.0253 60.5476 14.8463 62.0704 16.6873C62.9312 17.727 63.3487 19.3549 63.826 20.6845C63.9283 20.9686 64.1244 21.1419 64.4141 21.2044C64.6698 21.2612 64.9254 21.2299 65.1811 21.1106C65.4993 20.9629 65.6301 20.7157 65.5732 20.3691C64.8232 15.8861 62.5419 13.2781 58.7294 12.5452C55.0646 11.8378 49.1752 13.0224 47.7178 17.1645C47.3088 18.335 47.0077 19.4686 46.8145 20.5652C46.7577 20.9061 46.8912 21.1277 47.215 21.2299C47.4537 21.3095 47.681 21.3237 47.8969 21.2725C48.4196 21.1419 48.7236 20.8123 48.8088 20.2839C49.4111 16.5623 51.7577 14.5424 55.8487 14.2242Z" stroke="black" stroke-width="1.70457"/>
<path d="M54.4593 39.1531C53.4309 38.8065 52.5701 38.8321 51.8769 39.2298C47.9791 38.8207 43.8825 38.8236 39.587 39.2384L36.6126 39.3747L23.9476 39.3151C23.5442 39.3097 23.1516 39.1688 22.8311 38.9145L1.70301 22.0989C1.63217 22.0425 1.57437 21.9716 1.53332 21.8907C1.49226 21.8098 1.46889 21.7209 1.46486 21.6299C1.46083 21.5388 1.4762 21.4477 1.50991 21.3625C1.54362 21.2774 1.59496 21.2001 1.66045 21.1359L21.6891 1.89132C22.3482 1.26063 23.1351 0.945273 24.0498 0.945273L69.1271 0.936768C70.231 0.936607 71.2914 1.36438 72.0846 2.12996L87.758 17.2665C87.8521 17.3579 87.9269 17.4672 87.9779 17.5879C88.029 17.7087 88.0553 17.8385 88.0553 17.9696C88.0553 18.1008 88.029 18.2306 87.9779 18.3513C87.9269 18.4721 87.8521 18.5814 87.758 18.6728C81.2977 24.9513 74.8119 31.3689 68.3004 37.9258C67.7265 38.5054 66.8771 38.7724 65.7521 38.727C62.0361 38.5679 58.2719 38.7099 54.4593 39.1531ZM35.7773 14.2409C40.0216 14.4199 41.5047 17.1387 42.4678 20.7268C42.5091 20.881 42.6009 21.0173 42.7288 21.1144C42.8567 21.2115 43.0136 21.264 43.1751 21.2637H43.4649C44.1467 21.258 44.4279 20.9171 44.3086 20.241C43.4279 15.4455 40.8711 12.8375 36.6381 12.417C30.8852 11.846 25.6948 14.5818 25.7033 20.8376C25.7038 20.9146 25.7216 20.9906 25.7556 21.0598C25.7895 21.129 25.8386 21.1896 25.8992 21.2371C25.9599 21.2846 26.0305 21.3179 26.1057 21.3343C26.181 21.3507 26.2591 21.3499 26.334 21.3319C26.4136 21.3148 26.4931 21.2978 26.5727 21.2808C27.1238 21.1558 27.4505 20.8148 27.5528 20.258C28.3312 16.0534 31.0727 14.0477 35.7773 14.2409ZM55.8486 14.2239C58.4736 14.025 60.5475 14.846 62.0703 16.6869C62.9311 17.7267 63.3486 19.3546 63.8259 20.6841C63.9282 20.9682 64.1243 21.1416 64.4141 21.2041C64.6697 21.2609 64.9253 21.2296 65.181 21.1103C65.4992 20.9626 65.63 20.7154 65.5731 20.3688C64.8231 15.8858 62.5418 13.2778 58.7293 12.5449C55.0645 11.8375 49.1752 13.0221 47.7178 17.1642C47.3087 18.3347 47.0076 19.4682 46.8144 20.5648C46.7576 20.9058 46.8911 21.1273 47.2149 21.2296C47.4536 21.3092 47.6809 21.3234 47.8968 21.2722C48.4195 21.1415 48.7235 20.812 48.8087 20.2836C49.411 16.5619 51.7576 14.542 55.8486 14.2239Z" fill="#FF6845"/>
<path d="M35.7771 14.2413C31.0725 14.0481 28.331 16.0538 27.5526 20.2584C27.4504 20.8153 27.1236 21.1562 26.5725 21.2812C26.4929 21.2982 26.4134 21.3153 26.3338 21.3323C26.2589 21.3503 26.1808 21.3511 26.1056 21.3347C26.0303 21.3183 25.9597 21.2851 25.899 21.2375C25.8384 21.19 25.7893 21.1294 25.7554 21.0602C25.7214 20.991 25.7036 20.9151 25.7031 20.838C25.6946 14.5822 30.885 11.8464 36.6379 12.4174C40.8709 12.8379 43.4277 15.4459 44.3084 20.2414C44.4278 20.9175 44.1465 21.2585 43.4647 21.2641H43.1749C43.0134 21.2644 42.8565 21.2119 42.7286 21.1148C42.6007 21.0177 42.5089 20.8814 42.4676 20.7272C41.5045 17.1391 40.0214 14.4203 35.7771 14.2413Z" fill="black"/>
<path d="M55.8487 14.2242C51.7577 14.5424 49.4111 16.5623 48.8088 20.2839C48.7236 20.8123 48.4196 21.1419 47.8969 21.2725C47.681 21.3237 47.4537 21.3095 47.215 21.2299C46.8912 21.1277 46.7577 20.9061 46.8145 20.5652C47.0077 19.4686 47.3088 18.335 47.7178 17.1645C49.1752 13.0224 55.0646 11.8378 58.7294 12.5452C62.5419 13.2781 64.8232 15.8861 65.5732 20.3691C65.6301 20.7157 65.4993 20.9629 65.1811 21.1106C64.9254 21.2299 64.6698 21.2612 64.4141 21.2044C64.1244 21.1419 63.9283 20.9686 63.826 20.6845C63.3487 19.3549 62.9312 17.727 62.0704 16.6873C60.5476 14.8463 58.4737 14.0253 55.8487 14.2242Z" fill="black"/>
<path d="M54.4592 39.1535L72.9026 58.2276C72.9676 58.2944 73.045 58.3479 73.1304 58.3849C73.2158 58.422 73.3074 58.4419 73.4001 58.4435C73.4928 58.4451 73.5846 58.4283 73.6704 58.3942C73.7561 58.36 73.8341 58.3092 73.8998 58.2446L77.6583 54.5201C78.1526 54.0315 78.6583 54.023 79.1754 54.4946C79.2322 54.5457 79.289 54.5968 79.3458 54.648C79.4264 54.7203 79.491 54.8088 79.5354 54.9077C79.5799 55.0067 79.6032 55.114 79.604 55.2229C79.6048 55.3318 79.583 55.4399 79.54 55.5405C79.497 55.641 79.4338 55.7318 79.3543 55.8071L73.5929 61.2958C73.4622 61.4208 73.3344 61.4179 73.2094 61.2873L51.8767 39.2302C52.5699 38.8324 53.4307 38.8069 54.4592 39.1535Z" fill="black"/>
<path d="M39.5869 39.2384L19.4475 60.0256C19.3479 60.1272 19.2121 60.1851 19.0699 60.1867C18.9277 60.1883 18.7907 60.1334 18.6889 60.0341L13.2599 54.6562C12.8451 54.2471 12.8366 53.8323 13.2343 53.4119L13.4132 53.2329C13.7996 52.8238 14.1974 52.8181 14.6065 53.2158L18.5184 57.0681C18.6473 57.1945 18.8212 57.2646 19.0018 57.263C19.1823 57.2614 19.3548 57.1883 19.4815 57.0596L36.6125 39.3748L39.5869 39.2384Z" fill="black"/>
</svg>
