<svg width="76" height="90" viewBox="0 0 76 90" fill="none" xmlns="http://www.w3.org/2000/svg">
<path d="M26.1413 57.4314L6.81998 72.9515C6.75577 73.0028 6.68205 73.0408 6.60306 73.0634C6.52406 73.0861 6.44143 73.0928 6.35981 73.0833C6.27819 73.0738 6.19928 73.0482 6.1276 73.008C6.05592 72.9679 5.9929 72.9139 5.9422 72.8492L2.83988 68.8861C2.76857 68.7965 2.6798 68.7224 2.57906 68.6684C2.47832 68.6143 2.36774 68.5815 2.25425 68.5719C2.14076 68.5623 2.0268 68.5762 1.91935 68.6126C1.8119 68.6491 1.71323 68.7073 1.6296 68.7838L1.44212 68.9457C1.25391 69.1187 1.1386 69.3567 1.11961 69.6116C1.10061 69.8665 1.17935 70.119 1.33985 70.3179L5.71207 75.7129C5.79799 75.8194 5.92307 75.8872 6.06029 75.9015C6.1975 75.9159 6.33577 75.8757 6.44502 75.7896L26.431 59.8093" stroke="black" stroke-width="1.70457"/>
<path d="M26.431 59.8093L27.0021 66.1162C27.1498 67.7242 27.7095 67.8861 28.6811 66.602C30.1072 64.7213 31.9567 62.5991 34.2294 60.2355C34.3137 60.1507 34.4209 60.0924 34.5378 60.0678C34.6547 60.0431 34.7764 60.0531 34.8877 60.0965C34.999 60.14 35.0952 60.215 35.1645 60.3123C35.2338 60.4097 35.2731 60.5252 35.2777 60.6446C35.38 64.3151 36.4255 66.6645 38.4142 67.6929" stroke="#FFBC34" stroke-width="1.70457"/>
<path d="M38.4142 67.6929L38.5079 88.1136C38.5079 88.2139 38.5472 88.3101 38.6173 88.3818C38.6874 88.4535 38.7826 88.4949 38.8829 88.4971C41.5363 88.5085 44.0307 88.5028 46.3659 88.4801C46.4752 88.479 46.5827 88.452 46.6796 88.4013C46.7765 88.3506 46.8602 88.2776 46.924 88.1881C46.9878 88.0986 47.03 87.9951 47.0471 87.8859C47.0641 87.7768 47.0556 87.665 47.0222 87.5596C46.9938 87.4857 46.9824 87.4119 46.9881 87.338C47.0222 86.7187 46.6956 86.4175 46.0081 86.4346C44.241 86.4857 42.633 86.4772 41.1841 86.409C40.7807 86.392 40.579 86.1789 40.579 85.7698L40.613 61.4457" stroke="black" stroke-width="1.70457"/>
<path d="M40.6131 61.4458C40.8915 61.0254 41.2182 60.8464 41.5932 60.9089C41.8944 60.96 42.1273 61.122 42.2921 61.3947C43.7807 63.9004 45.153 66.5965 46.4087 69.4829C46.4494 69.5775 46.5139 69.66 46.596 69.7223C46.6781 69.7846 46.775 69.8245 46.8771 69.8382C46.9793 69.852 47.0832 69.839 47.1788 69.8006C47.2745 69.7623 47.3585 69.6998 47.4228 69.6192C47.6046 69.4033 47.6928 69.1476 47.6871 68.8522C47.6814 68.5056 47.6928 68.247 47.7212 68.0766C48.2098 65.3152 48.4485 62.5339 48.4371 59.7327C48.4371 59.0907 48.6218 58.5054 48.9911 57.977C49.0358 57.9127 49.0932 57.8582 49.1598 57.817C49.2265 57.7759 49.3009 57.7488 49.3784 57.7376C49.456 57.7264 49.5351 57.7313 49.6106 57.752C49.6862 57.7726 49.7567 57.8086 49.8178 57.8577C51.6133 59.2839 53.3235 60.764 54.9485 62.2981C55.3179 62.6504 55.7553 62.8833 56.261 62.997C56.3378 63.0146 56.4177 63.0139 56.4942 62.9949C56.5707 62.976 56.6417 62.9393 56.7014 62.8879C56.7611 62.8364 56.8079 62.7717 56.838 62.6989C56.8681 62.626 56.8807 62.5471 56.8747 62.4686L56.2866 55.6247C56.2712 55.4534 56.2919 55.2808 56.3474 55.1179C56.403 54.955 56.4923 54.8053 56.6094 54.6786C56.7265 54.5519 56.869 54.4508 57.0276 54.3818C57.1863 54.3128 57.3577 54.2775 57.5309 54.2781L66.0282 54.3207C68.2385 54.3378 68.4345 53.7128 66.6162 52.4457L61.102 48.6105C60.9152 48.4797 60.77 48.2979 60.684 48.0867C60.5979 47.8756 60.5747 47.6441 60.617 47.42C60.6593 47.1959 60.7653 46.9888 60.9224 46.8236C61.0795 46.6583 61.2809 46.5419 61.5025 46.4883C64.8378 45.6814 68.122 44.582 71.355 43.1899C71.4566 43.1475 71.5433 43.0765 71.6048 42.9854C71.6663 42.8943 71.7 42.7869 71.7017 42.6763C71.7035 42.5656 71.6734 42.4563 71.6149 42.3615C71.5564 42.2667 71.4721 42.1903 71.3721 42.1416L62.5764 37.974C62.4656 37.9216 62.3675 37.8457 62.289 37.7515C62.2105 37.6574 62.1534 37.5473 62.1218 37.4288C62.0901 37.3104 62.0846 37.1865 62.1058 37.0657C62.1269 36.945 62.1741 36.8303 62.244 36.7296C63.2071 35.3489 65.0054 34.6756 66.0793 33.8233C68.5737 31.8404 71.0964 29.8858 73.6476 27.9596C73.9658 27.721 74.2044 27.417 74.3635 27.0477C74.4099 26.9377 74.4294 26.8182 74.4204 26.6992C74.4113 26.5802 74.374 26.465 74.3115 26.3633C74.2489 26.2616 74.163 26.1763 74.0609 26.1145C73.9588 26.0527 73.8433 26.0161 73.7243 26.0079L64.6219 25.3516C64.4891 25.3417 64.3607 25.2998 64.2475 25.2295C64.1343 25.1592 64.0398 25.0626 63.972 24.948C63.9042 24.8333 63.8651 24.704 63.8581 24.571C63.851 24.4379 63.8762 24.3052 63.9315 24.184L67.5112 16.2407C68.5396 13.9566 67.943 13.3884 65.7214 14.5362L57.3263 18.8658C57.2037 18.9287 57.0663 18.9571 56.9288 18.9478C56.7913 18.9386 56.6589 18.892 56.5458 18.8131C56.4328 18.7342 56.3434 18.6261 56.2872 18.5002C56.231 18.3743 56.2102 18.2355 56.227 18.0987C56.6077 14.8884 56.9656 11.7208 57.3009 8.59576C57.352 8.09575 57.3349 7.67528 57.2497 7.33437C57.227 7.237 57.1811 7.14671 57.1156 7.0711C57.05 6.9955 56.9669 6.93682 56.8733 6.90004C56.7796 6.86325 56.6782 6.84942 56.5776 6.85975C56.4769 6.87008 56.38 6.90425 56.2951 6.95936L47.6871 12.6185C47.539 12.7151 47.3698 12.7742 47.1938 12.7908C47.0179 12.8075 46.8406 12.7811 46.6771 12.7141C46.5136 12.647 46.3688 12.5412 46.2552 12.4058C46.1416 12.2704 46.0626 12.1094 46.0251 11.9367L44.6189 5.3656C44.2098 3.42808 43.5108 3.31729 42.5222 5.03322C41.2722 7.19234 39.8574 9.5844 38.2778 12.2094C38.0222 12.6356 37.7495 12.9396 37.4597 13.1214C37.3912 13.1645 37.3147 13.1935 37.2349 13.2066C37.155 13.2197 37.0732 13.2166 36.9945 13.1975C36.9158 13.1784 36.8418 13.1437 36.7768 13.0955C36.7117 13.0473 36.6571 12.9866 36.6159 12.9168C34.6557 9.57589 32.775 6.36846 30.9738 3.29456C30.65 2.74057 30.2152 2.43375 29.7209 2.0417C29.2209 1.65533 28.9851 1.77749 29.0135 2.40818L29.5334 14.093C29.5618 14.7294 29.2664 14.9822 28.6471 14.8515C28.363 14.7947 27.9567 14.6072 27.4283 14.289C24.6442 12.6185 21.9396 11.0674 19.3145 9.63554C19.1765 9.5593 19.0196 9.52414 18.8622 9.53419C18.7048 9.54423 18.5536 9.59907 18.4264 9.69225C18.2991 9.78542 18.2013 9.91304 18.1442 10.06C18.0871 10.2071 18.0733 10.3673 18.1044 10.5219L20.1327 21.1669C20.1684 21.3459 20.1391 21.5318 20.0501 21.6912C19.961 21.8505 19.8181 21.9728 19.6469 22.0363C19.3913 22.1328 19.0958 22.1471 18.7605 22.0789C15.2434 21.3175 11.7264 20.4737 8.20927 19.5476C8.09842 19.5173 7.98238 19.5115 7.86907 19.5305C7.75575 19.5496 7.64795 19.593 7.5531 19.6579C7.45825 19.7228 7.37861 19.8075 7.31974 19.9061C7.26088 20.0048 7.22417 20.1151 7.21217 20.2294C7.14398 20.7976 7.41098 21.2181 8.01326 21.4908C8.3144 21.6272 8.56441 21.8289 8.76328 22.0959C10.7519 24.8459 12.8372 27.5278 15.019 30.1415C15.4792 30.6869 15.7208 31.2125 15.7435 31.7182C15.7555 31.9338 15.6835 32.1459 15.5424 32.3108C15.4013 32.4757 15.2018 32.5808 14.985 32.6046C10.5531 33.0591 6.4252 33.5648 2.60129 34.1216C0.612626 34.4057 0.595635 34.7836 2.5502 35.2552C5.20364 35.8859 8.31159 36.5563 11.8741 37.2666C12.3855 37.3688 12.6753 37.5478 12.7435 37.8035C12.8019 38.0069 12.7973 38.2233 12.7304 38.4241C12.6634 38.6249 12.5372 38.8008 12.3684 38.9285C9.4877 41.1104 6.62976 43.1501 3.7945 45.0479C3.25472 45.4059 2.89961 45.8292 2.72915 46.3178C2.70373 46.3864 2.69637 46.4604 2.70782 46.5326C2.71927 46.6048 2.74911 46.6729 2.79449 46.7303C2.83986 46.7876 2.89921 46.8323 2.96688 46.8601C3.03454 46.8879 3.10829 46.8978 3.18088 46.8888C6.39683 46.5422 9.80027 46.0621 13.3912 45.4485C13.7719 45.3803 14.0673 45.5167 14.2775 45.8576C14.3659 46 14.4107 46.1648 14.4061 46.3316C14.4016 46.4984 14.348 46.6596 14.252 46.7951C12.6441 49.0735 10.9934 51.4741 9.30022 53.9969C8.40248 55.3378 8.96497 55.7781 10.9877 55.3179C11.0557 55.301 11.1187 55.278 11.1753 55.2497L17.9083 51.8917C18.0901 51.8029 18.2919 51.7629 18.4939 51.7756C18.6959 51.7882 18.8911 51.8532 19.0604 51.9641C19.2297 52.0749 19.3673 52.2279 19.4597 52.408C19.552 52.588 19.596 52.789 19.5873 52.9912C19.4851 55.1901 19.2208 57.4287 18.7947 59.7072C18.4878 61.3379 18.9936 61.6504 20.3118 60.6447C21.8459 59.4742 23.2805 58.0026 24.6157 56.2299C24.7401 56.0627 24.9107 55.9343 25.1062 55.8608C25.3016 55.7872 25.5134 55.7717 25.7151 55.8163C25.9168 55.8608 26.0995 55.9633 26.2405 56.1111C26.3814 56.2589 26.4745 56.4455 26.5079 56.6475C26.5306 56.7668 26.4084 57.0281 26.1413 57.4316" stroke="#FFBC34" stroke-width="1.70457"/>
<path d="M40.613 61.4457C39.2721 62.8946 38.5392 64.977 38.4142 67.6929" stroke="black" stroke-width="1.70457"/>
<path d="M26.4311 59.8093C26.9766 58.849 26.88 58.0564 26.1414 57.4314" stroke="black" stroke-width="1.70457"/>
<path d="M32.3119 34.0364C32.7437 34.2296 32.7409 34.4171 32.3034 34.5989L21.5561 39.0564C20.8516 39.3518 20.6669 39.8405 21.0021 40.5223L21.1044 40.7439C21.2017 40.9498 21.3768 41.1089 21.592 41.187C21.8072 41.2651 22.0453 41.256 22.255 41.1615L34.0335 35.8944C36.7495 34.6841 36.7069 33.5847 33.9057 32.5961C30.8034 31.5051 26.9483 29.7608 22.3402 27.363C21.7209 27.0448 21.2834 27.2096 21.0277 27.8574L20.8828 28.2068C20.8121 28.3866 20.8143 28.5871 20.8889 28.7665C20.9635 28.946 21.1049 29.0905 21.2834 29.1699L32.3119 34.0364Z" stroke="black" stroke-width="1.70457"/>
<path d="M43.7837 33.8914L54.6418 29.1613C55.1703 28.9283 55.2924 28.5647 55.0083 28.0704L54.8549 27.7976C54.5822 27.3203 54.1957 27.1982 53.6957 27.4311C49.8661 29.2493 45.9712 30.9198 42.011 32.4426C41.3973 32.6812 40.832 33.0505 40.3149 33.5505C40.185 33.676 40.0881 33.8316 40.0326 34.0035C39.9771 34.1754 39.9648 34.3584 39.9968 34.5362C40.0288 34.7139 40.1041 34.8811 40.2161 35.0228C40.3281 35.1646 40.4732 35.2766 40.6388 35.3489L53.764 41.1614C54.156 41.3319 54.4487 41.2268 54.6418 40.8461L55.0849 39.9682C55.2554 39.633 55.1674 39.3915 54.8208 39.2438L43.7837 34.488C43.725 34.4633 43.6751 34.4217 43.6399 34.3687C43.6047 34.3156 43.586 34.2534 43.586 34.1897C43.586 34.1261 43.6047 34.0638 43.6399 34.0108C43.6751 33.9577 43.725 33.9162 43.7837 33.8914Z" stroke="black" stroke-width="1.70457"/>
<path d="M40.6131 61.4458C39.2722 62.8947 38.5392 64.9771 38.4142 67.6931C36.4256 66.6646 35.3801 64.3152 35.2778 60.6447C35.2732 60.5253 35.2339 60.4098 35.1646 60.3124C35.0953 60.2151 34.9991 60.1401 34.8877 60.0966C34.7764 60.0532 34.6548 60.0432 34.5379 60.0679C34.4209 60.0926 34.3138 60.1508 34.2295 60.2356C31.9567 62.5992 30.1073 64.7214 28.6811 66.6021C27.7095 67.8862 27.1499 67.7243 27.0021 66.1163L26.4311 59.8094C26.9765 58.8492 26.88 58.0566 26.1413 57.4316C26.4084 57.0281 26.5306 56.7668 26.5079 56.6475C26.4745 56.4455 26.3814 56.2589 26.2405 56.1111C26.0995 55.9633 25.9168 55.8608 25.7151 55.8163C25.5134 55.7717 25.3016 55.7872 25.1062 55.8608C24.9107 55.9343 24.7401 56.0627 24.6157 56.2299C23.2805 58.0026 21.8459 59.4742 20.3118 60.6447C18.9936 61.6504 18.4878 61.3379 18.7947 59.7072C19.2208 57.4287 19.4851 55.1901 19.5873 52.9912C19.596 52.789 19.552 52.588 19.4597 52.408C19.3673 52.2279 19.2297 52.0749 19.0604 51.9641C18.8911 51.8532 18.6959 51.7882 18.4939 51.7756C18.2919 51.7629 18.0901 51.8029 17.9083 51.8917L11.1753 55.2497C11.1187 55.278 11.0557 55.3009 10.9877 55.3179C8.96497 55.7781 8.40248 55.3378 9.30022 53.9969C10.9934 51.4741 12.6441 49.0735 14.252 46.7951C14.348 46.6596 14.4016 46.4984 14.4061 46.3316C14.4107 46.1648 14.3659 46 14.2775 45.8576C14.0673 45.5167 13.7719 45.3803 13.3912 45.4485C9.80027 46.0621 6.39683 46.5422 3.18088 46.8888C3.10829 46.8978 3.03454 46.8879 2.96688 46.8601C2.89921 46.8323 2.83986 46.7876 2.79449 46.7303C2.74911 46.6729 2.71927 46.6048 2.70782 46.5326C2.69637 46.4604 2.70373 46.3864 2.72915 46.3178C2.89961 45.8292 3.25472 45.4058 3.7945 45.0479C6.62976 43.1501 9.4877 41.1104 12.3684 38.9285C12.5372 38.8008 12.6634 38.6249 12.7304 38.4241C12.7973 38.2233 12.8019 38.0069 12.7435 37.8035C12.6753 37.5478 12.3855 37.3688 11.8741 37.2666C8.31159 36.5563 5.20364 35.8859 2.5502 35.2552C0.595635 34.7836 0.612626 34.4057 2.60129 34.1216C6.4252 33.5648 10.5531 33.0591 14.985 32.6046C15.2018 32.5808 15.4013 32.4757 15.5424 32.3108C15.6835 32.1459 15.7555 31.9338 15.7435 31.7182C15.7208 31.2125 15.4792 30.6869 15.019 30.1415C12.8372 27.5278 10.7519 24.8459 8.76328 22.0959C8.56441 21.8289 8.3144 21.6272 8.01326 21.4908C7.41098 21.2181 7.14398 20.7976 7.21217 20.2294C7.22417 20.1151 7.26088 20.0048 7.31974 19.9061C7.37861 19.8075 7.45825 19.7228 7.5531 19.6579C7.64795 19.593 7.75575 19.5496 7.86906 19.5305C7.98238 19.5115 8.09842 19.5173 8.20927 19.5476C11.7264 20.4737 15.2434 21.3175 18.7605 22.0789C19.0958 22.1471 19.3913 22.1328 19.6469 22.0363C19.8181 21.9728 19.9611 21.8505 20.0501 21.6912C20.1391 21.5318 20.1684 21.3459 20.1327 21.1669L18.1044 10.5219C18.0733 10.3673 18.0871 10.2071 18.1442 10.06C18.2013 9.91304 18.2991 9.78542 18.4264 9.69225C18.5536 9.59907 18.7048 9.54423 18.8622 9.53419C19.0196 9.52414 19.1765 9.5593 19.3145 9.63554C21.9396 11.0674 24.6442 12.6185 27.4283 14.289C27.9567 14.6072 28.363 14.7947 28.6471 14.8515C29.2664 14.9822 29.5618 14.7294 29.5334 14.093L29.0135 2.40818C28.9851 1.77749 29.2209 1.65533 29.7209 2.0417C30.2152 2.43375 30.65 2.74057 30.9738 3.29456C32.775 6.36846 34.6557 9.57589 36.6159 12.9168C36.6571 12.9866 36.7117 13.0473 36.7768 13.0955C36.8418 13.1437 36.9158 13.1784 36.9945 13.1975C37.0732 13.2166 37.155 13.2197 37.2349 13.2066C37.3147 13.1935 37.3912 13.1645 37.4597 13.1214C37.7495 12.9396 38.0222 12.6356 38.2778 12.2094C39.8574 9.5844 41.2722 7.19234 42.5222 5.03322C43.5108 3.31729 44.2098 3.42808 44.6189 5.3656L46.0251 11.9367C46.0626 12.1094 46.1416 12.2704 46.2552 12.4058C46.3688 12.5412 46.5136 12.647 46.6771 12.7141C46.8406 12.7811 47.0179 12.8075 47.1938 12.7908C47.3698 12.7742 47.5391 12.7151 47.6871 12.6185L56.2951 6.95936C56.38 6.90425 56.4769 6.87008 56.5776 6.85975C56.6782 6.84942 56.7796 6.86325 56.8733 6.90004C56.9669 6.93682 57.05 6.9955 57.1156 7.0711C57.1811 7.14671 57.227 7.237 57.2497 7.33437C57.3349 7.67528 57.352 8.09575 57.3009 8.59576C56.9656 11.7208 56.6077 14.8884 56.227 18.0987C56.2102 18.2355 56.231 18.3743 56.2872 18.5002C56.3434 18.6261 56.4328 18.7342 56.5458 18.8131C56.6589 18.892 56.7913 18.9386 56.9288 18.9478C57.0663 18.9571 57.2037 18.9287 57.3263 18.8658L65.7214 14.5362C67.943 13.3884 68.5396 13.9566 67.5112 16.2407L63.9315 24.184C63.8762 24.3052 63.851 24.4379 63.8581 24.571C63.8651 24.704 63.9042 24.8333 63.972 24.948C64.0398 25.0626 64.1343 25.1592 64.2475 25.2295C64.3607 25.2998 64.4891 25.3417 64.6219 25.3516L73.7243 26.0079C73.8433 26.0161 73.9588 26.0527 74.0609 26.1145C74.163 26.1763 74.2489 26.2616 74.3114 26.3633C74.374 26.465 74.4113 26.5802 74.4204 26.6992C74.4294 26.8182 74.4099 26.9377 74.3635 27.0477C74.2044 27.417 73.9658 27.721 73.6476 27.9596C71.0964 29.8858 68.5737 31.8404 66.0793 33.8233C65.0054 34.6756 63.2071 35.3489 62.244 36.7296C62.1741 36.8303 62.1269 36.945 62.1058 37.0658C62.0846 37.1865 62.0901 37.3104 62.1218 37.4288C62.1534 37.5473 62.2105 37.6574 62.289 37.7515C62.3675 37.8457 62.4656 37.9216 62.5764 37.974L71.3721 42.1416C71.4721 42.1903 71.5564 42.2667 71.6149 42.3615C71.6734 42.4563 71.7036 42.5656 71.7018 42.6763C71.7 42.7869 71.6663 42.8942 71.6048 42.9854C71.5433 43.0765 71.4566 43.1475 71.355 43.1899C68.122 44.582 64.8378 45.6814 61.5025 46.4883C61.2809 46.5419 61.0795 46.6583 60.9224 46.8236C60.7653 46.9888 60.6593 47.1959 60.617 47.42C60.5747 47.6441 60.5979 47.8756 60.684 48.0867C60.77 48.2979 60.9152 48.4797 61.102 48.6105L66.6162 52.4457C68.4344 53.7128 68.2385 54.3378 66.0282 54.3207L57.5309 54.2781C57.3577 54.2775 57.1863 54.3128 57.0276 54.3818C56.869 54.4508 56.7265 54.5518 56.6094 54.6786C56.4923 54.8053 56.403 54.955 56.3474 55.1179C56.2919 55.2808 56.2712 55.4534 56.2866 55.6247L56.8747 62.4686C56.8807 62.5471 56.8681 62.626 56.838 62.6989C56.8079 62.7717 56.7611 62.8364 56.7014 62.8879C56.6417 62.9393 56.5707 62.976 56.4942 62.9949C56.4177 63.0139 56.3378 63.0146 56.261 62.997C55.7553 62.8833 55.3179 62.6504 54.9485 62.2981C53.3235 60.764 51.6133 59.2839 49.8178 57.8577C49.7567 57.8086 49.6862 57.7726 49.6106 57.752C49.5351 57.7313 49.456 57.7264 49.3784 57.7376C49.3009 57.7488 49.2265 57.7759 49.1598 57.817C49.0932 57.8582 49.0358 57.9127 48.9911 57.977C48.6218 58.5054 48.4371 59.0907 48.4371 59.7327C48.4485 62.5339 48.2098 65.3152 47.7212 68.0766C47.6928 68.247 47.6814 68.5056 47.6871 68.8522C47.6928 69.1476 47.6046 69.4033 47.4228 69.6192C47.3585 69.6998 47.2745 69.7623 47.1788 69.8006C47.0832 69.839 46.9793 69.852 46.8771 69.8382C46.775 69.8245 46.6781 69.7846 46.596 69.7223C46.5139 69.66 46.4494 69.5775 46.4086 69.4828C45.153 66.5965 43.7807 63.9004 42.2921 61.3947C42.1273 61.122 41.8944 60.96 41.5932 60.9089C41.2182 60.8464 40.8915 61.0254 40.6131 61.4458ZM32.3119 34.0364C32.7437 34.2296 32.7408 34.4171 32.3033 34.5989L21.556 39.0563C20.8515 39.3518 20.6668 39.8404 21.002 40.5223L21.1043 40.7439C21.2017 40.9498 21.3768 41.1089 21.5919 41.187C21.8071 41.2651 22.0453 41.256 22.255 41.1615L34.0335 35.8944C36.7494 34.6841 36.7068 33.5847 33.9056 32.5961C30.8033 31.5051 26.9482 29.7608 22.3402 27.363C21.7209 27.0448 21.2833 27.2096 21.0276 27.8574L20.8827 28.2068C20.812 28.3866 20.8142 28.5871 20.8889 28.7665C20.9635 28.9459 21.1048 29.0904 21.2834 29.1699L32.3119 34.0364ZM43.7836 33.8915L54.6417 29.1614C55.1702 28.9284 55.2923 28.5648 55.0082 28.0704L54.8548 27.7977C54.5821 27.3204 54.1956 27.1983 53.6956 27.4312C49.866 29.2494 45.9711 30.9199 42.0108 32.4426C41.3972 32.6813 40.8319 33.0506 40.3148 33.5506C40.1849 33.6761 40.0879 33.8317 40.0324 34.0036C39.977 34.1755 39.9646 34.3585 39.9967 34.5362C40.0287 34.714 40.104 34.8812 40.216 35.0229C40.328 35.1646 40.4731 35.2766 40.6387 35.3489L53.7639 41.1615C54.1559 41.3319 54.4486 41.2268 54.6417 40.8461L55.0848 39.9683C55.2553 39.6331 55.1673 39.3916 54.8207 39.2438L43.7836 34.4881C43.7249 34.4633 43.6749 34.4218 43.6398 34.3688C43.6046 34.3157 43.5859 34.2535 43.5859 34.1898C43.5859 34.1262 43.6046 34.0639 43.6398 34.0109C43.6749 33.9578 43.7249 33.9163 43.7836 33.8915Z" fill="#FFBC34"/>
<path d="M32.3119 34.0364L21.2834 29.1699C21.1049 29.0905 20.9635 28.946 20.8889 28.7665C20.8143 28.5871 20.8121 28.3866 20.8828 28.2068L21.0277 27.8574C21.2834 27.2096 21.7209 27.0448 22.3402 27.363C26.9483 29.7608 30.8034 31.5051 33.9057 32.5961C36.7069 33.5847 36.7495 34.6841 34.0335 35.8944L22.255 41.1615C22.0453 41.256 21.8072 41.2651 21.592 41.187C21.3768 41.1089 21.2017 40.9498 21.1044 40.7439L21.0021 40.5223C20.6669 39.8405 20.8516 39.3518 21.5561 39.0564L32.3034 34.5989C32.7409 34.4171 32.7437 34.2296 32.3119 34.0364Z" fill="black"/>
<path d="M43.7837 33.8914C43.725 33.9162 43.6751 33.9577 43.6399 34.0108C43.6047 34.0638 43.586 34.1261 43.586 34.1897C43.586 34.2534 43.6047 34.3156 43.6399 34.3687C43.6751 34.4217 43.725 34.4633 43.7837 34.488L54.8208 39.2438C55.1674 39.3915 55.2554 39.633 55.0849 39.9682L54.6418 40.8461C54.4487 41.2268 54.156 41.3319 53.764 41.1614L40.6388 35.3489C40.4732 35.2766 40.3281 35.1646 40.2161 35.0228C40.1041 34.8811 40.0288 34.7139 39.9968 34.5362C39.9648 34.3584 39.9771 34.1754 40.0326 34.0035C40.0881 33.8316 40.185 33.676 40.3149 33.5505C40.832 33.0505 41.3973 32.6812 42.011 32.4426C45.9712 30.9198 49.8661 29.2493 53.6957 27.4311C54.1957 27.1982 54.5822 27.3203 54.8549 27.7976L55.0083 28.0704C55.2924 28.5647 55.1703 28.9283 54.6418 29.1613L43.7837 33.8914Z" fill="black"/>
<path d="M26.1413 57.4314C26.8799 58.0564 26.9765 58.849 26.431 59.8093L6.44502 75.7896C6.33577 75.8757 6.1975 75.9159 6.06029 75.9015C5.92307 75.8872 5.79799 75.8194 5.71207 75.7129L1.33985 70.3179C1.17935 70.119 1.10061 69.8665 1.11961 69.6116C1.1386 69.3567 1.25391 69.1187 1.44212 68.9457L1.6296 68.7838C1.71323 68.7073 1.8119 68.6491 1.91935 68.6126C2.0268 68.5762 2.14076 68.5623 2.25425 68.5719C2.36774 68.5815 2.47832 68.6143 2.57906 68.6684C2.6798 68.7224 2.76857 68.7965 2.83988 68.8861L5.9422 72.8492C5.9929 72.9139 6.05592 72.9679 6.1276 73.008C6.19928 73.0482 6.27819 73.0738 6.35981 73.0833C6.44143 73.0928 6.52406 73.0861 6.60306 73.0634C6.68205 73.0408 6.75577 73.0028 6.81998 72.9515L26.1413 57.4314Z" fill="black"/>
<path d="M40.613 61.4457L40.579 85.7698C40.579 86.1789 40.7807 86.392 41.1841 86.409C42.633 86.4772 44.241 86.4857 46.0081 86.4346C46.6956 86.4175 47.0222 86.7187 46.9881 87.338C46.9824 87.4119 46.9938 87.4858 47.0222 87.5596C47.0556 87.665 47.0641 87.7768 47.0471 87.8859C47.03 87.9951 46.9878 88.0986 46.924 88.1881C46.8602 88.2776 46.7765 88.3506 46.6796 88.4013C46.5827 88.452 46.4752 88.479 46.3659 88.4801C44.0307 88.5028 41.5363 88.5085 38.8829 88.4971C38.7826 88.4949 38.6874 88.4535 38.6173 88.3818C38.5472 88.3101 38.5079 88.2139 38.5079 88.1136L38.4142 67.6929C38.5392 64.977 39.2721 62.8946 40.613 61.4457Z" fill="black"/>
</svg>
