<svg width="69" height="93" viewBox="0 0 69 93" fill="none" xmlns="http://www.w3.org/2000/svg">
<path d="M26.3706 57.8274L29.6434 65.3616C29.7126 65.5209 29.7251 65.6989 29.6784 65.8652C29.6318 66.0315 29.5291 66.1759 29.3877 66.2735L12.5636 78.1543C12.451 78.2335 12.3737 78.3536 12.3482 78.4889C12.3228 78.6242 12.3512 78.764 12.4273 78.8788L16.5864 85.3817C16.9103 85.8931 17.3137 85.9641 17.7966 85.5948C17.8648 85.5379 17.9358 85.4811 18.0097 85.4243C18.1997 85.2778 18.3281 85.0658 18.3691 84.8304C18.4102 84.5951 18.361 84.3537 18.2313 84.1544L15.2143 79.5009C15.1228 79.3606 15.0885 79.1907 15.1187 79.027C15.1489 78.8633 15.2411 78.7186 15.3762 78.6231L31.8423 66.9894C31.9908 66.8861 32.0984 66.7341 32.1466 66.5598C32.1949 66.3855 32.1806 66.1998 32.1065 66.0349L28.4757 58.0149" stroke="black" stroke-width="1.70457"/>
<path d="M28.4756 58.015L40.3565 56.7366" stroke="#F48697" stroke-width="1.70457"/>
<path d="M40.3562 56.7366L46.9273 67.5606C47.3681 68.2769 47.5459 69.1237 47.4301 69.9555L44.6261 90.8194C44.6153 90.9009 44.622 90.9838 44.6461 91.0625C44.6702 91.1413 44.7111 91.2141 44.7659 91.2762C44.8207 91.3382 44.8882 91.3881 44.9641 91.4225C45.0399 91.4569 45.1222 91.475 45.2056 91.4756L53.6603 91.4416C53.7849 91.4416 53.9081 91.417 54.023 91.3692C54.1379 91.3215 54.242 91.2515 54.3293 91.1634C54.4166 91.0754 54.4853 90.9709 54.5314 90.8562C54.5775 90.7416 54.6001 90.6189 54.5978 90.4955L54.5893 90.1205C54.5779 89.6432 54.3365 89.4075 53.8649 89.4131L47.7881 89.4557C47.1517 89.4614 46.8762 89.1489 46.9614 88.5182L49.5437 69.1288C49.6211 68.5724 49.5036 68.0088 49.2113 67.535L42.6488 56.7025" stroke="black" stroke-width="1.70457"/>
<path d="M42.6493 56.7023C42.6322 56.4523 42.7743 56.2989 43.0754 56.2421C47.655 55.3898 51.9022 54.3869 55.817 53.2335C60.3796 51.8983 63.195 50.867 64.2632 50.1397C68.7717 47.063 68.7376 40.4834 66.4705 35.7447C65.2859 33.256 64.6382 31.7645 61.945 31.2361C59.604 30.7702 57.2517 30.3043 54.888 29.8384C53.0414 29.4691 53.05 29.1565 54.9136 28.9009C59.354 28.3043 62.6694 25.5514 63.445 21.2218C64.3569 16.1422 64.9535 8.233 59.7631 5.30967C54.3312 2.25282 47.9335 0.766994 40.5698 0.852223C36.1549 0.90336 32.3366 1.34654 27.4019 1.38063C17.524 1.44882 9.89609 4.6534 4.66307 13.6365C3.20567 16.1422 5.18297 19.4917 6.69151 22.8582C8.43016 26.7361 12.6404 27.2474 16.4245 27.8355C16.7427 27.881 16.9842 28.0287 17.1489 28.2787C17.1919 28.3451 17.2188 28.4207 17.2271 28.4994C17.2354 28.5781 17.2249 28.6576 17.1967 28.7315C17.1684 28.8054 17.1232 28.8716 17.0646 28.9248C17.0059 28.9779 16.9355 29.0164 16.8592 29.0372C14.3648 29.7304 11.9784 30.5458 9.69999 31.4833C6.48972 32.8072 3.94712 35.3668 2.0721 39.1623C1.55504 40.2135 1.4187 41.3357 1.66302 42.5289C2.68576 47.4636 5.03799 52.3386 10.2284 53.8898C15.6091 55.5035 20.9899 56.816 26.3707 57.8273" stroke="#F48697" stroke-width="1.70457"/>
<path d="M42.6488 56.7025C41.9897 56.532 41.2255 56.5434 40.3562 56.7366" stroke="black" stroke-width="1.70457"/>
<path d="M28.4757 58.0149L26.3706 57.8274" stroke="black" stroke-width="1.70457"/>
<path d="M34.1625 15.778C34.1009 14.7411 33.8255 13.7272 33.3522 12.794C32.8788 11.8608 32.2168 11.0267 31.4037 10.3393C30.5907 9.65187 29.6426 9.12459 28.6136 8.78755C27.5847 8.4505 26.495 8.3103 25.4068 8.37496C23.209 8.50553 21.1506 9.46256 19.6845 11.0355C18.2185 12.6085 17.4648 14.6686 17.5892 16.7625C17.6508 17.7994 17.9261 18.8133 18.3995 19.7465C18.8728 20.6797 19.5348 21.5138 20.3479 22.2012C21.1609 22.8886 22.109 23.4159 23.138 23.753C24.167 24.09 25.2566 24.2302 26.3449 24.1655C28.5426 24.035 30.601 23.0779 32.0671 21.505C33.5332 19.932 34.2869 17.8719 34.1625 15.778Z" stroke="#F48697" stroke-width="1.70457"/>
<path d="M51.7221 15.1633C51.6519 14.2505 51.4025 13.3605 50.9883 12.544C50.574 11.7275 50.0031 11.0006 49.3079 10.4048C48.6128 9.80903 47.8071 9.35596 46.9369 9.07153C46.0667 8.7871 45.1489 8.67687 44.2361 8.74711L41.9417 8.92362C41.0289 8.99385 40.1388 9.24321 39.3223 9.65742C38.5058 10.0716 37.779 10.6426 37.1832 11.3377C36.5874 12.0329 36.1343 12.8386 35.8498 13.7088C35.5654 14.5791 35.4552 15.4968 35.5254 16.4096L35.6392 17.8883C35.7094 18.8011 35.9588 19.6912 36.373 20.5076C36.7873 21.3241 37.3582 22.051 38.0534 22.6468C38.7485 23.2426 39.5542 23.6957 40.4244 23.9801C41.2946 24.2645 42.2124 24.3748 43.1252 24.3045L45.4196 24.128C46.3324 24.0578 47.2225 23.8084 48.039 23.3942C48.8555 22.98 49.5823 22.409 50.1781 21.7139C50.7739 21.0187 51.227 20.213 51.5115 19.3428C51.7959 18.4726 51.9061 17.5548 51.8359 16.642L51.7221 15.1633Z" stroke="#F48697" stroke-width="1.70457"/>
<path d="M27.7778 16.2961C27.7778 15.697 27.5397 15.1224 27.1161 14.6987C26.6924 14.2751 26.1179 14.0371 25.5188 14.0371C24.9197 14.0371 24.345 14.2751 23.9214 14.6987C23.4977 15.1224 23.2598 15.697 23.2598 16.2961C23.2598 16.8952 23.4977 17.4698 23.9214 17.8935C24.345 18.3171 24.9197 18.5551 25.5188 18.5551C26.1179 18.5551 26.6924 18.3171 27.1161 17.8935C27.5397 17.4698 27.7778 16.8952 27.7778 16.2961Z" stroke="black" stroke-width="1.70457"/>
<path d="M45.6836 16.4609C45.6946 15.8867 45.4564 15.3313 45.0215 14.9169C44.5865 14.5024 43.9904 14.2627 43.3643 14.2507C42.7382 14.2387 42.1333 14.4552 41.6827 14.8527C41.2322 15.2502 40.9728 15.796 40.9618 16.3702C40.9508 16.9443 41.189 17.4997 41.6239 17.9142C42.0589 18.3287 42.6549 18.5683 43.2811 18.5803C43.9072 18.5924 44.5121 18.3758 44.9627 17.9784C45.4132 17.5809 45.6725 17.035 45.6836 16.4609Z" stroke="black" stroke-width="1.70457"/>
<path d="M42.6493 56.7023C41.9902 56.5319 41.226 56.5432 40.3567 56.7364L28.4758 58.0148L26.3707 57.8273C20.9899 56.816 15.6091 55.5035 10.2284 53.8898C5.03799 52.3386 2.68576 47.4636 1.66302 42.5289C1.4187 41.3357 1.55504 40.2135 2.0721 39.1623C3.94712 35.3668 6.48972 32.8072 9.69999 31.4833C11.9784 30.5458 14.3648 29.7304 16.8592 29.0372C16.9355 29.0164 17.0059 28.9779 17.0646 28.9248C17.1232 28.8716 17.1684 28.8054 17.1967 28.7315C17.2249 28.6576 17.2354 28.5781 17.2271 28.4994C17.2188 28.4207 17.1919 28.3451 17.1489 28.2787C16.9842 28.0287 16.7427 27.881 16.4245 27.8355C12.6404 27.2474 8.43016 26.7361 6.69151 22.8582C5.18297 19.4917 3.20567 16.1422 4.66307 13.6365C9.89609 4.6534 17.524 1.44882 27.4019 1.38063C32.3366 1.34654 36.1549 0.90336 40.5698 0.852223C47.9335 0.766994 54.3312 2.25282 59.7631 5.30967C64.9535 8.233 64.3569 16.1422 63.445 21.2218C62.6694 25.5514 59.354 28.3043 54.9136 28.9009C53.05 29.1565 53.0414 29.4691 54.888 29.8384C57.2517 30.3043 59.604 30.7702 61.945 31.2361C64.6382 31.7645 65.2859 33.256 66.4706 35.7447C68.7376 40.4834 68.7717 47.063 64.2632 50.1397C63.195 50.867 60.3796 51.8983 55.817 53.2335C51.9022 54.3869 47.655 55.3898 43.0754 56.2421C42.7743 56.2989 42.6322 56.4523 42.6493 56.7023ZM34.1631 15.7777C34.1015 14.7409 33.8261 13.7269 33.3527 12.7938C32.8794 11.8606 32.2173 11.0265 31.4043 10.3391C30.5912 9.65164 29.6431 9.12436 28.6142 8.78731C27.5852 8.45027 26.4955 8.31006 25.4073 8.37472C23.2095 8.50529 21.1512 9.46232 19.6851 11.0353C18.219 12.6083 17.4653 14.6683 17.5897 16.7623C17.6513 17.7991 17.9266 18.8131 18.4 19.7463C18.8733 20.6794 19.5354 21.5135 20.3484 22.201C21.1615 22.8884 22.1096 23.4157 23.1385 23.7527C24.1675 24.0898 25.2572 24.23 26.3454 24.1653C28.5432 24.0347 30.6016 23.0777 32.0676 21.5047C33.5337 19.9318 34.2875 17.8717 34.1631 15.7777ZM51.7221 15.1632C51.6518 14.2504 51.4024 13.3604 50.9882 12.5439C50.5739 11.7274 50.003 11.0005 49.3078 10.4047C48.6127 9.80892 47.807 9.35585 46.9368 9.07142C46.0666 8.78698 45.1488 8.67675 44.236 8.747L41.9416 8.9235C41.0288 8.99373 40.1387 9.24309 39.3222 9.65731C38.5057 10.0715 37.7789 10.6425 37.1831 11.3376C36.5873 12.0328 36.1342 12.8385 35.8497 13.7087C35.5653 14.579 35.4551 15.4967 35.5253 16.4095L35.6391 17.8882C35.7093 18.801 35.9587 19.6911 36.3729 20.5075C36.7872 21.324 37.3581 22.0509 38.0533 22.6467C38.7484 23.2425 39.5541 23.6955 40.4243 23.98C41.2945 24.2644 42.2123 24.3747 43.1251 24.3044L45.4195 24.1279C46.3324 24.0577 47.2224 23.8083 48.0389 23.3941C48.8554 22.9799 49.5822 22.4089 50.178 21.7138C50.7738 21.0186 51.2269 20.2129 51.5114 19.3427C51.7958 18.4725 51.906 17.5547 51.8358 16.6419L51.7221 15.1632Z" fill="#F48697"/>
<path d="M34.1625 15.778C34.2869 17.8719 33.5332 19.932 32.0671 21.505C30.601 23.0779 28.5426 24.035 26.3449 24.1655C25.2566 24.2302 24.167 24.09 23.138 23.753C22.109 23.4159 21.1609 22.8886 20.3479 22.2012C19.5348 21.5138 18.8728 20.6797 18.3995 19.7465C17.9261 18.8133 17.6508 17.7994 17.5892 16.7625C17.4648 14.6686 18.2185 12.6085 19.6845 11.0355C21.1506 9.46256 23.209 8.50553 25.4068 8.37496C26.495 8.3103 27.5847 8.4505 28.6136 8.78755C29.6426 9.12459 30.5907 9.65187 31.4037 10.3393C32.2168 11.0267 32.8788 11.8608 33.3522 12.794C33.8255 13.7272 34.1009 14.7411 34.1625 15.778ZM27.7764 16.2958C27.7764 15.6968 27.5384 15.1223 27.1149 14.6988C26.6913 14.2752 26.1169 14.0373 25.5179 14.0373C24.9189 14.0373 24.3443 14.2752 23.9208 14.6988C23.4972 15.1223 23.2593 15.6968 23.2593 16.2958C23.2593 16.8948 23.4972 17.4693 23.9208 17.8929C24.3443 18.3164 24.9189 18.5544 25.5179 18.5544C26.1169 18.5544 26.6913 18.3164 27.1149 17.8929C27.5384 17.4693 27.7764 16.8948 27.7764 16.2958Z" fill="white"/>
<path d="M51.8359 16.642C51.9061 17.5548 51.7959 18.4726 51.5115 19.3428C51.227 20.213 50.7739 21.0187 50.1781 21.7139C49.5823 22.409 48.8555 22.98 48.039 23.3942C47.2225 23.8084 46.3324 24.0578 45.4196 24.128L43.1252 24.3045C42.2124 24.3748 41.2946 24.2645 40.4244 23.9801C39.5542 23.6957 38.7485 23.2426 38.0534 22.6468C37.3582 22.051 36.7873 21.3241 36.373 20.5076C35.9588 19.6912 35.7094 18.8011 35.6392 17.8883L35.5254 16.4096C35.4552 15.4968 35.5654 14.5791 35.8498 13.7088C36.1343 12.8386 36.5874 12.0329 37.1832 11.3377C37.779 10.6426 38.5058 10.0716 39.3223 9.65742C40.1388 9.24321 41.0289 8.99385 41.9417 8.92362L44.2361 8.74711C45.1489 8.67687 46.0667 8.7871 46.9369 9.07153C47.8071 9.35596 48.6128 9.80903 49.3079 10.4048C50.0031 11.0006 50.574 11.7275 50.9883 12.544C51.4025 13.3605 51.6519 14.2505 51.7221 15.1633L51.8359 16.642ZM45.6831 16.4604C45.6941 15.8863 45.456 15.331 45.0211 14.9166C44.5863 14.5022 43.9903 14.2627 43.3643 14.2506C42.7383 14.2386 42.1335 14.4551 41.6831 14.8525C41.2326 15.2499 40.9733 15.7956 40.9623 16.3697C40.9513 16.9437 41.1894 17.499 41.6243 17.9134C42.0591 18.3278 42.6551 18.5674 43.2811 18.5794C43.9071 18.5914 44.5119 18.3749 44.9623 17.9775C45.4128 17.5801 45.6721 17.0344 45.6831 16.4604Z" fill="white"/>
<path d="M25.5188 18.5551C26.7664 18.5551 27.7778 17.5437 27.7778 16.2961C27.7778 15.0485 26.7664 14.0371 25.5188 14.0371C24.2712 14.0371 23.2598 15.0485 23.2598 16.2961C23.2598 17.5437 24.2712 18.5551 25.5188 18.5551Z" fill="black"/>
<path d="M43.2816 18.5803C44.5855 18.6053 45.6611 17.6564 45.6841 16.4608C45.707 15.2652 44.6686 14.2757 43.3648 14.2507C42.0609 14.2256 40.9853 15.1745 40.9623 16.3702C40.9394 17.5658 41.9778 18.5553 43.2816 18.5803Z" fill="black"/>
<path d="M42.6488 56.7025L49.2113 67.535C49.5036 68.0088 49.6211 68.5724 49.5437 69.1288L46.9614 88.5182C46.8762 89.1489 47.1517 89.4614 47.7881 89.4557L53.8649 89.4131C54.3365 89.4074 54.5779 89.6432 54.5893 90.1205L54.5978 90.4955C54.6001 90.6189 54.5775 90.7415 54.5314 90.8562C54.4853 90.9709 54.4166 91.0753 54.3293 91.1634C54.242 91.2515 54.1379 91.3214 54.023 91.3692C53.9081 91.417 53.7849 91.4416 53.6603 91.4416L45.2056 91.4756C45.1222 91.475 45.0399 91.4569 44.9641 91.4225C44.8882 91.3881 44.8207 91.3382 44.7659 91.2761C44.7111 91.2141 44.6702 91.1412 44.6461 91.0625C44.622 90.9837 44.6153 90.9009 44.6261 90.8194L47.4301 69.9555C47.5459 69.1237 47.3681 68.2769 46.9273 67.5606L40.3562 56.7366C41.2255 56.5434 41.9897 56.532 42.6488 56.7025Z" fill="black"/>
<path d="M26.3706 57.8274L28.4757 58.0149L32.1065 66.0349C32.1806 66.1998 32.1949 66.3855 32.1466 66.5598C32.0984 66.7341 31.9908 66.8861 31.8423 66.9894L15.3762 78.6231C15.2411 78.7186 15.1489 78.8633 15.1187 79.027C15.0885 79.1907 15.1228 79.3606 15.2143 79.5009L18.2313 84.1544C18.361 84.3537 18.4102 84.5951 18.3691 84.8304C18.3281 85.0658 18.1997 85.2778 18.0097 85.4243C17.9358 85.4811 17.8648 85.5379 17.7966 85.5948C17.3137 85.9641 16.9103 85.8931 16.5864 85.3817L12.4273 78.8788C12.3512 78.764 12.3228 78.6242 12.3482 78.4889C12.3737 78.3536 12.451 78.2335 12.5636 78.1543L29.3877 66.2735C29.5291 66.1759 29.6318 66.0315 29.6784 65.8652C29.7251 65.6989 29.7126 65.5209 29.6434 65.3616L26.3706 57.8274Z" fill="black"/>
</svg>
