<svg width="78" height="86" viewBox="0 0 78 86" fill="none" xmlns="http://www.w3.org/2000/svg">
<path d="M34.5293 39.7755L34.5379 82.0061C34.5379 82.1304 34.4876 82.2497 34.398 82.3376C34.3085 82.4255 34.1871 82.4749 34.0606 82.4749L28.9383 82.4834C28.5122 82.4834 28.2991 82.6965 28.2991 83.1226V83.9834C28.2991 84.2732 28.444 84.4181 28.7338 84.4181L36.1401 84.401C36.4299 84.401 36.5748 84.2561 36.5748 83.9664V40.1335" stroke="#7F6D63" stroke-width="1.70457"/>
<path d="M36.5748 40.1333C36.893 39.6446 37.825 39.3775 39.3708 39.332C40.2062 39.3036 40.695 39.4741 40.837 39.8435" stroke="#FF6333" stroke-width="1.70457"/>
<path d="M40.8362 39.8434L40.9044 83.9746C40.9044 84.3326 41.0862 84.5059 41.4498 84.4945L48.8732 84.1962C48.9455 84.1934 49.0163 84.1744 49.0803 84.1407C49.1444 84.107 49.2001 84.0594 49.2434 84.0014C49.2867 83.9434 49.3165 83.8764 49.3306 83.8055C49.3447 83.7345 49.3427 83.6612 49.3249 83.5911L49.2397 83.2843C49.1488 82.9263 48.9187 82.7416 48.5493 82.7303L43.2907 82.5002C42.9385 82.4831 42.7623 82.2985 42.7623 81.9462L42.7709 39.869" stroke="#7F6D63" stroke-width="1.70457"/>
<path d="M42.7711 39.8692C43.953 39.5454 45.3592 39.4261 46.9899 39.5113C47.6036 39.5454 48.2428 39.8863 48.9417 39.7414C49.6746 39.5936 50.1377 39.5226 50.3309 39.5283C53.1605 39.6022 55.973 39.5681 58.7685 39.426C59.9617 39.3579 61.0867 39.9204 62.2117 39.7499C64.8651 39.3351 67.2686 39.1675 69.422 39.2471C71.8652 39.338 73.9079 39.3238 75.5499 39.2044C75.8795 39.1817 76.084 39.0113 76.1636 38.6931C76.4079 37.7726 76.371 36.8777 76.0528 36.0084C75.9562 35.7413 75.9164 35.4686 75.9335 35.1902C76.0073 33.9175 75.8255 32.6362 75.388 31.3464C75.0386 30.3151 75.3028 29.3009 74.7914 28.2867C74.4107 27.5424 74.1011 26.7157 73.8624 25.8066C72.1067 19.0394 68.655 13.6956 63.5072 9.77513C63.0697 9.44558 62.618 9.1473 62.1521 8.88025C61.01 8.23251 60.2941 7.43989 59.0924 6.91148C57.8764 6.37738 56.6008 5.7893 55.2656 5.14724C53.9417 4.51087 52.5326 3.99666 51.0383 3.60461C47.0382 2.56483 44.2456 2.00514 42.6603 1.92559C35.9159 1.6074 30.0181 2.07618 24.9669 3.33188C21.1999 4.26939 18.2538 5.76658 16.1288 7.82342C13.9015 9.98254 11.5179 12.7269 8.97812 16.0565C8.56334 16.6076 8.13436 17.3093 7.69117 18.1616C6.694 20.0707 5.34739 21.6901 4.67409 23.5736C3.04339 28.1589 1.88997 33.1533 1.21382 38.5567C1.11155 39.3693 1.46951 39.7755 2.2877 39.7755H34.5296" stroke="#FF6333" stroke-width="1.70457"/>
<path d="M42.7709 39.869C42.0493 39.6417 41.4044 39.6332 40.8362 39.8434" stroke="#843B29" stroke-width="1.70457"/>
<path d="M36.5748 40.1334C36.0862 39.6788 35.4044 39.5595 34.5294 39.7754" stroke="#843B29" stroke-width="1.70457"/>
<path d="M37.9508 22.7539C37.8021 21.56 37.4103 20.4082 36.7977 19.3643C36.1851 18.3204 35.3638 17.4049 34.3806 16.67C33.3975 15.9351 32.2717 15.3953 31.0676 15.0813C29.8635 14.7672 28.6046 14.6852 27.3629 14.8399C26.1212 14.9945 24.9209 15.3828 23.8307 15.9826C22.7404 16.5824 21.7814 17.382 21.0085 18.3356C20.2357 19.2892 19.664 20.3783 19.3262 21.5405C18.9885 22.7028 18.8911 23.9155 19.0399 25.1095C19.1886 26.3034 19.5804 27.4552 20.193 28.4991C20.8056 29.543 21.6269 30.4585 22.6101 31.1934C23.5932 31.9283 24.719 32.4681 25.9231 32.7821C27.1272 33.0962 28.3861 33.1782 29.6278 33.0235C30.8695 32.8689 32.0698 32.4806 33.1601 31.8808C34.2503 31.281 35.2093 30.4814 35.9822 29.5278C36.755 28.5742 37.3267 27.4851 37.6645 26.3229C38.0023 25.1606 38.0996 23.9479 37.9508 22.7539Z" stroke="#FF6333" stroke-width="1.70457"/>
<path d="M58.3814 23.0037C58.2358 21.8172 57.8458 20.6726 57.2338 19.635C56.6218 18.5975 55.7998 17.6875 54.8146 16.9569C53.8295 16.2263 52.7005 15.6894 51.4922 15.3769C50.2839 15.0644 49.0199 14.9824 47.7723 15.1355C45.2528 15.4449 42.9534 16.6934 41.3799 18.6065C39.8063 20.5195 39.0876 22.9404 39.3818 25.3365C39.5275 26.5229 39.9175 27.6676 40.5295 28.7051C41.1415 29.7426 41.9635 30.6527 42.9487 31.3833C43.9338 32.1139 45.0628 32.6507 46.2711 32.9633C47.4794 33.2758 48.7434 33.3578 49.991 33.2046C52.5105 32.8953 54.8099 31.6467 56.3834 29.7336C57.9569 27.8206 58.6757 25.3998 58.3814 23.0037Z" stroke="#FF6333" stroke-width="1.70457"/>
<path d="M15.0078 36.2974C14.9345 36.1969 14.7902 36.1545 14.6065 36.1795C14.4229 36.2046 14.215 36.295 14.0286 36.4309C13.9363 36.4982 13.8521 36.5747 13.7807 36.6559C13.7093 36.7372 13.6522 36.8216 13.6126 36.9044C13.573 36.9872 13.5517 37.0667 13.5499 37.1384C13.5481 37.2102 13.5659 37.2727 13.6022 37.3224C13.6755 37.4229 13.8199 37.4653 14.0035 37.4403C14.1871 37.4152 14.395 37.3248 14.5814 37.1889C14.6737 37.1216 14.7579 37.0451 14.8293 36.9639C14.9007 36.8827 14.9578 36.7983 14.9974 36.7155C15.037 36.6327 15.0583 36.5531 15.0601 36.4814C15.0619 36.4097 15.0441 36.3472 15.0078 36.2974Z" stroke="#FF6333" stroke-width="1.70457"/>
<path d="M29.0065 23.9061C29.0065 23.7841 28.9824 23.6633 28.9358 23.5506C28.8891 23.4379 28.8206 23.3354 28.7344 23.2492C28.6481 23.1629 28.5457 23.0945 28.433 23.0478C28.3203 23.0011 28.1995 22.9771 28.0775 22.9771C27.9555 22.9771 27.8347 23.0011 27.722 23.0478C27.6093 23.0945 27.5069 23.1629 27.4206 23.2492C27.3343 23.3354 27.2659 23.4379 27.2192 23.5506C27.1725 23.6633 27.1485 23.7841 27.1485 23.9061C27.1485 24.1524 27.2464 24.3887 27.4206 24.563C27.5948 24.7372 27.8311 24.835 28.0775 24.835C28.3239 24.835 28.5602 24.7372 28.7344 24.563C28.9086 24.3887 29.0065 24.1524 29.0065 23.9061Z" stroke="#848686" stroke-width="1.70457"/>
<path d="M49.5979 24.1446C49.5979 24.0035 49.5701 23.8639 49.5161 23.7336C49.4622 23.6033 49.3831 23.485 49.2834 23.3852C49.1836 23.2855 49.0653 23.2064 48.935 23.1525C48.8047 23.0985 48.665 23.0707 48.524 23.0707C48.2392 23.0707 47.9661 23.1838 47.7647 23.3852C47.5633 23.5866 47.4501 23.8598 47.4501 24.1446C47.4501 24.4294 47.5633 24.7025 47.7647 24.9039C47.9661 25.1053 48.2392 25.2184 48.524 25.2184C48.665 25.2184 48.8047 25.1907 48.935 25.1367C49.0653 25.0828 49.1836 25.0037 49.2834 24.9039C49.3831 24.8042 49.4622 24.6858 49.5161 24.5555C49.5701 24.4252 49.5979 24.2856 49.5979 24.1446Z" stroke="#C9CACA" stroke-width="1.70457"/>
<path d="M42.7711 39.8692C42.0495 39.642 41.4047 39.6334 40.8365 39.8436C40.6944 39.4743 40.2058 39.3039 39.3705 39.3323C37.8251 39.3778 36.8932 39.6448 36.575 40.1334C36.0864 39.6789 35.4046 39.5596 34.5296 39.7755H2.2877C1.46951 39.7755 1.11155 39.3693 1.21382 38.5567C1.88997 33.1533 3.04339 28.1589 4.67409 23.5736C5.34739 21.6901 6.694 20.0707 7.69117 18.1616C8.13436 17.3093 8.56334 16.6076 8.97812 16.0565C11.5179 12.7269 13.9015 9.98254 16.1288 7.82342C18.2538 5.76658 21.1999 4.26939 24.9669 3.33188C30.0181 2.07618 35.9159 1.6074 42.6603 1.92559C44.2456 2.00514 47.0382 2.56483 51.0383 3.60461C52.5326 3.99666 53.9417 4.51087 55.2656 5.14724C56.6008 5.7893 57.8764 6.37738 59.0924 6.91148C60.2941 7.43989 61.01 8.23251 62.1521 8.88025C62.618 9.1473 63.0697 9.44558 63.5072 9.77513C68.655 13.6956 72.1067 19.0394 73.8624 25.8066C74.1011 26.7157 74.4107 27.5424 74.7914 28.2867C75.3028 29.3009 75.0386 30.3151 75.388 31.3464C75.8255 32.6362 76.0073 33.9175 75.9335 35.1902C75.9164 35.4686 75.9562 35.7413 76.0528 36.0084C76.371 36.8777 76.4079 37.7726 76.1636 38.6931C76.084 39.0113 75.8795 39.1817 75.5499 39.2044C73.9079 39.3238 71.8652 39.338 69.422 39.2471C67.2686 39.1675 64.8651 39.3351 62.2117 39.7499C61.0867 39.9204 59.9617 39.3579 58.7685 39.426C55.973 39.5681 53.1605 39.6022 50.3309 39.5283C50.1377 39.5226 49.6746 39.5936 48.9417 39.7414C48.2428 39.8863 47.6036 39.5454 46.9899 39.5113C45.3592 39.4261 43.953 39.5454 42.7711 39.8692ZM37.9509 22.7538C37.8022 21.5598 37.4103 20.408 36.7978 19.3641C36.1852 18.3203 35.3639 17.4048 34.3807 16.6699C33.3975 15.935 32.2717 15.3951 31.0676 15.0811C29.8635 14.7671 28.6047 14.6851 27.363 14.8397C26.1213 14.9944 24.921 15.3827 23.8307 15.9825C22.7404 16.5823 21.7815 17.3818 21.0086 18.3355C20.2357 19.2891 19.6641 20.3781 19.3263 21.5404C18.9885 22.7026 18.8912 23.9153 19.0399 25.1093C19.1886 26.3033 19.5805 27.4551 20.193 28.4989C20.8056 29.5428 21.6269 30.4583 22.6101 31.1932C23.5933 31.9281 24.7191 32.468 25.9232 32.782C27.1273 33.096 28.3861 33.178 29.6278 33.0234C30.8695 32.8687 32.0698 32.4804 33.1601 31.8806C34.2504 31.2808 35.2093 30.4813 35.9822 29.5277C36.7551 28.574 37.3267 27.485 37.6645 26.3227C38.0023 25.1604 38.0996 23.9477 37.9509 22.7538ZM58.3818 23.0038C58.2361 21.8173 57.8462 20.6727 57.2342 19.6352C56.6222 18.5977 55.8001 17.6876 54.815 16.957C53.8298 16.2264 52.7009 15.6895 51.4925 15.377C50.2842 15.0645 49.0202 14.9825 47.7727 15.1357C45.2532 15.445 42.9537 16.6935 41.3802 18.6066C39.8067 20.5196 39.088 22.9405 39.3822 25.3366C39.5279 26.5231 39.9179 27.6677 40.5298 28.7052C41.1418 29.7427 41.9639 30.6528 42.949 31.3834C43.9342 32.114 45.0631 32.6509 46.2715 32.9634C47.4798 33.2759 48.7438 33.3579 49.9913 33.2047C52.5108 32.8954 54.8103 31.6468 56.3838 29.7338C57.9573 27.8207 58.676 25.3999 58.3818 23.0038ZM15.0073 36.2973C14.934 36.1969 14.7897 36.1545 14.6062 36.1795C14.4227 36.2045 14.2149 36.2949 14.0287 36.4308C13.9364 36.498 13.8522 36.5745 13.7809 36.6556C13.7095 36.7368 13.6525 36.8212 13.6129 36.9039C13.5733 36.9867 13.552 37.0662 13.5503 37.1379C13.5485 37.2096 13.5662 37.272 13.6025 37.3218C13.6758 37.4222 13.82 37.4646 14.0035 37.4395C14.1871 37.4145 14.3948 37.3241 14.5811 37.1883C14.6734 37.121 14.7576 37.0446 14.8289 36.9634C14.9002 36.8823 14.9573 36.7979 14.9969 36.7152C15.0365 36.6324 15.0577 36.5529 15.0595 36.4812C15.0613 36.4095 15.0435 36.3471 15.0073 36.2973Z" fill="#FF6333"/>
<path d="M37.9508 22.7539C38.0996 23.9479 38.0023 25.1606 37.6645 26.3229C37.3267 27.4851 36.755 28.5742 35.9822 29.5278C35.2093 30.4814 34.2503 31.281 33.1601 31.8808C32.0698 32.4806 30.8695 32.8689 29.6278 33.0235C28.3861 33.1782 27.1272 33.0962 25.9231 32.7821C24.719 32.4681 23.5932 31.9283 22.6101 31.1934C21.6269 30.4585 20.8056 29.543 20.193 28.4991C19.5804 27.4552 19.1886 26.3034 19.0399 25.1095C18.8911 23.9155 18.9885 22.7028 19.3262 21.5405C19.664 20.3783 20.2357 19.2892 21.0085 18.3356C21.7814 17.382 22.7404 16.5824 23.8307 15.9826C24.9209 15.3828 26.1212 14.9945 27.3629 14.8399C28.6046 14.6852 29.8635 14.7672 31.0676 15.0813C32.2717 15.3953 33.3975 15.9351 34.3806 16.67C35.3638 17.4049 36.1851 18.3204 36.7977 19.3643C37.4103 20.4082 37.8021 21.56 37.9508 22.7539ZM29.0067 23.9062C29.0067 23.7842 28.9827 23.6634 28.936 23.5507C28.8893 23.4379 28.8209 23.3355 28.7346 23.2493C28.6484 23.163 28.546 23.0946 28.4332 23.0479C28.3205 23.0012 28.1997 22.9771 28.0777 22.9771C27.9557 22.9771 27.8349 23.0012 27.7222 23.0479C27.6095 23.0946 27.5071 23.163 27.4208 23.2493C27.3346 23.3355 27.2661 23.4379 27.2195 23.5507C27.1728 23.6634 27.1487 23.7842 27.1487 23.9062C27.1487 24.1525 27.2466 24.3888 27.4208 24.5631C27.5951 24.7373 27.8314 24.8351 28.0777 24.8351C28.3241 24.8351 28.5604 24.7373 28.7346 24.5631C28.9089 24.3888 29.0067 24.1525 29.0067 23.9062Z" fill="white"/>
<path d="M58.3814 23.0037C58.6757 25.3998 57.9569 27.8206 56.3834 29.7336C54.8099 31.6467 52.5105 32.8953 49.991 33.2046C48.7434 33.3578 47.4794 33.2758 46.2711 32.9633C45.0628 32.6507 43.9338 32.1139 42.9487 31.3833C41.9635 30.6527 41.1415 29.7426 40.5295 28.7051C39.9175 27.6676 39.5275 26.5229 39.3818 25.3365C39.0876 22.9404 39.8063 20.5195 41.3799 18.6065C42.9534 16.6934 45.2528 15.4449 47.7723 15.1355C49.0199 14.9824 50.2839 15.0644 51.4922 15.3769C52.7005 15.6894 53.8295 16.2263 54.8146 16.9569C55.7998 17.6875 56.6218 18.5975 57.2338 19.635C57.8458 20.6726 58.2358 21.8172 58.3814 23.0037ZM49.5976 24.1445C49.5976 24.0035 49.5698 23.8638 49.5158 23.7335C49.4619 23.6032 49.3828 23.4849 49.283 23.3852C49.1833 23.2854 49.0649 23.2063 48.9347 23.1524C48.8044 23.0984 48.6647 23.0706 48.5237 23.0706C48.2389 23.0706 47.9657 23.1838 47.7644 23.3852C47.563 23.5866 47.4498 23.8597 47.4498 24.1445C47.4498 24.4293 47.563 24.7025 47.7644 24.9039C47.9657 25.1053 48.2389 25.2184 48.5237 25.2184C48.6647 25.2184 48.8044 25.1906 48.9347 25.1367C49.0649 25.0827 49.1833 25.0036 49.283 24.9039C49.3828 24.8041 49.4619 24.6857 49.5158 24.5554C49.5698 24.4252 49.5976 24.2855 49.5976 24.1445Z" fill="white"/>
<path d="M28.0775 24.835C28.5905 24.835 29.0065 24.4191 29.0065 23.9061C29.0065 23.393 28.5905 22.9771 28.0775 22.9771C27.5644 22.9771 27.1485 23.393 27.1485 23.9061C27.1485 24.4191 27.5644 24.835 28.0775 24.835Z" fill="black"/>
<path d="M48.524 25.2184C49.1171 25.2184 49.5979 24.7376 49.5979 24.1446C49.5979 23.5515 49.1171 23.0707 48.524 23.0707C47.9309 23.0707 47.4501 23.5515 47.4501 24.1446C47.4501 24.7376 47.9309 25.2184 48.524 25.2184Z" fill="#848686"/>
<path d="M14.5807 37.188C14.9686 36.9052 15.1595 36.5063 15.0069 36.2971C14.8544 36.0879 14.4163 36.1477 14.0283 36.4305C13.6404 36.7134 13.4496 37.1123 13.6021 37.3215C13.7547 37.5307 14.1928 37.4709 14.5807 37.188Z" fill="#848686"/>
<path d="M36.5748 40.1334V83.9663C36.5748 84.2561 36.4299 84.401 36.1401 84.401L28.7338 84.418C28.444 84.418 28.2991 84.2731 28.2991 83.9834V83.1225C28.2991 82.6964 28.5122 82.4833 28.9383 82.4833L34.0606 82.4748C34.1871 82.4748 34.3085 82.4254 34.398 82.3375C34.4876 82.2496 34.5379 82.1304 34.5379 82.0061L34.5293 39.7754C35.4043 39.5595 36.0862 39.6788 36.5748 40.1334Z" fill="black"/>
<path d="M42.7709 39.869L42.7623 81.9462C42.7623 82.2985 42.9385 82.4832 43.2907 82.5002L48.5493 82.7303C48.9187 82.7417 49.1488 82.9263 49.2397 83.2843L49.3249 83.5911C49.3427 83.6613 49.3447 83.7345 49.3306 83.8055C49.3165 83.8765 49.2867 83.9434 49.2434 84.0014C49.2001 84.0594 49.1444 84.107 49.0803 84.1407C49.0163 84.1744 48.9455 84.1934 48.8732 84.1963L41.4498 84.4945C41.0862 84.5059 40.9044 84.3326 40.9044 83.9746L40.8362 39.8434C41.4044 39.6332 42.0493 39.6417 42.7709 39.869Z" fill="black"/>
</svg>
