<svg width="98" height="121" viewBox="0 0 98 121" fill="none" xmlns="http://www.w3.org/2000/svg">
<path d="M51.6179 8.86646C50.9179 8.95312 50.6112 9.39645 50.6979 10.1964" stroke="#C4B1A7" stroke-width="2"/>
<path d="M50.6977 10.1965C50.2977 10.5099 49.951 10.8799 49.6577 11.3065C45.011 18.1799 40.2243 25.3065 35.2977 32.6865C33.9577 34.6865 32.7777 37.3765 31.0977 39.5765C30.3911 40.5099 29.8277 41.5299 29.4077 42.6365C28.961 43.8099 28.231 44.8532 27.2177 45.7665C26.9777 45.9865 26.8477 46.2599 26.8277 46.5865C26.7477 47.9465 25.4078 48.5165 24.8978 49.2465C24.3244 50.0665 23.761 50.8999 23.2077 51.7465C23.021 52.0265 22.9077 52.3299 22.8677 52.6565C22.8277 52.9499 22.6743 53.1732 22.4077 53.3265C22.2077 53.4399 22.0443 53.5899 21.9177 53.7765L13.1577 66.8665" stroke="#F48697" stroke-width="2"/>
<path d="M13.1579 66.8665C12.9046 67.2398 12.7546 67.6265 12.7079 68.0265" stroke="#C4B1A7" stroke-width="2"/>
<path d="M12.7077 68.0266C9.6777 71.2266 7.73771 75.2866 5.21771 78.9066" stroke="#F48697" stroke-width="2"/>
<path d="M5.218 78.9065C4.59134 79.1732 4.29131 79.4998 4.31798 79.8865" stroke="#C4B1A7" stroke-width="2"/>
<path d="M4.31781 79.8865C2.79781 81.8065 1.88114 83.8265 1.56781 85.9465" stroke="#F48697" stroke-width="2"/>
<path d="M1.56781 85.9465C1.84781 86.6865 2.56116 87.0065 3.70782 86.9065" stroke="#C4B1A7" stroke-width="2"/>
<path d="M3.70795 86.9067C4.38128 86.7667 5.01464 86.78 5.60797 86.9467" stroke="#DAC9C0" stroke-width="2"/>
<path d="M5.60785 86.9467C6.20118 87.3467 6.68112 87.1367 7.04779 86.3167" stroke="#7F6D63" stroke-width="2"/>
<path d="M7.04779 86.3167C9.45446 87.1767 11.8478 87.34 14.2278 86.8067" stroke="#F48697" stroke-width="2"/>
<path d="M14.2275 86.8065C15.2675 87.1732 15.8408 87.1365 15.9474 86.6965" stroke="#C4B1A7" stroke-width="2"/>
<path d="M15.9477 86.6965C17.3477 87.0632 18.6044 87.2132 19.7177 87.1465C26.3444 86.7799 32.8243 86.8765 39.1577 87.4365" stroke="#F48697" stroke-width="2"/>
<path d="M39.1579 87.4364L22.148 103.536C22.0758 103.604 21.9799 103.641 21.8809 103.639C21.7819 103.637 21.6876 103.597 21.618 103.526L17.648 99.4264C17.4768 99.2493 17.2461 99.1415 16.9993 99.1231C16.7526 99.1047 16.5067 99.177 16.3079 99.3264L15.748 99.7364C15.3613 100.03 15.3346 100.353 15.6679 100.706L21.468 106.746C21.5588 106.841 21.683 106.896 21.8139 106.899C21.9448 106.903 22.0719 106.855 22.1679 106.766L43.2979 87.0164" stroke="#7F6D63" stroke-width="2"/>
<path d="M43.2978 87.0164L54.0778 87.3364" stroke="#F48697" stroke-width="2"/>
<path d="M54.0776 87.3367L58.1277 96.3967C58.2374 96.638 58.2942 96.8995 58.2942 97.1635C58.2942 97.4275 58.2374 97.6878 58.1277 97.9267L50.0876 115.757C49.9076 116.143 50.0176 116.413 50.4176 116.567L58.5876 119.637C58.7851 119.709 59.0012 119.711 59.1985 119.641C59.3958 119.572 59.5618 119.436 59.6676 119.257L59.9777 118.727C60.0467 118.609 60.0893 118.478 60.1027 118.343C60.116 118.208 60.0996 118.071 60.0548 117.943C60.01 117.816 59.9378 117.699 59.8433 117.603C59.7487 117.507 59.6342 117.433 59.5077 117.387L53.9677 115.367C53.361 115.147 53.191 114.743 53.4576 114.157L60.6277 98.1967C60.7628 97.8947 60.8326 97.5675 60.8326 97.2367C60.8326 96.9058 60.7628 96.5787 60.6277 96.2767L56.8276 87.9267" stroke="#7F6D63" stroke-width="2"/>
<path d="M56.8276 87.9265L66.2975 87.3365C66.6242 87.3165 66.9309 87.2332 67.2176 87.0865C68.0376 86.6665 68.8309 86.7232 69.5976 87.2565C69.866 87.4399 70.1762 87.5502 70.4976 87.5765C73.8576 87.8065 77.1276 87.4565 80.4776 87.7565C85.4243 88.1965 90.6076 88.2565 96.0276 87.9365C96.1077 87.9317 96.1847 87.9047 96.2502 87.8584C96.3156 87.8121 96.3668 87.7485 96.398 87.6747C96.4292 87.6008 96.4391 87.5197 96.4267 87.4406C96.4143 87.3614 96.3799 87.2872 96.3276 87.2265C95.4142 86.1532 94.9376 85.0232 94.8976 83.8365C94.891 83.5299 94.7576 83.2932 94.4976 83.1265C93.6443 82.5799 92.9709 81.9365 92.4776 81.1965" stroke="#F48697" stroke-width="2"/>
<path d="M92.4778 81.1965C92.1512 80.4565 91.6945 79.8531 91.1078 79.3865" stroke="#C4B1A7" stroke-width="2"/>
<path d="M91.1076 79.3866C91.3009 77.7133 90.8776 76.1833 89.8376 74.7966C88.2109 72.61 86.9709 70.5533 86.1176 68.6266C85.1509 66.44 84.0609 64.3566 82.8476 62.3766C81.4743 60.1233 80.1543 57.8266 78.8876 55.4866C78.6617 55.068 78.4839 54.6251 78.3576 54.1666C77.0976 49.5866 75.4243 44.93 73.3376 40.1966C72.8509 39.0966 72.4143 37.9866 72.0276 36.8666C71.3743 35 70.9676 33.8933 70.8076 33.5466C69.2142 29.9666 67.7142 26.35 66.3076 22.6966C65.6476 20.9966 64.3076 18.8266 63.8276 16.5866C63.4876 14.9866 62.5476 14.1166 62.2176 12.6366C61.8043 10.7566 61.0176 8.93997 59.8576 7.18664C58.8043 5.58664 57.9676 3.94663 57.3476 2.26664C57.2914 2.11715 57.1947 1.98626 57.0683 1.88864C56.9419 1.79101 56.7909 1.7305 56.632 1.71389C56.4732 1.69728 56.3129 1.72523 56.169 1.7946C56.0252 1.86396 55.9035 1.97201 55.8176 2.10664L51.6176 8.86664" stroke="#F48697" stroke-width="2"/>
<path d="M91.1075 79.3865C90.6408 80.2198 91.0975 80.8231 92.4775 81.1965" stroke="#A8ADAE" stroke-width="2"/>
<path d="M56.8276 87.9264C56.2609 87.2997 55.3442 87.1031 54.0776 87.3364" stroke="#63696A" stroke-width="2"/>
<path d="M43.2977 87.0163C41.5043 86.9096 40.1243 87.0496 39.1577 87.4363" stroke="#63696A" stroke-width="2"/>
<path d="M15.9474 86.6963C15.7808 86.3496 15.5375 86.193 15.2175 86.2263C14.7308 86.273 14.4008 86.4663 14.2275 86.8063" stroke="#A8ADAE" stroke-width="2"/>
<path d="M7.04779 86.3165C6.67446 85.2032 6.19452 85.4132 5.60785 86.9465" stroke="#63696A" stroke-width="2"/>
<path d="M3.70782 86.9065C3.30782 86.3599 2.59448 86.0399 1.56781 85.9465" stroke="#A8ADAE" stroke-width="2"/>
<path d="M4.31781 79.8868L5.35785 79.8668C5.45179 79.867 5.54368 79.8397 5.62225 79.7883C5.70083 79.7368 5.7626 79.6634 5.79987 79.5771C5.83713 79.4909 5.84833 79.3956 5.83197 79.3031C5.81561 79.2106 5.77241 79.125 5.70782 79.0568C5.56116 78.8901 5.39783 78.8401 5.21783 78.9067" stroke="#A8ADAE" stroke-width="2"/>
<path d="M12.7079 68.0265C13.0079 68.1798 13.1947 68.2498 13.268 68.2365C13.4116 68.2192 13.5468 68.1611 13.658 68.0688C13.7692 67.9765 13.8516 67.854 13.8957 67.7155C13.9398 67.577 13.9436 67.4283 13.9068 67.2868C13.87 67.1453 13.7941 67.0168 13.6879 66.9165C13.6413 66.8698 13.4646 66.8532 13.1579 66.8665" stroke="#A8ADAE" stroke-width="2"/>
<path d="M50.6977 10.1963C51.311 10.5763 51.8544 10.5263 52.3277 10.0463C52.4584 9.90986 52.5304 9.72733 52.5285 9.53711C52.5266 9.34689 52.451 9.1638 52.3177 9.02633C52.0577 8.76633 51.8244 8.713 51.6177 8.86633" stroke="#A8ADAE" stroke-width="2"/>
<path d="M43.5476 22.4067C43.4861 22.3921 43.422 22.3944 43.3617 22.4133C43.3014 22.4323 43.2473 22.4672 43.2053 22.5143C43.1633 22.5615 43.1348 22.6192 43.1229 22.6812C43.111 22.7432 43.1161 22.8074 43.1377 22.8667C43.311 23.3334 43.6843 23.6001 44.2577 23.6667C44.3266 23.675 44.3965 23.6637 44.4593 23.6341C44.5222 23.6045 44.5755 23.5579 44.613 23.4994C44.6506 23.441 44.6709 23.3732 44.6717 23.3038C44.6726 23.2343 44.6538 23.166 44.6177 23.1067C44.4043 22.7534 44.0476 22.5201 43.5476 22.4067Z" stroke="#A8ADAE" stroke-width="2"/>
<path d="M44.5779 29.9966C44.0779 29.6566 43.6713 29.7566 43.3579 30.2966C43.315 30.3702 43.2898 30.4527 43.2843 30.5377C43.2788 30.6227 43.293 30.7078 43.3259 30.7864C43.3589 30.8649 43.4097 30.9347 43.4743 30.9903C43.5388 31.0458 43.6153 31.0857 43.6979 31.1066C43.8712 31.1466 44.0446 31.1699 44.2179 31.1766C45.6512 31.1899 45.7712 30.7966 44.5779 29.9966Z" stroke="#63696A" stroke-width="2"/>
<path d="M50.8878 36.0667C50.8662 36.0391 50.8385 36.0171 50.8067 36.0023C50.7749 35.9875 50.7398 35.9803 50.7042 35.9813C50.6685 35.9823 50.6332 35.9913 50.6009 36.0079C50.5686 36.0244 50.5402 36.0479 50.5178 36.0767C50.2244 36.49 50.1644 36.97 50.3377 37.5167C50.3676 37.6127 50.4269 37.697 50.5073 37.7575C50.5876 37.8181 50.6849 37.8518 50.7855 37.854C50.886 37.8562 50.9849 37.8268 51.0678 37.7698C51.1507 37.7129 51.2137 37.6313 51.2477 37.5367C51.4211 37.0633 51.3011 36.5733 50.8878 36.0667Z" stroke="#63696A" stroke-width="2"/>
<path d="M34.5675 41.9968C34.6243 41.9433 34.6677 41.8773 34.6945 41.8039C34.7213 41.7306 34.7307 41.6517 34.722 41.5735C34.7133 41.4953 34.6867 41.4198 34.6443 41.3527C34.602 41.2857 34.5449 41.2289 34.4776 41.1867C33.9242 40.8534 33.5742 40.9634 33.4275 41.5168C33.4009 41.6139 33.4049 41.7169 33.4389 41.8118C33.4729 41.9066 33.5353 41.9887 33.6176 42.0467C33.9643 42.2867 34.2809 42.2701 34.5675 41.9968Z" stroke="#A8ADAE" stroke-width="2"/>
<path d="M48.8779 43.2864C48.9379 43.553 49.0479 43.7964 49.2079 44.0164C49.4812 44.4164 49.6778 44.3797 49.7978 43.9064C49.8845 43.5664 49.8912 43.2364 49.8179 42.9164C49.7645 42.6697 49.6079 42.543 49.3479 42.5364C49.2346 42.5364 49.1379 42.5764 49.0579 42.6564C48.8779 42.8297 48.8179 43.0397 48.8779 43.2864Z" stroke="#63696A" stroke-width="2"/>
<path d="M32.4075 62.5766C32.5009 62.8433 32.6842 63.0099 32.9576 63.0766C39.0309 64.5233 44.0242 63.1433 47.9376 58.9366C48.5976 58.2233 48.9943 57.3333 49.1276 56.2666C49.8976 50.3166 47.9276 45.0166 41.6476 43.3366C35.4676 41.6766 30.9375 43.7233 28.0575 49.4766C27.8042 49.9833 27.6676 50.5266 27.6476 51.1066C27.5976 52.8366 27.0876 54.1066 27.7776 55.7666C28.6476 57.8566 30.0476 60.9266 31.9476 62.0366C32.1676 62.1633 32.3209 62.3433 32.4075 62.5766Z" stroke="#DEE2E3" stroke-width="2"/>
<path d="M72.5027 51.9278C72.418 50.7173 72.0958 49.5354 71.5544 48.4495C71.013 47.3635 70.263 46.3949 69.3473 45.5988C68.4315 44.8027 67.3679 44.1948 66.2172 43.8098C65.0664 43.4248 63.8512 43.2701 62.6407 43.3548L59.6081 43.5669C58.3977 43.6515 57.2157 43.9737 56.1297 44.5152C55.0438 45.0566 54.0752 45.8066 53.2792 46.7223C52.4831 47.6381 51.8751 48.7017 51.4901 49.8524C51.1051 51.0032 50.9505 52.2184 51.0351 53.4289L51.1523 55.1048C51.237 56.3152 51.5592 57.4972 52.1006 58.5831C52.642 59.669 53.3921 60.6377 54.3078 61.4338C55.2236 62.2299 56.2871 62.8377 57.4379 63.2228C58.5886 63.6078 59.8038 63.7624 61.0143 63.6778L64.0469 63.4657C65.2573 63.381 66.4393 63.0588 67.5253 62.5174C68.6112 61.976 69.5799 61.226 70.376 60.3102C71.172 59.3944 71.7799 58.3308 72.1649 57.1801C72.5499 56.0294 72.7045 54.8141 72.6199 53.6037L72.5027 51.9278Z" stroke="#DEE2E3" stroke-width="2"/>
<path d="M22.5541 59.7114C22.5905 59.6506 22.6104 59.5806 22.6126 59.5056C22.6147 59.4305 22.5991 59.3518 22.5667 59.274C22.5342 59.1961 22.4857 59.1206 22.4236 59.0519C22.3615 58.9831 22.2872 58.9224 22.205 58.8731C22.1227 58.8239 22.034 58.7871 21.9441 58.7649C21.8542 58.7427 21.7647 58.7356 21.6808 58.7438C21.5969 58.752 21.5202 58.7755 21.4551 58.8128C21.39 58.8502 21.3377 58.9008 21.3013 58.9616C21.2649 59.0225 21.245 59.0924 21.2428 59.1675C21.2406 59.2426 21.2562 59.3213 21.2886 59.3991C21.321 59.477 21.3697 59.5524 21.4318 59.6212C21.4938 59.69 21.5681 59.7507 21.6504 59.7999C21.7327 59.8492 21.8212 59.8859 21.9111 59.9081C22.0011 59.9303 22.0907 59.9375 22.1746 59.9293C22.2585 59.9211 22.3352 59.8976 22.4003 59.8602C22.4654 59.8228 22.5177 59.7723 22.5541 59.7114Z" stroke="#A8ADAE" stroke-width="2"/>
<path d="M32.5201 64.0289C32.5972 63.9051 32.6013 63.7429 32.5316 63.578C32.4619 63.4131 32.324 63.2591 32.1484 63.1498C31.9728 63.0405 31.7738 62.9848 31.5952 62.9951C31.4165 63.0054 31.2727 63.0807 31.1956 63.2045C31.1186 63.3283 31.1145 63.4905 31.1842 63.6554C31.2538 63.8203 31.3916 63.9743 31.5672 64.0836C31.7428 64.1929 31.9419 64.2486 32.1206 64.2383C32.2992 64.228 32.443 64.1527 32.5201 64.0289Z" stroke="#A8ADAE" stroke-width="2"/>
<path d="M69.5079 66.6968C69.2012 67.0301 69.1711 67.3967 69.4178 67.7967C69.4722 67.8863 69.5516 67.9581 69.6462 68.0033C69.7407 68.0486 69.8463 68.0653 69.9502 68.0515C70.0541 68.0377 70.1518 67.994 70.2312 67.9257C70.3107 67.8574 70.3687 67.7674 70.3979 67.6668C70.5112 67.2668 70.3712 66.9267 69.9778 66.6467C69.9066 66.597 69.8198 66.5746 69.7334 66.5838C69.6471 66.593 69.567 66.6331 69.5079 66.6968Z" stroke="#A8ADAE" stroke-width="2"/>
<path d="M24.7578 71.3667C24.7178 70.56 24.3412 70.1233 23.6278 70.0567C23.1612 70.01 23.0412 70.1933 23.2678 70.6067C23.5012 71.0133 23.8044 71.3667 24.1777 71.6667C24.5911 71.9933 24.7845 71.8933 24.7578 71.3667Z" stroke="#A8ADAE" stroke-width="2"/>
<path d="M84.8269 72.6847C84.7566 72.5071 84.5902 72.3761 84.3644 72.3203C84.1386 72.2644 83.8718 72.2885 83.6228 72.3871C83.3737 72.4857 83.1628 72.6508 83.0364 72.846C82.91 73.0413 82.8785 73.2507 82.9487 73.4283C83.019 73.6058 83.1853 73.7369 83.4111 73.7927C83.6369 73.8485 83.9038 73.8245 84.1528 73.7259C84.4019 73.6273 84.6127 73.4622 84.7391 73.2669C84.8655 73.0717 84.8972 72.8622 84.8269 72.6847Z" stroke="#A8ADAE" stroke-width="2"/>
<path d="M74.0476 75.4465C74.2343 75.2931 74.2876 75.0998 74.2076 74.8665C74.1743 74.7465 74.0977 74.6631 73.9777 74.6165C73.6443 74.4898 73.391 74.4731 73.2177 74.5665C73.1464 74.605 73.0847 74.6591 73.0372 74.7247C72.9897 74.7903 72.9575 74.8657 72.9431 74.9454C72.9287 75.0251 72.9324 75.107 72.954 75.1851C72.9755 75.2632 73.0144 75.3354 73.0676 75.3965C73.361 75.7231 73.6876 75.7398 74.0476 75.4465Z" stroke="#A8ADAE" stroke-width="2"/>
<path d="M43.1276 75.8468C42.7343 75.8068 42.4343 75.9568 42.2276 76.2968C42.0076 76.6568 42.1077 76.8034 42.5277 76.7368C43.4943 76.5901 44.2109 76.1068 44.6776 75.2868C44.8376 75.0134 44.771 74.9401 44.4776 75.0668C44.251 75.1601 44.0709 75.3034 43.9376 75.4968C43.7376 75.7701 43.4676 75.8868 43.1276 75.8468Z" stroke="#A8ADAE" stroke-width="2"/>
<path d="M59.8173 79.6604C59.9593 79.5674 60.0049 79.3399 59.9441 79.0278C59.8833 78.7157 59.721 78.3447 59.493 77.9963C59.2651 77.6479 58.9899 77.3507 58.7283 77.17C58.4666 76.9893 58.2398 76.9401 58.0978 77.033C57.9558 77.126 57.9103 77.3535 57.9711 77.6656C58.0319 77.9777 58.194 78.3487 58.422 78.6971C58.65 79.0455 58.9251 79.3427 59.1868 79.5234C59.4484 79.704 59.6752 79.7533 59.8173 79.6604Z" stroke="#A8ADAE" stroke-width="2"/>
<path d="M31.9675 79.7265C32.0875 79.6598 32.1076 79.5732 32.0276 79.4665C31.8809 79.2532 31.6775 79.1932 31.4175 79.2865C31.2708 79.3398 31.1208 79.3832 30.9675 79.4165C30.5875 79.5098 30.3475 79.7398 30.2475 80.1065C30.1142 80.6132 30.2742 80.7332 30.7275 80.4665L31.9675 79.7265Z" stroke="#63696A" stroke-width="2"/>
<path d="M50.8587 80.1758C50.8356 80.1345 50.7952 80.1035 50.7396 80.0845C50.6841 80.0654 50.6147 80.0588 50.5352 80.065C50.4556 80.0711 50.3676 80.0899 50.2761 80.1203C50.1847 80.1507 50.0916 80.192 50.0022 80.242C49.9128 80.292 49.8288 80.3496 49.755 80.4115C49.6812 80.4735 49.6191 80.5386 49.5722 80.6031C49.5252 80.6676 49.4944 80.7303 49.4815 80.7875C49.4685 80.8448 49.4738 80.8955 49.4968 80.9368C49.5199 80.9781 49.5603 81.0091 49.6159 81.0281C49.6714 81.0471 49.7409 81.0538 49.8204 81.0476C49.9 81.0415 49.988 81.0226 50.0795 80.9923C50.1709 80.9619 50.264 80.9206 50.3534 80.8706C50.4428 80.8206 50.5268 80.763 50.6006 80.701C50.6744 80.6391 50.7365 80.574 50.7835 80.5095C50.8304 80.4449 50.8611 80.3823 50.874 80.325C50.8869 80.2678 50.8817 80.217 50.8587 80.1758Z" stroke="#63696A" stroke-width="2"/>
<path d="M22.0276 81.5164C22.0854 81.5585 22.1524 81.5862 22.2229 81.5972C22.2934 81.6081 22.3653 81.602 22.4322 81.5794C22.4992 81.5567 22.5593 81.5182 22.6073 81.4671C22.6553 81.4161 22.6897 81.3541 22.7075 81.2864C22.7875 81.0198 22.7842 80.7564 22.6975 80.4964C22.6697 80.4091 22.6181 80.3314 22.5483 80.272C22.4786 80.2126 22.3936 80.1739 22.303 80.1604C22.2124 80.1469 22.1198 80.159 22.0358 80.1954C21.9517 80.2318 21.8796 80.2911 21.8275 80.3664C21.5208 80.8064 21.5876 81.1897 22.0276 81.5164Z" stroke="#A8ADAE" stroke-width="2"/>
<path d="M28.1916 82.2071C28.2421 82.1651 28.2756 82.1038 28.2904 82.0267C28.3051 81.9497 28.3007 81.8584 28.2776 81.758C28.2544 81.6577 28.2128 81.5502 28.1553 81.4419C28.0977 81.3335 28.0252 81.2263 27.942 81.1264C27.7739 80.9247 27.5723 80.765 27.3815 80.6824C27.1906 80.5998 27.0261 80.6011 26.9242 80.6859C26.8737 80.728 26.8402 80.7893 26.8254 80.8663C26.8107 80.9434 26.8149 81.0347 26.8381 81.135C26.8613 81.2354 26.9028 81.3428 26.9604 81.4512C27.018 81.5596 27.0906 81.6667 27.1738 81.7666C27.3419 81.9683 27.5435 82.1281 27.7344 82.2107C27.9252 82.2933 28.0898 82.292 28.1916 82.2071Z" stroke="#A8ADAE" stroke-width="2"/>
<path d="M14.4579 81.3465C14.2445 81.5598 14.1545 81.8298 14.1878 82.1565C14.1964 82.2404 14.2279 82.3203 14.2788 82.3876C14.3297 82.4548 14.3982 82.5067 14.4767 82.5377C14.5551 82.5687 14.6405 82.5775 14.7236 82.5631C14.8067 82.5488 14.8843 82.5119 14.9479 82.4565C15.3279 82.1298 15.3645 81.7732 15.0578 81.3865C15.0223 81.3426 14.9781 81.3066 14.928 81.2806C14.8778 81.2546 14.8229 81.2393 14.7666 81.2355C14.7103 81.2318 14.6538 81.2397 14.6007 81.2588C14.5476 81.2779 14.4989 81.3077 14.4579 81.3465Z" stroke="#A8ADAE" stroke-width="2"/>
<path d="M40.8578 82.5864C40.9061 82.6331 40.9651 82.6676 41.0294 82.6868C41.0938 82.706 41.1616 82.7093 41.2268 82.6964C41.292 82.6836 41.3527 82.655 41.4034 82.6131C41.4542 82.5712 41.4935 82.5174 41.5178 82.4564C41.6845 82.0564 41.6111 81.6997 41.2977 81.3864C41.2286 81.3157 41.1398 81.2676 41.0428 81.2484C40.9459 81.2291 40.8453 81.2397 40.7544 81.2786C40.6635 81.3176 40.5866 81.3831 40.5337 81.4666C40.4807 81.5501 40.4543 81.6476 40.4578 81.7464C40.4644 82.0597 40.5978 82.3397 40.8578 82.5864Z" stroke="#A8ADAE" stroke-width="2"/>
<path d="M50.5476 83.5266C50.5342 83.6121 50.5497 83.6995 50.5916 83.774C50.6334 83.8486 50.6991 83.9059 50.7777 83.9366C51.2044 84.1032 51.591 83.9066 51.9376 83.3466C51.9747 83.2846 51.9982 83.2155 52.0066 83.1436C52.015 83.0717 52.0082 82.9986 51.9866 82.929C51.965 82.8594 51.929 82.7948 51.881 82.7393C51.833 82.6838 51.7739 82.6386 51.7077 82.6066C51.1077 82.3199 50.721 82.6266 50.5476 83.5266Z" stroke="#A8ADAE" stroke-width="2"/>
<path d="M35.8821 85.4579C35.8675 85.3939 35.8373 85.3341 35.7934 85.2819C35.7494 85.2297 35.6926 85.1862 35.6261 85.1537C35.5596 85.1213 35.4848 85.1007 35.4059 85.093C35.327 85.0853 35.2454 85.0907 35.166 85.1089C35.0867 85.127 35.011 85.1576 34.9433 85.1989C34.8755 85.2402 34.8171 85.2914 34.7714 85.3495C34.7256 85.4076 34.6934 85.4715 34.6765 85.5376C34.6597 85.6037 34.6586 85.6707 34.6732 85.7347C34.6879 85.7987 34.7181 85.8585 34.762 85.9107C34.8059 85.9628 34.8627 86.0064 34.9292 86.0388C34.9957 86.0712 35.0705 86.0919 35.1494 86.0996C35.2284 86.1073 35.3099 86.1018 35.3893 86.0837C35.4687 86.0655 35.5444 86.0349 35.6121 85.9936C35.6798 85.9523 35.7382 85.9012 35.784 85.8431C35.8297 85.785 35.862 85.721 35.8788 85.6549C35.8956 85.5888 35.8968 85.5219 35.8821 85.4579Z" stroke="#63696A" stroke-width="2"/>
<path d="M45.0279 53.2666C45.0279 52.4843 44.717 51.7339 44.1638 51.1807C43.6105 50.6274 42.8602 50.3167 42.0778 50.3167C41.2954 50.3167 40.5451 50.6274 39.9919 51.1807C39.4387 51.7339 39.1279 52.4843 39.1279 53.2666C39.1279 54.049 39.4387 54.7994 39.9919 55.3526C40.5451 55.9058 41.2954 56.2166 42.0778 56.2166C42.8602 56.2166 43.6105 55.9058 44.1638 55.3526C44.717 54.7994 45.0279 54.049 45.0279 53.2666Z" stroke="#848686" stroke-width="2"/>
<path d="M63.3477 51.2564C62.7931 51.8319 62.4874 52.6025 62.4967 53.4017C62.5061 54.2008 62.8298 54.9641 63.3977 55.5264C63.7395 55.8623 64.1553 56.1133 64.6117 56.2591C65.0681 56.4048 65.5521 56.4411 66.0244 56.3652C66.4968 56.2892 66.9442 56.103 67.3305 55.8218C67.7167 55.5406 68.031 55.1722 68.2477 54.7464C68.5539 54.1415 68.6502 53.4522 68.5216 52.7876C68.3931 52.123 68.0468 51.5209 67.5376 51.0764" stroke="#848686" stroke-width="2"/>
<path d="M67.5375 51.0766C66.9509 50.5639 66.1891 50.2967 65.4094 50.3302C64.6297 50.3637 63.8916 50.6953 63.3476 51.2567" stroke="#C9CACA" stroke-width="2"/>
<path d="M67.5375 51.0764C66.1175 50.7097 64.7209 50.7698 63.3476 51.2564" stroke="#4D5151" stroke-width="2"/>
<path d="M91.1078 79.3866C90.6412 80.22 91.0978 80.8233 92.4778 81.1966C92.9712 81.9366 93.6445 82.58 94.4979 83.1266C94.7579 83.2933 94.8912 83.53 94.8979 83.8366C94.9379 85.0233 95.4145 86.1533 96.3278 87.2266C96.3802 87.2873 96.4145 87.3615 96.4269 87.4407C96.4394 87.5198 96.4295 87.6009 96.3983 87.6748C96.3671 87.7486 96.3159 87.8122 96.2504 87.8585C96.185 87.9048 96.1079 87.9318 96.0279 87.9366C90.6079 88.2566 85.4245 88.1966 80.4778 87.7566C77.1278 87.4566 73.8579 87.8066 70.4979 87.5766C70.1764 87.5503 69.8662 87.44 69.5978 87.2566C68.8312 86.7233 68.0378 86.6666 67.2178 87.0866C66.9312 87.2333 66.6245 87.3166 66.2978 87.3366L56.8278 87.9266C56.2612 87.3 55.3445 87.1033 54.0778 87.3366L43.2978 87.0166C41.5045 86.91 40.1244 87.05 39.1578 87.4366C32.8244 86.8766 26.3445 86.78 19.7178 87.1466C18.6045 87.2133 17.3478 87.0633 15.9478 86.6966C15.7811 86.35 15.5378 86.1933 15.2178 86.2266C14.7312 86.2733 14.4012 86.4666 14.2278 86.8066C11.8478 87.34 9.45446 87.1766 7.04779 86.3166C6.67446 85.2033 6.19452 85.4133 5.60785 86.9466C5.01452 86.78 4.38116 86.7666 3.70782 86.9066C3.30782 86.36 2.59448 86.04 1.56781 85.9466C1.88114 83.8266 2.79781 81.8066 4.31781 79.8866L5.35785 79.8666C5.45179 79.8669 5.54368 79.8396 5.62225 79.7881C5.70083 79.7367 5.7626 79.6633 5.79987 79.577C5.83713 79.4908 5.84833 79.3955 5.83197 79.303C5.81561 79.2105 5.77241 79.1249 5.70782 79.0566C5.56116 78.89 5.39783 78.84 5.21783 78.9066C7.73783 75.2866 9.67782 71.2266 12.7078 68.0266C13.0078 68.18 13.1945 68.25 13.2679 68.2366C13.4115 68.2194 13.5467 68.1612 13.6579 68.0689C13.7691 67.9767 13.8515 67.8541 13.8956 67.7156C13.9396 67.5771 13.9435 67.4284 13.9067 67.2869C13.8699 67.1454 13.794 67.017 13.6878 66.9166C13.6411 66.87 13.4644 66.8533 13.1578 66.8666L21.9178 53.7766C22.0445 53.59 22.2078 53.44 22.4078 53.3266C22.6744 53.1733 22.8279 52.95 22.8679 52.6566C22.9079 52.33 23.0212 52.0266 23.2078 51.7466C23.7612 50.9 24.3246 50.0666 24.8979 49.2466C25.4079 48.5166 26.7478 47.9466 26.8278 46.5866C26.8478 46.26 26.9778 45.9866 27.2178 45.7666C28.2312 44.8533 28.9611 43.81 29.4078 42.6366C29.8278 41.53 30.3912 40.51 31.0978 39.5766C32.7778 37.3766 33.9578 34.6866 35.2978 32.6866C40.2245 25.3066 45.0111 18.18 49.6578 11.3066C49.9511 10.88 50.2978 10.51 50.6978 10.1966C51.3111 10.5766 51.8545 10.5266 52.3278 10.0466C52.4585 9.91017 52.5305 9.72764 52.5286 9.53742C52.5268 9.3472 52.4512 9.16411 52.3178 9.02664C52.0578 8.76664 51.8245 8.71331 51.6179 8.86664L55.8178 2.10664C55.9037 1.97201 56.0254 1.86396 56.1693 1.7946C56.3131 1.72523 56.4734 1.69728 56.6323 1.71389C56.7911 1.7305 56.9422 1.79101 57.0685 1.88864C57.1949 1.98626 57.2916 2.11715 57.3478 2.26664C57.9678 3.94664 58.8045 5.58664 59.8578 7.18664C61.0178 8.93997 61.8045 10.7566 62.2178 12.6366C62.5478 14.1166 63.4878 14.9866 63.8278 16.5866C64.3078 18.8266 65.6478 20.9966 66.3078 22.6966C67.7145 26.35 69.2145 29.9666 70.8078 33.5466C70.9678 33.8933 71.3746 35 72.0279 36.8666C72.4146 37.9866 72.8512 39.0966 73.3378 40.1966C75.4245 44.93 77.0978 49.5866 78.3578 54.1666C78.4841 54.6251 78.662 55.068 78.8879 55.4866C80.1545 57.8266 81.4745 60.1233 82.8478 62.3766C84.0612 64.3566 85.1512 66.44 86.1179 68.6266C86.9712 70.5533 88.2112 72.61 89.8378 74.7966C90.8778 76.1833 91.3012 77.7133 91.1078 79.3866ZM43.5478 22.4066C43.4863 22.392 43.4221 22.3943 43.3619 22.4132C43.3016 22.4322 43.2475 22.4671 43.2055 22.5142C43.1635 22.5614 43.135 22.6191 43.1231 22.6811C43.1112 22.7432 43.1163 22.8073 43.1379 22.8666C43.3112 23.3333 43.6845 23.6 44.2579 23.6666C44.3268 23.6749 44.3967 23.6636 44.4595 23.634C44.5224 23.6045 44.5757 23.5578 44.6132 23.4994C44.6508 23.4409 44.6711 23.3731 44.6719 23.3037C44.6728 23.2342 44.654 23.1659 44.6179 23.1066C44.4045 22.7533 44.0478 22.52 43.5478 22.4066ZM44.5778 29.9966C44.0778 29.6566 43.6712 29.7566 43.3578 30.2966C43.315 30.3702 43.2898 30.4528 43.2842 30.5378C43.2787 30.6228 43.2929 30.7079 43.3259 30.7864C43.3588 30.8649 43.4096 30.9347 43.4742 30.9903C43.5387 31.0459 43.6153 31.0857 43.6978 31.1066C43.8711 31.1466 44.0445 31.17 44.2178 31.1766C45.6512 31.19 45.7712 30.7966 44.5778 29.9966ZM50.8879 36.0666C50.8664 36.0391 50.8386 36.0171 50.8068 36.0023C50.775 35.9875 50.7399 35.9803 50.7043 35.9813C50.6686 35.9822 50.6333 35.9913 50.601 36.0078C50.5687 36.0244 50.5403 36.0479 50.5179 36.0766C50.2245 36.49 50.1645 36.97 50.3378 37.5166C50.3677 37.6127 50.427 37.697 50.5074 37.7575C50.5877 37.818 50.685 37.8518 50.7856 37.854C50.8862 37.8562 50.985 37.8268 51.0679 37.7698C51.1509 37.7129 51.2138 37.6313 51.2479 37.5366C51.4212 37.0633 51.3012 36.5733 50.8879 36.0666ZM34.5678 41.9966C34.6245 41.9431 34.668 41.8772 34.6948 41.8038C34.7215 41.7304 34.7309 41.6516 34.7222 41.5734C34.7135 41.4952 34.6869 41.4197 34.6446 41.3526C34.6022 41.2856 34.5452 41.2288 34.4778 41.1866C33.9245 40.8533 33.5745 40.9633 33.4278 41.5166C33.4011 41.6138 33.4051 41.7168 33.4391 41.8116C33.4731 41.9065 33.5355 41.9885 33.6179 42.0466C33.9645 42.2866 34.2811 42.27 34.5678 41.9966ZM48.8779 43.2866C48.9379 43.5533 49.0478 43.7966 49.2078 44.0166C49.4812 44.4166 49.6778 44.38 49.7978 43.9066C49.8845 43.5666 49.8911 43.2366 49.8178 42.9166C49.7645 42.67 49.6078 42.5433 49.3478 42.5366C49.2345 42.5366 49.1378 42.5766 49.0578 42.6566C48.8778 42.83 48.8179 43.04 48.8779 43.2866ZM32.4078 62.5766C32.5011 62.8433 32.6845 63.01 32.9578 63.0766C39.0312 64.5233 44.0245 63.1433 47.9378 58.9366C48.5978 58.2233 48.9945 57.3333 49.1279 56.2666C49.8979 50.3166 47.9279 45.0166 41.6479 43.3366C35.4679 41.6766 30.9378 43.7233 28.0578 49.4766C27.8045 49.9833 27.6679 50.5266 27.6479 51.1066C27.5979 52.8366 27.0879 54.1066 27.7779 55.7666C28.6479 57.8566 30.0478 60.9266 31.9478 62.0366C32.1678 62.1633 32.3211 62.3433 32.4078 62.5766ZM72.503 51.9281C72.4184 50.7177 72.0962 49.5357 71.5547 48.4498C71.0133 47.3639 70.2634 46.3952 69.3476 45.5992C68.4318 44.8031 67.3682 44.1952 66.2175 43.8101C65.0668 43.4251 63.8515 43.2705 62.6411 43.3551L59.6085 43.5672C58.398 43.6519 57.216 43.9741 56.1301 44.5155C55.0441 45.0569 54.0756 45.8069 53.2795 46.7227C52.4834 47.6385 51.8754 48.7021 51.4904 49.8528C51.1054 51.0035 50.9508 52.2188 51.0355 53.4292L51.1526 55.1051C51.2373 56.3156 51.5595 57.4975 52.1009 58.5835C52.6423 59.6694 53.3924 60.6381 54.3082 61.4341C55.2239 62.2302 56.2875 62.8381 57.4382 63.2231C58.5889 63.6082 59.8041 63.7628 61.0146 63.6781L64.0472 63.466C65.2576 63.3814 66.4396 63.0592 67.5256 62.5178C68.6115 61.9763 69.5802 61.2263 70.3763 60.3106C71.1724 59.3948 71.7802 58.3312 72.1652 57.1805C72.5502 56.0298 72.7048 54.8145 72.6202 53.604L72.503 51.9281ZM22.5543 59.7115C22.5907 59.6507 22.6106 59.5807 22.6127 59.5057C22.6149 59.4306 22.5993 59.3519 22.5668 59.2741C22.5344 59.1962 22.4858 59.1208 22.4238 59.052C22.3617 58.9832 22.2874 58.9225 22.2051 58.8732C22.1229 58.824 22.0342 58.7872 21.9443 58.765C21.8543 58.7429 21.7649 58.7357 21.681 58.7439C21.5971 58.7521 21.5204 58.7756 21.4553 58.8129C21.3901 58.8503 21.3379 58.9009 21.3015 58.9617C21.265 59.0226 21.2451 59.0925 21.243 59.1676C21.2408 59.2427 21.2563 59.3214 21.2888 59.3992C21.3212 59.4771 21.3699 59.5525 21.4319 59.6213C21.494 59.6901 21.5683 59.7508 21.6506 59.8C21.7328 59.8493 21.8214 59.886 21.9113 59.9082C22.0013 59.9304 22.0908 59.9376 22.1747 59.9294C22.2587 59.9212 22.3353 59.8977 22.4005 59.8603C22.4656 59.8229 22.5178 59.7724 22.5543 59.7115ZM32.5201 64.0288C32.5972 63.905 32.6012 63.7428 32.5316 63.5779C32.4619 63.4131 32.324 63.259 32.1484 63.1497C31.9728 63.0404 31.7738 62.9848 31.5952 62.995C31.4165 63.0053 31.2727 63.0806 31.1956 63.2044C31.1185 63.3283 31.1145 63.4905 31.1841 63.6553C31.2538 63.8202 31.3916 63.9742 31.5672 64.0835C31.7428 64.1929 31.9419 64.2485 32.1205 64.2382C32.2992 64.228 32.443 64.1527 32.5201 64.0288ZM69.5079 66.6966C69.2012 67.03 69.1711 67.3966 69.4178 67.7966C69.4722 67.8862 69.5516 67.958 69.6462 68.0032C69.7407 68.0484 69.8464 68.0652 69.9503 68.0514C70.0542 68.0376 70.1518 67.9939 70.2313 67.9256C70.3107 67.8573 70.3687 67.7673 70.3979 67.6666C70.5112 67.2666 70.3712 66.9266 69.9778 66.6466C69.9067 66.5969 69.8198 66.5745 69.7335 66.5837C69.6471 66.5929 69.567 66.633 69.5079 66.6966ZM24.7579 71.3666C24.7179 70.56 24.3412 70.1233 23.6279 70.0566C23.1612 70.01 23.0412 70.1933 23.2679 70.6066C23.5012 71.0133 23.8045 71.3666 24.1778 71.6666C24.5911 71.9933 24.7845 71.8933 24.7579 71.3666ZM84.827 72.6848C84.7567 72.5073 84.5902 72.3762 84.3644 72.3204C84.1386 72.2646 83.8719 72.2886 83.6229 72.3872C83.3738 72.4858 83.1629 72.6509 83.0364 72.8462C82.91 73.0414 82.8785 73.2509 82.9488 73.4284C83.0191 73.606 83.1854 73.7371 83.4112 73.7929C83.637 73.8487 83.9038 73.8246 84.1529 73.726C84.4019 73.6274 84.6128 73.4623 84.7392 73.2671C84.8656 73.0718 84.8972 72.8624 84.827 72.6848ZM74.0478 75.4466C74.2345 75.2933 74.2878 75.1 74.2078 74.8666C74.1745 74.7466 74.0978 74.6633 73.9778 74.6166C73.6445 74.49 73.3912 74.4733 73.2178 74.5666C73.1466 74.6052 73.0849 74.6592 73.0374 74.7248C72.9899 74.7904 72.9577 74.8659 72.9433 74.9456C72.9289 75.0253 72.9326 75.1072 72.9542 75.1853C72.9757 75.2634 73.0146 75.3356 73.0678 75.3966C73.3611 75.7233 73.6878 75.74 74.0478 75.4466ZM43.1279 75.8466C42.7345 75.8066 42.4345 75.9566 42.2278 76.2966C42.0078 76.6566 42.1079 76.8033 42.5279 76.7366C43.4946 76.59 44.2111 76.1066 44.6778 75.2866C44.8378 75.0133 44.7712 74.94 44.4778 75.0666C44.2512 75.16 44.0711 75.3033 43.9378 75.4966C43.7378 75.77 43.4679 75.8866 43.1279 75.8466ZM59.8176 79.6603C59.9596 79.5674 60.0052 79.3398 59.9444 79.0277C59.8836 78.7157 59.7213 78.3446 59.4933 77.9962C59.2654 77.6478 58.9902 77.3506 58.7286 77.1699C58.4669 76.9893 58.2401 76.94 58.0981 77.0329C57.9561 77.1259 57.9106 77.3535 57.9714 77.6655C58.0322 77.9776 58.1943 78.3486 58.4223 78.697C58.6503 79.0455 58.9254 79.3427 59.1871 79.5233C59.4487 79.704 59.6755 79.7533 59.8176 79.6603ZM31.9678 79.7266C32.0878 79.66 32.1079 79.5733 32.0279 79.4666C31.8812 79.2533 31.6778 79.1933 31.4178 79.2866C31.2711 79.34 31.1212 79.3833 30.9678 79.4166C30.5878 79.51 30.3479 79.74 30.2479 80.1066C30.1145 80.6133 30.2745 80.7333 30.7278 80.4666L31.9678 79.7266ZM50.8587 80.1761C50.8357 80.1348 50.7952 80.1038 50.7397 80.0848C50.6842 80.0658 50.6148 80.0592 50.5352 80.0653C50.4557 80.0715 50.3676 80.0903 50.2762 80.1206C50.1847 80.151 50.0917 80.1924 50.0023 80.2423C49.9128 80.2923 49.8289 80.3499 49.7551 80.4119C49.6813 80.4738 49.6191 80.5389 49.5722 80.6035C49.5253 80.668 49.4944 80.7307 49.4815 80.7879C49.4686 80.8452 49.4738 80.8959 49.4969 80.9371C49.5199 80.9784 49.5604 81.0094 49.6159 81.0285C49.6714 81.0475 49.741 81.0541 49.8205 81.048C49.9 81.0418 49.9881 81.023 50.0795 80.9926C50.171 80.9623 50.264 80.9209 50.3535 80.8709C50.4429 80.821 50.5269 80.7634 50.6006 80.7014C50.6744 80.6394 50.7366 80.5743 50.7835 80.5098C50.8304 80.4453 50.8612 80.3826 50.8741 80.3254C50.887 80.2681 50.8818 80.2174 50.8587 80.1761ZM22.0279 81.5166C22.0857 81.5587 22.1527 81.5864 22.2232 81.5974C22.2937 81.6084 22.3656 81.6022 22.4326 81.5796C22.4995 81.5569 22.5596 81.5184 22.6076 81.4674C22.6556 81.4163 22.69 81.3543 22.7078 81.2866C22.7878 81.02 22.7845 80.7566 22.6978 80.4966C22.67 80.4094 22.6184 80.3316 22.5486 80.2722C22.4789 80.2128 22.3939 80.1742 22.3033 80.1606C22.2127 80.1471 22.1201 80.1592 22.0361 80.1956C21.952 80.232 21.8799 80.2913 21.8278 80.3666C21.5212 80.8066 21.5879 81.19 22.0279 81.5166ZM28.1916 82.2072C28.242 82.1652 28.2756 82.1039 28.2903 82.0269C28.3051 81.9498 28.3007 81.8585 28.2775 81.7581C28.2543 81.6578 28.2128 81.5503 28.1552 81.442C28.0976 81.3336 28.0252 81.2264 27.942 81.1265C27.7739 80.9248 27.5723 80.7651 27.3814 80.6825C27.1905 80.5999 27.026 80.6012 26.9241 80.686C26.8737 80.7281 26.8401 80.7894 26.8254 80.8664C26.8106 80.9435 26.8149 81.0348 26.8381 81.1351C26.8613 81.2355 26.9028 81.3429 26.9604 81.4513C27.018 81.5597 27.0905 81.6669 27.1738 81.7667C27.3418 81.9684 27.5434 82.1282 27.7343 82.2108C27.9252 82.2934 28.0897 82.2921 28.1916 82.2072ZM14.4578 81.3466C14.2445 81.56 14.1545 81.83 14.1878 82.1566C14.1964 82.2405 14.2278 82.3205 14.2787 82.3877C14.3297 82.4549 14.3982 82.5069 14.4766 82.5379C14.5551 82.5688 14.6405 82.5776 14.7236 82.5633C14.8067 82.549 14.8843 82.5121 14.9478 82.4566C15.3278 82.13 15.3645 81.7733 15.0578 81.3866C15.0223 81.3428 14.978 81.3067 14.9279 81.2807C14.8778 81.2548 14.8229 81.2394 14.7665 81.2357C14.7102 81.2319 14.6538 81.2398 14.6006 81.2589C14.5475 81.278 14.4989 81.3079 14.4578 81.3466ZM40.8578 82.5866C40.9062 82.6334 40.9651 82.6678 41.0295 82.687C41.0938 82.7062 41.1616 82.7095 41.2269 82.6967C41.2921 82.6838 41.3528 82.6552 41.4035 82.6133C41.4543 82.5715 41.4935 82.5177 41.5179 82.4566C41.6846 82.0566 41.6111 81.7 41.2978 81.3866C41.2287 81.316 41.1399 81.2678 41.0429 81.2486C40.9459 81.2294 40.8453 81.2399 40.7545 81.2789C40.6636 81.3178 40.5867 81.3833 40.5338 81.4668C40.4808 81.5503 40.4543 81.6479 40.4578 81.7466C40.4645 82.06 40.5979 82.34 40.8578 82.5866ZM50.5478 83.5266C50.5343 83.6122 50.5499 83.6995 50.5917 83.7741C50.6336 83.8487 50.6992 83.906 50.7779 83.9366C51.2046 84.1033 51.5911 83.9066 51.9378 83.3466C51.9749 83.2847 51.9983 83.2156 52.0068 83.1437C52.0152 83.0718 52.0084 82.9987 51.9868 82.9291C51.9651 82.8595 51.9292 82.7948 51.8812 82.7393C51.8331 82.6838 51.7741 82.6386 51.7078 82.6066C51.1078 82.32 50.7211 82.6266 50.5478 83.5266ZM35.8823 85.4582C35.8676 85.3942 35.8374 85.3344 35.7935 85.2822C35.7496 85.2301 35.6928 85.1865 35.6263 85.1541C35.5598 85.1217 35.485 85.1011 35.4061 85.0934C35.3271 85.0857 35.2456 85.0911 35.1662 85.1092C35.0868 85.1274 35.0111 85.158 34.9434 85.1993C34.8757 85.2406 34.8173 85.2917 34.7715 85.3498C34.7258 85.408 34.6935 85.4719 34.6767 85.538C34.6599 85.6041 34.6587 85.671 34.6734 85.735C34.6881 85.799 34.7182 85.8588 34.7621 85.911C34.8061 85.9632 34.8629 86.0067 34.9294 86.0392C34.9959 86.0716 35.0707 86.0922 35.1496 86.0999C35.2285 86.1076 35.3101 86.1022 35.3895 86.084C35.4688 86.0659 35.5445 86.0353 35.6122 85.994C35.68 85.9527 35.7384 85.9015 35.7841 85.8434C35.8299 85.7853 35.8621 85.7214 35.879 85.6553C35.8958 85.5892 35.8969 85.5222 35.8823 85.4582Z" fill="#F48697"/>
<path d="M51.6179 8.86633C51.8246 8.713 52.0578 8.76633 52.3178 9.02633C52.4512 9.1638 52.5268 9.34689 52.5287 9.53711C52.5305 9.72733 52.4585 9.90986 52.3279 10.0463C51.8545 10.5263 51.3112 10.5763 50.6979 10.1963C50.6112 9.39632 50.9179 8.953 51.6179 8.86633Z" fill="#929595"/>
<path d="M43.5476 22.4067C44.0476 22.5201 44.4043 22.7534 44.6177 23.1067C44.6538 23.166 44.6726 23.2343 44.6717 23.3038C44.6709 23.3732 44.6506 23.441 44.613 23.4994C44.5755 23.5579 44.5222 23.6045 44.4593 23.6341C44.3965 23.6637 44.3266 23.675 44.2577 23.6667C43.6843 23.6001 43.311 23.3334 43.1377 22.8667C43.1161 22.8074 43.111 22.7432 43.1229 22.6812C43.1348 22.6192 43.1633 22.5615 43.2053 22.5143C43.2473 22.4672 43.3014 22.4323 43.3617 22.4133C43.422 22.3944 43.4861 22.3921 43.5476 22.4067Z" fill="#929595"/>
<path d="M44.5779 29.9966C45.7712 30.7966 45.6512 31.1899 44.2179 31.1766C44.0446 31.1699 43.8712 31.1466 43.6979 31.1066C43.6153 31.0857 43.5388 31.0458 43.4743 30.9903C43.4097 30.9347 43.3589 30.8649 43.3259 30.7864C43.293 30.7078 43.2788 30.6227 43.2843 30.5377C43.2898 30.4527 43.315 30.3702 43.3579 30.2966C43.6713 29.7566 44.0779 29.6566 44.5779 29.9966Z" fill="#080D0D"/>
<path d="M50.8878 36.0667C51.3011 36.5733 51.4211 37.0633 51.2477 37.5367C51.2137 37.6313 51.1507 37.7129 51.0678 37.7698C50.9849 37.8268 50.886 37.8562 50.7855 37.854C50.6849 37.8518 50.5876 37.8181 50.5073 37.7575C50.4269 37.697 50.3676 37.6127 50.3377 37.5167C50.1644 36.97 50.2244 36.49 50.5178 36.0767C50.5402 36.0479 50.5686 36.0244 50.6009 36.0079C50.6332 35.9913 50.6685 35.9823 50.7042 35.9813C50.7398 35.9803 50.7749 35.9875 50.8067 36.0023C50.8385 36.0171 50.8662 36.0391 50.8878 36.0667Z" fill="#080D0D"/>
<path d="M34.5675 41.9968C34.2809 42.2701 33.9643 42.2867 33.6176 42.0467C33.5353 41.9887 33.4729 41.9066 33.4389 41.8118C33.4049 41.7169 33.4009 41.6139 33.4275 41.5168C33.5742 40.9634 33.9242 40.8534 34.4776 41.1867C34.5449 41.2289 34.602 41.2857 34.6443 41.3527C34.6867 41.4198 34.7133 41.4953 34.722 41.5735C34.7307 41.6517 34.7213 41.7306 34.6945 41.8039C34.6677 41.8773 34.6243 41.9433 34.5675 41.9968Z" fill="#929595"/>
<path d="M48.8779 43.2864C48.8179 43.0397 48.8779 42.8297 49.0579 42.6564C49.1379 42.5764 49.2346 42.5364 49.3479 42.5364C49.6079 42.543 49.7645 42.6697 49.8179 42.9164C49.8912 43.2364 49.8845 43.5664 49.7978 43.9064C49.6778 44.3797 49.4812 44.4164 49.2079 44.0164C49.0479 43.7964 48.9379 43.553 48.8779 43.2864Z" fill="#080D0D"/>
<path d="M31.9476 62.0366C30.0476 60.9266 28.6476 57.8566 27.7776 55.7666C27.0876 54.1066 27.5976 52.8366 27.6476 51.1066C27.6676 50.5266 27.8042 49.9833 28.0575 49.4766C30.9375 43.7233 35.4676 41.6766 41.6476 43.3366C47.9276 45.0166 49.8976 50.3166 49.1276 56.2666C48.9943 57.3333 48.5976 58.2233 47.9376 58.9366C44.0242 63.1433 39.0309 64.5233 32.9576 63.0766C32.6842 63.0099 32.5009 62.8433 32.4075 62.5766C32.3209 62.3433 32.1676 62.1633 31.9476 62.0366ZM45.0276 53.2666C45.0276 52.4842 44.7167 51.7339 44.1635 51.1806C43.6103 50.6274 42.86 50.3166 42.0776 50.3166C41.2952 50.3166 40.5449 50.6274 39.9916 51.1806C39.4384 51.7339 39.1276 52.4842 39.1276 53.2666C39.1276 54.049 39.4384 54.7993 39.9916 55.3526C40.5449 55.9058 41.2952 56.2166 42.0776 56.2166C42.86 56.2166 43.6103 55.9058 44.1635 55.3526C44.7167 54.7993 45.0276 54.049 45.0276 53.2666Z" fill="white"/>
<path d="M72.6199 53.6037C72.7045 54.8141 72.5499 56.0294 72.1649 57.1801C71.7799 58.3308 71.172 59.3944 70.376 60.3102C69.5799 61.226 68.6112 61.976 67.5253 62.5174C66.4393 63.0588 65.2573 63.381 64.0469 63.4657L61.0143 63.6778C59.8038 63.7624 58.5886 63.6078 57.4379 63.2228C56.2871 62.8377 55.2236 62.2299 54.3078 61.4338C53.3921 60.6377 52.642 59.669 52.1006 58.5831C51.5592 57.4972 51.237 56.3152 51.1523 55.1048L51.0351 53.4289C50.9505 52.2184 51.1051 51.0032 51.4901 49.8524C51.8751 48.7017 52.4831 47.6381 53.2792 46.7223C54.0752 45.8066 55.0438 45.0566 56.1297 44.5152C57.2157 43.9737 58.3977 43.6515 59.6081 43.5669L62.6407 43.3548C63.8512 43.2701 65.0664 43.4248 66.2172 43.8098C67.3679 44.1948 68.4315 44.8027 69.3473 45.5988C70.263 46.3949 71.013 47.3635 71.5544 48.4495C72.0958 49.5354 72.418 50.7173 72.5027 51.9278L72.6199 53.6037ZM63.3475 51.2563C62.7929 51.8317 62.4872 52.6024 62.4966 53.4015C62.5059 54.2007 62.8296 54.964 63.3976 55.5263C63.7393 55.8622 64.1552 56.1132 64.6116 56.2589C65.0679 56.4046 65.5519 56.441 66.0243 56.365C66.4967 56.2891 66.944 56.1029 67.3303 55.8217C67.7166 55.5404 68.0309 55.172 68.2475 54.7463C68.5537 54.1413 68.65 53.4521 68.5215 52.7874C68.3929 52.1228 68.0467 51.5207 67.5375 51.0763C66.9508 50.5635 66.189 50.2963 65.4093 50.3298C64.6296 50.3633 63.8916 50.695 63.3475 51.2563Z" fill="white"/>
<path d="M42.0778 56.2166C43.7071 56.2166 45.0279 54.8959 45.0279 53.2666C45.0279 51.6374 43.7071 50.3167 42.0778 50.3167C40.4486 50.3167 39.1279 51.6374 39.1279 53.2666C39.1279 54.8959 40.4486 56.2166 42.0778 56.2166Z" fill="#080D0D"/>
<path d="M67.5375 51.0766C66.1175 50.71 64.7209 50.77 63.3476 51.2567C63.8916 50.6953 64.6297 50.3637 65.4094 50.3302C66.1891 50.2967 66.9509 50.5639 67.5375 51.0766Z" fill="#929595"/>
<path d="M67.5376 51.0764C68.0468 51.5209 68.3931 52.123 68.5216 52.7876C68.6502 53.4522 68.5539 54.1415 68.2477 54.7464C68.031 55.1722 67.7167 55.5406 67.3305 55.8218C66.9442 56.103 66.4968 56.2892 66.0244 56.3652C65.5521 56.4411 65.0681 56.4048 64.6117 56.2591C64.1553 56.1133 63.7395 55.8623 63.3977 55.5264C62.8298 54.9641 62.5061 54.2008 62.4967 53.4017C62.4874 52.6025 62.7931 51.8318 63.3477 51.2564C64.721 50.7698 66.1176 50.7097 67.5376 51.0764Z" fill="#080D0D"/>
<path d="M21.6503 59.7999C21.9963 60.0069 22.4009 59.9673 22.554 59.7114C22.7072 59.4555 22.5509 59.0802 22.2049 58.8732C21.859 58.6661 21.4544 58.7057 21.3012 58.9616C21.1481 59.2176 21.3044 59.5928 21.6503 59.7999Z" fill="#929595"/>
<path d="M31.5672 64.0836C31.9329 64.3112 32.3595 64.2867 32.52 64.0288C32.6805 63.771 32.5142 63.3774 32.1485 63.1497C31.7827 62.9221 31.3561 62.9466 31.1956 63.2045C31.0351 63.4624 31.2015 63.856 31.5672 64.0836Z" fill="#929595"/>
<path d="M69.5079 66.6968C69.567 66.6331 69.6471 66.593 69.7334 66.5838C69.8198 66.5746 69.9066 66.597 69.9778 66.6467C70.3712 66.9267 70.5112 67.2668 70.3979 67.6668C70.3687 67.7674 70.3107 67.8574 70.2312 67.9257C70.1518 67.994 70.0541 68.0377 69.9502 68.0515C69.8463 68.0653 69.7407 68.0486 69.6462 68.0033C69.5516 67.9581 69.4722 67.8863 69.4178 67.7967C69.1711 67.3967 69.2012 67.0301 69.5079 66.6968Z" fill="#929595"/>
<path d="M13.1579 66.8665C13.4646 66.8532 13.6413 66.8698 13.6879 66.9165C13.7941 67.0168 13.87 67.1453 13.9068 67.2868C13.9436 67.4283 13.9398 67.577 13.8957 67.7155C13.8516 67.854 13.7692 67.9765 13.658 68.0688C13.5468 68.1611 13.4116 68.2192 13.268 68.2365C13.1947 68.2498 13.0079 68.1798 12.7079 68.0265C12.7546 67.6265 12.9046 67.2398 13.1579 66.8665Z" fill="#929595"/>
<path d="M24.7578 71.3667C24.7845 71.8933 24.5911 71.9933 24.1777 71.6667C23.8044 71.3667 23.5012 71.0133 23.2678 70.6067C23.0412 70.1933 23.1612 70.01 23.6278 70.0567C24.3412 70.1233 24.7178 70.56 24.7578 71.3667Z" fill="#929595"/>
<path d="M84.1527 73.7261C84.6713 73.5208 84.9731 73.0546 84.8267 72.6849C84.6803 72.3151 84.1412 72.1819 83.6226 72.3872C83.104 72.5926 82.8022 73.0588 82.9486 73.4285C83.095 73.7982 83.6341 73.9314 84.1527 73.7261Z" fill="#929595"/>
<path d="M74.0476 75.4465C73.6876 75.7398 73.361 75.7231 73.0676 75.3965C73.0144 75.3354 72.9755 75.2632 72.954 75.1851C72.9324 75.107 72.9287 75.0251 72.9431 74.9454C72.9575 74.8657 72.9897 74.7903 73.0372 74.7247C73.0847 74.6591 73.1464 74.605 73.2177 74.5665C73.391 74.4731 73.6443 74.4898 73.9777 74.6165C74.0977 74.6631 74.1743 74.7465 74.2076 74.8665C74.2876 75.0998 74.2343 75.2931 74.0476 75.4465Z" fill="#929595"/>
<path d="M43.9376 75.4968C44.0709 75.3034 44.251 75.1601 44.4776 75.0668C44.771 74.9401 44.8376 75.0134 44.6776 75.2868C44.2109 76.1068 43.4943 76.5901 42.5277 76.7368C42.1077 76.8034 42.0076 76.6568 42.2276 76.2968C42.4343 75.9568 42.7343 75.8068 43.1276 75.8468C43.4676 75.8868 43.7376 75.7701 43.9376 75.4968Z" fill="#929595"/>
<path d="M58.4223 78.697C58.8971 79.4225 59.5218 79.8538 59.8175 79.6603C60.1133 79.4667 59.9682 78.7216 59.4934 77.9961C59.0186 77.2705 58.394 76.8393 58.0982 77.0328C57.8024 77.2264 57.9476 77.9714 58.4223 78.697Z" fill="#929595"/>
<path d="M5.218 78.9067C5.398 78.8401 5.56133 78.8901 5.70799 79.0568C5.77258 79.125 5.81577 79.2106 5.83214 79.3031C5.8485 79.3956 5.83729 79.4909 5.80003 79.5771C5.76277 79.6634 5.701 79.7368 5.62242 79.7883C5.54384 79.8397 5.45196 79.867 5.35802 79.8668L4.31798 79.8868C4.29131 79.5001 4.59134 79.1734 5.218 78.9067Z" fill="#929595"/>
<path d="M31.9675 79.7265L30.7275 80.4665C30.2742 80.7332 30.1142 80.6132 30.2475 80.1065C30.3475 79.7398 30.5875 79.5098 30.9675 79.4165C31.1208 79.3832 31.2708 79.3398 31.4175 79.2865C31.6775 79.1932 31.8809 79.2532 32.0276 79.4665C32.1076 79.5732 32.0875 79.6598 31.9675 79.7265Z" fill="#080D0D"/>
<path d="M91.1075 79.3865C91.6942 79.8531 92.1508 80.4565 92.4775 81.1965C91.0975 80.8231 90.6408 80.2198 91.1075 79.3865Z" fill="#929595"/>
<path d="M50.3534 80.8708C50.7294 80.6606 50.9556 80.3496 50.8586 80.176C50.7616 80.0024 50.3781 80.0321 50.0021 80.2423C49.6261 80.4524 49.3999 80.7635 49.4969 80.9371C49.5939 81.1106 49.9773 81.0809 50.3534 80.8708Z" fill="#080D0D"/>
<path d="M22.0276 81.5164C21.5876 81.1897 21.5208 80.8064 21.8275 80.3664C21.8796 80.2911 21.9517 80.2318 22.0358 80.1954C22.1198 80.159 22.2124 80.1469 22.303 80.1604C22.3936 80.1739 22.4786 80.2126 22.5483 80.272C22.6181 80.3314 22.6697 80.4091 22.6975 80.4964C22.7842 80.7564 22.7875 81.0198 22.7075 81.2864C22.6897 81.3541 22.6553 81.4161 22.6073 81.4671C22.5593 81.5182 22.4992 81.5567 22.4322 81.5794C22.3653 81.602 22.2934 81.6081 22.2229 81.5972C22.1524 81.5862 22.0854 81.5585 22.0276 81.5164Z" fill="#929595"/>
<path d="M27.1735 81.7667C27.5235 82.1867 27.9792 82.384 28.1913 82.2072C28.4035 82.0305 28.2917 81.5466 27.9418 81.1266C27.5918 80.7065 27.1361 80.5093 26.9239 80.686C26.7117 80.8628 26.8235 81.3466 27.1735 81.7667Z" fill="#929595"/>
<path d="M14.4579 81.3465C14.4989 81.3077 14.5476 81.2779 14.6007 81.2588C14.6538 81.2397 14.7103 81.2318 14.7666 81.2355C14.8229 81.2393 14.8778 81.2546 14.928 81.2806C14.9781 81.3066 15.0223 81.3426 15.0578 81.3865C15.3645 81.7732 15.3279 82.1298 14.9479 82.4565C14.8843 82.5119 14.8067 82.5488 14.7236 82.5631C14.6405 82.5775 14.5551 82.5687 14.4767 82.5377C14.3982 82.5067 14.3297 82.4548 14.2788 82.3876C14.2279 82.3203 14.1964 82.2404 14.1878 82.1565C14.1545 81.8298 14.2445 81.5598 14.4579 81.3465Z" fill="#929595"/>
<path d="M40.8578 82.5864C40.5978 82.3397 40.4644 82.0597 40.4578 81.7464C40.4543 81.6476 40.4807 81.5501 40.5337 81.4666C40.5866 81.3831 40.6635 81.3176 40.7544 81.2786C40.8453 81.2397 40.9459 81.2291 41.0428 81.2484C41.1398 81.2676 41.2286 81.3157 41.2977 81.3864C41.6111 81.6997 41.6845 82.0564 41.5178 82.4564C41.4935 82.5174 41.4542 82.5712 41.4034 82.6131C41.3527 82.655 41.292 82.6836 41.2268 82.6964C41.1616 82.7093 41.0938 82.706 41.0294 82.6868C40.9651 82.6676 40.9061 82.6331 40.8578 82.5864Z" fill="#929595"/>
<path d="M50.5476 83.5266C50.721 82.6266 51.1077 82.3199 51.7077 82.6066C51.7739 82.6386 51.833 82.6838 51.881 82.7393C51.929 82.7948 51.965 82.8594 51.9866 82.929C52.0082 82.9986 52.015 83.0717 52.0066 83.1436C51.9982 83.2155 51.9747 83.2846 51.9376 83.3466C51.591 83.9066 51.2044 84.1032 50.7777 83.9366C50.6991 83.9059 50.6334 83.8486 50.5916 83.774C50.5497 83.6995 50.5342 83.6121 50.5476 83.5266Z" fill="#929595"/>
<path d="M35.3891 86.0837C35.7228 86.0072 35.9434 85.727 35.8818 85.4579C35.8201 85.1887 35.4996 85.0325 35.1658 85.1089C34.832 85.1853 34.6114 85.4655 34.6731 85.7347C34.7347 86.0039 35.0553 86.1601 35.3891 86.0837Z" fill="#080D0D"/>
<path d="M7.04779 86.3165C6.68112 87.1365 6.20118 87.3465 5.60785 86.9465C6.19452 85.4132 6.67446 85.2032 7.04779 86.3165Z" fill="#080D0D"/>
<path d="M1.56781 85.9465C2.59448 86.0399 3.30782 86.3599 3.70782 86.9065C2.56116 87.0065 1.84781 86.6865 1.56781 85.9465Z" fill="#929595"/>
<path d="M15.9474 86.6963C15.8408 87.1363 15.2675 87.173 14.2275 86.8063C14.4008 86.4663 14.7308 86.273 15.2175 86.2263C15.5375 86.193 15.7808 86.3496 15.9474 86.6963Z" fill="#929595"/>
<path d="M43.2979 87.0163L22.1679 106.766C22.0719 106.855 21.9448 106.903 21.8139 106.899C21.683 106.896 21.5588 106.841 21.468 106.746L15.6679 100.706C15.3346 100.353 15.3613 100.03 15.748 99.7363L16.3079 99.3263C16.5067 99.1769 16.7526 99.1046 16.9993 99.123C17.2461 99.1414 17.4768 99.2493 17.648 99.4263L21.618 103.526C21.6876 103.597 21.7819 103.637 21.8809 103.639C21.9799 103.641 22.0758 103.604 22.148 103.536L39.1579 87.4363C40.1246 87.0496 41.5046 86.9096 43.2979 87.0163Z" fill="#080D0D"/>
<path d="M54.0776 87.3364C55.3443 87.1031 56.261 87.2997 56.8276 87.9264L60.6277 96.2764C60.7628 96.5784 60.8326 96.9055 60.8326 97.2364C60.8326 97.5673 60.7628 97.8944 60.6277 98.1964L53.4576 114.156C53.191 114.743 53.361 115.146 53.9677 115.366L59.5077 117.386C59.6342 117.433 59.7487 117.507 59.8433 117.603C59.9378 117.699 60.01 117.815 60.0548 117.943C60.0996 118.071 60.116 118.207 60.1027 118.343C60.0893 118.478 60.0467 118.609 59.9777 118.726L59.6676 119.256C59.5618 119.435 59.3958 119.572 59.1985 119.641C59.0012 119.71 58.7851 119.709 58.5876 119.636L50.4176 116.566C50.0176 116.413 49.9076 116.143 50.0876 115.756L58.1277 97.9264C58.2374 97.6875 58.2942 97.4272 58.2942 97.1632C58.2942 96.8992 58.2374 96.6377 58.1277 96.3964L54.0776 87.3364Z" fill="#080D0D"/>
</svg>
