<svg width="82" height="122" viewBox="0 0 82 122" fill="none" xmlns="http://www.w3.org/2000/svg">
<path d="M47.0186 28.5583C46.7986 29.285 46.7653 29.8917 46.9186 30.3784" stroke="#784779" stroke-width="2"/>
<path d="M46.9185 30.3785C46.4852 30.7585 46.0385 30.6352 45.5785 30.0085" stroke="#784779" stroke-width="2"/>
<path d="M45.5783 30.0086C45.1117 29.0219 44.3783 28.4586 43.3783 28.3186" stroke="#784779" stroke-width="2"/>
<path d="M43.3781 28.3183C40.5781 26.2983 33.8182 24.2883 31.2382 27.9083" stroke="#784779" stroke-width="2"/>
<path d="M31.2386 27.9084C30.7052 28.0484 30.2419 28.4251 29.8485 29.0385" stroke="#784779" stroke-width="2"/>
<path d="M29.8485 29.0383C28.2285 31.6183 27.3519 33.3883 27.2185 34.3483C26.9319 36.4283 26.5885 38.745 26.1885 41.2983C26.1753 41.3844 26.139 41.4653 26.0833 41.5323C26.0277 41.5993 25.9549 41.6499 25.8727 41.6786C25.7904 41.7074 25.7019 41.7133 25.6167 41.6956C25.5314 41.6779 25.4525 41.6374 25.3885 41.5783C24.4152 40.685 23.3718 39.9017 22.2585 39.2283C17.7085 36.4783 11.1785 36.9483 8.84854 42.4583" stroke="#784779" stroke-width="2"/>
<path d="M8.8483 42.4583C8.4483 43.1249 8.18827 44.0016 8.06827 45.0883" stroke="#784779" stroke-width="2"/>
<path d="M8.06833 45.0886L6.14835 58.8886" stroke="#784779" stroke-width="2"/>
<path d="M6.14859 58.8884C6.00192 59.1551 5.93859 59.7384 5.95859 60.6384" stroke="#784779" stroke-width="2"/>
<path d="M5.95853 60.6384L5.09854 66.2184" stroke="#784779" stroke-width="2"/>
<path d="M5.0983 66.2185C5.1583 66.2985 5.14827 66.4819 5.06827 66.7685" stroke="#784779" stroke-width="2"/>
<path d="M5.06852 66.7683L3.55852 78.0683C3.55013 78.1264 3.55374 78.1855 3.56907 78.2422C3.5844 78.2988 3.61116 78.3517 3.64769 78.3976C3.68422 78.4435 3.72974 78.4814 3.78148 78.509C3.83322 78.5367 3.89007 78.5534 3.94853 78.5583L31.8685 80.5383" stroke="#784779" stroke-width="2"/>
<path d="M31.8684 80.5383L9.52842 103.638C9.21509 103.958 8.89841 103.962 8.57841 103.648L3.73845 98.9483C3.56585 98.7787 3.33261 98.6846 3.08928 98.6864C2.84594 98.6883 2.61206 98.786 2.4384 98.9583L2.20842 99.1883C2.10362 99.2954 2.02116 99.4223 1.96586 99.5616C1.91057 99.7009 1.88354 99.8498 1.88634 99.9996C1.88913 100.149 1.92172 100.297 1.98216 100.434C2.0426 100.571 2.12973 100.695 2.23845 100.798L8.83842 107.138C8.86934 107.17 8.90643 107.194 8.94749 107.211C8.98856 107.228 9.03275 107.236 9.0775 107.235C9.12224 107.234 9.16661 107.224 9.20799 107.206C9.24937 107.187 9.28691 107.161 9.3184 107.128L34.9184 80.7183" stroke="#784779" stroke-width="2"/>
<path d="M34.9184 80.7185L46.3484 81.4885" stroke="#784779" stroke-width="2"/>
<path d="M46.3485 81.4885L72.4685 108.419C72.5116 108.464 72.5632 108.5 72.6204 108.525C72.6775 108.55 72.7391 108.563 72.8014 108.564C72.8638 108.565 72.9257 108.553 72.9836 108.53C73.0415 108.507 73.0941 108.472 73.1385 108.428L79.7785 101.989C80.2119 101.562 80.2252 101.125 79.8186 100.678L79.3985 100.229C78.9919 99.7818 78.5752 99.7752 78.1485 100.208L73.3485 105.009C73.0752 105.289 72.8019 105.285 72.5285 104.999L49.8685 81.6985" stroke="#784779" stroke-width="2"/>
<path d="M49.8681 81.6985L65.8781 82.9185" stroke="#784779" stroke-width="2"/>
<path d="M65.8783 82.9185L71.5683 83.0085C71.9283 83.0151 72.1383 82.8385 72.1983 82.4785C72.245 82.1985 72.2117 81.9251 72.0984 81.6584" stroke="#784779" stroke-width="2"/>
<path d="M72.0982 81.6586L71.9882 68.5886" stroke="#784779" stroke-width="2"/>
<path d="M71.9884 68.5884C72.055 68.0618 72.0317 67.6684 71.9184 67.4084" stroke="#784779" stroke-width="2"/>
<path d="M71.9183 67.4082L71.8383 59.9182" stroke="#784779" stroke-width="2"/>
<path d="M71.8383 59.9182C72.1183 58.7115 72.1349 57.7748 71.8883 57.1082" stroke="#784779" stroke-width="2"/>
<path d="M71.8883 57.1084L71.8583 48.8684" stroke="#784779" stroke-width="2"/>
<path d="M71.8586 48.8684C71.9719 48.2417 71.9685 47.6651 71.8485 47.1384" stroke="#784779" stroke-width="2"/>
<path d="M71.8485 47.1384L71.8685 42.0984" stroke="#784779" stroke-width="2"/>
<path d="M71.8685 42.0984C72.0018 41.3651 71.9952 40.7118 71.8485 40.1384" stroke="#784779" stroke-width="2"/>
<path d="M71.8485 40.1385V36.4485" stroke="#784779" stroke-width="2"/>
<path d="M71.8485 36.4486L71.8285 35.0886" stroke="#784779" stroke-width="2"/>
<path d="M71.8283 35.0881L71.6083 31.1082" stroke="#784779" stroke-width="2"/>
<path d="M71.6083 31.1083L71.5683 29.7083" stroke="#784779" stroke-width="2"/>
<path d="M71.5685 29.7084C71.3485 26.3617 70.6685 23.1917 69.5285 20.1984C67.8485 15.7684 63.3985 14.3184 58.9185 13.7884C50.4185 12.7784 47.2585 21.6384 47.0185 28.5584" stroke="#784779" stroke-width="2"/>
<path d="M71.5685 29.7083L47.0185 28.5583" stroke="#784779" stroke-width="2"/>
<path d="M71.6084 31.1082L46.9184 30.3782" stroke="#784779" stroke-width="2"/>
<path d="M71.8281 35.0884L28.2181 34.8684C27.8714 34.8684 27.6248 35.0218 27.4781 35.3284C27.3648 35.5551 27.3614 35.8018 27.4681 36.0684C27.5126 36.1834 27.5908 36.2822 27.6926 36.3519C27.7943 36.4215 27.9148 36.4586 28.0381 36.4584L71.8481 36.4484" stroke="#784779" stroke-width="2"/>
<path d="M71.8485 40.1384C71.1485 40.2784 70.5885 40.5784 69.8985 40.6184C61.8119 41.0051 53.7285 41.4351 45.6485 41.9084C33.4619 42.6151 21.1952 42.7984 8.84854 42.4584" stroke="#784779" stroke-width="2"/>
<path d="M45.5785 30.0083L31.3385 29.7983C30.9985 29.7983 30.6952 29.695 30.4286 29.4883L29.8485 29.0383" stroke="#784779" stroke-width="2"/>
<path d="M71.8684 42.0982C71.2417 41.8915 69.8384 41.8515 67.6584 41.9782C58.1717 42.5249 49.0217 43.0415 40.2084 43.5282C29.8884 44.0882 20.2384 43.8982 10.0084 43.7882C9.92664 43.7885 9.84686 43.8111 9.77797 43.8535C9.70907 43.8959 9.65378 43.9564 9.61836 44.0282L9.35841 44.5282C9.23174 44.7815 9.30839 44.9215 9.58839 44.9482C15.8284 45.4682 20.5984 45.7815 23.8984 45.8882C37.4717 46.3482 52.6384 46.8349 69.3984 47.3482C70.1984 47.3749 71.0151 47.3049 71.8484 47.1382" stroke="#784779" stroke-width="2"/>
<path d="M71.8582 48.8686L8.88819 46.3186C8.55486 46.3053 8.31823 46.1486 8.17823 45.8486C8.0849 45.642 8.04819 45.3886 8.06819 45.0886" stroke="#784779" stroke-width="2"/>
<path d="M43.3781 28.3185C39.3315 28.7118 35.2849 28.5751 31.2382 27.9084" stroke="#784779" stroke-width="2"/>
<path d="M71.8885 57.1083L60.5185 56.5183C60.2185 56.5049 60.1351 56.6349 60.2685 56.9082L60.5485 57.4783C60.6093 57.6047 60.7093 57.708 60.8337 57.7729C60.958 57.8378 61.1001 57.8607 61.2385 57.8382C62.5718 57.6182 63.7752 57.6216 64.8485 57.8483C65.5285 57.9949 65.5285 58.1316 64.8485 58.2583L62.0285 58.7983C61.8885 58.8249 61.8252 58.9083 61.8385 59.0483L61.8585 59.3183C61.8662 59.4563 61.9274 59.5862 62.0298 59.681C62.1321 59.7759 62.2677 59.8286 62.4085 59.8283L71.8385 59.9183" stroke="#784779" stroke-width="2"/>
<path d="M71.9181 67.4086C68.3315 67.4286 65.6581 67.3453 63.8981 67.1586C63.6048 67.1253 63.2614 66.9353 62.8681 66.5886" stroke="#784779" stroke-width="2"/>
<path d="M62.8682 66.5885C62.9615 60.7752 60.3882 56.9585 55.1482 55.1385C53.7749 54.6585 51.1582 54.8385 47.2982 55.6785" stroke="#080D0D" stroke-width="2"/>
<path d="M47.2982 55.6785C44.1248 55.4051 41.0248 55.1818 37.9981 55.0085C33.7181 54.7685 29.5081 53.8885 25.0081 53.5285C20.4548 53.1618 15.6715 52.6052 10.6581 51.8585C9.71148 51.7185 8.77482 51.7518 7.84815 51.9585C7.48148 52.0385 7.37815 52.2485 7.53815 52.5885C7.65149 52.8418 7.85815 52.9852 8.15815 53.0185C14.5981 53.6985 19.9015 54.4285 24.0681 55.2085" stroke="#784779" stroke-width="2"/>
<path d="M24.0684 55.2083C21.8284 56.3016 20.1184 57.6249 18.9384 59.1783" stroke="#080D0D" stroke-width="2"/>
<path d="M18.9383 59.1786C18.765 59.0319 18.595 58.9119 18.4284 58.8186C18.2617 58.7253 18.065 58.6919 17.8383 58.7186C13.8717 59.1719 9.97501 59.2286 6.14835 58.8886" stroke="#784779" stroke-width="2"/>
<path d="M62.8681 66.5886C62.7147 66.9886 62.6314 67.592 62.6181 68.3986" stroke="#784779" stroke-width="2"/>
<path d="M62.6185 68.3984L61.7385 70.9785C61.5902 71.4078 61.2841 71.7649 60.8816 71.9781C60.4792 72.1914 60.0101 72.2451 59.5685 72.1284C54.4285 70.7684 49.1418 70.6818 43.7085 71.8684C43.4718 71.9206 43.225 71.8952 43.005 71.796C42.785 71.6968 42.6038 71.5293 42.4885 71.3185C40.5685 67.7318 40.5052 64.0118 42.2985 60.1584" stroke="#080D0D" stroke-width="2"/>
<path d="M35.0185 56.2585C36.1651 57.1385 36.9018 57.9885 37.2285 58.8085" stroke="#080D0D" stroke-width="2"/>
<path d="M38.5086 60.5984C39.3152 63.2251 39.2819 66.2284 38.4086 69.6084C38.0386 71.0484 37.2186 72.4484 35.5086 72.0184C30.8952 70.8651 25.9786 70.7617 20.7586 71.7084C20.4532 71.764 20.1381 71.7249 19.8557 71.5962C19.5732 71.4675 19.337 71.2554 19.1786 70.9884L17.3886 67.9284" stroke="#080D0D" stroke-width="2"/>
<path d="M17.3883 67.9285L17.0683 66.4885" stroke="#784779" stroke-width="2"/>
<path d="M17.0683 66.4883L18.6483 59.7283" stroke="#080D0D" stroke-width="2"/>
<path d="M18.6483 59.7285C18.8683 59.5285 18.965 59.3451 18.9383 59.1785" stroke="#784779" stroke-width="2"/>
<path d="M47.2982 55.6785L43.9482 57.4885C43.6549 57.6418 43.4349 57.8685 43.2882 58.1685L42.2982 60.1585" stroke="#784779" stroke-width="2"/>
<path d="M42.2982 60.1585C40.6582 59.7385 39.3949 59.8852 38.5082 60.5985" stroke="#784779" stroke-width="2"/>
<path d="M38.5084 60.5984C38.0617 60.365 37.6351 59.7683 37.2284 58.8083" stroke="#784779" stroke-width="2"/>
<path d="M37.2285 58.8085C38.9285 58.2885 40.7385 57.9719 42.6585 57.8586C42.8385 57.8452 42.9751 57.7952 43.0685 57.7085C43.1751 57.6019 43.2418 57.4852 43.2685 57.3586C43.3351 56.9852 43.1785 56.7886 42.7985 56.7686L35.0185 56.2585" stroke="#784779" stroke-width="2"/>
<path d="M35.0183 56.2585C31.6316 54.7918 27.9816 54.4418 24.0683 55.2085" stroke="#784779" stroke-width="2"/>
<path d="M18.6484 59.7283L5.9584 60.6383" stroke="#784779" stroke-width="2"/>
<path d="M62.6181 68.3982L71.9881 68.5882" stroke="#784779" stroke-width="2"/>
<path d="M72.0983 81.6584C70.0249 81.8718 67.9583 81.9751 65.8983 81.9684C65.6116 81.9618 65.6049 82.2785 65.8782 82.9185" stroke="#784779" stroke-width="2"/>
<path d="M49.8685 81.6985L46.3485 81.4885" stroke="#784779" stroke-width="2"/>
<path d="M34.9181 80.7184C34.1381 80.4651 33.1214 80.4051 31.8681 80.5384" stroke="#784779" stroke-width="2"/>
<path d="M5.06827 66.7683C5.18827 66.915 5.26163 67.0783 5.2883 67.2583C5.3283 67.545 5.49162 67.6916 5.77829 67.6983L17.3883 67.9283" stroke="#784779" stroke-width="2"/>
<path d="M17.0685 66.4885L5.09854 66.2185" stroke="#784779" stroke-width="2"/>
<path d="M30.7383 65.0884C30.7383 64.2954 30.4232 63.5349 29.8625 62.9742C29.3017 62.4134 28.5412 62.0984 27.7482 62.0984C26.9552 62.0984 26.1947 62.4134 25.634 62.9742C25.0733 63.5349 24.7582 64.2954 24.7582 65.0884C24.7582 65.8814 25.0733 66.6419 25.634 67.2026C26.1947 67.7634 26.9552 68.0784 27.7482 68.0784C28.5412 68.0784 29.3017 67.7634 29.8625 67.2026C30.4232 66.6419 30.7383 65.8814 30.7383 65.0884Z" stroke="#784779" stroke-width="2"/>
<path d="M54.4081 65.2786C54.4081 64.4829 54.0921 63.7199 53.5294 63.1573C52.9668 62.5946 52.2038 62.2786 51.4081 62.2786C50.6125 62.2786 49.8494 62.5946 49.2868 63.1573C48.7242 63.7199 48.4081 64.4829 48.4081 65.2786C48.4081 66.0742 48.7242 66.8373 49.2868 67.3999C49.8494 67.9625 50.6125 68.2786 51.4081 68.2786C52.2038 68.2786 52.9668 67.9625 53.5294 67.3999C54.0921 66.8373 54.4081 66.0742 54.4081 65.2786Z" stroke="#784779" stroke-width="2"/>
<path d="M71.5685 29.7084L47.0185 28.5584C47.2585 21.6384 50.4185 12.7784 58.9185 13.7884C63.3985 14.3184 67.8485 15.7684 69.5285 20.1984C70.6685 23.1917 71.3485 26.3617 71.5685 29.7084Z" fill="#784779"/>
<path d="M43.3781 28.3183C39.3315 28.7116 35.2849 28.575 31.2382 27.9083C33.8182 24.2883 40.5781 26.2983 43.3781 28.3183Z" fill="#784779"/>
<path d="M31.2386 27.9084C35.2852 28.5751 39.3318 28.7118 43.3785 28.3185C44.3785 28.4585 45.1119 29.0218 45.5785 30.0085L31.3385 29.7985C30.9985 29.7985 30.6952 29.6951 30.4286 29.4885L29.8485 29.0385C30.2419 28.4251 30.7052 28.0484 31.2386 27.9084Z" fill="#080D0D"/>
<path d="M47.0186 28.5583L71.5686 29.7083L71.6086 31.1084L46.9186 30.3784C46.7653 29.8917 46.7986 29.285 47.0186 28.5583Z" fill="#080D0D"/>
<path d="M29.8485 29.0383L30.4286 29.4883C30.6952 29.695 30.9985 29.7983 31.3385 29.7983L45.5785 30.0083C46.0385 30.635 46.4852 30.7583 46.9185 30.3783L71.6086 31.1083L71.8285 35.0883L28.2185 34.8683C27.8719 34.8683 27.6252 35.0217 27.4785 35.3283C27.3652 35.555 27.3619 35.8017 27.4685 36.0683C27.513 36.1833 27.5913 36.2822 27.693 36.3518C27.7948 36.4214 27.9153 36.4585 28.0385 36.4583L71.8485 36.4483V40.1383C71.1485 40.2783 70.5885 40.5783 69.8985 40.6183C61.8119 41.005 53.7285 41.435 45.6485 41.9083C33.4619 42.615 21.1952 42.7983 8.84854 42.4583C11.1785 36.9483 17.7085 36.4783 22.2585 39.2283C23.3718 39.9017 24.4152 40.685 25.3885 41.5783C25.4525 41.6374 25.5314 41.6779 25.6167 41.6956C25.7019 41.7133 25.7904 41.7074 25.8727 41.6786C25.9549 41.6499 26.0277 41.5993 26.0833 41.5323C26.139 41.4653 26.1753 41.3844 26.1885 41.2983C26.5885 38.745 26.9319 36.4283 27.2185 34.3483C27.3519 33.3883 28.2285 31.6183 29.8485 29.0383Z" fill="#784779"/>
<path d="M71.8281 35.0884L71.8481 36.4484L28.0381 36.4584C27.9148 36.4586 27.7943 36.4215 27.6926 36.3519C27.5908 36.2822 27.5126 36.1834 27.4681 36.0684C27.3614 35.8018 27.3648 35.5551 27.4781 35.3284C27.6248 35.0218 27.8714 34.8684 28.2181 34.8684L71.8281 35.0884Z" fill="#080D0D"/>
<path d="M71.8482 40.1384C71.9949 40.7118 72.0015 41.3651 71.8682 42.0984C71.2415 41.8918 69.8382 41.8518 67.6582 41.9784C58.1715 42.5251 49.0215 43.0417 40.2082 43.5284C29.8882 44.0884 20.2382 43.8984 10.0082 43.7884C9.92646 43.7887 9.84668 43.8113 9.77778 43.8537C9.70889 43.8961 9.6536 43.9566 9.61817 44.0284L9.35823 44.5284C9.23156 44.7817 9.30821 44.9218 9.58821 44.9484C15.8282 45.4684 20.5982 45.7818 23.8982 45.8884C37.4715 46.3484 52.6382 46.8351 69.3982 47.3484C70.1982 47.3751 71.0149 47.3051 71.8482 47.1384C71.9682 47.6651 71.9716 48.2417 71.8582 48.8684L8.88819 46.3184C8.55486 46.3051 8.31823 46.1484 8.17823 45.8484C8.0849 45.6418 8.04819 45.3884 8.06819 45.0884C8.18819 44.0017 8.44822 43.1251 8.84822 42.4584C21.1949 42.7984 33.4615 42.6151 45.6482 41.9084C53.7282 41.4351 61.8115 41.0051 69.8982 40.6184C70.5882 40.5784 71.1482 40.2784 71.8482 40.1384Z" fill="#080D0D"/>
<path d="M71.8684 42.0982L71.8484 47.1382C71.0151 47.3049 70.1984 47.3749 69.3984 47.3482C52.6384 46.8349 37.4717 46.3482 23.8984 45.8882C20.5984 45.7815 15.8284 45.4682 9.58839 44.9482C9.30839 44.9215 9.23174 44.7815 9.35841 44.5282L9.61836 44.0282C9.65378 43.9564 9.70907 43.8959 9.77797 43.8535C9.84686 43.8111 9.92664 43.7885 10.0084 43.7882C20.2384 43.8982 29.8884 44.0882 40.2084 43.5282C49.0217 43.0415 58.1717 42.5249 67.6584 41.9782C69.8384 41.8515 71.2417 41.8915 71.8684 42.0982Z" fill="#784779"/>
<path d="M8.06833 45.0886C8.04833 45.3886 8.08504 45.642 8.17838 45.8486C8.31838 46.1486 8.555 46.3053 8.88834 46.3186L71.8584 48.8686L71.8883 57.1086L60.5183 56.5186C60.2183 56.5053 60.135 56.6353 60.2683 56.9086L60.5484 57.4786C60.6091 57.6051 60.7092 57.7084 60.8335 57.7733C60.9579 57.8382 61.0999 57.8611 61.2384 57.8386C62.5717 57.6186 63.775 57.622 64.8484 57.8486C65.5284 57.9953 65.5284 58.132 64.8484 58.2586L62.0284 58.7986C61.8884 58.8253 61.825 58.9086 61.8383 59.0486L61.8584 59.3186C61.866 59.4567 61.9273 59.5865 62.0296 59.6814C62.132 59.7763 62.2675 59.829 62.4084 59.8286L71.8383 59.9186L71.9184 67.4086C68.3317 67.4286 65.6583 67.3453 63.8983 67.1586C63.605 67.1253 63.2617 66.9353 62.8683 66.5886C62.9617 60.7753 60.3883 56.9586 55.1483 55.1386C53.775 54.6586 51.1584 54.8386 47.2984 55.6786C44.125 55.4053 41.025 55.182 37.9983 55.0086C33.7183 54.7686 29.5083 53.8886 25.0083 53.5286C20.455 53.162 15.6717 52.6053 10.6584 51.8586C9.71169 51.7186 8.77502 51.752 7.84836 51.9586C7.48169 52.0386 7.37836 52.2486 7.53836 52.5886C7.65169 52.842 7.85836 52.9853 8.15836 53.0186C14.5984 53.6986 19.9017 54.4286 24.0683 55.2086C21.8283 56.302 20.1183 57.6253 18.9383 59.1786C18.765 59.032 18.595 58.912 18.4284 58.8186C18.2617 58.7253 18.065 58.692 17.8383 58.7186C13.8717 59.172 9.97501 59.2286 6.14835 58.8886L8.06833 45.0886Z" fill="#784779"/>
<path d="M47.2982 55.6785L43.9481 57.4885C43.6548 57.6418 43.4348 57.8685 43.2882 58.1685L42.2982 60.1585C40.6582 59.7385 39.3948 59.8852 38.5081 60.5985C38.0615 60.3652 37.6348 59.7685 37.2282 58.8085C38.9282 58.2885 40.7381 57.9718 42.6581 57.8585C42.8381 57.8452 42.9748 57.7951 43.0681 57.7085C43.1748 57.6018 43.2415 57.4852 43.2681 57.3585C43.3348 56.9852 43.1782 56.7885 42.7982 56.7685L35.0181 56.2585C31.6315 54.7918 27.9815 54.4418 24.0681 55.2085C19.9015 54.4285 14.5981 53.6985 8.15815 53.0185C7.85815 52.9852 7.65149 52.8418 7.53815 52.5885C7.37815 52.2485 7.48148 52.0385 7.84815 51.9585C8.77482 51.7518 9.71148 51.7185 10.6581 51.8585C15.6715 52.6052 20.4548 53.1618 25.0081 53.5285C29.5081 53.8885 33.7181 54.7685 37.9981 55.0085C41.0248 55.1818 44.1248 55.4051 47.2982 55.6785Z" fill="#080D0D"/>
<path d="M35.0183 56.2585C36.1649 57.1385 36.9016 57.9885 37.2283 58.8085C37.635 59.7685 38.0616 60.3652 38.5083 60.5985C39.3149 63.2252 39.2816 66.2285 38.4083 69.6085C38.0383 71.0485 37.2183 72.4485 35.5083 72.0185C30.8949 70.8652 25.9783 70.7618 20.7583 71.7085C20.4529 71.7642 20.1378 71.725 19.8554 71.5963C19.5729 71.4676 19.3367 71.2555 19.1783 70.9885L17.3883 67.9285L17.0683 66.4885L18.6483 59.7285C18.8683 59.5285 18.9649 59.3452 18.9383 59.1785C20.1183 57.6252 21.8283 56.3018 24.0683 55.2085C27.9816 54.4418 31.6316 54.7918 35.0183 56.2585ZM30.7383 65.0885C30.7383 64.2955 30.4233 63.535 29.8625 62.9743C29.3018 62.4135 28.5413 62.0985 27.7483 62.0985C26.9553 62.0985 26.1948 62.4135 25.6341 62.9743C25.0733 63.535 24.7583 64.2955 24.7583 65.0885C24.7583 65.8815 25.0733 66.642 25.6341 67.2028C26.1948 67.7635 26.9553 68.0785 27.7483 68.0785C28.5413 68.0785 29.3018 67.7635 29.8625 67.2028C30.4233 66.642 30.7383 65.8815 30.7383 65.0885Z" fill="white"/>
<path d="M62.8685 66.5885C62.7152 66.9885 62.6318 67.5918 62.6185 68.3985L61.7385 70.9785C61.5902 71.4078 61.2841 71.7649 60.8816 71.9782C60.4792 72.1915 60.0101 72.2452 59.5685 72.1285C54.4285 70.7685 49.1418 70.6818 43.7085 71.8685C43.4718 71.9207 43.225 71.8952 43.005 71.7961C42.785 71.6969 42.6038 71.5293 42.4885 71.3185C40.5685 67.7319 40.5052 64.0119 42.2985 60.1585L43.2885 58.1685C43.4352 57.8685 43.6552 57.6419 43.9485 57.4885L47.2985 55.6785C51.1585 54.8385 53.7752 54.6585 55.1485 55.1385C60.3885 56.9585 62.9618 60.7752 62.8685 66.5885ZM54.4085 65.2785C54.4085 64.4829 54.0925 63.7198 53.5299 63.1572C52.9673 62.5946 52.2042 62.2785 51.4085 62.2785C50.6129 62.2785 49.8498 62.5946 49.2872 63.1572C48.7246 63.7198 48.4085 64.4829 48.4085 65.2785C48.4085 66.0742 48.7246 66.8372 49.2872 67.3999C49.8498 67.9625 50.6129 68.2785 51.4085 68.2785C52.2042 68.2785 52.9673 67.9625 53.5299 67.3999C54.0925 66.8372 54.4085 66.0742 54.4085 65.2785Z" fill="white"/>
<path d="M37.2285 58.8085C36.9018 57.9885 36.1651 57.1385 35.0185 56.2585L42.7985 56.7686C43.1785 56.7886 43.3351 56.9852 43.2685 57.3586C43.2418 57.4852 43.1751 57.6019 43.0685 57.7085C42.9751 57.7952 42.8385 57.8452 42.6585 57.8586C40.7385 57.9719 38.9285 58.2885 37.2285 58.8085Z" fill="#784779"/>
<path d="M71.8885 57.1083C72.1351 57.7749 72.1185 58.7116 71.8385 59.9183L62.4085 59.8283C62.2677 59.8286 62.1321 59.7759 62.0298 59.681C61.9274 59.5862 61.8662 59.4563 61.8585 59.3183L61.8385 59.0483C61.8252 58.9083 61.8885 58.8249 62.0285 58.7983L64.8485 58.2583C65.5285 58.1316 65.5285 57.9949 64.8485 57.8483C63.7752 57.6216 62.5718 57.6182 61.2385 57.8382C61.1001 57.8607 60.958 57.8378 60.8337 57.7729C60.7093 57.708 60.6093 57.6047 60.5485 57.4783L60.2685 56.9082C60.1351 56.6349 60.2185 56.5049 60.5185 56.5183L71.8885 57.1083Z" fill="#080D0D"/>
<path d="M6.14859 58.8886C9.97526 59.2286 13.8719 59.1719 17.8386 58.7186C18.0653 58.6919 18.262 58.7253 18.4286 58.8186C18.5953 58.9119 18.7652 59.0319 18.9386 59.1786C18.9652 59.3453 18.8686 59.5286 18.6486 59.7286L5.95859 60.6386C5.93859 59.7386 6.00192 59.1553 6.14859 58.8886Z" fill="#080D0D"/>
<path d="M18.6485 59.7283L17.0685 66.4883L5.09854 66.2183L5.95853 60.6383L18.6485 59.7283Z" fill="#784779"/>
<path d="M42.2986 60.1585C40.5052 64.0119 40.5686 67.7319 42.4886 71.3185C42.6038 71.5293 42.7851 71.6969 43.005 71.7961C43.225 71.8952 43.4719 71.9207 43.7085 71.8685C49.1419 70.6818 54.4285 70.7685 59.5685 72.1285C60.0101 72.2452 60.4792 72.1915 60.8816 71.9782C61.2841 71.7649 61.5902 71.4078 61.7386 70.9785L62.6185 68.3985L71.9886 68.5885L72.0986 81.6585C70.0252 81.8719 67.9585 81.9752 65.8985 81.9685C65.6119 81.9618 65.6052 82.2785 65.8785 82.9185L49.8685 81.6985L46.3486 81.4885L34.9186 80.7185C34.1386 80.4652 33.1218 80.4052 31.8685 80.5385L3.94853 78.5585C3.89007 78.5537 3.83322 78.5369 3.78148 78.5093C3.72974 78.4816 3.68422 78.4437 3.64769 78.3978C3.61116 78.3519 3.5844 78.299 3.56907 78.2424C3.55374 78.1858 3.55013 78.1266 3.55852 78.0685L5.06852 66.7685C5.18852 66.9152 5.26189 67.0785 5.28856 67.2585C5.32856 67.5452 5.49188 67.6919 5.77855 67.6985L17.3885 67.9285L19.1786 70.9885C19.3369 71.2555 19.5732 71.4676 19.8556 71.5963C20.1381 71.725 20.4532 71.7642 20.7585 71.7085C25.9785 70.7618 30.8952 70.8652 35.5085 72.0185C37.2185 72.4485 38.0386 71.0485 38.4086 69.6085C39.2819 66.2285 39.3152 63.2252 38.5085 60.5985C39.3952 59.8852 40.6586 59.7385 42.2986 60.1585Z" fill="#784779"/>
<path d="M27.7482 68.0784C29.3995 68.0784 30.7383 66.7397 30.7383 65.0884C30.7383 63.437 29.3995 62.0984 27.7482 62.0984C26.0969 62.0984 24.7582 63.437 24.7582 65.0884C24.7582 66.7397 26.0969 68.0784 27.7482 68.0784Z" fill="#080D0D"/>
<path d="M51.4081 68.2786C53.065 68.2786 54.4081 66.9354 54.4081 65.2786C54.4081 63.6217 53.065 62.2786 51.4081 62.2786C49.7513 62.2786 48.4081 63.6217 48.4081 65.2786C48.4081 66.9354 49.7513 68.2786 51.4081 68.2786Z" fill="#080D0D"/>
<path d="M5.0983 66.2185L17.0683 66.4885L17.3883 67.9285L5.77829 67.6985C5.49162 67.6919 5.3283 67.5452 5.2883 67.2585C5.26163 67.0785 5.18827 66.9152 5.06827 66.7685C5.14827 66.4819 5.1583 66.2985 5.0983 66.2185Z" fill="#080D0D"/>
<path d="M62.8681 66.5886C63.2614 66.9353 63.6048 67.1253 63.8981 67.1586C65.6581 67.3453 68.3315 67.4286 71.9181 67.4086C72.0315 67.6686 72.0548 68.062 71.9881 68.5886L62.6181 68.3986C62.6314 67.592 62.7147 66.9886 62.8681 66.5886Z" fill="#080D0D"/>
<path d="M34.9184 80.7184L9.3184 107.128C9.28691 107.161 9.24937 107.187 9.20799 107.206C9.16661 107.224 9.12224 107.234 9.0775 107.235C9.03275 107.236 8.98856 107.228 8.94749 107.211C8.90643 107.195 8.86934 107.17 8.83842 107.138L2.23845 100.798C2.12973 100.695 2.0426 100.572 1.98216 100.434C1.92172 100.297 1.88913 100.15 1.88634 99.9997C1.88354 99.8499 1.91057 99.701 1.96586 99.5617C2.02116 99.4225 2.10362 99.2956 2.20842 99.1884L2.4384 98.9584C2.61206 98.7861 2.84594 98.6884 3.08928 98.6866C3.33261 98.6847 3.56585 98.7788 3.73845 98.9485L8.57841 103.648C8.89841 103.962 9.21509 103.958 9.52842 103.638L31.8684 80.5384C33.1217 80.4051 34.1384 80.4651 34.9184 80.7184Z" fill="#080D0D"/>
<path d="M49.8685 81.6985L72.5285 104.999C72.8019 105.285 73.0752 105.289 73.3485 105.009L78.1485 100.208C78.5752 99.7752 78.9919 99.7818 79.3985 100.229L79.8186 100.678C80.2252 101.125 80.2119 101.562 79.7785 101.989L73.1385 108.428C73.0941 108.472 73.0415 108.507 72.9836 108.53C72.9257 108.553 72.8638 108.565 72.8014 108.564C72.7391 108.563 72.6775 108.55 72.6204 108.525C72.5632 108.5 72.5116 108.464 72.4685 108.419L46.3485 81.4885L49.8685 81.6985Z" fill="#080D0D"/>
<path d="M72.0983 81.6584C72.2116 81.9251 72.2449 82.1985 72.1982 82.4785C72.1382 82.8385 71.9282 83.0151 71.5682 83.0085L65.8782 82.9185C65.6049 82.2785 65.6116 81.9618 65.8983 81.9684C67.9583 81.9751 70.0249 81.8718 72.0983 81.6584Z" fill="#080D0D"/>
</svg>
