<svg width="92" height="142" viewBox="0 0 92 142" fill="none" xmlns="http://www.w3.org/2000/svg">
<path d="M24.4329 109.727L7.73287 125.417C7.68319 125.465 7.62456 125.502 7.56032 125.527C7.49609 125.552 7.42757 125.564 7.35872 125.562C7.28988 125.56 7.22206 125.545 7.15926 125.516C7.09646 125.488 7.03991 125.448 6.99288 125.397L3.25289 121.557C3.1396 121.441 2.98598 121.373 2.82393 121.368C2.66189 121.362 2.5039 121.419 2.38289 121.527L1.65291 122.157C1.57673 122.226 1.51503 122.309 1.47158 122.402C1.42812 122.495 1.40378 122.595 1.40004 122.697C1.39631 122.799 1.41327 122.9 1.44985 122.995C1.48643 123.089 1.54186 123.175 1.61287 123.247L6.82289 128.607C7.08289 128.867 7.34955 128.874 7.62288 128.627L26.9529 110.557" stroke="#7F6D63" stroke-width="2"/>
<path d="M26.9528 110.557L38.4127 112.897" stroke="#FF3B00" stroke-width="2"/>
<path d="M38.4131 112.897L40.8031 118.497C40.9671 118.882 41.05 119.296 41.0465 119.714C41.0431 120.132 40.9534 120.545 40.7832 120.927L33.5531 137.027C33.5196 137.099 33.5016 137.178 33.5002 137.258C33.4988 137.337 33.5141 137.417 33.545 137.491C33.576 137.565 33.622 137.632 33.6801 137.688C33.7383 137.745 33.8074 137.788 33.8831 137.817L41.2832 140.647C42.0232 140.934 42.5065 140.694 42.7331 139.927L42.8231 139.637C42.8917 139.402 42.869 139.15 42.7596 138.931C42.6502 138.713 42.4621 138.543 42.2331 138.457L37.2032 136.567C37.1145 136.534 37.0335 136.484 36.9652 136.418C36.8969 136.353 36.8428 136.274 36.8062 136.187C36.7696 136.1 36.7513 136.006 36.7525 135.911C36.7537 135.817 36.7744 135.723 36.8131 135.637L43.4831 120.667C43.6213 120.357 43.691 120.02 43.6875 119.68C43.6841 119.34 43.6076 119.005 43.4632 118.697L41.0431 113.657" stroke="#7F6D63" stroke-width="2"/>
<path d="M41.0431 113.657C42.0231 113.671 44.4064 113.897 48.1931 114.337C49.8531 114.531 51.6465 114.397 53.5731 113.937C62.6631 111.737 66.7131 101.687 67.8031 93.4172C68.5764 87.5238 66.8531 82.5472 62.6331 78.4872C59.4265 75.4072 55.6131 73.2106 51.1931 71.8972" stroke="#FF3B00" stroke-width="2"/>
<path d="M51.1931 71.8969C51.0664 71.5036 51.2431 71.2236 51.7231 71.0569" stroke="#FF3B00" stroke-width="2"/>
<path d="M51.7232 71.0572C57.0698 73.2239 62.0565 74.1139 66.6831 73.7272C76.8031 72.8872 79.6131 64.0372 80.5531 55.1372C81.6331 44.9472 75.9331 38.7572 67.2531 34.8472C63.8731 33.3206 60.5231 31.7972 57.2031 30.2772C57.1165 30.2372 57.0898 30.1739 57.1231 30.0872L57.1331 30.0772C57.1598 30.0039 57.2131 29.9805 57.2931 30.0072C65.6264 32.8272 73.8632 35.8272 82.0032 39.0072C82.5165 39.2072 82.8499 39.0439 83.0032 38.5172L90.5832 12.1672C90.6365 11.9672 90.5665 11.8305 90.3732 11.7572C84.0599 9.3972 78.0665 7.13389 72.3932 4.96722C63.9332 1.73389 55.3732 0.907182 46.7132 2.48718C37.4832 4.16718 28.4532 11.8372 25.0932 20.8872C23.3832 25.4972 24.1432 29.5672 26.6532 33.6572C30.3932 39.7472 33.6931 45.0672 39.7431 48.8272C40.4431 49.2605 40.3865 49.4272 39.5731 49.3272C38.6131 49.2072 37.6565 49.0772 36.7031 48.9372C24.4931 47.1572 18.4131 58.3572 17.4431 68.9972C16.7931 76.1072 21.4532 80.8172 27.6532 83.1772C27.7932 83.2305 27.8398 83.3306 27.7931 83.4772C27.7398 83.6239 27.6398 83.6772 27.4931 83.6372C23.4465 82.4305 19.5765 81.0305 15.8831 79.4372C15.8113 79.4051 15.7336 79.3882 15.6549 79.3876C15.5762 79.387 15.4982 79.4026 15.4259 79.4336C15.3535 79.4646 15.2884 79.5103 15.2346 79.5677C15.1808 79.6251 15.1394 79.693 15.1131 79.7672L6.28317 103.457C6.0765 104.004 6.25648 104.361 6.82314 104.527L24.4331 109.727" stroke="#FF3B00" stroke-width="2"/>
<path d="M51.7232 71.0568C49.6765 70.3968 47.6165 69.8135 45.5431 69.3068C45.4431 69.2868 45.3798 69.3235 45.3531 69.4168C45.3198 69.5101 45.3498 69.5768 45.4431 69.6168C47.3365 70.4168 49.2531 71.1768 51.1931 71.8968" stroke="#FF3B00" stroke-width="2"/>
<path d="M41.0427 113.657C40.3227 113.157 39.4461 112.904 38.4127 112.897" stroke="#843B29" stroke-width="2"/>
<path d="M26.9532 110.557L24.4332 109.727" stroke="#843B29" stroke-width="2"/>
<path d="M48.8227 16.1171C51.6827 9.86705 62.0127 12.4471 60.9627 19.7471C60.8827 20.2937 61.0861 20.6971 61.5727 20.9571L61.8327 21.0871C61.9058 21.1242 61.9864 21.1438 62.0683 21.1445C62.1502 21.1452 62.2311 21.1269 62.3047 21.0911C62.3784 21.0552 62.4427 21.0028 62.4926 20.9379C62.5426 20.873 62.5769 20.7974 62.5927 20.7171C63.8927 13.7671 58.5127 10.1871 52.2027 11.2171C49.9894 11.5771 48.2827 13.1337 47.0827 15.8871C47.0512 15.9581 47.0362 16.0353 47.039 16.113C47.0419 16.1906 47.0624 16.2665 47.099 16.335C47.1357 16.4035 47.1875 16.4628 47.2505 16.5082C47.3135 16.5536 47.3862 16.584 47.4627 16.5971L47.7827 16.6571C47.9915 16.6963 48.2074 16.6644 48.3959 16.5665C48.5844 16.4686 48.7347 16.3104 48.8227 16.1171Z" stroke="#843B29" stroke-width="2"/>
<path d="M80.2831 26.0572C82.7331 16.4972 68.0732 12.4372 64.7832 21.2672C64.7248 21.4249 64.7307 21.5995 64.7997 21.7542C64.8687 21.909 64.9954 22.0319 65.1532 22.0972C65.6465 22.2972 66.0332 22.1572 66.3132 21.6772C68.2198 18.4305 71.0332 17.4439 74.7532 18.7172C77.6332 19.6972 79.1131 22.6472 78.6431 25.6372C78.5631 26.1438 78.7765 26.4172 79.2831 26.4572L79.6831 26.4872C79.8179 26.4983 79.9523 26.4612 80.0622 26.3824C80.1721 26.3036 80.2504 26.1884 80.2831 26.0572Z" stroke="#843B29" stroke-width="2"/>
<path d="M51.7232 71.0572C49.6765 70.3972 47.6164 69.8139 45.5431 69.3072C45.4431 69.2872 45.3798 69.3238 45.3531 69.4172C45.3198 69.5105 45.3498 69.5772 45.4431 69.6172C47.3365 70.4172 49.2531 71.1772 51.1931 71.8972C55.6131 73.2105 59.4265 75.4072 62.6331 78.4872C66.8531 82.5472 68.5765 87.5238 67.8031 93.4172C66.7131 101.687 62.6631 111.737 53.5731 113.937C51.6465 114.397 49.8531 114.531 48.1931 114.337C44.4065 113.897 42.0231 113.671 41.0431 113.657C40.3231 113.157 39.4464 112.904 38.4131 112.897L26.9531 110.557L24.4331 109.727L6.82314 104.527C6.25648 104.361 6.0765 104.004 6.28317 103.457L15.1131 79.7672C15.1394 79.693 15.1808 79.6251 15.2346 79.5677C15.2884 79.5103 15.3535 79.4646 15.4259 79.4336C15.4982 79.4026 15.5762 79.387 15.6549 79.3876C15.7336 79.3882 15.8113 79.4051 15.8831 79.4372C19.5765 81.0305 23.4465 82.4305 27.4931 83.6372C27.6398 83.6772 27.7398 83.6239 27.7931 83.4772C27.8398 83.3306 27.7932 83.2305 27.6532 83.1772C21.4532 80.8172 16.7931 76.1072 17.4431 68.9972C18.4131 58.3572 24.4931 47.1572 36.7031 48.9372C37.6565 49.0772 38.6131 49.2072 39.5731 49.3272C40.3865 49.4272 40.4431 49.2605 39.7431 48.8272C33.6931 45.0672 30.3932 39.7472 26.6532 33.6572C24.1432 29.5672 23.3832 25.4972 25.0932 20.8872C28.4532 11.8372 37.4832 4.16718 46.7132 2.48718C55.3732 0.907182 63.9332 1.73389 72.3932 4.96722C78.0665 7.13389 84.0599 9.3972 90.3732 11.7572C90.5665 11.8305 90.6365 11.9672 90.5832 12.1672L83.0032 38.5172C82.8499 39.0439 82.5165 39.2072 82.0032 39.0072C73.8632 35.8272 65.6264 32.8272 57.2931 30.0072C57.2131 29.9805 57.1598 30.0039 57.1331 30.0772L57.1231 30.0872C57.0898 30.1739 57.1165 30.2372 57.2031 30.2772C60.5231 31.7972 63.8731 33.3206 67.2531 34.8472C75.9331 38.7572 81.6331 44.9472 80.5531 55.1372C79.6131 64.0372 76.8031 72.8872 66.6831 73.7272C62.0565 74.1139 57.0698 73.2239 51.7232 71.0572ZM48.8231 16.1172C51.6831 9.86719 62.0132 12.4472 60.9632 19.7472C60.8832 20.2939 61.0865 20.6972 61.5731 20.9572L61.8332 21.0872C61.9062 21.1243 61.9868 21.144 62.0687 21.1447C62.1506 21.1453 62.2315 21.127 62.3051 21.0912C62.3788 21.0553 62.4431 21.0029 62.4931 20.938C62.543 20.8732 62.5773 20.7976 62.5932 20.7172C63.8932 13.7672 58.5131 10.1872 52.2031 11.2172C49.9898 11.5772 48.2832 13.1339 47.0832 15.8872C47.0516 15.9582 47.0366 16.0355 47.0395 16.1131C47.0423 16.1907 47.0628 16.2667 47.0994 16.3351C47.1361 16.4036 47.1879 16.4629 47.2509 16.5083C47.314 16.5537 47.3866 16.5841 47.4632 16.5972L47.7832 16.6572C47.9919 16.6964 48.2078 16.6645 48.3963 16.5666C48.5848 16.4688 48.7351 16.3105 48.8231 16.1172ZM80.2831 26.0572C82.7331 16.4972 68.0732 12.4372 64.7832 21.2672C64.7248 21.4249 64.7306 21.5995 64.7996 21.7543C64.8686 21.909 64.9954 22.032 65.1532 22.0972C65.6465 22.2972 66.0331 22.1572 66.3131 21.6772C68.2198 18.4305 71.0331 17.4439 74.7531 18.7172C77.6331 19.6972 79.1131 22.6472 78.6431 25.6372C78.5631 26.1439 78.7764 26.4172 79.2831 26.4572L79.6831 26.4872C79.8179 26.4983 79.9522 26.4612 80.0622 26.3824C80.1721 26.3037 80.2504 26.1884 80.2831 26.0572Z" fill="#FF3B00"/>
<path d="M60.9627 19.7471C62.0127 12.4471 51.6827 9.86705 48.8227 16.1171C48.7347 16.3104 48.5844 16.4686 48.3959 16.5665C48.2074 16.6644 47.9915 16.6963 47.7827 16.6571L47.4627 16.5971C47.3862 16.584 47.3135 16.5536 47.2505 16.5082C47.1875 16.4628 47.1357 16.4035 47.099 16.335C47.0624 16.2665 47.0419 16.1906 47.039 16.113C47.0362 16.0353 47.0512 15.9581 47.0827 15.8871C48.2827 13.1337 49.9894 11.5771 52.2027 11.2171C58.5127 10.1871 63.8927 13.7671 62.5927 20.7171C62.5769 20.7974 62.5426 20.873 62.4926 20.9379C62.4427 21.0028 62.3784 21.0552 62.3047 21.0911C62.2311 21.1269 62.1502 21.1452 62.0683 21.1445C61.9864 21.1438 61.9058 21.1242 61.8327 21.0871L61.5727 20.9571C61.0861 20.6971 60.8827 20.2937 60.9627 19.7471Z" fill="#080D0D"/>
<path d="M64.7832 21.2672C68.0732 12.4372 82.7331 16.4972 80.2831 26.0572C80.2504 26.1884 80.1721 26.3036 80.0622 26.3824C79.9523 26.4612 79.8179 26.4983 79.6831 26.4872L79.2831 26.4572C78.7765 26.4172 78.5631 26.1438 78.6431 25.6372C79.1131 22.6472 77.6332 19.6972 74.7532 18.7172C71.0332 17.4439 68.2198 18.4305 66.3132 21.6772C66.0332 22.1572 65.6465 22.2972 65.1532 22.0972C64.9954 22.0319 64.8687 21.909 64.7997 21.7542C64.7307 21.5995 64.7248 21.4249 64.7832 21.2672Z" fill="#080D0D"/>
<path d="M51.7232 71.0568C51.2432 71.2235 51.0665 71.5035 51.1931 71.8968C49.2531 71.1768 47.3365 70.4168 45.4431 69.6168C45.3498 69.5768 45.3198 69.5101 45.3531 69.4168C45.3798 69.3235 45.4431 69.2868 45.5431 69.3068C47.6165 69.8135 49.6765 70.3968 51.7232 71.0568Z" fill="#FF3B00"/>
<path d="M26.9529 110.557L7.62288 128.627C7.34955 128.874 7.08289 128.867 6.82289 128.607L1.61287 123.247C1.54186 123.175 1.48643 123.089 1.44985 122.995C1.41327 122.9 1.39631 122.799 1.40004 122.697C1.40378 122.595 1.42812 122.495 1.47158 122.402C1.51503 122.309 1.57673 122.226 1.65291 122.157L2.38289 121.527C2.5039 121.419 2.66189 121.362 2.82393 121.368C2.98598 121.373 3.1396 121.441 3.25289 121.557L6.99288 125.397C7.03991 125.448 7.09646 125.488 7.15926 125.516C7.22206 125.545 7.28988 125.56 7.35872 125.562C7.42757 125.564 7.49609 125.552 7.56032 125.527C7.62456 125.502 7.68319 125.465 7.73287 125.417L24.4329 109.727L26.9529 110.557Z" fill="#080D0D"/>
<path d="M38.4131 112.897C39.4464 112.904 40.3231 113.157 41.0431 113.657L43.4632 118.697C43.6076 119.005 43.6841 119.34 43.6875 119.68C43.691 120.02 43.6213 120.357 43.4831 120.667L36.8131 135.637C36.7744 135.723 36.7537 135.817 36.7525 135.911C36.7513 136.006 36.7696 136.1 36.8062 136.187C36.8428 136.274 36.8969 136.353 36.9652 136.418C37.0335 136.484 37.1145 136.534 37.2032 136.567L42.2331 138.457C42.4621 138.543 42.6502 138.713 42.7596 138.931C42.869 139.15 42.8917 139.402 42.8231 139.637L42.7331 139.927C42.5065 140.694 42.0232 140.934 41.2832 140.647L33.8831 137.817C33.8074 137.788 33.7383 137.745 33.6801 137.688C33.622 137.632 33.576 137.565 33.545 137.491C33.5141 137.417 33.4988 137.337 33.5002 137.258C33.5016 137.178 33.5196 137.099 33.5531 137.027L40.7832 120.927C40.9534 120.545 41.0431 120.132 41.0465 119.714C41.05 119.296 40.9671 118.882 40.8031 118.497L38.4131 112.897Z" fill="#080D0D"/>
</svg>
