<svg width="80" height="122" viewBox="0 0 80 122" fill="none" xmlns="http://www.w3.org/2000/svg">
<path d="M35.4589 107L35.3989 117.78C35.3922 118.207 35.1755 118.424 34.7489 118.43L28.0889 118.44C27.4689 118.44 27.1288 118.747 27.0688 119.36L27.0388 119.72C27.0277 119.825 27.0385 119.931 27.0704 120.031C27.1024 120.131 27.1548 120.224 27.2243 120.303C27.2939 120.382 27.3791 120.445 27.4746 120.49C27.57 120.534 27.6737 120.558 27.7789 120.56L36.9989 120.72C37.4455 120.727 37.6689 120.507 37.6689 120.06L37.6889 107.28" stroke="#7F6D63" stroke-width="2"/>
<path d="M37.6889 107.281C39.2289 106.714 40.5922 106.644 41.7789 107.071" stroke="#007C91" stroke-width="2"/>
<path d="M41.7787 107.071L41.7987 120.091C41.7987 120.174 41.8154 120.256 41.8478 120.333C41.8802 120.409 41.9276 120.478 41.9873 120.536C42.047 120.594 42.1178 120.639 42.1953 120.669C42.2729 120.699 42.3557 120.713 42.4388 120.711L51.5587 120.381C52.1454 120.361 52.4587 120.057 52.4987 119.471L52.5187 119.191C52.5228 119.119 52.5127 119.048 52.489 118.981C52.4654 118.914 52.4286 118.852 52.381 118.8C52.3333 118.747 52.2758 118.705 52.2119 118.676C52.1479 118.647 52.0788 118.632 52.0087 118.631L44.5187 118.411C44.1587 118.397 43.9787 118.211 43.9787 117.851V106.861" stroke="#7F6D63" stroke-width="2"/>
<path d="M43.9788 106.86C51.0255 105.507 57.8221 102.734 64.3688 98.5405C74.4355 92.0872 79.2021 82.7538 78.6688 70.5405C78.4621 65.9138 77.8788 61.6772 76.9188 57.8305C75.4921 52.1105 73.2055 46.2572 70.0588 40.2705C67.9055 36.1638 66.0021 33.2405 64.3488 31.5005C55.6688 22.3338 48.0655 12.5738 41.5388 2.2205C41.4426 2.06565 41.309 1.93772 41.15 1.84842C40.991 1.75911 40.8118 1.71128 40.6288 1.70929C40.4458 1.7073 40.2648 1.75122 40.1023 1.83703C39.9399 1.92284 39.8011 2.0478 39.6988 2.2005C34.0121 10.8538 28.1355 19.5372 22.0688 28.2505C14.9988 38.4105 10.1288 47.1505 5.61882 57.9205C1.72882 67.2105 -0.111179 76.6005 2.52882 86.4305C4.94882 95.4505 14.6888 101.021 22.9888 103.671C27.1355 104.997 31.2921 106.107 35.4588 107.001" stroke="#007C91" stroke-width="2"/>
<path d="M43.9787 106.86C43.1054 106.6 42.3721 106.67 41.7787 107.07" stroke="#7C7D07" stroke-width="2"/>
<path d="M37.6889 107.281C37.1423 106.661 36.3989 106.567 35.4589 107.001" stroke="#7C7D07" stroke-width="2"/>
<path d="M22.9388 51.6005L37.3788 51.9005C37.8293 51.9098 38.2771 51.8302 38.6968 51.6664C39.1165 51.5025 39.4999 51.2576 39.8249 50.9456C40.1499 50.6336 40.4103 50.2606 40.5911 49.8479C40.7719 49.4352 40.8697 48.991 40.8788 48.5405L40.9388 45.7405C40.9666 44.4181 40.7325 43.1031 40.2499 41.8708C39.7674 40.6384 39.0458 39.5127 38.1265 38.5581C37.2071 37.6035 36.108 36.8385 34.8919 36.307C33.6758 35.7756 32.3665 35.4879 31.0388 35.4605L29.9588 35.4405C28.631 35.4125 27.3107 35.6454 26.0734 36.1258C24.836 36.6063 23.7059 37.3248 22.7475 38.2405C21.7892 39.1561 21.0213 40.2509 20.4879 41.4623C19.9545 42.6737 19.666 43.9779 19.6388 45.3005L19.5788 48.1005C19.5695 48.5509 19.6491 48.9988 19.8129 49.4185C19.9768 49.8382 20.2217 50.2216 20.5337 50.5466C20.8457 50.8716 21.2187 51.132 21.6314 51.3128C22.0441 51.4936 22.4883 51.5914 22.9388 51.6005Z" stroke="#007C91" stroke-width="2"/>
<path d="M44.4189 40.5904C42.7789 44.1637 42.6656 47.5904 44.0789 50.8704C44.2551 51.282 44.5671 51.6212 44.9633 51.8321C45.3596 52.0429 45.8165 52.1129 46.2589 52.0304C51.4522 51.0371 56.2789 51.1171 60.7389 52.2704C62.0989 52.6171 62.9856 52.1204 63.3989 50.7804C65.1056 45.2804 64.1756 40.9704 60.6089 37.8504C59.2622 36.6771 57.7489 36.0537 56.0689 35.9804C51.5889 35.7804 46.5289 35.9904 44.4189 40.5904Z" stroke="#007C91" stroke-width="2"/>
<path d="M32.7486 45.5906C32.7486 44.8056 32.4367 44.0527 31.8816 43.4976C31.3265 42.9425 30.5736 42.6306 29.7885 42.6306C29.0035 42.6306 28.2506 42.9425 27.6955 43.4976C27.1404 44.0527 26.8286 44.8056 26.8286 45.5906C26.8286 45.9793 26.9051 46.3642 27.0539 46.7234C27.2026 47.0825 27.4207 47.4088 27.6955 47.6837C27.9704 47.9585 28.2967 48.1765 28.6558 48.3253C29.0149 48.4741 29.3998 48.5506 29.7885 48.5506C30.1773 48.5506 30.5622 48.4741 30.9213 48.3253C31.2804 48.1765 31.6067 47.9585 31.8816 47.6837C32.1565 47.4088 32.3745 47.0825 32.5233 46.7234C32.672 46.3642 32.7486 45.9793 32.7486 45.5906Z" stroke="#080D0D" stroke-width="2"/>
<path d="M56.1387 45.7806C56.1387 45.3919 56.0621 45.0069 55.9134 44.6478C55.7646 44.2887 55.5466 43.9624 55.2717 43.6875C54.9969 43.4127 54.6706 43.1946 54.3114 43.0459C53.9523 42.8971 53.5674 42.8206 53.1787 42.8206C52.3936 42.8206 51.6407 43.1324 51.0856 43.6875C50.5305 44.2426 50.2187 44.9955 50.2187 45.7806C50.2187 46.5656 50.5305 47.3185 51.0856 47.8736C51.6407 48.4287 52.3936 48.7406 53.1787 48.7406C53.9637 48.7406 54.7166 48.4287 55.2717 47.8736C55.8268 47.3185 56.1387 46.5656 56.1387 45.7806Z" stroke="#080D0D" stroke-width="2"/>
<path d="M43.9788 106.86C43.1055 106.6 42.3722 106.67 41.7788 107.07C40.5922 106.644 39.2288 106.714 37.6888 107.281C37.1422 106.66 36.3988 106.567 35.4588 107.001C31.2921 106.107 27.1355 104.997 22.9888 103.671C14.6888 101.021 4.94882 95.4505 2.52882 86.4305C-0.111179 76.6005 1.72882 67.2105 5.61882 57.9205C10.1288 47.1505 14.9988 38.4105 22.0688 28.2505C28.1355 19.5372 34.0121 10.8538 39.6988 2.2005C39.8011 2.0478 39.9399 1.92284 40.1023 1.83703C40.2648 1.75122 40.4458 1.7073 40.6288 1.70929C40.8118 1.71128 40.991 1.75911 41.15 1.84842C41.309 1.93772 41.4426 2.06565 41.5388 2.2205C48.0655 12.5738 55.6688 22.3338 64.3488 31.5005C66.0021 33.2405 67.9055 36.1638 70.0588 40.2705C73.2055 46.2572 75.4921 52.1105 76.9188 57.8305C77.8788 61.6772 78.4621 65.9138 78.6688 70.5405C79.2021 82.7538 74.4355 92.0872 64.3688 98.5405C57.8222 102.734 51.0255 105.507 43.9788 106.86ZM22.9388 51.6005L37.3788 51.9005C37.8293 51.9098 38.2771 51.8302 38.6968 51.6664C39.1166 51.5025 39.4999 51.2576 39.8249 50.9456C40.1499 50.6336 40.4103 50.2606 40.5911 49.8479C40.7719 49.4352 40.8697 48.991 40.8788 48.5405L40.9388 45.7405C40.9666 44.4181 40.7325 43.1031 40.25 41.8708C39.7674 40.6384 39.0459 39.5127 38.1265 38.5581C37.2072 37.6035 36.108 36.8386 34.8919 36.3071C33.6758 35.7756 32.3665 35.4879 31.0388 35.4605L29.9588 35.4405C28.631 35.4125 27.3107 35.6454 26.0734 36.1258C24.836 36.6063 23.7059 37.3248 22.7475 38.2405C21.7892 39.1561 21.0213 40.2509 20.4879 41.4623C19.9545 42.6737 19.666 43.9779 19.6388 45.3005L19.5788 48.1005C19.5695 48.551 19.6491 48.9988 19.8129 49.4185C19.9768 49.8382 20.2217 50.2216 20.5337 50.5466C20.8458 50.8716 21.2187 51.132 21.6314 51.3128C22.0441 51.4936 22.4884 51.5914 22.9388 51.6005ZM44.4188 40.5905C42.7788 44.1638 42.6655 47.5905 44.0788 50.8705C44.255 51.2821 44.567 51.6213 44.9632 51.8322C45.3595 52.043 45.8164 52.113 46.2588 52.0305C51.4521 51.0372 56.2788 51.1172 60.7388 52.2705C62.0988 52.6172 62.9855 52.1205 63.3988 50.7805C65.1055 45.2805 64.1755 40.9705 60.6088 37.8505C59.2621 36.6772 57.7488 36.0538 56.0688 35.9805C51.5888 35.7805 46.5288 35.9905 44.4188 40.5905Z" fill="#007C91"/>
<path d="M22.9388 51.6005C22.4883 51.5914 22.0441 51.4936 21.6314 51.3128C21.2187 51.132 20.8457 50.8716 20.5337 50.5466C20.2217 50.2216 19.9768 49.8382 19.8129 49.4185C19.6491 48.9988 19.5695 48.5509 19.5788 48.1005L19.6388 45.3005C19.666 43.9779 19.9545 42.6737 20.4879 41.4623C21.0213 40.2509 21.7892 39.1561 22.7475 38.2405C23.7059 37.3248 24.836 36.6063 26.0734 36.1258C27.3107 35.6454 28.631 35.4125 29.9588 35.4405L31.0388 35.4605C32.3665 35.4879 33.6758 35.7756 34.8919 36.307C36.108 36.8385 37.2071 37.6035 38.1265 38.5581C39.0458 39.5127 39.7674 40.6384 40.2499 41.8708C40.7325 43.1031 40.9666 44.4181 40.9388 45.7405L40.8788 48.5405C40.8697 48.991 40.7719 49.4352 40.5911 49.8479C40.4103 50.2606 40.1499 50.6336 39.8249 50.9456C39.4999 51.2576 39.1165 51.5025 38.6968 51.6664C38.2771 51.8302 37.8293 51.9098 37.3788 51.9005L22.9388 51.6005ZM32.7488 45.5905C32.7488 44.8055 32.4369 44.0526 31.8818 43.4975C31.3267 42.9424 30.5738 42.6305 29.7888 42.6305C29.0037 42.6305 28.2509 42.9424 27.6958 43.4975C27.1407 44.0526 26.8288 44.8055 26.8288 45.5905C26.8288 45.9792 26.9053 46.3641 27.0541 46.7232C27.2029 47.0824 27.4209 47.4087 27.6958 47.6835C27.9706 47.9584 28.2969 48.1764 28.6561 48.3252C29.0152 48.4739 29.4001 48.5505 29.7888 48.5505C30.1775 48.5505 30.5624 48.4739 30.9215 48.3252C31.2807 48.1764 31.607 47.9584 31.8818 47.6835C32.1567 47.4087 32.3747 47.0824 32.5235 46.7232C32.6722 46.3641 32.7488 45.9792 32.7488 45.5905Z" fill="white"/>
<path d="M44.4189 40.5904C46.5289 35.9904 51.5889 35.7804 56.0689 35.9804C57.7489 36.0537 59.2622 36.6771 60.6089 37.8504C64.1756 40.9704 65.1056 45.2804 63.3989 50.7804C62.9856 52.1204 62.0989 52.6171 60.7389 52.2704C56.2789 51.1171 51.4522 51.0371 46.2589 52.0304C45.8165 52.1129 45.3596 52.0429 44.9633 51.8321C44.5671 51.6212 44.2551 51.282 44.0789 50.8704C42.6656 47.5904 42.7789 44.1637 44.4189 40.5904ZM56.1389 45.7804C56.1389 45.3917 56.0623 45.0068 55.9136 44.6477C55.7648 44.2885 55.5468 43.9622 55.272 43.6874C54.9971 43.4125 54.6708 43.1945 54.3117 43.0457C53.9525 42.897 53.5676 42.8204 53.1789 42.8204C52.3939 42.8204 51.641 43.1323 51.0859 43.6874C50.5308 44.2425 50.2189 44.9954 50.2189 45.7804C50.2189 46.5655 50.5308 47.3183 51.0859 47.8734C51.641 48.4286 52.3939 48.7404 53.1789 48.7404C53.964 48.7404 54.7169 48.4286 55.272 47.8734C55.8271 47.3183 56.1389 46.5655 56.1389 45.7804Z" fill="white"/>
<path d="M29.7885 48.5506C31.4233 48.5506 32.7486 47.2254 32.7486 45.5906C32.7486 43.9559 31.4233 42.6306 29.7885 42.6306C28.1538 42.6306 26.8286 43.9559 26.8286 45.5906C26.8286 47.2254 28.1538 48.5506 29.7885 48.5506Z" fill="#080D0D"/>
<path d="M53.1787 48.7406C54.8134 48.7406 56.1387 47.4153 56.1387 45.7806C56.1387 44.1458 54.8134 42.8206 53.1787 42.8206C51.5439 42.8206 50.2187 44.1458 50.2187 45.7806C50.2187 47.4153 51.5439 48.7406 53.1787 48.7406Z" fill="#080D0D"/>
<path d="M37.6889 107.281L37.6689 120.061C37.6689 120.507 37.4455 120.727 36.9989 120.721L27.7789 120.561C27.6737 120.558 27.57 120.534 27.4746 120.49C27.3791 120.446 27.2939 120.382 27.2243 120.303C27.1548 120.224 27.1024 120.132 27.0704 120.031C27.0385 119.931 27.0277 119.825 27.0388 119.721L27.0688 119.361C27.1288 118.747 27.4689 118.441 28.0889 118.441L34.7489 118.431C35.1755 118.424 35.3922 118.207 35.3989 117.781L35.4589 107.001C36.3989 106.567 37.1422 106.661 37.6889 107.281Z" fill="#080D0D"/>
<path d="M43.9787 106.86V117.85C43.9787 118.21 44.1587 118.397 44.5187 118.41L52.0087 118.63C52.0788 118.632 52.1479 118.647 52.2119 118.676C52.2758 118.705 52.3333 118.747 52.381 118.8C52.4286 118.852 52.4654 118.913 52.489 118.981C52.5127 119.048 52.5228 119.119 52.5187 119.19L52.4987 119.47C52.4587 120.057 52.1454 120.36 51.5587 120.38L42.4388 120.71C42.3557 120.713 42.2729 120.699 42.1953 120.669C42.1178 120.639 42.047 120.594 41.9873 120.536C41.9276 120.478 41.8802 120.409 41.8478 120.332C41.8154 120.256 41.7987 120.174 41.7987 120.09L41.7787 107.07C42.3721 106.67 43.1054 106.6 43.9787 106.86Z" fill="#080D0D"/>
</svg>
