<svg width="112" height="125" viewBox="0 0 112 125" fill="none" xmlns="http://www.w3.org/2000/svg">
<path d="M43.503 86.0261L24.723 105.756C24.6537 105.829 24.5702 105.886 24.4775 105.925C24.3848 105.964 24.285 105.984 24.184 105.983C24.0829 105.982 23.9829 105.961 23.8899 105.92C23.7969 105.879 23.7129 105.82 23.643 105.746L19.053 100.836C18.9451 100.721 18.8153 100.629 18.6712 100.566C18.5272 100.502 18.3718 100.468 18.2143 100.465C18.0568 100.462 17.9003 100.491 17.7541 100.549C17.6079 100.608 17.4749 100.695 17.363 100.806L17.123 101.056C16.9531 101.225 16.8568 101.454 16.8549 101.694C16.853 101.934 16.9458 102.164 17.113 102.336L23.783 109.216C24.0497 109.496 24.3163 109.496 24.583 109.216L44.133 88.7761" stroke="#080D0D" stroke-width="2"/>
<path d="M44.1327 88.7761L46.1327 99.7861C46.2927 100.679 46.6394 100.756 47.1727 100.016L56.1827 87.4061C56.2412 87.3229 56.322 87.2581 56.4159 87.2188C56.5097 87.1796 56.6127 87.1676 56.713 87.1843C56.8133 87.2011 56.9068 87.2458 56.9828 87.3133C57.0589 87.3808 57.1143 87.4685 57.1427 87.5661L60.5927 98.9961C60.8527 99.8561 61.1494 99.8694 61.4827 99.0361L64.3827 91.7161" stroke="#6A9742" stroke-width="2"/>
<path d="M64.383 91.7162L66.2031 96.3362C66.3231 96.6362 66.3164 96.9329 66.183 97.2262L56.653 118.556C56.473 118.95 56.5864 119.223 56.993 119.376L66.823 123.126C66.9179 123.164 67.0196 123.181 67.1216 123.178C67.2236 123.174 67.3238 123.15 67.4158 123.106C67.5079 123.061 67.5898 122.999 67.6564 122.921C67.7231 122.844 67.773 122.754 67.803 122.656L68.013 121.986C68.1864 121.44 68.0064 121.063 67.473 120.856L60.133 118.066C60.0667 118.041 60.0061 118.003 59.9552 117.953C59.9042 117.904 59.8639 117.845 59.8367 117.779C59.8095 117.713 59.7961 117.643 59.7972 117.572C59.7983 117.501 59.8139 117.431 59.843 117.366L68.853 97.1862C68.9627 96.9453 69.0187 96.6828 69.0169 96.4169C69.0152 96.1511 68.9559 95.8881 68.843 95.6462L65.503 88.6062" stroke="#080D0D" stroke-width="2"/>
<path d="M65.5031 88.606C65.5897 88.266 65.6331 87.836 65.6331 87.316C65.6264 87.136 65.6664 86.996 65.7531 86.896C65.8264 86.8093 65.9131 86.7461 66.0131 86.7061C66.3064 86.5927 66.5431 86.666 66.7231 86.926L76.5331 100.916C77.0397 101.643 77.2764 101.563 77.2431 100.676L76.4731 81.686C76.4706 81.6069 76.49 81.5287 76.5292 81.4599C76.5683 81.3911 76.6257 81.3345 76.695 81.2963C76.7643 81.258 76.8427 81.2396 76.9218 81.2431C77.0009 81.2466 77.0774 81.2718 77.1431 81.316L88.3331 88.996C88.4156 89.0522 88.5129 89.0834 88.6129 89.0858C88.7129 89.0881 88.8112 89.0615 88.8954 89.0093C88.9796 88.957 89.0461 88.8814 89.0866 88.7919C89.1271 88.7025 89.1398 88.6031 89.1231 88.5061L87.2831 76.176C87.2297 75.8227 87.3831 75.626 87.7431 75.586L103.483 73.976C104.99 73.8227 105.08 73.3793 103.753 72.646L91.2331 65.716C91.1605 65.6764 91.1003 65.6175 91.059 65.5458C91.0177 65.4742 90.997 65.3926 90.9991 65.3099C91.0011 65.2273 91.0259 65.1468 91.0707 65.0773C91.1155 65.0078 91.1786 64.952 91.2531 64.916L107.933 56.996C108.032 56.9492 108.116 56.8741 108.173 56.7802C108.23 56.6862 108.258 56.5776 108.254 56.4678C108.25 56.358 108.213 56.2519 108.149 56.1627C108.085 56.0734 107.996 56.005 107.893 55.966L92.4031 50.276C92.3524 50.2571 92.3075 50.2256 92.2723 50.1846C92.2371 50.1435 92.2129 50.0943 92.2019 50.0414C92.1909 49.9885 92.1935 49.9336 92.2095 49.882C92.2254 49.8303 92.2542 49.7836 92.2931 49.746L110.053 32.4561C110.121 32.39 110.161 32.3011 110.167 32.2069C110.172 32.1126 110.142 32.0196 110.083 31.9461C109.956 31.7861 109.79 31.7061 109.583 31.7061C104.19 31.6594 98.8264 31.696 93.4931 31.816C93.4324 31.8187 93.372 31.8067 93.3169 31.7811C93.2618 31.7556 93.2136 31.7172 93.1764 31.6693C93.1392 31.6213 93.114 31.565 93.103 31.5053C93.092 31.4456 93.0954 31.3842 93.1131 31.3261L97.9331 15.366C98.2664 14.266 97.9497 14.0227 96.9831 14.6361L81.5131 24.496C81.4575 24.5293 81.3941 24.5474 81.3293 24.5485C81.2645 24.5496 81.2005 24.5337 81.1438 24.5023C81.0871 24.4709 81.0396 24.4251 81.0061 24.3696C80.9727 24.3141 80.9544 24.2508 80.9531 24.186L80.9631 6.52601C80.9621 6.42201 80.9323 6.32035 80.8768 6.23237C80.8214 6.14439 80.7425 6.07358 80.649 6.0279C80.5556 5.98222 80.4513 5.96343 80.3478 5.9737C80.2443 5.98397 80.1457 6.02286 80.0631 6.08601L66.0731 16.966C65.7931 17.1793 65.5564 17.1394 65.3631 16.846C65.2431 16.6727 65.2097 16.4561 65.2631 16.1961C65.3164 15.9227 65.2997 15.6527 65.2131 15.3861L60.9631 3.15602C60.9445 3.09809 60.9088 3.04718 60.8606 3.01002C60.8125 2.97286 60.7541 2.9512 60.6934 2.94795C60.6327 2.94469 60.5724 2.96003 60.5205 2.99183C60.4687 3.02363 60.4277 3.07043 60.4031 3.12605L52.7831 18.6961C52.7317 18.7997 52.6547 18.8884 52.5594 18.954C52.4642 19.0196 52.3538 19.0597 52.2387 19.0707C52.1235 19.0818 52.0075 19.0632 51.9015 19.0169C51.7956 18.9706 51.7032 18.898 51.6331 18.806L39.0131 2.20606C38.4531 1.46606 38.2464 1.55268 38.3931 2.46601L41.6831 22.856C41.7431 23.2427 41.5931 23.3594 41.2331 23.2061L24.0031 15.716C23.9362 15.6856 23.862 15.6751 23.7893 15.686C23.7167 15.6968 23.6488 15.7286 23.5937 15.7772C23.5387 15.8259 23.499 15.8894 23.4793 15.9602C23.4597 16.031 23.461 16.106 23.4831 16.176L29.0031 34.616C29.0221 34.6754 29.0259 34.7386 29.014 34.7998C29.0021 34.8609 28.9749 34.9181 28.935 34.966C28.8951 35.0139 28.8438 35.0509 28.7858 35.0736C28.7277 35.0964 28.6649 35.1041 28.6031 35.096L9.98308 32.6961C8.80974 32.5494 8.63639 32.8994 9.46306 33.746L25.1231 49.776C25.1493 49.8014 25.1681 49.8335 25.1775 49.8688C25.1868 49.9041 25.1863 49.9413 25.176 49.9763C25.1657 50.0114 25.146 50.0429 25.119 50.0675C25.0921 50.0921 25.0589 50.1089 25.0231 50.116L2.98308 55.416C1.42974 55.7894 1.44974 56.0694 3.04308 56.2561L21.2531 58.3861C21.3388 58.3961 21.4199 58.4307 21.4865 58.4855C21.5532 58.5404 21.6027 58.6134 21.629 58.6956C21.6554 58.7779 21.6575 58.8659 21.6352 58.9494C21.6128 59.0328 21.567 59.108 21.5031 59.166L6.73308 72.646C5.67974 73.606 5.84641 73.9294 7.23308 73.616C12.8197 72.3694 18.4964 70.9294 24.2631 69.296C24.3529 69.2695 24.4481 69.2703 24.5373 69.2982C24.6264 69.3261 24.7055 69.38 24.765 69.4533C24.8244 69.5265 24.8615 69.6158 24.8718 69.7105C24.8822 69.8051 24.8652 69.9009 24.8231 69.986L16.7931 85.786C16.7561 85.863 16.7447 85.9498 16.7606 86.0338C16.7765 86.1177 16.8188 86.1943 16.8814 86.2524C16.944 86.3106 17.0235 86.3471 17.1084 86.3568C17.1933 86.3664 17.279 86.3486 17.3531 86.306C22.3531 83.2394 27.4331 80.3527 32.5931 77.646C32.9531 77.4527 33.1331 77.5593 33.1331 77.966L33.0931 92.426C33.0931 92.986 33.2831 93.0593 33.6631 92.646C36.7631 89.3127 39.6464 85.6594 42.3131 81.686C42.375 81.5956 42.4621 81.5252 42.5636 81.4838C42.665 81.4423 42.7765 81.4316 42.884 81.4529C42.9916 81.4742 43.0905 81.5266 43.1685 81.6036C43.2466 81.6806 43.3003 81.7788 43.3231 81.8861C43.6231 83.4061 43.6831 84.786 43.5031 86.026" stroke="#6A9742" stroke-width="2"/>
<path d="M65.5027 88.6062C64.876 89.2729 64.5027 90.3095 64.3827 91.7162" stroke="#6A9742" stroke-width="2"/>
<path d="M44.1328 88.7761C44.4995 87.3095 44.2895 86.3928 43.5028 86.0261" stroke="#6A9742" stroke-width="2"/>
<path d="M56.562 48.885C56.118 46.2595 54.6491 43.918 52.4786 42.3755C50.3081 40.833 47.6138 40.2159 44.9883 40.6599L41.912 41.1803C39.2865 41.6244 36.945 43.0932 35.4025 45.2637C33.86 47.4342 33.2428 50.1285 33.6869 52.754L34.0038 54.6274C34.4478 57.2529 35.9167 59.5945 38.0872 61.137C40.2577 62.6795 42.952 63.2965 45.5775 62.8525L48.6538 62.3321C51.2793 61.888 53.6208 60.4192 55.1633 58.2487C56.7058 56.0782 57.323 53.3839 56.8789 50.7584L56.562 48.885Z" stroke="#6A9742" stroke-width="2"/>
<path d="M82.1947 50.1042C82.0775 48.791 81.7028 47.5137 81.0919 46.3452C80.4811 45.1768 79.646 44.1401 78.6345 43.2944C77.6231 42.4487 76.4549 41.8104 75.1968 41.4162C73.9386 41.0219 72.6151 40.8793 71.3019 40.9965L68.0947 41.2827C66.7814 41.3999 65.5041 41.7747 64.3357 42.3855C63.1672 42.9964 62.1305 43.8314 61.2848 44.8429C60.4391 45.8544 59.8008 47.0225 59.4065 48.2807C59.0123 49.5388 58.8697 50.8623 58.9869 52.1756L59.1505 54.0082C59.2677 55.3215 59.6424 56.5988 60.2533 57.7672C60.8641 58.9357 61.6991 59.9724 62.7106 60.8181C63.7221 61.6638 64.8903 62.302 66.1484 62.6963C67.4066 63.0905 68.73 63.2331 70.0433 63.1159L73.2505 62.8297C74.5637 62.7125 75.8411 62.3378 77.0095 61.727C78.178 61.1161 79.2146 60.2811 80.0604 59.2696C80.9061 58.2581 81.5443 57.09 81.9386 55.8318C82.3329 54.5737 82.4755 53.2502 82.3583 51.9369L82.1947 50.1042Z" stroke="#6A9742" stroke-width="2"/>
<path d="M50.5154 51.456C50.4423 50.0124 49.7692 48.6585 48.6443 47.6921C47.5194 46.7257 46.0348 46.226 44.517 46.3029C43.7655 46.3409 43.0285 46.5194 42.348 46.8281C41.6676 47.1368 41.057 47.5697 40.5512 48.1021C40.0454 48.6344 39.6542 49.2558 39.4001 49.9308C39.146 50.6057 39.0338 51.321 39.07 52.0358C39.1431 53.4794 39.8162 54.8333 40.9411 55.7997C42.066 56.766 43.5507 57.2658 45.0684 57.1889C45.8199 57.1508 46.557 56.9723 47.2374 56.6636C47.9179 56.3549 48.5284 55.922 49.0342 55.3897C49.54 54.8573 49.9311 54.236 50.1853 53.561C50.4394 52.8861 50.5516 52.1708 50.5154 51.456Z" stroke="#080D0D" stroke-width="2"/>
<path d="M75.9167 52.4704C75.9839 51.7723 75.9042 51.0671 75.6822 50.3948C75.4602 49.7226 75.1001 49.0965 74.6226 48.5524C74.1451 48.0083 73.5595 47.5567 72.8993 47.2235C72.2391 46.8904 71.5171 46.6821 70.7746 46.6106C70.0321 46.5391 69.2837 46.6058 68.572 46.8069C67.8603 47.0079 67.1994 47.3395 66.6268 47.7825C66.0543 48.2255 65.5814 48.7714 65.2352 49.3889C64.8889 50.0064 64.6761 50.6836 64.6089 51.3816C64.5417 52.0797 64.6214 52.7849 64.8435 53.4572C65.0655 54.1294 65.4255 54.7555 65.903 55.2996C66.3805 55.8437 66.9661 56.2953 67.6263 56.6285C68.2866 56.9616 69.0085 57.1699 69.751 57.2414C70.4935 57.3129 71.2419 57.2462 71.9536 57.0451C72.6653 56.8441 73.3263 56.5125 73.8988 56.0695C74.4714 55.6265 74.9442 55.0806 75.2905 54.4631C75.6367 53.8456 75.8495 53.1684 75.9167 52.4704Z" stroke="#080D0D" stroke-width="2"/>
<path d="M65.5031 88.606C64.8764 89.2727 64.5031 90.3093 64.3831 91.716L61.4831 99.036C61.1497 99.8694 60.8531 99.856 60.5931 98.996L57.1431 87.566C57.1147 87.4684 57.0592 87.3808 56.9832 87.3132C56.9072 87.2457 56.8137 87.201 56.7134 87.1843C56.6131 87.1676 56.5101 87.1795 56.4162 87.2188C56.3224 87.258 56.2416 87.3229 56.1831 87.406L47.1731 100.016C46.6397 100.756 46.2931 100.679 46.1331 99.786L44.1331 88.776C44.4997 87.3093 44.2897 86.3927 43.5031 86.026C43.6831 84.786 43.6231 83.4061 43.3231 81.8861C43.3003 81.7788 43.2466 81.6806 43.1685 81.6036C43.0905 81.5266 42.9916 81.4742 42.884 81.4529C42.7765 81.4316 42.6651 81.4423 42.5636 81.4838C42.4621 81.5252 42.375 81.5956 42.3131 81.686C39.6464 85.6594 36.7631 89.3127 33.6631 92.646C33.2831 93.0593 33.0931 92.986 33.0931 92.426L33.1331 77.966C33.1331 77.5593 32.9531 77.4527 32.5931 77.646C27.4331 80.3527 22.3531 83.2394 17.3531 86.306C17.279 86.3486 17.1933 86.3664 17.1084 86.3568C17.0235 86.3471 16.944 86.3106 16.8814 86.2524C16.8188 86.1943 16.7765 86.1177 16.7606 86.0338C16.7447 85.9498 16.7561 85.863 16.7931 85.786L24.8231 69.986C24.8652 69.9009 24.8822 69.8051 24.8718 69.7105C24.8615 69.6158 24.8244 69.5265 24.765 69.4533C24.7055 69.38 24.6264 69.3261 24.5373 69.2982C24.4481 69.2703 24.3529 69.2695 24.2631 69.296C18.4964 70.9294 12.8197 72.3694 7.23308 73.616C5.84641 73.9294 5.67974 73.606 6.73308 72.646L21.5031 59.166C21.567 59.108 21.6128 59.0328 21.6352 58.9494C21.6575 58.8659 21.6554 58.7779 21.629 58.6956C21.6027 58.6134 21.5532 58.5404 21.4865 58.4855C21.4199 58.4307 21.3388 58.3961 21.2531 58.3861L3.04308 56.2561C1.44974 56.0694 1.42974 55.7894 2.98308 55.416L25.0231 50.116C25.0589 50.1089 25.0921 50.0921 25.119 50.0675C25.146 50.0429 25.1657 50.0114 25.176 49.9763C25.1863 49.9413 25.1868 49.9041 25.1775 49.8688C25.1681 49.8335 25.1493 49.8014 25.1231 49.776L9.46306 33.746C8.63639 32.8994 8.80974 32.5494 9.98308 32.6961L28.6031 35.096C28.6649 35.1041 28.7277 35.0964 28.7858 35.0736C28.8438 35.0509 28.8951 35.0139 28.935 34.966C28.9749 34.9181 29.0021 34.8609 29.014 34.7998C29.0259 34.7386 29.0221 34.6754 29.0031 34.616L23.4831 16.176C23.461 16.106 23.4597 16.031 23.4793 15.9602C23.499 15.8894 23.5387 15.8259 23.5937 15.7772C23.6488 15.7286 23.7167 15.6968 23.7893 15.686C23.862 15.6751 23.9362 15.6856 24.0031 15.716L41.2331 23.2061C41.5931 23.3594 41.7431 23.2427 41.6831 22.856L38.3931 2.46601C38.2464 1.55268 38.4531 1.46606 39.0131 2.20606L51.6331 18.806C51.7032 18.898 51.7956 18.9706 51.9015 19.0169C52.0075 19.0632 52.1235 19.0818 52.2387 19.0707C52.3538 19.0597 52.4642 19.0196 52.5594 18.954C52.6547 18.8884 52.7317 18.7997 52.7831 18.6961L60.4031 3.12605C60.4277 3.07043 60.4687 3.02363 60.5205 2.99183C60.5724 2.96003 60.6327 2.94469 60.6934 2.94795C60.7541 2.9512 60.8125 2.97286 60.8606 3.01002C60.9088 3.04718 60.9445 3.09809 60.9631 3.15602L65.2131 15.3861C65.2997 15.6527 65.3164 15.9227 65.2631 16.1961C65.2097 16.4561 65.2431 16.6727 65.3631 16.846C65.5564 17.1394 65.7931 17.1793 66.0731 16.966L80.0631 6.08601C80.1457 6.02286 80.2443 5.98397 80.3478 5.9737C80.4513 5.96343 80.5556 5.98222 80.649 6.0279C80.7425 6.07358 80.8214 6.14439 80.8768 6.23237C80.9323 6.32035 80.9621 6.42201 80.9631 6.52601L80.9531 24.186C80.9544 24.2508 80.9727 24.3141 81.0061 24.3696C81.0396 24.4251 81.0871 24.4709 81.1438 24.5023C81.2005 24.5337 81.2645 24.5496 81.3293 24.5485C81.3941 24.5474 81.4575 24.5293 81.5131 24.496L96.9831 14.6361C97.9497 14.0227 98.2664 14.266 97.9331 15.366L93.1131 31.3261C93.0954 31.3842 93.092 31.4456 93.103 31.5053C93.114 31.565 93.1392 31.6213 93.1764 31.6693C93.2136 31.7172 93.2618 31.7556 93.3169 31.7811C93.372 31.8067 93.4324 31.8187 93.4931 31.816C98.8264 31.696 104.19 31.6594 109.583 31.7061C109.79 31.7061 109.956 31.7861 110.083 31.9461C110.142 32.0196 110.172 32.1126 110.167 32.2069C110.161 32.3011 110.121 32.39 110.053 32.4561L92.2931 49.746C92.2542 49.7836 92.2254 49.8303 92.2095 49.882C92.1935 49.9336 92.1909 49.9885 92.2019 50.0414C92.2129 50.0943 92.2371 50.1435 92.2723 50.1846C92.3075 50.2256 92.3524 50.2571 92.4031 50.276L107.893 55.966C107.996 56.005 108.085 56.0734 108.149 56.1627C108.213 56.2519 108.25 56.358 108.254 56.4678C108.258 56.5776 108.23 56.6862 108.173 56.7802C108.116 56.8741 108.032 56.9492 107.933 56.996L91.2531 64.916C91.1786 64.952 91.1155 65.0078 91.0707 65.0773C91.0259 65.1468 91.0011 65.2273 90.9991 65.3099C90.997 65.3926 91.0177 65.4742 91.059 65.5458C91.1003 65.6175 91.1605 65.6764 91.2331 65.716L103.753 72.646C105.08 73.3793 104.99 73.8227 103.483 73.976L87.7431 75.586C87.3831 75.626 87.2297 75.8227 87.2831 76.176L89.1231 88.5061C89.1398 88.6031 89.1271 88.7025 89.0866 88.7919C89.0461 88.8814 88.9796 88.957 88.8954 89.0093C88.8112 89.0615 88.7129 89.0881 88.6129 89.0858C88.5129 89.0834 88.4156 89.0522 88.3331 88.996L77.1431 81.316C77.0774 81.2718 77.0009 81.2466 76.9218 81.2431C76.8427 81.2396 76.7643 81.258 76.695 81.2963C76.6257 81.3345 76.5683 81.3911 76.5292 81.4599C76.49 81.5287 76.4706 81.6069 76.4731 81.686L77.2431 100.676C77.2764 101.563 77.0397 101.643 76.5331 100.916L66.7231 86.926C66.5431 86.666 66.3064 86.5927 66.0131 86.7061C65.9131 86.7461 65.8264 86.8093 65.7531 86.896C65.6664 86.996 65.6264 87.136 65.6331 87.316C65.6331 87.836 65.5897 88.266 65.5031 88.606ZM56.5622 48.8848C56.1181 46.2594 54.6493 43.9178 52.4788 42.3753C50.3083 40.8328 47.614 40.2157 44.9885 40.6597L41.9122 41.1801C39.2867 41.6242 36.9451 43.093 35.4026 45.2635C33.8601 47.434 33.243 50.1284 33.6871 52.7539L34.004 54.6272C34.448 57.2527 35.9169 59.5943 38.0874 61.1368C40.2578 62.6793 42.9522 63.2964 45.5777 62.8523L48.654 62.3319C51.2795 61.8879 53.621 60.419 55.1635 58.2485C56.706 56.0781 57.3231 53.3837 56.8791 50.7583L56.5622 48.8848ZM82.1952 50.104C82.078 48.7908 81.7032 47.5135 81.0924 46.345C80.4815 45.1766 79.6465 44.1399 78.635 43.2942C77.6235 42.4485 76.4554 41.8102 75.1973 41.416C73.9391 41.0217 72.6156 40.8791 71.3024 40.9963L68.0952 41.2825C66.7819 41.3997 65.5046 41.7745 64.3361 42.3853C63.1677 42.9962 62.131 43.8312 61.2853 44.8427C60.4396 45.8542 59.8013 47.0223 59.407 48.2805C59.0128 49.5386 58.8702 50.8621 58.9874 52.1754L59.151 54.008C59.2682 55.3213 59.6429 56.5986 60.2538 57.767C60.8646 58.9355 61.6996 59.9722 62.7111 60.8179C63.7226 61.6636 64.8908 62.3018 66.1489 62.6961C67.4071 63.0903 68.7305 63.2329 70.0438 63.1157L73.251 62.8295C74.5642 62.7123 75.8416 62.3376 77.01 61.7268C78.1784 61.1159 79.2151 60.2809 80.0609 59.2694C80.9066 58.2579 81.5448 57.0898 81.9391 55.8316C82.3334 54.5735 82.476 53.25 82.3588 51.9367L82.1952 50.104Z" fill="#6A9742"/>
<path d="M56.8789 50.7584C57.323 53.3839 56.7058 56.0782 55.1633 58.2487C53.6208 60.4192 51.2793 61.888 48.6538 62.3321L45.5775 62.8525C42.952 63.2965 40.2577 62.6795 38.0872 61.137C35.9167 59.5945 34.4478 57.2529 34.0038 54.6274L33.6869 52.754C33.2428 50.1285 33.86 47.4342 35.4025 45.2637C36.945 43.0932 39.2865 41.6244 41.912 41.1803L44.9883 40.6599C47.6138 40.2159 50.3081 40.833 52.4786 42.3755C54.6491 43.918 56.118 46.2595 56.562 48.885L56.8789 50.7584ZM50.5156 51.4563C50.4425 50.0127 49.7694 48.6588 48.6445 47.6924C47.5196 46.7261 46.035 46.2263 44.5172 46.3032C43.7657 46.3413 43.0287 46.5197 42.3482 46.8284C41.6678 47.1371 41.0572 47.5701 40.5514 48.1024C40.0456 48.6348 39.6544 49.2561 39.4003 49.9311C39.1462 50.606 39.034 51.3213 39.0702 52.0361C39.1433 53.4797 39.8164 54.8336 40.9413 55.8C42.0662 56.7664 43.5509 57.2661 45.0686 57.1892C45.8201 57.1512 46.5572 56.9726 47.2376 56.6639C47.9181 56.3552 48.5286 55.9224 49.0344 55.39C49.5402 54.8577 49.9313 54.2363 50.1855 53.5613C50.4396 52.8864 50.5518 52.1711 50.5156 51.4563Z" fill="white"/>
<path d="M82.3583 51.9369C82.4755 53.2502 82.3329 54.5737 81.9386 55.8318C81.5443 57.09 80.9061 58.2581 80.0604 59.2696C79.2146 60.2811 78.178 61.1161 77.0095 61.727C75.8411 62.3378 74.5637 62.7125 73.2505 62.8297L70.0433 63.1159C68.73 63.2331 67.4066 63.0905 66.1484 62.6963C64.8903 62.302 63.7221 61.6638 62.7106 60.8181C61.6991 59.9724 60.8641 58.9357 60.2533 57.7672C59.6424 56.5988 59.2677 55.3215 59.1505 54.0082L58.9869 52.1756C58.8697 50.8623 59.0123 49.5388 59.4065 48.2807C59.8008 47.0225 60.4391 45.8544 61.2848 44.8429C62.1305 43.8314 63.1672 42.9964 64.3357 42.3855C65.5041 41.7747 66.7814 41.3999 68.0947 41.2827L71.3019 40.9965C72.6151 40.8793 73.9386 41.0219 75.1968 41.4162C76.4549 41.8104 77.6231 42.4487 78.6345 43.2944C79.646 44.1401 80.4811 45.1768 81.0919 46.3452C81.7028 47.5137 82.0775 48.791 82.1947 50.1042L82.3583 51.9369ZM75.9165 52.4706C75.9837 51.7726 75.904 51.0673 75.682 50.395C75.4599 49.7228 75.0999 49.0968 74.6224 48.5526C74.1449 48.0085 73.5593 47.5569 72.8991 47.2238C72.2388 46.8906 71.5169 46.6823 70.7744 46.6108C70.0319 46.5393 69.2834 46.606 68.5718 46.8071C67.8601 47.0082 67.1991 47.3397 66.6266 47.7827C66.054 48.2258 65.5811 48.7716 65.2349 49.3891C64.8887 50.0067 64.6759 50.6838 64.6087 51.3819C64.5415 52.0799 64.6212 52.7852 64.8432 53.4574C65.0653 54.1297 65.4253 54.7557 65.9028 55.2998C66.3803 55.844 66.9658 56.2955 67.6261 56.6287C68.2863 56.9619 69.0083 57.1702 69.7508 57.2417C70.4933 57.3132 71.2417 57.2464 71.9534 57.0454C72.6651 56.8443 73.326 56.5128 73.8986 56.0697C74.4711 55.6267 74.944 55.0809 75.2902 54.4633C75.6365 53.8458 75.8493 53.1686 75.9165 52.4706Z" fill="white"/>
<path d="M45.0684 57.1892C48.229 57.0291 50.6676 54.4623 50.5154 51.4562C50.3631 48.4501 47.6775 46.143 44.517 46.3031C41.3564 46.4632 38.9178 49.0299 39.07 52.036C39.2223 55.0421 41.9079 57.3493 45.0684 57.1892Z" fill="#080D0D"/>
<path d="M69.7512 57.2414C72.8737 57.5421 75.6342 55.406 75.9169 52.4704C76.1995 49.5348 73.8974 46.9112 70.7748 46.6106C67.6523 46.3099 64.8918 48.446 64.6092 51.3816C64.3265 54.3172 66.6287 56.9407 69.7512 57.2414Z" fill="#080D0D"/>
<path d="M43.503 86.0261C44.2897 86.3928 44.4997 87.3095 44.133 88.7761L24.583 109.216C24.3163 109.496 24.0497 109.496 23.783 109.216L17.113 102.336C16.9458 102.164 16.853 101.934 16.8549 101.694C16.8568 101.454 16.9531 101.225 17.123 101.056L17.363 100.806C17.4749 100.695 17.6079 100.608 17.7541 100.549C17.9003 100.491 18.0568 100.462 18.2143 100.465C18.3718 100.468 18.5272 100.502 18.6712 100.566C18.8153 100.629 18.9451 100.721 19.053 100.836L23.643 105.746C23.7129 105.82 23.7969 105.879 23.8899 105.92C23.9829 105.961 24.0829 105.982 24.184 105.983C24.285 105.984 24.3848 105.964 24.4775 105.925C24.5702 105.886 24.6537 105.829 24.723 105.756L43.503 86.0261Z" fill="#080D0D"/>
<path d="M65.503 88.6062L68.843 95.6462C68.9559 95.8881 69.0152 96.1511 69.0169 96.4169C69.0187 96.6828 68.9627 96.9453 68.853 97.1862L59.843 117.366C59.8139 117.431 59.7983 117.501 59.7972 117.572C59.7961 117.643 59.8095 117.713 59.8367 117.779C59.8639 117.845 59.9042 117.904 59.9552 117.953C60.0061 118.003 60.0667 118.041 60.133 118.066L67.473 120.856C68.0064 121.063 68.1864 121.44 68.013 121.986L67.803 122.656C67.773 122.754 67.7231 122.844 67.6564 122.921C67.5898 122.999 67.5079 123.061 67.4158 123.106C67.3238 123.15 67.2236 123.174 67.1216 123.178C67.0196 123.181 66.9179 123.164 66.823 123.126L56.993 119.376C56.5864 119.223 56.473 118.95 56.653 118.556L66.183 97.2262C66.3164 96.9329 66.3231 96.6362 66.2031 96.3362L64.383 91.7162C64.503 90.3095 64.8764 89.2729 65.503 88.6062Z" fill="#080D0D"/>
</svg>
