<svg width="120" height="122" viewBox="0 0 120 122" fill="none" xmlns="http://www.w3.org/2000/svg">
<path d="M47.2969 79.9276L49.5069 88.4075C49.5665 88.632 49.5605 88.8694 49.4897 89.0923C49.4189 89.3153 49.2862 89.5147 49.1069 89.6675L31.9669 103.998C31.7873 104.146 31.6688 104.356 31.6337 104.586C31.5987 104.817 31.6497 105.052 31.7769 105.248L37.697 114.518C37.8423 114.749 38.0738 114.913 38.3414 114.975C38.609 115.037 38.8912 114.991 39.1269 114.848C39.2402 114.774 39.3569 114.714 39.4769 114.668C39.5856 114.625 39.6837 114.559 39.764 114.474C39.8442 114.39 39.9047 114.288 39.941 114.177C39.9773 114.066 39.9886 113.949 39.9741 113.833C39.9595 113.717 39.9195 113.606 39.8569 113.508L34.697 105.418C34.6165 105.294 34.5841 105.145 34.6063 105C34.6284 104.854 34.7034 104.722 34.817 104.628L51.7369 90.5176C51.9338 90.3531 52.0792 90.1362 52.1555 89.8931C52.2318 89.65 52.2358 89.3911 52.1669 89.1476L49.327 78.7375" stroke="#7F6D63" stroke-width="2"/>
<path d="M49.3271 78.7372C49.5471 78.0639 49.9336 77.6838 50.487 77.5972C51.3003 77.4772 51.847 77.8039 52.127 78.5772L60.797 102.697C60.8243 102.775 60.8735 102.844 60.9386 102.894C61.0038 102.945 61.0822 102.976 61.1645 102.983C61.2467 102.991 61.3293 102.974 61.4025 102.936C61.4757 102.898 61.5363 102.839 61.5771 102.767C64.7237 97.4939 67.6304 92.1172 70.297 86.6372C70.457 86.3039 70.747 86.2572 71.167 86.4972" stroke="#FB9A7F" stroke-width="2"/>
<path d="M71.1669 86.4973L74.1568 91.3073C74.5965 92.0183 74.7767 92.8626 74.6669 93.6973L71.0968 119.757C71.0368 120.184 71.2235 120.397 71.6568 120.397L84.1669 120.327C84.3923 120.325 84.6073 120.234 84.7649 120.074C84.9224 119.915 85.0095 119.7 85.0068 119.477V118.647C85.0068 118.181 84.7702 117.947 84.2969 117.947L74.2869 117.927C74.2183 117.927 74.1507 117.911 74.0886 117.882C74.0265 117.853 73.9713 117.811 73.9267 117.759C73.8822 117.707 73.8494 117.646 73.8304 117.58C73.8115 117.514 73.8069 117.445 73.8169 117.377L77.0369 92.9072C77.1141 92.3185 76.987 91.7218 76.6769 91.2172L72.1669 83.9172" stroke="#7F6D63" stroke-width="2"/>
<path d="M72.1672 83.9171C72.2805 83.7504 72.3239 83.5538 72.2972 83.3271C72.2804 83.2116 72.2948 83.0939 72.3392 82.986C72.3835 82.8781 72.4562 82.7837 72.5496 82.7126C72.6431 82.6415 72.754 82.5961 72.8713 82.5811C72.9885 82.5661 73.1079 82.5819 73.2171 82.6271L115.577 100.287C116.037 100.474 116.161 100.344 115.947 99.8971C115.754 99.4971 115.514 99.1037 115.227 98.7171C105.34 85.5571 96.2872 73.2638 88.0672 61.8371C88.0245 61.7757 87.9974 61.7047 87.9882 61.6305C87.9791 61.5562 87.9881 61.4808 88.0147 61.4109C88.0413 61.3409 88.0846 61.2785 88.1408 61.229C88.197 61.1796 88.2643 61.1446 88.3371 61.1271L117.117 54.4971C118.724 54.1304 118.734 53.7171 117.147 53.2571L87.4372 44.6771C87.3214 44.6441 87.2133 44.588 87.1198 44.5121C87.0263 44.4362 86.9491 44.3421 86.893 44.2356C86.8369 44.129 86.8031 44.0121 86.7935 43.8921C86.7839 43.772 86.7987 43.6512 86.8371 43.5371L97.7371 11.4671C98.0571 10.5204 97.8004 10.3171 96.9671 10.8571L70.7171 27.7471C70.6361 27.7997 70.5443 27.8336 70.4486 27.8463C70.3528 27.859 70.2554 27.8502 70.1634 27.8205C70.0714 27.7908 69.9872 27.741 69.9169 27.6746C69.8467 27.6083 69.7921 27.5272 69.7571 27.4371L59.6372 2.45712C59.2238 1.43712 58.8738 1.46046 58.5871 2.52712L51.8771 27.7471C51.8203 27.9631 51.6922 28.1532 51.514 28.286C51.3358 28.4187 51.1181 28.4862 50.8972 28.4771L9.36713 27.0371C8.4138 27.0037 8.34718 27.2304 9.16718 27.7171L35.7271 43.6771C35.8338 43.7401 35.9199 43.8325 35.975 43.9433C36.0302 44.0542 36.0523 44.1788 36.0386 44.3028C36.025 44.4267 35.9762 44.5447 35.898 44.6428C35.8198 44.741 35.7154 44.8154 35.5971 44.8571C24.4371 48.7637 13.2872 52.6571 2.14716 56.5371C1.90049 56.6237 1.75054 56.7571 1.69721 56.9371C1.62388 57.1504 1.70052 57.2738 1.92719 57.3071L33.8471 61.1871C33.9372 61.1981 34.0232 61.2313 34.0974 61.2837C34.1715 61.336 34.2317 61.4058 34.2723 61.487C34.3129 61.5682 34.3328 61.6582 34.3301 61.749C34.3275 61.8397 34.3024 61.9284 34.2571 62.0071L14.6972 95.7971C14.662 95.8579 14.6527 95.9306 14.6713 95.9997C14.69 96.0687 14.7352 96.1288 14.7972 96.1671C14.8705 96.2137 14.9505 96.2371 15.0372 96.2371C15.1105 96.2371 15.1805 96.2204 15.2471 96.1871C24.8805 91.1738 34.5138 86.1571 44.1472 81.1371C44.3472 81.0304 44.8038 80.7138 45.5172 80.1871C46.1705 79.7004 46.7639 79.6138 47.2972 79.9271" stroke="#FB9A7F" stroke-width="2"/>
<path d="M72.1671 83.9172C71.4071 84.3239 71.0737 85.1839 71.1671 86.4973" stroke="#843B29" stroke-width="2"/>
<path d="M49.3268 78.7374C48.4801 78.5308 47.8035 78.9274 47.2968 79.9274" stroke="#843B29" stroke-width="2"/>
<path d="M59.5645 51.8115C59.2087 48.7824 57.6065 46.0254 55.1105 44.1471C52.6145 42.2688 49.4291 41.4231 46.2551 41.796C44.6835 41.9806 43.162 42.4588 41.7774 43.2034C40.3929 43.9479 39.1723 44.9442 38.1856 46.1353C37.1989 47.3265 36.4652 48.6891 36.0266 50.1455C35.5879 51.6019 35.4529 53.1235 35.6291 54.6234C35.9849 57.6525 37.5871 60.4095 40.0831 62.2878C42.5791 64.1661 45.7645 65.0118 48.9385 64.6389C50.5102 64.4543 52.0316 63.9761 53.4162 63.2315C54.8008 62.487 56.0213 61.4907 57.008 60.2996C57.9947 59.1084 58.7283 57.7457 59.1669 56.2894C59.6056 54.833 59.7407 53.3114 59.5645 51.8115Z" stroke="#FFB4A2" stroke-width="2"/>
<path d="M85.1007 51.6643C84.8975 48.9615 83.6289 46.45 81.574 44.6825C79.519 42.915 76.846 42.0363 74.1432 42.2395L70.9722 42.4779C69.6338 42.5785 68.3284 42.9417 67.1305 43.5469C65.9325 44.152 64.8655 44.9871 63.9903 46.0046C63.1152 47.0221 62.449 48.2021 62.0298 49.477C61.6106 50.752 61.4466 52.097 61.5472 53.4353L61.6927 55.37C61.896 58.0728 63.1645 60.5843 65.2195 62.3518C67.2744 64.1193 69.9474 64.9981 72.6503 64.7949L75.8213 64.5565C77.1596 64.4559 78.465 64.0926 79.663 63.4875C80.8609 62.8823 81.9279 62.0472 82.8031 61.0297C83.6783 60.0122 84.3445 58.8323 84.7637 57.5574C85.1829 56.2824 85.3468 54.9373 85.2462 53.599L85.1007 51.6643Z" stroke="#FFB4A2" stroke-width="2"/>
<path d="M50.287 53.1672C50.287 52.3053 49.9446 51.4786 49.3351 50.8691C48.7256 50.2596 47.899 49.9172 47.037 49.9172C46.1751 49.9172 45.3484 50.2596 44.7389 50.8691C44.1294 51.4786 43.787 52.3053 43.787 53.1672C43.787 54.0292 44.1294 54.8558 44.7389 55.4653C45.3484 56.0748 46.1751 56.4172 47.037 56.4172C47.899 56.4172 48.7256 56.0748 49.3351 55.4653C49.9446 54.8558 50.287 54.0292 50.287 53.1672Z" stroke="#848686" stroke-width="2"/>
<path d="M76.1767 53.4072C76.1767 52.5426 75.8332 51.7134 75.2218 51.1021C74.6105 50.4907 73.7813 50.1472 72.9167 50.1472C72.0521 50.1472 71.2228 50.4907 70.6115 51.1021C70.0001 51.7134 69.6566 52.5426 69.6566 53.4072C69.6566 54.2718 70.0001 55.101 70.6115 55.7123C71.2228 56.3237 72.0521 56.6672 72.9167 56.6672C73.7813 56.6672 74.6105 56.3237 75.2218 55.7123C75.8332 55.101 76.1767 54.2718 76.1767 53.4072Z" stroke="#848686" stroke-width="2"/>
<path d="M72.1672 83.9171C71.4072 84.3237 71.0739 85.1838 71.1672 86.4971C70.7472 86.2571 70.4572 86.3038 70.2972 86.6371C67.6305 92.1171 64.7239 97.4938 61.5772 102.767C61.5365 102.839 61.4758 102.898 61.4027 102.936C61.3295 102.974 61.2469 102.991 61.1646 102.983C61.0823 102.976 61.004 102.945 60.9388 102.894C60.8736 102.844 60.8245 102.775 60.7972 102.697L52.1271 78.5771C51.8471 77.8038 51.3005 77.4771 50.4871 77.5971C49.9338 77.6837 49.5472 78.0638 49.3272 78.7371C48.4805 78.5304 47.8039 78.9271 47.2972 79.9271C46.7639 79.6138 46.1705 79.7004 45.5172 80.1871C44.8038 80.7138 44.3472 81.0304 44.1472 81.1371C34.5138 86.1571 24.8805 91.1738 15.2471 96.1871C15.1805 96.2204 15.1105 96.2371 15.0372 96.2371C14.9505 96.2371 14.8705 96.2137 14.7972 96.1671C14.7352 96.1288 14.69 96.0687 14.6713 95.9997C14.6527 95.9306 14.662 95.8579 14.6972 95.7971L34.2571 62.0071C34.3024 61.9284 34.3275 61.8397 34.3301 61.749C34.3328 61.6582 34.3129 61.5682 34.2723 61.487C34.2317 61.4058 34.1715 61.336 34.0974 61.2837C34.0232 61.2313 33.9372 61.1981 33.8471 61.1871L1.92719 57.3071C1.70052 57.2738 1.62388 57.1504 1.69721 56.9371C1.75054 56.7571 1.90049 56.6237 2.14716 56.5371C13.2872 52.6571 24.4371 48.7637 35.5971 44.8571C35.7154 44.8154 35.8198 44.741 35.898 44.6428C35.9762 44.5447 36.025 44.4267 36.0386 44.3028C36.0523 44.1788 36.0302 44.0541 35.975 43.9433C35.9199 43.8325 35.8338 43.7401 35.7271 43.6771L9.16718 27.7171C8.34718 27.2304 8.4138 27.0037 9.36713 27.0371L50.8972 28.4771C51.1181 28.4862 51.3358 28.4187 51.514 28.286C51.6922 28.1532 51.8203 27.9631 51.8771 27.7471L58.5871 2.52712C58.8738 1.46046 59.2238 1.43712 59.6372 2.45712L69.7571 27.4371C69.7921 27.5272 69.8467 27.6083 69.9169 27.6746C69.9872 27.741 70.0714 27.7908 70.1634 27.8205C70.2554 27.8502 70.3528 27.859 70.4486 27.8463C70.5443 27.8336 70.6361 27.7997 70.7171 27.7471L96.9671 10.8571C97.8004 10.3171 98.0571 10.5204 97.7371 11.4671L86.8371 43.5371C86.7987 43.6512 86.7839 43.772 86.7935 43.8921C86.8031 44.0121 86.8369 44.129 86.893 44.2356C86.9491 44.3421 87.0263 44.4362 87.1198 44.5121C87.2133 44.588 87.3214 44.6441 87.4372 44.6771L117.147 53.2571C118.734 53.7171 118.724 54.1304 117.117 54.4971L88.3371 61.1271C88.2643 61.1446 88.197 61.1796 88.1408 61.229C88.0846 61.2785 88.0413 61.3409 88.0147 61.4109C87.9881 61.4808 87.9791 61.5562 87.9882 61.6305C87.9974 61.7047 88.0245 61.7757 88.0672 61.8371C96.2872 73.2638 105.34 85.5571 115.227 98.7171C115.514 99.1037 115.754 99.4971 115.947 99.8971C116.161 100.344 116.037 100.474 115.577 100.287L73.2171 82.6271C73.1079 82.5819 72.9885 82.5661 72.8713 82.5811C72.754 82.5961 72.6431 82.6415 72.5496 82.7126C72.4562 82.7837 72.3835 82.8781 72.3392 82.986C72.2948 83.0939 72.2804 83.2116 72.2972 83.3271C72.3239 83.5538 72.2805 83.7504 72.1672 83.9171ZM59.5649 51.8112C59.209 48.782 57.6069 46.025 55.1109 44.1468C52.6149 42.2685 49.4295 41.4228 46.2554 41.7956C44.6838 41.9802 43.1623 42.4585 41.7778 43.203C40.3932 43.9476 39.1727 44.9438 38.186 46.135C37.1993 47.3261 36.4656 48.6888 36.0269 50.1452C35.5883 51.6015 35.4533 53.1231 35.6295 54.623C35.9853 57.6522 37.5874 60.4091 40.0834 62.2874C42.5794 64.1657 45.7649 65.0114 48.9389 64.6386C50.5105 64.4539 52.032 63.9757 53.4166 63.2312C54.8011 62.4866 56.0217 61.4904 57.0084 60.2992C57.9951 59.1081 58.7287 57.7454 59.1673 56.289C59.6059 54.8326 59.7411 53.3111 59.5649 51.8112ZM85.1011 51.6643C84.8979 48.9614 83.6293 46.45 81.5744 44.6825C79.5195 42.9149 76.8465 42.0362 74.1436 42.2394L70.9726 42.4778C69.6343 42.5784 68.3289 42.9417 67.1309 43.5468C65.933 44.1519 64.866 44.987 63.9908 46.0045C63.1156 47.022 62.4494 48.202 62.0302 49.477C61.611 50.7519 61.447 52.0969 61.5477 53.4353L61.6932 55.3699C61.8964 58.0728 63.165 60.5842 65.2199 62.3517C67.2748 64.1192 69.9478 64.9981 72.6507 64.7948L75.8217 64.5564C77.1601 64.4558 78.4654 64.0925 79.6634 63.4874C80.8614 62.8823 81.9283 62.0471 82.8035 61.0296C83.6787 60.0121 84.3449 58.8322 84.7641 57.5573C85.1833 56.2823 85.3473 54.9372 85.2467 53.5989L85.1011 51.6643Z" fill="#FFAB00"/>
<path d="M59.5645 51.8115C59.7407 53.3114 59.6056 54.833 59.1669 56.2894C58.7283 57.7457 57.9947 59.1084 57.008 60.2996C56.0213 61.4907 54.8008 62.487 53.4162 63.2315C52.0316 63.9761 50.5102 64.4543 48.9385 64.6389C45.7645 65.0118 42.5791 64.1661 40.0831 62.2878C37.5871 60.4095 35.9849 57.6525 35.6291 54.6234C35.4529 53.1235 35.5879 51.6019 36.0266 50.1455C36.4652 48.6891 37.1989 47.3265 38.1856 46.1353C39.1723 44.9442 40.3929 43.9479 41.7774 43.2034C43.162 42.4588 44.6835 41.9806 46.2551 41.796C49.4291 41.4231 52.6145 42.2688 55.1105 44.1471C57.6065 46.0254 59.2087 48.7824 59.5645 51.8115ZM50.2868 53.1674C50.2868 52.3055 49.9444 51.4788 49.3349 50.8693C48.7254 50.2598 47.8988 49.9174 47.0368 49.9174C46.1749 49.9174 45.3482 50.2598 44.7387 50.8693C44.1292 51.4788 43.7868 52.3055 43.7868 53.1674C43.7868 54.0294 44.1292 54.856 44.7387 55.4655C45.3482 56.075 46.1749 56.4174 47.0368 56.4174C47.8988 56.4174 48.7254 56.075 49.3349 55.4655C49.9444 54.856 50.2868 54.0294 50.2868 53.1674Z" fill="white"/>
<path d="M85.2462 53.599C85.3468 54.9373 85.1828 56.2824 84.7637 57.5574C84.3445 58.8323 83.6783 60.0122 82.8031 61.0297C81.9279 62.0472 80.8609 62.8823 79.663 63.4875C78.465 64.0926 77.1596 64.4559 75.8213 64.5565L72.6503 64.7949C69.9474 64.9981 67.2744 64.1193 65.2195 62.3518C63.1645 60.5843 61.896 58.0728 61.6927 55.37L61.5472 53.4353C61.4466 52.097 61.6106 50.752 62.0298 49.477C62.449 48.2021 63.1152 47.0221 63.9903 46.0046C64.8655 44.9871 65.9325 44.152 67.1305 43.5469C68.3284 42.9417 69.6338 42.5785 70.9722 42.4779L74.1432 42.2395C76.846 42.0363 79.519 42.915 81.574 44.6825C83.6289 46.45 84.8975 48.9615 85.1007 51.6643L85.2462 53.599ZM76.1767 53.4071C76.1767 52.5425 75.8333 51.7134 75.2219 51.102C74.6105 50.4907 73.7813 50.1472 72.9167 50.1472C72.0521 50.1472 71.2229 50.4907 70.6116 51.102C70.0002 51.7134 69.6567 52.5425 69.6567 53.4071C69.6567 54.2718 70.0002 55.101 70.6116 55.7123C71.2229 56.3237 72.0521 56.6672 72.9167 56.6672C73.7813 56.6672 74.6105 56.3237 75.2219 55.7123C75.8333 55.101 76.1767 54.2718 76.1767 53.4071Z" fill="white"/>
<path d="M47.037 56.4172C48.8319 56.4172 50.287 54.9622 50.287 53.1672C50.287 51.3723 48.8319 49.9172 47.037 49.9172C45.2421 49.9172 43.787 51.3723 43.787 53.1672C43.787 54.9622 45.2421 56.4172 47.037 56.4172Z" fill="#080D0D"/>
<path d="M72.9167 56.6672C74.7171 56.6672 76.1767 55.2076 76.1767 53.4072C76.1767 51.6067 74.7171 50.1472 72.9167 50.1472C71.1162 50.1472 69.6566 51.6067 69.6566 53.4072C69.6566 55.2076 71.1162 56.6672 72.9167 56.6672Z" fill="#080D0D"/>
<path d="M49.327 78.7374L52.1669 89.1475C52.2358 89.3909 52.2318 89.6498 52.1555 89.8929C52.0792 90.136 51.9338 90.353 51.7369 90.5174L34.817 104.627C34.7034 104.721 34.6284 104.854 34.6063 105C34.5841 105.145 34.6165 105.294 34.697 105.417L39.8569 113.507C39.9195 113.606 39.9595 113.717 39.9741 113.833C39.9886 113.949 39.9773 114.066 39.941 114.177C39.9047 114.288 39.8442 114.39 39.764 114.474C39.6837 114.559 39.5856 114.625 39.4769 114.667C39.3569 114.714 39.2402 114.774 39.1269 114.847C38.8912 114.991 38.609 115.037 38.3414 114.975C38.0738 114.913 37.8423 114.749 37.697 114.517L31.7769 105.247C31.6497 105.052 31.5987 104.817 31.6337 104.586C31.6688 104.356 31.7873 104.146 31.9669 103.997L49.1069 89.6674C49.2862 89.5146 49.4189 89.3152 49.4897 89.0922C49.5605 88.8693 49.5665 88.6318 49.5069 88.4074L47.2969 79.9274C47.8036 78.9274 48.4803 78.5308 49.327 78.7374Z" fill="#080D0D"/>
<path d="M72.1669 83.9172L76.6769 91.2172C76.987 91.7218 77.1141 92.3185 77.0369 92.9072L73.8169 117.377C73.8069 117.445 73.8115 117.514 73.8304 117.58C73.8494 117.646 73.8822 117.707 73.9267 117.759C73.9713 117.811 74.0265 117.853 74.0886 117.882C74.1507 117.911 74.2183 117.927 74.2869 117.927L84.2969 117.947C84.7702 117.947 85.0068 118.181 85.0068 118.647V119.477C85.0095 119.7 84.9224 119.915 84.7649 120.074C84.6073 120.234 84.3923 120.325 84.1669 120.327L71.6568 120.397C71.2235 120.397 71.0368 120.184 71.0968 119.757L74.6669 93.6973C74.7767 92.8626 74.5965 92.0183 74.1568 91.3073L71.1669 86.4973C71.0735 85.1839 71.4069 84.3239 72.1669 83.9172Z" fill="#080D0D"/>
</svg>
