<svg width="129" height="37" viewBox="0 0 129 37" fill="none" xmlns="http://www.w3.org/2000/svg">
<path d="M18.6728 21.9466C18.308 16.3785 18.2344 10.196 18.452 3.39916C18.5385 0.903124 19.9208 -0.162479 22.3785 0.0199236C24.8169 0.199126 26.0393 1.51115 26.0457 3.95598C26.0777 13.2873 26.0265 22.385 25.8921 31.2491C25.8729 32.3147 25.9593 33.0731 25.4025 34.0524C22.7049 38.8236 17.3288 36.5964 15.38 32.2379C12.6088 26.0618 10.2375 20.0874 8.26628 14.3145C7.57507 12.2985 7.32229 12.3529 7.50789 14.4777C7.94949 19.6362 7.9911 25.8699 7.6327 33.1787C7.50789 35.6748 6.13509 36.7116 3.68706 36.5484C1.28063 36.3884 0.0677772 35.0987 0.048577 32.6795C-0.00902374 24.5578 -0.015384 15.9209 0.0294166 6.76881C0.0358167 4.68238 0.493415 2.97356 1.40223 1.64235C2.71744 -0.268078 5.2903 -0.124086 7.36392 0.221518C7.68393 0.272719 7.96548 0.410313 8.20868 0.634316C9.6167 1.95273 10.8744 3.98158 11.9816 6.72082C14.2216 12.2761 16.1736 17.4089 17.8376 22.1194C18.5288 24.065 18.8072 24.0074 18.6728 21.9466Z" fill="black"/>
<path d="M44.2712 15.0871L52.3064 14.9623C52.6404 14.9572 52.9721 15.0187 53.2822 15.1432C53.5924 15.2677 53.8748 15.4527 54.1132 15.6875C54.3516 15.9223 54.5412 16.2023 54.6711 16.5112C54.8009 16.8201 54.8685 17.1518 54.8697 17.4871V18.1207C54.8761 20.0215 53.9289 21.0168 52.0281 21.1064C48.7128 21.2664 46.1016 21.3015 44.1943 21.2119C44.0215 21.2055 43.9352 21.2855 43.9352 21.4519L43.8487 28.6713C43.8487 28.8633 43.9447 28.9592 44.1367 28.9592C50.2744 28.78 53.6249 28.8857 54.1881 29.2761C57.2601 31.3881 56.3385 36.3034 52.4409 36.5338C49.6568 36.7002 46.86 36.761 44.0504 36.7162C38.5911 36.6202 35.8198 33.9353 35.7366 28.6616C35.6278 22.0376 35.6278 15.1543 35.7366 8.01178C35.7814 5.16374 36.6263 3.01973 38.2711 1.57972C39.3399 0.645304 40.8759 0.162089 42.8791 0.130088C46.0984 0.0852878 49.212 0.104486 52.2201 0.187687C54.6137 0.258088 55.8233 1.49332 55.8489 3.89335C55.8553 4.36055 55.8201 4.80855 55.7433 5.23736C55.6165 5.97828 55.2319 6.65054 54.6575 7.13538C54.0831 7.62022 53.3557 7.88642 52.604 7.88697H44.2615C44.1572 7.88697 44.057 7.92844 43.9832 8.00226C43.9094 8.07607 43.868 8.17619 43.868 8.28058L43.8967 14.7319C43.898 14.7798 43.9086 14.827 43.9281 14.8708C43.9476 14.9145 43.9756 14.9541 44.0103 14.987C44.0451 15.02 44.0861 15.0458 44.1308 15.063C44.1756 15.0802 44.2232 15.0883 44.2712 15.0871Z" fill="black"/>
<path d="M67.2776 1.62765L66.747 2.27806C65.2485 4.11494 65.2485 7.09309 66.747 8.92997L88.3024 35.3528C89.8009 37.1897 92.2305 37.1897 93.7289 35.3528L94.2595 34.7024C95.758 32.8655 95.758 29.8874 94.2595 28.0505L72.7042 1.62765C71.2057 -0.209218 68.7761 -0.209218 67.2776 1.62765Z" fill="black"/>
<path d="M93.7291 1.62765L94.2597 2.27806C95.7582 4.11494 95.7582 7.09309 94.2597 8.92997L72.7043 35.3528C71.2058 37.1897 68.7763 37.1897 67.2778 35.3528L66.7472 34.7024C65.2487 32.8655 65.2487 29.8874 66.7472 28.0505L88.3025 1.62765C89.801 -0.209218 92.2306 -0.209218 93.7291 1.62765Z" fill="black"/>
<path d="M121.284 8.7525C121.188 16.6566 121.14 24.6215 121.14 32.6472C121.14 35.3256 119.633 36.66 117.022 36.7272C114.385 36.804 113.034 35.524 112.97 32.8872C112.778 24.6503 112.74 16.6406 112.855 8.85809C112.868 8.39728 112.647 8.22129 112.193 8.33009C110.254 8.8101 106.673 8.60849 105.521 6.52527C105.028 5.65486 104.874 4.53805 105.06 3.17484C105.188 2.27882 105.597 1.55561 106.289 1.0052C106.781 0.621194 107.514 0.416407 108.487 0.390806C113.62 0.269205 118.999 0.237198 124.625 0.294799C126.487 0.313999 127.713 0.813203 128.302 1.79242C129.089 3.10443 129.211 4.51565 128.667 6.02607C127.755 8.5509 123.886 8.31089 121.783 8.26289C121.457 8.25649 121.291 8.4197 121.284 8.7525Z" fill="black"/>
</svg>
