<svg width="57" height="36" viewBox="0 0 57 36" fill="none" xmlns="http://www.w3.org/2000/svg">
<path d="M32.886 11.166C32.9172 9.18472 32.912 7.01885 32.8704 4.66838C32.8496 3.48274 33.0862 2.4817 33.5802 1.66528C35.7487 -1.93064 39.8126 1.11926 42.1371 3.13172C46.1568 6.61584 50.0413 10.0246 53.7907 13.3579C55.6705 15.0271 57.995 17.4842 56.1853 20.0739C55.2285 21.4363 53.9623 22.7858 52.3866 24.1222C48.2421 27.6375 44.0403 31.1607 39.7814 34.6916C36.9109 37.0706 32.9406 36.2282 32.9094 31.9771C32.8938 29.429 32.8938 26.9849 32.9094 24.6448C32.9094 24.5786 32.8839 24.5151 32.8385 24.4683C32.7932 24.4215 32.7317 24.3952 32.6676 24.3952C24.8049 24.3276 16.3702 24.3276 7.36353 24.3952C2.87838 24.4264 0.0234868 23.2174 8.60321e-05 18.0536C-0.0155145 13.7687 2.09056 11.6236 6.3183 11.6184C14.9714 11.6028 23.6765 11.6028 32.4336 11.6184C32.7352 11.6184 32.886 11.4676 32.886 11.166Z" fill="black"/>
</svg>
