<svg width="495" height="100" viewBox="0 0 495 100" fill="none" xmlns="http://www.w3.org/2000/svg">
<path d="M8.03336 75.9463C8.97886 80.1065 10.2553 83.3921 11.8626 85.8031C13.47 88.2141 15.55 90.0106 18.1029 91.1924C20.6557 92.327 23.9413 92.8943 27.9597 92.8943C33.4908 92.8943 37.7219 91.4525 40.6529 88.5687C43.6312 85.6849 45.1204 81.4775 45.1204 75.9463C45.1204 72.4007 44.5058 69.4224 43.2767 67.0114C42.0475 64.6004 40.0384 62.3312 37.2491 60.2039C34.4599 58.0765 30.2052 55.5946 24.485 52.7581C18.9538 50.0162 14.5809 47.3451 11.3662 44.745C8.15155 42.0976 5.74054 39.2375 4.1332 36.1647C2.57313 33.0918 1.7931 29.7353 1.7931 26.0951C1.7931 20.8004 3.02224 16.2147 5.48053 12.3382C7.98609 8.41439 11.6262 5.38881 16.401 3.26144C21.223 1.13408 26.7305 0.0703997 32.9235 0.0703997C36.5164 0.0703997 40.0147 0.259499 43.4185 0.637696C46.8696 1.01589 51.1716 1.86684 56.3245 3.19053V22.3368H49.3042C48.2169 18.1766 46.8459 14.9383 45.1913 12.6218C43.5367 10.3054 41.5984 8.69804 39.3765 7.79982C37.1546 6.85432 34.2708 6.38158 30.7252 6.38158C27.6524 6.38158 24.8868 6.94887 22.4285 8.08347C20.0175 9.21806 18.1029 10.9436 16.6846 13.26C15.2664 15.5292 14.5573 18.2475 14.5573 21.4149C14.5573 24.7714 15.1482 27.6079 16.3301 29.9244C17.5592 32.2409 19.4502 34.3919 22.003 36.3774C24.5559 38.3629 28.3379 40.5848 33.349 43.0431C39.4001 46.0687 44.0803 48.8816 47.3896 51.4817C50.7461 54.0818 53.3462 57.0601 55.1899 60.4166C57.0809 63.7258 58.0264 67.6023 58.0264 72.0462C58.0264 77.01 57.2464 81.2175 55.6863 84.6685C54.1262 88.0723 51.9516 90.8615 49.1624 93.0362C46.4204 95.1635 43.1112 96.7236 39.2347 97.7164C35.4054 98.6618 31.198 99.1346 26.6123 99.1346C19.1902 99.1346 10.6335 97.8818 0.942154 95.3763V75.9463H8.03336ZM144.823 64.5295C144.823 69.6824 144.35 74.1263 143.405 77.861C142.506 81.4066 141.159 84.5503 139.363 87.2923C137.708 89.7506 135.651 91.8543 133.193 93.6035C130.735 95.3053 127.757 96.6527 124.258 97.6454C120.76 98.6382 116.647 99.1346 111.92 99.1346C106.199 99.1346 101.283 98.4964 97.1699 97.22C93.1042 95.9435 89.7241 93.8635 87.0294 90.9797C84.382 88.0487 82.4674 84.6213 81.2856 80.6974C80.1037 76.7264 79.5128 71.6916 79.5128 65.5932V18.933C79.5128 15.2456 79.3946 12.7637 79.1582 11.4872C78.9218 10.1636 78.5673 9.12351 78.0945 8.36711C77.669 7.61072 77.0308 6.97251 76.1799 6.45249C75.3289 5.88519 73.7452 5.29426 71.4288 4.67969V1.20499H101.212V4.67969C98.5645 5.34153 96.7208 6.09793 95.6807 6.94887C94.6407 7.75254 93.9315 8.98169 93.5533 10.6363C93.1751 12.2909 92.986 15.0565 92.986 18.933V69.1388C92.986 73.7244 93.4588 77.5773 94.4043 80.6974C95.3971 83.8176 96.768 86.2522 98.5172 88.0014C100.266 89.7033 102.346 90.9561 104.757 91.7597C107.168 92.5161 110.17 92.8943 113.763 92.8943C117.073 92.8943 119.98 92.327 122.485 91.1924C124.991 90.0106 127.071 88.2378 128.726 85.874C130.428 83.5103 131.586 80.6029 132.2 77.1518C132.815 73.7008 133.122 69.0679 133.122 63.2531V18.933C133.122 14.8201 132.91 12.0073 132.484 10.4945C132.106 8.98169 131.444 7.82346 130.499 7.01978C129.6 6.21611 127.709 5.43608 124.826 4.67969V1.20499H153.12V4.67969C150.378 5.38881 148.487 6.16884 147.447 7.01978C146.454 7.87073 145.768 9.09987 145.39 10.7072C145.012 12.3146 144.823 15.0565 144.823 18.933V64.5295ZM167.798 98V94.5253C170.729 93.7689 172.691 92.9416 173.684 92.0434C174.677 91.0979 175.315 89.7742 175.599 88.0723C175.93 86.3704 176.095 83.7703 176.095 80.272V18.933C176.095 15.6711 175.977 13.3073 175.74 11.8418C175.504 10.329 175.102 9.17078 174.535 8.36711C174.015 7.51617 173.306 6.85432 172.408 6.38158C171.509 5.86155 169.973 5.29426 167.798 4.67969V1.20499H206.587C214.104 1.20499 220.131 2.00866 224.67 3.616C229.255 5.22335 232.659 7.61072 234.881 10.7781C237.103 13.8983 238.214 17.9402 238.214 22.9041C238.214 27.017 237.41 30.5862 235.803 33.6118C234.243 36.6374 232.186 39.143 229.634 41.1285C227.081 43.114 223.795 44.9578 219.777 46.6596V47.2979C226.206 49.2361 231.076 52.2381 234.385 56.3037C237.694 60.322 239.349 65.1204 239.349 70.6988C239.349 77.1282 237.907 82.3757 235.023 86.4413C232.186 90.507 228.192 93.4616 223.039 95.3053C217.886 97.1018 211.646 98 204.318 98H167.798ZM201.765 44.6032C208.951 44.6032 214.435 42.8777 218.217 39.4266C222.046 35.9283 223.961 30.8699 223.961 24.2514C223.961 20.9895 223.417 18.2948 222.33 16.1674C221.29 13.9928 219.824 12.2673 217.933 10.9909C216.089 9.71444 213.891 8.81622 211.338 8.2962C208.785 7.72891 206.02 7.44526 203.042 7.44526C201.245 7.44526 198.881 7.49253 195.95 7.58708C193.019 7.68163 190.821 7.77618 189.356 7.87073V44.6032H201.765ZM189.356 91.2634C192.807 91.5943 196.66 91.7597 200.914 91.7597C207.107 91.7597 211.906 90.9797 215.309 89.4196C218.76 87.8596 221.242 85.5667 222.755 82.5412C224.315 79.4683 225.095 75.6391 225.095 71.0534C225.095 66.4678 224.244 62.6858 222.542 59.7075C220.888 56.7292 218.311 54.5072 214.813 53.0417C211.315 51.5762 206.493 50.8435 200.347 50.8435H189.356V91.2634ZM357.843 4.67969C355.763 5.19971 354.25 5.71973 353.304 6.23975C352.406 6.75977 351.673 7.42162 351.106 8.22529C350.586 8.98169 350.184 10.1399 349.901 11.7C349.664 13.26 349.546 15.6711 349.546 18.933V80.272C349.546 83.4394 349.641 85.7558 349.83 87.2214C350.066 88.6869 350.421 89.8451 350.893 90.6961C351.413 91.547 352.146 92.2561 353.092 92.8234C354.084 93.3907 355.668 93.958 357.843 94.5253V98H328.272V94.5253C330.967 93.8635 332.834 93.1071 333.874 92.2561C334.914 91.4052 335.624 90.1524 336.002 88.4978C336.38 86.8432 336.569 84.1012 336.569 80.272V53.1126C336.569 45.9742 336.664 38.7648 336.853 31.4845C337.089 24.1569 337.349 19.1458 337.633 16.4511H336.427L308.346 86.725H300.191L274.096 15.3165H272.89C273.126 18.2003 273.339 23.4241 273.528 30.9881C273.765 38.552 273.883 46.3287 273.883 54.3182V80.272C273.883 83.4394 273.977 85.7558 274.166 87.2214C274.403 88.6869 274.757 89.8451 275.23 90.6961C275.75 91.547 276.483 92.2561 277.428 92.8234C278.421 93.3907 280.005 93.958 282.18 94.5253V98H256.297V94.5253C259.228 93.7689 261.19 92.9416 262.182 92.0434C263.175 91.0979 263.813 89.7742 264.097 88.0723C264.428 86.3704 264.593 83.7703 264.593 80.272V18.933C264.593 15.6711 264.475 13.3073 264.239 11.8418C264.002 10.329 263.601 9.17078 263.033 8.36711C262.513 7.51617 261.804 6.85432 260.906 6.38158C260.008 5.86155 258.471 5.29426 256.297 4.67969V1.20499H281.612L306.502 70.2025L333.874 1.20499H357.843V4.67969ZM396.632 80.272C396.632 83.4394 396.726 85.7558 396.915 87.2214C397.152 88.6869 397.506 89.8451 397.979 90.6961C398.499 91.547 399.232 92.2561 400.177 92.8234C401.17 93.3907 402.754 93.958 404.928 94.5253V98H375.003V94.5253C377.934 93.7689 379.896 92.9416 380.889 92.0434C381.882 91.0979 382.52 89.7742 382.804 88.0723C383.135 86.3704 383.3 83.7703 383.3 80.272V18.933C383.3 15.6711 383.182 13.3073 382.946 11.8418C382.709 10.329 382.307 9.17078 381.74 8.36711C381.22 7.51617 380.511 6.85432 379.613 6.38158C378.714 5.86155 377.178 5.29426 375.003 4.67969V1.20499H404.928V4.67969C402.848 5.19971 401.335 5.71973 400.39 6.23975C399.492 6.75977 398.759 7.42162 398.192 8.22529C397.672 8.98169 397.27 10.1399 396.986 11.7C396.75 13.26 396.632 15.6711 396.632 18.933V80.272ZM418.189 1.20499H494.916V25.8824H487.966C486.926 21.8168 485.886 18.6021 484.846 16.2384C483.853 13.8746 482.79 12.0782 481.655 10.849C480.521 9.61989 479.291 8.74531 477.968 8.22529C476.691 7.70527 474.753 7.44526 472.153 7.44526H463.147V80.0592C463.147 82.8484 463.289 85.0704 463.573 86.725C463.904 88.3796 464.376 89.7033 464.991 90.6961C465.653 91.6415 466.527 92.3979 467.615 92.9652C468.702 93.4853 470.404 94.0053 472.72 94.5253V98H440.313V94.5253C441.732 94.1944 442.984 93.8398 444.072 93.4616C445.159 93.0834 446.034 92.6343 446.696 92.1143C447.405 91.547 447.972 90.8379 448.397 89.9869C448.87 89.136 449.225 87.9778 449.461 86.5122C449.745 85.0467 449.887 82.8957 449.887 80.0592V7.44526H440.952C438.73 7.44526 436.886 7.65799 435.421 8.08347C434.002 8.50894 432.679 9.40716 431.449 10.7781C430.22 12.1018 429.086 14.0164 428.046 16.522C427.053 18.9803 426.107 22.1004 425.209 25.8824H418.189V1.20499Z" fill="black"/>
</svg>
