<svg width="78" height="18" viewBox="0 0 78 18" fill="none" xmlns="http://www.w3.org/2000/svg">
<path d="M9.77707 0.710936L10.4808 1.29445C11.2247 2.47483 11.7192 3.80221 10.4586 4.75097C9.65682 5.16967 8.89955 5.02714 8.18687 4.32336C7.94634 3.68195 7.50686 3.30481 6.86842 3.19197C5.7697 2.99598 5.14165 3.14595 4.98427 3.64186C4.76155 4.15855 4.73188 4.69603 4.8952 5.2543C4.95756 5.8779 5.47127 6.30254 6.43637 6.52822L7.00653 6.79548L9.05994 7.91795C10.5239 8.71675 11.296 10.0144 11.3761 11.811C11.541 15.4056 8.88621 16.8755 5.65241 16.8577C4.08154 16.8488 2.75121 16.3544 1.6614 15.3744C0.579007 14.3989 0.14691 12.8132 1.46092 11.8422C2.54776 11.0449 3.65246 12.2297 4.50323 12.8355C5.59898 13.6239 6.93969 13.8154 7.59001 12.35C7.6494 12.2134 7.66126 12.0738 7.62562 11.9313C7.44151 11.1532 7.05847 10.6425 6.47644 10.399C5.19361 9.85853 4.24484 9.4042 3.63015 9.03598C1.20703 7.58388 0.430505 5.46216 1.30057 2.67081L2.59232 0.978196L2.99322 0.728757C3.98652 0.537223 4.89519 0.0472553 5.82613 0.0071668C7.04067 -0.0462845 8.20172 0.194244 9.30935 0.728757C9.47862 0.808934 9.63454 0.802991 9.77707 0.710936Z" fill="black"/>
<path d="M25.5658 1.81777C25.554 2.05533 25.5495 2.28844 25.5525 2.5171C25.5525 2.52601 25.5495 2.53046 25.5436 2.53046C25.5406 2.53046 25.5376 2.53046 25.5347 2.53046C25.5258 2.53046 25.5213 2.52601 25.5213 2.5171C25.5451 2.4191 25.5347 2.34487 25.4901 2.29438C25.4337 2.23499 25.3995 2.24687 25.3876 2.33001C25.2689 3.25056 25.3179 4.15923 25.5347 5.05603C25.4337 7.0456 25.4055 9.07973 25.45 11.1584C25.5035 13.7686 24.3053 15.9557 21.6951 16.7173C17.9758 17.8042 13.8021 16.1784 13.6819 11.8043C13.6076 9.12279 13.5913 5.83553 13.6329 1.94249C13.6462 0.579484 14.2743 -0.0173922 15.566 0.018242C16.7716 0.0538762 17.3729 0.675991 17.37 1.88458C17.364 5.14511 17.3997 8.31953 17.4769 11.4078C17.5096 12.753 18.1984 13.4108 19.5436 13.3811C19.5525 13.3811 19.5793 13.3796 19.6238 13.3766C20.969 13.3469 21.6461 12.661 21.655 11.3187C21.6817 7.77313 21.7069 4.46658 21.7307 1.39907C21.7327 1.0532 21.8678 0.721272 22.1082 0.471785C22.3485 0.222298 22.6758 0.0742949 23.0225 0.0583289L24.3899 0.00043472C24.5265 -0.00550431 24.6453 0.0360684 24.7463 0.125154C25.2243 0.552764 25.4975 1.11697 25.5658 1.81777Z" fill="black"/>
<path d="M37.4125 7.79255C37.5669 7.98557 37.7703 8.11919 38.0227 8.19343C38.1623 8.23501 38.281 8.30924 38.379 8.41615C39.35 9.45251 39.7896 10.7027 39.6975 12.1666C39.549 14.5304 38.336 16.0122 36.0584 16.612C33.8713 17.1911 29.6531 17.3737 28.4682 14.9639C28.0288 14.0701 27.806 13.0753 27.8001 11.9796C27.7853 9.3753 27.7942 6.93138 27.8269 4.64782C27.8655 1.94556 29.2404 0.429624 31.9515 0.100008C33.4927 -0.0841023 34.8037 -0.0143181 35.8846 0.309359C37.1051 0.670156 38.624 1.67682 38.9225 3.00865C39.2521 4.47411 39.1586 5.87275 38.1474 7.04868C37.9336 7.29812 37.7421 7.3293 37.4659 7.49411C37.3293 7.57132 37.3115 7.6708 37.4125 7.79255ZM35.3591 5.01307C35.3591 4.49919 35.1549 4.00636 34.7915 3.64298C34.4281 3.27961 33.9353 3.07546 33.4215 3.07546C32.9076 3.07546 32.4147 3.27961 32.0514 3.64298C31.688 4.00636 31.4838 4.49919 31.4838 5.01307C31.4838 5.52696 31.688 6.0198 32.0514 6.38318C32.4147 6.74655 32.9076 6.95069 33.4215 6.95069C33.9353 6.95069 34.4281 6.74655 34.7915 6.38318C35.1549 6.0198 35.3591 5.52696 35.3591 5.01307ZM35.9274 11.256C35.9229 10.735 35.7116 10.2372 35.34 9.87206C34.9684 9.50691 34.4669 9.30432 33.946 9.30886L33.3313 9.31422C32.8104 9.31877 32.3125 9.53007 31.9474 9.90166C31.5822 10.2732 31.3797 10.7747 31.3842 11.2956L31.3876 11.6876C31.3922 12.2085 31.6035 12.7063 31.9751 13.0715C32.3466 13.4366 32.848 13.6392 33.369 13.6347L33.9837 13.6293C34.5046 13.6248 35.0024 13.4135 35.3676 13.0419C35.7327 12.6703 35.9353 12.1689 35.9308 11.6479L35.9274 11.256Z" fill="black"/>
<path d="M53.5951 8.22486C53.3493 8.78722 53.2058 9.37865 53.1647 9.9991L51.5494 16.5009C51.5072 16.6841 51.4043 16.8199 51.2407 16.9083C50.6088 17.2556 50.0551 17.2529 49.5794 16.9001C49.2825 16.682 49.0377 16.2644 48.8453 15.6475C48.0559 13.127 47.3171 10.2124 46.6289 6.9039C46.2508 5.07016 46.0702 5.08918 46.0871 6.96101C46.108 9.12943 46.1356 12.0429 46.1696 15.7014C46.1799 16.6355 45.717 17.091 44.7807 17.0679L44.1869 17.0503C43.3433 17.028 42.8862 16.5965 42.8158 15.7557C42.6252 13.4939 42.544 9.54781 42.5721 3.91761C42.5824 2.21197 43.3603 0.493488 45.299 0.626262C47.0308 0.747165 48.1334 1.69528 48.6069 3.47066C49.1988 5.70749 49.6487 7.85595 49.9565 9.916C50.069 10.6513 50.2005 10.654 50.3507 9.92397C50.6767 8.31697 51.0332 6.61697 51.4201 4.82397C51.7357 3.35726 52.0633 2.36908 52.4029 1.85941C53.1538 0.736117 54.2578 0.354253 55.715 0.713798C57.4063 1.1347 57.7233 2.62276 57.7611 4.13623C57.8816 8.68807 57.9295 12.3657 57.9049 15.1692C57.8931 16.2542 57.3514 16.8837 56.2796 17.0579C55.8874 17.1241 55.4596 17.007 54.9962 16.7067C54.8125 16.5884 54.6616 16.4266 54.5572 16.236C54.4528 16.0455 54.3983 15.8324 54.3987 15.6163L54.3936 5.8516C54.3938 5.7701 54.3557 5.71637 54.2792 5.69043L54.1208 5.63276C54.0405 5.60665 53.9947 5.63405 53.9834 5.71502L53.5951 8.22486Z" fill="black"/>
<path d="M62.9282 0.00348515L62.5629 0.00284766C61.6232 0.00120752 60.8601 0.761679 60.8584 1.70141L60.8348 15.2602C60.8331 16.1999 61.5936 16.9631 62.5333 16.9647L62.8986 16.9653C63.8383 16.967 64.6014 16.2065 64.6031 15.2668L64.6267 1.70799C64.6284 0.768256 63.8679 0.00512529 62.9282 0.00348515Z" fill="black"/>
<path d="M74.42 3.93698C74.3754 7.60433 74.3531 11.2999 74.3531 15.0237C74.3531 16.2664 73.6538 16.8855 72.4422 16.9167C71.2188 16.9524 70.5922 16.3585 70.5625 15.135C70.4734 11.3133 70.4556 7.5969 70.5091 3.98597C70.515 3.77216 70.4125 3.69051 70.2017 3.74099C69.3019 3.9637 67.6405 3.87016 67.106 2.90358C66.8774 2.49973 66.8061 1.98155 66.8922 1.34905C66.9516 0.933313 67.1416 0.597753 67.4623 0.342375C67.691 0.164204 68.031 0.0691864 68.4824 0.0573083C70.8639 0.000887503 73.3598 -0.0139628 75.97 0.0127628C76.8342 0.0216714 77.4028 0.253293 77.676 0.707629C78.0412 1.31638 78.0977 1.97116 77.8453 2.67197C77.4221 3.84344 75.627 3.73208 74.6515 3.70981C74.5001 3.70684 74.4229 3.78256 74.42 3.93698Z" fill="black"/>
</svg>
